<?xml version="1.0" encoding="utf-8"?>
<!-- Generator: Adobe Illustrator 17.1.0, SVG Export Plug-In . SVG Version: 6.00 Build 0)  -->
<!DOCTYPE svg PUBLIC "-//W3C//DTD SVG 1.1//EN" "http://www.w3.org/Graphics/SVG/1.1/DTD/svg11.dtd">
<svg version="1.1" id="Layer_1" xmlns="http://www.w3.org/2000/svg" xmlns:xlink="http://www.w3.org/1999/xlink" x="0px" y="0px"
	 viewBox="0 0 250.4 176.1" enable-background="new 0 0 250.4 176.1" xml:space="preserve">
<g>
	<path d="M3.1,87.9h2.7c4.2,0,8.1-4.4,9.8-7L69.7,0h2.6v87.9H81l-0.6,2.2h-36l0.6-2.2h9.6V63.9H30.3L20,79.8c-1,1.6-2.6,3.6-2.6,4.8
		c0,2.6,2.6,3.3,5.5,3.3h4.5l-0.6,2.2H2.5L3.1,87.9z M54.6,26.8h-0.2L31.7,61.7h22.8V26.8z"/>
	<path d="M86.8,87.9h9l22.8-82h-9.7l0.6-2.2h37l-0.6,2.2h-9l-23,82h13.9c18.4,0,32.9-11.3,38.7-31.6l1.8,0.4l-9.5,33.4H86.2
		L86.8,87.9z"/>
	<path d="M168.7,87.9h9l22.8-82h-9.7l0.6-2.2h37l-0.6,2.2h-9l-23,82h13.9c18.4,0,32.9-11.3,38.7-31.6l1.8,0.4l-9.5,33.4h-72.7
		L168.7,87.9z"/>
</g>
<g>
	<path d="M76.2,118.8H78l4.6-16.4h-1.9l0.1-0.4h7.4l-0.1,0.4h-1.8l-4.6,16.4h1.9l-0.1,0.4h-7.4L76.2,118.8z"/>
	<path d="M85.3,118.8h1c0.8,0,1.6-1.4,1.9-2.2l4-14.2h-1.8l0.1-0.4H96l4.5,13.9h0l3.1-11.2c0.1-0.6,0.2-0.9,0.2-1.3
		c0-0.6-0.3-0.9-1.3-0.9h-0.8l0.1-0.4h5.5l-0.1,0.4h-0.8c-1.4,0-1.9,0.9-2.3,2.2l-4.2,14.7h-2l-5.3-16.3h0L88.9,116
		c-0.2,0.7-0.4,1.2-0.4,1.6c0,1,0.7,1.2,1.5,1.2h0.7l-0.1,0.4h-5.3L85.3,118.8z"/>
	<path d="M116.9,118.8h2l4.6-16.4h-1.3c-3.1,0-5,3.1-6,5.7h-0.5l1.8-6.1h16.2l-1.8,6.1h-0.5c0.2-0.8,0.4-1.7,0.4-2.3
		c0-2-1.2-3.3-3.4-3.3h-1.1l-4.6,16.4h2.1l-0.1,0.4h-7.8L116.9,118.8z"/>
	<path d="M130.5,118.8h1.8l4.6-16.4h-1.9l0.1-0.4h7.4l-0.1,0.4h-1.8l-2.2,7.8h6.5l2.2-7.8h-2l0.1-0.4h7.5l-0.1,0.4h-1.8l-4.6,16.4h2
		l-0.1,0.4h-7.4l0.1-0.4h1.8l2.3-8.2h-6.5l-2.3,8.2h1.9l-0.1,0.4h-7.4L130.5,118.8z"/>
	<path d="M149.6,118.8h1.8l4.6-16.4h-1.9l0.1-0.4h13.3l-0.9,4.7h-0.4c0-0.3,0.1-0.7,0.1-1c0-2.6-1.4-3.2-3-3.2h-3.7l-2,7.3h2.2
		c1.2,0,1.9-0.4,2.3-1.5l0.4-1.1h0.4c-0.6,2.1-1.2,4.1-1.6,6.2h-0.4c0.1-0.6,0.2-1.2,0.2-1.8c0-1-0.6-1.3-1.7-1.3h-1.9l-2.4,8.7h3.7
		c3.6,0,5.5-2.7,6.3-5h0.4l-1.5,5.5h-14.4L149.6,118.8z"/>
</g>
<g>
	<path d="M0,176.1l0.3-1.2h4.9l12.4-44.6h-5.3l0.3-1.2h36.2L46.4,142h-1.1c0.1-0.9,0.3-1.9,0.3-2.8c0-6.9-3.9-8.8-8.1-8.8h-10
		l-5.3,19.7H28c3.3,0,5.1-1.1,6.2-4.1l1.1-3.1h1.1c-1.6,5.6-3.2,11.2-4.5,16.9h-1.1c0.4-1.7,0.7-3.3,0.7-4.9c0-2.7-1.7-3.5-4.7-3.5
		h-5l-6.5,23.6h5.2l-0.3,1.2H0z"/>
	<path d="M33.5,174.9H35c2.3,0,4.4-2.4,5.3-3.8l29.4-44H71v47.8h4.7l-0.3,1.2H55.9l0.3-1.2h5.2v-13.1H48.2l-5.6,8.7
		c-0.5,0.9-1.4,1.9-1.4,2.6c0,1.4,1.4,1.8,3,1.8h2.5l-0.3,1.2H33.2L33.5,174.9z M61.4,141.7h-0.1L49,160.7h12.4V141.7z"/>
	<path d="M76.7,174.9h1.5c2.2,0,4.3-1.7,5-4.3l11.6-40.3h-4.9l0.3-1.2h15.1l2.6,33.8h0.1l22-33.8h14.6l-0.3,1.2h-4.7L127,174.9h5.3
		l-0.3,1.2h-20.3l0.3-1.2h5.1l12.2-42.4l-0.1-0.1l-28.3,43.8h-1.7l-3.3-44.6h-0.1L85,168.9c-0.3,1.1-0.5,2-0.5,3.1s0.9,3,3.1,3h2.3
		l-0.3,1.2H76.4L76.7,174.9z"/>
	<path d="M137,174.9h4.9l12.4-44.6H149l0.3-1.2h20.1l-0.3,1.2h-4.9l-12.4,44.6h5.3l-0.3,1.2h-20.1L137,174.9z"/>
	<path d="M162.5,174.9h4.9l12.4-44.6h-5.3l0.3-1.2h20.1l-0.3,1.2h-4.9l-12.5,44.6h7.5c10,0,17.9-6.1,21-17.1l1,0.2l-5.1,18.1h-39.5
		L162.5,174.9z"/>
	<path d="M208.3,174.9h4.6l5.6-19.9l-2.5-24.7h-5l0.3-1.2h19.9l-0.3,1.2h-5.3l2.3,24.1l12.4-17.2c1.3-1.8,2.3-4,2.3-5.3
		c0-1.2-1.3-1.7-2.7-1.7h-1.8l0.3-1.2h12.2l-0.3,1.2h-1.1c-2.3,0-3.5,1.2-5.7,4.2L228,156.2l-5.3,18.7h5.3l-0.3,1.2H208L208.3,174.9
		z"/>
</g>
<rect x="13.6" y="110.2" width="56.2" height="1"/>
<rect x="180" y="110.2" width="56.2" height="1"/>
</svg>
