<?xml version="1.0" encoding="utf-8"?>
<!-- Generator: Adobe Illustrator 17.1.0, SVG Export Plug-In . SVG Version: 6.00 Build 0)  -->
<!DOCTYPE svg PUBLIC "-//W3C//DTD SVG 1.1//EN" "http://www.w3.org/Graphics/SVG/1.1/DTD/svg11.dtd">
<svg version="1.1" id="Layer_1" xmlns="http://www.w3.org/2000/svg" xmlns:xlink="http://www.w3.org/1999/xlink" x="0px" y="0px"
	 viewBox="0 0 208.333 183.667" enable-background="new 0 0 208.333 183.667" xml:space="preserve">
<g>
	<path d="M6.712,109.057h1.656l2.507-10.785H8.984l0.544-2.389h6.386l-0.544,2.389h-1.821l-0.97,4.115h7.071l0.97-4.115h-2.058
		l0.544-2.389h6.386l-0.544,2.389h-1.655l-2.507,10.785h1.892l-0.544,2.389h-6.386l0.544-2.389h1.821l1.017-4.328h-7.071
		l-1.017,4.328h2.058l-0.544,2.389H6.168L6.712,109.057z"/>
	<path d="M24.404,109.057h1.656l2.507-10.785h-1.892l0.544-2.389h11.659l-1.088,4.471h-2.53l0.497-2.105H31.24l-0.97,4.163h4.636
		l-0.521,2.271H29.75l-1.017,4.398h4.517l0.544-2.104h2.531l-1.041,4.47H23.86L24.404,109.057z"/>
	<path d="M37.2,109.057h1.396l6.339-10.809h-1.869l0.544-2.365h8.751l-0.544,2.365h-1.727l1.325,10.809h1.584l-0.567,2.389h-5.795
		l0.544-2.365h1.751l-0.308-2.554h-5.96l-1.49,2.554h2.104l-0.544,2.365h-6.102L37.2,109.057z M48.363,104.303l-0.732-6.244
		l-3.666,6.244H48.363z"/>
	<path d="M54.277,109.057h1.655l2.507-10.785h-1.893l0.545-2.389h5.085c2.861,0,4.848,0.875,6.148,2.176
		c1.183,1.184,1.751,2.839,1.751,4.613c0,2.482-0.828,4.352-2.483,6.007c-1.939,1.939-4.659,2.767-7.806,2.767h-6.055
		L54.277,109.057z M60.166,109.057c2.507,0,4.068-0.639,5.416-1.986c1.206-1.206,1.727-2.768,1.727-4.281
		c0-1.135-0.378-2.294-1.183-3.098c-0.875-0.875-2.247-1.42-4.233-1.42h-0.78l-2.507,10.785H60.166z"/>
	<path d="M6.712,130.219h1.656l2.507-10.785H8.984l0.544-2.389h5.345c0.757,0,1.442,0.096,2.058,0.261
		c2.247,0.614,3.524,2.271,3.524,4.376c0,3.169-2.508,5.794-6.741,5.794c-0.804,0-1.679-0.023-2.034-0.048l-0.638,2.791h2.058
		l-0.544,2.389H6.168L6.712,130.219z M17.734,121.775c0-1.111-0.686-1.845-1.797-2.176c-0.402-0.118-0.875-0.166-1.301-0.166h-1.088
		l-1.301,5.605c0.52,0.048,1.183,0.071,1.75,0.071C16.363,125.11,17.734,123.715,17.734,121.775z"/>
	<path d="M20.36,130.219h1.798l2.507-10.785H22.63l0.544-2.389h6.504l-0.544,2.389h-1.797l-2.508,10.785h2.034l-0.544,2.389h-6.504
		L20.36,130.219z"/>
	<path d="M28.755,131.094l11.377-11.801h-5.96l-0.592,2.602h-2.436l1.135-4.85h11.637l0.236,1.514l-11.376,11.803h6.314l0.592-2.602
		h2.436l-1.135,4.848H28.993L28.755,131.094z"/>
	<path d="M43.419,131.094l11.377-11.801h-5.96l-0.592,2.602h-2.436l1.135-4.85h11.637l0.236,1.514l-11.376,11.803h6.314l0.592-2.602
		h2.436l-1.135,4.848H43.657L43.419,131.094z"/>
	<path d="M57.847,130.219h1.396l6.339-10.809h-1.869l0.544-2.365h8.751l-0.544,2.365h-1.727l1.325,10.809h1.584l-0.567,2.389h-5.795
		l0.544-2.365h1.751l-0.308-2.554h-5.96l-1.49,2.554h2.104l-0.544,2.365H57.28L57.847,130.219z M69.01,125.465l-0.732-6.244
		l-3.666,6.244H69.01z"/>
	<path d="M75.089,130.219h1.798l2.507-10.785H77.36l0.544-2.389h6.504l-0.544,2.389h-1.797l-2.508,10.785h2.034l-0.544,2.389h-6.504
		L75.089,130.219z"/>
	<path d="M84.645,125.914c0-4.47,3.619-9.152,8.609-9.152c4.233,0,6.788,2.909,6.788,6.977c0,4.471-3.619,9.153-8.609,9.153
		C87.2,132.892,84.645,129.982,84.645,125.914z M97.275,123.715c0-2.555-1.514-4.518-4.257-4.518c-3.217,0-5.605,3.453-5.605,6.741
		c0,2.554,1.514,4.517,4.257,4.517C94.886,130.455,97.275,127.002,97.275,123.715z"/>
	<path d="M100.728,130.219h1.656l2.506-10.785h-1.892l0.544-2.389h6.551l-0.544,2.389h-1.986l-2.507,10.809h4.209l0.521-2.199h2.578
		l-1.064,4.564h-11.116L100.728,130.219z"/>
	<path d="M113.783,125.914c0-4.47,3.619-9.152,8.609-9.152c4.233,0,6.788,2.909,6.788,6.977c0,4.471-3.619,9.153-8.609,9.153
		C116.338,132.892,113.783,129.982,113.783,125.914z M126.413,123.715c0-2.555-1.514-4.518-4.257-4.518
		c-3.217,0-5.605,3.453-5.605,6.741c0,2.554,1.514,4.517,4.257,4.517C124.024,130.455,126.413,127.002,126.413,123.715z"/>
</g>
<g>
	<path d="M5.939,162.874h1.126l1.58-6.812H7.422l0.261-1.112h3.599l-0.247,1.112H9.894l-1.579,6.812h1.223l-0.261,1.112H5.678
		L5.939,162.874z"/>
	<path d="M14.386,157.064l-1.346,5.81h1.236l-0.261,1.112h-3.475l0.261-1.112h1.03l1.579-6.812h-1.167l0.247-1.112h2.211
		l3.255,6.399l1.222-5.287h-1.222l0.261-1.112h3.447l-0.248,1.112h-1.016l-1.854,7.951h-0.604L14.386,157.064z"/>
	<path d="M22.906,162.874h1.112l1.593-6.839h-2.005l-0.316,1.428h-1.194l0.577-2.513h7.607l-0.576,2.513h-1.182l0.316-1.428h-1.991
		l-1.58,6.839h1.25l-0.247,1.112h-3.626L22.906,162.874z"/>
	<path d="M29.555,162.874h1.03l1.579-6.812h-1.167l0.247-1.112h6.66l-0.577,2.376h-1.181l0.302-1.277h-3.034l-0.659,2.801h2.814
		l-0.247,1.072h-2.801l-0.701,2.966h3.049l0.316-1.277h1.181l-0.549,2.376h-6.523L29.555,162.874z"/>
	<path d="M37.497,162.874h1.03l1.579-6.812h-1.167l0.247-1.112h2.856c1.222,0,2.114,0.274,2.664,0.837
		c0.426,0.412,0.646,0.976,0.646,1.635c0,1.373-0.934,2.459-2.499,2.856l1.208,2.596h1.071l-0.261,1.112h-1.689l-1.538-3.557H41.3
		c-0.302,0-0.645-0.014-0.947-0.027l-0.591,2.472h1.195l-0.261,1.112h-3.461L37.497,162.874z M44.088,157.504
		c0-0.384-0.123-0.714-0.371-0.961c-0.329-0.33-0.906-0.48-1.716-0.48h-0.659l-0.756,3.269c0.316,0.027,0.632,0.041,1.085,0.041
		C43.182,159.372,44.088,158.59,44.088,157.504z"/>
	<path d="M47.387,156.062h-0.934l0.247-1.112h3.214l-0.247,1.112h-0.935l0.879,5.905l3.543-5.905h-1.029l0.247-1.112h3.282
		l-0.247,1.112h-0.811l-5.108,8.047h-0.715L47.387,156.062z"/>
	<path d="M54.835,162.874h1.126l1.58-6.812h-1.223l0.261-1.112h3.599l-0.248,1.112h-1.14l-1.579,6.812h1.223l-0.262,1.112h-3.598
		L54.835,162.874z"/>
	<path d="M59.698,162.874h1.03l1.579-6.812H61.14l0.247-1.112h6.66l-0.577,2.376H66.29l0.302-1.277h-3.034l-0.659,2.801h2.814
		l-0.247,1.072h-2.801l-0.701,2.966h3.049l0.316-1.277h1.181l-0.549,2.376h-6.523L59.698,162.874z"/>
	<path d="M69.671,156.062h-0.975l0.261-1.112h3.323l-0.247,1.112h-1.14l0.274,5.686l3.351-5.809h0.591l1.002,5.836l2.774-5.713
		h-1.099l0.247-1.112h3.337l-0.261,1.112h-0.865l-4.106,8.02h-0.673l-1.085-5.754l-3.474,5.754l-0.659,0.014L69.671,156.062z"/>
	<path d="M83.562,162.874h1.03l1.579-6.812h-1.167l0.247-1.112h3.09c0.824,0,1.47,0.11,1.964,0.37
		c0.687,0.357,1.112,1.017,1.112,1.8c0,1.222-0.989,2.087-2.211,2.266c0.92,0.261,1.62,1.003,1.62,1.909
		c0,0.755-0.288,1.373-0.81,1.826c-0.426,0.371-1.03,0.632-1.744,0.756c-0.385,0.082-0.824,0.109-1.277,0.109h-3.694L83.562,162.874
		z M87.174,162.901c0.343,0,0.659-0.041,0.92-0.097c0.453-0.096,0.782-0.26,1.029-0.508c0.275-0.274,0.412-0.631,0.412-1.07
		c0-0.811-0.755-1.36-2.032-1.36h-0.961l-0.715,3.035H87.174z M87.641,158.863c1.538,0,2.485-0.576,2.485-1.605
		c0-0.426-0.22-0.824-0.673-1.017c-0.302-0.124-0.714-0.206-1.277-0.206h-0.755l-0.659,2.828H87.641z"/>
	<path d="M92.931,162.874h1.153l0.591-2.472l-1.565-4.34h-0.906l0.261-1.112h3.186l-0.247,1.112h-1.002l1.126,3.434l2.773-3.434
		h-0.988l0.261-1.112h3.31l-0.247,1.112H99.77l-3.914,4.573l-0.521,2.238h1.236l-0.248,1.112H92.67L92.931,162.874z"/>
	<path d="M5.94,180.288h1.462l2.655-9.544H8.403l0.346-1.559h3.079l2.193,8.005l5.715-8.005h3.213l-0.365,1.559h-1.463l-1.789,9.544
		h1.674l-0.347,1.559h-4.887l0.347-1.559h1.5l1.521-7.87L13.636,180h-0.27l-2.155-7.582l-2.097,7.87h1.712l-0.365,1.559H5.593
		L5.94,180.288z"/>
	<path d="M22.884,178.691c0-2.828,1.963-5.291,4.368-5.291c1.251,0,2.193,0.904,2.482,1.962l0.538-1.847h1.578l-1.462,5.906
		c-0.097,0.347-0.154,0.654-0.154,0.848c0,0.365,0.173,0.576,0.5,0.576c0.309,0,0.693-0.288,1.078-1.347l0.75,0.27
		c-0.5,1.655-1.366,2.213-2.29,2.213c-0.98,0-1.597-0.673-1.597-1.674v-0.097c-0.712,0.981-1.713,1.789-2.963,1.789
		C24.058,182,22.884,180.711,22.884,178.691z M29.35,176.921c0-1.231-0.616-2.04-1.886-2.04c-1.616,0-2.829,1.752-2.829,3.617
		c0,1.213,0.597,2.06,1.751,2.06C28.08,180.558,29.35,178.729,29.35,176.921z"/>
	<path d="M35.58,174.978h-1.539l0.365-1.424h2.963l-0.538,2.328c1.02-1.636,1.981-2.463,2.886-2.463
		c0.674,0,1.231,0.481,1.231,1.154c0,0.654-0.538,1.174-1.154,1.174c-0.577,0-1.02-0.385-1.116-0.847
		c-0.596,0.27-1.77,1.443-2.213,3.232l-0.923,3.714h-1.693L35.58,174.978z"/>
	<path d="M41.099,181.847l2.925-12.661h-1.559l0.365-1.424h3.175l-2.27,9.736c2.309-0.827,3.443-1.578,3.79-2.116
		c-0.327-0.192-0.52-0.539-0.52-0.886c0-0.596,0.481-1.096,1.097-1.096c0.616,0,1.136,0.48,1.136,1.23
		c0,1.251-1.231,2.387-3.252,3.348l0.808,1.887c0.174,0.404,0.289,0.635,0.424,0.789c0.135,0.135,0.25,0.172,0.385,0.172
		c0.288,0,0.558-0.307,0.885-1.539l0.77,0.25c-0.442,2.002-1.192,2.444-2.039,2.444c-0.385,0-0.751-0.097-1.078-0.366
		c-0.269-0.23-0.52-0.576-0.712-1.058l-0.904-2.155c-0.327,0.135-0.692,0.25-1,0.365l-0.731,3.079H41.099z"/>
	<path d="M54.351,180.288h1.442l2.213-9.544h-1.636l0.347-1.559h4.926l-0.365,1.559h-1.521l-0.904,3.887h6.389l0.904-3.887h-1.732
		l0.366-1.559h4.906l-0.347,1.559h-1.462l-2.213,9.544H67.3l-0.347,1.559h-4.906l0.347-1.559h1.539l0.962-4.137h-6.388l-0.981,4.137
		h1.731l-0.365,1.559h-4.907L54.351,180.288z"/>
	<path d="M69.854,180.308c0-0.251,0.058-0.616,0.135-0.905l1.154-4.425h-1.559l0.365-1.424h3.252l-1.539,5.868
		c-0.097,0.328-0.135,0.654-0.135,0.848c0,0.365,0.192,0.576,0.5,0.576c0.385,0,0.731-0.288,1.136-1.347l0.75,0.27
		c-0.5,1.655-1.309,2.213-2.328,2.213C70.469,181.981,69.854,181.309,69.854,180.308z M71.47,171.033c0-0.615,0.5-1.116,1.116-1.116
		c0.596,0,1.115,0.501,1.115,1.116s-0.52,1.115-1.115,1.115C71.97,172.148,71.47,171.648,71.47,171.033z"/>
	<path d="M80.781,180.326c0-0.27,0.058-0.635,0.135-0.942l0.712-2.501c0.097-0.328,0.135-0.578,0.135-0.848
		c0-0.73-0.5-1.211-1.251-1.211c-1.02,0-1.981,0.865-2.405,2.52l-1.115,4.503h-1.693l1.731-6.869H75.49l0.365-1.424h2.963
		l-0.442,1.943c0.654-1.154,1.732-2.078,2.867-2.078c1.271,0,2.251,0.866,2.251,2.348c0,0.403-0.076,0.866-0.211,1.347l-0.712,2.443
		c-0.058,0.25-0.116,0.52-0.116,0.674c0,0.385,0.192,0.615,0.52,0.615s0.693-0.288,1.078-1.347l0.75,0.27
		c-0.442,1.501-1.231,2.213-2.251,2.213C81.416,181.981,80.781,181.289,80.781,180.326z"/>
	<path d="M85.933,178.326c0-2.637,2.193-4.926,4.829-4.926c1.828,0,3.04,1.115,3.04,2.328c0,0.711-0.442,1.308-1.135,1.308
		c-0.52,0-0.981-0.403-0.981-1.02c0-0.25,0.135-0.558,0.347-0.731c-0.27-0.308-0.712-0.461-1.309-0.461
		c-1.501,0-3.098,1.289-3.098,3.405c0,1.442,0.962,2.366,2.366,2.366c0.962,0,1.943-0.385,2.79-1.039l-0.038,1.539
		c-0.809,0.578-1.809,0.904-2.906,0.904C87.645,182,85.933,180.635,85.933,178.326z"/>
	<path d="M97.686,169.186h-1.559l0.365-1.424h3.175l-1.731,7.408c0.597-0.924,1.578-1.751,2.675-1.751c1.27,0,2.29,0.866,2.29,2.348
		c0,0.403-0.059,0.866-0.212,1.347l-0.674,2.463c-0.058,0.25-0.096,0.5-0.096,0.654c0,0.385,0.192,0.615,0.5,0.615
		c0.347,0,0.692-0.288,1.077-1.347l0.751,0.27c-0.442,1.501-1.212,2.213-2.25,2.213c-1.136,0-1.771-0.692-1.771-1.655
		c0-0.27,0.058-0.615,0.135-0.924l0.692-2.52c0.097-0.328,0.115-0.578,0.115-0.848c0-0.73-0.52-1.211-1.27-1.211
		c-1.02,0-2.021,0.846-2.405,2.559l-1.039,4.464h-1.693L97.686,169.186z"/>
	<path d="M105.551,180.288c0-0.25,0.059-0.558,0.116-0.866l2.386-10.236h-1.559l0.365-1.424h3.194l-2.693,11.641
		c-0.077,0.328-0.135,0.636-0.135,0.828c0,0.404,0.173,0.615,0.5,0.615c0.385,0,0.731-0.288,1.135-1.347l0.731,0.27
		c-0.5,1.655-1.309,2.213-2.309,2.213C106.147,181.981,105.551,181.309,105.551,180.288z"/>
	<path d="M111.456,180.308c0-0.251,0.058-0.616,0.135-0.905l1.154-4.425h-1.559l0.365-1.424h3.252l-1.539,5.868
		c-0.097,0.328-0.135,0.654-0.135,0.848c0,0.365,0.192,0.576,0.5,0.576c0.385,0,0.731-0.288,1.136-1.347l0.75,0.27
		c-0.5,1.655-1.309,2.213-2.328,2.213C112.071,181.981,111.456,181.309,111.456,180.308z M113.072,171.033
		c0-0.615,0.5-1.116,1.116-1.116c0.596,0,1.115,0.501,1.115,1.116s-0.52,1.115-1.115,1.115
		C113.572,172.148,113.072,171.648,113.072,171.033z"/>
	<path d="M122.21,169.59c-0.154,0.039-0.308,0.135-0.442,0.27c-0.347,0.327-0.635,1-0.866,1.982l-0.404,1.712h3.752l0.559-2.386
		c0.27-1.154,0.692-2.04,1.309-2.637c0.558-0.538,1.327-0.885,2.289-0.885c1.078,0,1.713,0.559,1.713,1.251
		c0,0.653-0.52,1.077-1.078,1.077c-0.558,0-1.02-0.365-1.058-0.885c-0.27,0.038-0.539,0.192-0.712,0.385
		c-0.366,0.346-0.654,0.962-0.866,1.866l-0.52,2.213h2.193l-0.365,1.424h-2.155l-1.559,6.869h-1.654l1.577-6.869h-3.752
		l-1.559,6.869h-1.654l1.578-6.869h-1.463l0.366-1.424h1.424l0.461-2.001c0.289-1.231,0.693-2.039,1.271-2.617
		c0.577-0.577,1.347-0.904,2.097-0.904c0.963,0,1.54,0.52,1.54,1.213c0,0.596-0.462,1.058-1.021,1.058
		C122.71,170.302,122.325,169.994,122.21,169.59z"/>
	<path d="M129.613,178.229v0.288c0,1.251,1.001,2.078,2.502,2.078c0.885,0,1.693-0.191,2.732-0.75l-0.327,1.578
		c-0.866,0.423-1.578,0.576-2.752,0.576c-1.981,0-3.81-1.25-3.81-3.521c0-2.81,2.078-5.079,4.541-5.079
		c2.021,0,3.348,1.154,3.348,3.098c0,0.52-0.096,1.096-0.308,1.731H129.613z M129.845,177.018h4.31
		c0.077-0.231,0.116-0.481,0.116-0.713c0-0.865-0.577-1.5-1.771-1.5S130.287,175.709,129.845,177.018z"/>
</g>
<line fill="none" stroke="#000000" x1="5.667" y1="85.188" x2="205.333" y2="85.188"/>
<line fill="none" stroke="#000000" x1="5.667" y1="143.574" x2="205.333" y2="143.574"/>
<g>
	<path opacity="0.5" fill="#B5121C" d="M4.06,40.891h3.518l19.26-32.176h-4.498l0.692-2.883h15.685l-0.692,2.883h-4.383
		l4.383,32.176h4.094l-0.691,2.883H29.778l0.692-2.883h4.209l-1.384-10.725H17.438l-6.343,10.725h4.901l-0.692,2.883H3.369
		L4.06,40.891z M32.892,27.283L30.413,8.427L19.168,27.283H32.892z"/>
	<path opacity="0.5" fill="#B5121C" d="M63.285,40.026c0-0.634,0.23-1.845,0.461-2.652l2.479-8.592
		c0.346-1.269,0.576-2.249,0.576-3.287c0-2.191-1.729-3.806-4.209-3.806c-3.575,0-8.131,3.748-9.86,10.552l-2.883,11.533H46.85
		l5.421-21.566h-4.613l0.691-2.652h7.438l-1.499,5.824c2.364-3.806,5.306-6.285,8.765-6.285c4.037,0,6.805,2.71,6.805,6.285
		c0,1.211-0.346,2.537-0.692,3.806l-2.479,8.477c-0.23,0.807-0.403,1.903-0.403,2.364c0,1.153,0.75,1.903,1.787,1.903
		c1.269,0,2.249-1.153,3.345-3.806l1.788,0.577c-1.153,3.402-2.884,5.42-5.536,5.42C65.129,44.121,63.285,42.448,63.285,40.026z"/>
	<path opacity="0.5" fill="#B5121C" d="M90.158,19.095c4.151,0,7.496,2.307,8.188,6.285l4.901-21.162h-4.613l0.635-2.653h7.611
		L98.403,37.72C98.172,38.643,98,39.565,98,40.026c0,1.153,0.634,1.903,1.729,1.903c1.326,0,2.307-1.153,3.402-3.806l1.788,0.577
		c-1.153,3.402-2.883,5.42-5.536,5.42c-2.479,0-4.209-1.615-4.209-4.037c0-0.23,0-0.519,0.058-0.807
		c-2.076,2.768-5.074,4.959-8.649,4.959c-5.248,0-9.169-3.864-9.169-10.091C77.414,25.668,83.526,19.095,90.158,19.095z
		 M97.307,29.186c0-4.44-2.537-7.381-6.919-7.381c-5.824,0-9.745,5.997-9.745,12.282c0,4.498,2.422,7.438,6.573,7.438
		C93.329,41.525,97.307,34.836,97.307,29.186z"/>
	<path opacity="0.5" fill="#B5121C" d="M114.897,22.208h-4.613l0.691-2.652h7.438l-1.614,6.573c3.229-4.44,5.939-7.035,8.188-7.035
		c1.902,0,2.94,1.096,2.94,2.537c0,1.557-1.269,2.826-2.71,2.826c-1.326,0-2.249-0.808-2.537-1.961
		c-1.961,1.153-6.17,4.959-7.554,10.668l-2.652,10.61h-2.999L114.897,22.208z"/>
	<path opacity="0.5" fill="#B5121C" d="M132.083,32.473c-0.058,0.519-0.058,1.038-0.058,1.557c0,5.017,4.095,7.554,8.188,7.554
		c2.825,0,4.844-0.576,7.958-2.249l-0.692,3.114c-2.537,1.269-4.613,1.788-7.784,1.788c-5.594,0-10.668-3.633-10.668-10.149
		c0-8.188,6.4-14.992,13.551-14.992c5.478,0,8.822,3.46,8.822,8.592c0,1.499-0.346,3.056-0.98,4.786H132.083z M132.66,29.936h15.454
		c0.288-0.865,0.461-1.846,0.461-2.768c0-2.71-1.846-5.363-6.228-5.363C138.08,21.805,134.159,25.265,132.66,29.936z"/>
	<path opacity="0.5" fill="#B5121C" d="M157.456,40.026c0-0.634,0.23-1.788,0.461-2.595l4.268-15.223h-4.844l0.692-2.652h7.899
		l-5.074,18.164c-0.23,0.807-0.403,1.845-0.403,2.307c0,1.153,0.749,1.903,1.787,1.903c1.269,0,2.249-1.153,3.345-3.806l1.787,0.577
		c-1.153,3.402-2.883,5.42-5.535,5.42C159.302,44.121,157.456,42.448,157.456,40.026z M162.761,11.714
		c0-1.384,1.096-2.537,2.479-2.537c1.327,0,2.422,1.153,2.422,2.537s-1.095,2.537-2.422,2.537
		C163.856,14.251,162.761,13.098,162.761,11.714z"/>
	<path opacity="0.5" fill="#B5121C" d="M7.779,69.89h2.518l3.86-16.65h-2.854l0.604-2.719h15.979l-1.409,5.807h-2.888l0.739-3.122
		h-7.117L15.5,60.457h6.681l-0.604,2.652h-6.646l-1.611,6.781h3.188l-0.638,2.719H7.141L7.779,69.89z"/>
	<path opacity="0.5" fill="#B5121C" d="M28.292,66.298v0.503c0,2.182,1.746,3.625,4.364,3.625c1.544,0,2.954-0.335,4.767-1.309
		l-0.57,2.752c-1.511,0.739-2.753,1.007-4.801,1.007c-3.458,0-6.646-2.182-6.646-6.143c0-4.901,3.625-8.862,7.922-8.862
		c3.525,0,5.842,2.014,5.842,5.404c0,0.907-0.168,1.914-0.537,3.021H28.292z M28.695,64.183h7.52
		c0.134-0.403,0.201-0.839,0.201-1.242c0-1.511-1.007-2.619-3.089-2.619C31.246,60.322,29.466,61.9,28.695,64.183z"/>
	<path opacity="0.5" fill="#B5121C" d="M44.742,60.625h-2.686l0.638-2.484h5.17l-0.94,4.062c1.779-2.853,3.458-4.297,5.036-4.297
		c1.175,0,2.148,0.839,2.148,2.015c0,1.141-0.94,2.047-2.015,2.047c-1.007,0-1.779-0.671-1.947-1.477
		c-1.04,0.47-3.088,2.518-3.86,5.64l-1.611,6.479H41.72L44.742,60.625z"/>
	<path opacity="0.5" fill="#B5121C" d="M59.479,50.521h-2.72l0.638-2.484h5.539l-2.987,12.823c1.107-1.611,2.92-2.987,4.867-2.987
		c3.357,0,5.305,2.35,5.305,5.841c0,5.036-3.492,9.165-7.688,9.165c-2.148,0-3.962-1.376-4.432-3.323l-0.873,3.055h-2.752
		L59.479,50.521z M67.099,64.116c0-2.182-1.175-3.726-3.257-3.726c-2.853,0-5.271,3.155-5.271,6.378
		c0,2.115,1.242,3.525,3.492,3.525C64.917,70.292,67.099,67.305,67.099,64.116z"/>
	<path opacity="0.5" fill="#B5121C" d="M75.593,66.298v0.503c0,2.182,1.746,3.625,4.364,3.625c1.544,0,2.954-0.335,4.767-1.309
		l-0.57,2.752c-1.511,0.739-2.753,1.007-4.801,1.007c-3.457,0-6.646-2.182-6.646-6.143c0-4.901,3.625-8.862,7.922-8.862
		c3.525,0,5.842,2.014,5.842,5.404c0,0.907-0.168,1.914-0.537,3.021H75.593z M75.997,64.183h7.52
		c0.134-0.403,0.201-0.839,0.201-1.242c0-1.511-1.007-2.619-3.089-2.619C78.547,60.322,76.768,61.9,75.997,64.183z"/>
	<path opacity="0.5" fill="#B5121C" d="M89.828,69.923c0-0.437,0.102-1.074,0.235-1.578l2.015-7.721h-2.72l0.638-2.484h5.674
		l-2.686,10.238c-0.168,0.571-0.235,1.142-0.235,1.478c0,0.638,0.336,1.007,0.873,1.007c0.671,0,1.275-0.503,1.98-2.35l1.31,0.47
		c-0.873,2.887-2.283,3.86-4.062,3.86C90.902,72.844,89.828,71.669,89.828,69.923z M92.648,53.743c0-1.074,0.873-1.947,1.947-1.947
		c1.04,0,1.946,0.873,1.946,1.947s-0.906,1.947-1.946,1.947C93.521,55.69,92.648,54.817,92.648,53.743z"/>
</g>
</svg>
