<?xml version="1.0" encoding="utf-8"?>
<!-- Generator: Adobe Illustrator 16.0.0, SVG Export Plug-In . SVG Version: 6.00 Build 0)  -->
<!DOCTYPE svg PUBLIC "-//W3C//DTD SVG 1.1//EN" "http://www.w3.org/Graphics/SVG/1.1/DTD/svg11.dtd">
<svg version="1.1" id="Layer_1" xmlns="http://www.w3.org/2000/svg" xmlns:xlink="http://www.w3.org/1999/xlink" x="0px" y="0px"
	 width="438px" height="438px" viewBox="0 0 438 438" enable-background="new 0 0 438 438" xml:space="preserve">
<g>
	<polyline fill="#E9F1CF" points="438,0 0,0 0,437.606 438,437.606 438,0 	"/>
</g>
<rect x="44.463" y="312.208" fill="#D3E5A0" width="348.019" height="78.695"/>
<polygon points="145.663,269.456 132.978,255.338 383.026,255.338 396.027,269.425 383.026,283.571 132.978,283.571 "/>
<g>
	<g>
		<path d="M199.501,391.533c1.546,1.758,3.837,1.917,6.235,1.917h10.337c1.809,0,2.875-0.053,4.261,0.959
			c1.117,0.693,1.703,1.651,1.972,2.717h0.107c0.854-3.141,2.504-3.676,6.126-3.676h9.271c2.13,0,4.901-0.053,6.499-1.438
			c0.891-0.734,1.376-1.654,1.646-2.64h-47.534C198.616,390.093,198.942,390.806,199.501,391.533z"/>
	</g>
</g>
<g>
	<path d="M168.179,133.374c-0.695,4.187-3.591,8.881-8.183,8.881c-4.089,0-7.883-1.896-7.883-6.089c0-0.795,0.101-1.597,0.398-2.492
		c0,0,3.593-12.277,4.989-17.266c1.496-5.388,5.787-5.088,6.188-5.088l0.099-0.401h-9.577l0.199-0.396h10.679l-7.186,24.946
		c-0.3,1.099-0.504,2.196-0.504,3.293c0,1.796,0.604,3.094,2.597,3.094c4.294,0,7.088-4.294,7.783-8.481H168.179z M167.58,88.566
		c1.897,0,3.097,1.498,2.796,3.393c-0.201,1.796-1.895,3.294-3.793,3.294c-1.896,0-3.093-1.498-2.894-3.294
		C163.989,90.064,165.687,88.566,167.58,88.566z"/>
	<path d="M169.62,141.955c0,0,5.888-20.559,7.284-25.547c1.596-5.588,6.189-5.088,6.189-5.088l0.098-0.401h-9.58l0.1-0.396h10.78
		l-3.095,10.975c2.991-6.086,8.18-11.574,13.471-11.574c3.992,0,8.084,2.893,6.785,7.085l-5.388,18.46
		c-0.897,2.893-1.198,6.388,1.995,6.388c4.288,0,7.388-4.691,7.987-8.585l0.4,0.104c-0.8,4.187-3.797,8.881-8.388,8.881
		c-4.788,0-9.178-2.695-7.385-8.682c0,0,4.492-14.969,6.088-19.958c0.503-1.697,0.301-3.294-2.096-3.294
		c-5.986,0-12.173,7.487-14.469,14.769l-4.789,16.866H169.62z"/>
	<path d="M207.663,141.955c0,0,5.889-20.559,7.282-25.547c1.599-5.588,6.191-5.088,6.191-5.088l0.1-0.401h-9.583l0.104-0.396h10.772
		l-3.096,10.975c2.999-6.086,8.185-11.574,13.477-11.574c3.995,0,8.081,2.893,6.784,7.085l-5.387,18.46
		c-0.904,2.893-1.196,6.388,1.996,6.388c4.294,0,7.384-4.691,7.984-8.585l0.397,0.104c-0.8,4.187-3.789,8.881-8.382,8.881
		c-4.789,0-9.182-2.695-7.383-8.682c0,0,4.482-14.969,6.086-19.958c0.501-1.697,0.3-3.294-2.097-3.294
		c-5.993,0-12.177,7.487-14.471,14.769l-4.789,16.866H207.663z"/>
	<path d="M270.27,132.874c-1.696,4.591-6.689,9.479-12.775,9.479c-7.487,0-10.479-4.389-10.479-9.877
		c0-9.481,8.981-22.355,20.355-22.355c4.695,0,7.586,2.195,7.586,5.988c0,4.492-5.786,11.276-14.966,11.276
		c-1.899,0-3.994-0.299-6.09-0.997c-0.995,2.995-1.597,5.984-1.597,8.579c0,4.094,1.501,6.988,5.189,6.988
		c5.89,0,10.778-4.89,12.373-9.281L270.27,132.874z M253.997,126.088c1.3,0.398,2.696,0.697,4.195,0.697
		c7.083,0,12.675-8.479,12.675-12.871c0-2.196-0.9-3.393-3.496-3.393C262.085,110.521,256.693,118.306,253.997,126.088z"/>
	<path d="M195.562,176.131l-7.085,25.046c-0.694,2.894-0.997,6.388,2.099,6.388c4.391,0,7.185-4.39,7.883-8.583h0.396
		c-0.693,4.291-3.59,8.98-8.279,8.98c-5.588,0-8.783-3.593-7.385-9.181l-0.297-0.1c-2.796,5.091-7.387,9.281-11.177,9.281
		c-6.786,0-9.484-4.189-9.382-9.581c0.197-9.478,8.982-22.649,19.559-22.649c4.789,0,5.787,4.487,5.488,8.38
		c0.997-3.295,1.896-6.286,2.396-7.982H195.562z M184.091,195.591c0.695-2.496,1.695-5.591,2.593-8.883
		c0.797-4.091,0.699-10.577-4.789-10.577c-7.087,0-14.471,16.064-14.372,25.245c0,3.694,1.302,6.188,4.195,6.188
		C176.007,207.565,181.693,201.477,184.091,195.591z"/>
	<path d="M202.951,207.665c0,0,5.888-20.556,7.284-25.547c1.5-5.489,5.588-5.29,5.989-5.29l0.102-0.3h-9.28l0.095-0.397h10.682
		l-2.993,10.577c2.792-5.985,7.48-10.975,12.571-10.975c3.592,0,4.889,2.293,4.889,4.99c0,4.489-3.292,8.181-7.085,8.181
		c-2.792,0-3.692-1.795-3.692-3.493c0-0.299,0.099-0.6,0.099-0.796c0.5,0.096,1.102,0.196,1.598,0.196
		c4.294,0,7.081-3.592,7.081-6.187c0-1.496-0.895-2.493-2.889-2.493c-5.889,0-11.476,7.382-13.67,14.668l-4.79,16.865H202.951z"/>
	<path d="M256.757,176.528h-7.288l-7.082,24.548c-0.803,2.894-1.003,6.389,2.191,6.389c4.29,0,7.283-4.693,7.88-8.584l0.303,0.102
		c-0.694,4.193-3.594,8.879-8.183,8.879c-4.793,0-9.282-2.69-7.587-8.681c0,0,4.498-15.667,6.491-22.652h-2.697l0.096-0.397h2.702
		c0.193-0.699,0.396-1.4,0.596-1.896c1.796-5.89,6.986-4.992,8.479-9.881h0.304l-3.391,11.778h7.281L256.757,176.528z"/>
	<path d="M169.639,141.95c0,0,5.888-20.556,7.281-25.546c1.598-5.589,6.187-5.09,6.187-5.09l0.101-0.401h-9.578l0.097-0.398h10.777
		l-3.094,10.979c2.996-6.089,8.188-11.577,13.472-11.577c3.991,0,8.085,2.896,6.789,7.086l-5.387,18.459
		c-0.901,2.895-1.2,6.389,1.994,6.389c4.286,0,7.383-4.691,7.986-8.584l0.393,0.101c-0.795,4.19-3.792,8.879-8.379,8.879
		c-4.791,0-9.18-2.691-7.384-8.683c0,0,4.488-14.968,6.088-19.955c0.498-1.698,0.296-3.294-2.101-3.294
		c-5.984,0-12.171,7.486-14.466,14.769l-4.79,16.866H169.639z"/>
	<path d="M207.68,141.95c0,0,5.889-20.556,7.287-25.546c1.594-5.589,6.183-5.09,6.183-5.09l0.1-0.401h-9.577l0.099-0.398h10.778
		l-3.094,10.979c2.993-6.089,8.184-11.577,13.474-11.577c3.986,0,8.079,2.896,6.782,7.086l-5.388,18.459
		c-0.896,2.895-1.198,6.389,1.991,6.389c4.299,0,7.388-4.691,7.986-8.584l0.402,0.101c-0.804,4.19-3.791,8.879-8.389,8.879
		c-4.791,0-9.176-2.691-7.377-8.683c0,0,4.489-14.968,6.084-19.955c0.501-1.698,0.304-3.294-2.093-3.294
		c-5.989,0-12.177,7.486-14.471,14.769l-4.788,16.866H207.68z"/>
	<path d="M282.37,175.017c3.594,0,5.39,3.693,5.39,6.985v1.595c0,9.082-7.783,17.767-16.761,24.848
		c-3.894,11.277-11.878,21.256-23.051,21.256h-0.307c-3.886,0-5.782-2.394-5.685-4.689c0.101-2.992,2.398-5.785,6.688-5.785
		c2.792,0,4.39,1.991,4.293,3.99c0,0.694-0.2,1.396-0.603,1.995c-0.898-2.195-2.893-4.492-5.988-4.492
		c-2.191,0-3.986,1.499-4.092,4.292c-0.097,2.196,1.601,4.39,5.387,4.39h0.204c20.355,0,23.75-53.486,14.373-53.486h-0.8
		l0.198-0.296h0.602c11.578,0,13.868,17.16,9.078,32.029c8.88-6.883,15.868-15.568,15.868-23.053c0-4.29-4.693-7.981-9.477-5.488
		C276.886,176.316,279.878,175.017,282.37,175.017z"/>
	<g>
		<path d="M91.714,142.712l0.299-0.397H99.1c0.9-2.796,6.687-21.454,11.278-36.124H98.8c6.886,3.392,2.096,23.352-13.271,23.352
			c-8.982,0-13.474-6.188-14.667-12.572c-1.897-9.883,4.787-22.656,18.956-25.349c6.887-1.297,15.771-0.699,22.854-1.996
			c4.985-0.999,10.874-3.691,10.977-8.68c0-1.899-0.898-4.492-4.09-4.492c-2.396,0-5.392,2.094-5.889,6.087
			c-2.494-0.697-2.398-7.987,4.188-7.987c3.694,0,6.088,3.494,6.088,6.49c0,0.598-0.1,1.196-0.298,1.695l0.101-0.101l-0.6,1.996
			c2.696-1.996,5.984-3.59,9.778-3.59c32.433,0,19.263,61.668-23.252,61.668H91.714z M96.605,105.69h13.97
			c2.196-6.884,4.091-12.873,4.99-15.667c-5.289,2.296-11.976,3.693-17.563,4.691c-2.296,0.498-4.389,0.897-6.485,1.294
			c-14.069,2.698-19.957,13.874-19.063,22.355c0.6,5.488,4.994,10.775,13.075,10.775c11.673,0,16.462-17.062,7.484-21.554
			C93.613,106.486,95.107,105.69,96.605,105.69z M116.263,106.19l-11.473,36.124h4.886c34.431,0,46.205-60.872,23.252-60.872
			c-3.89,0-7.185,1.694-10.076,3.989l-6.49,20.259h10.977v0.5H116.263z"/>
	</g>
	<g>
		<path d="M157.179,146.576c-3.792,0-8.583,2.895-12.08,5.886l1.404-4.291c0.097-0.497,0.198-0.996,0.198-1.595
			c0-2.993-2.396-6.486-6.088-6.486c-4.091,0-5.688,2.895-5.688,5.189c0,1.296,0.498,2.493,1.497,2.792
			c0.499-3.99,3.493-6.086,5.886-6.086c3.195,0,4.093,2.59,4.093,4.491c0,0.998-0.198,1.893-0.499,2.69
			c-0.198,0.504-0.5,0.903-0.804,1.398c-4.885,7.588-23.244,10.082-33.324,11.579c-15.467,2.393-22.056,14.172-22.056,23.351
			c0,2.794,0.598,5.187,1.599,7.381c-5.789-5.387-14.369-9.178-24.948-9.178c-20.258,0-45.406,17.863-45.006,44.407
			c0.299,18.261,14.868,31.934,35.025,31.934c37.025,0,65.365-31.435,79.135-76.442c0.696,2.598,2.894,4.097,6.884,4.097
			C169.652,187.693,182.025,146.576,157.179,146.576z M130.933,179.006l-1.695,5.491c-13.572,46.002-36.722,75.139-72.849,75.139
			c-19.861,0-34.325-13.571-34.625-31.532c-0.4-26.244,24.747-44.008,44.505-44.008c20.958,0.4,28.044,14.17,28.242,27.742
			c0.096,1.795,0,3.593-0.198,5.289c0.294,0,0.494,0.1,0.795,0.1c3.195,0,4.893-2.895,4.792-7.385
			c-0.102-5.289-2.594-10.977-7.187-15.667c-0.897-1.893-1.297-4.091-1.297-6.482c0-7.987,4.092-15.571,22.055-21.16
			c5.188-1.595,15.965-4.89,23.746-9.279c0.201,0.097,0.303,0.199,0.503,0.295C136.423,161.444,133.927,169.528,130.933,179.006z
			 M142.407,187.291c-4.09,0-6.188-1.697-6.585-4.491c0.397-1.194,0.7-2.495,1.1-3.793l7.983-25.847
			c3.293-3.09,8.58-6.184,12.273-6.184C173.744,146.976,163.464,187.291,142.407,187.291z"/>
	</g>
	<path d="M274.793,142.051c0,0,5.892-20.558,7.291-25.548c1.496-5.489,5.49-5.29,5.983-5.29l0.099-0.301h-9.276l0.097-0.398h10.679
		l-3.389,11.975c15.564-34.026,72.045-28.24,99.587-38.618c16.665-6.288,24.748-20.257,24.748-33.727
		c0-18.364-15.569-27.249-27.742-27.249c-23.057,0-38.619,16.47-34.429,38.423c-3.494,1.096-5.884-1.899-5.884-6.489
		c0-14.367,15.666-32.33,40.312-32.33c12.377,0,28.138,9.083,28.138,27.939c0,15.867-10.077,32.634-28.935,39.718
		c-30.637,11.475-82.825-1.999-96.699,35.526l-4.588,16.366H274.793z"/>
	<path d="M242.521,201.063c-0.298,1.095-0.5,2.192-0.5,3.192c0,1.795,0.598,3.192,2.697,3.192c4.291,0,7.283-4.69,7.88-8.582
		l0.306,0.101c-0.701,4.191-3.602,8.885-8.186,8.885c-4.095,0-7.988-1.9-7.988-6.191c0-0.8,0.103-1.597,0.402-2.494l3.096-10.677
		c-4.492-2.697-6.688-7.583-6.688-12.476c0-10.476,9.779-21.753,25.945-21.753c13.471,0,25.445,12.474,37.122,12.474
		c7.482,0,10.075-4.29,10.075-7.588c0-2.292-1.291-4.487-3.789-4.487h-0.396c0.496-0.698,1.496-1.095,2.39-1.095
		c2.694,0,3.493,3.192,3.493,4.388c0,5.389-7.681,10.976-16.764,10.976c-13.972,0-26.247-12.972-36.819-12.972
		c-11.279,0-20.858,9.78-20.858,20.059c0,4.691,2.192,9.58,6.387,12.176l6.186-20.756c4.491-2.197,6.489-4.193,7.484-7.886h0.401
		L242.521,201.063z"/>
</g>
<polygon points="254.861,34.068 -0.469,34.31 -0.469,0 308.25,0 "/>
<g>
	<path fill="#D3E5A0" d="M18.403,14.783h-2.881l0.631-2.332h8.409l-0.617,2.332h-2.881l-1.948,7.271h-2.675L18.403,14.783z"/>
	<path fill="#D3E5A0" d="M25.608,12.451h2.675l-0.974,3.594h3.389l0.96-3.594h2.675l-2.579,9.603h-2.675l0.987-3.649h-3.388
		l-0.974,3.649h-2.676L25.608,12.451z"/>
	<path fill="#D3E5A0" d="M34.365,18.871c0-0.48,0.082-1.015,0.219-1.536l1.317-4.884h2.688l-1.357,5.076
		c-0.083,0.302-0.138,0.59-0.138,0.905c0,0.864,0.535,1.399,1.495,1.399c0.521,0,0.96-0.178,1.29-0.508
		c0.356-0.343,0.604-0.823,0.809-1.591l1.427-5.281h2.688l-1.522,5.679c-0.343,1.262-0.823,2.195-1.495,2.867
		c-0.851,0.851-2.058,1.234-3.539,1.234C35.778,22.231,34.365,20.983,34.365,18.871z"/>
	<path fill="#D3E5A0" d="M46.358,12.451h3.622c1.604,0,2.661,0.357,3.306,1.001c0.508,0.508,0.74,1.193,0.74,1.962
		c0,1.605-0.919,2.867-2.88,3.402l1.481,3.237h-2.936l-1.276-2.908h-1.18l-0.782,2.908h-2.675L46.358,12.451z M49.308,17.06
		c1.193,0,1.976-0.508,1.976-1.331c0-0.261-0.082-0.466-0.247-0.645c-0.22-0.219-0.617-0.329-1.18-0.329h-1.44l-0.631,2.305H49.308z
		"/>
	<path fill="#D3E5A0" d="M53.495,20.462l1.715-1.77c0.933,0.864,1.906,1.303,2.963,1.303c0.631,0,1.084-0.274,1.084-0.713
		c0-0.37-0.261-0.562-1.605-1.083c-1.522-0.576-2.496-1.235-2.496-2.647c0-1.907,1.728-3.265,4.073-3.265
		c1.688,0,3.019,0.549,3.938,1.427l-1.646,1.838c-0.727-0.631-1.563-1.057-2.537-1.057c-0.646,0-1.043,0.302-1.043,0.686
		s0.288,0.521,1.605,1.042c1.481,0.562,2.496,1.235,2.496,2.675c0,1.976-1.701,3.32-4.088,3.32
		C56.074,22.218,54.523,21.573,53.495,20.462z"/>
	<path fill="#D3E5A0" d="M65.049,12.451h3.101c1.865,0,3.031,0.508,3.759,1.235c0.713,0.713,1.042,1.646,1.042,2.812
		c0,1.44-0.549,2.757-1.577,3.786c-1.152,1.152-2.812,1.77-5.034,1.77H62.47L65.049,12.451z M66.654,19.694
		c1.11,0,2.112-0.343,2.743-0.974c0.508-0.507,0.823-1.248,0.823-2.002c0-0.59-0.179-1.015-0.48-1.317
		c-0.356-0.371-0.946-0.59-1.879-0.59h-0.769l-1.316,4.883H66.654z"/>
	<path fill="#D3E5A0" d="M78.375,12.382h2.606l1.495,9.671h-2.798l-0.233-1.715h-3.704l-1.152,1.715h-2.895L78.375,12.382z
		 M79.226,18.267l-0.343-2.757l-1.797,2.757H79.226z"/>
	<path fill="#D3E5A0" d="M85.335,18.336L83.4,12.451h2.867l0.946,3.594l2.895-3.594h3.183l-5.363,6.173l-0.919,3.429h-2.676
		L85.335,18.336z"/>
	<path fill="#D3E5A0" d="M89.014,23.178c0.974-0.11,1.619-0.521,1.797-1.084c-0.631-0.109-1.001-0.548-1.001-1.125
		c0-0.864,0.686-1.496,1.44-1.496c0.781,0,1.371,0.535,1.371,1.523c0,1.55-1.262,3.059-3.442,3.168L89.014,23.178z"/>
	<path fill="#D3E5A0" d="M96.424,20.462l1.715-1.77c0.933,0.864,1.906,1.303,2.963,1.303c0.631,0,1.084-0.274,1.084-0.713
		c0-0.37-0.261-0.562-1.605-1.083c-1.522-0.576-2.496-1.235-2.496-2.647c0-1.907,1.728-3.265,4.073-3.265
		c1.688,0,3.019,0.549,3.938,1.427l-1.646,1.838c-0.727-0.631-1.563-1.057-2.537-1.057c-0.646,0-1.043,0.302-1.043,0.686
		s0.288,0.521,1.605,1.042c1.481,0.562,2.496,1.235,2.496,2.675c0,1.976-1.701,3.32-4.088,3.32
		C99.003,22.218,97.452,21.573,96.424,20.462z"/>
	<path fill="#D3E5A0" d="M107.978,12.451h7.696l-0.618,2.264h-5.048l-0.397,1.454h4.581l-0.562,2.099h-4.582l-0.412,1.523h5.131
		l-0.604,2.263h-7.765L107.978,12.451z"/>
	<path fill="#D3E5A0" d="M117.131,12.451h3.142c1.563,0,2.593,0.316,3.292,1.015c0.508,0.508,0.755,1.166,0.755,1.962
		c0,2.387-1.935,3.868-4.774,3.868h-1.577l-0.74,2.757h-2.676L117.131,12.451z M119.518,17.225c1.317,0,2.071-0.59,2.071-1.495
		c0-0.261-0.096-0.494-0.274-0.672c-0.26-0.261-0.645-0.37-1.138-0.37h-0.988l-0.672,2.538H119.518z"/>
	<path fill="#D3E5A0" d="M127.741,14.783h-2.881l0.631-2.332h8.409l-0.617,2.332h-2.881l-1.948,7.271h-2.675L127.741,14.783z"/>
	<path fill="#D3E5A0" d="M134.946,12.451h7.696l-0.618,2.264h-5.048l-0.397,1.454h4.581l-0.562,2.099h-4.582l-0.412,1.523h5.131
		l-0.604,2.263h-7.765L134.946,12.451z"/>
	<path fill="#D3E5A0" d="M144.1,12.451h2.688l1.276,3.718l3.265-3.718h2.99l-2.579,9.603h-2.675l1.468-5.515l-3.443,3.759h-0.055
		l-1.399-3.731l-1.481,5.487h-2.634L144.1,12.451z"/>
	<path fill="#D3E5A0" d="M155.957,12.451h3.992c2.62,0,3.471,1.084,3.471,2.305s-0.81,2.126-2.154,2.456
		c0.851,0.302,1.454,0.933,1.454,1.92c0,1.66-1.385,2.922-4.362,2.922h-4.979L155.957,12.451z M158.563,19.913
		c0.919,0,1.481-0.411,1.481-1.015c0-0.494-0.397-0.754-1.18-0.754h-1.838l-0.48,1.77H158.563z M159.332,16.278
		c0.946,0,1.454-0.371,1.454-0.974c0-0.439-0.343-0.713-1.152-0.713h-1.66l-0.438,1.688H159.332z"/>
	<path fill="#D3E5A0" d="M165.728,12.451h7.696l-0.618,2.264h-5.048l-0.397,1.454h4.581l-0.562,2.099h-4.582l-0.412,1.523h5.131
		l-0.604,2.263h-7.765L165.728,12.451z"/>
	<path fill="#D3E5A0" d="M174.868,12.451h3.622c1.604,0,2.661,0.357,3.306,1.001c0.508,0.508,0.74,1.193,0.74,1.962
		c0,1.605-0.919,2.867-2.88,3.402l1.481,3.237h-2.936l-1.276-2.908h-1.18l-0.782,2.908h-2.675L174.868,12.451z M177.817,17.06
		c1.193,0,1.976-0.508,1.976-1.331c0-0.261-0.082-0.466-0.247-0.645c-0.22-0.219-0.617-0.329-1.18-0.329h-1.44l-0.631,2.305H177.817
		z"/>
	<path fill="#D3E5A0" d="M184.929,20.531l1.674-1.564c0.672,0.658,1.385,1.015,2.29,1.015c1.016,0,1.674-0.59,1.674-1.303
		c0-0.576-0.452-1.029-1.427-1.029c-0.466,0-0.974,0.165-1.357,0.398l-1.358-0.947l1.522-4.65h6.338l-0.59,2.195h-4.197
		l-0.439,1.331c0.397-0.137,0.796-0.192,1.221-0.192c1.77,0,2.963,1.029,2.963,2.661c0,2.113-1.742,3.786-4.431,3.786
		C187.22,22.231,185.669,21.436,184.929,20.531z"/>
	<path fill="#D3E5A0" d="M197.635,14.783h-2.881l0.631-2.332h8.409l-0.617,2.332h-2.881l-1.948,7.271h-2.675L197.635,14.783z"/>
	<path fill="#D3E5A0" d="M204.84,12.451h2.675l-0.974,3.594h3.389l0.96-3.594h2.675l-2.579,9.603h-2.675l0.987-3.649h-3.388
		l-0.974,3.649h-2.676L204.84,12.451z"/>
	<path fill="#D3E5A0" d="M211.923,23.178c0.974-0.11,1.619-0.521,1.797-1.084c-0.631-0.109-1.001-0.548-1.001-1.125
		c0-0.864,0.686-1.496,1.44-1.496c0.781,0,1.371,0.535,1.371,1.523c0,1.55-1.262,3.059-3.442,3.168L211.923,23.178z"/>
	<path fill="#D3E5A0" d="M225.383,14.687h-4.335l0.604-2.236h7.407l-0.549,2.003l-5.871,7.6h-3.045L225.383,14.687z"/>
	<path fill="#D3E5A0" d="M233.398,12.451h3.142c1.563,0,2.593,0.316,3.292,1.015c0.508,0.508,0.755,1.166,0.755,1.962
		c0,2.387-1.935,3.868-4.774,3.868h-1.577l-0.74,2.757h-2.676L233.398,12.451z M235.785,17.225c1.317,0,2.071-0.59,2.071-1.495
		c0-0.261-0.096-0.494-0.274-0.672c-0.26-0.261-0.645-0.37-1.138-0.37h-0.988l-0.672,2.538H235.785z"/>
	<path fill="#D3E5A0" d="M242.594,12.451h2.688l1.276,3.718l3.265-3.718h2.99l-2.579,9.603h-2.675l1.468-5.515l-3.443,3.759h-0.055
		l-1.399-3.731l-1.481,5.487h-2.634L242.594,12.451z"/>
</g>
<g>
	<path fill="#D3E5A0" d="M176.622,263.326h5.644c1.389,0,2.483,0.382,3.178,1.077c0.556,0.556,0.833,1.233,0.833,2.066v0.035
		c0,1.372-0.729,2.136-1.597,2.622c1.406,0.539,2.274,1.354,2.274,2.987v0.035c0,2.223-1.806,3.334-4.55,3.334h-5.782V263.326z
		 M181.692,268.24c1.181,0,1.928-0.382,1.928-1.285v-0.035c0-0.799-0.625-1.25-1.754-1.25h-2.64v2.57H181.692z M182.404,273.137
		c1.181,0,1.893-0.417,1.893-1.32v-0.035c0-0.816-0.607-1.32-1.979-1.32h-3.091v2.674H182.404z"/>
	<path fill="#D3E5A0" d="M193.252,263.239h2.465l5.21,12.242h-2.796l-1.111-2.726h-5.14l-1.111,2.726h-2.727L193.252,263.239z
		 M196.064,270.393l-1.615-3.942l-1.614,3.942H196.064z"/>
	<path fill="#D3E5A0" d="M201.409,269.438v-0.035c0-3.456,2.604-6.286,6.338-6.286c2.292,0,3.664,0.764,4.793,1.875l-1.702,1.962
		c-0.938-0.851-1.893-1.372-3.108-1.372c-2.049,0-3.524,1.702-3.524,3.786v0.035c0,2.084,1.44,3.82,3.524,3.82
		c1.39,0,2.24-0.556,3.195-1.424l1.702,1.719c-1.251,1.337-2.64,2.171-4.984,2.171C204.065,275.689,201.409,272.928,201.409,269.438
		z"/>
	<path fill="#D3E5A0" d="M214.687,263.326h2.674v5.313l4.932-5.313h3.23l-4.949,5.157l5.175,6.998h-3.213l-3.768-5.175l-1.407,1.459
		v3.716h-2.674V263.326z"/>
	<path fill="#D3E5A0" d="M234.022,265.792h-3.698v-2.466h10.071v2.466h-3.698v9.689h-2.675V265.792z"/>
	<path fill="#D3E5A0" d="M241.312,269.438v-0.035c0-3.456,2.726-6.286,6.477-6.286s6.442,2.796,6.442,6.251v0.035
		c0,3.456-2.727,6.286-6.477,6.286C244.003,275.689,241.312,272.894,241.312,269.438z M251.435,269.438v-0.035
		c0-2.083-1.527-3.82-3.681-3.82s-3.646,1.702-3.646,3.786v0.035c0,2.084,1.527,3.82,3.681,3.82S251.435,271.522,251.435,269.438z"
		/>
	<path fill="#D3E5A0" d="M263.269,265.792h-3.698v-2.466h10.071v2.466h-3.698v9.689h-2.675V265.792z"/>
	<path fill="#D3E5A0" d="M271.616,263.326h2.674v4.81h4.932v-4.81h2.675v12.155h-2.675v-4.879h-4.932v4.879h-2.674V263.326z"/>
	<path fill="#D3E5A0" d="M284.738,263.326h9.169v2.379h-6.512v2.466h5.729v2.379h-5.729v2.553h6.598v2.379h-9.255V263.326z"/>
	<path fill="#D3E5A0" d="M300.202,263.326h9.169v2.379h-6.512v2.466h5.729v2.379h-5.729v2.553h6.598v2.379h-9.255V263.326z"/>
	<path fill="#D3E5A0" d="M315.93,263.239h2.465l5.21,12.242h-2.796l-1.111-2.726h-5.14l-1.111,2.726h-2.727L315.93,263.239z
		 M318.742,270.393l-1.615-3.942l-1.614,3.942H318.742z"/>
	<path fill="#D3E5A0" d="M325.404,263.326h5.557c1.546,0,2.744,0.434,3.542,1.233c0.678,0.677,1.042,1.632,1.042,2.778v0.035
		c0,1.962-1.059,3.195-2.604,3.768l2.97,4.341h-3.126l-2.604-3.89h-0.035h-2.066v3.89h-2.674V263.326z M330.787,269.229
		c1.303,0,2.049-0.694,2.049-1.719v-0.035c0-1.146-0.799-1.737-2.101-1.737h-2.657v3.49H330.787z"/>
	<path fill="#D3E5A0" d="M340.714,265.792h-3.698v-2.466h10.071v2.466h-3.698v9.689h-2.675V265.792z"/>
	<path fill="#D3E5A0" d="M349.062,263.326h2.674v4.81h4.932v-4.81h2.675v12.155h-2.675v-4.879h-4.932v4.879h-2.674V263.326z"/>
</g>
<line fill="none" stroke="#000000" stroke-width="1.5" x1="44" y1="315.938" x2="392.861" y2="315.938"/>
<line fill="none" stroke="#000000" stroke-width="1.5" x1="44" y1="311.938" x2="392.861" y2="311.938"/>
<line stroke="#000000" stroke-width="1.5" x1="44" y1="389.75" x2="392.667" y2="389.75"/>
<path fill="none" stroke="#000000" stroke-width="0.8502" d="M380.138,276.383"/>
<path fill="none" stroke="#000000" stroke-width="0.8502" d="M97.299,266.383"/>
<g>
	<polyline fill="#E9F1CF" points="259.085,-52.662 11.496,-52.662 11.496,-32.032 259.085,-32.032 259.085,-52.662 	"/>
</g>
<g>
	<path d="M88.531,340.556h1.257l1.941-8.371h-1.416l0.238-1.051h7.624l-0.621,2.562h-1.13l0.35-1.528h-3.867l-0.827,3.597h3.357
		l-0.223,1.019h-3.374l-0.875,3.788h3.884l0.365-1.528h1.13l-0.589,2.562h-7.479L88.531,340.556z"/>
	<path d="M102.536,340.46c0-0.207,0.048-0.525,0.127-0.764l0.637-2.212c0.079-0.302,0.111-0.541,0.111-0.795
		c0-0.605-0.445-1.019-1.098-1.019c-0.907,0-1.926,0.859-2.324,2.482l-0.875,3.454H98l1.464-5.809h-1.272l0.238-0.971h2.26
		l-0.382,1.607c0.589-0.987,1.433-1.719,2.388-1.719c1.082,0,1.861,0.748,1.861,1.846c0,0.334-0.063,0.7-0.175,1.066l-0.62,2.196
		c-0.064,0.207-0.112,0.462-0.112,0.589c0,0.318,0.191,0.509,0.462,0.509c0.318,0,0.589-0.271,0.907-1.066l0.557,0.191
		c-0.35,1.098-0.907,1.671-1.702,1.671C103.045,341.717,102.536,341.192,102.536,340.46z"/>
	<path d="M104.19,343.897c0-0.461,0.351-0.748,0.748-0.748c0.382,0,0.7,0.318,0.7,0.652c0.239-0.048,0.445-0.159,0.652-0.398
		c0.287-0.334,0.525-0.907,0.732-1.83l1.337-5.777h-1.369l0.255-0.971h2.435l-1.575,6.875c-0.303,1.273-0.621,1.941-1.114,2.435
		c-0.382,0.366-0.971,0.637-1.623,0.637C104.684,344.773,104.19,344.391,104.19,343.897z M108.535,332.709
		c0-0.446,0.351-0.812,0.796-0.812s0.796,0.366,0.796,0.812s-0.351,0.812-0.796,0.812S108.535,333.155,108.535,332.709z"/>
	<path d="M110.826,338.773c0-2.101,1.64-4.074,3.836-4.074c1.861,0,2.944,1.369,2.944,2.96c0,2.117-1.64,4.074-3.836,4.074
		C111.908,341.733,110.826,340.38,110.826,338.773z M116.477,337.659c0-1.242-0.812-1.989-1.862-1.989
		c-1.48,0-2.658,1.416-2.658,3.119c0,1.226,0.812,1.974,1.862,1.974C115.314,340.763,116.477,339.346,116.477,337.659z"/>
	<path d="M116.795,343.882c0-0.43,0.334-0.796,0.764-0.796c0.397,0,0.7,0.287,0.748,0.7h0.031c0.383,0,1.146-0.573,2.595-2.323
		l-1.162-5.666h-1.209l0.238-0.971h1.958l0.986,5.666c1.178-1.528,2.292-3.103,2.53-4.122c-0.334-0.111-0.652-0.414-0.652-0.859
		c0-0.43,0.351-0.812,0.827-0.812c0.542,0,0.924,0.398,0.924,1.098c0,1.05-0.78,2.531-3.278,5.666
		c-2.229,2.769-3.231,3.326-4.233,3.326C117.272,344.789,116.795,344.391,116.795,343.882z"/>
	<path d="M132.358,335.797l-0.955,3.883c-0.063,0.223-0.096,0.414-0.096,0.589c0,0.302,0.207,0.541,0.541,0.541
		c0.366,0,0.748-0.191,1.417-0.636l0.414,0.589c-0.828,0.668-1.496,0.971-2.133,0.971c-0.796,0-1.4-0.494-1.4-1.289
		c0-0.223,0.047-0.478,0.127-0.764l0.955-3.883h-1.21l0.239-0.971h1.209l0.398-1.591l1.226-0.398l-0.494,1.989h2.069l-0.239,0.971
		H132.358z"/>
	<path d="M137.419,330.911h-1.289l0.238-0.955h2.372l-1.465,6.271c0.51-0.78,1.306-1.512,2.26-1.512c1.083,0,1.91,0.748,1.926,1.846
		c0,0.334-0.063,0.7-0.175,1.066l-0.589,2.196c-0.063,0.223-0.096,0.462-0.096,0.589c0,0.318,0.191,0.509,0.462,0.509
		c0.318,0,0.589-0.271,0.892-1.066l0.557,0.191c-0.334,1.098-0.875,1.671-1.671,1.671c-0.828,0-1.353-0.525-1.353-1.257
		c0-0.207,0.047-0.493,0.111-0.748l0.604-2.228c0.079-0.302,0.111-0.541,0.111-0.795c-0.016-0.605-0.478-1.019-1.13-1.019
		c-0.923,0-1.958,0.859-2.34,2.482l-0.796,3.454h-1.113L137.419,330.911z"/>
	<path d="M144.612,338.55c-0.017,0.111-0.017,0.223-0.017,0.334c0,1.194,0.987,1.894,2.165,1.894c0.764,0,1.368-0.159,2.244-0.621
		l-0.239,1.082c-0.716,0.35-1.305,0.494-2.228,0.494c-1.592,0-3.04-1.019-3.04-2.865c0-2.292,1.734-4.17,3.756-4.17
		c1.575,0,2.594,0.955,2.594,2.483c0,0.414-0.079,0.875-0.254,1.369H144.612z M144.787,337.691h3.899
		c0.079-0.207,0.111-0.446,0.111-0.668c0-0.732-0.493-1.353-1.592-1.353C146.14,335.67,145.185,336.513,144.787,337.691z"/>
	<path d="M154.018,339.999h1.114l1.687-7.257h-1.273l0.366-1.607h7.687l-0.731,3.008h-1.703l0.334-1.417h-2.88l-0.701,2.992h3.009
		l-0.366,1.544h-2.992l-0.637,2.721h1.48l-0.382,1.624h-4.377L154.018,339.999z"/>
	<path d="M162.818,339.999h1.114l1.687-7.257h-1.273l0.366-1.607h3.406c1.464,0,2.515,0.318,3.167,0.971
		c0.509,0.509,0.779,1.177,0.779,1.973c0,1.624-1.05,2.881-2.785,3.374l1.146,2.546h1.257l-0.366,1.607h-2.164l-1.575-3.931h-0.224
		c-0.318,0-0.684-0.016-1.05-0.047l-0.573,2.371h1.305l-0.365,1.607h-4.218L162.818,339.999z M170.234,334.222
		c0-0.414-0.144-0.748-0.382-0.987c-0.334-0.334-0.907-0.494-1.767-0.494h-0.685l-0.764,3.358c0.351,0.047,0.7,0.063,1.162,0.063
		C169.312,336.163,170.234,335.352,170.234,334.222z"/>
	<path d="M173.354,338.63c0-0.446,0.095-1.019,0.223-1.544l1.002-4.345h-1.225l0.365-1.607h4.218l-0.366,1.607h-1.193l-1.019,4.424
		c-0.111,0.462-0.191,0.939-0.191,1.289c0,1.146,0.669,1.703,1.831,1.703c1.305,0,2.116-0.828,2.45-2.308l1.178-5.109h-1.385
		l0.366-1.607h4.218l-0.366,1.607h-1.082l-1.21,5.252c-0.589,2.467-1.813,3.804-4.439,3.804
		C174.643,341.797,173.354,340.571,173.354,338.63z"/>
	<path d="M183.076,339.999h1.209l1.688-7.257h-1.369l0.366-1.607h4.377l-0.366,1.607h-1.21l-1.687,7.257h1.368l-0.365,1.607h-4.377
		L183.076,339.999z"/>
	<path d="M190.842,339.999h1.226l1.703-7.305h-1.926l-0.366,1.655h-1.719l0.748-3.215h9.023l-0.731,3.215h-1.703l0.366-1.655h-1.895
		l-1.702,7.305h1.384l-0.365,1.607h-4.409L190.842,339.999z"/>
	<path d="M198.736,339.171c0-0.843,0.524-1.4,1.209-1.4c0.604,0,1.082,0.493,1.082,1.098c0,0.271-0.096,0.573-0.35,0.796
		c0.35,0.35,1.082,0.573,1.974,0.573c1.098,0,1.861-0.43,1.861-1.321c0-0.716-0.572-1.146-1.782-1.798
		c-1.226-0.653-2.515-1.576-2.515-3.247c0-1.512,1.369-2.928,3.771-2.928c2.165,0,3.502,1.273,3.502,2.355
		c0,0.78-0.446,1.417-1.193,1.417c-0.605,0-1.083-0.478-1.083-1.082c0-0.255,0.08-0.525,0.287-0.748
		c-0.144-0.191-0.717-0.382-1.48-0.382c-1.226,0-1.878,0.589-1.878,1.209c0,0.828,0.78,1.369,1.846,1.942
		c1.273,0.684,2.451,1.607,2.451,3.104c0,1.671-1.368,3.04-3.883,3.04C200.455,341.797,198.736,340.587,198.736,339.171z"/>
	<path d="M211.896,337.452c0-4.249,2.689-7.273,6.445-8.706l0.589,1.273c-3.485,1.543-5.236,4.122-5.236,7.48
		c0,2.594,1.624,4.567,2.897,5.697l-0.972,1.066C214.045,343.086,211.896,340.763,211.896,337.452z"/>
	<path d="M217.195,339.443h0.707l3.215-5.481h-0.947l0.275-1.199h4.438l-0.275,1.199h-0.876l0.672,5.481h0.804l-0.288,1.211h-2.938
		l0.276-1.199h0.887l-0.155-1.295h-3.022l-0.756,1.295h1.067l-0.275,1.199h-3.095L217.195,339.443z M222.856,337.033l-0.372-3.166
		l-1.859,3.166H222.856z"/>
	<path d="M229.037,335.102l-1.008,4.341h1.044l-0.276,1.211h-3.214l0.276-1.211h0.839l1.271-5.469h-0.96l0.276-1.211h2.075
		l2.603,4.977l0.875-3.766h-1.043l0.275-1.211h3.215l-0.276,1.211h-0.84l-1.559,6.704h-0.66L229.037,335.102z"/>
	<path d="M234.654,339.443h0.84l1.271-5.469h-0.959l0.275-1.211h2.578c1.451,0,2.459,0.444,3.119,1.104
		c0.6,0.6,0.887,1.439,0.887,2.338c0,1.259-0.419,2.207-1.259,3.046c-0.983,0.983-2.363,1.403-3.958,1.403h-3.07L234.654,339.443z
		 M237.642,339.443c1.271,0,2.062-0.324,2.746-1.007c0.611-0.612,0.875-1.403,0.875-2.171c0-0.576-0.191-1.163-0.6-1.571
		c-0.443-0.443-1.139-0.719-2.146-0.719h-0.396l-1.271,5.469H237.642z"/>
	<path d="M248.437,332.741h-1.035l0.366-1.607h4.059l-0.366,1.607h-1.034l0.875,5.793l3.453-5.793h-1.161l0.366-1.607h4.201
		l-0.366,1.607h-0.892l-5.793,8.976h-1.019L248.437,332.741z"/>
	<path d="M257.094,339.999h1.114l1.687-7.257h-1.273l0.366-1.607h7.846l-0.731,3.008h-1.703l0.334-1.417h-3.039l-0.653,2.801h3.12
		l-0.351,1.528h-3.119l-0.685,2.96h3.04l0.366-1.417h1.702l-0.7,3.008h-7.687L257.094,339.999z"/>
	<path d="M273.66,340.508c-1.019,0.875-1.878,1.289-3.071,1.289c-2.085,0-3.947-1.798-3.947-4.393c0-3.565,2.817-6.461,6.366-6.461
		c1.544,0,2.578,0.446,3.215,1.083c0.462,0.461,0.637,0.891,0.637,1.4c0,0.78-0.589,1.289-1.193,1.289
		c-0.605,0-1.099-0.493-1.099-1.098c0-0.223,0.048-0.398,0.191-0.621c-0.239-0.223-0.907-0.398-1.751-0.398
		c-2.371,0-4.504,1.894-4.504,4.711c0,1.878,1.257,2.833,2.562,2.833c1.13,0,2.005-0.318,2.61-0.716l0.413-1.719h-2.657l0.35-1.528
		h4.473l-1.273,5.427h-1.448L273.66,340.508z"/>
	<path d="M277.193,339.999h1.114l1.687-7.257h-1.273l0.366-1.607h7.846l-0.731,3.008h-1.703l0.334-1.417h-3.039l-0.653,2.801h3.12
		l-0.351,1.528h-3.119l-0.685,2.96h3.04l0.366-1.417h1.702l-0.7,3.008h-7.687L277.193,339.999z"/>
	<path d="M288.078,339.999h1.226l1.703-7.305h-1.926l-0.366,1.655h-1.719l0.748-3.215h9.023l-0.731,3.215h-1.703l0.366-1.655h-1.895
		l-1.702,7.305h1.384l-0.365,1.607h-4.409L288.078,339.999z"/>
	<path d="M294.922,339.999h0.938l4.266-7.273h-1.258l0.366-1.592h5.889l-0.366,1.592h-1.161l0.891,7.273h1.066l-0.382,1.607h-3.899
		l0.366-1.591h1.178l-0.207-1.719h-4.011l-1.002,1.719h1.416l-0.366,1.591h-4.105L294.922,339.999z M302.434,336.8l-0.493-4.202
		l-2.467,4.202H302.434z"/>
	<path d="M306.412,339.999h1.114l1.687-7.257h-1.273l0.366-1.607h3.422c1.082,0,1.878,0.111,2.482,0.414
		c0.844,0.414,1.4,1.209,1.4,2.164c0,1.401-1.178,2.388-2.467,2.562c1.066,0.302,1.814,1.194,1.814,2.148
		c0,0.939-0.334,1.687-0.971,2.212c-0.525,0.43-1.257,0.716-2.196,0.859c-0.478,0.08-1.003,0.111-1.592,0.111h-4.153
		L306.412,339.999z M310.47,340.03c0.398,0,0.748-0.032,1.035-0.08c0.525-0.095,0.891-0.254,1.146-0.509
		c0.286-0.286,0.414-0.652,0.414-1.13c0-0.891-0.828-1.305-1.989-1.305h-1.051l-0.716,3.024H310.47z M311.075,335.574
		c1.719,0,2.642-0.573,2.642-1.624c0-0.445-0.255-0.875-0.748-1.05c-0.334-0.127-0.796-0.191-1.448-0.191h-0.509l-0.669,2.865
		H311.075z"/>
	<path d="M315.816,339.999h1.114l1.687-7.257h-1.273l0.366-1.607h4.408l-0.366,1.607h-1.336l-1.688,7.273h2.833l0.35-1.48h1.735
		l-0.717,3.072h-7.479L315.816,339.999z"/>
	<path d="M324.458,339.999h1.114l1.687-7.257h-1.273l0.366-1.607h7.846l-0.731,3.008h-1.703l0.334-1.417h-3.039l-0.653,2.801h3.12
		l-0.351,1.528h-3.119l-0.685,2.96h3.04l0.366-1.417h1.702l-0.7,3.008h-7.687L324.458,339.999z"/>
	<path d="M333.561,339.171c0-0.843,0.525-1.4,1.21-1.4c0.604,0,1.082,0.493,1.082,1.098c0,0.271-0.096,0.573-0.35,0.796
		c0.35,0.35,1.082,0.573,1.974,0.573c1.098,0,1.861-0.43,1.861-1.321c0-0.716-0.572-1.146-1.782-1.798
		c-1.226-0.653-2.515-1.576-2.515-3.247c0-1.512,1.369-2.928,3.771-2.928c2.165,0,3.502,1.273,3.502,2.355
		c0,0.78-0.446,1.417-1.193,1.417c-0.605,0-1.083-0.478-1.083-1.082c0-0.255,0.08-0.525,0.287-0.748
		c-0.144-0.191-0.717-0.382-1.48-0.382c-1.226,0-1.878,0.589-1.878,1.209c0,0.828,0.78,1.369,1.846,1.942
		c1.273,0.684,2.451,1.607,2.451,3.104c0,1.671-1.368,3.04-3.883,3.04C335.28,341.797,333.561,340.587,333.561,339.171z"/>
	<path d="M341.629,342.927c3.485-1.543,5.236-4.122,5.236-7.48c0-2.594-1.623-4.567-2.896-5.697l0.971-1.066
		c1.576,1.178,3.725,3.501,3.725,6.812c0,4.25-2.69,7.273-6.446,8.706L341.629,342.927z"/>
	<path d="M113.191,354.941c0-2.101,1.64-4.074,3.836-4.074c1.861,0,2.944,1.369,2.944,2.96c0,2.117-1.64,4.074-3.836,4.074
		C114.273,357.901,113.191,356.548,113.191,354.941z M118.842,353.827c0-1.242-0.812-1.989-1.862-1.989
		c-1.48,0-2.658,1.416-2.658,3.119c0,1.226,0.812,1.974,1.862,1.974C117.68,356.931,118.842,355.514,118.842,353.827z"/>
	<path d="M122.581,351.965h-1.209l0.238-0.971h1.193l0.51-2.212c0.223-0.987,0.557-1.56,1.019-2.037
		c0.43-0.43,1.066-0.701,1.75-0.701c0.796,0,1.242,0.414,1.242,0.939c0,0.462-0.366,0.78-0.765,0.78
		c-0.43,0-0.748-0.303-0.779-0.748c-0.239,0.047-0.493,0.175-0.669,0.35c-0.318,0.318-0.557,0.843-0.731,1.56l-0.478,2.069h1.767
		l-0.239,0.971h-1.75l-1.337,5.809h-1.099L122.581,351.965z"/>
	<path d="M129.535,357.01c-0.255-0.254-0.398-0.541-0.398-0.843c0-0.461,0.318-0.828,0.748-0.828s0.685,0.318,0.685,0.668
		c0,0.191-0.079,0.35-0.207,0.509c0.063,0.063,0.128,0.111,0.271,0.191c0.318,0.175,0.812,0.302,1.354,0.302
		c0.748,0,1.368-0.334,1.368-0.939c0-0.621-0.668-0.939-1.4-1.289c-0.986-0.461-1.878-0.907-1.878-1.925
		c0-1.083,0.907-1.942,2.451-1.942c0.891,0,1.655,0.287,2.085,0.732c0.254,0.255,0.382,0.525,0.382,0.828
		c0,0.494-0.335,0.812-0.717,0.812s-0.7-0.287-0.7-0.668c0-0.159,0.063-0.318,0.176-0.509c-0.048-0.032-0.08-0.064-0.239-0.144
		c-0.238-0.111-0.621-0.191-1.019-0.191c-0.796,0-1.321,0.366-1.321,0.891c0,0.542,0.653,0.844,1.448,1.226
		c0.955,0.446,1.847,0.955,1.847,1.989c0,1.305-1.114,2.005-2.53,2.005C130.951,357.885,130.044,357.52,129.535,357.01z"/>
	<path d="M138.925,350.994l-1.099,4.25c-0.063,0.223-0.096,0.477-0.096,0.732c0,0.573,0.398,0.971,1.035,0.971
		c0.938,0,1.957-0.891,2.355-2.482l0.859-3.47h1.113l-1.225,4.934c-0.08,0.271-0.128,0.525-0.128,0.668
		c0,0.318,0.191,0.493,0.462,0.493c0.303,0,0.589-0.271,0.907-1.066l0.557,0.191c-0.366,1.146-0.971,1.671-1.719,1.671
		s-1.241-0.493-1.241-1.289c0-0.095,0.016-0.191,0.032-0.318c-0.573,0.923-1.401,1.607-2.355,1.607
		c-1.019,0-1.799-0.668-1.799-1.719c0-0.35,0.063-0.7,0.144-1.019l0.827-3.183h-1.273l0.255-0.971H138.925z"/>
	<path d="M146.276,351.965h-1.272l0.238-0.971h2.26l-0.397,1.607c0.604-0.987,1.433-1.719,2.323-1.719
		c1.019,0,1.703,0.652,1.751,1.703c0.637-1.05,1.496-1.703,2.355-1.703c1.019,0,1.767,0.748,1.767,1.846
		c0,0.334-0.063,0.7-0.176,1.066l-0.636,2.196c-0.048,0.207-0.096,0.462-0.096,0.589c0,0.318,0.19,0.509,0.461,0.509
		c0.303,0,0.589-0.271,0.907-1.066l0.558,0.191c-0.351,1.098-0.907,1.671-1.703,1.671c-0.827,0-1.337-0.525-1.337-1.257
		c0-0.207,0.048-0.525,0.127-0.764l0.621-2.181c0.079-0.318,0.127-0.573,0.127-0.827c0-0.621-0.397-1.019-0.986-1.019
		c-0.875,0-1.847,0.875-2.276,2.53l-0.875,3.406h-1.114l1.051-4.074c0.079-0.334,0.127-0.605,0.127-0.859
		c0-0.573-0.397-1.002-1.002-1.002c-0.859,0-1.895,0.875-2.292,2.514l-0.859,3.422h-1.114L146.276,351.965z"/>
	<path d="M158.864,351.965h-1.272l0.238-0.971h2.26l-0.397,1.607c0.604-0.987,1.433-1.719,2.323-1.719
		c1.019,0,1.703,0.652,1.751,1.703c0.637-1.05,1.496-1.703,2.355-1.703c1.019,0,1.767,0.748,1.767,1.846
		c0,0.334-0.063,0.7-0.176,1.066l-0.636,2.196c-0.048,0.207-0.096,0.462-0.096,0.589c0,0.318,0.19,0.509,0.461,0.509
		c0.303,0,0.589-0.271,0.907-1.066l0.558,0.191c-0.351,1.098-0.907,1.671-1.703,1.671c-0.827,0-1.337-0.525-1.337-1.257
		c0-0.207,0.048-0.525,0.127-0.764l0.621-2.181c0.079-0.318,0.127-0.573,0.127-0.827c0-0.621-0.397-1.019-0.986-1.019
		c-0.875,0-1.847,0.875-2.276,2.53l-0.875,3.406h-1.114l1.051-4.074c0.079-0.334,0.127-0.605,0.127-0.859
		c0-0.573-0.397-1.002-1.002-1.002c-0.859,0-1.895,0.875-2.292,2.514l-0.859,3.422H157.4L158.864,351.965z"/>
	<path d="M171.039,354.718c-0.017,0.111-0.017,0.223-0.017,0.334c0,1.194,0.987,1.894,2.165,1.894c0.764,0,1.368-0.159,2.244-0.621
		l-0.239,1.082c-0.716,0.35-1.305,0.494-2.228,0.494c-1.592,0-3.04-1.019-3.04-2.865c0-2.292,1.734-4.17,3.756-4.17
		c1.575,0,2.594,0.955,2.594,2.483c0,0.414-0.079,0.875-0.254,1.369H171.039z M171.214,353.859h3.899
		c0.079-0.207,0.111-0.446,0.111-0.668c0-0.732-0.493-1.353-1.592-1.353C172.566,351.838,171.611,352.681,171.214,353.859z"/>
	<path d="M179.027,351.965h-1.272l0.238-0.971h2.26l-0.445,1.878c0.875-1.289,1.64-1.989,2.323-1.989
		c0.541,0,0.923,0.35,0.923,0.843c0,0.478-0.397,0.875-0.859,0.875c-0.43,0-0.731-0.287-0.812-0.637
		c-0.509,0.255-1.575,1.273-1.941,2.801l-0.764,3.008h-1.114L179.027,351.965z"/>
	<path d="M183.945,350.915c1.337-0.764,1.83-1.576,1.926-1.958c-0.398-0.175-0.653-0.525-0.653-0.891
		c0-0.541,0.43-1.003,1.003-1.003s1.003,0.446,1.003,1.13c0,1.114-1.226,2.467-3.04,3.199L183.945,350.915z"/>
	<path d="M187.255,357.01c-0.255-0.254-0.398-0.541-0.398-0.843c0-0.461,0.318-0.828,0.748-0.828s0.685,0.318,0.685,0.668
		c0,0.191-0.079,0.35-0.207,0.509c0.063,0.063,0.128,0.111,0.271,0.191c0.318,0.175,0.812,0.302,1.354,0.302
		c0.748,0,1.368-0.334,1.368-0.939c0-0.621-0.668-0.939-1.4-1.289c-0.986-0.461-1.878-0.907-1.878-1.925
		c0-1.083,0.907-1.942,2.451-1.942c0.891,0,1.655,0.287,2.085,0.732c0.254,0.255,0.382,0.525,0.382,0.828
		c0,0.494-0.335,0.812-0.717,0.812s-0.7-0.287-0.7-0.668c0-0.159,0.063-0.318,0.176-0.509c-0.048-0.032-0.08-0.064-0.239-0.144
		c-0.238-0.111-0.621-0.191-1.019-0.191c-0.796,0-1.321,0.366-1.321,0.891c0,0.542,0.653,0.844,1.448,1.226
		c0.955,0.446,1.847,0.955,1.847,1.989c0,1.305-1.114,2.005-2.53,2.005C188.671,357.885,187.764,357.52,187.255,357.01z"/>
	<path d="M199.445,347.079h-1.289l0.238-0.955h2.372l-1.465,6.271c0.51-0.78,1.306-1.512,2.26-1.512c1.083,0,1.91,0.748,1.926,1.846
		c0,0.334-0.063,0.7-0.175,1.066l-0.589,2.196c-0.063,0.223-0.096,0.462-0.096,0.589c0,0.318,0.191,0.509,0.462,0.509
		c0.318,0,0.589-0.271,0.892-1.066l0.557,0.191c-0.334,1.098-0.875,1.671-1.671,1.671c-0.828,0-1.353-0.525-1.353-1.257
		c0-0.207,0.047-0.493,0.111-0.748l0.604-2.228c0.079-0.302,0.111-0.541,0.111-0.795c-0.016-0.605-0.478-1.019-1.13-1.019
		c-0.923,0-1.958,0.859-2.34,2.482l-0.796,3.454h-1.113L199.445,347.079z"/>
	<path d="M205.556,355.148c0-2.308,1.64-4.281,3.598-4.281c1.113,0,1.909,0.716,2.116,1.687l0.43-1.607h1.066l-1.226,4.981
		c-0.063,0.271-0.111,0.525-0.111,0.668c0,0.318,0.175,0.493,0.445,0.493c0.303,0,0.589-0.271,0.907-1.066l0.558,0.191
		c-0.366,1.146-0.971,1.671-1.703,1.671c-0.764,0-1.258-0.509-1.258-1.241v-0.159c-0.589,0.796-1.416,1.417-2.419,1.417
		C206.543,357.901,205.556,356.835,205.556,355.148z M210.967,353.7c0-1.098-0.589-1.846-1.702-1.846
		c-1.48,0-2.531,1.576-2.531,3.215c0,1.114,0.542,1.862,1.592,1.862C209.885,356.931,210.967,355.211,210.967,353.7z"/>
	<path d="M215.964,351.965h-1.272l0.238-0.971h2.26l-0.445,1.878c0.875-1.289,1.639-1.989,2.323-1.989
		c0.541,0,0.923,0.35,0.923,0.843c0,0.478-0.397,0.875-0.859,0.875c-0.43,0-0.731-0.287-0.812-0.637
		c-0.509,0.255-1.575,1.273-1.941,2.801l-0.764,3.008H214.5L215.964,351.965z"/>
	<path d="M221.453,351.965h-1.225l0.254-0.971h1.974l0.828,5.618c1.257-1.401,2.26-2.976,2.546-4.059
		c-0.334-0.095-0.637-0.382-0.637-0.828c0-0.477,0.351-0.859,0.844-0.859c0.509,0,0.923,0.398,0.923,1.098
		c0,1.305-1.671,3.883-3.788,6.032h-0.62L221.453,351.965z"/>
	<path d="M229.077,354.718c-0.017,0.111-0.017,0.223-0.017,0.334c0,1.194,0.987,1.894,2.165,1.894c0.764,0,1.368-0.159,2.244-0.621
		l-0.239,1.082c-0.716,0.35-1.305,0.494-2.228,0.494c-1.592,0-3.04-1.019-3.04-2.865c0-2.292,1.734-4.17,3.756-4.17
		c1.575,0,2.594,0.955,2.594,2.483c0,0.414-0.079,0.875-0.254,1.369H229.077z M229.252,353.859h3.899
		c0.079-0.207,0.111-0.446,0.111-0.668c0-0.732-0.493-1.353-1.592-1.353C230.604,351.838,229.649,352.681,229.252,353.859z"/>
	<path d="M235.697,357.01c-0.255-0.254-0.398-0.541-0.398-0.843c0-0.461,0.318-0.828,0.748-0.828s0.685,0.318,0.685,0.668
		c0,0.191-0.079,0.35-0.207,0.509c0.063,0.063,0.128,0.111,0.271,0.191c0.318,0.175,0.812,0.302,1.354,0.302
		c0.748,0,1.368-0.334,1.368-0.939c0-0.621-0.668-0.939-1.4-1.289c-0.986-0.461-1.878-0.907-1.878-1.925
		c0-1.083,0.907-1.942,2.451-1.942c0.891,0,1.655,0.287,2.085,0.732c0.254,0.255,0.382,0.525,0.382,0.828
		c0,0.494-0.335,0.812-0.717,0.812s-0.7-0.287-0.7-0.668c0-0.159,0.063-0.318,0.176-0.509c-0.048-0.032-0.08-0.064-0.239-0.144
		c-0.238-0.111-0.621-0.191-1.019-0.191c-0.796,0-1.321,0.366-1.321,0.891c0,0.542,0.653,0.844,1.448,1.226
		c0.955,0.446,1.847,0.955,1.847,1.989c0,1.305-1.114,2.005-2.53,2.005C237.113,357.885,236.206,357.52,235.697,357.01z"/>
	<path d="M244.88,351.965l-0.955,3.883c-0.063,0.223-0.096,0.414-0.096,0.589c0,0.302,0.207,0.541,0.541,0.541
		c0.366,0,0.748-0.191,1.417-0.636l0.414,0.589c-0.828,0.668-1.496,0.971-2.133,0.971c-0.796,0-1.4-0.494-1.4-1.289
		c0-0.223,0.047-0.478,0.127-0.764l0.955-3.883h-1.21l0.239-0.971h1.209l0.398-1.591l1.226-0.398l-0.494,1.989h2.069l-0.239,0.971
		H244.88z"/>
	<path d="M250.99,355.148c0-2.308,1.64-4.281,3.598-4.281c1.113,0,1.909,0.716,2.116,1.687l0.43-1.607h1.066l-1.226,4.981
		c-0.063,0.271-0.111,0.525-0.111,0.668c0,0.318,0.175,0.493,0.445,0.493c0.303,0,0.589-0.271,0.907-1.066l0.558,0.191
		c-0.366,1.146-0.971,1.671-1.703,1.671c-0.764,0-1.258-0.509-1.258-1.241v-0.159c-0.589,0.796-1.416,1.417-2.419,1.417
		C251.978,357.901,250.99,356.835,250.99,355.148z M256.401,353.7c0-1.098-0.589-1.846-1.702-1.846c-1.48,0-2.531,1.576-2.531,3.215
		c0,1.114,0.542,1.862,1.592,1.862C255.319,356.931,256.401,355.211,256.401,353.7z"/>
	<path d="M260.03,357.01c-0.255-0.254-0.398-0.541-0.398-0.843c0-0.461,0.318-0.828,0.748-0.828s0.685,0.318,0.685,0.668
		c0,0.191-0.079,0.35-0.207,0.509c0.063,0.063,0.128,0.111,0.271,0.191c0.318,0.175,0.812,0.302,1.354,0.302
		c0.748,0,1.368-0.334,1.368-0.939c0-0.621-0.668-0.939-1.4-1.289c-0.986-0.461-1.878-0.907-1.878-1.925
		c0-1.083,0.907-1.942,2.451-1.942c0.891,0,1.655,0.287,2.085,0.732c0.254,0.255,0.382,0.525,0.382,0.828
		c0,0.494-0.335,0.812-0.717,0.812s-0.7-0.287-0.7-0.668c0-0.159,0.063-0.318,0.176-0.509c-0.048-0.032-0.08-0.064-0.239-0.144
		c-0.238-0.111-0.621-0.191-1.019-0.191c-0.796,0-1.321,0.366-1.321,0.891c0,0.542,0.653,0.844,1.448,1.226
		c0.955,0.446,1.847,0.955,1.847,1.989c0,1.305-1.114,2.005-2.53,2.005C261.446,357.885,260.539,357.52,260.03,357.01z"/>
	<path d="M270.931,351.965h-1.241l0.254-0.971h1.958l0.351,5.315l2.562-4.488h0.541l0.987,4.647c1.003-1.48,1.83-2.944,1.957-3.947
		c-0.334-0.08-0.668-0.35-0.668-0.812s0.35-0.844,0.827-0.844c0.525,0,0.924,0.398,0.924,1.05c0,1.257-1.099,3.342-3.072,6.08
		h-0.557l-0.955-4.408l-2.674,4.408h-0.62L270.931,351.965z"/>
	<path d="M281.498,354.718c-0.017,0.111-0.017,0.223-0.017,0.334c0,1.194,0.987,1.894,2.165,1.894c0.764,0,1.368-0.159,2.244-0.621
		l-0.239,1.082c-0.716,0.35-1.305,0.494-2.228,0.494c-1.592,0-3.04-1.019-3.04-2.865c0-2.292,1.734-4.17,3.756-4.17
		c1.575,0,2.594,0.955,2.594,2.483c0,0.414-0.079,0.875-0.254,1.369H281.498z M281.673,353.859h3.899
		c0.079-0.207,0.111-0.446,0.111-0.668c0-0.732-0.493-1.353-1.592-1.353C283.025,351.838,282.07,352.681,281.673,353.859z"/>
	<path d="M293.593,347.079h-1.289l0.238-0.955h2.372l-1.465,6.271c0.51-0.78,1.306-1.512,2.26-1.512c1.083,0,1.91,0.748,1.926,1.846
		c0,0.334-0.063,0.7-0.175,1.066l-0.589,2.196c-0.063,0.223-0.096,0.462-0.096,0.589c0,0.318,0.191,0.509,0.462,0.509
		c0.318,0,0.589-0.271,0.892-1.066l0.557,0.191c-0.334,1.098-0.875,1.671-1.671,1.671c-0.828,0-1.353-0.525-1.353-1.257
		c0-0.207,0.047-0.493,0.111-0.748l0.604-2.228c0.079-0.302,0.111-0.541,0.111-0.795c-0.016-0.605-0.478-1.019-1.13-1.019
		c-0.923,0-1.958,0.859-2.34,2.482l-0.796,3.454h-1.113L293.593,347.079z"/>
	<path d="M300.786,354.718c-0.017,0.111-0.017,0.223-0.017,0.334c0,1.194,0.987,1.894,2.165,1.894c0.764,0,1.368-0.159,2.244-0.621
		l-0.239,1.082c-0.716,0.35-1.305,0.494-2.228,0.494c-1.592,0-3.04-1.019-3.04-2.865c0-2.292,1.734-4.17,3.756-4.17
		c1.575,0,2.594,0.955,2.594,2.483c0,0.414-0.079,0.875-0.254,1.369H300.786z M300.961,353.859h3.899
		c0.079-0.207,0.111-0.446,0.111-0.668c0-0.732-0.493-1.353-1.592-1.353C302.313,351.838,301.358,352.681,300.961,353.859z"/>
	<path d="M307.278,355.148c0-2.308,1.64-4.281,3.598-4.281c1.113,0,1.909,0.716,2.116,1.687l0.43-1.607h1.066l-1.226,4.981
		c-0.063,0.271-0.111,0.525-0.111,0.668c0,0.318,0.175,0.493,0.445,0.493c0.303,0,0.589-0.271,0.907-1.066l0.558,0.191
		c-0.366,1.146-0.971,1.671-1.703,1.671c-0.764,0-1.258-0.509-1.258-1.241v-0.159c-0.589,0.796-1.416,1.417-2.419,1.417
		C308.266,357.901,307.278,356.835,307.278,355.148z M312.689,353.7c0-1.098-0.589-1.846-1.702-1.846
		c-1.48,0-2.531,1.576-2.531,3.215c0,1.114,0.542,1.862,1.592,1.862C311.607,356.931,312.689,355.211,312.689,353.7z"/>
	<path d="M319.756,350.867c1.082,0,1.926,0.7,2.148,1.639l1.273-5.427h-1.289l0.238-0.955h2.388l-2.292,9.804
		c-0.08,0.287-0.127,0.525-0.127,0.668c0,0.318,0.159,0.493,0.445,0.493c0.318,0,0.604-0.271,0.923-1.066l0.558,0.191
		c-0.366,1.146-0.987,1.671-1.72,1.671c-0.764,0-1.241-0.509-1.241-1.273c0-0.048-0.016-0.096,0-0.144
		c-0.572,0.796-1.4,1.433-2.419,1.433c-1.4,0-2.435-1.066-2.435-2.753C316.207,352.777,317.862,350.867,319.756,350.867z
		 M321.634,353.716c0-1.114-0.621-1.862-1.751-1.862c-1.464,0-2.498,1.56-2.498,3.199c0,1.114,0.589,1.878,1.639,1.878
		C320.552,356.931,321.634,355.275,321.634,353.716z"/>
	<path d="M136.387,372.167h1.114l1.687-7.257h-1.273l0.366-1.607h7.687l-0.731,3.008h-1.703l0.334-1.417h-2.88l-0.701,2.992h3.009
		l-0.366,1.544h-2.992l-0.637,2.721h1.48l-0.382,1.624h-4.377L136.387,372.167z"/>
	<path d="M145.188,372.167h1.114l1.687-7.257h-1.273l0.366-1.607h3.406c1.464,0,2.515,0.318,3.167,0.971
		c0.509,0.509,0.779,1.177,0.779,1.973c0,1.624-1.05,2.881-2.785,3.374l1.146,2.546h1.257l-0.366,1.607h-2.164l-1.575-3.931h-0.224
		c-0.318,0-0.684-0.016-1.05-0.047l-0.573,2.371h1.305l-0.365,1.607h-4.218L145.188,372.167z M152.604,366.39
		c0-0.414-0.144-0.748-0.382-0.987c-0.334-0.334-0.907-0.494-1.767-0.494h-0.685l-0.764,3.358c0.351,0.047,0.7,0.063,1.162,0.063
		C151.681,368.331,152.604,367.52,152.604,366.39z"/>
	<path d="M155.436,369.27c0-3.008,2.436-6.159,5.793-6.159c2.85,0,4.568,1.958,4.568,4.695c0,3.008-2.436,6.159-5.793,6.159
		C157.154,373.965,155.436,372.007,155.436,369.27z M163.935,367.79c0-1.719-1.019-3.04-2.865-3.04
		c-2.164,0-3.771,2.324-3.771,4.536c0,1.719,1.019,3.04,2.864,3.04C162.327,372.326,163.935,370.002,163.935,367.79z"/>
	<path d="M166.161,372.167h1.114l2.037-7.257h-1.273l0.366-1.607h2.61l1.91,5.873l4.376-5.873h2.865l-0.366,1.607h-1.114
		l-1.353,7.257h1.305l-0.366,1.607h-4.297l0.366-1.607h1.193l1.051-5.395l-4.026,5.252h-0.255l-1.799-5.252l-1.432,5.395h1.385
		l-0.366,1.607h-4.297L166.161,372.167z"/>
	<path d="M182.919,372.167h1.114l1.687-7.257h-1.273l0.366-1.607h7.687l-0.731,3.008h-1.703l0.334-1.417h-2.88l-0.701,2.992h3.009
		l-0.366,1.544h-2.992l-0.637,2.721h1.48l-0.382,1.624h-4.377L182.919,372.167z"/>
	<path d="M190.287,372.167h0.938l4.266-7.273h-1.258l0.366-1.592h5.889l-0.366,1.592h-1.161l0.891,7.273h1.066l-0.382,1.607h-3.899
		l0.366-1.591h1.178l-0.207-1.719h-4.011l-1.002,1.719h1.416l-0.366,1.591h-4.105L190.287,372.167z M197.799,368.968l-0.493-4.202
		l-2.467,4.202H197.799z"/>
	<path d="M201.777,372.167h1.114l1.687-7.257h-1.273l0.366-1.607h3.406c1.464,0,2.515,0.318,3.167,0.971
		c0.509,0.509,0.779,1.177,0.779,1.973c0,1.624-1.05,2.881-2.785,3.374l1.146,2.546h1.257l-0.366,1.607h-2.164l-1.575-3.931h-0.224
		c-0.318,0-0.684-0.016-1.05-0.047l-0.573,2.371h1.305l-0.365,1.607h-4.218L201.777,372.167z M209.193,366.39
		c0-0.414-0.144-0.748-0.382-0.987c-0.334-0.334-0.907-0.494-1.767-0.494h-0.685l-0.764,3.358c0.351,0.047,0.7,0.063,1.162,0.063
		C208.271,368.331,209.193,367.52,209.193,366.39z"/>
	<path d="M211.389,372.167h1.114l2.037-7.257h-1.273l0.366-1.607h2.61l1.91,5.873l4.376-5.873h2.865l-0.366,1.607h-1.114
		l-1.353,7.257h1.305l-0.366,1.607h-4.297l0.366-1.607h1.193l1.051-5.395l-4.026,5.252h-0.255l-1.798-5.252l-1.433,5.395h1.385
		l-0.366,1.607h-4.297L211.389,372.167z"/>
	<path d="M230.263,372.167h1.226l1.703-7.305h-1.926l-0.366,1.655h-1.719l0.748-3.215h9.023l-0.731,3.215h-1.703l0.366-1.655h-1.895
		l-1.702,7.305h1.384l-0.365,1.607h-4.409L230.263,372.167z"/>
	<path d="M238.681,369.27c0-3.008,2.436-6.159,5.793-6.159c2.849,0,4.568,1.958,4.568,4.695c0,3.008-2.436,6.159-5.794,6.159
		C240.399,373.965,238.681,372.007,238.681,369.27z M247.18,367.79c0-1.719-1.019-3.04-2.865-3.04c-2.164,0-3.771,2.324-3.771,4.536
		c0,1.719,1.019,3.04,2.864,3.04C245.572,372.326,247.18,370.002,247.18,367.79z"/>
	<path d="M254.913,372.167h1.226l1.703-7.305h-1.926l-0.366,1.655h-1.719l0.748-3.215h9.023l-0.731,3.215h-1.703l0.366-1.655h-1.895
		l-1.702,7.305h1.384l-0.365,1.607h-4.409L254.913,372.167z"/>
	<path d="M261.757,372.167h0.938l4.266-7.273h-1.258l0.366-1.592h5.889l-0.366,1.592h-1.161l0.891,7.273h1.066l-0.382,1.607h-3.899
		l0.366-1.591h1.178l-0.207-1.719h-4.011l-1.002,1.719h1.416l-0.366,1.591h-4.105L261.757,372.167z M269.269,368.968l-0.493-4.202
		l-2.467,4.202H269.269z"/>
	<path d="M273.246,372.167h1.114l1.687-7.257h-1.273l0.366-1.607h3.422c1.082,0,1.878,0.111,2.482,0.414
		c0.844,0.414,1.4,1.209,1.4,2.164c0,1.401-1.178,2.388-2.467,2.562c1.066,0.302,1.814,1.194,1.814,2.148
		c0,0.939-0.334,1.687-0.971,2.212c-0.525,0.43-1.257,0.716-2.196,0.859c-0.478,0.08-1.003,0.111-1.592,0.111h-4.153
		L273.246,372.167z M277.304,372.198c0.398,0,0.748-0.032,1.035-0.08c0.525-0.095,0.891-0.254,1.146-0.509
		c0.286-0.286,0.414-0.652,0.414-1.13c0-0.891-0.828-1.305-1.989-1.305h-1.051l-0.716,3.024H277.304z M277.909,367.742
		c1.719,0,2.642-0.573,2.642-1.624c0-0.445-0.255-0.875-0.748-1.05c-0.334-0.127-0.796-0.191-1.448-0.191h-0.509l-0.669,2.865
		H277.909z"/>
	<path d="M282.651,372.167h1.114l1.687-7.257h-1.273l0.366-1.607h4.408l-0.366,1.607h-1.336l-1.688,7.273h2.833l0.35-1.48h1.735
		l-0.717,3.072h-7.479L282.651,372.167z"/>
	<path d="M291.293,372.167h1.114l1.687-7.257h-1.273l0.366-1.607h7.846l-0.731,3.008h-1.703l0.334-1.417h-3.039l-0.653,2.801h3.12
		l-0.351,1.528h-3.119l-0.685,2.96h3.04l0.366-1.417h1.702l-0.7,3.008h-7.687L291.293,372.167z"/>
	<path d="M300.603,372.596c0-0.732,0.589-1.321,1.305-1.321c0.717,0,1.306,0.589,1.306,1.321c0,0.716-0.589,1.305-1.306,1.305
		C301.191,373.901,300.603,373.312,300.603,372.596z"/>
</g>
</svg>
