<?xml version="1.0" encoding="utf-8"?>
<!-- Generator: Adobe Illustrator 17.0.0, SVG Export Plug-In . SVG Version: 6.00 Build 0)  -->
<!DOCTYPE svg PUBLIC "-//W3C//DTD SVG 1.1//EN" "http://www.w3.org/Graphics/SVG/1.1/DTD/svg11.dtd">
<svg version="1.1" id="Layer_1" xmlns="http://www.w3.org/2000/svg" xmlns:xlink="http://www.w3.org/1999/xlink" x="0px" y="0px"
	 width="235.266px" height="41.487px" viewBox="0 0 235.266 41.487" enable-background="new 0 0 235.266 41.487"
	 xml:space="preserve">
<rect x="-257.18" y="28.325" opacity="0.13" fill="#C3996B" width="161.468" height="14.804"/>
<rect x="-293.284" y="1" fill="none" width="249.324" height="31.757"/>
<text transform="matrix(1 0 0 1 -293.2839 20.3445)"><tspan x="0" y="0" font-family="'TrioGotham-Bold'" font-size="26.5">T</tspan><tspan x="17.013" y="0" font-family="'TrioGotham-Bold'" font-size="26.5">h</tspan><tspan x="36.834" y="0" font-family="'TrioGotham-Bold'" font-size="26.5">e </tspan><tspan x="60.445" y="0" font-family="'TrioGotham-Bold'" font-size="26.5">B</tspan><tspan x="79.18" y="0" font-family="'TrioGotham-Bold'" font-size="26.5">e</tspan><tspan x="96.723" y="0" font-family="'TrioGotham-Bold'" font-size="26.5">t</tspan><tspan x="114.187" y="0" font-family="'TrioGotham-Bold'" font-size="26.5">w</tspan><tspan x="142.886" y="0" font-family="'TrioGotham-Bold'" font-size="26.5">e</tspan><tspan x="159.925" y="0" font-family="'TrioGotham-Bold'" font-size="26.5">e</tspan><tspan x="176.937" y="0" font-family="'TrioGotham-Bold'" font-size="26.5">n</tspan><tspan x="197.475" y="0" font-family="'TrioGotham-Bold'" font-size="26.5">e</tspan><tspan x="215.017" y="0" font-family="'TrioGotham-Bold'" font-size="26.5">r</tspan></text>
<rect x="-598.932" y="-245.847" fill="none" width="249.324" height="31.757"/>
<text transform="matrix(1 0 0 1 -598.9312 -226.449)"><tspan x="0" y="0" font-family="'Archer-MediumItalic'" font-size="26.5">T</tspan><tspan x="16.562" y="0" font-family="'Archer-MediumItalic'" font-size="26.5">h</tspan><tspan x="36.676" y="0" font-family="'Archer-MediumItalic'" font-size="26.5">e </tspan><tspan x="57.664" y="0" font-family="'Archer-MediumItalic'" font-size="26.5">B</tspan><tspan x="73.272" y="0" font-family="'Archer-MediumItalic'" font-size="26.5">e</tspan><tspan x="88.616" y="0" font-family="'Archer-MediumItalic'" font-size="26.5">t</tspan><tspan x="105.628" y="0" font-family="'Archer-MediumItalic'" font-size="26.5">w</tspan><tspan x="129.77" y="0" font-family="'Archer-MediumItalic'" font-size="26.5">e</tspan><tspan x="144.61" y="0" font-family="'Archer-MediumItalic'" font-size="26.5">e</tspan><tspan x="159.422" y="0" font-family="'Archer-MediumItalic'" font-size="26.5">n</tspan><tspan x="179.059" y="0" font-family="'Archer-MediumItalic'" font-size="26.5">e</tspan><tspan x="194.402" y="0" font-family="'Archer-MediumItalic'" font-size="26.5">r</tspan></text>
<rect x="-237.55" y="32.757" fill="none" width="124.995" height="7.345"/>
<text transform="matrix(1 0 0 1 -237.5499 37.8811)" font-family="'Archer-BoldItalic'" font-size="7">Saturday-Sunday from 4:00pm-5:00pm</text>
<line fill="none" stroke="#000000" stroke-width="0.75" x1="-257.18" y1="28.171" x2="-95.712" y2="28.171"/>
<line fill="none" stroke="#000000" stroke-width="0.75" x1="-257.18" y1="43.128" x2="-95.712" y2="43.128"/>
<polygon points="-249.702,35.65 -257.18,43.128 -257.18,28.171 "/>
<polygon points="-103.191,35.65 -95.712,28.171 -95.712,43.128 "/>
<g>
	<path d="M6.494,4.555H0.848V0.792h15.373v3.764h-5.646v14.79H6.494V4.555z"/>
	<path d="M19.186,0.792h4.082v7.342h7.527V0.792h4.082v18.553h-4.082v-7.448h-7.527v7.448h-4.082V0.792z"/>
	<path d="M39.008,0.792h13.994v3.631h-9.939v3.764h8.747v3.631h-8.747v3.896h10.072v3.631H39.008V0.792z"/>
	<path d="M62.62,0.792h8.613c2.12,0,3.79,0.583,4.851,1.644c0.848,0.848,1.272,1.882,1.272,3.154v0.053
		c0,2.094-1.113,3.26-2.438,4.002c2.146,0.822,3.472,2.067,3.472,4.559v0.053c0,3.393-2.756,5.089-6.944,5.089H62.62V0.792z
		 M70.359,8.293c1.802,0,2.941-0.583,2.941-1.961V6.278c0-1.219-0.954-1.908-2.677-1.908h-4.028v3.923H70.359z M71.445,15.767
		c1.803,0,2.89-0.636,2.89-2.014v-0.053c0-1.246-0.928-2.014-3.021-2.014h-4.718v4.082H71.445z"/>
	<path d="M81.354,0.792h13.994v3.631h-9.939v3.764h8.746v3.631h-8.746v3.896H95.48v3.631H81.354V0.792z"/>
	<path d="M103.216,4.555h-5.645V0.792h15.372v3.764h-5.646v14.79h-4.082V4.555z"/>
	<path d="M114.928,0.792h4.373l3.844,12.563l4.161-12.616h3.498l4.161,12.616l3.844-12.563h4.267l-6.334,18.686h-3.552
		l-4.188-12.139l-4.188,12.139h-3.551L114.928,0.792z"/>
	<path d="M145.059,0.792h13.994v3.631h-9.939v3.764h8.746v3.631h-8.746v3.896h10.071v3.631h-14.126V0.792z"/>
	<path d="M162.098,0.792h13.994v3.631h-9.939v3.764h8.746v3.631h-8.746v3.896h10.071v3.631h-14.126V0.792z"/>
	<path d="M179.11,0.792h3.763l8.694,11.423V0.792h4.028v18.553h-3.472l-8.985-11.794v11.794h-4.028V0.792z"/>
	<path d="M199.648,0.792h13.994v3.631h-9.939v3.764h8.746v3.631h-8.746v3.896h10.071v3.631h-14.126V0.792z"/>
	<path d="M217.19,0.792h8.481c2.358,0,4.188,0.663,5.406,1.882c1.034,1.034,1.591,2.492,1.591,4.241v0.053
		c0,2.995-1.617,4.876-3.976,5.751l4.532,6.626h-4.771l-3.976-5.937h-0.053h-3.154v5.937h-4.081V0.792z M225.406,9.803
		c1.988,0,3.128-1.06,3.128-2.624V7.126c0-1.749-1.22-2.65-3.207-2.65h-4.056v5.328H225.406z"/>
</g>
<rect x="-427.201" y="-54.847" width="1" height="0"/>
<polygon opacity="0.13" fill="#C3996B" points="228.211,39.499 7.023,39.499 14.106,32.285 7.023,25.071 228.211,25.071 
	221.049,32.286 "/>
<g>
	<path d="M-99.451,71.532c0-0.371,0.231-0.616,0.532-0.616c0.267,0,0.477,0.217,0.477,0.483c0,0.119-0.042,0.252-0.154,0.35
		c0.154,0.154,0.477,0.252,0.869,0.252c0.482,0,0.819-0.189,0.819-0.581c0-0.315-0.253-0.504-0.785-0.792
		c-0.539-0.287-1.106-0.693-1.106-1.429c0-0.666,0.603-1.289,1.66-1.289c0.952,0,1.541,0.56,1.541,1.037
		c0,0.343-0.196,0.623-0.525,0.623c-0.267,0-0.477-0.21-0.477-0.476c0-0.112,0.035-0.231,0.126-0.329
		c-0.062-0.084-0.314-0.168-0.651-0.168c-0.539,0-0.826,0.259-0.826,0.533c0,0.364,0.343,0.602,0.812,0.854
		c0.561,0.301,1.078,0.708,1.078,1.366c0,0.736-0.602,1.338-1.708,1.338C-98.695,72.688-99.451,72.156-99.451,71.532z"/>
	<path d="M-95.454,71.469c0-1.058,0.708-1.989,1.597-1.989c0.406,0,0.736,0.336,0.862,0.686l0.21-0.63h0.714l-0.525,2.087
		c-0.034,0.133-0.056,0.252-0.056,0.329c0,0.126,0.049,0.189,0.154,0.189c0.091,0,0.238-0.077,0.392-0.504l0.309,0.119
		c-0.21,0.722-0.603,0.904-0.938,0.904c-0.399,0-0.631-0.273-0.631-0.693c-0.252,0.378-0.623,0.693-1.099,0.693
		C-95.041,72.66-95.454,72.184-95.454,71.469z M-93.129,70.811c0-0.399-0.195-0.651-0.602-0.651c-0.512,0-0.925,0.574-0.925,1.198
		c0,0.364,0.182,0.651,0.553,0.651C-93.591,72.009-93.129,71.469-93.129,70.811z"/>
	<path d="M-90.015,70.181l-0.329,1.331c-0.027,0.112-0.049,0.224-0.049,0.28c0,0.21,0.105,0.28,0.225,0.28
		c0.16,0,0.279-0.042,0.588-0.245l0.252,0.35c-0.42,0.399-0.806,0.483-1.106,0.483c-0.406,0-0.749-0.217-0.749-0.735
		c0-0.119,0.027-0.259,0.062-0.414l0.329-1.331h-0.567l0.147-0.645h0.574l0.168-0.665l0.861-0.308l-0.245,0.973h0.932l-0.161,0.645
		H-90.015z"/>
	<path d="M-87.257,69.536l-0.44,1.772c-0.021,0.098-0.042,0.189-0.042,0.273c0,0.28,0.14,0.434,0.378,0.434
		c0.371,0,0.567-0.238,0.68-0.687l0.448-1.793h0.784l-0.525,2.087c-0.035,0.133-0.056,0.252-0.056,0.329
		c0,0.126,0.049,0.189,0.153,0.189c0.092,0,0.238-0.077,0.393-0.504l0.308,0.119c-0.21,0.722-0.602,0.904-0.938,0.904
		c-0.392,0-0.63-0.266-0.637-0.68c-0.252,0.414-0.631,0.68-1.022,0.68c-0.399,0-0.764-0.315-0.764-0.848
		c0-0.161,0.028-0.364,0.077-0.574l0.259-1.058h-0.553l0.168-0.645H-87.257z"/>
	<path d="M-84.17,70.181h-0.561l0.168-0.645h1.198l-0.196,0.896c0.357-0.651,0.722-0.952,1.086-0.952
		c0.259,0,0.511,0.203,0.511,0.504c0,0.266-0.217,0.483-0.483,0.483c-0.245,0-0.427-0.175-0.462-0.35
		c-0.224,0.07-0.581,0.469-0.735,1.093l-0.351,1.394h-0.784L-84.17,70.181z"/>
	<path d="M-80.215,69.481c0.414,0,0.722,0.336,0.848,0.658l0.47-2.017h-0.567l0.168-0.645h1.316l-0.966,4.146
		c-0.035,0.147-0.057,0.252-0.057,0.329c0,0.126,0.049,0.189,0.154,0.189c0.091,0,0.238-0.077,0.393-0.504l0.308,0.119
		c-0.21,0.722-0.609,0.904-0.945,0.904c-0.399,0-0.631-0.273-0.631-0.693c-0.252,0.378-0.623,0.693-1.099,0.693
		c-0.575,0-0.988-0.477-0.988-1.191C-81.812,70.412-81.104,69.481-80.215,69.481z M-79.487,70.811c0-0.399-0.195-0.651-0.602-0.651
		c-0.512,0-0.925,0.574-0.925,1.198c0,0.364,0.182,0.651,0.553,0.651C-79.948,72.009-79.487,71.469-79.487,70.811z"/>
	<path d="M-77.766,71.469c0-1.058,0.708-1.989,1.597-1.989c0.406,0,0.736,0.336,0.862,0.686l0.21-0.63h0.714l-0.525,2.087
		c-0.034,0.133-0.056,0.252-0.056,0.329c0,0.126,0.049,0.189,0.154,0.189c0.091,0,0.238-0.077,0.392-0.504l0.309,0.119
		c-0.21,0.722-0.603,0.904-0.938,0.904c-0.399,0-0.631-0.273-0.631-0.693c-0.252,0.378-0.623,0.693-1.099,0.693
		C-77.353,72.66-77.766,72.184-77.766,71.469z M-75.441,70.811c0-0.399-0.195-0.651-0.602-0.651c-0.512,0-0.925,0.574-0.925,1.198
		c0,0.364,0.182,0.651,0.553,0.651C-75.903,72.009-75.441,71.469-75.441,70.811z"/>
	<path d="M-74.603,73.501c0-0.266,0.211-0.441,0.441-0.441c0.176,0,0.344,0.112,0.399,0.287c0.161-0.021,0.413-0.259,0.98-0.931
		l-0.462-2.234h-0.519l0.168-0.645h1.002l0.364,2.291c0.427-0.561,0.771-1.03,0.882-1.422c-0.168-0.07-0.301-0.224-0.301-0.448
		c0-0.266,0.21-0.476,0.483-0.476c0.35,0,0.553,0.252,0.553,0.637c0,0.336-0.168,0.911-1.316,2.304
		c-1.184,1.436-1.59,1.583-2.08,1.583C-74.378,74.005-74.603,73.76-74.603,73.501z"/>
	<path d="M-68.757,71.469c0-1.058,0.707-1.989,1.597-1.989c0.406,0,0.735,0.336,0.861,0.686l0.21-0.63h0.715l-0.525,2.087
		c-0.035,0.133-0.056,0.252-0.056,0.329c0,0.126,0.049,0.189,0.153,0.189c0.092,0,0.238-0.077,0.393-0.504l0.308,0.119
		c-0.21,0.722-0.602,0.904-0.938,0.904c-0.398,0-0.63-0.273-0.63-0.693c-0.252,0.378-0.623,0.693-1.1,0.693
		C-68.344,72.66-68.757,72.184-68.757,71.469z M-66.432,70.811c0-0.399-0.196-0.651-0.603-0.651c-0.511,0-0.925,0.574-0.925,1.198
		c0,0.364,0.183,0.651,0.554,0.651C-66.895,72.009-66.432,71.469-66.432,70.811z"/>
	<path d="M-62.695,71.981c0-0.112,0.014-0.231,0.049-0.35l0.231-0.826c0.028-0.091,0.035-0.175,0.035-0.252
		c0-0.266-0.161-0.427-0.42-0.427c-0.33,0-0.547,0.231-0.659,0.687l-0.448,1.793h-0.784l0.609-2.423h-0.561l0.168-0.645h1.198
		l-0.154,0.708c0.21-0.392,0.631-0.763,1.044-0.763c0.44,0,0.805,0.315,0.805,0.917c0,0.154-0.021,0.322-0.076,0.511l-0.225,0.805
		c-0.021,0.084-0.035,0.154-0.035,0.217c0,0.14,0.057,0.21,0.161,0.21c0.105,0,0.238-0.077,0.393-0.504l0.308,0.119
		c-0.182,0.638-0.511,0.904-0.924,0.904C-62.463,72.66-62.695,72.373-62.695,71.981z"/>
	<path d="M-59.097,69.481c0.413,0,0.722,0.336,0.848,0.658l0.469-2.017h-0.567l0.168-0.645h1.317l-0.967,4.146
		c-0.035,0.147-0.056,0.252-0.056,0.329c0,0.126,0.049,0.189,0.153,0.189c0.092,0,0.238-0.077,0.393-0.504l0.309,0.119
		c-0.21,0.722-0.609,0.904-0.946,0.904c-0.398,0-0.63-0.273-0.63-0.693c-0.252,0.378-0.623,0.693-1.1,0.693
		c-0.574,0-0.987-0.477-0.987-1.191C-60.694,70.412-59.987,69.481-59.097,69.481z M-58.368,70.811c0-0.399-0.196-0.651-0.603-0.651
		c-0.511,0-0.925,0.574-0.925,1.198c0,0.364,0.183,0.651,0.554,0.651C-58.831,72.009-58.368,71.469-58.368,70.811z"/>
	<path d="M-55.22,71.532c0-0.371,0.23-0.616,0.532-0.616c0.266,0,0.477,0.217,0.477,0.483c0,0.119-0.043,0.252-0.154,0.35
		c0.154,0.154,0.476,0.252,0.868,0.252c0.483,0,0.819-0.189,0.819-0.581c0-0.315-0.252-0.504-0.784-0.792
		c-0.539-0.287-1.106-0.693-1.106-1.429c0-0.666,0.603-1.289,1.659-1.289c0.953,0,1.541,0.56,1.541,1.037
		c0,0.343-0.196,0.623-0.525,0.623c-0.266,0-0.476-0.21-0.476-0.476c0-0.112,0.035-0.231,0.126-0.329
		c-0.063-0.084-0.315-0.168-0.651-0.168c-0.539,0-0.826,0.259-0.826,0.533c0,0.364,0.343,0.602,0.812,0.854
		c0.561,0.301,1.079,0.708,1.079,1.366c0,0.736-0.603,1.338-1.709,1.338C-54.464,72.688-55.22,72.156-55.22,71.532z"/>
	<path d="M-49.668,69.536l-0.441,1.772c-0.021,0.098-0.042,0.189-0.042,0.273c0,0.28,0.141,0.434,0.378,0.434
		c0.371,0,0.567-0.238,0.68-0.687l0.448-1.793h0.784l-0.525,2.087c-0.034,0.133-0.056,0.252-0.056,0.329
		c0,0.126,0.049,0.189,0.154,0.189c0.091,0,0.238-0.077,0.392-0.504l0.309,0.119c-0.21,0.722-0.603,0.904-0.938,0.904
		c-0.393,0-0.631-0.266-0.638-0.68c-0.252,0.414-0.63,0.68-1.022,0.68c-0.399,0-0.764-0.315-0.764-0.848
		c0-0.161,0.028-0.364,0.077-0.574l0.26-1.058h-0.554l0.168-0.645H-49.668z"/>
	<path d="M-45.195,71.981c0-0.112,0.014-0.231,0.049-0.35l0.23-0.826c0.028-0.091,0.035-0.175,0.035-0.252
		c0-0.266-0.161-0.427-0.42-0.427c-0.329,0-0.546,0.231-0.658,0.687l-0.448,1.793h-0.784l0.609-2.423h-0.561l0.168-0.645h1.197
		l-0.153,0.708c0.21-0.392,0.63-0.763,1.043-0.763c0.441,0,0.806,0.315,0.806,0.917c0,0.154-0.021,0.322-0.077,0.511l-0.224,0.805
		c-0.021,0.084-0.035,0.154-0.035,0.217c0,0.14,0.056,0.21,0.161,0.21c0.104,0,0.237-0.077,0.392-0.504l0.309,0.119
		c-0.183,0.638-0.512,0.904-0.925,0.904C-44.964,72.66-45.195,72.373-45.195,71.981z"/>
	<path d="M-41.597,69.481c0.413,0,0.722,0.336,0.848,0.658l0.47-2.017h-0.568l0.168-0.645h1.317l-0.967,4.146
		c-0.035,0.147-0.056,0.252-0.056,0.329c0,0.126,0.049,0.189,0.154,0.189c0.091,0,0.238-0.077,0.392-0.504l0.309,0.119
		c-0.21,0.722-0.609,0.904-0.945,0.904c-0.399,0-0.631-0.273-0.631-0.693c-0.252,0.378-0.623,0.693-1.1,0.693
		c-0.574,0-0.987-0.477-0.987-1.191C-43.194,70.412-42.487,69.481-41.597,69.481z M-40.868,70.811c0-0.399-0.196-0.651-0.603-0.651
		c-0.511,0-0.925,0.574-0.925,1.198c0,0.364,0.183,0.651,0.554,0.651C-41.331,72.009-40.868,71.469-40.868,70.811z"/>
	<path d="M-39.148,71.469c0-1.058,0.707-1.989,1.597-1.989c0.406,0,0.735,0.336,0.861,0.686l0.21-0.63h0.715l-0.525,2.087
		c-0.035,0.133-0.056,0.252-0.056,0.329c0,0.126,0.049,0.189,0.154,0.189c0.091,0,0.237-0.077,0.392-0.504l0.309,0.119
		c-0.21,0.722-0.603,0.904-0.938,0.904c-0.399,0-0.631-0.273-0.631-0.693c-0.252,0.378-0.623,0.693-1.1,0.693
		C-38.735,72.66-39.148,72.184-39.148,71.469z M-36.822,70.811c0-0.399-0.196-0.651-0.603-0.651c-0.511,0-0.924,0.574-0.924,1.198
		c0,0.364,0.182,0.651,0.553,0.651C-37.284,72.009-36.822,71.469-36.822,70.811z"/>
	<path d="M-35.985,73.501c0-0.266,0.21-0.441,0.441-0.441c0.175,0,0.343,0.112,0.399,0.287c0.161-0.021,0.413-0.259,0.98-0.931
		l-0.462-2.234h-0.519l0.168-0.645h1.002l0.363,2.291c0.428-0.561,0.771-1.03,0.883-1.422c-0.168-0.07-0.301-0.224-0.301-0.448
		c0-0.266,0.21-0.476,0.483-0.476c0.35,0,0.553,0.252,0.553,0.637c0,0.336-0.168,0.911-1.316,2.304
		c-1.184,1.436-1.59,1.583-2.08,1.583C-35.76,74.005-35.985,73.76-35.985,73.501z"/>
	<path d="M-29.578,70.181h-0.532l0.168-0.645h0.511l0.147-0.63c0.119-0.518,0.294-0.854,0.525-1.085
		c0.287-0.287,0.658-0.399,0.994-0.399c0.463,0,0.673,0.273,0.673,0.518c0,0.287-0.218,0.469-0.47,0.469
		c-0.217,0-0.392-0.147-0.427-0.322c-0.084,0.028-0.161,0.084-0.203,0.126c-0.133,0.133-0.245,0.364-0.336,0.757l-0.134,0.567h0.806
		l-0.168,0.645h-0.784l-0.554,2.423h-0.771L-29.578,70.181z"/>
	<path d="M-27.164,70.181h-0.56l0.168-0.645h1.197l-0.196,0.896c0.357-0.651,0.722-0.952,1.086-0.952
		c0.259,0,0.511,0.203,0.511,0.504c0,0.266-0.217,0.483-0.482,0.483c-0.245,0-0.428-0.175-0.463-0.35
		c-0.224,0.07-0.581,0.469-0.735,1.093l-0.35,1.394h-0.785L-27.164,70.181z"/>
	<path d="M-24.812,71.266c0-0.917,0.722-1.786,1.736-1.786c0.925,0,1.443,0.651,1.443,1.394c0,0.917-0.722,1.786-1.737,1.786
		C-24.293,72.66-24.812,72.009-24.812,71.266z M-22.409,70.874c0-0.497-0.315-0.756-0.693-0.756c-0.512,0-0.932,0.49-0.932,1.148
		c0,0.498,0.315,0.756,0.693,0.756C-22.83,72.023-22.409,71.532-22.409,70.874z"/>
	<path d="M-20.528,70.181h-0.56l0.168-0.645h1.197l-0.154,0.708c0.21-0.392,0.589-0.763,0.98-0.763c0.435,0,0.722,0.315,0.771,0.763
		c0.267-0.469,0.645-0.763,0.995-0.763c0.427,0,0.784,0.315,0.784,0.917c0,0.154-0.021,0.322-0.077,0.511l-0.224,0.805
		c-0.021,0.084-0.035,0.154-0.035,0.217c0,0.14,0.056,0.21,0.161,0.21c0.104,0,0.237-0.077,0.392-0.504l0.309,0.119
		c-0.183,0.638-0.512,0.904-0.925,0.904c-0.483,0-0.714-0.287-0.714-0.68c0-0.112,0.014-0.231,0.049-0.35l0.217-0.777
		c0.035-0.112,0.049-0.217,0.049-0.301c0-0.28-0.182-0.427-0.385-0.427c-0.302,0-0.519,0.245-0.638,0.743l-0.434,1.737h-0.785
		l0.441-1.737c0.028-0.119,0.049-0.252,0.049-0.336c0-0.231-0.168-0.406-0.385-0.406c-0.301,0-0.519,0.245-0.638,0.743l-0.434,1.737
		h-0.785L-20.528,70.181z"/>
	<path d="M-11.139,71.652h0.687l-0.14,0.63h-0.693l-0.267,1.163h-0.742l0.267-1.163h-2.046l-0.091-0.378l3.068-3.11l0.482,0.441
		l-2.388,2.416h1.12l0.183-0.792l0.812-0.294L-11.139,71.652z"/>
	<path d="M-9.795,72.1c0-0.308,0.252-0.56,0.56-0.56c0.309,0,0.561,0.252,0.561,0.56s-0.252,0.561-0.561,0.561
		C-9.543,72.66-9.795,72.408-9.795,72.1z M-9.375,70.251c0-0.308,0.252-0.56,0.561-0.56c0.308,0,0.56,0.252,0.56,0.56
		c0,0.309-0.252,0.561-0.56,0.561C-9.123,70.811-9.375,70.559-9.375,70.251z"/>
	<path d="M-7.717,70.987c0-1.051,0.827-2.115,1.982-2.115c1.044,0,1.632,0.735,1.632,1.667c0,1.05-0.826,2.115-1.982,2.115
		C-7.128,72.653-7.717,71.918-7.717,70.987z M-4.901,70.545c0-0.609-0.344-1.037-0.854-1.037c-0.666,0-1.163,0.708-1.163,1.471
		c0,0.609,0.343,1.037,0.854,1.037C-5.399,72.016-4.901,71.308-4.901,70.545z"/>
	<path d="M-3.559,70.987c0-1.051,0.827-2.115,1.982-2.115c1.044,0,1.632,0.735,1.632,1.667c0,1.05-0.826,2.115-1.982,2.115
		C-2.97,72.653-3.559,71.918-3.559,70.987z M-0.742,70.545c0-0.609-0.344-1.037-0.854-1.037c-0.666,0-1.163,0.708-1.163,1.471
		c0,0.609,0.343,1.037,0.854,1.037C-1.24,72.016-0.742,71.308-0.742,70.545z"/>
	<path d="M-0.121,73.346H0.32l0.735-3.166H0.481l0.168-0.645h1.219l-0.154,0.701c0.252-0.399,0.658-0.756,1.127-0.756
		c0.708,0,1.058,0.49,1.058,1.205c0,1.058-0.707,1.975-1.632,1.975c-0.434,0-0.729-0.308-0.875-0.651l-0.309,1.337H1.63l-0.168,0.63
		h-1.751L-0.121,73.346z M3.1,70.79c0-0.364-0.203-0.658-0.589-0.658c-0.532,0-0.994,0.546-0.994,1.205
		c0,0.399,0.203,0.644,0.623,0.644C2.673,71.981,3.1,71.414,3.1,70.79z"/>
	<path d="M5.016,70.181h-0.56l0.168-0.645h1.197l-0.154,0.708c0.21-0.392,0.589-0.763,0.98-0.763c0.435,0,0.722,0.315,0.771,0.763
		c0.267-0.469,0.645-0.763,0.995-0.763c0.427,0,0.784,0.315,0.784,0.917c0,0.154-0.021,0.322-0.077,0.511l-0.224,0.805
		c-0.021,0.084-0.035,0.154-0.035,0.217c0,0.14,0.056,0.21,0.161,0.21c0.104,0,0.237-0.077,0.392-0.504l0.309,0.119
		c-0.183,0.638-0.512,0.904-0.925,0.904c-0.483,0-0.714-0.287-0.714-0.68c0-0.112,0.014-0.231,0.049-0.35l0.217-0.777
		c0.035-0.112,0.049-0.217,0.049-0.301c0-0.28-0.182-0.427-0.385-0.427c-0.302,0-0.519,0.245-0.638,0.743l-0.434,1.737H6.158
		l0.441-1.737c0.028-0.119,0.049-0.252,0.049-0.336c0-0.231-0.168-0.406-0.385-0.406c-0.301,0-0.519,0.245-0.638,0.743l-0.434,1.737
		H4.407L5.016,70.181z"/>
	<path d="M10.434,70.23h2.03l-0.182,0.785h-2.031L10.434,70.23z"/>
	<path d="M12.61,72.576c0-0.33,0.238-0.525,0.477-0.525c0.259,0,0.47,0.21,0.47,0.469c0,0.077-0.021,0.154-0.043,0.189
		c0.07,0.049,0.288,0.112,0.567,0.112c0.693,0,1.086-0.448,1.086-0.932c0-0.385-0.287-0.7-0.861-0.7
		c-0.245,0-0.483,0.07-0.673,0.161l-0.49-0.294l0.722-2.129h2.409l-0.161,0.728H14.27l-0.343,1.043
		c0.224-0.098,0.434-0.147,0.658-0.147c0.756,0,1.33,0.477,1.33,1.282c0,0.827-0.721,1.653-1.862,1.653
		C13.171,73.487,12.61,73.046,12.61,72.576z"/>
	<path d="M16.595,72.1c0-0.308,0.252-0.56,0.56-0.56c0.309,0,0.561,0.252,0.561,0.56s-0.252,0.561-0.561,0.561
		C16.846,72.66,16.595,72.408,16.595,72.1z M17.014,70.251c0-0.308,0.252-0.56,0.561-0.56c0.308,0,0.56,0.252,0.56,0.56
		c0,0.309-0.252,0.561-0.56,0.561C17.266,70.811,17.014,70.559,17.014,70.251z"/>
	<path d="M18.673,70.987c0-1.051,0.827-2.115,1.982-2.115c1.044,0,1.632,0.735,1.632,1.667c0,1.05-0.826,2.115-1.981,2.115
		C19.261,72.653,18.673,71.918,18.673,70.987z M21.489,70.545c0-0.609-0.344-1.037-0.854-1.037c-0.666,0-1.163,0.708-1.163,1.471
		c0,0.609,0.343,1.037,0.854,1.037C20.991,72.016,21.489,71.308,21.489,70.545z"/>
	<path d="M22.831,70.987c0-1.051,0.827-2.115,1.982-2.115c1.044,0,1.632,0.735,1.632,1.667c0,1.05-0.826,2.115-1.981,2.115
		C23.42,72.653,22.831,71.918,22.831,70.987z M25.647,70.545c0-0.609-0.344-1.037-0.854-1.037c-0.666,0-1.163,0.708-1.163,1.471
		c0,0.609,0.343,1.037,0.854,1.037C25.149,72.016,25.647,71.308,25.647,70.545z"/>
	<path d="M26.268,73.346h0.441l0.735-3.166h-0.574l0.168-0.645h1.219l-0.154,0.701c0.252-0.399,0.658-0.756,1.127-0.756
		c0.708,0,1.058,0.49,1.058,1.205c0,1.058-0.707,1.975-1.632,1.975c-0.434,0-0.729-0.308-0.875-0.651l-0.309,1.337h0.547
		l-0.168,0.63H26.1L26.268,73.346z M29.49,70.79c0-0.364-0.203-0.658-0.589-0.658c-0.532,0-0.994,0.546-0.994,1.205
		c0,0.399,0.203,0.644,0.623,0.644C29.062,71.981,29.49,71.414,29.49,70.79z"/>
	<path d="M31.406,70.181h-0.56l0.168-0.645h1.197l-0.154,0.708c0.21-0.392,0.589-0.763,0.98-0.763c0.435,0,0.722,0.315,0.771,0.763
		c0.267-0.469,0.645-0.763,0.995-0.763c0.427,0,0.784,0.315,0.784,0.917c0,0.154-0.021,0.322-0.077,0.511l-0.224,0.805
		c-0.021,0.084-0.035,0.154-0.035,0.217c0,0.14,0.056,0.21,0.161,0.21c0.104,0,0.237-0.077,0.392-0.504l0.309,0.119
		c-0.183,0.638-0.512,0.904-0.925,0.904c-0.483,0-0.714-0.287-0.714-0.68c0-0.112,0.014-0.231,0.049-0.35l0.217-0.777
		c0.035-0.112,0.049-0.217,0.049-0.301c0-0.28-0.182-0.427-0.385-0.427c-0.302,0-0.519,0.245-0.638,0.743l-0.434,1.737h-0.785
		l0.441-1.737c0.028-0.119,0.049-0.252,0.049-0.336c0-0.231-0.168-0.406-0.385-0.406c-0.301,0-0.519,0.245-0.638,0.743l-0.434,1.737
		h-0.785L31.406,70.181z"/>
</g>
<rect x="1.651" y="24.884" width="231.757" height="0.687"/>
<rect x="1.651" y="39.156" width="231.757" height="0.687"/>
<g>
	<polygon points="22.226,39.499 21.908,39.181 28.804,32.284 21.908,25.389 22.226,25.071 29.44,32.284 	"/>
	<polygon points="20.067,39.499 19.749,39.181 26.645,32.284 19.749,25.389 20.067,25.071 27.281,32.284 	"/>
	<polygon points="17.91,39.499 17.592,39.181 24.486,32.284 17.592,25.389 17.91,25.071 25.122,32.284 	"/>
	<polygon points="15.751,39.499 15.433,39.181 22.328,32.284 15.433,25.389 15.751,25.071 22.964,32.284 	"/>
	<polygon points="13.592,39.499 13.274,39.181 20.17,32.284 13.274,25.389 13.592,25.071 20.806,32.284 	"/>
	<polygon points="11.434,39.499 11.116,39.181 18.012,32.284 11.116,25.389 11.434,25.071 18.648,32.284 	"/>
	<polygon points="9.276,39.499 8.958,39.181 15.853,32.284 8.958,25.389 9.276,25.071 16.489,32.284 	"/>
	<polygon points="7.117,39.499 6.799,39.181 13.694,32.284 6.799,25.389 7.117,25.071 14.33,32.284 	"/>
</g>
<polygon points="30.68,39.499 30.362,39.181 37.257,32.284 30.362,25.389 30.68,25.071 37.893,32.284 "/>
<polygon points="28.521,39.499 28.203,39.181 35.1,32.284 28.203,25.389 28.521,25.071 35.736,32.284 "/>
<polygon points="26.363,39.499 26.045,39.181 32.94,32.284 26.045,25.389 26.363,25.071 33.576,32.284 "/>
<polygon points="24.205,39.499 23.887,39.181 30.782,32.284 23.887,25.389 24.205,25.071 31.417,32.284 "/>
<g>
	<polygon points="212.785,25.071 213.103,25.389 206.206,32.286 213.103,39.181 212.785,39.499 205.57,32.286 	"/>
	<polygon points="214.943,25.071 215.261,25.389 208.365,32.286 215.261,39.181 214.943,39.499 207.729,32.286 	"/>
	<polygon points="217.101,25.071 217.419,25.389 210.524,32.286 217.419,39.181 217.101,39.499 209.888,32.286 	"/>
	<polygon points="219.259,25.071 219.577,25.389 212.682,32.286 219.577,39.181 219.259,39.499 212.047,32.286 	"/>
	<polygon points="221.418,25.071 221.736,25.389 214.84,32.286 221.736,39.181 221.418,39.499 214.204,32.286 	"/>
	<polygon points="223.577,25.071 223.895,25.389 216.998,32.286 223.895,39.181 223.577,39.499 216.362,32.286 	"/>
	<polygon points="225.734,25.071 226.052,25.389 219.157,32.286 226.052,39.181 225.734,39.499 218.521,32.286 	"/>
	<polygon points="227.893,25.071 228.211,25.389 221.316,32.286 228.211,39.181 227.893,39.499 220.68,32.286 	"/>
</g>
<polygon points="204.23,24.883 204.548,25.201 197.653,32.098 204.548,38.994 204.23,39.312 197.016,32.098 "/>
<polygon points="206.389,24.883 206.707,25.201 199.81,32.098 206.707,38.994 206.389,39.312 199.174,32.098 "/>
<polygon points="208.546,24.883 208.864,25.201 201.97,32.098 203.34,33.469 208.864,38.994 208.546,39.312 201.334,32.098 "/>
<polygon points="210.705,24.883 211.023,25.201 204.128,32.098 211.023,38.994 210.705,39.312 203.493,32.098 "/>
<rect x="0" y="-105" fill="none" width="235.266" height="31.757"/>
<text transform="matrix(1 0 0 1 3.853570e-04 -85.655)"><tspan x="0" y="0" font-family="'TrioGotham-Bold'" font-size="26.5">T</tspan><tspan x="17.013" y="0" font-family="'TrioGotham-Bold'" font-size="26.5">h</tspan><tspan x="36.834" y="0" font-family="'TrioGotham-Bold'" font-size="26.5">e </tspan><tspan x="60.446" y="0" font-family="'TrioGotham-Bold'" font-size="26.5">B</tspan><tspan x="79.18" y="0" font-family="'TrioGotham-Bold'" font-size="26.5">e</tspan><tspan x="96.723" y="0" font-family="'TrioGotham-Bold'" font-size="26.5">t</tspan><tspan x="114.186" y="0" font-family="'TrioGotham-Bold'" font-size="26.5">w</tspan><tspan x="142.885" y="0" font-family="'TrioGotham-Bold'" font-size="26.5">e</tspan><tspan x="159.924" y="0" font-family="'TrioGotham-Bold'" font-size="26.5">e</tspan><tspan x="176.936" y="0" font-family="'TrioGotham-Bold'" font-size="26.5">n</tspan><tspan x="197.474" y="0" font-family="'TrioGotham-Bold'" font-size="26.5">e</tspan><tspan x="215.016" y="0" font-family="'TrioGotham-Bold'" font-size="26.5">r</tspan></text>
<rect x="1.651" y="-80.304" opacity="0.13" fill="#C3996B" width="231.757" height="14.804"/>
<rect x="49.969" y="-75.575" fill="none" width="137.329" height="7.345"/>
<text transform="matrix(1 0 0 1 49.9687 -70.4504)" font-family="'Archer-BoldItalic'" font-size="7">Saturday and Sunday from 4:00pm-5:00pm</text>
<g>
	<path d="M50.769,33.2c0-0.322,0.203-0.54,0.469-0.54c0.231,0,0.406,0.189,0.406,0.399c0,0.133-0.056,0.266-0.175,0.35
		c0.147,0.182,0.49,0.329,0.967,0.329c0.511,0,0.917-0.266,0.917-0.708c0-0.364-0.294-0.588-0.784-0.861
		c-0.561-0.322-1.093-0.693-1.093-1.387c0-0.666,0.603-1.268,1.562-1.268c0.861,0,1.464,0.504,1.464,0.973
		c0,0.315-0.189,0.54-0.456,0.54c-0.23,0-0.406-0.182-0.406-0.406c0-0.105,0.042-0.224,0.154-0.322
		c-0.091-0.112-0.364-0.231-0.756-0.231c-0.554,0-0.896,0.301-0.896,0.658c0,0.399,0.336,0.63,0.84,0.917
		c0.539,0.301,1.044,0.68,1.044,1.331c0,0.743-0.638,1.317-1.625,1.317C51.476,34.292,50.769,33.746,50.769,33.2z"/>
	<path d="M54.696,33.06c0-1.03,0.714-1.926,1.59-1.926c0.455,0,0.799,0.329,0.903,0.714l0.196-0.672h0.574l-0.532,2.15
		c-0.035,0.126-0.056,0.238-0.056,0.308c0,0.133,0.062,0.21,0.182,0.21c0.112,0,0.252-0.105,0.393-0.49l0.272,0.098
		c-0.182,0.602-0.497,0.805-0.833,0.805c-0.357,0-0.581-0.245-0.581-0.609v-0.035c-0.26,0.357-0.624,0.651-1.079,0.651
		C55.122,34.264,54.696,33.795,54.696,33.06z M57.049,32.415c0-0.448-0.225-0.742-0.687-0.742c-0.589,0-1.029,0.637-1.029,1.316
		c0,0.441,0.217,0.75,0.637,0.75C56.586,33.739,57.049,33.073,57.049,32.415z"/>
	<path d="M59.918,31.708l-0.385,1.548c-0.028,0.105-0.042,0.203-0.042,0.266c0,0.168,0.098,0.259,0.237,0.259
		c0.161,0,0.309-0.07,0.603-0.266l0.218,0.294c-0.393,0.343-0.722,0.448-1.016,0.448c-0.372,0-0.666-0.21-0.666-0.637
		c0-0.105,0.021-0.224,0.049-0.364l0.386-1.548h-0.546l0.118-0.518h0.554l0.175-0.687l0.673-0.231l-0.231,0.917h0.925l-0.133,0.518
		H59.918z"/>
	<path d="M62.501,31.19l-0.462,1.828c-0.021,0.098-0.042,0.203-0.042,0.301c0,0.266,0.161,0.427,0.42,0.427
		c0.399,0,0.735-0.322,0.89-0.917l0.406-1.639h0.616l-0.539,2.136c-0.028,0.126-0.05,0.238-0.05,0.308
		c0,0.133,0.063,0.21,0.176,0.21c0.119,0,0.252-0.105,0.398-0.49l0.273,0.098c-0.182,0.602-0.504,0.805-0.833,0.805
		c-0.357,0-0.582-0.245-0.582-0.623v-0.063c-0.245,0.413-0.616,0.693-1.022,0.693c-0.427,0-0.784-0.308-0.784-0.798
		c0-0.154,0.028-0.33,0.07-0.504l0.322-1.254h-0.561l0.133-0.518H62.501z"/>
	<path d="M65.679,31.708h-0.561l0.133-0.518h1.079l-0.196,0.847c0.371-0.595,0.722-0.896,1.051-0.896
		c0.245,0,0.448,0.175,0.448,0.42c0,0.238-0.196,0.427-0.421,0.427c-0.21,0-0.371-0.14-0.406-0.308
		c-0.217,0.098-0.644,0.525-0.805,1.177l-0.337,1.352h-0.616L65.679,31.708z"/>
	<path d="M69.424,31.134c0.448,0,0.799,0.329,0.911,0.693l0.511-2.227h-0.561l0.127-0.519h1.162l-0.994,4.245
		c-0.028,0.133-0.05,0.238-0.05,0.308c0,0.133,0.057,0.21,0.176,0.21s0.252-0.105,0.399-0.49l0.272,0.098
		c-0.182,0.602-0.504,0.805-0.833,0.805c-0.364,0-0.589-0.245-0.589-0.616v-0.028c-0.252,0.364-0.616,0.651-1.071,0.651
		c-0.603,0-1.044-0.477-1.044-1.205C67.841,32.016,68.563,31.134,69.424,31.134z M70.209,32.422c0-0.455-0.245-0.749-0.701-0.749
		c-0.588,0-1.029,0.637-1.029,1.316c0,0.434,0.231,0.75,0.651,0.75C69.733,33.739,70.209,33.094,70.209,32.422z"/>
	<path d="M71.825,33.06c0-1.03,0.714-1.926,1.59-1.926c0.455,0,0.799,0.329,0.903,0.714l0.196-0.672h0.574l-0.532,2.15
		c-0.035,0.126-0.056,0.238-0.056,0.308c0,0.133,0.062,0.21,0.182,0.21c0.112,0,0.252-0.105,0.393-0.49l0.272,0.098
		c-0.182,0.602-0.497,0.805-0.833,0.805c-0.357,0-0.581-0.245-0.581-0.609v-0.035c-0.26,0.357-0.624,0.651-1.079,0.651
		C72.251,34.264,71.825,33.795,71.825,33.06z M74.178,32.415c0-0.448-0.225-0.742-0.687-0.742c-0.589,0-1.029,0.637-1.029,1.316
		c0,0.441,0.217,0.75,0.637,0.75C73.715,33.739,74.178,33.073,74.178,32.415z"/>
	<path d="M74.925,35.168c0-0.224,0.168-0.392,0.378-0.392c0.176,0,0.322,0.119,0.364,0.301c0.168-0.007,0.47-0.252,1.079-0.988
		l-0.49-2.381h-0.532l0.133-0.518h0.925l0.405,2.409c0.477-0.63,0.904-1.219,1.016-1.653c-0.153-0.056-0.294-0.196-0.294-0.406
		c0-0.217,0.175-0.406,0.413-0.406c0.287,0,0.47,0.21,0.47,0.546c0,0.406-0.273,1.029-1.394,2.417
		c-1.064,1.31-1.492,1.513-1.947,1.513C75.142,35.609,74.925,35.406,74.925,35.168z"/>
	<path d="M80.687,33.06c0-1.03,0.714-1.926,1.59-1.926c0.455,0,0.799,0.329,0.903,0.714l0.196-0.672h0.574l-0.532,2.15
		c-0.035,0.126-0.056,0.238-0.056,0.308c0,0.133,0.062,0.21,0.182,0.21c0.112,0,0.252-0.105,0.393-0.49l0.272,0.098
		c-0.182,0.602-0.497,0.805-0.833,0.805c-0.357,0-0.581-0.245-0.581-0.609v-0.035c-0.26,0.357-0.624,0.651-1.079,0.651
		C81.114,34.264,80.687,33.795,80.687,33.06z M83.04,32.415c0-0.448-0.225-0.742-0.687-0.742c-0.589,0-1.029,0.637-1.029,1.316
		c0,0.441,0.217,0.75,0.637,0.75C82.578,33.739,83.04,33.073,83.04,32.415z"/>
	<path d="M86.673,33.655c0-0.098,0.021-0.231,0.049-0.343l0.259-0.911c0.035-0.119,0.05-0.21,0.05-0.308
		c0-0.266-0.183-0.441-0.456-0.441c-0.371,0-0.721,0.315-0.875,0.917l-0.406,1.639h-0.616l0.63-2.5h-0.56l0.133-0.518h1.078
		l-0.161,0.708c0.238-0.42,0.631-0.757,1.044-0.757c0.462,0,0.819,0.315,0.819,0.854c0,0.147-0.028,0.315-0.077,0.49l-0.259,0.89
		c-0.021,0.091-0.042,0.189-0.042,0.245c0,0.14,0.069,0.224,0.188,0.224s0.253-0.105,0.393-0.49l0.273,0.098
		c-0.161,0.546-0.448,0.805-0.819,0.805C86.904,34.257,86.673,34.005,86.673,33.655z"/>
	<path d="M90.138,31.134c0.448,0,0.798,0.329,0.91,0.693L91.56,29.6h-0.561l0.126-0.519h1.163l-0.995,4.245
		c-0.028,0.133-0.049,0.238-0.049,0.308c0,0.133,0.056,0.21,0.175,0.21s0.252-0.105,0.399-0.49l0.273,0.098
		c-0.183,0.602-0.505,0.805-0.834,0.805c-0.364,0-0.588-0.245-0.588-0.616v-0.028c-0.252,0.364-0.616,0.651-1.071,0.651
		c-0.603,0-1.044-0.477-1.044-1.205C88.555,32.016,89.277,31.134,90.138,31.134z M90.922,32.422c0-0.455-0.245-0.749-0.7-0.749
		c-0.589,0-1.029,0.637-1.029,1.316c0,0.434,0.23,0.75,0.651,0.75C90.446,33.739,90.922,33.094,90.922,32.422z"/>
	<path d="M93.973,33.2c0-0.322,0.203-0.54,0.469-0.54c0.231,0,0.406,0.189,0.406,0.399c0,0.133-0.056,0.266-0.175,0.35
		c0.147,0.182,0.49,0.329,0.967,0.329c0.511,0,0.917-0.266,0.917-0.708c0-0.364-0.294-0.588-0.784-0.861
		c-0.561-0.322-1.093-0.693-1.093-1.387c0-0.666,0.603-1.268,1.562-1.268c0.861,0,1.464,0.504,1.464,0.973
		c0,0.315-0.189,0.54-0.456,0.54c-0.23,0-0.406-0.182-0.406-0.406c0-0.105,0.042-0.224,0.154-0.322
		c-0.091-0.112-0.364-0.231-0.756-0.231c-0.554,0-0.896,0.301-0.896,0.658c0,0.399,0.336,0.63,0.84,0.917
		c0.539,0.301,1.044,0.68,1.044,1.331c0,0.743-0.638,1.317-1.625,1.317C94.68,34.292,93.973,33.746,93.973,33.2z"/>
	<path d="M99.265,31.19l-0.462,1.828c-0.021,0.098-0.042,0.203-0.042,0.301c0,0.266,0.161,0.427,0.42,0.427
		c0.399,0,0.735-0.322,0.89-0.917l0.406-1.639h0.616l-0.539,2.136c-0.028,0.126-0.049,0.238-0.049,0.308
		c0,0.133,0.062,0.21,0.175,0.21c0.119,0,0.252-0.105,0.399-0.49l0.273,0.098c-0.183,0.602-0.505,0.805-0.834,0.805
		c-0.357,0-0.581-0.245-0.581-0.623v-0.063c-0.245,0.413-0.616,0.693-1.022,0.693c-0.428,0-0.784-0.308-0.784-0.798
		c0-0.154,0.027-0.33,0.069-0.504l0.322-1.254h-0.561l0.134-0.518H99.265z"/>
	<path d="M103.809,33.655c0-0.098,0.021-0.231,0.049-0.343l0.259-0.911c0.035-0.119,0.05-0.21,0.05-0.308
		c0-0.266-0.183-0.441-0.456-0.441c-0.371,0-0.721,0.315-0.875,0.917l-0.406,1.639h-0.616l0.63-2.5h-0.56l0.133-0.518h1.078
		l-0.161,0.708c0.238-0.42,0.631-0.757,1.044-0.757c0.462,0,0.819,0.315,0.819,0.854c0,0.147-0.028,0.315-0.077,0.49l-0.259,0.89
		c-0.021,0.091-0.042,0.189-0.042,0.245c0,0.14,0.069,0.224,0.188,0.224s0.253-0.105,0.393-0.49l0.273,0.098
		c-0.161,0.546-0.448,0.805-0.819,0.805C104.039,34.257,103.809,34.005,103.809,33.655z"/>
	<path d="M107.274,31.134c0.448,0,0.798,0.329,0.91,0.693l0.512-2.227h-0.561l0.126-0.519h1.163l-0.995,4.245
		c-0.028,0.133-0.049,0.238-0.049,0.308c0,0.133,0.056,0.21,0.175,0.21s0.252-0.105,0.399-0.49l0.273,0.098
		c-0.183,0.602-0.505,0.805-0.834,0.805c-0.364,0-0.588-0.245-0.588-0.616v-0.028c-0.252,0.364-0.616,0.651-1.071,0.651
		c-0.603,0-1.044-0.477-1.044-1.205C105.691,32.016,106.413,31.134,107.274,31.134z M108.058,32.422c0-0.455-0.245-0.749-0.7-0.749
		c-0.589,0-1.029,0.637-1.029,1.316c0,0.434,0.23,0.75,0.651,0.75C107.581,33.739,108.058,33.094,108.058,32.422z"/>
	<path d="M109.673,33.06c0-1.03,0.715-1.926,1.59-1.926c0.455,0,0.799,0.329,0.903,0.714l0.196-0.672h0.574l-0.532,2.15
		c-0.035,0.126-0.056,0.238-0.056,0.308c0,0.133,0.062,0.21,0.182,0.21c0.112,0,0.253-0.105,0.393-0.49l0.273,0.098
		c-0.183,0.602-0.498,0.805-0.834,0.805c-0.357,0-0.581-0.245-0.581-0.609v-0.035c-0.259,0.357-0.623,0.651-1.079,0.651
		C110.101,34.264,109.673,33.795,109.673,33.06z M112.027,32.415c0-0.448-0.225-0.742-0.687-0.742c-0.588,0-1.029,0.637-1.029,1.316
		c0,0.441,0.217,0.75,0.637,0.75C111.565,33.739,112.027,33.073,112.027,32.415z"/>
	<path d="M112.774,35.168c0-0.224,0.168-0.392,0.379-0.392c0.175,0,0.321,0.119,0.363,0.301c0.169-0.007,0.47-0.252,1.079-0.988
		l-0.49-2.381h-0.532l0.133-0.518h0.925l0.406,2.409c0.476-0.63,0.903-1.219,1.016-1.653c-0.154-0.056-0.295-0.196-0.295-0.406
		c0-0.217,0.176-0.406,0.414-0.406c0.287,0,0.469,0.21,0.469,0.546c0,0.406-0.273,1.029-1.394,2.417
		c-1.064,1.31-1.492,1.513-1.947,1.513C112.992,35.609,112.774,35.406,112.774,35.168z"/>
	<path d="M119.145,31.708h-0.525l0.126-0.518h0.519l0.195-0.833c0.105-0.462,0.267-0.756,0.483-0.974
		c0.231-0.231,0.547-0.343,0.861-0.343c0.399,0,0.603,0.217,0.603,0.456c0,0.238-0.188,0.392-0.392,0.392s-0.364-0.133-0.386-0.322
		c-0.098,0.021-0.189,0.077-0.252,0.14c-0.141,0.14-0.245,0.371-0.329,0.714l-0.175,0.771h0.791l-0.133,0.518h-0.777l-0.574,2.5
		h-0.609L119.145,31.708z"/>
	<path d="M121.441,31.708h-0.561l0.133-0.518h1.079l-0.196,0.847c0.371-0.595,0.721-0.896,1.05-0.896
		c0.245,0,0.448,0.175,0.448,0.42c0,0.238-0.195,0.427-0.42,0.427c-0.21,0-0.371-0.14-0.406-0.308
		c-0.217,0.098-0.645,0.525-0.806,1.177l-0.336,1.352h-0.616L121.441,31.708z"/>
	<path d="M123.596,32.927c0-0.924,0.721-1.793,1.708-1.793c0.869,0,1.359,0.624,1.359,1.345c0,0.917-0.722,1.786-1.709,1.786
		C124.086,34.264,123.596,33.641,123.596,32.927z M126.047,32.471c0-0.519-0.337-0.819-0.771-0.819
		c-0.589,0-1.064,0.567-1.064,1.274c0,0.525,0.336,0.827,0.771,0.827C125.571,33.753,126.047,33.178,126.047,32.471z"/>
	<path d="M127.845,31.708h-0.561l0.133-0.518h1.079l-0.169,0.708c0.245-0.42,0.609-0.757,1.009-0.757
		c0.441,0,0.729,0.294,0.764,0.75c0.273-0.462,0.658-0.75,1.022-0.75c0.441,0,0.784,0.315,0.784,0.854
		c0,0.147-0.027,0.315-0.077,0.49l-0.259,0.89c-0.021,0.091-0.042,0.189-0.042,0.245c0,0.14,0.07,0.224,0.189,0.224
		c0.118,0,0.252-0.105,0.392-0.49l0.273,0.098c-0.161,0.546-0.448,0.805-0.819,0.805c-0.413,0-0.645-0.252-0.645-0.602
		c0-0.098,0.021-0.231,0.049-0.343l0.252-0.882c0.042-0.126,0.057-0.238,0.057-0.336c0-0.273-0.183-0.441-0.413-0.441
		c-0.351,0-0.687,0.322-0.848,0.959l-0.406,1.597h-0.616l0.455-1.772c0.028-0.133,0.049-0.259,0.049-0.357
		c0-0.245-0.168-0.427-0.413-0.427c-0.351,0-0.7,0.329-0.854,0.952l-0.399,1.604h-0.616L127.845,31.708z"/>
	<path d="M136.84,33.333h0.735l-0.112,0.504h-0.735l-0.28,1.211h-0.602l0.28-1.211h-2.024l-0.063-0.28l2.977-3.061l0.386,0.357
		l-2.416,2.479h1.261l0.21-0.911l0.651-0.231L136.84,33.333z"/>
	<path d="M138.19,33.774c0-0.266,0.217-0.483,0.483-0.483c0.272,0,0.483,0.217,0.483,0.483c0,0.273-0.211,0.49-0.483,0.49
		C138.407,34.264,138.19,34.047,138.19,33.774z M138.61,31.932c0-0.273,0.218-0.49,0.483-0.49c0.273,0,0.483,0.217,0.483,0.49
		c0,0.266-0.21,0.483-0.483,0.483C138.828,32.415,138.61,32.198,138.61,31.932z"/>
	<path d="M140.093,32.639c0-1.058,0.799-2.094,1.92-2.094c0.98,0,1.555,0.735,1.555,1.625c0,1.058-0.799,2.094-1.919,2.094
		C140.661,34.264,140.093,33.536,140.093,32.639z M142.93,32.177c0-0.637-0.385-1.106-0.932-1.106c-0.735,0-1.274,0.742-1.274,1.562
		c0,0.644,0.385,1.113,0.938,1.113C142.398,33.746,142.93,32.997,142.93,32.177z"/>
	<path d="M144.146,32.639c0-1.058,0.799-2.094,1.92-2.094c0.98,0,1.555,0.735,1.555,1.625c0,1.058-0.799,2.094-1.919,2.094
		C144.713,34.264,144.146,33.536,144.146,32.639z M146.983,32.177c0-0.637-0.385-1.106-0.932-1.106
		c-0.735,0-1.274,0.742-1.274,1.562c0,0.644,0.385,1.113,0.938,1.113C146.451,33.746,146.983,32.997,146.983,32.177z"/>
	<path d="M147.471,35.077h0.448l0.791-3.369h-0.567l0.133-0.518h1.093l-0.154,0.658c0.253-0.378,0.624-0.714,1.1-0.714
		c0.68,0,1.093,0.49,1.093,1.219c0,1.05-0.729,1.912-1.61,1.912c-0.456,0-0.777-0.308-0.932-0.666l-0.344,1.478h0.589l-0.133,0.504
		h-1.64L147.471,35.077z M150.77,32.436c0-0.455-0.245-0.777-0.673-0.777c-0.603,0-1.1,0.658-1.1,1.331
		c0,0.441,0.252,0.735,0.722,0.735C150.314,33.725,150.77,33.102,150.77,32.436z"/>
	<path d="M152.603,31.708h-0.561l0.133-0.518h1.079l-0.169,0.708c0.245-0.42,0.609-0.757,1.009-0.757
		c0.441,0,0.729,0.294,0.764,0.75c0.273-0.462,0.658-0.75,1.022-0.75c0.441,0,0.784,0.315,0.784,0.854
		c0,0.147-0.027,0.315-0.077,0.49l-0.259,0.89c-0.021,0.091-0.042,0.189-0.042,0.245c0,0.14,0.07,0.224,0.189,0.224
		c0.118,0,0.252-0.105,0.392-0.49l0.273,0.098c-0.161,0.546-0.448,0.805-0.819,0.805c-0.413,0-0.645-0.252-0.645-0.602
		c0-0.098,0.021-0.231,0.049-0.343l0.252-0.882c0.042-0.126,0.057-0.238,0.057-0.336c0-0.273-0.183-0.441-0.413-0.441
		c-0.351,0-0.687,0.322-0.848,0.959l-0.406,1.597h-0.616l0.455-1.772c0.028-0.133,0.049-0.259,0.049-0.357
		c0-0.245-0.168-0.427-0.413-0.427c-0.351,0-0.7,0.329-0.854,0.952l-0.399,1.604h-0.616L152.603,31.708z"/>
	<path d="M157.768,31.939h1.723l-0.14,0.616h-1.724L157.768,31.939z"/>
	<path d="M159.637,34.236c0-0.266,0.195-0.448,0.413-0.448c0.217,0,0.392,0.168,0.392,0.393c0,0.077-0.021,0.161-0.069,0.203
		c0.084,0.084,0.308,0.161,0.623,0.161c0.693,0,1.142-0.47,1.142-1.03c0-0.462-0.336-0.75-0.903-0.75
		c-0.28,0-0.525,0.07-0.742,0.175l-0.351-0.217l0.715-2.122h2.269l-0.126,0.574h-1.813l-0.393,1.198
		c0.189-0.084,0.393-0.133,0.645-0.133c0.742,0,1.31,0.462,1.31,1.233c0,0.826-0.722,1.604-1.772,1.604
		C160.183,35.077,159.637,34.671,159.637,34.236z"/>
	<path d="M163.431,33.774c0-0.266,0.217-0.483,0.483-0.483c0.272,0,0.483,0.217,0.483,0.483c0,0.273-0.211,0.49-0.483,0.49
		C163.648,34.264,163.431,34.047,163.431,33.774z M163.851,31.932c0-0.273,0.218-0.49,0.483-0.49c0.273,0,0.483,0.217,0.483,0.49
		c0,0.266-0.21,0.483-0.483,0.483C164.069,32.415,163.851,32.198,163.851,31.932z"/>
	<path d="M165.334,32.639c0-1.058,0.799-2.094,1.92-2.094c0.98,0,1.555,0.735,1.555,1.625c0,1.058-0.799,2.094-1.919,2.094
		C165.902,34.264,165.334,33.536,165.334,32.639z M168.171,32.177c0-0.637-0.385-1.106-0.932-1.106
		c-0.735,0-1.274,0.742-1.274,1.562c0,0.644,0.385,1.113,0.938,1.113C167.639,33.746,168.171,32.997,168.171,32.177z"/>
	<path d="M169.387,32.639c0-1.058,0.799-2.094,1.92-2.094c0.98,0,1.555,0.735,1.555,1.625c0,1.058-0.799,2.094-1.919,2.094
		C169.955,34.264,169.387,33.536,169.387,32.639z M172.224,32.177c0-0.637-0.385-1.106-0.932-1.106
		c-0.735,0-1.274,0.742-1.274,1.562c0,0.644,0.385,1.113,0.938,1.113C171.692,33.746,172.224,32.997,172.224,32.177z"/>
	<path d="M172.712,35.077h0.448l0.791-3.369h-0.567l0.133-0.518h1.093l-0.154,0.658c0.253-0.378,0.624-0.714,1.1-0.714
		c0.68,0,1.093,0.49,1.093,1.219c0,1.05-0.729,1.912-1.61,1.912c-0.456,0-0.777-0.308-0.932-0.666l-0.344,1.478h0.589l-0.133,0.504
		h-1.64L172.712,35.077z M176.011,32.436c0-0.455-0.245-0.777-0.673-0.777c-0.603,0-1.1,0.658-1.1,1.331
		c0,0.441,0.252,0.735,0.722,0.735C175.555,33.725,176.011,33.102,176.011,32.436z"/>
	<path d="M177.844,31.708h-0.561l0.133-0.518h1.078l-0.168,0.708c0.245-0.42,0.609-0.757,1.009-0.757
		c0.441,0,0.729,0.294,0.764,0.75c0.273-0.462,0.658-0.75,1.022-0.75c0.441,0,0.784,0.315,0.784,0.854
		c0,0.147-0.027,0.315-0.077,0.49l-0.259,0.89c-0.021,0.091-0.042,0.189-0.042,0.245c0,0.14,0.07,0.224,0.189,0.224
		c0.118,0,0.252-0.105,0.392-0.49l0.273,0.098c-0.161,0.546-0.448,0.805-0.819,0.805c-0.413,0-0.645-0.252-0.645-0.602
		c0-0.098,0.021-0.231,0.049-0.343l0.252-0.882c0.042-0.126,0.057-0.238,0.057-0.336c0-0.273-0.183-0.441-0.413-0.441
		c-0.351,0-0.687,0.322-0.848,0.959l-0.406,1.597h-0.616l0.455-1.772c0.028-0.133,0.049-0.259,0.049-0.357
		c0-0.245-0.168-0.427-0.413-0.427c-0.351,0-0.7,0.329-0.854,0.952l-0.399,1.604h-0.616L177.844,31.708z"/>
</g>
<line fill="none" stroke="#000000" stroke-width="0.75" x1="1.651" y1="-79.929" x2="233.408" y2="-79.929"/>
<line fill="none" stroke="#000000" stroke-width="0.75" x1="1.651" y1="-65.501" x2="233.408" y2="-65.501"/>
<g>
	<g>
		<polygon points="18.226,-65.501 17.908,-65.819 24.804,-72.716 17.908,-79.611 18.226,-79.929 25.44,-72.716 		"/>
		<polygon points="16.067,-65.501 15.749,-65.819 22.645,-72.716 15.749,-79.611 16.067,-79.929 23.281,-72.716 		"/>
		<polygon points="13.91,-65.501 13.592,-65.819 20.486,-72.716 13.592,-79.611 13.91,-79.929 21.122,-72.716 		"/>
		<polygon points="11.751,-65.501 11.433,-65.819 18.328,-72.716 11.433,-79.611 11.751,-79.929 18.964,-72.716 		"/>
		<polygon points="9.592,-65.501 9.274,-65.819 16.17,-72.716 9.274,-79.611 9.592,-79.929 16.806,-72.716 		"/>
		<polygon points="7.434,-65.501 7.116,-65.819 14.012,-72.716 7.116,-79.611 7.434,-79.929 14.648,-72.716 		"/>
		<polygon points="5.276,-65.501 4.958,-65.819 11.853,-72.716 4.958,-79.611 5.276,-79.929 12.489,-72.716 		"/>
		<polygon points="3.117,-65.501 2.799,-65.819 9.694,-72.716 2.799,-79.611 3.117,-79.929 10.33,-72.716 		"/>
	</g>
	<g>
		<polygon points="35.313,-65.501 34.995,-65.819 41.891,-72.716 34.995,-79.611 35.313,-79.929 42.527,-72.716 		"/>
		<polygon points="33.154,-65.501 32.836,-65.819 39.732,-72.716 32.836,-79.611 33.154,-79.929 40.368,-72.716 		"/>
		<polygon points="30.997,-65.501 30.679,-65.819 37.574,-72.716 30.679,-79.611 30.997,-79.929 38.21,-72.716 		"/>
		<polygon points="28.838,-65.501 28.52,-65.819 35.415,-72.716 28.52,-79.611 28.838,-79.929 36.051,-72.716 		"/>
		<polygon points="26.68,-65.501 26.362,-65.819 33.257,-72.716 26.362,-79.611 26.68,-79.929 33.893,-72.716 		"/>
		<polygon points="24.521,-65.501 24.203,-65.819 31.1,-72.716 24.203,-79.611 24.521,-79.929 31.736,-72.716 		"/>
		<polygon points="22.363,-65.501 22.045,-65.819 28.94,-72.716 22.045,-79.611 22.363,-79.929 29.576,-72.716 		"/>
		<polygon points="20.205,-65.501 19.887,-65.819 26.782,-72.716 19.887,-79.611 20.205,-79.929 27.417,-72.716 		"/>
	</g>
</g>
<g>
	<g>
		<polygon points="216.785,-79.929 217.103,-79.611 210.206,-72.714 217.103,-65.819 216.785,-65.501 209.57,-72.714 		"/>
		<polygon points="218.943,-79.929 219.261,-79.611 212.365,-72.714 219.261,-65.819 218.943,-65.501 211.729,-72.714 		"/>
		<polygon points="221.101,-79.929 221.419,-79.611 214.524,-72.714 221.419,-65.819 221.101,-65.501 213.888,-72.714 		"/>
		<polygon points="223.259,-79.929 223.577,-79.611 216.682,-72.714 223.577,-65.819 223.259,-65.501 216.047,-72.714 		"/>
		<polygon points="225.418,-79.929 225.736,-79.611 218.84,-72.714 225.736,-65.819 225.418,-65.501 218.204,-72.714 		"/>
		<polygon points="227.577,-79.929 227.895,-79.611 220.998,-72.714 227.895,-65.819 227.577,-65.501 220.362,-72.714 		"/>
		<polygon points="229.734,-79.929 230.052,-79.611 223.157,-72.714 230.052,-65.819 229.734,-65.501 222.521,-72.714 		"/>
		<polygon points="231.893,-79.929 232.211,-79.611 225.316,-72.714 232.211,-65.819 231.893,-65.501 224.68,-72.714 		"/>
	</g>
	<g>
		<polygon points="199.597,-80.117 199.915,-79.799 193.019,-72.902 199.915,-66.006 199.597,-65.688 192.383,-72.902 		"/>
		<polygon points="201.756,-80.117 202.074,-79.799 195.177,-72.902 202.074,-66.006 201.756,-65.688 194.541,-72.902 		"/>
		<polygon points="203.913,-80.117 204.231,-79.799 197.336,-72.902 204.231,-66.006 203.913,-65.688 196.7,-72.902 		"/>
		<polygon points="206.072,-80.117 206.39,-79.799 199.495,-72.902 206.39,-66.006 206.072,-65.688 198.859,-72.902 		"/>
		<polygon points="208.23,-80.117 208.548,-79.799 201.653,-72.902 208.548,-66.006 208.23,-65.688 201.016,-72.902 		"/>
		<polygon points="210.389,-80.117 210.707,-79.799 203.81,-72.902 210.707,-66.006 210.389,-65.688 203.174,-72.902 		"/>
		<polygon points="212.546,-80.117 212.864,-79.799 205.97,-72.902 207.34,-71.531 212.864,-66.006 212.546,-65.688 
			205.334,-72.902 		"/>
		<polygon points="214.705,-80.117 215.023,-79.799 208.128,-72.902 215.023,-66.006 214.705,-65.688 207.493,-72.902 		"/>
	</g>
</g>
<rect x="293.284" y="0" fill="none" width="249.324" height="31.757"/>
<text transform="matrix(1 0 0 1 293.2837 19.3445)"><tspan x="0" y="0" font-family="'TrioGotham-Bold'" font-size="26.5">T</tspan><tspan x="17.013" y="0" font-family="'TrioGotham-Bold'" font-size="26.5">h</tspan><tspan x="36.834" y="0" font-family="'TrioGotham-Bold'" font-size="26.5">e </tspan><tspan x="60.445" y="0" font-family="'TrioGotham-Bold'" font-size="26.5">B</tspan><tspan x="79.18" y="0" font-family="'TrioGotham-Bold'" font-size="26.5">e</tspan><tspan x="96.723" y="0" font-family="'TrioGotham-Bold'" font-size="26.5">t</tspan><tspan x="114.187" y="0" font-family="'TrioGotham-Bold'" font-size="26.5">w</tspan><tspan x="142.886" y="0" font-family="'TrioGotham-Bold'" font-size="26.5">e</tspan><tspan x="159.925" y="0" font-family="'TrioGotham-Bold'" font-size="26.5">e</tspan><tspan x="176.937" y="0" font-family="'TrioGotham-Bold'" font-size="26.5">n</tspan><tspan x="197.475" y="0" font-family="'TrioGotham-Bold'" font-size="26.5">e</tspan><tspan x="215.017" y="0" font-family="'TrioGotham-Bold'" font-size="26.5">r</tspan></text>
<rect x="294.935" y="24.696" opacity="0.13" fill="#C3996B" width="231.757" height="14.804"/>
<rect x="348.316" y="29.425" fill="none" width="124.995" height="7.345"/>
<text transform="matrix(1 0 0 1 348.3156 34.5496)" font-family="'Archer-BoldItalic'" font-size="7">Saturday-Sunday from 4:00pm-5:00pm</text>
<line fill="none" stroke="#000000" stroke-width="0.75" x1="294.935" y1="25.071" x2="526.692" y2="25.071"/>
<line fill="none" stroke="#000000" stroke-width="0.75" x1="294.935" y1="39.499" x2="526.692" y2="39.499"/>
<line fill="none" stroke="#000000" stroke-width="0.5" x1="294.935" y1="32.465" x2="338.553" y2="32.465"/>
<line fill="none" stroke="#000000" stroke-width="0.5" x1="483.074" y1="32.465" x2="526.692" y2="32.465"/>
<rect x="586.568" y="0" fill="none" width="234.222" height="20.655"/>
<text transform="matrix(1 0 0 1 586.568 19.345)"><tspan x="0" y="0" font-family="'TrioGotham-Bold'" font-size="26.5">T</tspan><tspan x="17.013" y="0" font-family="'TrioGotham-Bold'" font-size="26.5">h</tspan><tspan x="36.834" y="0" font-family="'TrioGotham-Bold'" font-size="26.5">e </tspan><tspan x="60.446" y="0" font-family="'TrioGotham-Bold'" font-size="26.5">B</tspan><tspan x="79.18" y="0" font-family="'TrioGotham-Bold'" font-size="26.5">e</tspan><tspan x="96.723" y="0" font-family="'TrioGotham-Bold'" font-size="26.5">t</tspan><tspan x="114.186" y="0" font-family="'TrioGotham-Bold'" font-size="26.5">w</tspan><tspan x="142.885" y="0" font-family="'TrioGotham-Bold'" font-size="26.5">e</tspan><tspan x="159.924" y="0" font-family="'TrioGotham-Bold'" font-size="26.5">e</tspan><tspan x="176.936" y="0" font-family="'TrioGotham-Bold'" font-size="26.5">n</tspan><tspan x="197.474" y="0" font-family="'TrioGotham-Bold'" font-size="26.5">e</tspan><tspan x="215.016" y="0" font-family="'TrioGotham-Bold'" font-size="26.5">r</tspan></text>
<rect x="588.219" y="27.071" opacity="0.13" fill="#C3996B" width="231.757" height="16.166"/>
<rect x="634.681" y="32.425" fill="none" width="137.995" height="7.345"/>
<text transform="matrix(1 0 0 1 634.6802 37.5496)" font-family="'Archer-BoldItalic'" font-size="7">Saturday and Sunday from 4:00pm-5:00pm</text>
<g>
	<g>
		<line fill="none" stroke="#000000" stroke-width="0.5" x1="588.219" y1="27.071" x2="589.219" y2="27.071"/>
		
			<line fill="none" stroke="#000000" stroke-width="0.5" stroke-dasharray="1.9979,1.9979" x1="591.217" y1="27.071" x2="817.977" y2="27.071"/>
		<line fill="none" stroke="#000000" stroke-width="0.5" x1="818.976" y1="27.071" x2="819.976" y2="27.071"/>
	</g>
</g>
<line fill="none" stroke="#000000" stroke-width="0.75" x1="588.219" y1="-9.633" x2="819.976" y2="-9.633"/>
<line fill="none" stroke="#000000" stroke-width="0.75" x1="588.219" y1="43.499" x2="819.976" y2="43.499"/>
<path d="M689.127,45.238c1.082,0.94,2.955,0.974,4.399,0.974h6.274c2.451,0,3.567,0.361,4.148,2.488h0.068
	c0.18-0.723,0.578-1.37,1.337-1.84c0.936-0.683,1.656-0.649,2.883-0.649h6.994c1.624,0,3.174-0.107,4.216-1.298
	c0.398-0.514,0.623-1.019,0.751-1.527h-32.201C688.173,44.078,688.508,44.727,689.127,45.238z"/>
<path d="M719.067-11.484c-1.082-0.94-2.955-0.974-4.399-0.974h-6.274c-2.451,0-3.567-0.361-4.148-2.488h-0.068
	c-0.18,0.723-0.578,1.37-1.337,1.84c-0.936,0.683-1.656,0.649-2.883,0.649h-6.994c-1.624,0-3.174,0.107-4.216,1.298
	c-0.398,0.514-0.623,1.019-0.751,1.527h32.201C720.021-10.324,719.687-10.973,719.067-11.484z"/>
<rect x="879.851" y="0" fill="none" width="234.222" height="20.655"/>
<text transform="matrix(1 0 0 1 879.8517 19.345)"><tspan x="0" y="0" font-family="'TrioGotham-Bold'" font-size="26.5">T</tspan><tspan x="17.013" y="0" font-family="'TrioGotham-Bold'" font-size="26.5">h</tspan><tspan x="36.834" y="0" font-family="'TrioGotham-Bold'" font-size="26.5">e </tspan><tspan x="60.446" y="0" font-family="'TrioGotham-Bold'" font-size="26.5">B</tspan><tspan x="79.18" y="0" font-family="'TrioGotham-Bold'" font-size="26.5">e</tspan><tspan x="96.723" y="0" font-family="'TrioGotham-Bold'" font-size="26.5">t</tspan><tspan x="114.186" y="0" font-family="'TrioGotham-Bold'" font-size="26.5">w</tspan><tspan x="142.885" y="0" font-family="'TrioGotham-Bold'" font-size="26.5">e</tspan><tspan x="159.924" y="0" font-family="'TrioGotham-Bold'" font-size="26.5">e</tspan><tspan x="176.936" y="0" font-family="'TrioGotham-Bold'" font-size="26.5">n</tspan><tspan x="197.474" y="0" font-family="'TrioGotham-Bold'" font-size="26.5">e</tspan><tspan x="215.016" y="0" font-family="'TrioGotham-Bold'" font-size="26.5">r</tspan></text>
<rect x="881.503" y="27.071" opacity="0.13" fill="#C3996B" width="231.757" height="16.166"/>
<rect x="934.883" y="32.425" fill="none" width="124.995" height="7.345"/>
<text transform="matrix(1 0 0 1 934.8832 37.5496)" font-family="'Archer-BoldItalic'" font-size="7">Saturday-Sunday from 4:00pm-5:00pm</text>
<g>
	<g>
		<line fill="none" stroke="#000000" stroke-width="0.5" x1="881.503" y1="27.071" x2="882.503" y2="27.071"/>
		
			<line fill="none" stroke="#000000" stroke-width="0.5" stroke-dasharray="1.9979,1.9979" x1="884.5" y1="27.071" x2="1111.26" y2="27.071"/>
		<line fill="none" stroke="#000000" stroke-width="0.5" x1="1112.259" y1="27.071" x2="1113.259" y2="27.071"/>
	</g>
</g>
<line fill="none" stroke="#000000" stroke-width="0.75" x1="881.503" y1="-9.633" x2="1113.259" y2="-9.633"/>
<line fill="none" stroke="#000000" stroke-width="0.75" x1="881.503" y1="43.499" x2="1113.259" y2="43.499"/>
<path d="M982.411,45.238c1.082,0.94,2.955,0.974,4.399,0.974h6.274c2.451,0,3.567,0.361,4.148,2.488h0.068
	c0.18-0.723,0.578-1.37,1.337-1.84c0.936-0.683,1.656-0.649,2.883-0.649h6.995c1.624,0,3.174-0.107,4.216-1.298
	c0.398-0.514,0.623-1.019,0.751-1.527h-32.201C981.457,44.078,981.792,44.727,982.411,45.238z"/>
<path d="M1012.351-11.484c-1.082-0.94-2.955-0.974-4.399-0.974h-6.274c-2.451,0-3.567-0.361-4.148-2.488h-0.068
	c-0.18,0.723-0.578,1.37-1.337,1.84c-0.936,0.683-1.656,0.649-2.883,0.649h-6.994c-1.624,0-3.174,0.107-4.216,1.298
	c-0.398,0.514-0.623,1.019-0.751,1.527h32.201C1013.305-10.324,1012.971-10.973,1012.351-11.484z"/>
</svg>
