<?xml version="1.0" encoding="utf-8"?>
<!-- Generator: Adobe Illustrator 17.0.0, SVG Export Plug-In . SVG Version: 6.00 Build 0)  -->
<!DOCTYPE svg PUBLIC "-//W3C//DTD SVG 1.1//EN" "http://www.w3.org/Graphics/SVG/1.1/DTD/svg11.dtd">
<svg version="1.1" id="Layer_1" xmlns="http://www.w3.org/2000/svg" xmlns:xlink="http://www.w3.org/1999/xlink" x="0px" y="0px"
	 width="213.789px" height="23.804px" viewBox="1.666 1.333 213.789 23.804" enable-background="new 1.666 1.333 213.789 23.804"
	 xml:space="preserve">
<g>
	<path opacity="0.5" fill="#B5121C" enable-background="new    " d="M-537.488,24.376h2.527l3.903-16.831h-2.848l0.48-2.112h6.463
		c2.784,0,4.832,0.64,6.144,1.92c0.96,0.96,1.44,2.208,1.44,3.712c0,3.168-2.24,5.696-6.016,6.56l3.2,6.751h2.463l-0.479,2.112
		h-3.68l-3.84-8.575c-0.352,0.032-0.672,0.032-1.056,0.032c-0.769,0-1.6-0.032-2.272-0.064l-1.535,6.496h2.88l-0.513,2.112h-7.775
		L-537.488,24.376z M-521.778,11.193c0-0.96-0.319-1.76-0.959-2.4c-0.832-0.832-2.336-1.248-4.288-1.248h-1.664l-1.92,8.256
		c0.736,0.064,1.504,0.096,2.656,0.096C-524.113,15.896-521.778,13.945-521.778,11.193z"/>
	<path opacity="0.5" fill="#B5121C" enable-background="new    " d="M-517.489,20.792c0-4.224,3.296-8.191,7.712-8.191
		c3.743,0,5.92,2.752,5.92,5.952c0,4.256-3.296,8.191-7.712,8.191C-515.313,26.744-517.489,24.024-517.489,20.792z M-506.13,18.552
		c0-2.496-1.632-4-3.743-4c-2.977,0-5.344,2.848-5.344,6.271c0,2.464,1.632,3.968,3.743,3.968
		C-508.466,24.792-506.13,21.944-506.13,18.552z"/>
	<path opacity="0.5" fill="#B5121C" enable-background="new    " d="M-496.625,4.985h-2.592l0.479-1.92h4.768l-2.911,12.415
		c1.088-1.568,2.751-2.88,4.735-2.88c3.071,0,5.119,2.24,5.119,5.632c0,4.736-3.392,8.543-7.231,8.543
		c-2.239,0-3.968-1.344-4.415-3.328l-0.801,3.04h-2.144L-496.625,4.985z M-489.394,18.521c0-2.368-1.216-3.936-3.36-3.936
		c-2.976,0-5.344,3.392-5.344,6.496c0,2.176,1.312,3.68,3.616,3.68C-491.538,24.76-489.394,21.688-489.394,18.521z"/>
	<path opacity="0.5" fill="#B5121C" enable-background="new    " d="M-482.13,20.344c-0.032,0.224-0.032,0.448-0.032,0.672
		c0,2.4,1.984,3.808,4.353,3.808c1.535,0,2.751-0.32,4.512-1.248l-0.48,2.176c-1.439,0.704-2.624,0.992-4.479,0.992
		c-3.2,0-6.111-2.048-6.111-5.759c0-4.608,3.487-8.384,7.551-8.384c3.168,0,5.216,1.92,5.216,4.992c0,0.832-0.16,1.76-0.512,2.752
		h-10.018V20.344z M-481.777,18.616h7.839c0.16-0.416,0.225-0.896,0.225-1.344c0-1.472-0.992-2.72-3.2-2.72
		C-479.058,14.553-480.978,16.249-481.777,18.616z"/>
	<path opacity="0.5" fill="#B5121C" enable-background="new    " d="M-466.065,14.809h-2.56l0.479-1.952h4.544l-0.896,3.775
		c1.76-2.592,3.295-4,4.671-4c1.088,0,1.856,0.704,1.856,1.696c0,0.96-0.8,1.76-1.729,1.76c-0.863,0-1.472-0.576-1.632-1.28
		c-1.023,0.512-3.167,2.56-3.903,5.632l-1.536,6.047h-2.239L-466.065,14.809z"/>
	<path opacity="0.5" fill="#B5121C" enable-background="new    " d="M-451.634,14.809l-1.92,7.808
		c-0.128,0.448-0.192,0.832-0.192,1.184c0,0.608,0.416,1.088,1.088,1.088c0.736,0,1.504-0.384,2.849-1.28l0.832,1.184
		c-1.664,1.344-3.008,1.952-4.288,1.952c-1.6,0-2.815-0.992-2.815-2.592c0-0.448,0.096-0.96,0.256-1.536l1.92-7.808h-2.433
		l0.48-1.952h2.432l0.8-3.2l2.464-0.8l-0.992,4h4.16l-0.48,1.952H-451.634z"/>
	<path opacity="0.5" fill="#B5121C" enable-background="new    " d="M-446.066,20.792c0-4.224,3.296-8.191,7.712-8.191
		c3.743,0,5.92,2.752,5.92,5.952c0,4.256-3.296,8.191-7.712,8.191C-443.891,26.744-446.066,24.024-446.066,20.792z M-434.707,18.552
		c0-2.496-1.632-4-3.743-4c-2.977,0-5.344,2.848-5.344,6.271c0,2.464,1.632,3.968,3.743,3.968
		C-437.043,24.792-434.707,21.944-434.707,18.552z"/>
	<path opacity="0.5" fill="#B5121C" enable-background="new    " d="M-422.131,17.592c0-6.719,5.408-12.543,11.903-12.543
		c4.928,0,7.552,3.072,7.552,5.152c0,1.408-0.896,2.335-1.92,2.335c-1.024,0-1.696-0.704-1.696-1.6c0-0.608,0.384-1.184,0.928-1.504
		c-0.352-0.992-2.048-2.24-4.959-2.24c-5.44,0-9.344,5.184-9.344,10.175c0,4.607,2.72,7.327,6.783,7.327
		c2.496,0,4.672-1.056,6.592-2.944l1.408,1.472c-2.368,2.432-5.12,3.647-8.224,3.647C-418.035,26.872-422.131,23.512-422.131,17.592
		z"/>
	<path opacity="0.5" fill="#B5121C" enable-background="new    " d="M-401.972,21.208c0-4.64,3.296-8.607,7.231-8.607
		c2.24,0,3.84,1.44,4.256,3.392l0.864-3.232h2.144l-2.464,10.015c-0.128,0.544-0.224,1.056-0.224,1.344
		c0,0.64,0.352,0.992,0.896,0.992c0.608,0,1.184-0.544,1.824-2.144l1.12,0.384c-0.736,2.304-1.952,3.36-3.424,3.36
		c-1.536,0-2.528-1.024-2.528-2.496v-0.32c-1.184,1.6-2.848,2.848-4.863,2.848C-399.987,26.744-401.972,24.6-401.972,21.208z
		 M-391.093,18.296c0-2.208-1.184-3.712-3.423-3.712c-2.977,0-5.088,3.168-5.088,6.464c0,2.24,1.088,3.744,3.199,3.744
		C-393.269,24.792-391.093,21.336-391.093,18.296z"/>
	<path opacity="0.5" fill="#B5121C" enable-background="new    " d="M-386.995,30.839h2.048l3.84-16.031h-2.592l0.479-1.952h4.576
		l-0.641,2.848c1.12-1.664,2.784-3.104,4.928-3.104c3.008,0,5.056,2.24,5.056,5.632c0,4.736-3.392,8.543-7.264,8.543
		c-2.144,0-3.808-1.376-4.447-3.168l-1.664,7.231h2.784l-0.48,1.92h-7.104L-386.995,30.839z M-371.669,18.521
		c0-2.368-1.216-3.936-3.359-3.936c-2.976,0-5.376,3.392-5.376,6.496c0,2.176,1.345,3.68,3.648,3.68
		C-373.812,24.76-371.669,21.688-371.669,18.521z"/>
	<path opacity="0.5" fill="#B5121C" enable-background="new    " d="M-366.611,20.792c0-4.224,3.296-8.191,7.712-8.191
		c3.743,0,5.92,2.752,5.92,5.952c0,4.256-3.296,8.191-7.712,8.191C-364.436,26.744-366.611,24.024-366.611,20.792z M-355.252,18.552
		c0-2.496-1.632-4-3.743-4c-2.977,0-5.344,2.848-5.344,6.271c0,2.464,1.632,3.968,3.743,3.968
		C-357.588,24.792-355.252,21.944-355.252,18.552z"/>
	<path opacity="0.5" fill="#B5121C" enable-background="new    " d="M-347.315,14.809h-2.56l0.479-1.952h4.544l-0.896,3.775
		c1.76-2.592,3.295-4,4.671-4c1.088,0,1.856,0.704,1.856,1.696c0,0.96-0.8,1.76-1.729,1.76c-0.863,0-1.472-0.576-1.632-1.28
		c-1.023,0.512-3.167,2.56-3.903,5.632l-1.536,6.047h-2.239L-347.315,14.809z"/>
	<path opacity="0.5" fill="#B5121C" enable-background="new    " d="M-332.469,12.857l-2.208,8.543
		c-0.128,0.448-0.192,0.959-0.192,1.472c0,1.152,0.801,1.952,2.08,1.952c1.888,0,3.936-1.792,4.736-4.992l1.728-6.975h2.24
		l-2.464,9.919c-0.16,0.544-0.257,1.056-0.257,1.344c0,0.64,0.385,0.992,0.929,0.992c0.607,0,1.184-0.544,1.823-2.144l1.12,0.384
		c-0.736,2.304-1.952,3.36-3.456,3.36s-2.495-0.992-2.495-2.592c0-0.192,0.031-0.384,0.063-0.64
		c-1.151,1.856-2.815,3.232-4.735,3.232c-2.048,0-3.616-1.344-3.616-3.456c0-0.704,0.128-1.408,0.288-2.048l1.664-6.399h-2.56
		l0.512-1.952C-337.269,12.857-332.469,12.857-332.469,12.857z"/>
	<path opacity="0.5" fill="#B5121C" enable-background="new    " d="M-320.437,24.952c-0.512-0.512-0.8-1.088-0.8-1.696
		c0-0.928,0.64-1.664,1.504-1.664s1.376,0.64,1.376,1.344c0,0.384-0.16,0.704-0.416,1.024c0.128,0.128,0.256,0.224,0.544,0.384
		c0.64,0.352,1.632,0.608,2.72,0.608c1.504,0,2.752-0.672,2.752-1.888c0-1.248-1.344-1.888-2.815-2.592
		c-1.984-0.928-3.776-1.824-3.776-3.872c0-2.176,1.824-3.904,4.928-3.904c1.792,0,3.328,0.576,4.192,1.472
		c0.512,0.512,0.768,1.056,0.768,1.664c0,0.992-0.672,1.632-1.44,1.632s-1.407-0.576-1.407-1.344c0-0.32,0.128-0.64,0.352-1.024
		c-0.096-0.064-0.16-0.128-0.479-0.288c-0.48-0.224-1.248-0.384-2.048-0.384c-1.601,0-2.656,0.736-2.656,1.792
		c0,1.088,1.312,1.696,2.912,2.464c1.92,0.896,3.712,1.92,3.712,4c0,2.624-2.24,4.032-5.088,4.032
		C-317.589,26.712-319.412,25.976-320.437,24.952z"/>
	<path opacity="0.5" fill="#B5121C" enable-background="new    " d="M-307.443,20.856c0-4.32,3.521-8.256,7.808-8.256
		c3.2,0,4.928,1.952,4.928,3.648c0,1.056-0.704,1.92-1.695,1.92c-0.673,0-1.376-0.48-1.376-1.44c0-0.352,0.224-0.896,0.64-1.152
		c-0.48-0.64-1.312-1.024-2.56-1.024c-2.816,0-5.472,2.688-5.472,6.175c0,2.432,1.6,4.064,4.128,4.064
		c1.567,0,3.199-0.64,4.543-1.792l-0.063,2.176c-1.344,0.992-2.944,1.568-4.736,1.568
		C-304.755,26.744-307.443,24.536-307.443,20.856z"/>
	<path opacity="0.5" fill="#B5121C" enable-background="new    " d="M-291.827,24.152c0-0.384,0.128-0.992,0.256-1.472l2.144-7.872
		h-2.655l0.512-1.952h4.896l-2.688,9.919c-0.128,0.512-0.225,1.056-0.225,1.344c0,0.64,0.385,0.992,0.929,0.992
		c0.672,0,1.247-0.544,1.855-2.144l1.12,0.384c-0.736,2.304-1.888,3.36-3.456,3.36C-290.804,26.712-291.827,25.688-291.827,24.152z
		 M-289.012,8.601c0-0.896,0.736-1.632,1.632-1.632c0.864,0,1.6,0.736,1.6,1.632s-0.735,1.632-1.6,1.632
		C-288.275,10.233-289.012,9.497-289.012,8.601z"/>
	<path opacity="0.5" fill="#B5121C" enable-background="new    " d="M-283.156,20.792c0-4.224,3.296-8.191,7.712-8.191
		c3.743,0,5.92,2.752,5.92,5.952c0,4.256-3.296,8.191-7.712,8.191C-280.98,26.744-283.156,24.024-283.156,20.792z M-271.797,18.552
		c0-2.496-1.632-4-3.743-4c-2.977,0-5.344,2.848-5.344,6.271c0,2.464,1.632,3.968,3.743,3.968
		C-274.133,24.792-271.797,21.944-271.797,18.552z"/>
</g>
<g>
	<path d="M-461.299-32.815h3.301c1.947,0,3.201,1.001,3.201,2.707v0.022c0,1.815-1.397,2.772-3.312,2.772h-1.056v2.2h-2.135v-7.701
		H-461.299z M-458.152-28.987c0.759,0,1.222-0.396,1.222-1.001v-0.022c0-0.66-0.463-1.012-1.232-1.012h-1.001v2.035
		C-459.163-28.987-458.152-28.987-458.152-28.987z"/>
	<path d="M-453.874-32.815h2.146v7.701h-2.146V-32.815z"/>
	<path d="M-450.585-26.666l3.862-4.346h-3.729v-1.804h6.678v1.551l-3.861,4.346h3.861v1.804h-6.811V-26.666z"/>
	<path d="M-443.039-26.666l3.862-4.346h-3.729v-1.804h6.678v1.551l-3.861,4.346h3.861v1.804h-6.811V-26.666z"/>
	<path d="M-432.479-32.871h2.058l3.278,7.756h-2.288l-0.561-1.375h-2.971l-0.55,1.375h-2.245L-432.479-32.871z M-430.607-28.151
		l-0.858-2.189l-0.869,2.189H-430.607z"/>
	<path d="M-423.778-32.815h2.256l1.837,2.981l1.837-2.981h2.256v7.701h-2.123v-4.423l-1.97,3.015h-0.044l-1.958-2.992v4.4h-2.091
		L-423.778-32.815L-423.778-32.815z"/>
	<path d="M-411.59-32.871h2.058l3.278,7.756h-2.288l-0.561-1.375h-2.971l-0.55,1.375h-2.245L-411.59-32.871z M-409.719-28.151
		l-0.858-2.189l-0.869,2.189H-409.719z"/>
	<path d="M-405.529-32.815h2.135v3.125l2.651-3.125h2.53l-2.916,3.312l3.015,4.39h-2.563l-1.936-2.86l-0.781,0.869v1.991h-2.135
		L-405.529-32.815L-405.529-32.815z"/>
	<path d="M-397.521-32.815h6.194V-31h-4.082v1.166h3.696v1.683h-3.696v1.221h4.137v1.815h-6.249V-32.815z"/>
	<path d="M-390.207-32.815h3.642c1.178,0,1.991,0.308,2.509,0.836c0.451,0.44,0.682,1.034,0.682,1.793v0.022
		c0,1.177-0.627,1.958-1.584,2.365l1.837,2.685h-2.464l-1.552-2.333h-0.021h-0.913v2.333h-2.135v-7.701H-390.207z M-386.664-29.119
		c0.726,0,1.144-0.352,1.144-0.913v-0.022c0-0.605-0.439-0.913-1.155-0.913h-1.396v1.849L-386.664-29.119L-386.664-29.119z"/>
	<path d="M-378.547-33.894h1.694l-4.873,10.188h-1.694L-378.547-33.894z"/>
	<path d="M-376.457-32.815h3.642c1.178,0,1.991,0.308,2.509,0.836c0.451,0.44,0.682,1.034,0.682,1.793v0.022
		c0,1.177-0.627,1.958-1.584,2.365l1.837,2.685h-2.464l-1.552-2.333h-0.021h-0.913v2.333h-2.135v-7.701H-376.457z M-372.914-29.119
		c0.726,0,1.144-0.352,1.144-0.913v-0.022c0-0.605-0.439-0.913-1.155-0.913h-1.396v1.849L-372.914-29.119L-372.914-29.119z"/>
	<path d="M-368.57-32.815h6.194V-31h-4.082v1.166h3.696v1.683h-3.696v1.221h4.137v1.815h-6.249V-32.815z"/>
	<path d="M-361.839-26.258l1.188-1.419c0.759,0.605,1.606,0.924,2.497,0.924c0.572,0,0.88-0.198,0.88-0.528v-0.022
		c0-0.319-0.253-0.495-1.298-0.737c-1.64-0.374-2.904-0.836-2.904-2.42v-0.022c0-1.43,1.133-2.464,2.981-2.464
		c1.309,0,2.332,0.352,3.168,1.023l-1.066,1.507c-0.704-0.495-1.475-0.759-2.156-0.759c-0.518,0-0.771,0.22-0.771,0.495v0.022
		c0,0.352,0.264,0.506,1.331,0.748c1.771,0.385,2.871,0.958,2.871,2.398v0.022c0,1.573-1.243,2.508-3.113,2.508
		C-359.595-24.982-360.893-25.411-361.839-26.258z"/>
	<path d="M-352.443-30.945h-2.311v-1.87h6.755v1.87h-2.311v5.831h-2.134v-5.831H-352.443z"/>
	<path d="M-345.416-32.871h2.058l3.278,7.756h-2.288l-0.561-1.375h-2.971l-0.55,1.375h-2.245L-345.416-32.871z M-343.545-28.151
		l-0.858-2.189l-0.869,2.189H-343.545z"/>
	<path d="M-339.752-28.492v-4.324h2.167v4.28c0,1.111,0.562,1.639,1.419,1.639c0.858,0,1.42-0.506,1.42-1.584v-4.334h2.167v4.269
		c0,2.486-1.419,3.576-3.608,3.576S-339.752-26.083-339.752-28.492z"/>
	<path d="M-331.337-32.815h3.642c1.178,0,1.991,0.308,2.509,0.836c0.451,0.44,0.682,1.034,0.682,1.793v0.022
		c0,1.177-0.627,1.958-1.584,2.365l1.837,2.685h-2.464l-1.552-2.333h-0.021h-0.913v2.333h-2.135v-7.701H-331.337z M-327.794-29.119
		c0.726,0,1.144-0.352,1.144-0.913v-0.022c0-0.605-0.439-0.913-1.155-0.913h-1.396v1.849L-327.794-29.119L-327.794-29.119z"/>
	<path d="M-320.92-32.871h2.058l3.278,7.756h-2.288l-0.561-1.375h-2.971l-0.55,1.375h-2.245L-320.92-32.871z M-319.049-28.151
		l-0.858-2.189l-0.869,2.189H-319.049z"/>
	<path d="M-313.969-30.945h-2.311v-1.87h6.755v1.87h-2.311v5.831h-2.134v-5.831H-313.969z"/>
	<path d="M-308.612-32.815h6.194V-31h-4.082v1.166h3.696v1.683h-3.696v1.221h4.137v1.815h-6.249V-32.815z"/>
	<path d="M-301.396-28.492v-4.324h2.167v4.28c0,1.111,0.562,1.639,1.419,1.639c0.858,0,1.42-0.506,1.42-1.584v-4.334h2.167v4.269
		c0,2.486-1.419,3.576-3.608,3.576S-301.396-26.083-301.396-28.492z"/>
	<path d="M-292.981-32.815h3.642c1.178,0,1.991,0.308,2.509,0.836c0.451,0.44,0.682,1.034,0.682,1.793v0.022
		c0,1.177-0.627,1.958-1.584,2.365l1.837,2.685h-2.464l-1.552-2.333h-0.021h-0.913v2.333h-2.135v-7.701H-292.981z M-289.438-29.119
		c0.726,0,1.144-0.352,1.144-0.913v-0.022c0-0.605-0.439-0.913-1.155-0.913h-1.396v1.849L-289.438-29.119L-289.438-29.119z"/>
</g>
<g>
	<path opacity="0.5" fill="#B5121C" enable-background="new    " d="M-496.041,54.376c-1.792,1.44-4.032,2.368-6.56,2.368
		c-4.544,0-8.128-3.359-8.128-8.607c0-6.943,5.44-13.119,12.512-13.119c2.752,0,5.023,0.928,6.304,2.144
		c0.735,0.736,1.216,1.536,1.216,2.56c0,1.344-0.929,2.144-1.889,2.144c-1.023,0-1.695-0.672-1.695-1.6
		c0-0.544,0.288-1.024,0.832-1.408c-0.096-0.16-0.256-0.32-0.416-0.48c-0.832-0.64-2.4-1.216-4.448-1.216
		c-5.887,0-9.919,5.344-9.919,10.879c0,3.936,2.4,6.591,6.176,6.591c2.432,0,4.607-0.832,6.304-2.144l1.056-4.288h-5.888l0.48-2.016
		h8.223l-2.432,10.239h-2.08L-496.041,54.376z"/>
	<path opacity="0.5" fill="#B5121C" enable-background="new    " d="M-485.672,44.745h-2.56l0.479-1.952h4.544l-0.896,3.775
		c1.76-2.592,3.296-4,4.671-4c1.088,0,1.856,0.704,1.856,1.696c0,0.96-0.8,1.76-1.729,1.76c-0.863,0-1.472-0.576-1.632-1.28
		c-1.023,0.512-3.167,2.56-3.903,5.632l-1.536,6.047h-2.239L-485.672,44.745z"/>
	<path opacity="0.5" fill="#B5121C" enable-background="new    " d="M-477.096,51.145c0-4.64,3.296-8.607,7.231-8.607
		c2.24,0,3.84,1.44,4.256,3.392l0.864-3.232h2.144l-2.464,10.015c-0.128,0.544-0.224,1.056-0.224,1.344
		c0,0.64,0.352,0.992,0.896,0.992c0.608,0,1.184-0.544,1.824-2.144l1.12,0.384c-0.736,2.304-1.952,3.36-3.424,3.36
		c-1.536,0-2.528-1.024-2.528-2.496v-0.32c-1.184,1.6-2.848,2.848-4.863,2.848C-475.112,56.68-477.096,54.537-477.096,51.145z
		 M-466.217,48.233c0-2.208-1.184-3.712-3.423-3.712c-2.977,0-5.088,3.168-5.088,6.464c0,2.24,1.088,3.744,3.199,3.744
		C-468.393,54.729-466.217,51.272-466.217,48.233z"/>
	<path opacity="0.5" fill="#B5121C" enable-background="new    " d="M-459.208,50.793c0-4.32,3.521-8.256,7.808-8.256
		c3.2,0,4.928,1.952,4.928,3.648c0,1.056-0.704,1.92-1.695,1.92c-0.673,0-1.376-0.48-1.376-1.44c0-0.352,0.224-0.896,0.64-1.152
		c-0.48-0.64-1.312-1.024-2.56-1.024c-2.816,0-5.472,2.688-5.472,6.175c0,2.432,1.6,4.064,4.128,4.064
		c1.567,0,3.199-0.64,4.543-1.792l-0.063,2.176c-1.344,0.992-2.944,1.568-4.736,1.568C-456.52,56.68-459.208,54.473-459.208,50.793z
		"/>
	<path opacity="0.5" fill="#B5121C" enable-background="new    " d="M-442.153,50.281c-0.032,0.224-0.032,0.448-0.032,0.672
		c0,2.4,1.984,3.808,4.353,3.808c1.535,0,2.751-0.32,4.512-1.248l-0.48,2.176c-1.439,0.704-2.624,0.992-4.479,0.992
		c-3.2,0-6.111-2.048-6.111-5.759c0-4.608,3.487-8.384,7.551-8.384c3.168,0,5.216,1.92,5.216,4.992c0,0.832-0.16,1.76-0.512,2.752
		L-442.153,50.281L-442.153,50.281z M-441.8,48.553h7.839c0.16-0.416,0.225-0.896,0.225-1.344c0-1.472-0.992-2.72-3.2-2.72
		C-439.081,44.489-441,46.185-441.8,48.553z"/>
	<path opacity="0.5" fill="#B5121C" enable-background="new    " d="M-421.449,47.529c0-6.719,5.408-12.543,11.903-12.543
		c4.928,0,7.552,3.072,7.552,5.152c0,1.408-0.896,2.335-1.92,2.335c-1.024,0-1.696-0.704-1.696-1.6c0-0.608,0.384-1.184,0.928-1.504
		c-0.352-0.992-2.048-2.24-4.959-2.24c-5.44,0-9.344,5.184-9.344,10.175c0,4.607,2.72,7.327,6.783,7.327
		c2.496,0,4.672-1.056,6.592-2.944l1.408,1.472c-2.368,2.432-5.12,3.647-8.224,3.647C-417.353,56.808-421.449,53.449-421.449,47.529
		z"/>
	<path opacity="0.5" fill="#B5121C" enable-background="new    " d="M-397.994,44.745h-2.56l0.479-1.952h4.544l-0.896,3.775
		c1.76-2.592,3.295-4,4.671-4c1.088,0,1.856,0.704,1.856,1.696c0,0.96-0.8,1.76-1.729,1.76c-0.863,0-1.472-0.576-1.632-1.28
		c-1.023,0.512-3.167,2.56-3.903,5.632l-1.536,6.047h-2.239L-397.994,44.745z"/>
	<path opacity="0.5" fill="#B5121C" enable-background="new    " d="M-389.45,50.729c0-4.224,3.296-8.191,7.712-8.191
		c3.743,0,5.92,2.752,5.92,5.952c0,4.256-3.296,8.191-7.712,8.191C-387.274,56.68-389.45,53.96-389.45,50.729z M-378.09,48.489
		c0-2.496-1.632-4-3.743-4c-2.977,0-5.344,2.848-5.344,6.271c0,2.464,1.632,3.968,3.743,3.968
		C-380.426,54.729-378.09,51.881-378.09,48.489z"/>
	<path opacity="0.5" fill="#B5121C" enable-background="new    " d="M-373.226,54.889c-0.512-0.512-0.8-1.088-0.8-1.696
		c0-0.928,0.64-1.664,1.504-1.664s1.376,0.64,1.376,1.344c0,0.384-0.16,0.704-0.416,1.024c0.128,0.128,0.256,0.224,0.544,0.384
		c0.64,0.352,1.632,0.608,2.72,0.608c1.504,0,2.752-0.672,2.752-1.888c0-1.248-1.344-1.888-2.815-2.592
		c-1.984-0.928-3.776-1.824-3.776-3.872c0-2.176,1.824-3.904,4.928-3.904c1.792,0,3.328,0.576,4.192,1.472
		c0.512,0.512,0.768,1.056,0.768,1.664c0,0.992-0.672,1.632-1.441,1.632c-0.768,0-1.407-0.576-1.407-1.344
		c0-0.32,0.128-0.64,0.352-1.024c-0.096-0.064-0.16-0.128-0.479-0.288c-0.48-0.224-1.248-0.384-2.048-0.384
		c-1.601,0-2.656,0.736-2.656,1.792c0,1.088,1.312,1.696,2.912,2.464c1.92,0.896,3.712,1.92,3.712,4c0,2.624-2.24,4.032-5.088,4.032
		C-370.378,56.648-372.202,55.912-373.226,54.889z"/>
	<path opacity="0.5" fill="#B5121C" enable-background="new    " d="M-359.722,54.889c-0.512-0.512-0.8-1.088-0.8-1.696
		c0-0.928,0.64-1.664,1.504-1.664s1.376,0.64,1.376,1.344c0,0.384-0.16,0.704-0.416,1.024c0.128,0.128,0.256,0.224,0.544,0.384
		c0.64,0.352,1.632,0.608,2.72,0.608c1.504,0,2.752-0.672,2.752-1.888c0-1.248-1.344-1.888-2.815-2.592
		c-1.984-0.928-3.776-1.824-3.776-3.872c0-2.176,1.824-3.904,4.928-3.904c1.792,0,3.328,0.576,4.192,1.472
		c0.512,0.512,0.768,1.056,0.768,1.664c0,0.992-0.672,1.632-1.44,1.632s-1.407-0.576-1.407-1.344c0-0.32,0.128-0.64,0.352-1.024
		c-0.096-0.064-0.16-0.128-0.479-0.288c-0.48-0.224-1.248-0.384-2.048-0.384c-1.601,0-2.656,0.736-2.656,1.792
		c0,1.088,1.312,1.696,2.912,2.464c1.92,0.896,3.712,1.92,3.712,4c0,2.624-2.24,4.032-5.088,4.032
		C-356.874,56.648-358.697,55.912-359.722,54.889z"/>
	<path opacity="0.5" fill="#B5121C" enable-background="new    " d="M-343.466,44.745h-2.56l0.479-1.952h4.544l-0.8,3.231
		c1.216-1.984,2.88-3.456,4.672-3.456c2.048,0,3.424,1.312,3.52,3.424c1.28-2.112,3.008-3.424,4.735-3.424
		c2.048,0,3.552,1.504,3.552,3.712c0,0.672-0.128,1.408-0.352,2.144l-1.28,4.416c-0.096,0.416-0.191,0.928-0.191,1.184
		c0,0.64,0.384,1.024,0.928,1.024c0.607,0,1.184-0.544,1.823-2.144l1.12,0.384c-0.704,2.208-1.823,3.36-3.424,3.36
		c-1.663,0-2.688-1.056-2.688-2.528c0-0.416,0.096-1.056,0.256-1.536l1.248-4.384c0.16-0.64,0.256-1.152,0.256-1.664
		c0-1.248-0.8-2.048-1.983-2.048c-1.76,0-3.712,1.76-4.576,5.087l-1.76,6.848h-2.24l2.112-8.191c0.16-0.672,0.256-1.216,0.256-1.728
		c0-1.152-0.8-2.016-2.016-2.016c-1.728,0-3.808,1.76-4.607,5.056l-1.729,6.879h-2.239L-343.466,44.745z"/>
	<path opacity="0.5" fill="#B5121C" enable-background="new    " d="M-321.161,51.145c0-4.64,3.296-8.607,7.231-8.607
		c2.24,0,3.84,1.44,4.256,3.392l0.864-3.232h2.144l-2.464,10.015c-0.128,0.544-0.224,1.056-0.224,1.344
		c0,0.64,0.352,0.992,0.896,0.992c0.608,0,1.184-0.544,1.824-2.144l1.12,0.384c-0.736,2.304-1.952,3.36-3.424,3.36
		c-1.536,0-2.528-1.024-2.528-2.496v-0.32c-1.184,1.6-2.848,2.848-4.863,2.848C-319.177,56.68-321.161,54.537-321.161,51.145z
		 M-310.282,48.233c0-2.208-1.184-3.712-3.423-3.712c-2.977,0-5.088,3.168-5.088,6.464c0,2.24,1.088,3.744,3.199,3.744
		C-312.458,54.729-310.282,51.272-310.282,48.233z"/>
	<path opacity="0.5" fill="#B5121C" enable-background="new    " d="M-294.058,54.121c0-0.416,0.096-1.056,0.256-1.536l1.28-4.448
		c0.159-0.608,0.224-1.088,0.224-1.6c0-1.216-0.896-2.048-2.208-2.048c-1.823,0-3.871,1.728-4.672,4.992l-1.76,6.943h-2.239
		l2.943-11.679h-2.56l0.479-1.952h4.544l-0.768,3.231c1.184-1.984,2.88-3.456,4.8-3.456c2.176,0,3.743,1.504,3.743,3.712
		c0,0.672-0.128,1.408-0.352,2.144l-1.248,4.416c-0.128,0.416-0.225,0.928-0.225,1.184c0,0.64,0.385,1.024,0.929,1.024
		c0.64,0,1.184-0.544,1.823-2.144l1.12,0.384c-0.704,2.208-1.824,3.36-3.424,3.36C-293.034,56.648-294.058,55.592-294.058,54.121z"
		/>
</g>
<g>
	<path d="M-441.87,78.096h6.194v1.815h-4.082v1.166h3.696v1.683h-3.696v1.221h4.137v1.815h-6.249V78.096z"/>
	<path d="M-432.477,81.881l-2.53-3.785h2.454l1.363,2.167l1.376-2.167h2.398l-2.53,3.763l2.64,3.938h-2.453l-1.475-2.321
		l-1.484,2.321h-2.398L-432.477,81.881z"/>
	<path d="M-426.526,78.096h6.194v1.815h-4.082v1.166h3.696v1.683h-3.696v1.221h4.137v1.815h-6.249V78.096z"/>
	<path d="M-419.529,81.969v-0.022c0-2.244,1.728-4.004,4.06-4.004c1.573,0,2.585,0.66,3.268,1.606l-1.606,1.243
		c-0.44-0.55-0.946-0.902-1.684-0.902c-1.078,0-1.837,0.913-1.837,2.035v0.022c0,1.155,0.759,2.057,1.837,2.057
		c0.804,0,1.276-0.374,1.738-0.935l1.606,1.145c-0.726,1.001-1.705,1.738-3.41,1.738C-417.757,85.951-419.529,84.268-419.529,81.969
		z"/>
	<path d="M-411.356,82.42v-4.324h2.167v4.28c0,1.111,0.562,1.639,1.419,1.639c0.858,0,1.42-0.506,1.42-1.584v-4.334h2.167v4.269
		c0,2.486-1.419,3.576-3.608,3.576S-411.356,84.829-411.356,82.42z"/>
	<path d="M-401.059,79.966h-2.311v-1.87h6.755v1.87h-2.311v5.831h-2.134v-5.831H-401.059z"/>
	<path d="M-395.658,78.096h2.146v7.701h-2.146V78.096z"/>
	<path d="M-392.743,78.096h2.388l1.749,4.874l1.749-4.874h2.344l-3.124,7.756h-1.98L-392.743,78.096z"/>
	<path d="M-383.789,78.096h6.194v1.815h-4.082v1.166h3.696v1.683h-3.696v1.221h4.137v1.815h-6.249V78.096z"/>
	<path d="M-374.099,81.969v-0.022c0-2.244,1.728-4.004,4.06-4.004c1.573,0,2.585,0.66,3.268,1.606l-1.606,1.243
		c-0.44-0.55-0.946-0.902-1.684-0.902c-1.078,0-1.837,0.913-1.837,2.035v0.022c0,1.155,0.759,2.057,1.837,2.057
		c0.804,0,1.276-0.374,1.738-0.935l1.606,1.145c-0.726,1.001-1.705,1.738-3.41,1.738C-372.327,85.951-374.099,84.268-374.099,81.969
		z"/>
	<path d="M-365.827,78.096h2.135v2.882h2.739v-2.882h2.134v7.701h-2.134v-2.926h-2.739v2.926h-2.135V78.096z"/>
	<path d="M-357.479,78.096h6.194v1.815h-4.082v1.166h3.696v1.683h-3.696v1.221h4.137v1.815h-6.249V78.096z"/>
	<path d="M-350.164,78.096h6.161v1.87h-4.026v1.31h3.642v1.771h-3.642v2.75h-2.135V78.096z"/>
	<path d="M-340.056,77.018h1.694l-4.873,10.188h-1.694L-340.056,77.018z"/>
	<path d="M-337.966,78.096h3.301c1.947,0,3.201,1.001,3.201,2.707v0.022c0,1.815-1.397,2.772-3.312,2.772h-1.056v2.2h-2.135v-7.701
		H-337.966z M-334.82,81.925c0.759,0,1.222-0.396,1.222-1.001v-0.022c0-0.66-0.463-1.012-1.232-1.012h-1.001v2.035H-334.82z"/>
	<path d="M-330.585,78.096h3.642c1.178,0,1.991,0.308,2.509,0.836c0.451,0.44,0.682,1.034,0.682,1.793v0.022
		c0,1.177-0.627,1.958-1.584,2.365l1.837,2.685h-2.464l-1.552-2.333h-0.021h-0.913v2.333h-2.135v-7.701H-330.585z M-327.042,81.793
		c0.726,0,1.144-0.352,1.144-0.913v-0.022c0-0.605-0.439-0.913-1.155-0.913h-1.396v1.849L-327.042,81.793L-327.042,81.793z"/>
	<path d="M-322.654,78.096h2.146v7.701h-2.146V78.096z"/>
	<path d="M-319.123,78.096h1.991l3.169,4.071v-4.071h2.112v7.701h-1.87l-3.29-4.225v4.225h-2.112V78.096z"/>
	<path d="M-308.628,79.966h-2.311v-1.87h6.755v1.87h-2.311v5.831h-2.134v-5.831H-308.628z"/>
	<path d="M-303.272,78.096h2.256l1.837,2.981l1.837-2.981h2.256v7.701h-2.123v-4.423l-1.97,3.015h-0.044l-1.958-2.992v4.4h-2.091
		L-303.272,78.096L-303.272,78.096z"/>
	<path d="M-291.083,78.041h2.058l3.278,7.756h-2.288l-0.561-1.375h-2.971l-0.55,1.375h-2.245L-291.083,78.041z M-289.212,82.761
		l-0.858-2.189l-0.869,2.189H-289.212z"/>
	<path d="M-285.023,78.096h2.135v3.125l2.651-3.125h2.53l-2.916,3.312l3.015,4.39h-2.563l-1.936-2.86l-0.781,0.869v1.991h-2.135
		L-285.023,78.096L-285.023,78.096z"/>
	<path d="M-277.015,78.096h6.194v1.815h-4.082v1.166h3.696v1.683h-3.696v1.221h4.137v1.815h-6.249V78.096z"/>
	<path d="M-269.7,78.096h3.642c1.178,0,1.991,0.308,2.509,0.836c0.451,0.44,0.682,1.034,0.682,1.793v0.022
		c0,1.177-0.627,1.958-1.584,2.365l1.837,2.685h-2.464l-1.552-2.333h-0.021h-0.913v2.333h-2.135v-7.701H-269.7z M-266.157,81.793
		c0.726,0,1.144-0.352,1.144-0.913v-0.022c0-0.605-0.439-0.913-1.155-0.913h-1.396v1.849L-266.157,81.793L-266.157,81.793z"/>
</g>
<g>
	<path opacity="0.5" fill="#B5121C" enable-background="new    " d="M2.179,22.644h2.527L8.61,5.813H5.762l0.48-2.112h7.423
		c1.761,0,3.168,0.288,4.288,0.896c1.504,0.832,2.432,2.304,2.432,4.064c0,2.848-2.304,4.928-5.312,5.375
		c2.144,0.576,3.872,2.272,3.872,4.512c0,1.696-0.672,3.104-1.856,4.16c-0.96,0.864-2.271,1.472-3.808,1.792
		c-0.863,0.16-1.823,0.256-2.815,0.256h-8.8L2.179,22.644z M10.786,22.676c0.801,0,1.568-0.096,2.208-0.256
		c1.057-0.256,1.856-0.672,2.464-1.312c0.704-0.672,1.024-1.568,1.024-2.624c0-1.984-1.792-3.584-5.28-3.584H8.867l-1.792,7.775
		h3.711V22.676z M11.778,12.949c3.712,0,6.176-1.472,6.176-4.096c0-1.056-0.512-1.984-1.632-2.528
		c-0.736-0.352-1.728-0.544-3.008-0.544h-2.336l-1.664,7.167h2.464V12.949z"/>
	<path opacity="0.5" fill="#B5121C" enable-background="new    " d="M25.122,13.076h-2.56l0.479-1.952h4.544L26.69,14.9
		c1.76-2.592,3.295-4,4.671-4c1.088,0,1.856,0.704,1.856,1.696c0,0.96-0.8,1.76-1.729,1.76c-0.863,0-1.472-0.576-1.632-1.28
		c-1.023,0.512-3.167,2.56-3.903,5.632l-1.536,6.047h-2.239L25.122,13.076z"/>
	<path opacity="0.5" fill="#B5121C" enable-background="new    " d="M33.698,19.476c0-4.64,3.296-8.607,7.231-8.607
		c2.24,0,3.84,1.44,4.256,3.392l0.864-3.232h2.144l-2.464,10.015c-0.128,0.544-0.224,1.056-0.224,1.344
		c0,0.64,0.352,0.992,0.896,0.992c0.608,0,1.184-0.544,1.824-2.144l1.12,0.384c-0.736,2.304-1.952,3.36-3.424,3.36
		c-1.536,0-2.528-1.024-2.528-2.496v-0.32c-1.184,1.6-2.848,2.848-4.863,2.848C35.682,25.012,33.698,22.868,33.698,19.476z
		 M44.577,16.564c0-2.208-1.184-3.712-3.423-3.712c-2.977,0-5.088,3.168-5.088,6.464c0,2.24,1.088,3.744,3.199,3.744
		C42.401,23.06,44.577,19.604,44.577,16.564z"/>
	<path opacity="0.5" fill="#B5121C" enable-background="new    " d="M60.801,22.452c0-0.416,0.096-1.056,0.256-1.536l1.28-4.448
		c0.159-0.608,0.224-1.088,0.224-1.6c0-1.216-0.896-2.048-2.208-2.048c-1.823,0-3.871,1.728-4.672,4.992l-1.76,6.943h-2.239
		l2.943-11.679h-2.56l0.479-1.952h4.544l-0.768,3.231c1.184-1.984,2.88-3.456,4.8-3.456c2.176,0,3.743,1.504,3.743,3.712
		c0,0.672-0.128,1.408-0.352,2.144l-1.248,4.416c-0.128,0.416-0.225,0.928-0.225,1.184c0,0.64,0.385,1.024,0.929,1.024
		c0.64,0,1.184-0.544,1.823-2.144l1.12,0.384c-0.704,2.208-1.824,3.36-3.424,3.36C61.825,24.98,60.801,23.924,60.801,22.452z"/>
	<path opacity="0.5" fill="#B5121C" enable-background="new    " d="M76.193,10.868c2.176,0,3.871,1.408,4.319,3.296l2.56-10.911
		H80.48l0.48-1.92h4.8l-4.608,19.71c-0.159,0.576-0.256,1.056-0.256,1.344c0,0.64,0.32,0.992,0.896,0.992
		c0.64,0,1.216-0.544,1.855-2.144l1.12,0.384c-0.736,2.304-1.984,3.36-3.456,3.36c-1.536,0-2.496-1.024-2.496-2.56
		c0-0.096-0.031-0.192,0-0.288c-1.151,1.6-2.815,2.88-4.863,2.88c-2.815,0-4.896-2.144-4.896-5.536
		C69.057,14.708,72.385,10.868,76.193,10.868z M79.968,16.597c0-2.24-1.248-3.744-3.52-3.744c-2.944,0-5.023,3.136-5.023,6.432
		c0,2.24,1.184,3.776,3.295,3.776C77.793,23.06,79.968,19.732,79.968,16.597z"/>
	<path opacity="0.5" fill="#B5121C" enable-background="new    " d="M86.658,19.06c0-4.224,3.296-8.191,7.712-8.191
		c3.743,0,5.92,2.752,5.92,5.952c0,4.256-3.296,8.191-7.712,8.191C88.834,25.012,86.658,22.292,86.658,19.06z M98.017,16.82
		c0-2.496-1.632-4-3.743-4c-2.977,0-5.344,2.848-5.344,6.271c0,2.464,1.632,3.968,3.743,3.968
		C95.681,23.06,98.017,20.212,98.017,16.82z"/>
	<path opacity="0.5" fill="#B5121C" enable-background="new    " d="M112.13,22.452c0-0.416,0.096-1.056,0.256-1.536l1.28-4.448
		c0.159-0.608,0.224-1.088,0.224-1.6c0-1.216-0.896-2.048-2.208-2.048c-1.823,0-3.871,1.728-4.672,4.992l-1.76,6.943h-2.239
		l2.943-11.679h-2.56l0.479-1.952h4.544l-0.768,3.231c1.184-1.984,2.88-3.456,4.8-3.456c2.176,0,3.743,1.504,3.743,3.712
		c0,0.672-0.128,1.408-0.352,2.144l-1.248,4.416c-0.128,0.416-0.225,0.928-0.225,1.184c0,0.64,0.385,1.024,0.929,1.024
		c0.64,0,1.184-0.544,1.823-2.144l1.12,0.384c-0.704,2.208-1.824,3.36-3.424,3.36C113.153,24.98,112.13,23.924,112.13,22.452z"/>
	<path opacity="0.5" fill="#B5121C" enable-background="new    " d="M128.002,15.86c0-6.719,5.408-12.543,11.903-12.543
		c4.928,0,7.552,3.072,7.552,5.152c0,1.408-0.896,2.335-1.92,2.335s-1.696-0.704-1.696-1.6c0-0.608,0.384-1.184,0.928-1.504
		c-0.352-0.992-2.048-2.24-4.959-2.24c-5.44,0-9.344,5.184-9.344,10.175c0,4.607,2.72,7.327,6.783,7.327
		c2.496,0,4.672-1.056,6.592-2.944l1.408,1.472c-2.368,2.432-5.12,3.647-8.224,3.647C132.097,25.139,128.002,21.78,128.002,15.86z"
		/>
	<path opacity="0.5" fill="#B5121C" enable-background="new    " d="M148.161,19.476c0-4.64,3.296-8.607,7.231-8.607
		c2.241,0,3.84,1.44,4.256,3.392l0.864-3.232h2.144l-2.464,10.015c-0.128,0.544-0.224,1.056-0.224,1.344
		c0,0.64,0.352,0.992,0.896,0.992c0.608,0,1.184-0.544,1.824-2.144l1.12,0.384c-0.736,2.304-1.952,3.36-3.424,3.36
		c-1.536,0-2.528-1.024-2.528-2.496v-0.32c-1.184,1.6-2.848,2.848-4.864,2.848C150.145,25.012,148.161,22.868,148.161,19.476z
		 M159.04,16.564c0-2.208-1.184-3.712-3.423-3.712c-2.977,0-5.088,3.168-5.088,6.464c0,2.24,1.088,3.744,3.199,3.744
		C156.864,23.06,159.04,19.604,159.04,16.564z"/>
	<path opacity="0.5" fill="#B5121C" enable-background="new    " d="M169.089,13.076h-2.56l0.479-1.952h4.544l-0.896,3.775
		c1.76-2.592,3.295-4,4.671-4c1.088,0,1.856,0.704,1.856,1.696c0,0.96-0.8,1.76-1.729,1.76c-0.863,0-1.472-0.576-1.632-1.28
		c-1.023,0.512-3.167,2.56-3.903,5.632l-1.536,6.047h-2.239L169.089,13.076z"/>
	<path opacity="0.5" fill="#B5121C" enable-background="new    " d="M183.521,13.076l-1.92,7.808
		c-0.128,0.448-0.192,0.832-0.192,1.184c0,0.608,0.416,1.088,1.088,1.088c0.736,0,1.504-0.384,2.849-1.28l0.832,1.184
		c-1.664,1.344-3.008,1.952-4.288,1.952c-1.6,0-2.815-0.992-2.815-2.592c0-0.448,0.096-0.96,0.256-1.536l1.92-7.808h-2.433
		l0.48-1.952h2.432l0.8-3.2l2.464-0.8l-0.992,4h4.16l-0.48,1.952C187.682,13.076,183.521,13.076,183.521,13.076z"/>
	<path opacity="0.5" fill="#B5121C" enable-background="new    " d="M191.296,18.612c-0.032,0.224-0.032,0.448-0.032,0.672
		c0,2.4,1.984,3.808,4.353,3.808c1.535,0,2.751-0.32,4.512-1.248l-0.48,2.176c-1.439,0.704-2.624,0.992-4.479,0.992
		c-3.2,0-6.111-2.048-6.111-5.759c0-4.608,3.487-8.384,7.551-8.384c3.168,0,5.216,1.92,5.216,4.992c0,0.832-0.16,1.76-0.512,2.752
		h-10.018V18.612z M191.649,16.884h7.839c0.16-0.416,0.225-0.896,0.225-1.344c0-1.472-0.992-2.72-3.2-2.72
		C194.368,12.821,192.448,14.516,191.649,16.884z"/>
	<path opacity="0.5" fill="#B5121C" enable-background="new    " d="M207.361,13.076h-2.56l0.479-1.952h4.544l-0.896,3.775
		c1.76-2.592,3.295-4,4.671-4c1.088,0,1.856,0.704,1.856,1.696c0,0.96-0.8,1.76-1.729,1.76c-0.863,0-1.472-0.576-1.632-1.28
		c-1.023,0.512-3.167,2.56-3.903,5.632l-1.536,6.047h-2.239L207.361,13.076z"/>
</g>
<rect x="607.298" y="-259.416" fill="none" width="302.143" height="42.547"/>
<text transform="matrix(1 0 0 1 607.2979 -251.3835)" font-family="'ArialMT'" font-size="11">SOUS CHEF</text>
<rect x="603.294" y="72.635" fill="none" width="239.143" height="25.678"/>
<text transform="matrix(1 0 0 1 603.2945 96.0587)" opacity="0.5" fill="#B5121C" enable-background="new    " font-family="'ArialMT'" font-size="32">Mark Hinchliffe</text>
<rect x="607.298" y="109.378" fill="none" width="302.143" height="42.547"/>
<text transform="matrix(1 0 0 1 607.2979 117.4093)" font-family="'ArialMT'" font-size="11">Writer/Illustrator</text>
<rect x="603.294" y="258.49" fill="none" width="239.143" height="25.678"/>
<text transform="matrix(1 0 0 1 603.2945 281.914)" opacity="0.5" fill="#B5121C" enable-background="new    " font-family="'ArialMT'" font-size="32">Andrew Holtz</text>
<rect x="607.298" y="294.232" fill="none" width="302.143" height="42.547"/>
<text transform="matrix(1 0 0 1 607.2979 302.2636)" font-family="'ArialMT'" font-size="11">Photographer</text>
<rect x="603.294" y="447.466" fill="none" width="239.143" height="25.678"/>
<text transform="matrix(1 0 0 1 603.2945 470.8903)" opacity="0.5" fill="#B5121C" enable-background="new    " font-family="'ArialMT'" font-size="32">Paul Holzheimer</text>
<rect x="607.298" y="481.207" fill="none" width="302.143" height="42.547"/>
<text transform="matrix(1 0 0 1 607.2979 489.2385)" font-family="'ArialMT'" font-size="11">Executive Chef</text>
<rect x="607.298" y="669.28" fill="none" width="302.143" height="42.547"/>
<text transform="matrix(1 0 0 1 607.2979 677.3117)" font-family="'ArialMT'" font-size="11">Oven Cook/Artist</text>
<rect x="603.294" y="635.783" fill="none" width="239.143" height="25.678"/>
<text transform="matrix(1 0 0 1 603.2945 659.2067)" opacity="0.5" fill="#B5121C" enable-background="new    " font-family="'ArialMT'" font-size="32">Michael Johnson</text>
<rect x="607.298" y="856.59" fill="none" width="302.143" height="42.547"/>
<text transform="matrix(1 0 0 1 607.2979 864.6221)" font-family="'ArialMT'" font-size="11">Head Pizzaiola/Creative Director</text>
<rect x="603.294" y="823.093" fill="none" width="239.143" height="25.678"/>
<text transform="matrix(1 0 0 1 603.2945 846.5172)" opacity="0.5" fill="#B5121C" enable-background="new    " font-family="'ArialMT'" font-size="32">Fredrica Vilardi</text>
<rect x="603.294" y="1010.404" fill="none" width="239.143" height="25.678"/>
<text transform="matrix(1 0 0 1 603.2945 1033.8276)" opacity="0.5" fill="#B5121C" enable-background="new    " font-family="'ArialMT'" font-size="32">Nick Villapiano</text>
<rect x="607.298" y="1044.902" fill="none" width="302.143" height="42.547"/>
<text transform="matrix(1 0 0 1 607.2979 1052.9336)" font-family="'ArialMT'" font-size="11">Barista/Web Developer</text>
<rect x="603.294" y="1195.777" fill="none" width="239.143" height="25.678"/>
<text transform="matrix(1 0 0 1 603.2945 1219.2006)" opacity="0.5" fill="#B5121C" enable-background="new    " font-family="'ArialMT'" font-size="32">Adam Worth</text>
<rect x="607.298" y="1230.275" fill="none" width="302.143" height="42.547"/>
<text transform="matrix(1 0 0 1 607.2979 1238.3065)" font-family="'ArialMT'" font-size="11">DJ/TV Producer</text>
<rect x="605.183" y="1383.475" fill="none" width="239.143" height="25.678"/>
<text transform="matrix(1 0 0 1 605.1832 1406.8995)" opacity="0.5" fill="#B5121C" enable-background="new    " font-family="'ArialMT'" font-size="32">Brian Wrensen</text>
<rect x="608.209" y="-111.814" fill="none" width="239.143" height="25.678"/>
<text transform="matrix(1 0 0 1 608.2095 -88.3892)" opacity="0.5" fill="#B5121C" enable-background="new    " font-family="'ArialMT'" font-size="32">Andrei Ferbei</text>
<rect x="609.187" y="1417.973" fill="none" width="302.143" height="42.547"/>
<text transform="matrix(1 0 0 1 609.1866 1426.0048)" font-family="'ArialMT'" font-size="11">Designer</text>
<rect x="608.209" y="-77.315" fill="none" width="302.143" height="42.547"/>
<text transform="matrix(1 0 0 1 608.209 -69.284)" font-family="'ArialMT'" font-size="11">Pizzaoli</text>
<g>
	<path d="M-346.13-44.443l1.188-1.419c0.759,0.605,1.606,0.924,2.497,0.924c0.572,0,0.88-0.198,0.88-0.528v-0.022
		c0-0.319-0.253-0.495-1.298-0.737c-1.64-0.374-2.904-0.836-2.904-2.42v-0.022c0-1.43,1.133-2.464,2.981-2.464
		c1.309,0,2.332,0.352,3.168,1.023l-1.066,1.507c-0.704-0.495-1.475-0.759-2.156-0.759c-0.518,0-0.771,0.22-0.771,0.495v0.022
		c0,0.352,0.264,0.506,1.331,0.748c1.771,0.385,2.871,0.958,2.871,2.398v0.022c0,1.573-1.243,2.508-3.113,2.508
		C-343.886-43.167-345.184-43.596-346.13-44.443z"/>
	<path d="M-338.66-47.127v-0.022c0-2.211,1.782-4.004,4.158-4.004c2.377,0,4.137,1.771,4.137,3.982v0.022
		c0,2.211-1.782,4.004-4.158,4.004C-336.9-43.145-338.66-44.916-338.66-47.127z M-332.543-47.127v-0.022
		c0-1.111-0.804-2.079-1.98-2.079c-1.166,0-1.947,0.946-1.947,2.057v0.022c0,1.111,0.803,2.079,1.969,2.079
		C-333.324-45.07-332.543-46.016-332.543-47.127z"/>
	<path d="M-329.376-46.676V-51h2.167v4.28c0,1.111,0.562,1.639,1.419,1.639c0.858,0,1.42-0.506,1.42-1.584V-51h2.167v4.269
		c0,2.486-1.419,3.576-3.608,3.576S-329.376-44.267-329.376-46.676z"/>
	<path d="M-321.544-44.443l1.188-1.419c0.759,0.605,1.606,0.924,2.497,0.924c0.572,0,0.88-0.198,0.88-0.528v-0.022
		c0-0.319-0.253-0.495-1.298-0.737c-1.64-0.374-2.904-0.836-2.904-2.42v-0.022c0-1.43,1.133-2.464,2.981-2.464
		c1.309,0,2.332,0.352,3.168,1.023l-1.066,1.507c-0.704-0.495-1.475-0.759-2.156-0.759c-0.518,0-0.771,0.22-0.771,0.495v0.022
		c0,0.352,0.264,0.506,1.331,0.748c1.771,0.385,2.871,0.958,2.871,2.398v0.022c0,1.573-1.243,2.508-3.113,2.508
		C-319.3-43.167-320.598-43.596-321.544-44.443z"/>
	<path d="M-311.435-47.127v-0.022c0-2.244,1.728-4.004,4.06-4.004c1.573,0,2.585,0.66,3.268,1.606l-1.606,1.243
		c-0.44-0.55-0.946-0.902-1.684-0.902c-1.078,0-1.837,0.913-1.837,2.035v0.022c0,1.155,0.759,2.057,1.837,2.057
		c0.804,0,1.276-0.374,1.738-0.935l1.606,1.145c-0.726,1.001-1.705,1.738-3.41,1.738C-309.663-43.145-311.435-44.828-311.435-47.127
		z"/>
	<path d="M-303.163-51h2.135v2.882h2.739V-51h2.134v7.701h-2.134v-2.926h-2.739v2.926h-2.135V-51z"/>
	<path d="M-294.814-51h6.194v1.815h-4.082v1.166h3.696v1.683h-3.696v1.221h4.137v1.815h-6.249V-51z"/>
	<path d="M-287.5-51h6.161v1.87h-4.026v1.31h3.642v1.771h-3.642v2.75h-2.135V-51z"/>
</g>
</svg>
