<?xml version="1.0" encoding="utf-8"?>
<!-- Generator: Adobe Illustrator 17.1.0, SVG Export Plug-In . SVG Version: 6.00 Build 0)  -->
<!DOCTYPE svg PUBLIC "-//W3C//DTD SVG 1.1//EN" "http://www.w3.org/Graphics/SVG/1.1/DTD/svg11.dtd">
<svg version="1.1" id="Layer_1" xmlns="http://www.w3.org/2000/svg" xmlns:xlink="http://www.w3.org/1999/xlink" x="0px" y="0px"
	 viewBox="0 0 208.333 182" enable-background="new 0 0 208.333 182" xml:space="preserve">
<g>
	<path d="M7.236,104.693c0-5.062,3.974-9.295,8.94-9.295c3.193,0,5.582,1.893,5.582,3.997c0,1.088-0.78,2.034-1.821,2.034
		c-0.898,0-1.632-0.733-1.632-1.633c0-0.449,0.189-0.851,0.449-1.111c-0.308-0.426-1.324-0.828-2.649-0.828
		c-3.192,0-6.102,2.887-6.102,6.67c0,2.673,1.561,4.541,4.139,4.541c1.514,0,2.933-0.639,4.258-2.01l1.655,1.607
		c-1.75,2.011-3.784,2.862-6.126,2.862C10.24,111.528,7.236,109.045,7.236,104.693z"/>
	<path d="M21.901,108.855h1.655l2.507-10.785h-1.893l0.545-2.389h6.386l-0.544,2.389h-1.821l-0.97,4.115h7.071l0.97-4.115H33.75
		l0.544-2.389h6.386l-0.544,2.389H38.48l-2.507,10.785h1.892l-0.544,2.389h-6.386l0.544-2.389H33.3l1.017-4.328h-7.071l-1.017,4.328
		h2.058l-0.544,2.389h-6.387L21.901,108.855z"/>
	<path d="M39.592,108.855h1.655l2.507-10.785h-1.893l0.545-2.389h11.659l-1.088,4.471h-2.53l0.496-2.105h-4.517l-0.97,4.163h4.636
		l-0.521,2.271h-4.636l-1.017,4.398h4.517l0.544-2.104h2.531l-1.041,4.47H39.048L39.592,108.855z"/>
	<path d="M53.096,108.855h1.656l2.507-10.785h-1.892l0.544-2.389h11.423l-1.088,4.471h-2.53l0.496-2.105h-4.28l-1.041,4.447h4.47
		l-0.544,2.294h-4.446l-0.945,4.044h2.199l-0.567,2.412h-6.505L53.096,108.855z"/>
	<path d="M71.073,108.855h1.655l2.507-10.785h-1.893l0.545-2.389h5.085c2.861,0,4.848,0.875,6.148,2.176
		c1.183,1.184,1.751,2.839,1.751,4.613c0,2.482-0.828,4.352-2.483,6.007c-1.939,1.939-4.659,2.767-7.806,2.767h-6.055
		L71.073,108.855z M76.962,108.855c2.507,0,4.068-0.639,5.416-1.986c1.206-1.206,1.727-2.768,1.727-4.281
		c0-1.135-0.378-2.294-1.183-3.098c-0.875-0.875-2.247-1.42-4.233-1.42h-0.78l-2.507,10.785H76.962z"/>
	<path d="M87.415,108.855h1.656l2.507-10.785h-1.892l0.544-2.389h11.659l-1.088,4.471h-2.53l0.497-2.105h-4.518l-0.97,4.163h4.636
		l-0.521,2.271H92.76l-1.017,4.398h4.517l0.544-2.104h2.531l-1.041,4.47H86.871L87.415,108.855z"/>
	<path d="M7.236,125.855c0-5.062,3.974-9.295,8.94-9.295c3.193,0,5.582,1.893,5.582,3.997c0,1.088-0.78,2.034-1.821,2.034
		c-0.898,0-1.632-0.733-1.632-1.633c0-0.449,0.189-0.851,0.449-1.111c-0.308-0.426-1.324-0.828-2.649-0.828
		c-3.192,0-6.102,2.887-6.102,6.67c0,2.673,1.561,4.541,4.139,4.541c1.514,0,2.933-0.639,4.258-2.01l1.655,1.607
		c-1.75,2.011-3.784,2.862-6.126,2.862C10.24,132.69,7.236,130.207,7.236,125.855z"/>
	<path d="M23.486,127.984c0-0.662,0.142-1.514,0.331-2.295l1.489-6.457h-1.82l0.544-2.389h6.268l-0.545,2.389h-1.773l-1.514,6.576
		c-0.165,0.686-0.284,1.395-0.284,1.915c0,1.703,0.994,2.53,2.721,2.53c1.939,0,3.146-1.229,3.642-3.429l1.75-7.593h-2.058
		l0.544-2.389h6.268l-0.544,2.389h-1.607l-1.798,7.806c-0.875,3.666-2.696,5.652-6.599,5.652
		C25.401,132.69,23.486,130.869,23.486,127.984z"/>
	<path d="M37.936,130.018h1.798l2.507-10.785h-2.034l0.544-2.389h6.504l-0.544,2.389h-1.797l-2.508,10.785h2.034l-0.544,2.389
		h-6.504L37.936,130.018z"/>
	<path d="M46.712,128.788c0-1.253,0.78-2.081,1.798-2.081c0.898,0,1.608,0.732,1.608,1.632c0,0.401-0.143,0.852-0.521,1.183
		c0.521,0.52,1.608,0.852,2.933,0.852c1.632,0,2.767-0.639,2.767-1.963c0-1.064-0.851-1.703-2.648-2.673
		c-1.821-0.97-3.737-2.342-3.737-4.825c0-2.246,2.034-4.352,5.605-4.352c3.217,0,5.203,1.893,5.203,3.5
		c0,1.159-0.662,2.105-1.773,2.105c-0.898,0-1.608-0.71-1.608-1.608c0-0.378,0.118-0.78,0.426-1.112
		c-0.213-0.283-1.064-0.566-2.199-0.566c-1.821,0-2.791,0.875-2.791,1.797c0,1.23,1.159,2.034,2.743,2.885
		c1.893,1.018,3.643,2.39,3.643,4.613c0,2.482-2.034,4.517-5.771,4.517C49.266,132.69,46.712,130.893,46.712,128.788z"/>
	<path d="M59.932,130.018h1.798l2.507-10.785h-2.034l0.544-2.389h6.504l-0.544,2.389H66.91l-2.508,10.785h2.034l-0.544,2.389h-6.504
		L59.932,130.018z"/>
	<path d="M74.596,121.456l-1.986,8.562h2.058l-0.544,2.389h-6.339l0.544-2.389h1.656l2.507-10.785H70.6l0.544-2.389h4.091
		l5.133,9.816l1.727-7.428h-2.058l0.544-2.389h6.338l-0.544,2.389h-1.655l-3.074,13.222h-1.301L74.596,121.456z"/>
	<path d="M85.665,130.018h1.656l2.507-10.785h-1.892l0.544-2.389h11.659l-1.088,4.471h-2.53l0.497-2.105h-4.518l-0.97,4.163h4.636
		l-0.521,2.271H91.01l-1.017,4.398h4.517l0.544-2.104h2.531l-1.041,4.47H85.121L85.665,130.018z"/>
</g>
<g>
	<path d="M5.28,162.673h1.126l1.58-6.812H6.763l0.261-1.112h3.599l-0.247,1.112H9.235l-1.579,6.812h1.223l-0.261,1.112H5.019
		L5.28,162.673z"/>
	<path d="M13.727,156.863l-1.346,5.81h1.236l-0.261,1.112H9.882l0.261-1.112h1.03l1.579-6.812h-1.167l0.247-1.112h2.211l3.255,6.399
		l1.222-5.287h-1.222l0.261-1.112h3.447l-0.248,1.112h-1.016l-1.854,7.951h-0.604L13.727,156.863z"/>
	<path d="M22.247,162.673h1.112l1.593-6.839h-2.005l-0.316,1.428h-1.194l0.577-2.513h7.607l-0.576,2.513h-1.182l0.316-1.428h-1.991
		l-1.58,6.839h1.25l-0.247,1.112h-3.626L22.247,162.673z"/>
	<path d="M28.896,162.673h1.03l1.579-6.812h-1.167l0.247-1.112h6.66l-0.577,2.376h-1.181l0.302-1.277h-3.034l-0.659,2.801h2.814
		l-0.247,1.072h-2.801l-0.701,2.966h3.049l0.316-1.277h1.181l-0.549,2.376h-6.523L28.896,162.673z"/>
	<path d="M36.838,162.673h1.03l1.579-6.812H38.28l0.247-1.112h2.856c1.222,0,2.114,0.274,2.664,0.837
		c0.426,0.412,0.646,0.976,0.646,1.635c0,1.373-0.934,2.459-2.499,2.856l1.208,2.596h1.071l-0.261,1.112h-1.689l-1.538-3.557h-0.344
		c-0.302,0-0.645-0.014-0.947-0.027l-0.591,2.472h1.195l-0.261,1.112h-3.461L36.838,162.673z M43.429,157.303
		c0-0.384-0.123-0.714-0.371-0.961c-0.329-0.33-0.906-0.48-1.716-0.48h-0.659l-0.756,3.269c0.316,0.027,0.632,0.041,1.085,0.041
		C42.523,159.171,43.429,158.389,43.429,157.303z"/>
	<path d="M46.728,155.861h-0.934l0.247-1.112h3.214l-0.247,1.112h-0.935l0.879,5.905l3.543-5.905h-1.029l0.247-1.112h3.282
		l-0.247,1.112h-0.811l-5.108,8.047h-0.715L46.728,155.861z"/>
	<path d="M54.175,162.673h1.126l1.58-6.812h-1.223l0.261-1.112h3.599l-0.248,1.112h-1.14l-1.579,6.812h1.223l-0.262,1.112h-3.598
		L54.175,162.673z"/>
	<path d="M59.039,162.673h1.03l1.579-6.812h-1.167l0.247-1.112h6.66l-0.577,2.376h-1.181l0.302-1.277h-3.034l-0.659,2.801h2.814
		l-0.247,1.072h-2.801l-0.701,2.966h3.049l0.316-1.277h1.181l-0.549,2.376h-6.523L59.039,162.673z"/>
	<path d="M69.012,155.861h-0.975l0.261-1.112h3.323l-0.247,1.112h-1.14l0.274,5.686l3.351-5.809h0.591l1.002,5.836l2.774-5.713
		h-1.099l0.247-1.112h3.337l-0.261,1.112h-0.865l-4.106,8.02h-0.673l-1.085-5.754l-3.474,5.754l-0.659,0.014L69.012,155.861z"/>
	<path d="M82.903,162.673h1.03l1.579-6.812h-1.167l0.247-1.112h3.09c0.824,0,1.47,0.11,1.964,0.37
		c0.687,0.357,1.112,1.017,1.112,1.8c0,1.222-0.989,2.087-2.211,2.266c0.92,0.261,1.62,1.003,1.62,1.909
		c0,0.755-0.288,1.373-0.81,1.826c-0.426,0.371-1.03,0.632-1.744,0.756c-0.385,0.082-0.824,0.109-1.277,0.109h-3.694L82.903,162.673
		z M86.515,162.7c0.343,0,0.659-0.041,0.92-0.097c0.453-0.096,0.782-0.26,1.029-0.508c0.275-0.274,0.412-0.631,0.412-1.07
		c0-0.811-0.755-1.36-2.032-1.36h-0.961l-0.715,3.035H86.515z M86.982,158.662c1.538,0,2.485-0.576,2.485-1.605
		c0-0.426-0.22-0.824-0.673-1.017c-0.302-0.124-0.714-0.206-1.277-0.206h-0.755l-0.659,2.828H86.982z"/>
	<path d="M92.272,162.673h1.153l0.591-2.472l-1.565-4.34h-0.906l0.261-1.112h3.186l-0.247,1.112h-1.002l1.126,3.434l2.773-3.434
		h-0.988l0.261-1.112h3.31l-0.247,1.112h-0.865l-3.914,4.573l-0.521,2.238h1.236l-0.248,1.112h-3.652L92.272,162.673z"/>
	<path d="M5.281,180.087h1.462l2.655-9.544H7.744l0.346-1.559h3.079l2.193,8.005l5.715-8.005h3.213l-0.365,1.559h-1.463
		l-1.789,9.544h1.674L20,181.646h-4.887l0.347-1.559h1.5l1.521-7.87l-5.503,7.582h-0.27l-2.155-7.582l-2.097,7.87h1.712
		l-0.365,1.559H4.934L5.281,180.087z"/>
	<path d="M22.225,178.49c0-2.828,1.963-5.291,4.368-5.291c1.251,0,2.193,0.904,2.482,1.962l0.538-1.847h1.578l-1.462,5.906
		c-0.097,0.347-0.154,0.654-0.154,0.848c0,0.365,0.173,0.576,0.5,0.576c0.309,0,0.693-0.288,1.078-1.347l0.75,0.27
		c-0.5,1.655-1.366,2.213-2.29,2.213c-0.98,0-1.597-0.673-1.597-1.674v-0.097c-0.712,0.981-1.713,1.789-2.963,1.789
		C23.399,181.799,22.225,180.51,22.225,178.49z M28.691,176.72c0-1.231-0.616-2.04-1.886-2.04c-1.616,0-2.829,1.752-2.829,3.617
		c0,1.213,0.597,2.06,1.751,2.06C27.421,180.356,28.691,178.528,28.691,176.72z"/>
	<path d="M34.921,174.776h-1.539l0.365-1.424h2.963l-0.538,2.328c1.02-1.636,1.981-2.463,2.886-2.463
		c0.674,0,1.231,0.481,1.231,1.154c0,0.654-0.538,1.174-1.154,1.174c-0.577,0-1.02-0.385-1.116-0.847
		c-0.596,0.27-1.77,1.443-2.213,3.232l-0.923,3.714h-1.693L34.921,174.776z"/>
	<path d="M40.44,181.646l2.925-12.661h-1.559l0.365-1.424h3.175l-2.27,9.736c2.309-0.827,3.443-1.578,3.79-2.116
		c-0.327-0.192-0.52-0.539-0.52-0.886c0-0.596,0.481-1.096,1.097-1.096c0.616,0,1.136,0.48,1.136,1.23
		c0,1.251-1.231,2.387-3.252,3.348l0.808,1.887c0.174,0.404,0.289,0.635,0.424,0.789c0.135,0.135,0.25,0.172,0.385,0.172
		c0.288,0,0.558-0.307,0.885-1.539l0.77,0.25c-0.442,2.002-1.192,2.444-2.039,2.444c-0.385,0-0.751-0.097-1.078-0.366
		c-0.269-0.23-0.52-0.576-0.712-1.058l-0.904-2.155c-0.327,0.135-0.692,0.25-1,0.365l-0.731,3.079H40.44z"/>
	<path d="M53.692,180.087h1.442l2.213-9.544h-1.636l0.347-1.559h4.926l-0.365,1.559h-1.521l-0.904,3.887h6.389l0.904-3.887h-1.732
		l0.366-1.559h4.906l-0.347,1.559h-1.462l-2.213,9.544h1.636l-0.347,1.559h-4.906l0.347-1.559h1.539l0.962-4.137h-6.388
		l-0.981,4.137h1.731l-0.365,1.559h-4.907L53.692,180.087z"/>
	<path d="M69.195,180.106c0-0.251,0.058-0.616,0.135-0.905l1.154-4.425h-1.559l0.365-1.424h3.252l-1.539,5.868
		c-0.097,0.328-0.135,0.654-0.135,0.848c0,0.365,0.192,0.576,0.5,0.576c0.385,0,0.731-0.288,1.136-1.347l0.75,0.27
		c-0.5,1.655-1.309,2.213-2.328,2.213C69.81,181.78,69.195,181.107,69.195,180.106z M70.811,170.832c0-0.615,0.5-1.116,1.116-1.116
		c0.596,0,1.115,0.501,1.115,1.116s-0.52,1.115-1.115,1.115C71.311,171.947,70.811,171.447,70.811,170.832z"/>
	<path d="M80.122,180.125c0-0.27,0.058-0.635,0.135-0.942l0.712-2.501c0.097-0.328,0.135-0.578,0.135-0.848
		c0-0.73-0.5-1.211-1.251-1.211c-1.02,0-1.981,0.865-2.405,2.52l-1.115,4.503h-1.693l1.731-6.869h-1.539l0.365-1.424h2.963
		l-0.442,1.943c0.654-1.154,1.732-2.078,2.867-2.078c1.271,0,2.251,0.866,2.251,2.348c0,0.403-0.076,0.866-0.211,1.347l-0.712,2.443
		c-0.058,0.25-0.116,0.52-0.116,0.674c0,0.385,0.192,0.615,0.52,0.615s0.693-0.288,1.078-1.347l0.75,0.27
		c-0.442,1.501-1.231,2.213-2.251,2.213C80.757,181.78,80.122,181.088,80.122,180.125z"/>
	<path d="M85.274,178.125c0-2.637,2.193-4.926,4.829-4.926c1.828,0,3.04,1.115,3.04,2.328c0,0.711-0.442,1.308-1.135,1.308
		c-0.52,0-0.981-0.403-0.981-1.02c0-0.25,0.135-0.558,0.347-0.731c-0.27-0.308-0.712-0.461-1.309-0.461
		c-1.501,0-3.098,1.289-3.098,3.405c0,1.442,0.962,2.366,2.366,2.366c0.962,0,1.943-0.385,2.79-1.039l-0.038,1.539
		c-0.809,0.578-1.809,0.904-2.906,0.904C86.986,181.799,85.274,180.434,85.274,178.125z"/>
	<path d="M97.027,168.984h-1.559l0.365-1.424h3.175l-1.731,7.408c0.597-0.924,1.578-1.751,2.675-1.751c1.27,0,2.29,0.866,2.29,2.348
		c0,0.403-0.059,0.866-0.212,1.347l-0.674,2.463c-0.058,0.25-0.096,0.5-0.096,0.654c0,0.385,0.192,0.615,0.5,0.615
		c0.347,0,0.692-0.288,1.077-1.347l0.751,0.27c-0.442,1.501-1.212,2.213-2.251,2.213c-1.136,0-1.771-0.692-1.771-1.655
		c0-0.27,0.058-0.615,0.135-0.924l0.692-2.52c0.097-0.328,0.115-0.578,0.115-0.848c0-0.73-0.52-1.211-1.27-1.211
		c-1.02,0-2.021,0.846-2.405,2.559l-1.039,4.464h-1.693L97.027,168.984z"/>
	<path d="M104.892,180.087c0-0.25,0.059-0.558,0.116-0.866l2.386-10.236h-1.559l0.365-1.424h3.194l-2.693,11.641
		c-0.077,0.328-0.135,0.636-0.135,0.828c0,0.404,0.173,0.615,0.5,0.615c0.385,0,0.731-0.288,1.135-1.347l0.731,0.27
		c-0.5,1.655-1.309,2.213-2.309,2.213C105.489,181.78,104.892,181.107,104.892,180.087z"/>
	<path d="M110.798,180.106c0-0.251,0.058-0.616,0.135-0.905l1.154-4.425h-1.559l0.365-1.424h3.252l-1.539,5.868
		c-0.097,0.328-0.135,0.654-0.135,0.848c0,0.365,0.192,0.576,0.5,0.576c0.385,0,0.731-0.288,1.136-1.347l0.75,0.27
		c-0.5,1.655-1.309,2.213-2.328,2.213C111.413,181.78,110.798,181.107,110.798,180.106z M112.414,170.832
		c0-0.615,0.5-1.116,1.116-1.116c0.596,0,1.115,0.501,1.115,1.116s-0.52,1.115-1.115,1.115
		C112.914,171.947,112.414,171.447,112.414,170.832z"/>
	<path d="M121.551,169.389c-0.154,0.039-0.308,0.135-0.442,0.27c-0.347,0.327-0.635,1-0.866,1.982l-0.404,1.712h3.752l0.559-2.386
		c0.27-1.154,0.692-2.04,1.309-2.637c0.558-0.538,1.327-0.885,2.289-0.885c1.078,0,1.713,0.559,1.713,1.251
		c0,0.653-0.52,1.077-1.078,1.077c-0.558,0-1.02-0.365-1.058-0.885c-0.27,0.038-0.539,0.192-0.712,0.385
		c-0.366,0.346-0.654,0.962-0.866,1.866l-0.52,2.213h2.193l-0.365,1.424h-2.155l-1.559,6.869h-1.654l1.577-6.869h-3.752
		l-1.559,6.869h-1.654l1.578-6.869h-1.463l0.366-1.424h1.424l0.461-2.001c0.289-1.231,0.693-2.039,1.271-2.617
		c0.577-0.577,1.347-0.904,2.097-0.904c0.963,0,1.54,0.52,1.54,1.213c0,0.596-0.462,1.058-1.021,1.058
		C122.051,170.101,121.667,169.793,121.551,169.389z"/>
	<path d="M128.955,178.028v0.288c0,1.251,1.001,2.078,2.502,2.078c0.885,0,1.693-0.191,2.732-0.75l-0.327,1.578
		c-0.866,0.423-1.578,0.576-2.752,0.576c-1.981,0-3.81-1.25-3.81-3.521c0-2.81,2.078-5.079,4.541-5.079
		c2.021,0,3.348,1.154,3.348,3.098c0,0.52-0.096,1.096-0.308,1.731H128.955z M129.186,176.816h4.31
		c0.077-0.231,0.116-0.481,0.116-0.713c0-0.865-0.577-1.5-1.771-1.5S129.629,175.508,129.186,176.816z"/>
</g>
<line fill="none" stroke="#000000" x1="5.008" y1="84.987" x2="204.674" y2="84.987"/>
<line fill="none" stroke="#000000" x1="5.008" y1="143.373" x2="204.674" y2="143.373"/>
<g>
	<path opacity="0.5" fill="#B5121C" d="M2.362,40.69h4.786l7.438-32.176H9.224l0.691-2.883h13.839c2.769,0,5.19,0.577,7.093,1.672
		c2.595,1.499,4.094,4.037,4.094,7.093c0,5.189-4.094,8.995-9.803,9.86c3.807,1.038,7.093,3.979,7.093,8.303
		c0,2.883-1.153,5.363-3.229,7.266c-1.673,1.557-3.922,2.652-6.401,3.229c-1.441,0.346-3.113,0.519-4.728,0.519H1.67L2.362,40.69z
		 M18.277,40.69c1.441,0,2.825-0.173,4.036-0.519c1.961-0.519,3.402-1.384,4.613-2.595c1.326-1.326,2.019-3.056,2.019-5.017
		c0-3.748-3.402-7.208-10.553-7.208h-4.383L10.434,40.69H18.277z M19.891,22.584c6.862,0,11.764-2.941,11.764-8.073
		c0-2.019-0.923-3.806-2.999-4.901c-1.384-0.692-3.229-1.096-5.535-1.096h-5.247l-3.229,14.07H19.891z"/>
	<path opacity="0.5" fill="#B5121C" d="M44.171,22.007h-4.613l0.691-2.652h7.438l-1.614,6.573c3.229-4.44,5.939-7.035,8.188-7.035
		c1.902,0,2.94,1.096,2.94,2.537c0,1.557-1.269,2.826-2.71,2.826c-1.326,0-2.249-0.808-2.537-1.961
		c-1.961,1.153-6.17,4.959-7.554,10.668l-2.652,10.61H38.75L44.171,22.007z"/>
	<path opacity="0.5" fill="#B5121C" d="M58.415,34.001c0-8.246,5.997-15.107,12.975-15.107c4.382,0,7.266,2.422,7.957,6.285
		l1.441-6.112h2.999l-4.498,18.452c-0.23,0.923-0.403,1.845-0.403,2.307c0,1.153,0.749,1.903,1.787,1.903
		c1.269,0,2.249-1.153,3.345-3.806l1.787,0.577c-1.153,3.402-2.883,5.42-5.535,5.42c-2.537,0-4.268-1.615-4.268-3.864v-0.98
		c-2.133,2.825-5.132,4.959-8.649,4.959C62.105,44.035,58.415,40.229,58.415,34.001z M78.193,28.869
		c0-4.325-2.307-7.266-6.688-7.266c-5.824,0-9.86,6.055-9.86,12.34c0,4.498,2.191,7.381,6.343,7.381
		C74.272,41.324,78.193,34.29,78.193,28.869z"/>
	<path opacity="0.5" fill="#B5121C" d="M106.798,39.825c0-0.634,0.23-1.845,0.461-2.652l2.479-8.592
		c0.346-1.269,0.576-2.249,0.576-3.287c0-2.191-1.729-3.806-4.209-3.806c-3.575,0-8.131,3.748-9.86,10.552l-2.883,11.533h-2.999
		l5.421-21.566h-4.613l0.691-2.652H99.3l-1.499,5.824c2.364-3.806,5.306-6.285,8.765-6.285c4.037,0,6.805,2.71,6.805,6.285
		c0,1.211-0.346,2.537-0.692,3.806l-2.479,8.477c-0.23,0.807-0.403,1.903-0.403,2.364c0,1.153,0.75,1.903,1.787,1.903
		c1.269,0,2.249-1.153,3.345-3.806l1.788,0.577c-1.153,3.402-2.884,5.42-5.536,5.42C108.642,43.919,106.798,42.247,106.798,39.825z"
		/>
	<path opacity="0.5" fill="#B5121C" d="M133.671,18.894c4.151,0,7.496,2.307,8.188,6.285l4.901-21.162h-4.613l0.635-2.653h7.611
		l-8.477,36.155c-0.23,0.923-0.403,1.845-0.403,2.307c0,1.153,0.634,1.903,1.729,1.903c1.326,0,2.307-1.153,3.402-3.806l1.788,0.577
		c-1.153,3.402-2.884,5.42-5.536,5.42c-2.479,0-4.209-1.615-4.209-4.037c0-0.23,0-0.519,0.058-0.807
		c-2.076,2.768-5.074,4.959-8.649,4.959c-5.248,0-9.169-3.864-9.169-10.091C120.926,25.467,127.039,18.894,133.671,18.894z
		 M140.82,28.984c0-4.44-2.537-7.381-6.919-7.381c-5.824,0-9.745,5.997-9.745,12.282c0,4.498,2.422,7.438,6.573,7.438
		C136.841,41.324,140.82,34.635,140.82,28.984z"/>
	<path opacity="0.5" fill="#B5121C" d="M152.241,33.655c0-7.669,5.939-14.762,13.724-14.762c6.4,0,10.148,4.729,10.148,10.379
		c0,7.669-5.938,14.762-13.724,14.762C155.989,44.035,152.241,39.306,152.241,33.655z M173.057,29.215
		c0-4.613-3.114-7.612-7.266-7.612c-5.882,0-10.494,5.651-10.494,12.109c0,4.613,3.113,7.611,7.265,7.611
		C168.444,41.324,173.057,35.673,173.057,29.215z"/>
	<path opacity="0.5" fill="#B5121C" d="M197.798,39.825c0-0.634,0.23-1.845,0.461-2.652l2.479-8.592
		c0.346-1.269,0.576-2.249,0.576-3.287c0-2.191-1.729-3.806-4.209-3.806c-3.575,0-8.131,3.748-9.86,10.552l-2.883,11.533h-2.999
		l5.421-21.566h-4.613l0.691-2.652h7.438l-1.499,5.824c2.364-3.806,5.306-6.285,8.765-6.285c4.037,0,6.805,2.71,6.805,6.285
		c0,1.211-0.346,2.537-0.692,3.806l-2.479,8.477c-0.23,0.807-0.403,1.903-0.403,2.364c0,1.153,0.75,1.903,1.787,1.903
		c1.269,0,2.249-1.153,3.345-3.806l1.788,0.577c-1.153,3.402-2.884,5.42-5.536,5.42C199.642,43.919,197.798,42.247,197.798,39.825z"
		/>
	<path opacity="0.5" fill="#B5121C" d="M5.832,63.109c0-7.117,5.673-13.193,12.589-13.193c4.9,0,7.922,2.988,7.922,5.539
		c0,1.477-1.007,2.619-2.249,2.619c-1.142,0-2.015-0.873-2.015-1.947c0-0.638,0.369-1.242,0.84-1.578
		c-0.403-0.839-2.048-1.846-4.6-1.846c-5.203,0-9.332,4.868-9.332,10.171c0,4.364,2.585,7.117,6.613,7.117
		c2.417,0,4.565-1.007,6.546-2.954l1.847,1.846c-2.484,2.686-5.371,3.894-8.661,3.894C10.129,72.777,5.832,69.286,5.832,63.109z"/>
	<path opacity="0.5" fill="#B5121C" d="M26.882,66.902c0-4.935,3.424-9.231,7.62-9.231c2.182,0,3.827,1.578,4.33,3.424l0.94-3.223
		h2.752l-2.551,10.306c-0.168,0.604-0.269,1.142-0.269,1.478c0,0.638,0.302,1.007,0.873,1.007c0.537,0,1.208-0.503,1.88-2.35
		l1.309,0.47c-0.873,2.887-2.383,3.86-3.994,3.86c-1.713,0-2.787-1.175-2.787-2.92v-0.168c-1.241,1.712-2.987,3.122-5.169,3.122
		C28.928,72.676,26.882,70.427,26.882,66.902z M38.161,63.814c0-2.148-1.074-3.558-3.29-3.558c-2.82,0-4.935,3.055-4.935,6.311
		c0,2.115,1.04,3.592,3.055,3.592C35.945,70.159,38.161,66.97,38.161,63.814z"/>
	<path opacity="0.5" fill="#B5121C" d="M49.039,60.423h-2.686l0.638-2.484h5.17l-0.939,4.062c1.778-2.853,3.457-4.297,5.035-4.297
		c1.175,0,2.148,0.839,2.148,2.015c0,1.141-0.94,2.047-2.015,2.047c-1.007,0-1.779-0.671-1.946-1.477
		c-1.041,0.47-3.089,2.518-3.861,5.64l-1.611,6.479h-2.954L49.039,60.423z"/>
	<path opacity="0.5" fill="#B5121C" d="M65.387,60.423l-1.846,7.419c-0.135,0.503-0.201,0.974-0.201,1.276
		c0,0.806,0.47,1.242,1.141,1.242c0.772,0,1.478-0.335,2.887-1.275l1.041,1.41c-1.88,1.645-3.457,2.148-4.867,2.148
		c-1.779,0-3.189-1.007-3.189-3.055c0-0.503,0.101-1.074,0.235-1.746l1.846-7.419h-2.618l0.57-2.484h2.652l0.84-3.29l3.223-1.107
		l-1.108,4.397h4.432l-0.638,2.484H65.387z"/>
	<path opacity="0.5" fill="#B5121C" d="M74.049,66.097V66.6c0,2.182,1.746,3.625,4.364,3.625c1.544,0,2.954-0.335,4.767-1.309
		l-0.57,2.752c-1.511,0.739-2.753,1.007-4.801,1.007c-3.458,0-6.646-2.182-6.646-6.143c0-4.901,3.625-8.862,7.922-8.862
		c3.525,0,5.842,2.014,5.842,5.404c0,0.907-0.168,1.914-0.537,3.021H74.049z M74.452,63.982h7.52
		c0.134-0.403,0.201-0.839,0.201-1.242c0-1.511-1.007-2.619-3.089-2.619C77.003,60.121,75.223,61.699,74.452,63.982z"/>
	<path opacity="0.5" fill="#B5121C" d="M90.499,60.423h-2.686l0.638-2.484h5.17l-0.94,4.062c1.779-2.853,3.458-4.297,5.036-4.297
		c1.175,0,2.148,0.839,2.148,2.015c0,1.141-0.94,2.047-2.015,2.047c-1.007,0-1.779-0.671-1.947-1.477
		c-1.04,0.47-3.088,2.518-3.86,5.64l-1.611,6.479h-2.954L90.499,60.423z"/>
</g>
</svg>
