<?xml version="1.0" encoding="utf-8"?>
<!-- Generator: Adobe Illustrator 17.0.0, SVG Export Plug-In . SVG Version: 6.00 Build 0)  -->
<!DOCTYPE svg PUBLIC "-//W3C//DTD SVG 1.1//EN" "http://www.w3.org/Graphics/SVG/1.1/DTD/svg11.dtd">
<svg version="1.1" id="Layer_1" xmlns="http://www.w3.org/2000/svg" xmlns:xlink="http://www.w3.org/1999/xlink" x="0px" y="0px"
	 width="64.791px" height="8.009px" viewBox="1.333 1.248 64.791 8.009" enable-background="new 1.333 1.248 64.791 8.009"
	 xml:space="preserve">
<g>
	<path opacity="0.5" fill="#B5121C" enable-background="new    " d="M-537.822,21.376h2.527l3.903-16.831h-2.848l0.48-2.112h6.463
		c2.784,0,4.832,0.64,6.144,1.92c0.96,0.96,1.44,2.208,1.44,3.712c0,3.168-2.24,5.696-6.016,6.56l3.2,6.751h2.463l-0.479,2.112
		h-3.68l-3.84-8.575c-0.352,0.032-0.672,0.032-1.056,0.032c-0.769,0-1.6-0.032-2.272-0.064l-1.535,6.496h2.88l-0.513,2.112h-7.775
		L-537.822,21.376z M-522.112,8.193c0-0.96-0.319-1.76-0.959-2.4c-0.832-0.832-2.336-1.248-4.288-1.248h-1.664l-1.92,8.256
		c0.736,0.064,1.504,0.096,2.656,0.096C-524.447,12.896-522.112,10.945-522.112,8.193z"/>
	<path opacity="0.5" fill="#B5121C" enable-background="new    " d="M-517.823,17.792c0-4.224,3.296-8.191,7.712-8.191
		c3.743,0,5.92,2.752,5.92,5.952c0,4.256-3.296,8.191-7.712,8.191C-515.647,23.744-517.823,21.024-517.823,17.792z M-506.463,15.552
		c0-2.496-1.632-4-3.743-4c-2.977,0-5.344,2.848-5.344,6.271c0,2.464,1.632,3.968,3.743,3.968
		C-508.799,21.792-506.463,18.944-506.463,15.552z"/>
	<path opacity="0.5" fill="#B5121C" enable-background="new    " d="M-496.958,1.985h-2.592l0.479-1.92h4.768l-2.911,12.415
		c1.088-1.568,2.751-2.88,4.735-2.88c3.071,0,5.119,2.24,5.119,5.632c0,4.736-3.392,8.543-7.231,8.543
		c-2.239,0-3.968-1.344-4.415-3.328l-0.801,3.04h-2.144L-496.958,1.985z M-489.727,15.521c0-2.368-1.216-3.936-3.36-3.936
		c-2.976,0-5.344,3.392-5.344,6.496c0,2.176,1.312,3.68,3.616,3.68C-491.871,21.76-489.727,18.688-489.727,15.521z"/>
	<path opacity="0.5" fill="#B5121C" enable-background="new    " d="M-482.463,17.344c-0.032,0.224-0.032,0.448-0.032,0.672
		c0,2.4,1.984,3.808,4.353,3.808c1.535,0,2.751-0.32,4.512-1.248l-0.48,2.176c-1.439,0.704-2.624,0.992-4.479,0.992
		c-3.2,0-6.111-2.048-6.111-5.759c0-4.608,3.487-8.384,7.551-8.384c3.168,0,5.216,1.92,5.216,4.992c0,0.832-0.16,1.76-0.512,2.752
		h-10.018V17.344z M-482.111,15.616h7.839c0.16-0.416,0.225-0.896,0.225-1.344c0-1.472-0.992-2.72-3.2-2.72
		C-479.391,11.553-481.311,13.249-482.111,15.616z"/>
	<path opacity="0.5" fill="#B5121C" enable-background="new    " d="M-466.399,11.809h-2.56l0.479-1.952h4.544l-0.896,3.775
		c1.76-2.592,3.295-4,4.671-4c1.088,0,1.856,0.704,1.856,1.696c0,0.96-0.8,1.76-1.729,1.76c-0.863,0-1.472-0.576-1.632-1.28
		c-1.023,0.512-3.167,2.56-3.903,5.632l-1.536,6.047h-2.239L-466.399,11.809z"/>
	<path opacity="0.5" fill="#B5121C" enable-background="new    " d="M-451.967,11.809l-1.92,7.808
		c-0.128,0.448-0.192,0.832-0.192,1.184c0,0.608,0.416,1.088,1.088,1.088c0.736,0,1.504-0.384,2.849-1.28l0.832,1.184
		c-1.664,1.344-3.008,1.952-4.288,1.952c-1.6,0-2.815-0.992-2.815-2.592c0-0.448,0.096-0.96,0.256-1.536l1.92-7.808h-2.433
		l0.48-1.952h2.432l0.8-3.2l2.464-0.8l-0.992,4h4.16l-0.48,1.952H-451.967z"/>
	<path opacity="0.5" fill="#B5121C" enable-background="new    " d="M-446.4,17.792c0-4.224,3.296-8.191,7.712-8.191
		c3.743,0,5.92,2.752,5.92,5.952c0,4.256-3.296,8.191-7.712,8.191C-444.224,23.744-446.4,21.024-446.4,17.792z M-435.04,15.552
		c0-2.496-1.632-4-3.743-4c-2.977,0-5.344,2.848-5.344,6.271c0,2.464,1.632,3.968,3.743,3.968
		C-437.376,21.792-435.04,18.944-435.04,15.552z"/>
	<path opacity="0.5" fill="#B5121C" enable-background="new    " d="M-422.464,14.592c0-6.719,5.408-12.543,11.903-12.543
		c4.928,0,7.552,3.072,7.552,5.152c0,1.408-0.896,2.335-1.92,2.335c-1.024,0-1.696-0.704-1.696-1.6c0-0.608,0.384-1.184,0.928-1.504
		c-0.352-0.992-2.048-2.24-4.959-2.24c-5.44,0-9.344,5.184-9.344,10.175c0,4.607,2.72,7.327,6.783,7.327
		c2.496,0,4.672-1.056,6.592-2.944l1.408,1.472c-2.368,2.432-5.12,3.647-8.224,3.647C-418.368,23.872-422.464,20.512-422.464,14.592
		z"/>
	<path opacity="0.5" fill="#B5121C" enable-background="new    " d="M-402.305,18.208c0-4.64,3.296-8.607,7.231-8.607
		c2.24,0,3.84,1.44,4.256,3.392l0.864-3.232h2.144l-2.464,10.015c-0.128,0.544-0.224,1.056-0.224,1.344
		c0,0.64,0.352,0.992,0.896,0.992c0.608,0,1.184-0.544,1.824-2.144l1.12,0.384c-0.736,2.304-1.952,3.36-3.424,3.36
		c-1.536,0-2.528-1.024-2.528-2.496v-0.32c-1.184,1.6-2.848,2.848-4.863,2.848C-400.321,23.744-402.305,21.6-402.305,18.208z
		 M-391.426,15.296c0-2.208-1.184-3.712-3.423-3.712c-2.977,0-5.088,3.168-5.088,6.464c0,2.24,1.088,3.744,3.199,3.744
		C-393.602,21.792-391.426,18.336-391.426,15.296z"/>
	<path opacity="0.5" fill="#B5121C" enable-background="new    " d="M-387.328,27.839h2.048l3.84-16.031h-2.592l0.479-1.952h4.576
		l-0.641,2.848c1.12-1.664,2.784-3.104,4.928-3.104c3.008,0,5.056,2.24,5.056,5.632c0,4.736-3.392,8.543-7.264,8.543
		c-2.144,0-3.808-1.376-4.447-3.168l-1.664,7.231h2.784l-0.48,1.92h-7.104L-387.328,27.839z M-372.002,15.521
		c0-2.368-1.216-3.936-3.359-3.936c-2.976,0-5.376,3.392-5.376,6.496c0,2.176,1.345,3.68,3.648,3.68
		C-374.146,21.76-372.002,18.688-372.002,15.521z"/>
	<path opacity="0.5" fill="#B5121C" enable-background="new    " d="M-366.945,17.792c0-4.224,3.296-8.191,7.712-8.191
		c3.743,0,5.92,2.752,5.92,5.952c0,4.256-3.296,8.191-7.712,8.191C-364.769,23.744-366.945,21.024-366.945,17.792z M-355.585,15.552
		c0-2.496-1.632-4-3.743-4c-2.977,0-5.344,2.848-5.344,6.271c0,2.464,1.632,3.968,3.743,3.968
		C-357.921,21.792-355.585,18.944-355.585,15.552z"/>
	<path opacity="0.5" fill="#B5121C" enable-background="new    " d="M-347.649,11.809h-2.56l0.479-1.952h4.544l-0.896,3.775
		c1.76-2.592,3.295-4,4.671-4c1.088,0,1.856,0.704,1.856,1.696c0,0.96-0.8,1.76-1.729,1.76c-0.863,0-1.472-0.576-1.632-1.28
		c-1.023,0.512-3.167,2.56-3.903,5.632l-1.536,6.047h-2.239L-347.649,11.809z"/>
	<path opacity="0.5" fill="#B5121C" enable-background="new    " d="M-332.802,9.857l-2.208,8.543
		c-0.128,0.448-0.192,0.959-0.192,1.472c0,1.152,0.801,1.952,2.08,1.952c1.888,0,3.936-1.792,4.736-4.992l1.728-6.975h2.24
		l-2.464,9.919c-0.16,0.544-0.257,1.056-0.257,1.344c0,0.64,0.385,0.992,0.929,0.992c0.607,0,1.184-0.544,1.823-2.144l1.12,0.384
		c-0.736,2.304-1.952,3.36-3.456,3.36s-2.495-0.992-2.495-2.592c0-0.192,0.031-0.384,0.063-0.64
		c-1.151,1.856-2.815,3.232-4.735,3.232c-2.048,0-3.616-1.344-3.616-3.456c0-0.704,0.128-1.408,0.288-2.048l1.664-6.399h-2.56
		l0.512-1.952C-337.602,9.857-332.802,9.857-332.802,9.857z"/>
	<path opacity="0.5" fill="#B5121C" enable-background="new    " d="M-320.77,21.952c-0.512-0.512-0.8-1.088-0.8-1.696
		c0-0.928,0.64-1.664,1.504-1.664s1.376,0.64,1.376,1.344c0,0.384-0.16,0.704-0.416,1.024c0.128,0.128,0.256,0.224,0.544,0.384
		c0.64,0.352,1.632,0.608,2.72,0.608c1.504,0,2.752-0.672,2.752-1.888c0-1.248-1.344-1.888-2.815-2.592
		c-1.984-0.928-3.776-1.824-3.776-3.872c0-2.176,1.824-3.904,4.928-3.904c1.792,0,3.328,0.576,4.192,1.472
		c0.512,0.512,0.768,1.056,0.768,1.664c0,0.992-0.672,1.632-1.44,1.632s-1.407-0.576-1.407-1.344c0-0.32,0.128-0.64,0.352-1.024
		c-0.096-0.064-0.16-0.128-0.479-0.288c-0.48-0.224-1.248-0.384-2.048-0.384c-1.601,0-2.656,0.736-2.656,1.792
		c0,1.088,1.312,1.696,2.912,2.464c1.92,0.896,3.712,1.92,3.712,4c0,2.624-2.24,4.032-5.088,4.032
		C-317.922,23.712-319.745,22.976-320.77,21.952z"/>
	<path opacity="0.5" fill="#B5121C" enable-background="new    " d="M-307.777,17.856c0-4.32,3.521-8.256,7.808-8.256
		c3.2,0,4.928,1.952,4.928,3.648c0,1.056-0.704,1.92-1.695,1.92c-0.673,0-1.376-0.48-1.376-1.44c0-0.352,0.224-0.896,0.64-1.152
		c-0.48-0.64-1.312-1.024-2.56-1.024c-2.816,0-5.472,2.688-5.472,6.175c0,2.432,1.6,4.064,4.128,4.064
		c1.567,0,3.199-0.64,4.543-1.792l-0.063,2.176c-1.344,0.992-2.944,1.568-4.736,1.568
		C-305.088,23.744-307.777,21.536-307.777,17.856z"/>
	<path opacity="0.5" fill="#B5121C" enable-background="new    " d="M-292.16,21.152c0-0.384,0.128-0.992,0.256-1.472l2.144-7.872
		h-2.655l0.512-1.952h4.896l-2.688,9.919c-0.128,0.512-0.225,1.056-0.225,1.344c0,0.64,0.385,0.992,0.929,0.992
		c0.672,0,1.247-0.544,1.855-2.144l1.12,0.384c-0.736,2.304-1.888,3.36-3.456,3.36C-291.137,23.712-292.16,22.688-292.16,21.152z
		 M-289.345,5.601c0-0.896,0.736-1.632,1.632-1.632c0.864,0,1.6,0.736,1.6,1.632s-0.735,1.632-1.6,1.632
		C-288.609,7.233-289.345,6.497-289.345,5.601z"/>
	<path opacity="0.5" fill="#B5121C" enable-background="new    " d="M-283.49,17.792c0-4.224,3.296-8.191,7.712-8.191
		c3.743,0,5.92,2.752,5.92,5.952c0,4.256-3.296,8.191-7.712,8.191C-281.314,23.744-283.49,21.024-283.49,17.792z M-272.13,15.552
		c0-2.496-1.632-4-3.743-4c-2.977,0-5.344,2.848-5.344,6.271c0,2.464,1.632,3.968,3.743,3.968
		C-274.466,21.792-272.13,18.944-272.13,15.552z"/>
</g>
<g>
	<path d="M-461.632-35.815h3.301c1.947,0,3.201,1.001,3.201,2.707v0.022c0,1.815-1.397,2.772-3.312,2.772h-1.056v2.2h-2.135v-7.701
		H-461.632z M-458.486-31.987c0.759,0,1.222-0.396,1.222-1.001v-0.022c0-0.66-0.463-1.012-1.232-1.012h-1.001v2.035H-458.486z"/>
	<path d="M-454.207-35.815h2.146v7.701h-2.146V-35.815z"/>
	<path d="M-450.918-29.666l3.862-4.346h-3.729v-1.804h6.678v1.551l-3.861,4.346h3.861v1.804h-6.811V-29.666z"/>
	<path d="M-443.372-29.666l3.862-4.346h-3.729v-1.804h6.678v1.551l-3.861,4.346h3.861v1.804h-6.811V-29.666z"/>
	<path d="M-432.812-35.871h2.058l3.278,7.756h-2.288l-0.561-1.375h-2.971l-0.55,1.375h-2.245L-432.812-35.871z M-430.941-31.151
		l-0.858-2.189l-0.869,2.189C-432.668-31.151-430.941-31.151-430.941-31.151z"/>
	<path d="M-424.112-35.815h2.256l1.837,2.981l1.837-2.981h2.256v7.701h-2.123v-4.423l-1.97,3.015h-0.044l-1.958-2.992v4.4h-2.091
		L-424.112-35.815L-424.112-35.815z"/>
	<path d="M-411.923-35.871h2.058l3.278,7.756h-2.288l-0.561-1.375h-2.971l-0.55,1.375h-2.245L-411.923-35.871z M-410.052-31.151
		l-0.858-2.189l-0.869,2.189C-411.779-31.151-410.052-31.151-410.052-31.151z"/>
	<path d="M-405.863-35.815h2.135v3.125l2.651-3.125h2.53l-2.916,3.312l3.015,4.39h-2.563l-1.936-2.86l-0.781,0.869v1.991h-2.135
		L-405.863-35.815L-405.863-35.815z"/>
	<path d="M-397.855-35.815h6.194V-34h-4.082v1.166h3.696v1.683h-3.696v1.221h4.137v1.815h-6.249V-35.815z"/>
	<path d="M-390.54-35.815h3.642c1.178,0,1.991,0.308,2.509,0.836c0.451,0.44,0.682,1.034,0.682,1.793v0.022
		c0,1.177-0.627,1.958-1.584,2.365l1.837,2.685h-2.464l-1.552-2.333h-0.021h-0.913v2.333h-2.135v-7.701H-390.54z M-386.997-32.119
		c0.726,0,1.144-0.352,1.144-0.913v-0.022c0-0.605-0.439-0.913-1.155-0.913h-1.396v1.849h1.407V-32.119z"/>
	<path d="M-378.88-36.894h1.694l-4.873,10.188h-1.694L-378.88-36.894z"/>
	<path d="M-376.79-35.815h3.642c1.178,0,1.991,0.308,2.509,0.836c0.451,0.44,0.682,1.034,0.682,1.793v0.022
		c0,1.177-0.627,1.958-1.584,2.365l1.837,2.685h-2.464l-1.552-2.333h-0.021h-0.913v2.333h-2.135v-7.701H-376.79z M-373.247-32.119
		c0.726,0,1.144-0.352,1.144-0.913v-0.022c0-0.605-0.439-0.913-1.155-0.913h-1.396v1.849h1.407V-32.119z"/>
	<path d="M-368.904-35.815h6.194V-34h-4.082v1.166h3.696v1.683h-3.696v1.221h4.137v1.815h-6.249V-35.815z"/>
	<path d="M-362.172-29.258l1.188-1.419c0.759,0.605,1.606,0.924,2.497,0.924c0.572,0,0.88-0.198,0.88-0.528v-0.022
		c0-0.319-0.253-0.495-1.298-0.737c-1.64-0.374-2.904-0.836-2.904-2.42v-0.022c0-1.43,1.133-2.464,2.981-2.464
		c1.309,0,2.332,0.352,3.168,1.023l-1.066,1.507c-0.704-0.495-1.475-0.759-2.156-0.759c-0.518,0-0.771,0.22-0.771,0.495v0.022
		c0,0.352,0.264,0.506,1.331,0.748c1.771,0.385,2.871,0.958,2.871,2.398v0.022c0,1.573-1.243,2.508-3.113,2.508
		C-359.928-27.982-361.226-28.411-362.172-29.258z"/>
	<path d="M-352.777-33.945h-2.311v-1.87h6.755v1.87h-2.311v5.831h-2.134v-5.831H-352.777z"/>
	<path d="M-345.749-35.871h2.058l3.278,7.756h-2.288l-0.561-1.375h-2.971l-0.55,1.375h-2.245L-345.749-35.871z M-343.878-31.151
		l-0.858-2.189l-0.869,2.189C-345.605-31.151-343.878-31.151-343.878-31.151z"/>
	<path d="M-340.085-31.492v-4.324h2.167v4.28c0,1.111,0.562,1.639,1.419,1.639c0.858,0,1.42-0.506,1.42-1.584v-4.334h2.167v4.269
		c0,2.486-1.419,3.576-3.608,3.576S-340.085-29.083-340.085-31.492z"/>
	<path d="M-331.67-35.815h3.642c1.178,0,1.991,0.308,2.509,0.836c0.451,0.44,0.682,1.034,0.682,1.793v0.022
		c0,1.177-0.627,1.958-1.584,2.365l1.837,2.685h-2.464l-1.552-2.333h-0.021h-0.913v2.333h-2.135v-7.701H-331.67z M-328.127-32.119
		c0.726,0,1.144-0.352,1.144-0.913v-0.022c0-0.605-0.439-0.913-1.155-0.913h-1.396v1.849h1.407V-32.119z"/>
	<path d="M-321.253-35.871h2.058l3.278,7.756h-2.288l-0.561-1.375h-2.971l-0.55,1.375h-2.245L-321.253-35.871z M-319.382-31.151
		l-0.858-2.189l-0.869,2.189C-321.109-31.151-319.382-31.151-319.382-31.151z"/>
	<path d="M-314.302-33.945h-2.311v-1.87h6.755v1.87h-2.311v5.831h-2.134v-5.831H-314.302z"/>
	<path d="M-308.946-35.815h6.194V-34h-4.082v1.166h3.696v1.683h-3.696v1.221h4.137v1.815h-6.249V-35.815z"/>
	<path d="M-301.73-31.492v-4.324h2.167v4.28c0,1.111,0.562,1.639,1.419,1.639c0.858,0,1.42-0.506,1.42-1.584v-4.334h2.167v4.269
		c0,2.486-1.419,3.576-3.608,3.576S-301.73-29.083-301.73-31.492z"/>
	<path d="M-293.315-35.815h3.642c1.178,0,1.991,0.308,2.509,0.836c0.451,0.44,0.682,1.034,0.682,1.793v0.022
		c0,1.177-0.627,1.958-1.584,2.365l1.837,2.685h-2.464l-1.552-2.333h-0.021h-0.913v2.333h-2.135v-7.701H-293.315z M-289.772-32.119
		c0.726,0,1.144-0.352,1.144-0.913v-0.022c0-0.605-0.439-0.913-1.155-0.913h-1.396v1.849h1.407V-32.119z"/>
</g>
<g>
	<path opacity="0.5" fill="#B5121C" enable-background="new    " d="M-496.374,51.376c-1.792,1.44-4.032,2.368-6.56,2.368
		c-4.544,0-8.128-3.359-8.128-8.607c0-6.943,5.44-13.119,12.512-13.119c2.752,0,5.023,0.928,6.304,2.144
		c0.735,0.736,1.216,1.536,1.216,2.56c0,1.344-0.929,2.144-1.889,2.144c-1.023,0-1.695-0.672-1.695-1.6
		c0-0.544,0.288-1.024,0.832-1.408c-0.096-0.16-0.256-0.32-0.416-0.48c-0.832-0.64-2.4-1.216-4.448-1.216
		c-5.887,0-9.919,5.344-9.919,10.879c0,3.936,2.4,6.591,6.176,6.591c2.432,0,4.607-0.832,6.304-2.144l1.056-4.288h-5.888l0.48-2.016
		h8.223l-2.432,10.239h-2.08L-496.374,51.376z"/>
	<path opacity="0.5" fill="#B5121C" enable-background="new    " d="M-486.006,41.745h-2.56l0.479-1.952h4.544l-0.896,3.775
		c1.76-2.592,3.296-4,4.671-4c1.088,0,1.856,0.704,1.856,1.696c0,0.96-0.8,1.76-1.729,1.76c-0.863,0-1.472-0.576-1.632-1.28
		c-1.023,0.512-3.167,2.56-3.903,5.632l-1.536,6.047h-2.239L-486.006,41.745z"/>
	<path opacity="0.5" fill="#B5121C" enable-background="new    " d="M-477.43,48.145c0-4.64,3.296-8.607,7.231-8.607
		c2.24,0,3.84,1.44,4.256,3.392l0.864-3.232h2.144l-2.464,10.015c-0.128,0.544-0.224,1.056-0.224,1.344
		c0,0.64,0.352,0.992,0.896,0.992c0.608,0,1.184-0.544,1.824-2.144l1.12,0.384c-0.736,2.304-1.952,3.36-3.424,3.36
		c-1.536,0-2.528-1.024-2.528-2.496v-0.32c-1.184,1.6-2.848,2.848-4.863,2.848C-475.445,53.68-477.43,51.537-477.43,48.145z
		 M-466.551,45.233c0-2.208-1.184-3.712-3.423-3.712c-2.977,0-5.088,3.168-5.088,6.464c0,2.24,1.088,3.744,3.199,3.744
		C-468.726,51.729-466.551,48.272-466.551,45.233z"/>
	<path opacity="0.5" fill="#B5121C" enable-background="new    " d="M-459.542,47.793c0-4.32,3.521-8.256,7.808-8.256
		c3.2,0,4.928,1.952,4.928,3.648c0,1.056-0.704,1.92-1.695,1.92c-0.673,0-1.376-0.48-1.376-1.44c0-0.352,0.224-0.896,0.64-1.152
		c-0.48-0.64-1.312-1.024-2.56-1.024c-2.816,0-5.472,2.688-5.472,6.175c0,2.432,1.6,4.064,4.128,4.064
		c1.567,0,3.199-0.64,4.543-1.792l-0.063,2.176c-1.344,0.992-2.944,1.568-4.736,1.568C-456.853,53.68-459.542,51.473-459.542,47.793
		z"/>
	<path opacity="0.5" fill="#B5121C" enable-background="new    " d="M-442.486,47.281c-0.032,0.224-0.032,0.448-0.032,0.672
		c0,2.4,1.984,3.808,4.353,3.808c1.535,0,2.751-0.32,4.512-1.248l-0.48,2.176c-1.439,0.704-2.624,0.992-4.479,0.992
		c-3.2,0-6.111-2.048-6.111-5.759c0-4.608,3.487-8.384,7.551-8.384c3.168,0,5.216,1.92,5.216,4.992c0,0.832-0.16,1.76-0.512,2.752
		L-442.486,47.281L-442.486,47.281z M-442.134,45.553h7.839c0.16-0.416,0.225-0.896,0.225-1.344c0-1.472-0.992-2.72-3.2-2.72
		C-439.414,41.489-441.334,43.185-442.134,45.553z"/>
	<path opacity="0.5" fill="#B5121C" enable-background="new    " d="M-421.782,44.529c0-6.719,5.408-12.543,11.903-12.543
		c4.928,0,7.552,3.072,7.552,5.152c0,1.408-0.896,2.335-1.92,2.335c-1.024,0-1.696-0.704-1.696-1.6c0-0.608,0.384-1.184,0.928-1.504
		c-0.352-0.992-2.048-2.24-4.959-2.24c-5.44,0-9.344,5.184-9.344,10.175c0,4.607,2.72,7.327,6.783,7.327
		c2.496,0,4.672-1.056,6.592-2.944l1.408,1.472c-2.368,2.432-5.12,3.647-8.224,3.647C-417.686,53.808-421.782,50.449-421.782,44.529
		z"/>
	<path opacity="0.5" fill="#B5121C" enable-background="new    " d="M-398.327,41.745h-2.56l0.479-1.952h4.544l-0.896,3.775
		c1.76-2.592,3.295-4,4.671-4c1.088,0,1.856,0.704,1.856,1.696c0,0.96-0.8,1.76-1.729,1.76c-0.863,0-1.472-0.576-1.632-1.28
		c-1.023,0.512-3.167,2.56-3.903,5.632l-1.536,6.047h-2.239L-398.327,41.745z"/>
	<path opacity="0.5" fill="#B5121C" enable-background="new    " d="M-389.783,47.729c0-4.224,3.296-8.191,7.712-8.191
		c3.743,0,5.92,2.752,5.92,5.952c0,4.256-3.296,8.191-7.712,8.191C-387.607,53.68-389.783,50.96-389.783,47.729z M-378.424,45.489
		c0-2.496-1.632-4-3.743-4c-2.977,0-5.344,2.848-5.344,6.271c0,2.464,1.632,3.968,3.743,3.968
		C-380.76,51.729-378.424,48.881-378.424,45.489z"/>
	<path opacity="0.5" fill="#B5121C" enable-background="new    " d="M-373.559,51.889c-0.512-0.512-0.8-1.088-0.8-1.696
		c0-0.928,0.64-1.664,1.504-1.664s1.376,0.64,1.376,1.344c0,0.384-0.16,0.704-0.416,1.024c0.128,0.128,0.256,0.224,0.544,0.384
		c0.64,0.352,1.632,0.608,2.72,0.608c1.504,0,2.752-0.672,2.752-1.888c0-1.248-1.344-1.888-2.815-2.592
		c-1.984-0.928-3.776-1.824-3.776-3.872c0-2.176,1.824-3.904,4.928-3.904c1.792,0,3.328,0.576,4.192,1.472
		c0.512,0.512,0.768,1.056,0.768,1.664c0,0.992-0.672,1.632-1.441,1.632c-0.768,0-1.407-0.576-1.407-1.344
		c0-0.32,0.128-0.64,0.352-1.024c-0.096-0.064-0.16-0.128-0.479-0.288c-0.48-0.224-1.248-0.384-2.048-0.384
		c-1.601,0-2.656,0.736-2.656,1.792c0,1.088,1.312,1.696,2.912,2.464c1.92,0.896,3.712,1.92,3.712,4c0,2.624-2.24,4.032-5.088,4.032
		C-370.712,53.648-372.535,52.912-373.559,51.889z"/>
	<path opacity="0.5" fill="#B5121C" enable-background="new    " d="M-360.055,51.889c-0.512-0.512-0.8-1.088-0.8-1.696
		c0-0.928,0.64-1.664,1.504-1.664s1.376,0.64,1.376,1.344c0,0.384-0.16,0.704-0.416,1.024c0.128,0.128,0.256,0.224,0.544,0.384
		c0.64,0.352,1.632,0.608,2.72,0.608c1.504,0,2.752-0.672,2.752-1.888c0-1.248-1.344-1.888-2.815-2.592
		c-1.984-0.928-3.776-1.824-3.776-3.872c0-2.176,1.824-3.904,4.928-3.904c1.792,0,3.328,0.576,4.192,1.472
		c0.512,0.512,0.768,1.056,0.768,1.664c0,0.992-0.672,1.632-1.44,1.632s-1.407-0.576-1.407-1.344c0-0.32,0.128-0.64,0.352-1.024
		c-0.096-0.064-0.16-0.128-0.479-0.288c-0.48-0.224-1.248-0.384-2.048-0.384c-1.601,0-2.656,0.736-2.656,1.792
		c0,1.088,1.312,1.696,2.912,2.464c1.92,0.896,3.712,1.92,3.712,4c0,2.624-2.24,4.032-5.088,4.032
		C-357.207,53.648-359.031,52.912-360.055,51.889z"/>
	<path opacity="0.5" fill="#B5121C" enable-background="new    " d="M-343.799,41.745h-2.56l0.479-1.952h4.544l-0.8,3.231
		c1.216-1.984,2.88-3.456,4.672-3.456c2.048,0,3.424,1.312,3.52,3.424c1.28-2.112,3.008-3.424,4.735-3.424
		c2.048,0,3.552,1.504,3.552,3.712c0,0.672-0.128,1.408-0.352,2.144l-1.28,4.416c-0.096,0.416-0.191,0.928-0.191,1.184
		c0,0.64,0.384,1.024,0.928,1.024c0.607,0,1.184-0.544,1.823-2.144l1.12,0.384c-0.704,2.208-1.823,3.36-3.424,3.36
		c-1.663,0-2.688-1.056-2.688-2.528c0-0.416,0.096-1.056,0.256-1.536l1.248-4.384c0.16-0.64,0.256-1.152,0.256-1.664
		c0-1.248-0.8-2.048-1.983-2.048c-1.76,0-3.712,1.76-4.576,5.087l-1.76,6.848h-2.24l2.112-8.191c0.16-0.672,0.256-1.216,0.256-1.728
		c0-1.152-0.8-2.016-2.016-2.016c-1.728,0-3.808,1.76-4.607,5.056l-1.729,6.879h-2.239L-343.799,41.745z"/>
	<path opacity="0.5" fill="#B5121C" enable-background="new    " d="M-321.494,48.145c0-4.64,3.296-8.607,7.231-8.607
		c2.24,0,3.84,1.44,4.256,3.392l0.864-3.232h2.144l-2.464,10.015c-0.128,0.544-0.224,1.056-0.224,1.344
		c0,0.64,0.352,0.992,0.896,0.992c0.608,0,1.184-0.544,1.824-2.144l1.12,0.384c-0.736,2.304-1.952,3.36-3.424,3.36
		c-1.536,0-2.528-1.024-2.528-2.496v-0.32c-1.184,1.6-2.848,2.848-4.863,2.848C-319.51,53.68-321.494,51.537-321.494,48.145z
		 M-310.616,45.233c0-2.208-1.184-3.712-3.423-3.712c-2.977,0-5.088,3.168-5.088,6.464c0,2.24,1.088,3.744,3.199,3.744
		C-312.791,51.729-310.616,48.272-310.616,45.233z"/>
	<path opacity="0.5" fill="#B5121C" enable-background="new    " d="M-294.391,51.121c0-0.416,0.096-1.056,0.256-1.536l1.28-4.448
		c0.159-0.608,0.224-1.088,0.224-1.6c0-1.216-0.896-2.048-2.208-2.048c-1.823,0-3.871,1.728-4.672,4.992l-1.76,6.943h-2.239
		l2.943-11.679h-2.56l0.479-1.952h4.544l-0.768,3.231c1.184-1.984,2.88-3.456,4.8-3.456c2.176,0,3.743,1.504,3.743,3.712
		c0,0.672-0.128,1.408-0.352,2.144l-1.248,4.416c-0.128,0.416-0.225,0.928-0.225,1.184c0,0.64,0.385,1.024,0.929,1.024
		c0.64,0,1.184-0.544,1.823-2.144l1.12,0.384c-0.704,2.208-1.824,3.36-3.424,3.36C-293.368,53.648-294.391,52.592-294.391,51.121z"
		/>
</g>
<g>
	<path d="M-442.204,75.096h6.194v1.815h-4.082v1.166h3.696v1.683h-3.696v1.221h4.137v1.815h-6.249V75.096z"/>
	<path d="M-432.81,78.881l-2.53-3.785h2.454l1.363,2.167l1.376-2.167h2.398l-2.53,3.763l2.64,3.938h-2.453l-1.475-2.321
		l-1.484,2.321h-2.398L-432.81,78.881z"/>
	<path d="M-426.859,75.096h6.194v1.815h-4.082v1.166h3.696v1.683h-3.696v1.221h4.137v1.815h-6.249V75.096z"/>
	<path d="M-419.862,78.969v-0.022c0-2.244,1.728-4.004,4.06-4.004c1.573,0,2.585,0.66,3.268,1.606l-1.606,1.243
		c-0.44-0.55-0.946-0.902-1.684-0.902c-1.078,0-1.837,0.913-1.837,2.035v0.022c0,1.155,0.759,2.057,1.837,2.057
		c0.804,0,1.276-0.374,1.738-0.935l1.606,1.145c-0.726,1.001-1.705,1.738-3.41,1.738C-418.09,82.951-419.862,81.268-419.862,78.969z
		"/>
	<path d="M-411.689,79.42v-4.324h2.167v4.28c0,1.111,0.562,1.639,1.419,1.639c0.858,0,1.42-0.506,1.42-1.584v-4.334h2.167v4.269
		c0,2.486-1.419,3.576-3.608,3.576S-411.689,81.829-411.689,79.42z"/>
	<path d="M-401.392,76.966h-2.311v-1.87h6.755v1.87h-2.311v5.831h-2.134v-5.831H-401.392z"/>
	<path d="M-395.992,75.096h2.146v7.701h-2.146V75.096z"/>
	<path d="M-393.077,75.096h2.388l1.749,4.874l1.749-4.874h2.344l-3.124,7.756h-1.98L-393.077,75.096z"/>
	<path d="M-384.123,75.096h6.194v1.815h-4.082v1.166h3.696v1.683h-3.696v1.221h4.137v1.815h-6.249V75.096z"/>
	<path d="M-374.432,78.969v-0.022c0-2.244,1.728-4.004,4.06-4.004c1.573,0,2.585,0.66,3.268,1.606l-1.606,1.243
		c-0.44-0.55-0.946-0.902-1.684-0.902c-1.078,0-1.837,0.913-1.837,2.035v0.022c0,1.155,0.759,2.057,1.837,2.057
		c0.804,0,1.276-0.374,1.738-0.935l1.606,1.145c-0.726,1.001-1.705,1.738-3.41,1.738C-372.661,82.951-374.432,81.268-374.432,78.969
		z"/>
	<path d="M-366.161,75.096h2.135v2.882h2.739v-2.882h2.134v7.701h-2.134v-2.926h-2.739v2.926h-2.135V75.096z"/>
	<path d="M-357.812,75.096h6.194v1.815h-4.082v1.166h3.696v1.683h-3.696v1.221h4.137v1.815h-6.249V75.096z"/>
	<path d="M-350.498,75.096h6.161v1.87h-4.026v1.31h3.642v1.771h-3.642v2.75h-2.135V75.096z"/>
	<path d="M-340.389,74.018h1.694l-4.873,10.188h-1.694L-340.389,74.018z"/>
	<path d="M-338.299,75.096h3.301c1.947,0,3.201,1.001,3.201,2.707v0.022c0,1.815-1.397,2.772-3.312,2.772h-1.056v2.2h-2.135v-7.701
		H-338.299z M-335.153,78.925c0.759,0,1.222-0.396,1.222-1.001v-0.022c0-0.66-0.463-1.012-1.232-1.012h-1.001v2.035H-335.153z"/>
	<path d="M-330.918,75.096h3.642c1.178,0,1.991,0.308,2.509,0.836c0.451,0.44,0.682,1.034,0.682,1.793v0.022
		c0,1.177-0.627,1.958-1.584,2.365l1.837,2.685h-2.464l-1.552-2.333h-0.021h-0.913v2.333h-2.135v-7.701H-330.918z M-327.376,78.793
		c0.726,0,1.144-0.352,1.144-0.913v-0.022c0-0.605-0.439-0.913-1.155-0.913h-1.396v1.849L-327.376,78.793L-327.376,78.793z"/>
	<path d="M-322.988,75.096h2.146v7.701h-2.146V75.096z"/>
	<path d="M-319.457,75.096h1.991l3.169,4.071v-4.071h2.112v7.701h-1.87l-3.29-4.225v4.225h-2.112V75.096z"/>
	<path d="M-308.961,76.966h-2.311v-1.87h6.755v1.87h-2.311v5.831h-2.134v-5.831H-308.961z"/>
	<path d="M-303.605,75.096h2.256l1.837,2.981l1.837-2.981h2.256v7.701h-2.123v-4.423l-1.97,3.015h-0.044l-1.958-2.992v4.4h-2.091
		L-303.605,75.096L-303.605,75.096z"/>
	<path d="M-291.417,75.041h2.058l3.278,7.756h-2.288l-0.561-1.375h-2.971l-0.55,1.375h-2.245L-291.417,75.041z M-289.545,79.761
		l-0.858-2.189l-0.869,2.189H-289.545z"/>
	<path d="M-285.356,75.096h2.135v3.125l2.651-3.125h2.53l-2.916,3.312l3.015,4.39h-2.563l-1.936-2.86l-0.781,0.869v1.991h-2.135
		L-285.356,75.096L-285.356,75.096z"/>
	<path d="M-277.348,75.096h6.194v1.815h-4.082v1.166h3.696v1.683h-3.696v1.221h4.137v1.815h-6.249V75.096z"/>
	<path d="M-270.034,75.096h3.642c1.178,0,1.991,0.308,2.509,0.836c0.451,0.44,0.682,1.034,0.682,1.793v0.022
		c0,1.177-0.627,1.958-1.584,2.365l1.837,2.685h-2.464l-1.552-2.333h-0.021h-0.913v2.333h-2.135v-7.701H-270.034z M-266.491,78.793
		c0.726,0,1.144-0.352,1.144-0.913v-0.022c0-0.605-0.439-0.913-1.155-0.913h-1.396v1.849L-266.491,78.793L-266.491,78.793z"/>
</g>
<g>
	<path opacity="0.5" fill="#B5121C" enable-background="new    " d="M527.101-280.862h2.527l3.903-16.831h-2.848l0.48-2.112h7.423
		c1.761,0,3.168,0.288,4.288,0.896c1.504,0.832,2.432,2.304,2.432,4.064c0,2.848-2.304,4.928-5.312,5.375
		c2.144,0.576,3.872,2.272,3.872,4.512c0,1.696-0.672,3.104-1.856,4.16c-0.96,0.864-2.271,1.472-3.808,1.792
		c-0.863,0.16-1.823,0.256-2.815,0.256h-8.8L527.101-280.862z M535.707-280.83c0.801,0,1.568-0.096,2.208-0.256
		c1.057-0.256,1.856-0.672,2.464-1.312c0.704-0.672,1.024-1.568,1.024-2.624c0-1.984-1.792-3.584-5.28-3.584h-2.335l-1.792,7.775
		h3.711V-280.83z M536.699-290.557c3.712,0,6.176-1.472,6.176-4.096c0-1.056-0.512-1.984-1.632-2.528
		c-0.736-0.352-1.728-0.544-3.008-0.544H535.9l-1.664,7.167h2.463V-290.557z"/>
	<path opacity="0.5" fill="#B5121C" enable-background="new    " d="M550.043-290.429h-2.56l0.479-1.952h4.544l-0.896,3.775
		c1.76-2.592,3.295-4,4.671-4c1.088,0,1.856,0.704,1.856,1.696c0,0.96-0.8,1.76-1.729,1.76c-0.863,0-1.472-0.576-1.632-1.28
		c-1.023,0.512-3.167,2.56-3.903,5.632l-1.536,6.047H547.1L550.043-290.429z"/>
	<path opacity="0.5" fill="#B5121C" enable-background="new    " d="M558.619-284.03c0-4.64,3.296-8.607,7.231-8.607
		c2.24,0,3.84,1.44,4.256,3.392l0.864-3.232h2.144l-2.464,10.015c-0.128,0.544-0.224,1.056-0.224,1.344
		c0,0.64,0.352,0.992,0.896,0.992c0.608,0,1.184-0.544,1.824-2.144l1.12,0.384c-0.736,2.304-1.952,3.36-3.424,3.36
		c-1.536,0-2.528-1.024-2.528-2.496v-0.32c-1.184,1.6-2.848,2.848-4.863,2.848C560.604-278.494,558.619-280.638,558.619-284.03z
		 M569.498-286.942c0-2.208-1.184-3.712-3.423-3.712c-2.977,0-5.088,3.168-5.088,6.464c0,2.24,1.088,3.744,3.199,3.744
		C567.322-280.446,569.498-283.902,569.498-286.942z"/>
	<path opacity="0.5" fill="#B5121C" enable-background="new    " d="M585.723-281.054c0-0.416,0.096-1.056,0.256-1.536l1.28-4.448
		c0.159-0.608,0.224-1.088,0.224-1.6c0-1.216-0.896-2.048-2.208-2.048c-1.823,0-3.871,1.728-4.672,4.992l-1.76,6.943h-2.239
		l2.943-11.679h-2.56l0.479-1.952h4.544l-0.768,3.231c1.184-1.984,2.88-3.456,4.8-3.456c2.176,0,3.743,1.504,3.743,3.712
		c0,0.672-0.128,1.408-0.352,2.144l-1.248,4.416c-0.128,0.416-0.225,0.928-0.225,1.184c0,0.64,0.385,1.024,0.929,1.024
		c0.64,0,1.184-0.544,1.823-2.144l1.12,0.384c-0.704,2.208-1.824,3.36-3.424,3.36C586.746-278.526,585.723-279.582,585.723-281.054z
		"/>
	<path opacity="0.5" fill="#B5121C" enable-background="new    " d="M601.114-292.637c2.176,0,3.871,1.408,4.319,3.296l2.56-10.911
		h-2.592l0.48-1.92h4.8l-4.608,19.71c-0.159,0.576-0.256,1.056-0.256,1.344c0,0.64,0.32,0.992,0.896,0.992
		c0.64,0,1.216-0.544,1.855-2.144l1.12,0.384c-0.736,2.304-1.984,3.36-3.456,3.36c-1.536,0-2.496-1.024-2.496-2.56
		c0-0.096-0.031-0.192,0-0.288c-1.151,1.6-2.815,2.88-4.863,2.88c-2.815,0-4.896-2.144-4.896-5.536
		C593.979-288.798,597.307-292.637,601.114-292.637z M604.89-286.909c0-2.24-1.248-3.744-3.52-3.744
		c-2.944,0-5.023,3.136-5.023,6.432c0,2.24,1.184,3.776,3.295,3.776C602.714-280.446,604.89-283.774,604.89-286.909z"/>
	<path opacity="0.5" fill="#B5121C" enable-background="new    " d="M611.579-284.446c0-4.224,3.296-8.191,7.712-8.191
		c3.743,0,5.92,2.752,5.92,5.952c0,4.256-3.296,8.191-7.712,8.191C613.755-278.494,611.579-281.214,611.579-284.446z
		 M622.939-286.686c0-2.496-1.632-4-3.743-4c-2.977,0-5.344,2.848-5.344,6.271c0,2.464,1.632,3.968,3.743,3.968
		C620.603-280.446,622.939-283.294,622.939-286.686z"/>
	<path opacity="0.5" fill="#B5121C" enable-background="new    " d="M637.051-281.054c0-0.416,0.096-1.056,0.256-1.536l1.28-4.448
		c0.159-0.608,0.224-1.088,0.224-1.6c0-1.216-0.896-2.048-2.208-2.048c-1.823,0-3.871,1.728-4.672,4.992l-1.76,6.943h-2.239
		l2.943-11.679h-2.56l0.479-1.952h4.544l-0.768,3.231c1.184-1.984,2.88-3.456,4.8-3.456c2.176,0,3.743,1.504,3.743,3.712
		c0,0.672-0.128,1.408-0.352,2.144l-1.248,4.416c-0.128,0.416-0.225,0.928-0.225,1.184c0,0.64,0.385,1.024,0.929,1.024
		c0.64,0,1.184-0.544,1.823-2.144l1.12,0.384c-0.704,2.208-1.824,3.36-3.424,3.36C638.074-278.526,637.051-279.582,637.051-281.054z
		"/>
	<path opacity="0.5" fill="#B5121C" enable-background="new    " d="M652.923-287.646c0-6.719,5.408-12.543,11.903-12.543
		c4.928,0,7.552,3.072,7.552,5.152c0,1.408-0.896,2.335-1.92,2.335s-1.696-0.704-1.696-1.6c0-0.608,0.384-1.184,0.928-1.504
		c-0.352-0.992-2.048-2.24-4.959-2.24c-5.44,0-9.344,5.184-9.344,10.175c0,4.607,2.72,7.327,6.783,7.327
		c2.496,0,4.672-1.056,6.592-2.944l1.408,1.472c-2.368,2.432-5.12,3.647-8.224,3.647
		C657.019-278.366,652.923-281.726,652.923-287.646z"/>
	<path opacity="0.5" fill="#B5121C" enable-background="new    " d="M673.082-284.03c0-4.64,3.296-8.607,7.231-8.607
		c2.241,0,3.84,1.44,4.256,3.392l0.864-3.232h2.144l-2.464,10.015c-0.128,0.544-0.224,1.056-0.224,1.344
		c0,0.64,0.352,0.992,0.896,0.992c0.608,0,1.184-0.544,1.824-2.144l1.12,0.384c-0.736,2.304-1.952,3.36-3.424,3.36
		c-1.536,0-2.528-1.024-2.528-2.496v-0.32c-1.184,1.6-2.848,2.848-4.864,2.848C675.067-278.494,673.082-280.638,673.082-284.03z
		 M683.962-286.942c0-2.208-1.184-3.712-3.423-3.712c-2.977,0-5.088,3.168-5.088,6.464c0,2.24,1.088,3.744,3.199,3.744
		C681.785-280.446,683.962-283.902,683.962-286.942z"/>
	<path opacity="0.5" fill="#B5121C" enable-background="new    " d="M694.01-290.429h-2.56l0.479-1.952h4.544l-0.896,3.775
		c1.76-2.592,3.295-4,4.671-4c1.088,0,1.856,0.704,1.856,1.696c0,0.96-0.8,1.76-1.729,1.76c-0.863,0-1.472-0.576-1.632-1.28
		c-1.023,0.512-3.167,2.56-3.903,5.632l-1.536,6.047h-2.239L694.01-290.429z"/>
	<path opacity="0.5" fill="#B5121C" enable-background="new    " d="M708.442-290.429l-1.92,7.808
		c-0.128,0.448-0.192,0.832-0.192,1.184c0,0.608,0.416,1.088,1.088,1.088c0.736,0,1.504-0.384,2.849-1.28l0.832,1.184
		c-1.664,1.344-3.008,1.952-4.288,1.952c-1.6,0-2.815-0.992-2.815-2.592c0-0.448,0.096-0.96,0.256-1.536l1.92-7.808h-2.433
		l0.48-1.952h2.432l0.8-3.2l2.464-0.8l-0.992,4h4.16l-0.48,1.952L708.442-290.429L708.442-290.429z"/>
	<path opacity="0.5" fill="#B5121C" enable-background="new    " d="M716.217-284.894c-0.032,0.224-0.032,0.448-0.032,0.672
		c0,2.4,1.984,3.808,4.353,3.808c1.535,0,2.751-0.32,4.512-1.248l-0.48,2.176c-1.439,0.704-2.624,0.992-4.479,0.992
		c-3.2,0-6.111-2.048-6.111-5.759c0-4.608,3.487-8.384,7.551-8.384c3.168,0,5.216,1.92,5.216,4.992c0,0.832-0.16,1.76-0.512,2.752
		h-10.018V-284.894z M716.57-286.622h7.839c0.16-0.416,0.225-0.896,0.225-1.344c0-1.472-0.992-2.72-3.2-2.72
		C719.29-290.685,717.37-288.99,716.57-286.622z"/>
	<path opacity="0.5" fill="#B5121C" enable-background="new    " d="M732.282-290.429h-2.56l0.479-1.952h4.544l-0.896,3.775
		c1.76-2.592,3.295-4,4.671-4c1.088,0,1.856,0.704,1.856,1.696c0,0.96-0.8,1.76-1.729,1.76c-0.863,0-1.472-0.576-1.632-1.28
		c-1.023,0.512-3.167,2.56-3.903,5.632l-1.536,6.047h-2.239L732.282-290.429z"/>
</g>
<g>
	<path d="M1.333,7.959L2.521,6.54C3.28,7.145,4.128,7.464,5.018,7.464c0.572,0,0.88-0.198,0.88-0.528V6.914
		c0-0.319-0.253-0.495-1.298-0.737c-1.64-0.374-2.904-0.836-2.904-2.42V3.734c0-1.43,1.133-2.464,2.981-2.464
		c1.309,0,2.332,0.352,3.168,1.023L6.779,3.8C6.075,3.305,5.304,3.041,4.623,3.041c-0.518,0-0.771,0.22-0.771,0.495v0.022
		c0,0.352,0.264,0.506,1.331,0.748c1.771,0.385,2.871,0.958,2.871,2.398v0.022c0,1.573-1.243,2.508-3.113,2.508
		C3.577,9.235,2.279,8.806,1.333,7.959z"/>
	<path d="M8.802,5.274V5.252c0-2.211,1.782-4.004,4.158-4.004c2.377,0,4.137,1.771,4.137,3.982v0.022
		c0,2.211-1.782,4.004-4.158,4.004C10.562,9.257,8.802,7.486,8.802,5.274z M14.92,5.274V5.252c0-1.111-0.804-2.079-1.98-2.079
		c-1.166,0-1.947,0.946-1.947,2.057v0.022c0,1.111,0.803,2.079,1.969,2.079C14.138,7.332,14.92,6.386,14.92,5.274z"/>
	<path d="M18.087,5.726V1.402h2.167v4.28c0,1.111,0.562,1.639,1.419,1.639c0.858,0,1.42-0.506,1.42-1.584V1.402h2.167V5.67
		c0,2.486-1.419,3.576-3.608,3.576S18.087,8.135,18.087,5.726z"/>
	<path d="M25.919,7.959l1.188-1.419c0.759,0.605,1.606,0.924,2.497,0.924c0.572,0,0.88-0.198,0.88-0.528V6.914
		c0-0.319-0.253-0.495-1.298-0.737c-1.64-0.374-2.904-0.836-2.904-2.42V3.734c0-1.43,1.133-2.464,2.981-2.464
		c1.309,0,2.332,0.352,3.168,1.023L31.365,3.8c-0.704-0.495-1.475-0.759-2.156-0.759c-0.518,0-0.771,0.22-0.771,0.495v0.022
		c0,0.352,0.264,0.506,1.331,0.748c1.771,0.385,2.871,0.958,2.871,2.398v0.022c0,1.573-1.243,2.508-3.113,2.508
		C28.163,9.235,26.865,8.806,25.919,7.959z"/>
	<path d="M36.028,5.274V5.252c0-2.244,1.728-4.004,4.06-4.004c1.573,0,2.585,0.66,3.268,1.606L41.75,4.097
		c-0.44-0.55-0.946-0.902-1.684-0.902c-1.078,0-1.837,0.913-1.837,2.035v0.022c0,1.155,0.759,2.057,1.837,2.057
		c0.804,0,1.276-0.374,1.738-0.935l1.606,1.145C42.684,8.52,41.705,9.257,40,9.257C37.799,9.257,36.028,7.574,36.028,5.274z"/>
	<path d="M44.299,1.402h2.135v2.882h2.739V1.402h2.134v7.701h-2.134V6.177h-2.739v2.926h-2.135V1.402z"/>
	<path d="M52.648,1.402h6.194v1.815H54.76v1.166h3.696v1.683H54.76v1.221h4.137v1.815h-6.249V1.402z"/>
	<path d="M59.963,1.402h6.161v1.87h-4.026v1.31h3.642v1.771h-3.642v2.75h-2.135V1.402z"/>
</g>
<g>
	<path opacity="0.5" fill="#B5121C" enable-background="new    " d="M477.617,72.031h2.528l4.672-16.831h-2.912l0.479-2.112h4.992
		l3.52,14.399l10.016-14.399h5.056l-0.48,2.112h-2.624l-3.136,16.831h2.912l-0.512,2.112h-7.744l0.48-2.112h2.527l2.88-14.719
		l-9.919,14.079h-0.416l-3.584-14.079l-3.871,14.719h2.848l-0.48,2.112h-7.743L477.617,72.031z"/>
	<path opacity="0.5" fill="#B5121C" enable-background="new    " d="M506.129,68.863c0-4.64,3.296-8.607,7.231-8.607
		c2.24,0,3.84,1.44,4.256,3.392l0.864-3.232h2.144l-2.464,10.015c-0.128,0.544-0.224,1.056-0.224,1.344
		c0,0.64,0.352,0.992,0.896,0.992c0.608,0,1.184-0.544,1.824-2.144l1.12,0.384c-0.736,2.304-1.952,3.36-3.424,3.36
		c-1.536,0-2.528-1.024-2.528-2.496v-0.32c-1.184,1.6-2.848,2.848-4.863,2.848C508.113,74.399,506.129,72.255,506.129,68.863z
		 M517.008,65.952c0-2.208-1.184-3.712-3.423-3.712c-2.977,0-5.088,3.168-5.088,6.464c0,2.24,1.088,3.744,3.199,3.744
		C514.832,72.447,517.008,68.991,517.008,65.952z"/>
	<path opacity="0.5" fill="#B5121C" enable-background="new    " d="M527.056,62.464h-2.56l0.479-1.952h4.544l-0.896,3.775
		c1.76-2.592,3.295-4,4.671-4c1.088,0,1.856,0.704,1.856,1.696c0,0.96-0.8,1.76-1.729,1.76c-0.863,0-1.472-0.576-1.632-1.28
		c-1.023,0.512-3.167,2.56-3.903,5.632l-1.536,6.047h-2.239L527.056,62.464z"/>
	<path opacity="0.5" fill="#B5121C" enable-background="new    " d="M535.76,74.143l4.992-21.502h-2.592l0.479-1.92h4.768
		l-3.84,16.479c4-1.632,6.112-3.072,6.656-3.936c-0.48-0.256-0.801-0.832-0.801-1.312c0-0.96,0.704-1.696,1.664-1.696
		c0.896,0,1.632,0.704,1.632,1.824c0,1.952-2.432,3.904-5.631,5.439l1.439,3.424c0.288,0.768,0.512,1.216,0.736,1.472
		c0.256,0.288,0.479,0.32,0.735,0.32c0.512,0,1.024-0.512,1.504-2.496l1.185,0.352c-0.673,3.008-1.792,3.776-3.072,3.776
		c-0.672,0-1.248-0.16-1.792-0.64c-0.448-0.384-0.832-0.96-1.184-1.824l-1.536-3.712c-0.64,0.288-1.312,0.576-1.888,0.8
		l-1.216,5.152C537.998,74.143,535.76,74.143,535.76,74.143z"/>
	<path opacity="0.5" fill="#B5121C" enable-background="new    " d="M557.2,72.031h2.527L563.63,55.2h-2.848l0.48-2.112h7.808
		l-0.48,2.112h-2.592l-1.632,7.104h11.423l1.601-7.104h-2.912l0.512-2.112h7.808l-0.479,2.112h-2.528l-3.903,16.831h2.848
		l-0.512,2.112h-7.808l0.479-2.112h2.592l1.824-7.615h-11.455l-1.76,7.615h2.911l-0.479,2.112h-7.84L557.2,72.031z"/>
	<path opacity="0.5" fill="#B5121C" enable-background="new    " d="M583.216,71.807c0-0.384,0.128-0.992,0.256-1.472l2.144-7.872
		h-2.655l0.512-1.952h4.896l-2.688,9.919c-0.128,0.512-0.225,1.056-0.225,1.344c0,0.64,0.385,0.992,0.929,0.992
		c0.672,0,1.247-0.544,1.855-2.144l1.12,0.384c-0.736,2.304-1.888,3.36-3.456,3.36C584.239,74.367,583.216,73.343,583.216,71.807z
		 M586.031,56.256c0-0.896,0.736-1.632,1.632-1.632c0.864,0,1.6,0.736,1.6,1.632s-0.735,1.632-1.6,1.632
		C586.767,57.888,586.031,57.152,586.031,56.256z"/>
	<path opacity="0.5" fill="#B5121C" enable-background="new    " d="M601.103,71.839c0-0.416,0.096-1.056,0.256-1.536l1.28-4.448
		c0.159-0.608,0.224-1.088,0.224-1.6c0-1.216-0.896-2.048-2.208-2.048c-1.823,0-3.871,1.728-4.672,4.992l-1.76,6.943h-2.239
		l2.943-11.679h-2.56l0.479-1.952h4.544l-0.768,3.231c1.184-1.984,2.88-3.456,4.8-3.456c2.176,0,3.743,1.504,3.743,3.712
		c0,0.672-0.128,1.408-0.352,2.144l-1.248,4.416c-0.128,0.416-0.225,0.928-0.225,1.184c0,0.64,0.385,1.024,0.929,1.024
		c0.64,0,1.184-0.544,1.823-2.144l1.12,0.384c-0.704,2.208-1.824,3.36-3.424,3.36C602.127,74.367,601.103,73.311,601.103,71.839z"/>
	<path opacity="0.5" fill="#B5121C" enable-background="new    " d="M609.296,68.512c0-4.32,3.521-8.256,7.808-8.256
		c3.2,0,4.928,1.952,4.928,3.648c0,1.056-0.704,1.92-1.695,1.92c-0.673,0-1.376-0.48-1.376-1.44c0-0.352,0.224-0.896,0.64-1.152
		c-0.48-0.64-1.312-1.024-2.56-1.024c-2.816,0-5.472,2.688-5.472,6.175c0,2.432,1.6,4.064,4.128,4.064
		c1.567,0,3.199-0.64,4.543-1.792l-0.063,2.176c-1.344,0.992-2.944,1.568-4.736,1.568C611.984,74.399,609.296,72.191,609.296,68.512
		z"/>
	<path opacity="0.5" fill="#B5121C" enable-background="new    " d="M628.752,52.641h-2.592l0.479-1.92h4.768l-2.943,12.607
		c1.023-1.568,2.624-3.04,4.543-3.04c2.177,0,3.84,1.504,3.872,3.712c0,0.672-0.128,1.408-0.352,2.144l-1.185,4.416
		c-0.128,0.448-0.191,0.928-0.191,1.184c0,0.64,0.384,1.024,0.928,1.024c0.64,0,1.184-0.544,1.792-2.144l1.12,0.384
		c-0.672,2.208-1.76,3.36-3.36,3.36c-1.664,0-2.72-1.056-2.72-2.528c0-0.416,0.096-0.992,0.225-1.504l1.216-4.48
		c0.159-0.608,0.224-1.088,0.224-1.6c-0.032-1.216-0.96-2.048-2.271-2.048c-1.856,0-3.937,1.728-4.704,4.992l-1.6,6.943h-2.24
		L628.752,52.641z"/>
	<path opacity="0.5" fill="#B5121C" enable-background="new    " d="M641.359,71.807c0-0.384,0.096-0.896,0.224-1.408l4.128-17.759
		h-2.56l0.479-1.92h4.768l-4.575,19.679c-0.097,0.512-0.225,1.056-0.225,1.344c0,0.672,0.353,1.024,0.896,1.024
		c0.672,0,1.248-0.544,1.888-2.144l1.12,0.384c-0.736,2.304-1.92,3.36-3.488,3.36C642.383,74.367,641.359,73.343,641.359,71.807z"/>
	<path opacity="0.5" fill="#B5121C" enable-background="new    " d="M650.672,71.807c0-0.384,0.128-0.992,0.256-1.472l2.144-7.872
		h-2.655l0.512-1.952h4.896l-2.688,9.919c-0.128,0.512-0.225,1.056-0.225,1.344c0,0.64,0.385,0.992,0.929,0.992
		c0.672,0,1.247-0.544,1.855-2.144l1.12,0.384c-0.736,2.304-1.888,3.36-3.456,3.36C651.695,74.367,650.672,73.343,650.672,71.807z
		 M653.487,56.256c0-0.896,0.736-1.632,1.632-1.632c0.864,0,1.6,0.736,1.6,1.632s-0.735,1.632-1.6,1.632
		C654.223,57.888,653.487,57.152,653.487,56.256z"/>
	<path opacity="0.5" fill="#B5121C" enable-background="new    " d="M668.27,53.281c-0.352,0.064-0.736,0.288-1.056,0.576
		c-0.608,0.608-1.088,1.696-1.408,3.136l-0.8,3.52h6.464l1.056-4.544c0.448-1.856,1.088-3.104,2.048-4.063
		c0.8-0.768,2.016-1.344,3.456-1.344c1.6,0,2.56,0.8,2.56,1.888c0,0.928-0.769,1.568-1.568,1.568c-0.863,0-1.472-0.608-1.535-1.472
		c-0.48,0.064-0.992,0.288-1.408,0.672c-0.608,0.576-1.088,1.664-1.408,3.04l-0.992,4.256h3.584l-0.479,1.952h-3.552l-2.688,11.679
		h-2.207l2.688-11.679h-6.464l-2.688,11.679h-2.208l2.688-11.679h-2.432l0.48-1.952h2.399l0.896-3.872
		c0.447-1.952,1.056-3.104,2.016-4.063c0.8-0.8,1.983-1.344,3.199-1.344c1.504,0,2.4,0.768,2.4,1.824
		c0,0.896-0.704,1.536-1.504,1.536C668.974,54.592,668.335,54.081,668.27,53.281z"/>
	<path opacity="0.5" fill="#B5121C" enable-background="new    " d="M679.566,68c-0.032,0.224-0.032,0.448-0.032,0.672
		c0,2.4,1.984,3.808,4.353,3.808c1.535,0,2.751-0.32,4.512-1.248l-0.48,2.176c-1.439,0.704-2.624,0.992-4.479,0.992
		c-3.2,0-6.111-2.048-6.111-5.759c0-4.608,3.487-8.384,7.551-8.384c3.168,0,5.216,1.92,5.216,4.992c0,0.832-0.16,1.76-0.512,2.752
		L679.566,68L679.566,68z M679.919,66.271h7.839c0.16-0.416,0.225-0.896,0.225-1.344c0-1.472-0.992-2.72-3.2-2.72
		C682.638,62.208,680.718,63.904,679.919,66.271z"/>
</g>
<rect x="606.965" y="106.378" fill="none" width="302.143" height="42.547"/>
<text transform="matrix(1 0 0 1 606.9645 114.4093)" font-family="'ArialMT'" font-size="11">Writer/Illustrator</text>
<g>
	<path opacity="0.5" fill="#B5121C" enable-background="new    " d="M521.883,257.299h1.92l10.047-16.862h-2.496l0.48-2.08h9.663
		l-0.48,2.08h-2.399l2.24,16.862h2.239l-0.512,2.112h-6.88l0.48-2.08h2.336l-0.641-5.184h-8.575l-3.071,5.184h2.783l-0.512,2.08
		h-7.136L521.883,257.299z M537.594,250.099l-1.248-9.823l-5.824,9.823H537.594z"/>
	<path opacity="0.5" fill="#B5121C" enable-background="new    " d="M554.617,257.107c0-0.416,0.096-1.057,0.256-1.536l1.28-4.448
		c0.159-0.607,0.224-1.088,0.224-1.6c0-1.216-0.896-2.048-2.208-2.048c-1.823,0-3.871,1.729-4.672,4.992l-1.76,6.943h-2.239
		l2.943-11.68h-2.56l0.479-1.951h4.544l-0.768,3.231c1.184-1.984,2.88-3.456,4.8-3.456c2.176,0,3.743,1.504,3.743,3.712
		c0,0.672-0.128,1.408-0.352,2.144l-1.248,4.416c-0.128,0.416-0.225,0.928-0.225,1.184c0,0.641,0.385,1.024,0.929,1.024
		c0.64,0,1.184-0.544,1.823-2.144l1.12,0.384c-0.704,2.208-1.824,3.359-3.424,3.359
		C555.641,259.635,554.617,258.579,554.617,257.107z"/>
	<path opacity="0.5" fill="#B5121C" enable-background="new    " d="M570.01,245.523c2.176,0,3.871,1.408,4.319,3.296l2.56-10.911
		h-2.592l0.48-1.92h4.8l-4.608,19.711c-0.16,0.576-0.256,1.056-0.256,1.344c0,0.64,0.32,0.992,0.896,0.992
		c0.64,0,1.216-0.544,1.855-2.144l1.12,0.384c-0.736,2.304-1.984,3.359-3.456,3.359c-1.536,0-2.496-1.023-2.496-2.56
		c0-0.096-0.031-0.192,0-0.288c-1.151,1.6-2.815,2.88-4.863,2.88c-2.815,0-4.896-2.144-4.896-5.536
		C562.874,249.363,566.202,245.523,570.01,245.523z M573.785,251.252c0-2.24-1.248-3.744-3.52-3.744
		c-2.944,0-5.023,3.136-5.023,6.432c0,2.239,1.184,3.775,3.295,3.775C571.609,257.715,573.785,254.388,573.785,251.252z"/>
	<path opacity="0.5" fill="#B5121C" enable-background="new    " d="M583.834,247.731h-2.56l0.479-1.951h4.544l-0.896,3.775
		c1.76-2.592,3.295-4,4.671-4c1.088,0,1.856,0.704,1.856,1.696c0,0.96-0.8,1.76-1.729,1.76c-0.863,0-1.472-0.576-1.632-1.28
		c-1.023,0.513-3.167,2.561-3.903,5.632l-1.536,6.048h-2.239L583.834,247.731z"/>
	<path opacity="0.5" fill="#B5121C" enable-background="new    " d="M594.586,253.267c-0.032,0.224-0.032,0.447-0.032,0.672
		c0,2.399,1.984,3.808,4.353,3.808c1.535,0,2.751-0.32,4.512-1.248l-0.48,2.176c-1.439,0.704-2.624,0.992-4.479,0.992
		c-3.2,0-6.111-2.048-6.111-5.76c0-4.607,3.487-8.384,7.551-8.384c3.168,0,5.216,1.92,5.216,4.992c0,0.832-0.16,1.76-0.512,2.752
		L594.586,253.267L594.586,253.267z M594.939,251.539h7.839c0.16-0.416,0.225-0.896,0.225-1.344c0-1.472-0.992-2.72-3.2-2.72
		C597.658,247.475,595.738,249.172,594.939,251.539z"/>
	<path opacity="0.5" fill="#B5121C" enable-background="new    " d="M609.625,247.731h-2.496l0.512-1.951h3.936l0.704,10.687
		l5.151-9.023h1.088l1.984,9.344c2.016-2.976,3.68-5.92,3.936-7.936c-0.672-0.16-1.344-0.704-1.344-1.632s0.704-1.696,1.664-1.696
		c1.056,0,1.855,0.801,1.855,2.112c0,2.527-2.208,6.72-6.176,12.223h-1.119l-1.92-8.863l-5.376,8.863h-1.248L609.625,247.731z"/>
	<path opacity="0.5" fill="#B5121C" enable-background="new    " d="M634.97,257.299h2.527l3.903-16.831h-2.848l0.48-2.111h7.808
		l-0.48,2.111h-2.592l-1.632,7.104h11.423l1.601-7.104h-2.912l0.512-2.111h7.808l-0.479,2.111h-2.528l-3.903,16.831h2.848
		l-0.512,2.112h-7.808l0.479-2.112h2.592l1.824-7.615h-11.455l-1.76,7.615h2.911l-0.479,2.112h-7.84L634.97,257.299z"/>
	<path opacity="0.5" fill="#B5121C" enable-background="new    " d="M660.218,253.715c0-4.224,3.296-8.191,7.712-8.191
		c3.743,0,5.92,2.752,5.92,5.952c0,4.256-3.296,8.191-7.712,8.191C662.394,259.667,660.218,256.947,660.218,253.715z
		 M671.577,251.475c0-2.496-1.632-4-3.743-4c-2.977,0-5.344,2.848-5.344,6.271c0,2.464,1.632,3.968,3.743,3.968
		C669.241,257.715,671.577,254.867,671.577,251.475z"/>
	<path opacity="0.5" fill="#B5121C" enable-background="new    " d="M676.826,257.075c0-0.384,0.096-0.896,0.224-1.408l4.128-17.759
		h-2.56l0.479-1.92h4.768l-4.575,19.679c-0.097,0.512-0.225,1.056-0.225,1.344c0,0.672,0.353,1.024,0.896,1.024
		c0.672,0,1.248-0.544,1.888-2.144l1.12,0.384c-0.736,2.304-1.92,3.359-3.488,3.359C677.85,259.635,676.826,258.611,676.826,257.075
		z"/>
	<path opacity="0.5" fill="#B5121C" enable-background="new    " d="M690.616,247.731l-1.92,7.808
		c-0.128,0.448-0.192,0.832-0.192,1.184c0,0.608,0.416,1.088,1.088,1.088c0.736,0,1.504-0.384,2.849-1.279l0.831,1.184
		c-1.663,1.344-3.007,1.952-4.287,1.952c-1.6,0-2.815-0.992-2.815-2.592c0-0.448,0.096-0.96,0.256-1.536l1.92-7.808h-2.433
		l0.48-1.951h2.432l0.8-3.2l2.464-0.8l-0.992,4h4.16l-0.48,1.951L690.616,247.731L690.616,247.731z"/>
	<path opacity="0.5" fill="#B5121C" enable-background="new    " d="M695.065,258.515l11.263-10.911h-6.495l-0.641,2.624h-1.983
		l1.088-4.447h10.623l0.64,1.184l-10.879,10.527c0.672-0.256,1.248-0.353,2.016-0.353c1.44,0,2.752,0.608,3.968,0.608
		c1.376,0,1.792-0.672,2.496-2.688l1.088,0.256c-0.608,2.592-1.28,4.352-3.712,4.352c-1.567,0-3.584-0.864-5.247-0.864
		c-1.473,0-2.4,0.32-3.393,0.832L695.065,258.515z"/>
</g>
<rect x="606.965" y="291.232" fill="none" width="302.143" height="42.547"/>
<text transform="matrix(1 0 0 1 606.9645 299.2636)" font-family="'ArialMT'" font-size="11">Photographer</text>
<g>
	<path opacity="0.5" fill="#B5121C" enable-background="new    " d="M506.922,437.838h2.527l3.903-16.831h-2.848l0.48-2.112h6.911
		c0.992,0,1.888,0.096,2.656,0.32c3.008,0.768,4.479,2.912,4.479,5.536c0,4.096-3.2,7.615-8.768,7.615
		c-1.184,0-2.496-0.032-3.136-0.064l-1.312,5.536h2.911l-0.479,2.112h-7.84L506.922,437.838z M522.632,424.911
		c0-1.792-0.959-3.136-2.943-3.68c-0.608-0.16-1.312-0.224-2.048-0.224h-1.92l-2.111,9.184c0.735,0.064,1.823,0.096,2.976,0.096
		C520.649,430.287,522.632,427.663,522.632,424.911z"/>
	<path opacity="0.5" fill="#B5121C" enable-background="new    " d="M525.129,434.67c0-4.64,3.296-8.607,7.231-8.607
		c2.24,0,3.84,1.44,4.256,3.392l0.864-3.232h2.144l-2.464,10.015c-0.128,0.544-0.224,1.056-0.224,1.344
		c0,0.64,0.352,0.992,0.896,0.992c0.608,0,1.184-0.544,1.824-2.144l1.12,0.384c-0.736,2.304-1.952,3.36-3.424,3.36
		c-1.536,0-2.528-1.024-2.528-2.496v-0.32c-1.184,1.6-2.848,2.848-4.863,2.848C527.113,440.206,525.129,438.062,525.129,434.67z
		 M536.008,431.758c0-2.208-1.184-3.712-3.423-3.712c-2.977,0-5.088,3.168-5.088,6.464c0,2.24,1.088,3.744,3.199,3.744
		C533.832,438.254,536.008,434.798,536.008,431.758z"/>
	<path opacity="0.5" fill="#B5121C" enable-background="new    " d="M548.681,426.319l-2.208,8.543
		c-0.128,0.448-0.192,0.959-0.192,1.472c0,1.152,0.801,1.952,2.08,1.952c1.888,0,3.936-1.792,4.736-4.992l1.728-6.975h2.239
		l-2.463,9.919c-0.16,0.544-0.257,1.056-0.257,1.344c0,0.64,0.385,0.992,0.929,0.992c0.607,0,1.184-0.544,1.823-2.144l1.12,0.384
		c-0.736,2.304-1.952,3.36-3.456,3.36s-2.495-0.992-2.495-2.592c0-0.192,0.031-0.384,0.063-0.64
		c-1.151,1.856-2.815,3.232-4.735,3.232c-2.048,0-3.616-1.344-3.616-3.456c0-0.704,0.128-1.408,0.288-2.048l1.664-6.399h-2.56
		l0.512-1.952L548.681,426.319L548.681,426.319z"/>
	<path opacity="0.5" fill="#B5121C" enable-background="new    " d="M560.778,437.614c0-0.384,0.096-0.896,0.224-1.408l4.128-17.759
		h-2.56l0.479-1.92h4.768l-4.575,19.679c-0.097,0.512-0.225,1.056-0.225,1.344c0,0.672,0.353,1.024,0.896,1.024
		c0.672,0,1.248-0.544,1.888-2.144l1.12,0.384c-0.736,2.304-1.92,3.36-3.488,3.36C561.801,440.174,560.778,439.15,560.778,437.614z"
		/>
	<path opacity="0.5" fill="#B5121C" enable-background="new    " d="M575.306,437.838h2.527l3.903-16.831h-2.848l0.48-2.112h7.808
		l-0.48,2.112h-2.592l-1.632,7.104h11.423l1.601-7.104h-2.912l0.512-2.112h7.808l-0.479,2.112h-2.528l-3.903,16.831h2.848
		l-0.512,2.112h-7.808l0.479-2.112h2.592l1.824-7.615h-11.455l-1.76,7.615h2.911l-0.479,2.112h-7.84L575.306,437.838z"/>
	<path opacity="0.5" fill="#B5121C" enable-background="new    " d="M600.553,434.254c0-4.224,3.296-8.191,7.712-8.191
		c3.743,0,5.92,2.752,5.92,5.952c0,4.256-3.296,8.191-7.712,8.191C602.729,440.206,600.553,437.486,600.553,434.254z
		 M611.912,432.014c0-2.496-1.632-4-3.743-4c-2.977,0-5.344,2.848-5.344,6.271c0,2.464,1.632,3.968,3.743,3.968
		C609.576,438.254,611.912,435.406,611.912,432.014z"/>
	<path opacity="0.5" fill="#B5121C" enable-background="new    " d="M617.161,437.614c0-0.384,0.096-0.896,0.224-1.408l4.128-17.759
		h-2.56l0.479-1.92h4.768l-4.575,19.679c-0.097,0.512-0.225,1.056-0.225,1.344c0,0.672,0.353,1.024,0.896,1.024
		c0.672,0,1.248-0.544,1.888-2.144l1.12,0.384c-0.736,2.304-1.92,3.36-3.488,3.36C618.185,440.174,617.161,439.15,617.161,437.614z"
		/>
	<path opacity="0.5" fill="#B5121C" enable-background="new    " d="M624.585,439.054l11.263-10.911h-6.495l-0.641,2.624h-1.983
		l1.088-4.448h10.623l0.64,1.184L628.2,438.03c0.672-0.256,1.248-0.352,2.016-0.352c1.44,0,2.752,0.608,3.968,0.608
		c1.376,0,1.792-0.672,2.496-2.688l1.088,0.256c-0.608,2.592-1.28,4.352-3.712,4.352c-1.567,0-3.584-0.864-5.247-0.864
		c-1.473,0-2.4,0.32-3.392,0.832L624.585,439.054z"/>
	<path opacity="0.5" fill="#B5121C" enable-background="new    " d="M645.416,418.447h-2.592l0.479-1.92h4.768l-2.943,12.607
		c1.023-1.568,2.624-3.04,4.543-3.04c2.177,0,3.84,1.504,3.872,3.712c0,0.672-0.128,1.408-0.352,2.144l-1.185,4.416
		c-0.128,0.448-0.191,0.928-0.191,1.184c0,0.64,0.384,1.024,0.928,1.024c0.64,0,1.184-0.544,1.792-2.144l1.12,0.384
		c-0.672,2.208-1.76,3.36-3.36,3.36c-1.664,0-2.72-1.056-2.72-2.528c0-0.416,0.096-0.992,0.225-1.504l1.216-4.48
		c0.159-0.608,0.224-1.088,0.224-1.6c-0.032-1.216-0.96-2.048-2.271-2.048c-1.856,0-3.937,1.728-4.704,4.992l-1.6,6.943h-2.24
		L645.416,418.447z"/>
	<path opacity="0.5" fill="#B5121C" enable-background="new    " d="M659.879,433.806c-0.032,0.224-0.032,0.448-0.032,0.672
		c0,2.4,1.984,3.808,4.353,3.808c1.535,0,2.751-0.32,4.512-1.248l-0.48,2.176c-1.439,0.704-2.624,0.992-4.479,0.992
		c-3.2,0-6.111-2.048-6.111-5.759c0-4.608,3.487-8.384,7.551-8.384c3.168,0,5.216,1.92,5.216,4.992c0,0.832-0.16,1.76-0.512,2.752
		h-10.018V433.806z M660.232,432.078h7.839c0.16-0.416,0.225-0.896,0.225-1.344c0-1.472-0.992-2.72-3.2-2.72
		C662.951,428.015,661.031,429.711,660.232,432.078z"/>
	<path opacity="0.5" fill="#B5121C" enable-background="new    " d="M673.672,437.614c0-0.384,0.128-0.992,0.256-1.472l2.144-7.872
		h-2.655l0.512-1.952h4.896l-2.688,9.919c-0.128,0.512-0.225,1.056-0.225,1.344c0,0.64,0.385,0.992,0.929,0.992
		c0.672,0,1.247-0.544,1.855-2.144l1.12,0.384c-0.736,2.304-1.888,3.36-3.456,3.36C674.695,440.174,673.672,439.15,673.672,437.614z
		 M676.487,422.063c0-0.896,0.736-1.632,1.632-1.632c0.864,0,1.6,0.736,1.6,1.632s-0.735,1.632-1.6,1.632
		C677.224,423.695,676.487,422.959,676.487,422.063z"/>
	<path opacity="0.5" fill="#B5121C" enable-background="new    " d="M685.383,428.271h-2.56l0.479-1.952h4.544l-0.8,3.231
		c1.216-1.984,2.88-3.456,4.672-3.456c2.048,0,3.424,1.312,3.52,3.424c1.28-2.112,3.008-3.424,4.735-3.424
		c2.048,0,3.552,1.504,3.552,3.712c0,0.672-0.128,1.408-0.352,2.144l-1.28,4.416c-0.096,0.416-0.191,0.928-0.191,1.184
		c0,0.64,0.384,1.024,0.928,1.024c0.607,0,1.184-0.544,1.823-2.144l1.12,0.384c-0.704,2.208-1.823,3.36-3.424,3.36
		c-1.664,0-2.688-1.056-2.688-2.528c0-0.416,0.096-1.056,0.256-1.536l1.248-4.384c0.16-0.64,0.256-1.152,0.256-1.664
		c0-1.248-0.8-2.048-1.983-2.048c-1.76,0-3.712,1.76-4.576,5.087l-1.76,6.848h-2.24l2.112-8.191c0.16-0.672,0.256-1.216,0.256-1.728
		c0-1.152-0.8-2.016-2.016-2.016c-1.728,0-3.808,1.76-4.607,5.056l-1.729,6.879h-2.239L685.383,428.271z"/>
	<path opacity="0.5" fill="#B5121C" enable-background="new    " d="M709.862,433.806c-0.032,0.224-0.032,0.448-0.032,0.672
		c0,2.4,1.984,3.808,4.353,3.808c1.535,0,2.751-0.32,4.512-1.248l-0.48,2.176c-1.439,0.704-2.624,0.992-4.479,0.992
		c-3.2,0-6.111-2.048-6.111-5.759c0-4.608,3.487-8.384,7.551-8.384c3.168,0,5.216,1.92,5.216,4.992c0,0.832-0.16,1.76-0.512,2.752
		h-10.018V433.806z M710.215,432.078h7.839c0.16-0.416,0.225-0.896,0.225-1.344c0-1.472-0.992-2.72-3.2-2.72
		C712.935,428.015,711.015,429.711,710.215,432.078z"/>
	<path opacity="0.5" fill="#B5121C" enable-background="new    " d="M725.926,428.271h-2.56l0.479-1.952h4.544l-0.896,3.775
		c1.76-2.592,3.296-4,4.671-4c1.088,0,1.856,0.704,1.856,1.696c0,0.96-0.8,1.76-1.729,1.76c-0.863,0-1.472-0.576-1.632-1.28
		c-1.023,0.512-3.167,2.56-3.903,5.632l-1.536,6.047h-2.239L725.926,428.271z"/>
</g>
<rect x="606.965" y="478.207" fill="none" width="302.143" height="42.547"/>
<text transform="matrix(1 0 0 1 606.9645 486.2385)" font-family="'ArialMT'" font-size="11">Executive Chef</text>
<rect x="606.965" y="666.28" fill="none" width="302.143" height="42.547"/>
<text transform="matrix(1 0 0 1 606.9645 674.3117)" font-family="'ArialMT'" font-size="11">Oven Cook/Artist</text>
<g>
	<path opacity="0.5" fill="#B5121C" enable-background="new    " d="M466.355,613.797h2.528l4.672-16.831h-2.912l0.479-2.112h4.992
		l3.52,14.399l10.016-14.399h5.056l-0.48,2.112h-2.624l-3.136,16.831h2.912l-0.512,2.112h-7.744l0.48-2.112h2.527l2.88-14.719
		l-9.919,14.079h-0.416l-3.584-14.079l-3.871,14.719h2.848l-0.48,2.112h-7.743L466.355,613.797z"/>
	<path opacity="0.5" fill="#B5121C" enable-background="new    " d="M495.603,613.573c0-0.384,0.128-0.992,0.256-1.472l2.144-7.872
		h-2.655l0.512-1.952h4.896l-2.688,9.919c-0.128,0.512-0.225,1.056-0.225,1.344c0,0.64,0.385,0.992,0.929,0.992
		c0.672,0,1.247-0.544,1.855-2.144l1.12,0.384c-0.736,2.304-1.888,3.36-3.456,3.36C496.627,616.133,495.603,615.109,495.603,613.573
		z M498.419,598.022c0-0.896,0.736-1.632,1.632-1.632c0.864,0,1.6,0.736,1.6,1.632s-0.735,1.632-1.6,1.632
		C499.155,599.654,498.419,598.918,498.419,598.022z"/>
	<path opacity="0.5" fill="#B5121C" enable-background="new    " d="M504.274,610.278c0-4.32,3.521-8.256,7.808-8.256
		c3.2,0,4.928,1.952,4.928,3.648c0,1.056-0.704,1.92-1.695,1.92c-0.673,0-1.376-0.48-1.376-1.44c0-0.352,0.224-0.896,0.64-1.152
		c-0.48-0.64-1.312-1.024-2.56-1.024c-2.816,0-5.472,2.688-5.472,6.175c0,2.432,1.6,4.064,4.128,4.064
		c1.567,0,3.199-0.64,4.543-1.792l-0.063,2.176c-1.344,0.992-2.944,1.568-4.736,1.568
		C506.963,616.165,504.274,613.957,504.274,610.278z"/>
	<path opacity="0.5" fill="#B5121C" enable-background="new    " d="M523.73,594.407h-2.592l0.479-1.92h4.768l-2.943,12.607
		c1.023-1.568,2.624-3.04,4.543-3.04c2.177,0,3.84,1.504,3.872,3.712c0,0.672-0.128,1.408-0.352,2.144l-1.185,4.416
		c-0.128,0.448-0.191,0.928-0.191,1.184c0,0.64,0.384,1.024,0.928,1.024c0.64,0,1.184-0.544,1.792-2.144l1.12,0.384
		c-0.672,2.208-1.76,3.36-3.36,3.36c-1.664,0-2.72-1.056-2.72-2.528c0-0.416,0.096-0.992,0.225-1.504l1.216-4.48
		c0.159-0.608,0.224-1.088,0.224-1.6c-0.032-1.216-0.96-2.048-2.271-2.048c-1.856,0-3.937,1.728-4.704,4.992l-1.6,6.943h-2.24
		L523.73,594.407z"/>
	<path opacity="0.5" fill="#B5121C" enable-background="new    " d="M536.018,610.629c0-4.64,3.296-8.607,7.231-8.607
		c2.24,0,3.84,1.44,4.256,3.392l0.864-3.232h2.144l-2.464,10.015c-0.128,0.544-0.224,1.056-0.224,1.344
		c0,0.64,0.352,0.992,0.896,0.992c0.608,0,1.184-0.544,1.824-2.144l1.12,0.384c-0.736,2.304-1.952,3.36-3.424,3.36
		c-1.536,0-2.528-1.024-2.528-2.496v-0.32c-1.184,1.6-2.848,2.848-4.863,2.848C538.002,616.165,536.018,614.021,536.018,610.629z
		 M546.896,607.718c0-2.208-1.184-3.712-3.423-3.712c-2.977,0-5.088,3.168-5.088,6.464c0,2.24,1.088,3.744,3.199,3.744
		C544.721,614.213,546.896,610.757,546.896,607.718z"/>
	<path opacity="0.5" fill="#B5121C" enable-background="new    " d="M556.113,609.766c-0.032,0.224-0.032,0.448-0.032,0.672
		c0,2.4,1.984,3.808,4.353,3.808c1.535,0,2.751-0.32,4.512-1.248l-0.48,2.176c-1.439,0.704-2.624,0.992-4.479,0.992
		c-3.2,0-6.111-2.048-6.111-5.759c0-4.608,3.487-8.384,7.551-8.384c3.168,0,5.216,1.92,5.216,4.992c0,0.832-0.16,1.76-0.512,2.752
		h-10.018V609.766z M556.466,608.038h7.839c0.16-0.416,0.225-0.896,0.225-1.344c0-1.472-0.992-2.72-3.2-2.72
		C559.185,603.974,557.266,605.67,556.466,608.038z"/>
	<path opacity="0.5" fill="#B5121C" enable-background="new    " d="M569.49,613.573c0-0.384,0.096-0.896,0.224-1.408l4.128-17.759
		h-2.56l0.479-1.92h4.768l-4.575,19.679c-0.097,0.512-0.225,1.056-0.225,1.344c0,0.672,0.353,1.024,0.896,1.024
		c0.672,0,1.248-0.544,1.888-2.144l1.12,0.384c-0.736,2.304-1.92,3.36-3.488,3.36C570.514,616.133,569.49,615.109,569.49,613.573z"
		/>
	<path opacity="0.5" fill="#B5121C" enable-background="new    " d="M584.178,611.269c0-1.6,1.024-2.72,2.305-2.72
		c0.896,0,1.567,0.672,1.567,1.472c0,0.832-0.576,1.536-1.6,1.536c-0.064,1.472,1.407,2.592,3.647,2.592
		c1.6,0,2.752-0.608,3.584-1.664c0.768-0.96,1.279-2.304,1.632-3.872l2.655-11.647h-3.552l0.513-2.112h8.415l-0.512,2.112h-2.496
		l-2.784,12c-0.479,2.08-1.184,3.775-2.207,5.023c-1.28,1.472-3.008,2.272-5.408,2.272
		C586.897,616.261,584.178,614.341,584.178,611.269z"/>
	<path opacity="0.5" fill="#B5121C" enable-background="new    " d="M602.642,610.213c0-4.224,3.296-8.191,7.712-8.191
		c3.743,0,5.92,2.752,5.92,5.952c0,4.256-3.296,8.191-7.712,8.191C604.817,616.165,602.642,613.445,602.642,610.213z
		 M614.001,607.974c0-2.496-1.632-4-3.743-4c-2.977,0-5.344,2.848-5.344,6.271c0,2.464,1.632,3.968,3.743,3.968
		C611.665,614.213,614.001,611.366,614.001,607.974z"/>
	<path opacity="0.5" fill="#B5121C" enable-background="new    " d="M623.506,594.407h-2.592l0.479-1.92h4.768l-2.943,12.607
		c1.023-1.568,2.624-3.04,4.543-3.04c2.177,0,3.84,1.504,3.872,3.712c0,0.672-0.128,1.408-0.352,2.144l-1.185,4.416
		c-0.128,0.448-0.191,0.928-0.191,1.184c0,0.64,0.384,1.024,0.928,1.024c0.64,0,1.184-0.544,1.792-2.144l1.12,0.384
		c-0.672,2.208-1.76,3.36-3.36,3.36c-1.664,0-2.72-1.056-2.72-2.528c0-0.416,0.096-0.992,0.225-1.504l1.216-4.48
		c0.159-0.608,0.224-1.088,0.224-1.6c-0.032-1.216-0.96-2.048-2.271-2.048c-1.856,0-3.937,1.728-4.704,4.992l-1.6,6.943h-2.24
		L623.506,594.407z"/>
	<path opacity="0.5" fill="#B5121C" enable-background="new    " d="M644.977,613.605c0-0.416,0.096-1.056,0.256-1.536l1.28-4.448
		c0.159-0.608,0.224-1.088,0.224-1.6c0-1.216-0.896-2.048-2.208-2.048c-1.823,0-3.871,1.728-4.672,4.992l-1.76,6.943h-2.239
		l2.943-11.679h-2.56l0.479-1.952h4.544l-0.768,3.231c1.184-1.984,2.88-3.456,4.8-3.456c2.176,0,3.743,1.504,3.743,3.712
		c0,0.672-0.128,1.408-0.352,2.144l-1.248,4.416c-0.128,0.416-0.225,0.928-0.225,1.184c0,0.64,0.385,1.024,0.929,1.024
		c0.64,0,1.184-0.544,1.823-2.144l1.12,0.384c-0.704,2.208-1.824,3.36-3.424,3.36C646,616.133,644.977,615.077,644.977,613.605z"/>
	<path opacity="0.5" fill="#B5121C" enable-background="new    " d="M653.457,614.373c-0.512-0.512-0.8-1.088-0.8-1.696
		c0-0.928,0.64-1.664,1.504-1.664s1.376,0.64,1.376,1.344c0,0.384-0.16,0.704-0.416,1.024c0.128,0.128,0.256,0.224,0.544,0.384
		c0.64,0.352,1.632,0.608,2.72,0.608c1.504,0,2.752-0.672,2.752-1.888c0-1.248-1.344-1.888-2.815-2.592
		c-1.984-0.928-3.776-1.824-3.776-3.872c0-2.176,1.824-3.904,4.928-3.904c1.792,0,3.328,0.576,4.192,1.472
		c0.512,0.512,0.768,1.056,0.768,1.664c0,0.992-0.672,1.632-1.44,1.632s-1.407-0.576-1.407-1.344c0-0.32,0.128-0.64,0.352-1.024
		c-0.096-0.064-0.16-0.128-0.479-0.288c-0.48-0.224-1.248-0.384-2.048-0.384c-1.601,0-2.656,0.736-2.656,1.792
		c0,1.088,1.312,1.696,2.912,2.464c1.92,0.896,3.712,1.92,3.712,4c0,2.624-2.24,4.032-5.088,4.032
		C656.305,616.133,654.481,615.397,653.457,614.373z"/>
	<path opacity="0.5" fill="#B5121C" enable-background="new    " d="M666.449,610.213c0-4.224,3.296-8.191,7.712-8.191
		c3.743,0,5.92,2.752,5.92,5.952c0,4.256-3.296,8.191-7.712,8.191C668.625,616.165,666.449,613.445,666.449,610.213z
		 M677.809,607.974c0-2.496-1.632-4-3.743-4c-2.977,0-5.344,2.848-5.344,6.271c0,2.464,1.632,3.968,3.743,3.968
		C675.473,614.213,677.809,611.366,677.809,607.974z"/>
	<path opacity="0.5" fill="#B5121C" enable-background="new    " d="M691.921,613.605c0-0.416,0.096-1.056,0.256-1.536l1.28-4.448
		c0.159-0.608,0.224-1.088,0.224-1.6c0-1.216-0.896-2.048-2.208-2.048c-1.823,0-3.871,1.728-4.672,4.992l-1.76,6.943h-2.239
		l2.943-11.679h-2.56l0.479-1.952h4.544l-0.768,3.231c1.184-1.984,2.88-3.456,4.8-3.456c2.176,0,3.743,1.504,3.743,3.712
		c0,0.672-0.128,1.408-0.352,2.144l-1.248,4.416c-0.128,0.416-0.225,0.928-0.225,1.184c0,0.64,0.385,1.024,0.929,1.024
		c0.64,0,1.184-0.544,1.823-2.144l1.12,0.384c-0.704,2.208-1.824,3.36-3.424,3.36C692.944,616.133,691.921,615.077,691.921,613.605z
		"/>
</g>
<rect x="606.965" y="853.59" fill="none" width="302.143" height="42.547"/>
<text transform="matrix(1 0 0 1 606.9645 861.6221)" font-family="'ArialMT'" font-size="11">Head Pizzaiola/Creative Director</text>
<g>
	<path opacity="0.5" fill="#B5121C" enable-background="new    " d="M453.162,804.948h2.527l3.903-16.831h-2.848l0.48-2.112h15.039
		l-1.216,5.152h-2.305l0.736-3.072h-7.52l-1.76,7.615h6.592l-0.48,2.048h-6.591l-1.664,7.2h3.104l-0.512,2.112h-8L453.162,804.948z"
		/>
	<path opacity="0.5" fill="#B5121C" enable-background="new    " d="M473.354,795.38h-2.56l0.479-1.952h4.544l-0.896,3.775
		c1.76-2.592,3.295-4,4.671-4c1.088,0,1.856,0.704,1.856,1.696c0,0.96-0.8,1.76-1.729,1.76c-0.863,0-1.472-0.576-1.632-1.28
		c-1.023,0.512-3.167,2.56-3.903,5.632l-1.536,6.047h-2.239L473.354,795.38z"/>
	<path opacity="0.5" fill="#B5121C" enable-background="new    " d="M484.106,800.916c-0.032,0.224-0.032,0.448-0.032,0.672
		c0,2.4,1.984,3.808,4.353,3.808c1.535,0,2.751-0.32,4.512-1.248l-0.48,2.176c-1.439,0.704-2.624,0.992-4.479,0.992
		c-3.2,0-6.111-2.048-6.111-5.759c0-4.608,3.487-8.384,7.551-8.384c3.168,0,5.216,1.92,5.216,4.992c0,0.832-0.16,1.76-0.512,2.752
		h-10.018V800.916z M484.459,799.188h7.839c0.16-0.416,0.225-0.896,0.225-1.344c0-1.472-0.992-2.72-3.2-2.72
		C487.179,795.125,485.259,796.82,484.459,799.188z"/>
	<path opacity="0.5" fill="#B5121C" enable-background="new    " d="M504.329,793.172c2.176,0,3.871,1.408,4.319,3.296l2.56-10.911
		h-2.592l0.48-1.92h4.8l-4.608,19.71c-0.16,0.576-0.256,1.056-0.256,1.344c0,0.64,0.32,0.992,0.896,0.992
		c0.64,0,1.216-0.544,1.855-2.144l1.12,0.384c-0.736,2.304-1.984,3.36-3.456,3.36c-1.536,0-2.496-1.024-2.496-2.56
		c0-0.096-0.031-0.192,0-0.288c-1.151,1.6-2.815,2.88-4.863,2.88c-2.815,0-4.896-2.144-4.896-5.536
		C497.193,797.012,500.521,793.172,504.329,793.172z M508.104,798.9c0-2.24-1.248-3.744-3.52-3.744
		c-2.944,0-5.023,3.136-5.023,6.432c0,2.24,1.184,3.776,3.295,3.776C505.929,805.364,508.104,802.036,508.104,798.9z"/>
	<path opacity="0.5" fill="#B5121C" enable-background="new    " d="M518.153,795.38h-2.56l0.479-1.952h4.544l-0.896,3.775
		c1.76-2.592,3.295-4,4.671-4c1.088,0,1.856,0.704,1.856,1.696c0,0.96-0.8,1.76-1.729,1.76c-0.863,0-1.472-0.576-1.632-1.28
		c-1.023,0.512-3.167,2.56-3.903,5.632l-1.536,6.047h-2.239L518.153,795.38z"/>
	<path opacity="0.5" fill="#B5121C" enable-background="new    " d="M528.106,804.724c0-0.384,0.128-0.992,0.256-1.472l2.144-7.872
		h-2.655l0.512-1.952h4.896l-2.688,9.919c-0.128,0.512-0.225,1.056-0.225,1.344c0,0.64,0.385,0.992,0.929,0.992
		c0.672,0,1.247-0.544,1.855-2.144l1.12,0.384c-0.736,2.304-1.888,3.36-3.456,3.36C529.13,807.284,528.106,806.26,528.106,804.724z
		 M530.922,789.173c0-0.896,0.736-1.632,1.632-1.632c0.864,0,1.6,0.736,1.6,1.632s-0.735,1.632-1.6,1.632
		C531.658,790.805,530.922,790.069,530.922,789.173z"/>
	<path opacity="0.5" fill="#B5121C" enable-background="new    " d="M536.777,801.428c0-4.32,3.521-8.256,7.808-8.256
		c3.2,0,4.928,1.952,4.928,3.648c0,1.056-0.704,1.92-1.695,1.92c-0.673,0-1.376-0.48-1.376-1.44c0-0.352,0.224-0.896,0.64-1.152
		c-0.48-0.64-1.312-1.024-2.56-1.024c-2.816,0-5.472,2.688-5.472,6.175c0,2.432,1.6,4.064,4.128,4.064
		c1.567,0,3.199-0.64,4.543-1.792l-0.063,2.176c-1.344,0.992-2.944,1.568-4.736,1.568
		C539.466,807.315,536.777,805.108,536.777,801.428z"/>
	<path opacity="0.5" fill="#B5121C" enable-background="new    " d="M551.657,801.78c0-4.64,3.296-8.607,7.231-8.607
		c2.24,0,3.84,1.44,4.256,3.392l0.864-3.232h2.144l-2.464,10.015c-0.128,0.544-0.224,1.056-0.224,1.344
		c0,0.64,0.352,0.992,0.896,0.992c0.608,0,1.184-0.544,1.824-2.144l1.12,0.384c-0.736,2.304-1.952,3.36-3.424,3.36
		c-1.536,0-2.528-1.024-2.528-2.496v-0.32c-1.184,1.6-2.848,2.848-4.863,2.848C553.641,807.315,551.657,805.172,551.657,801.78z
		 M562.536,798.868c0-2.208-1.184-3.712-3.423-3.712c-2.977,0-5.088,3.168-5.088,6.464c0,2.24,1.088,3.744,3.199,3.744
		C560.36,805.364,562.536,801.908,562.536,798.868z"/>
	<path opacity="0.5" fill="#B5121C" enable-background="new    " d="M580.36,788.117h-2.239l0.512-2.112h6.976l-0.48,2.112h-2.239
		l2.271,15.327l9.216-15.327h-2.464l0.479-2.112h7.071l-0.512,2.112h-1.92l-12.095,19.263h-1.376L580.36,788.117z"/>
	<path opacity="0.5" fill="#B5121C" enable-background="new    " d="M598.505,804.724c0-0.384,0.128-0.992,0.256-1.472l2.144-7.872
		h-2.655l0.512-1.952h4.896l-2.688,9.919c-0.128,0.512-0.225,1.056-0.225,1.344c0,0.64,0.385,0.992,0.929,0.992
		c0.672,0,1.247-0.544,1.855-2.144l1.121,0.384c-0.737,2.304-1.888,3.36-3.457,3.36C599.528,807.284,598.505,806.26,598.505,804.724
		z M601.32,789.173c0-0.896,0.736-1.632,1.632-1.632c0.864,0,1.599,0.736,1.599,1.632s-0.735,1.632-1.599,1.632
		C602.057,790.805,601.32,790.069,601.32,789.173z"/>
	<path opacity="0.5" fill="#B5121C" enable-background="new    " d="M607.528,804.724c0-0.384,0.096-0.896,0.225-1.408l4.127-17.759
		h-2.559l0.479-1.92h4.768l-4.574,19.679c-0.098,0.512-0.225,1.056-0.225,1.344c0,0.672,0.352,1.024,0.896,1.024
		c0.672,0,1.248-0.544,1.887-2.144l1.121,0.384c-0.736,2.304-1.92,3.36-3.488,3.36C608.551,807.284,607.528,806.26,607.528,804.724z
		"/>
	<path opacity="0.5" fill="#B5121C" enable-background="new    " d="M616.008,801.78c0-4.64,3.297-8.607,7.232-8.607
		c2.24,0,3.84,1.44,4.256,3.392l0.863-3.232h2.145l-2.465,10.015c-0.127,0.544-0.223,1.056-0.223,1.344
		c0,0.64,0.352,0.992,0.895,0.992c0.609,0,1.184-0.544,1.824-2.144l1.121,0.384c-0.736,2.304-1.953,3.36-3.424,3.36
		c-1.537,0-2.529-1.024-2.529-2.496v-0.32c-1.184,1.6-2.848,2.848-4.863,2.848C617.993,807.315,616.008,805.172,616.008,801.78z
		 M626.887,798.868c0-2.208-1.184-3.712-3.422-3.712c-2.977,0-5.088,3.168-5.088,6.464c0,2.24,1.088,3.744,3.199,3.744
		C624.711,805.364,626.887,801.908,626.887,798.868z"/>
	<path opacity="0.5" fill="#B5121C" enable-background="new    " d="M636.936,795.38h-2.559l0.479-1.952h4.545l-0.896,3.775
		c1.76-2.592,3.295-4,4.672-4c1.088,0,1.855,0.704,1.855,1.696c0,0.96-0.799,1.76-1.729,1.76c-0.863,0-1.471-0.576-1.631-1.28
		c-1.023,0.512-3.168,2.56-3.904,5.632l-1.535,6.047h-2.24L636.936,795.38z"/>
	<path opacity="0.5" fill="#B5121C" enable-background="new    " d="M652.68,793.172c2.176,0,3.871,1.408,4.32,3.296l2.559-10.911
		h-2.592l0.48-1.92h4.801l-4.609,19.71c-0.16,0.576-0.256,1.056-0.256,1.344c0,0.64,0.32,0.992,0.896,0.992
		c0.641,0,1.217-0.544,1.855-2.144l1.121,0.384c-0.736,2.304-1.984,3.36-3.457,3.36c-1.535,0-2.496-1.024-2.496-2.56
		c0-0.096-0.031-0.192,0-0.288c-1.15,1.6-2.814,2.88-4.863,2.88c-2.814,0-4.895-2.144-4.895-5.536
		C645.545,797.012,648.873,793.172,652.68,793.172z M656.455,798.9c0-2.24-1.248-3.744-3.52-3.744c-2.943,0-5.023,3.136-5.023,6.432
		c0,2.24,1.184,3.776,3.295,3.776C654.28,805.364,656.455,802.036,656.455,798.9z"/>
	<path opacity="0.5" fill="#B5121C" enable-background="new    " d="M664.233,804.724c0-0.384,0.127-0.992,0.256-1.472l2.143-7.872
		h-2.654l0.512-1.952h4.895l-2.688,9.919c-0.127,0.512-0.225,1.056-0.225,1.344c0,0.64,0.385,0.992,0.93,0.992
		c0.672,0,1.246-0.544,1.855-2.144l1.119,0.384c-0.736,2.304-1.887,3.36-3.455,3.36C665.256,807.284,664.233,806.26,664.233,804.724
		z M667.047,789.173c0-0.896,0.736-1.632,1.633-1.632c0.863,0,1.6,0.736,1.6,1.632s-0.736,1.632-1.6,1.632
		C667.784,790.805,667.047,790.069,667.047,789.173z"/>
</g>
<g>
	<path opacity="0.5" fill="#B5121C" enable-background="new    " d="M453.455,980.611l-3.456,14.976h2.912l-0.48,2.111h-7.775
		l0.513-2.111h2.527l3.903-16.832h-2.848l0.48-2.111h4.831l8.096,16.096l3.231-13.984h-2.943l0.512-2.111h7.647l-0.479,2.111h-2.464
		l-4.384,19.039h-1.184L453.455,980.611z"/>
	<path opacity="0.5" fill="#B5121C" enable-background="new    " d="M470.704,995.362c0-0.384,0.128-0.992,0.256-1.472l2.144-7.872
		h-2.655l0.512-1.951h4.896l-2.688,9.919c-0.128,0.513-0.225,1.056-0.225,1.345c0,0.639,0.385,0.991,0.929,0.991
		c0.672,0,1.247-0.544,1.855-2.144l1.12,0.384c-0.736,2.304-1.888,3.36-3.456,3.36C471.727,997.923,470.704,996.898,470.704,995.362
		z M473.519,979.812c0-0.896,0.736-1.632,1.632-1.632c0.864,0,1.6,0.735,1.6,1.632s-0.735,1.632-1.6,1.632
		C474.256,981.443,473.519,980.708,473.519,979.812z"/>
	<path opacity="0.5" fill="#B5121C" enable-background="new    " d="M479.375,992.067c0-4.32,3.521-8.256,7.808-8.256
		c3.2,0,4.928,1.951,4.928,3.647c0,1.056-0.704,1.92-1.695,1.92c-0.673,0-1.376-0.479-1.376-1.44c0-0.352,0.224-0.896,0.64-1.151
		c-0.48-0.64-1.312-1.024-2.56-1.024c-2.816,0-5.472,2.688-5.472,6.176c0,2.432,1.6,4.064,4.128,4.064
		c1.567,0,3.199-0.641,4.543-1.793l-0.063,2.176c-1.344,0.992-2.944,1.568-4.736,1.568
		C482.063,997.954,479.375,995.747,479.375,992.067z"/>
	<path opacity="0.5" fill="#B5121C" enable-background="new    " d="M493.839,997.698l4.992-21.502h-2.592l0.479-1.92h4.768
		l-3.84,16.479c4-1.632,6.112-3.072,6.656-3.936c-0.48-0.256-0.801-0.832-0.801-1.312c0-0.959,0.704-1.695,1.664-1.695
		c0.896,0,1.632,0.703,1.632,1.824c0,1.951-2.432,3.903-5.631,5.439l1.439,3.424c0.288,0.768,0.512,1.215,0.736,1.471
		c0.256,0.289,0.479,0.32,0.735,0.32c0.512,0,1.024-0.512,1.504-2.496l1.185,0.353c-0.673,3.008-1.792,3.776-3.072,3.776
		c-0.672,0-1.248-0.16-1.792-0.641c-0.448-0.384-0.832-0.96-1.184-1.824l-1.536-3.711c-0.64,0.287-1.312,0.576-1.888,0.799
		l-1.216,5.152L493.839,997.698L493.839,997.698z"/>
	<path opacity="0.5" fill="#B5121C" enable-background="new    " d="M520.11,978.755h-2.239l0.512-2.111h6.976l-0.48,2.111h-2.239
		l2.271,15.328l9.216-15.328h-2.464l0.479-2.111h7.071l-0.512,2.111h-1.92l-12.095,19.264h-1.376L520.11,978.755z"/>
	<path opacity="0.5" fill="#B5121C" enable-background="new    " d="M538.255,995.362c0-0.384,0.128-0.992,0.256-1.472l2.144-7.872
		H538l0.512-1.951h4.896l-2.688,9.919c-0.128,0.513-0.225,1.056-0.225,1.345c0,0.639,0.385,0.991,0.929,0.991
		c0.672,0,1.247-0.544,1.855-2.144l1.12,0.384c-0.736,2.304-1.888,3.36-3.456,3.36C539.278,997.923,538.255,996.898,538.255,995.362
		z M541.07,979.812c0-0.896,0.736-1.632,1.632-1.632c0.864,0,1.6,0.735,1.6,1.632s-0.735,1.632-1.6,1.632
		C541.807,981.443,541.07,980.708,541.07,979.812z"/>
	<path opacity="0.5" fill="#B5121C" enable-background="new    " d="M547.278,995.362c0-0.384,0.096-0.896,0.224-1.408l4.128-17.758
		h-2.56l0.479-1.92h4.768l-4.575,19.678c-0.097,0.512-0.225,1.057-0.225,1.344c0,0.672,0.353,1.024,0.896,1.024
		c0.672,0,1.248-0.544,1.888-2.144l1.12,0.384c-0.736,2.304-1.92,3.36-3.488,3.36C548.302,997.923,547.278,996.898,547.278,995.362z
		"/>
	<path opacity="0.5" fill="#B5121C" enable-background="new    " d="M556.175,995.362c0-0.384,0.096-0.896,0.224-1.408l4.128-17.758
		h-2.56l0.479-1.92h4.768l-4.575,19.678c-0.097,0.512-0.225,1.057-0.225,1.344c0,0.672,0.353,1.024,0.896,1.024
		c0.672,0,1.248-0.544,1.888-2.144l1.12,0.384c-0.736,2.304-1.92,3.36-3.488,3.36C557.198,997.923,556.175,996.898,556.175,995.362z
		"/>
	<path opacity="0.5" fill="#B5121C" enable-background="new    " d="M564.655,992.419c0-4.641,3.296-8.607,7.231-8.607
		c2.24,0,3.84,1.439,4.256,3.392l0.864-3.231h2.144l-2.464,10.015c-0.128,0.544-0.224,1.056-0.224,1.345
		c0,0.639,0.352,0.991,0.896,0.991c0.608,0,1.184-0.544,1.824-2.144l1.12,0.384c-0.736,2.304-1.952,3.36-3.424,3.36
		c-1.536,0-2.528-1.024-2.528-2.496v-0.32c-1.184,1.6-2.848,2.848-4.863,2.848C566.64,997.954,564.655,995.811,564.655,992.419z
		 M575.534,989.507c0-2.208-1.184-3.712-3.423-3.712c-2.977,0-5.088,3.168-5.088,6.464c0,2.24,1.088,3.744,3.199,3.744
		C573.358,996.003,575.534,992.546,575.534,989.507z"/>
	<path opacity="0.5" fill="#B5121C" enable-background="new    " d="M579.632,1002.05h2.048l3.84-16.031h-2.592l0.479-1.951h4.576
		l-0.641,2.848c1.12-1.664,2.784-3.104,4.928-3.104c3.008,0,5.056,2.24,5.056,5.631c0,4.736-3.392,8.544-7.264,8.544
		c-2.144,0-3.808-1.376-4.447-3.168l-1.664,7.231h2.784l-0.48,1.92h-7.104L579.632,1002.05z M594.958,989.731
		c0-2.369-1.216-3.937-3.359-3.937c-2.976,0-5.376,3.392-5.376,6.495c0,2.176,1.345,3.68,3.648,3.68
		C592.814,995.97,594.958,992.898,594.958,989.731z"/>
	<path opacity="0.5" fill="#B5121C" enable-background="new    " d="M600.623,995.362c0-0.384,0.128-0.992,0.256-1.472l2.144-7.872
		h-2.655l0.512-1.951h4.896l-2.688,9.919c-0.128,0.513-0.225,1.056-0.225,1.345c0,0.639,0.385,0.991,0.929,0.991
		c0.672,0,1.247-0.544,1.855-2.144l1.12,0.384c-0.736,2.304-1.888,3.36-3.456,3.36C601.646,997.923,600.623,996.898,600.623,995.362
		z M603.438,979.812c0-0.896,0.736-1.632,1.632-1.632c0.864,0,1.6,0.735,1.6,1.632s-0.735,1.632-1.6,1.632
		C604.175,981.443,603.438,980.708,603.438,979.812z"/>
	<path opacity="0.5" fill="#B5121C" enable-background="new    " d="M609.327,992.419c0-4.641,3.296-8.607,7.231-8.607
		c2.24,0,3.84,1.439,4.256,3.392l0.864-3.231h2.144l-2.464,10.015c-0.128,0.544-0.224,1.056-0.224,1.345
		c0,0.639,0.352,0.991,0.896,0.991c0.608,0,1.184-0.544,1.824-2.144l1.12,0.384c-0.736,2.304-1.952,3.36-3.424,3.36
		c-1.536,0-2.528-1.024-2.528-2.496v-0.32c-1.184,1.6-2.848,2.848-4.863,2.848C611.311,997.954,609.327,995.811,609.327,992.419z
		 M620.206,989.507c0-2.208-1.184-3.712-3.423-3.712c-2.977,0-5.088,3.168-5.088,6.464c0,2.24,1.088,3.744,3.199,3.744
		C618.03,996.003,620.206,992.546,620.206,989.507z"/>
	<path opacity="0.5" fill="#B5121C" enable-background="new    " d="M636.431,995.395c0-0.416,0.096-1.056,0.256-1.536l1.28-4.447
		c0.159-0.608,0.224-1.088,0.224-1.6c0-1.217-0.896-2.049-2.208-2.049c-1.823,0-3.871,1.729-4.672,4.992l-1.76,6.943h-2.239
		l2.943-11.68h-2.56l0.479-1.951h4.544l-0.768,3.231c1.184-1.983,2.88-3.456,4.8-3.456c2.176,0,3.743,1.504,3.743,3.713
		c0,0.672-0.128,1.407-0.352,2.143l-1.248,4.416c-0.128,0.416-0.225,0.928-0.225,1.184c0,0.641,0.385,1.024,0.929,1.024
		c0.64,0,1.184-0.544,1.823-2.144l1.12,0.384c-0.704,2.208-1.824,3.36-3.424,3.36C637.454,997.923,636.431,996.866,636.431,995.395z
		"/>
	<path opacity="0.5" fill="#B5121C" enable-background="new    " d="M644.623,992.003c0-4.225,3.296-8.191,7.712-8.191
		c3.743,0,5.92,2.752,5.92,5.951c0,4.256-3.296,8.191-7.712,8.191C646.799,997.954,644.623,995.234,644.623,992.003z
		 M655.982,989.763c0-2.496-1.632-4-3.743-4c-2.977,0-5.344,2.848-5.344,6.271c0,2.465,1.632,3.969,3.743,3.969
		C653.646,996.003,655.982,993.155,655.982,989.763z"/>
</g>
<rect x="606.965" y="1041.902" fill="none" width="302.143" height="42.547"/>
<text transform="matrix(1 0 0 1 606.9645 1049.9336)" font-family="'ArialMT'" font-size="11">Barista/Web Developer</text>
<g>
	<path opacity="0.5" fill="#B5121C" enable-background="new    " d="M506.522,1187.429h1.92l10.047-16.863h-2.496l0.48-2.08h9.663
		l-0.48,2.08h-2.399l2.24,16.863h2.239l-0.512,2.111h-6.88l0.48-2.08h2.336l-0.641-5.184h-8.575l-3.071,5.184h2.783l-0.512,2.08
		h-7.136L506.522,1187.429z M522.233,1180.229l-1.248-9.823l-5.824,9.823H522.233z"/>
	<path opacity="0.5" fill="#B5121C" enable-background="new    " d="M537.24,1175.654c2.176,0,3.871,1.408,4.319,3.296l2.56-10.911
		h-2.592l0.48-1.92h4.8l-4.608,19.71c-0.16,0.576-0.256,1.057-0.256,1.345c0,0.64,0.32,0.991,0.896,0.991
		c0.64,0,1.216-0.544,1.855-2.144l1.12,0.384c-0.736,2.304-1.984,3.36-3.456,3.36c-1.536,0-2.496-1.024-2.496-2.561
		c0-0.096-0.031-0.191,0-0.288c-1.151,1.601-2.815,2.88-4.863,2.88c-2.815,0-4.896-2.144-4.896-5.535
		C530.105,1179.494,533.433,1175.654,537.24,1175.654z M541.016,1181.381c0-2.24-1.248-3.744-3.52-3.744
		c-2.944,0-5.023,3.136-5.023,6.432c0,2.24,1.184,3.776,3.295,3.776C538.84,1187.845,541.016,1184.517,541.016,1181.381z"/>
	<path opacity="0.5" fill="#B5121C" enable-background="new    " d="M547.736,1184.261c0-4.64,3.296-8.607,7.231-8.607
		c2.24,0,3.84,1.439,4.256,3.392l0.864-3.231h2.144l-2.464,10.015c-0.128,0.544-0.224,1.057-0.224,1.345
		c0,0.64,0.352,0.991,0.896,0.991c0.608,0,1.184-0.544,1.824-2.144l1.12,0.384c-0.736,2.304-1.952,3.36-3.424,3.36
		c-1.536,0-2.528-1.024-2.528-2.496v-0.32c-1.184,1.601-2.848,2.848-4.863,2.848
		C549.721,1189.796,547.736,1187.653,547.736,1184.261z M558.615,1181.349c0-2.208-1.184-3.712-3.423-3.712
		c-2.977,0-5.088,3.168-5.088,6.464c0,2.24,1.088,3.744,3.199,3.744C556.44,1187.845,558.615,1184.389,558.615,1181.349z"/>
	<path opacity="0.5" fill="#B5121C" enable-background="new    " d="M568.664,1177.862h-2.56l0.479-1.952h4.544l-0.8,3.231
		c1.216-1.983,2.88-3.455,4.672-3.455c2.048,0,3.424,1.312,3.52,3.424c1.28-2.112,3.008-3.424,4.735-3.424
		c2.048,0,3.552,1.504,3.552,3.712c0,0.672-0.128,1.407-0.352,2.144l-1.28,4.416c-0.096,0.415-0.191,0.928-0.191,1.184
		c0,0.64,0.384,1.023,0.928,1.023c0.607,0,1.184-0.544,1.823-2.144l1.12,0.384c-0.704,2.208-1.823,3.36-3.424,3.36
		c-1.663,0-2.688-1.057-2.688-2.528c0-0.416,0.096-1.056,0.256-1.536l1.248-4.384c0.16-0.64,0.256-1.151,0.256-1.663
		c0-1.248-0.8-2.048-1.983-2.048c-1.76,0-3.712,1.76-4.576,5.087l-1.76,6.848h-2.24l2.112-8.191c0.16-0.672,0.256-1.216,0.256-1.728
		c0-1.152-0.8-2.016-2.016-2.016c-1.728,0-3.808,1.76-4.607,5.056l-1.729,6.879h-2.239L568.664,1177.862z"/>
	<path opacity="0.5" fill="#B5121C" enable-background="new    " d="M602.105,1170.598h-2.24l0.479-2.112h7.136l-0.479,2.112h-2.624
		l0.512,14.814l8.256-14.398h1.088l2.08,14.463l7.519-14.879h-2.56l0.512-2.112h7.104l-0.479,2.112h-2.08l-10.047,19.23h-1.28
		l-2.208-14.143l-8.352,14.143h-1.279L602.105,1170.598z"/>
	<path opacity="0.5" fill="#B5121C" enable-background="new    " d="M625.88,1183.845c0-4.224,3.296-8.191,7.712-8.191
		c3.743,0,5.92,2.752,5.92,5.951c0,4.256-3.296,8.191-7.712,8.191C628.056,1189.796,625.88,1187.077,625.88,1183.845z
		 M637.239,1181.605c0-2.495-1.632-3.999-3.743-3.999c-2.977,0-5.344,2.848-5.344,6.271c0,2.464,1.632,3.968,3.743,3.968
		C634.903,1187.845,637.239,1184.997,637.239,1181.605z"/>
	<path opacity="0.5" fill="#B5121C" enable-background="new    " d="M645.176,1177.862h-2.56l0.479-1.952h4.544l-0.896,3.775
		c1.76-2.592,3.295-3.999,4.671-3.999c1.088,0,1.856,0.704,1.856,1.695c0,0.96-0.8,1.76-1.729,1.76
		c-0.863,0-1.472-0.575-1.632-1.279c-1.023,0.512-3.167,2.56-3.903,5.632l-1.536,6.047h-2.239L645.176,1177.862z"/>
	<path opacity="0.5" fill="#B5121C" enable-background="new    " d="M659.608,1177.862l-1.92,7.808
		c-0.128,0.447-0.192,0.832-0.192,1.184c0,0.607,0.416,1.088,1.088,1.088c0.736,0,1.504-0.384,2.849-1.28l0.832,1.185
		c-1.664,1.344-3.008,1.951-4.288,1.951c-1.6,0-2.815-0.991-2.815-2.592c0-0.447,0.096-0.96,0.256-1.535l1.92-7.808h-2.433
		l0.48-1.952h2.432l0.8-3.199l2.464-0.801l-0.992,4h4.16l-0.48,1.952L659.608,1177.862L659.608,1177.862z"/>
	<path opacity="0.5" fill="#B5121C" enable-background="new    " d="M669.783,1168.038h-2.592l0.479-1.92h4.768l-2.943,12.606
		c1.023-1.567,2.624-3.039,4.543-3.039c2.177,0,3.84,1.504,3.872,3.712c0,0.672-0.128,1.407-0.352,2.144l-1.185,4.416
		c-0.128,0.447-0.191,0.928-0.191,1.184c0,0.64,0.384,1.023,0.928,1.023c0.64,0,1.184-0.544,1.792-2.144l1.12,0.384
		c-0.672,2.208-1.76,3.36-3.36,3.36c-1.664,0-2.72-1.057-2.72-2.528c0-0.416,0.096-0.992,0.225-1.504l1.216-4.479
		c0.159-0.608,0.224-1.088,0.224-1.6c-0.032-1.216-0.96-2.048-2.271-2.048c-1.856,0-3.937,1.728-4.704,4.991l-1.6,6.943h-2.24
		L669.783,1168.038z"/>
</g>
<rect x="606.965" y="1227.275" fill="none" width="302.143" height="42.547"/>
<text transform="matrix(1 0 0 1 606.9645 1235.3065)" font-family="'ArialMT'" font-size="11">DJ/TV Producer</text>
<g>
	<path opacity="0.5" fill="#B5121C" enable-background="new    " d="M465.036,1309.474h2.527l3.903-16.831h-2.848l0.48-2.111h7.423
		c1.761,0,3.168,0.288,4.288,0.896c1.504,0.832,2.432,2.305,2.432,4.064c0,2.848-2.304,4.928-5.312,5.375
		c2.144,0.576,3.872,2.272,3.872,4.512c0,1.696-0.672,3.104-1.856,4.16c-0.96,0.863-2.271,1.472-3.808,1.792
		c-0.863,0.159-1.823,0.256-2.815,0.256h-8.8L465.036,1309.474z M473.642,1309.506c0.801,0,1.568-0.096,2.208-0.256
		c1.057-0.256,1.856-0.672,2.464-1.312c0.704-0.672,1.024-1.567,1.024-2.623c0-1.984-1.792-3.584-5.28-3.584h-2.335l-1.792,7.775
		H473.642z M474.634,1299.779c3.712,0,6.176-1.472,6.176-4.096c0-1.056-0.512-1.983-1.632-2.527
		c-0.736-0.353-1.728-0.544-3.008-0.544h-2.336l-1.664,7.167L474.634,1299.779L474.634,1299.779z"/>
	<path opacity="0.5" fill="#B5121C" enable-background="new    " d="M487.978,1299.907h-2.56l0.479-1.951h4.544l-0.896,3.775
		c1.76-2.592,3.295-4,4.671-4c1.088,0,1.856,0.704,1.856,1.696c0,0.96-0.8,1.76-1.729,1.76c-0.863,0-1.472-0.576-1.632-1.28
		c-1.023,0.513-3.167,2.561-3.903,5.632l-1.536,6.048h-2.239L487.978,1299.907z"/>
	<path opacity="0.5" fill="#B5121C" enable-background="new    " d="M497.93,1309.25c0-0.384,0.128-0.992,0.256-1.472l2.144-7.872
		h-2.655l0.512-1.951h4.896l-2.688,9.919c-0.128,0.512-0.225,1.056-0.225,1.344c0,0.64,0.385,0.992,0.929,0.992
		c0.672,0,1.247-0.544,1.855-2.144l1.12,0.384c-0.736,2.304-1.888,3.359-3.456,3.359
		C498.954,1311.81,497.93,1310.786,497.93,1309.25z M500.746,1293.7c0-0.896,0.736-1.632,1.632-1.632c0.864,0,1.6,0.735,1.6,1.632
		c0,0.896-0.735,1.632-1.6,1.632C501.482,1295.331,500.746,1294.595,500.746,1293.7z"/>
	<path opacity="0.5" fill="#B5121C" enable-background="new    " d="M506.634,1306.306c0-4.64,3.296-8.607,7.231-8.607
		c2.24,0,3.84,1.44,4.256,3.393l0.864-3.232h2.144l-2.464,10.016c-0.128,0.544-0.224,1.056-0.224,1.344
		c0,0.64,0.352,0.992,0.896,0.992c0.608,0,1.184-0.544,1.824-2.144l1.12,0.384c-0.736,2.304-1.952,3.359-3.424,3.359
		c-1.536,0-2.528-1.023-2.528-2.496v-0.319c-1.184,1.6-2.848,2.848-4.863,2.848C508.619,1311.842,506.634,1309.699,506.634,1306.306
		z M517.513,1303.395c0-2.208-1.184-3.712-3.423-3.712c-2.977,0-5.088,3.168-5.088,6.464c0,2.239,1.088,3.743,3.199,3.743
		C515.337,1309.89,517.513,1306.434,517.513,1303.395z"/>
	<path opacity="0.5" fill="#B5121C" enable-background="new    " d="M533.738,1309.283c0-0.416,0.096-1.057,0.256-1.536l1.28-4.448
		c0.159-0.607,0.224-1.088,0.224-1.6c0-1.216-0.896-2.048-2.208-2.048c-1.823,0-3.871,1.729-4.672,4.992l-1.76,6.943h-2.239
		l2.943-11.68h-2.56l0.479-1.951h4.544l-0.768,3.231c1.184-1.984,2.88-3.456,4.8-3.456c2.176,0,3.743,1.504,3.743,3.712
		c0,0.672-0.128,1.408-0.352,2.144l-1.248,4.416c-0.128,0.416-0.225,0.928-0.225,1.184c0,0.641,0.385,1.024,0.929,1.024
		c0.64,0,1.184-0.544,1.823-2.144l1.12,0.384c-0.704,2.208-1.824,3.359-3.424,3.359
		C534.761,1311.81,533.738,1310.754,533.738,1309.283z"/>
	<path opacity="0.5" fill="#B5121C" enable-background="new    " d="M553.098,1292.643h-2.24l0.479-2.111h7.136l-0.479,2.111h-2.624
		l0.512,14.815l8.256-14.399h1.088l2.08,14.464l7.519-14.88h-2.56l0.512-2.111h7.104l-0.479,2.111h-2.08l-10.047,19.231h-1.28
		l-2.208-14.144l-8.352,14.144h-1.279L553.098,1292.643z"/>
	<path opacity="0.5" fill="#B5121C" enable-background="new    " d="M580.681,1299.907h-2.56l0.479-1.951h4.544l-0.896,3.775
		c1.76-2.592,3.295-4,4.671-4c1.088,0,1.856,0.704,1.856,1.696c0,0.96-0.8,1.76-1.729,1.76c-0.863,0-1.472-0.576-1.632-1.28
		c-1.023,0.513-3.167,2.561-3.903,5.632l-1.536,6.048h-2.239L580.681,1299.907z"/>
	<path opacity="0.5" fill="#B5121C" enable-background="new    " d="M591.433,1305.443c-0.032,0.224-0.032,0.447-0.032,0.672
		c0,2.399,1.984,3.808,4.352,3.808c1.535,0,2.751-0.32,4.512-1.248l-0.48,2.176c-1.439,0.704-2.624,0.992-4.479,0.992
		c-3.2,0-6.111-2.048-6.111-5.76c0-4.607,3.487-8.384,7.55-8.384c3.168,0,5.216,1.92,5.216,4.992c0,0.832-0.16,1.76-0.512,2.752
		L591.433,1305.443L591.433,1305.443z M591.786,1303.714h7.838c0.16-0.416,0.225-0.896,0.225-1.344c0-1.472-0.992-2.72-3.2-2.72
		C594.505,1299.651,592.585,1301.347,591.786,1303.714z"/>
	<path opacity="0.5" fill="#B5121C" enable-background="new    " d="M613.673,1309.283c0-0.416,0.096-1.057,0.256-1.536l1.28-4.448
		c0.159-0.607,0.224-1.088,0.224-1.6c0-1.216-0.896-2.048-2.208-2.048c-1.823,0-3.871,1.729-4.672,4.992l-1.76,6.943h-2.239
		l2.943-11.68h-2.56l0.479-1.951h4.544l-0.768,3.231c1.184-1.984,2.88-3.456,4.8-3.456c2.176,0,3.743,1.504,3.743,3.712
		c0,0.672-0.128,1.408-0.352,2.144l-1.248,4.416c-0.128,0.416-0.225,0.928-0.225,1.184c0,0.641,0.385,1.024,0.929,1.024
		c0.64,0,1.184-0.544,1.823-2.144l1.12,0.384c-0.704,2.208-1.824,3.359-3.424,3.359
		C614.696,1311.81,613.673,1310.754,613.673,1309.283z"/>
	<path opacity="0.5" fill="#B5121C" enable-background="new    " d="M622.153,1310.05c-0.512-0.512-0.8-1.088-0.8-1.696
		c0-0.928,0.64-1.663,1.504-1.663s1.376,0.64,1.376,1.344c0,0.384-0.16,0.704-0.416,1.023c0.128,0.128,0.256,0.225,0.544,0.384
		c0.64,0.353,1.632,0.608,2.72,0.608c1.504,0,2.752-0.672,2.752-1.888c0-1.248-1.344-1.888-2.815-2.592
		c-1.984-0.928-3.776-1.824-3.776-3.872c0-2.176,1.824-3.903,4.928-3.903c1.792,0,3.328,0.576,4.192,1.472
		c0.512,0.512,0.768,1.056,0.768,1.664c0,0.992-0.672,1.632-1.44,1.632s-1.407-0.576-1.407-1.344c0-0.32,0.128-0.641,0.352-1.024
		c-0.096-0.063-0.16-0.128-0.479-0.288c-0.48-0.224-1.248-0.384-2.048-0.384c-1.601,0-2.656,0.736-2.656,1.792
		c0,1.088,1.312,1.696,2.912,2.464c1.92,0.896,3.712,1.92,3.712,4c0,2.623-2.24,4.031-5.088,4.031
		C625.001,1311.81,623.178,1311.074,622.153,1310.05z"/>
	<path opacity="0.5" fill="#B5121C" enable-background="new    " d="M637.353,1305.443c-0.032,0.224-0.032,0.447-0.032,0.672
		c0,2.399,1.984,3.808,4.353,3.808c1.535,0,2.751-0.32,4.512-1.248l-0.48,2.176c-1.439,0.704-2.624,0.992-4.479,0.992
		c-3.2,0-6.111-2.048-6.111-5.76c0-4.607,3.487-8.384,7.551-8.384c3.168,0,5.216,1.92,5.216,4.992c0,0.832-0.16,1.76-0.512,2.752
		L637.353,1305.443L637.353,1305.443z M637.705,1303.714h7.839c0.16-0.416,0.225-0.896,0.225-1.344c0-1.472-0.992-2.72-3.2-2.72
		C640.425,1299.651,638.505,1301.347,637.705,1303.714z"/>
	<path opacity="0.5" fill="#B5121C" enable-background="new    " d="M659.593,1309.283c0-0.416,0.096-1.057,0.256-1.536l1.28-4.448
		c0.159-0.607,0.224-1.088,0.224-1.6c0-1.216-0.896-2.048-2.208-2.048c-1.823,0-3.871,1.729-4.672,4.992l-1.76,6.943h-2.239
		l2.943-11.68h-2.56l0.479-1.951h4.544l-0.768,3.231c1.184-1.984,2.88-3.456,4.8-3.456c2.176,0,3.743,1.504,3.743,3.712
		c0,0.672-0.128,1.408-0.352,2.144l-1.248,4.416c-0.128,0.416-0.225,0.928-0.225,1.184c0,0.641,0.385,1.024,0.929,1.024
		c0.64,0,1.184-0.544,1.823-2.144l1.12,0.384c-0.704,2.208-1.824,3.359-3.424,3.359
		C660.616,1311.81,659.593,1310.754,659.593,1309.283z"/>
</g>
<g>
	<path opacity="0.5" fill="#B5121C" enable-background="new    " d="M489.933-111.794h1.92l10.047-16.863h-2.496l0.48-2.08h9.663
		l-0.48,2.08h-2.399l2.24,16.863h2.239l-0.512,2.112h-6.88l0.48-2.08h2.336l-0.641-5.184h-8.575l-3.071,5.184h2.783l-0.512,2.08
		h-7.136L489.933-111.794z M505.644-118.993l-1.248-9.823l-5.824,9.823H505.644z"/>
	<path opacity="0.5" fill="#B5121C" enable-background="new    " d="M522.668-111.986c0-0.416,0.096-1.056,0.256-1.536l1.28-4.448
		c0.159-0.608,0.224-1.088,0.224-1.6c0-1.216-0.896-2.048-2.208-2.048c-1.823,0-3.871,1.728-4.672,4.992l-1.76,6.943h-2.239
		l2.943-11.679h-2.56l0.479-1.952h4.544l-0.768,3.231c1.184-1.984,2.88-3.456,4.8-3.456c2.176,0,3.743,1.504,3.743,3.712
		c0,0.672-0.128,1.408-0.352,2.144l-1.248,4.416c-0.128,0.416-0.225,0.928-0.225,1.184c0,0.64,0.385,1.024,0.929,1.024
		c0.64,0,1.184-0.544,1.823-2.144l1.12,0.384c-0.704,2.208-1.824,3.36-3.424,3.36C523.691-109.458,522.668-110.514,522.668-111.986z
		"/>
	<path opacity="0.5" fill="#B5121C" enable-background="new    " d="M538.06-123.569c2.176,0,3.871,1.408,4.319,3.296l2.56-10.911
		h-2.592l0.48-1.92h4.8l-4.608,19.71c-0.16,0.576-0.256,1.056-0.256,1.344c0,0.64,0.32,0.992,0.896,0.992
		c0.64,0,1.216-0.544,1.855-2.144l1.12,0.384c-0.736,2.304-1.984,3.36-3.456,3.36c-1.536,0-2.496-1.024-2.496-2.56
		c0-0.096-0.031-0.192,0-0.288c-1.151,1.6-2.815,2.88-4.863,2.88c-2.815,0-4.896-2.144-4.896-5.536
		C530.924-119.729,534.253-123.569,538.06-123.569z M541.836-117.841c0-2.24-1.248-3.744-3.52-3.744
		c-2.944,0-5.023,3.136-5.023,6.432c0,2.24,1.184,3.776,3.295,3.776C539.66-111.378,541.836-114.705,541.836-117.841z"/>
	<path opacity="0.5" fill="#B5121C" enable-background="new    " d="M551.884-121.361h-2.56l0.479-1.952h4.544l-0.896,3.775
		c1.76-2.592,3.295-4,4.671-4c1.088,0,1.856,0.704,1.856,1.696c0,0.96-0.8,1.76-1.729,1.76c-0.863,0-1.472-0.576-1.632-1.28
		c-1.023,0.512-3.167,2.56-3.903,5.632l-1.536,6.047h-2.239L551.884-121.361z"/>
	<path opacity="0.5" fill="#B5121C" enable-background="new    " d="M562.636-115.825c-0.032,0.224-0.032,0.448-0.032,0.672
		c0,2.4,1.984,3.808,4.353,3.808c1.535,0,2.751-0.32,4.512-1.248l-0.48,2.176c-1.439,0.704-2.624,0.992-4.479,0.992
		c-3.2,0-6.111-2.048-6.111-5.759c0-4.608,3.487-8.384,7.551-8.384c3.168,0,5.216,1.92,5.216,4.992c0,0.832-0.16,1.76-0.512,2.752
		L562.636-115.825L562.636-115.825z M562.989-117.553h7.839c0.16-0.416,0.225-0.896,0.225-1.344c0-1.472-0.992-2.72-3.2-2.72
		C565.709-121.617,563.789-119.921,562.989-117.553z"/>
	<path opacity="0.5" fill="#B5121C" enable-background="new    " d="M576.427-112.018c0-0.384,0.128-0.992,0.256-1.472l2.144-7.872
		h-2.655l0.512-1.952h4.896l-2.688,9.919c-0.128,0.512-0.225,1.056-0.225,1.344c0,0.64,0.385,0.992,0.929,0.992
		c0.672,0,1.247-0.544,1.855-2.144l1.12,0.384c-0.736,2.304-1.888,3.36-3.456,3.36C577.451-109.458,576.427-110.482,576.427-112.018
		z M579.243-127.569c0-0.896,0.736-1.632,1.632-1.632c0.864,0,1.6,0.736,1.6,1.632s-0.735,1.632-1.6,1.632
		C579.979-125.937,579.243-126.673,579.243-127.569z"/>
	<path opacity="0.5" fill="#B5121C" enable-background="new    " d="M591.083-111.794h2.527l3.903-16.831h-2.848l0.48-2.112h15.039
		l-1.216,5.152h-2.305l0.736-3.072h-7.52l-1.76,7.615h6.592l-0.48,2.048h-6.591l-1.664,7.2h3.104l-0.512,2.112h-8L591.083-111.794z"
		/>
	<path opacity="0.5" fill="#B5121C" enable-background="new    " d="M610.027-115.825c-0.032,0.224-0.032,0.448-0.032,0.672
		c0,2.4,1.984,3.808,4.353,3.808c1.535,0,2.751-0.32,4.512-1.248l-0.48,2.176c-1.439,0.704-2.624,0.992-4.479,0.992
		c-3.2,0-6.111-2.048-6.111-5.759c0-4.608,3.487-8.384,7.551-8.384c3.168,0,5.216,1.92,5.216,4.992c0,0.832-0.16,1.76-0.512,2.752
		L610.027-115.825L610.027-115.825z M610.38-117.553h7.839c0.16-0.416,0.225-0.896,0.225-1.344c0-1.472-0.992-2.72-3.2-2.72
		C613.099-121.617,611.179-119.921,610.38-117.553z"/>
	<path opacity="0.5" fill="#B5121C" enable-background="new    " d="M626.091-121.361h-2.56l0.479-1.952h4.544l-0.896,3.775
		c1.76-2.592,3.295-4,4.671-4c1.088,0,1.856,0.704,1.856,1.696c0,0.96-0.8,1.76-1.729,1.76c-0.863,0-1.472-0.576-1.632-1.28
		c-1.023,0.512-3.167,2.56-3.903,5.632l-1.536,6.047h-2.239L626.091-121.361z"/>
	<path opacity="0.5" fill="#B5121C" enable-background="new    " d="M639.788-131.184h-2.592l0.479-1.92h4.767l-2.911,12.415
		c1.088-1.568,2.75-2.88,4.735-2.88c3.071,0,5.119,2.24,5.119,5.632c0,4.736-3.392,8.543-7.231,8.543
		c-2.239,0-3.967-1.344-4.415-3.328l-0.801,3.04h-2.144L639.788-131.184z M647.019-117.649c0-2.368-1.216-3.936-3.36-3.936
		c-2.975,0-5.343,3.392-5.343,6.496c0,2.176,1.312,3.68,3.616,3.68C644.874-111.41,647.019-114.482,647.019-117.649z"/>
	<path opacity="0.5" fill="#B5121C" enable-background="new    " d="M654.282-115.825c-0.032,0.224-0.032,0.448-0.032,0.672
		c0,2.4,1.984,3.808,4.353,3.808c1.535,0,2.751-0.32,4.512-1.248l-0.48,2.176c-1.439,0.704-2.624,0.992-4.479,0.992
		c-3.2,0-6.111-2.048-6.111-5.759c0-4.608,3.487-8.384,7.551-8.384c3.168,0,5.216,1.92,5.216,4.992c0,0.832-0.16,1.76-0.512,2.752
		L654.282-115.825L654.282-115.825z M654.635-117.553h7.839c0.16-0.416,0.225-0.896,0.225-1.344c0-1.472-0.992-2.72-3.2-2.72
		C657.355-121.617,655.435-119.921,654.635-117.553z"/>
	<path opacity="0.5" fill="#B5121C" enable-background="new    " d="M668.075-112.018c0-0.384,0.128-0.992,0.256-1.472l2.144-7.872
		h-2.655l0.512-1.952h4.896l-2.688,9.919c-0.128,0.512-0.225,1.056-0.225,1.344c0,0.64,0.385,0.992,0.929,0.992
		c0.672,0,1.247-0.544,1.855-2.144l1.12,0.384c-0.736,2.304-1.888,3.36-3.456,3.36C669.099-109.458,668.075-110.482,668.075-112.018
		z M670.891-127.569c0-0.896,0.736-1.632,1.632-1.632c0.864,0,1.6,0.736,1.6,1.632s-0.735,1.632-1.6,1.632
		C671.627-125.937,670.891-126.673,670.891-127.569z"/>
</g>
<rect x="608.853" y="1414.973" fill="none" width="302.143" height="42.547"/>
<text transform="matrix(1 0 0 1 608.8532 1423.0048)" font-family="'ArialMT'" font-size="11">Designer</text>
<rect x="607.876" y="-80.315" fill="none" width="302.143" height="42.547"/>
<text transform="matrix(1 0 0 1 607.8757 -72.284)" font-family="'ArialMT'" font-size="11">Pizzaoli</text>
<g>
	<path d="M-346.463-47.443l1.188-1.419c0.759,0.605,1.606,0.924,2.497,0.924c0.572,0,0.88-0.198,0.88-0.528v-0.022
		c0-0.319-0.253-0.495-1.298-0.737c-1.64-0.374-2.904-0.836-2.904-2.42v-0.022c0-1.43,1.133-2.464,2.981-2.464
		c1.309,0,2.332,0.352,3.168,1.023l-1.066,1.507c-0.704-0.495-1.475-0.759-2.156-0.759c-0.518,0-0.771,0.22-0.771,0.495v0.022
		c0,0.352,0.264,0.506,1.331,0.748c1.771,0.385,2.871,0.958,2.871,2.398v0.022c0,1.573-1.243,2.508-3.113,2.508
		C-344.219-46.167-345.517-46.596-346.463-47.443z"/>
	<path d="M-338.993-50.127v-0.022c0-2.211,1.782-4.004,4.158-4.004c2.377,0,4.137,1.771,4.137,3.982v0.022
		c0,2.211-1.782,4.004-4.158,4.004C-337.234-46.145-338.993-47.916-338.993-50.127z M-332.876-50.127v-0.022
		c0-1.111-0.804-2.079-1.98-2.079c-1.166,0-1.947,0.946-1.947,2.057v0.022c0,1.111,0.803,2.079,1.969,2.079
		C-333.658-48.07-332.876-49.016-332.876-50.127z"/>
	<path d="M-329.709-49.676V-54h2.167v4.28c0,1.111,0.562,1.639,1.419,1.639c0.858,0,1.42-0.506,1.42-1.584V-54h2.167v4.269
		c0,2.486-1.419,3.576-3.608,3.576S-329.709-47.267-329.709-49.676z"/>
	<path d="M-321.877-47.443l1.188-1.419c0.759,0.605,1.606,0.924,2.497,0.924c0.572,0,0.88-0.198,0.88-0.528v-0.022
		c0-0.319-0.253-0.495-1.298-0.737c-1.64-0.374-2.904-0.836-2.904-2.42v-0.022c0-1.43,1.133-2.464,2.981-2.464
		c1.309,0,2.332,0.352,3.168,1.023l-1.066,1.507c-0.704-0.495-1.475-0.759-2.156-0.759c-0.518,0-0.771,0.22-0.771,0.495v0.022
		c0,0.352,0.264,0.506,1.331,0.748c1.771,0.385,2.871,0.958,2.871,2.398v0.022c0,1.573-1.243,2.508-3.113,2.508
		C-319.633-46.167-320.931-46.596-321.877-47.443z"/>
	<path d="M-311.768-50.127v-0.022c0-2.244,1.728-4.004,4.06-4.004c1.573,0,2.585,0.66,3.268,1.606l-1.606,1.243
		c-0.44-0.55-0.946-0.902-1.684-0.902c-1.078,0-1.837,0.913-1.837,2.035v0.022c0,1.155,0.759,2.057,1.837,2.057
		c0.804,0,1.276-0.374,1.738-0.935l1.606,1.145c-0.726,1.001-1.705,1.738-3.41,1.738C-309.996-46.145-311.768-47.828-311.768-50.127
		z"/>
	<path d="M-303.496-54h2.135v2.882h2.739V-54h2.134v7.701h-2.134v-2.926h-2.739v2.926h-2.135V-54z"/>
	<path d="M-295.148-54h6.194v1.815h-4.082v1.166h3.696v1.683h-3.696v1.221h4.137v1.815h-6.249V-54z"/>
	<path d="M-287.833-54h6.161v1.87h-4.026v1.31h3.642v1.771h-3.642v2.75h-2.135V-54z"/>
</g>
</svg>
