<?xml version="1.0" encoding="utf-8"?>
<!-- Generator: Adobe Illustrator 17.1.0, SVG Export Plug-In . SVG Version: 6.00 Build 0)  -->
<!DOCTYPE svg PUBLIC "-//W3C//DTD SVG 1.1//EN" "http://www.w3.org/Graphics/SVG/1.1/DTD/svg11.dtd">
<svg version="1.1" id="Layer_1" xmlns="http://www.w3.org/2000/svg" xmlns:xlink="http://www.w3.org/1999/xlink" x="0px" y="0px"
	 viewBox="0 0 448.8 95" enable-background="new 0 0 448.8 95" xml:space="preserve">
<polygon fill="#FDF6E0" points="273.6,87.5 0,87.5 0,7.3 272.5,7.3 297,47.5 "/>
<line fill="none" stroke="#000000" stroke-width="2" stroke-miterlimit="10" x1="0" y1="1.3" x2="448.8" y2="1.3"/>
<line fill="none" stroke="#000000" stroke-width="2" stroke-miterlimit="10" x1="0" y1="7.3" x2="448.8" y2="7.3"/>
<line fill="none" stroke="#000000" stroke-width="2" stroke-miterlimit="10" x1="0" y1="88" x2="448.8" y2="88"/>
<line fill="none" stroke="#000000" stroke-width="2" stroke-miterlimit="10" x1="0" y1="94.1" x2="448.8" y2="94.1"/>
<polyline fill="none" stroke="#000000" stroke-width="2" stroke-miterlimit="10" points="271.8,7.3 296.6,48 272.5,87.5 "/>
<polyline fill="none" stroke="#000000" stroke-width="2" stroke-miterlimit="10" points="279.2,7.3 304,48 279.8,87.5 "/>
<g>
	<path fill="#231F20" d="M346.3,71.1h1.9l1.3-5.8l-1.8,0.4l0-1l2.7-0.7l0.5,0.2l-1.6,6.9h1.9l-0.2,0.9h-4.8L346.3,71.1z"/>
	<path fill="#231F20" d="M352.4,71.1h1.9l1.3-5.8l-1.8,0.4l0-1l2.7-0.7l0.5,0.2l-1.6,6.9h1.9L357,72h-4.8L352.4,71.1z"/>
	<path fill="#231F20" d="M358.7,71.2c0-0.5,0.4-1,1-1c0.5,0,1,0.4,1,1c0,0.5-0.4,1-1,1C359.1,72.1,358.7,71.7,358.7,71.2z
		 M359.6,67.1c0-0.5,0.4-1,1-1c0.5,0,1,0.4,1,1c0,0.5-0.4,1-1,1C360,68,359.6,67.6,359.6,67.1z"/>
	<path fill="#231F20" d="M361.6,71.8c0-0.5,0.4-0.9,0.8-0.9c0.4,0,0.7,0.3,0.7,0.7c0,0.2-0.2,0.5-0.4,0.6c0.2,0.3,0.9,0.8,2.1,0.8
		c1.4,0,2.3-0.9,2.3-1.9c0-1.1-1-1.9-2.5-1.9h-0.3l0.2-0.9h0.4c1.8,0,3-0.8,3-1.9c0-0.9-0.7-1.5-1.9-1.5c-0.8,0-1.3,0.2-1.6,0.5
		c0.2,0.1,0.4,0.3,0.4,0.6c0,0.4-0.3,0.7-0.7,0.7c-0.4,0-0.8-0.3-0.8-0.8c0-1,1.3-1.9,2.8-1.9c1.9,0,3,1,3,2.3
		c0,1.3-1.1,2.2-2.7,2.5c1.3,0.4,1.9,1.3,1.9,2.3c0,1.6-1.5,2.9-3.5,2.9C363.2,74,361.6,73,361.6,71.8z"/>
	<path fill="#231F20" d="M370.3,68.6c0-2.4,1.7-4.6,4.2-4.6c2.1,0,3.3,1.6,3.3,3.6c0,2.4-1.7,4.6-4.2,4.6
		C371.5,72.1,370.3,70.5,370.3,68.6z M376.6,67.5c0-1.5-0.9-2.6-2.2-2.6c-1.7,0-3,1.7-3,3.6c0,1.5,0.9,2.6,2.2,2.6
		C375.4,71.2,376.6,69.4,376.6,67.5z"/>
	<path fill="#231F20" d="M379.2,67.1h3.3l-0.2,1.1h-3.4L379.2,67.1z"/>
	<path fill="#231F20" d="M382.8,71.4c0.7-1.6,2.3-2.5,3.9-3.3c1.3-0.6,2.3-1.2,2.3-2c0-0.6-0.6-1.2-1.8-1.2c-0.8,0-1.3,0.2-1.7,0.6
		c0.2,0.1,0.3,0.3,0.3,0.6c0,0.4-0.3,0.8-0.7,0.8c-0.4,0-0.8-0.3-0.8-0.8c0-1,1.3-2.1,3-2.1c1.8,0,2.9,1,2.9,2.1
		c0,1.4-1.5,2.2-3,2.9c-1.7,0.8-2.5,1.3-3,2.2h4.1l0.3-1.3h1l-0.5,2.3H383L382.8,71.4z"/>
	<path fill="#231F20" d="M391.1,71.2c0-0.5,0.4-1,1-1c0.5,0,1,0.4,1,1c0,0.5-0.4,1-1,1C391.6,72.1,391.1,71.7,391.1,71.2z
		 M392.1,67.1c0-0.5,0.4-1,1-1c0.5,0,1,0.4,1,1c0,0.5-0.4,1-1,1C392.5,68,392.1,67.6,392.1,67.1z"/>
	<path fill="#231F20" d="M395.1,68.6c0-2.4,1.7-4.6,4.2-4.6c2.1,0,3.3,1.6,3.3,3.6c0,2.4-1.7,4.6-4.2,4.6
		C396.3,72.1,395.1,70.5,395.1,68.6z M401.4,67.5c0-1.5-0.9-2.6-2.2-2.6c-1.7,0-3,1.7-3,3.6c0,1.5,0.9,2.6,2.2,2.6
		C400.2,71.2,401.4,69.4,401.4,67.5z"/>
	<path fill="#231F20" d="M404,68.6c0-2.4,1.7-4.6,4.2-4.6c2.1,0,3.3,1.6,3.3,3.6c0,2.4-1.7,4.6-4.2,4.6
		C405.2,72.1,404,70.5,404,68.6z M410.3,67.5c0-1.5-0.9-2.6-2.2-2.6c-1.7,0-3,1.7-3,3.6c0,1.5,0.9,2.6,2.2,2.6
		C409.1,71.2,410.3,69.4,410.3,67.5z"/>
</g>
<g>
	<path fill="#231F20" d="M23,40.5h2.4L29,24.6h-2.7l0.6-2.6h15.5l-1.3,5.5h-2.8l0.7-3H32l-1.5,6.5H37l-0.6,2.5h-6.5l-1.6,6.9h7.1
		l0.7-3h2.8l-1.3,5.5H22.3L23,40.5z"/>
	<path fill="#231F20" d="M51,40.6c0-0.4,0.1-1.1,0.2-1.6l1.2-4.2c0.2-0.5,0.2-1,0.2-1.4c0-1.2-0.8-2-2.1-2c-1.7,0-3.3,1.4-4,4.2
		l-1.9,7.5h-2.8l2.9-11.4h-2.6l0.6-2.4h4.9L47,32.6c1.1-1.9,2.9-3.5,4.8-3.5c2.1,0,3.8,1.4,3.8,3.9c0,0.7-0.1,1.4-0.4,2.2L54,39.3
		c-0.1,0.4-0.2,0.9-0.2,1.1c0,0.6,0.3,1,0.9,1s1.2-0.5,1.8-2.2l1.2,0.4c-0.7,2.5-2.1,3.7-3.8,3.7C52.1,43.4,51,42.2,51,40.6z"/>
	<path fill="#231F20" d="M66.9,29.1c2.1,0,3.7,1.5,4.2,3.2L73.4,22h-2.6l0.6-2.4h5.3l-4.6,19.4c-0.1,0.6-0.2,1.1-0.2,1.4
		c0,0.6,0.3,1,0.8,1s1.2-0.5,1.8-2.2l1.3,0.4c-0.8,2.8-2.3,3.7-3.8,3.7c-1.7,0-2.7-1.1-2.7-2.8v-0.1c-1.2,1.7-2.8,3-4.9,3
		c-2.8,0-4.8-2.2-4.8-5.5C59.7,33.1,63,29.1,66.9,29.1z M70.5,35c0-2.1-1.1-3.4-3.2-3.4c-2.7,0-4.7,2.9-4.7,6c0,2,1.1,3.4,3,3.4
		C68.3,41,70.5,38,70.5,35z"/>
	<path fill="#231F20" d="M78.2,40.5c0-0.4,0.1-0.9,0.2-1.4l4-17.1h-2.6l0.6-2.4h5.3l-4.5,19.4c-0.1,0.5-0.2,1.1-0.2,1.4
		c0,0.7,0.3,1,0.8,1c0.6,0,1.2-0.5,1.9-2.2l1.2,0.4c-0.8,2.8-2.2,3.7-3.8,3.7C79.2,43.4,78.2,42.2,78.2,40.5z"/>
	<path fill="#231F20" d="M89.8,37.1v0.5c0,2.1,1.7,3.5,4.2,3.5c1.5,0,2.8-0.3,4.6-1.2l-0.5,2.6c-1.4,0.7-2.6,1-4.6,1
		c-3.3,0-6.3-2.1-6.3-5.9c0-4.7,3.5-8.5,7.6-8.5c3.4,0,5.6,1.9,5.6,5.2c0,0.9-0.2,1.8-0.5,2.9H89.8z M90.2,35.1h7.2
		c0.1-0.4,0.2-0.8,0.2-1.2c0-1.4-1-2.5-2.9-2.5S90.9,32.9,90.2,35.1z"/>
	<path fill="#231F20" d="M102.8,41.6c-0.5-0.5-0.9-1.2-0.9-1.8c0-1,0.7-1.8,1.6-1.8c0.9,0,1.5,0.7,1.5,1.5c0,0.3-0.1,0.7-0.3,0.9
		c0.1,0.1,0.3,0.2,0.5,0.4c0.6,0.3,1.6,0.5,2.6,0.5c1.4,0,2.7-0.6,2.7-1.7c0-1.2-1.4-1.7-2.9-2.4c-1.9-0.9-3.8-1.8-3.8-4
		s1.9-4.1,5.3-4.1c1.9,0,3.5,0.6,4.4,1.5c0.5,0.5,0.8,1.2,0.8,1.8c0,1.1-0.7,1.8-1.6,1.8s-1.6-0.7-1.6-1.5c0-0.3,0.1-0.5,0.3-0.9
		c-0.1-0.1-0.2-0.2-0.5-0.3c-0.5-0.2-1.2-0.3-1.9-0.3c-1.4,0-2.5,0.6-2.5,1.6c0,1.1,1.4,1.7,3,2.4c1.9,0.9,3.7,1.9,3.7,4
		c0,2.7-2.2,4.2-5.5,4.2C105.7,43.4,103.9,42.7,102.8,41.6z"/>
	<path fill="#231F20" d="M116.7,41.6c-0.5-0.5-0.9-1.2-0.9-1.8c0-1,0.7-1.8,1.6-1.8c0.9,0,1.5,0.7,1.5,1.5c0,0.3-0.1,0.7-0.3,0.9
		c0.1,0.1,0.3,0.2,0.5,0.4c0.6,0.3,1.6,0.5,2.6,0.5c1.4,0,2.7-0.6,2.7-1.7c0-1.2-1.4-1.7-2.9-2.4c-1.9-0.9-3.8-1.8-3.8-4
		s1.9-4.1,5.3-4.1c1.9,0,3.5,0.6,4.4,1.5c0.5,0.5,0.8,1.2,0.8,1.8c0,1.1-0.7,1.8-1.6,1.8s-1.6-0.7-1.6-1.5c0-0.3,0.1-0.5,0.3-0.9
		c-0.1-0.1-0.2-0.2-0.5-0.3c-0.5-0.2-1.2-0.3-1.9-0.3c-1.4,0-2.5,0.6-2.5,1.6c0,1.1,1.4,1.7,3,2.4c1.9,0.9,3.7,1.9,3.7,4
		c0,2.7-2.2,4.2-5.5,4.2C119.6,43.4,117.7,42.7,116.7,41.6z"/>
	<path fill="#231F20" d="M136.2,40.5h2.4l4.4-15.9h-2.8l0.6-2.6h5.1l3.7,13.3l9.5-13.3h5.4l-0.6,2.6h-2.4l-3,15.9h2.8l-0.6,2.6h-8.1
		l0.6-2.6h2.5l2.5-13.1L149,40.1h-0.4L145,27.4l-3.5,13.1h2.9l-0.6,2.6h-8.1L136.2,40.5z"/>
	<path fill="#231F20" d="M165.3,40.6c0-0.4,0.1-1,0.2-1.5l1.9-7.4h-2.6l0.6-2.4h5.4l-2.6,9.8c-0.2,0.5-0.2,1.1-0.2,1.4
		c0,0.6,0.3,1,0.8,1c0.6,0,1.2-0.5,1.9-2.2l1.2,0.4c-0.8,2.8-2.2,3.7-3.9,3.7C166.3,43.4,165.3,42.2,165.3,40.6z M168,25.1
		c0-1,0.8-1.9,1.9-1.9c1,0,1.9,0.8,1.9,1.9s-0.9,1.9-1.9,1.9C168.8,27,168,26.1,168,25.1z"/>
	<path fill="#231F20" d="M177.2,31.7h-2.6l0.6-2.4h4.9l-0.8,3.2c1.1-1.9,2.8-3.5,4.6-3.5c2,0,3.3,1.3,3.5,3.4c1.3-2.1,3-3.4,4.7-3.4
		c2,0,3.6,1.4,3.6,3.9c0,0.7-0.1,1.4-0.4,2.2l-1.2,4.1c-0.1,0.4-0.2,0.9-0.2,1.1c0,0.6,0.3,1,0.9,1s1.2-0.5,1.8-2.2l1.2,0.4
		c-0.7,2.5-2.1,3.7-3.8,3.7c-1.9,0-2.9-1.2-2.9-2.8c0-0.4,0.1-1.1,0.2-1.6l1.2-4c0.2-0.6,0.3-1.1,0.3-1.5c0-1.3-0.8-2-1.9-2
		c-1.6,0-3.1,1.5-3.9,4.4l-1.9,7.3h-2.8l2.1-8.1c0.1-0.6,0.2-1.2,0.2-1.6c0-1.1-0.8-2-1.9-2c-1.6,0-3.2,1.5-3.9,4.4l-1.8,7.3h-2.8
		L177.2,31.7z"/>
	<path fill="#231F20" d="M199.9,37.3c0-4.2,3.3-8.2,7.8-8.2c4,0,6.2,2.9,6.2,6.2c0,4.2-3.3,8.2-7.8,8.2
		C202.2,43.4,199.9,40.5,199.9,37.3z M211.1,35.2c0-2.4-1.5-3.8-3.5-3.8c-2.7,0-4.9,2.6-4.9,5.8c0,2.4,1.5,3.8,3.5,3.8
		C209,41,211.1,38.4,211.1,35.2z"/>
	<path fill="#231F20" d="M216.4,41.6c-0.5-0.5-0.9-1.2-0.9-1.8c0-1,0.7-1.8,1.6-1.8c0.9,0,1.5,0.7,1.5,1.5c0,0.3-0.1,0.7-0.3,0.9
		c0.1,0.1,0.3,0.2,0.5,0.4c0.6,0.3,1.6,0.5,2.6,0.5c1.4,0,2.7-0.6,2.7-1.7c0-1.2-1.4-1.7-2.9-2.4c-1.9-0.9-3.8-1.8-3.8-4
		s1.9-4.1,5.3-4.1c1.9,0,3.5,0.6,4.4,1.5c0.5,0.5,0.8,1.2,0.8,1.8c0,1.1-0.7,1.8-1.6,1.8c-0.9,0-1.6-0.7-1.6-1.5
		c0-0.3,0.1-0.5,0.3-0.9c-0.1-0.1-0.2-0.2-0.5-0.3c-0.5-0.2-1.2-0.3-1.9-0.3c-1.4,0-2.5,0.6-2.5,1.6c0,1.1,1.4,1.7,3,2.4
		c1.9,0.9,3.7,1.9,3.7,4c0,2.7-2.2,4.2-5.5,4.2C219.3,43.4,217.4,42.7,216.4,41.6z"/>
	<path fill="#231F20" d="M229.7,37.9c0-4.7,3.3-8.8,7.3-8.8c2.1,0,3.7,1.5,4.1,3.3l0.9-3.1h2.6l-2.4,9.8c-0.2,0.6-0.3,1.1-0.3,1.4
		c0,0.6,0.3,1,0.8,1c0.5,0,1.2-0.5,1.8-2.2l1.2,0.4c-0.8,2.8-2.3,3.7-3.8,3.7c-1.6,0-2.7-1.1-2.7-2.8v-0.2c-1.2,1.6-2.9,3-4.9,3
		C231.7,43.4,229.7,41.2,229.7,37.9z M240.5,34.9c0-2.1-1-3.4-3.1-3.4c-2.7,0-4.7,2.9-4.7,6c0,2,1,3.4,2.9,3.4
		C238.4,41,240.5,37.9,240.5,34.9z"/>
</g>
<g>
	<path fill="#231F20" d="M34.7,63.4c0-6.8,5.4-12.6,12-12.6c4.7,0,7.6,2.9,7.6,5.3c0,1.4-1,2.5-2.1,2.5c-1.1,0-1.9-0.8-1.9-1.9
		c0-0.6,0.4-1.2,0.8-1.5c-0.4-0.8-2-1.8-4.4-1.8c-5,0-8.9,4.6-8.9,9.7c0,4.2,2.5,6.8,6.3,6.8c2.3,0,4.4-1,6.3-2.8l1.8,1.8
		c-2.4,2.6-5.1,3.7-8.3,3.7C38.8,72.6,34.7,69.3,34.7,63.4z"/>
	<path fill="#231F20" d="M54.9,67c0-4.7,3.3-8.8,7.3-8.8c2.1,0,3.7,1.5,4.1,3.3l0.9-3.1h2.6l-2.4,9.8c-0.2,0.6-0.3,1.1-0.3,1.4
		c0,0.6,0.3,1,0.8,1c0.5,0,1.2-0.5,1.8-2.2l1.3,0.4c-0.8,2.8-2.3,3.7-3.8,3.7c-1.6,0-2.7-1.1-2.7-2.8v-0.2c-1.2,1.6-2.9,3-4.9,3
		C56.8,72.5,54.9,70.4,54.9,67z M65.6,64.1c0-2.1-1-3.4-3.1-3.4c-2.7,0-4.7,2.9-4.7,6c0,2,1,3.4,2.9,3.4
		C63.5,70.1,65.6,67.1,65.6,64.1z"/>
	<path fill="#231F20" d="M76,60.8h-2.6l0.6-2.4H79l-0.9,3.9c1.7-2.7,3.3-4.1,4.8-4.1c1.1,0,2.1,0.8,2.1,1.9c0,1.1-0.9,2-1.9,2
		c-1,0-1.7-0.6-1.9-1.4c-1,0.4-2.9,2.4-3.7,5.4L76,72.3h-2.8L76,60.8z"/>
	<path fill="#231F20" d="M85.3,67c0-4.7,3.3-8.8,7.3-8.8c2.1,0,3.7,1.5,4.1,3.3l0.9-3.1h2.6l-2.4,9.8c-0.2,0.6-0.3,1.1-0.3,1.4
		c0,0.6,0.3,1,0.8,1c0.5,0,1.2-0.5,1.8-2.2l1.3,0.4c-0.8,2.8-2.3,3.7-3.8,3.7c-1.6,0-2.7-1.1-2.7-2.8v-0.2c-1.2,1.6-2.9,3-4.9,3
		C87.3,72.5,85.3,70.4,85.3,67z M96.1,64.1c0-2.1-1-3.4-3.1-3.4c-2.7,0-4.7,2.9-4.7,6c0,2,1,3.4,2.9,3.4
		C94,70.1,96.1,67.1,96.1,64.1z"/>
	<path fill="#231F20" d="M106.3,60.8h-2.4l0.6-2.4h2.4l0.9-3.8c0.5-2.1,1.2-3.5,2.2-4.5c1.1-1.1,2.5-1.6,3.9-1.6
		c1.8,0,2.8,1,2.8,2.1s-0.9,1.8-1.8,1.8s-1.7-0.6-1.8-1.5c-0.4,0.1-0.9,0.4-1.2,0.6c-0.6,0.6-1.1,1.7-1.5,3.3l-0.8,3.5h3.6l-0.6,2.4
		h-3.6l-2.6,11.4h-2.8L106.3,60.8z"/>
	<path fill="#231F20" d="M115.8,66.2v0.5c0,2.1,1.7,3.5,4.2,3.5c1.5,0,2.8-0.3,4.6-1.2l-0.5,2.6c-1.4,0.7-2.6,1-4.6,1
		c-3.3,0-6.3-2.1-6.3-5.9c0-4.7,3.5-8.5,7.6-8.5c3.4,0,5.6,1.9,5.6,5.2c0,0.9-0.2,1.8-0.5,2.9H115.8z M116.2,64.2h7.2
		c0.1-0.4,0.2-0.8,0.2-1.2c0-1.4-1-2.5-2.9-2.5S117,62,116.2,64.2z"/>
	<path fill="#231F20" d="M134.6,69.7h2.4l3.7-15.9H138l0.6-2.6h15.3l-1.3,5.5h-2.8l0.7-3h-6.8l-1.6,6.9h6.4l-0.6,2.5h-6.3l-1.5,6.5
		h3l-0.6,2.6H134L134.6,69.7z"/>
	<path fill="#231F20" d="M151.5,66.4c0-4.2,3.3-8.2,7.8-8.2c4,0,6.2,2.9,6.2,6.2c0,4.2-3.3,8.2-7.8,8.2
		C153.7,72.5,151.5,69.7,151.5,66.4z M162.7,64.3c0-2.4-1.5-3.8-3.5-3.8c-2.7,0-4.9,2.6-4.9,5.8c0,2.4,1.5,3.8,3.5,3.8
		C160.5,70.2,162.7,67.6,162.7,64.3z"/>
	<path fill="#231F20" d="M171,60.8h-2.6l0.6-2.4h4.9l-0.9,3.9c1.7-2.7,3.3-4.1,4.8-4.1c1.1,0,2.1,0.8,2.1,1.9c0,1.1-0.9,2-1.9,2
		c-1,0-1.7-0.6-1.9-1.4c-1,0.4-2.9,2.4-3.7,5.4l-1.5,6.2h-2.8L171,60.8z"/>
	<path fill="#231F20" d="M191.3,69.7h2.6l3.7-16h-4.7l-0.7,3.3h-2.8l1.3-5.9h17.8l-1.3,5.9h-2.8l0.7-3.3h-4.6l-3.7,16h2.9l-0.6,2.6
		h-8.5L191.3,69.7z"/>
	<path fill="#231F20" d="M208.3,60.8h-2.5l0.6-2.4h4.3l0.6,10.5l4.9-8.9h1.6l1.9,9.2c1.9-2.9,3.5-5.5,3.7-7.4
		c-0.7-0.2-1.4-0.8-1.4-1.8c0-1,0.8-1.9,1.9-1.9c1.3,0,2.1,0.9,2.1,2.4c0,2.3-2.1,6.3-6.2,12h-1.7l-1.8-8.4l-5,8.4h-1.9L208.3,60.8z
		"/>
	<path fill="#231F20" d="M227.9,66.4c0-4.2,3.3-8.2,7.8-8.2c4,0,6.2,2.9,6.2,6.2c0,4.2-3.3,8.2-7.8,8.2
		C230.1,72.5,227.9,69.7,227.9,66.4z M239.1,64.3c0-2.4-1.5-3.8-3.5-3.8c-2.7,0-4.9,2.6-4.9,5.8c0,2.4,1.5,3.8,3.5,3.8
		C236.9,70.2,239.1,67.6,239.1,64.3z"/>
</g>
<g>
	<path fill="#231F20" d="M334.5,61.4c0.2-0.6,1.2-4,1.8-5.9c-4.3-1.3-7.6-4.1-7.6-7.2c0-2,1.2-3.7,3.2-3.7c1.8,0,3,1.4,3,3
		c0,0.9-0.4,1.7-1,2.2c0.6,0.8,2.1,1.5,3.8,2l2.9-9.4c-3.8-1.6-7.7-3.7-7.7-8.4c0-4.4,4.5-8.5,11.6-8.5c0.4,0,0.7,0,1.1,0.1l1.3-4
		l3.6,1l-1.2,3.7c3.8,1.1,6.5,3.7,6.5,6.5c0,2.2-1.4,3.6-3.2,3.6c-1.7,0-3-1.3-3-2.9c0-0.8,0.3-1.6,0.9-2.3
		c-0.5-0.5-1.5-0.9-2.7-1.2l-2.8,9.1c3.9,1.8,8.1,4,8.1,8.4c0,5.1-4.5,8.8-11.6,8.8c-0.6,0-1.1-0.1-1.6-0.1l-1.9,6.2L334.5,61.4z
		 M342.2,37.6l2.5-8c-4.1,0-6.2,1.6-6.2,4C338.5,35.4,340.1,36.6,342.2,37.6z M343.7,43.8l-2.7,8.5h0.2c3.9,0,6.7-1.5,6.7-4.2
		C347.9,46.1,346.1,44.8,343.7,43.8z"/>
	<path fill="#231F20" d="M354,53.3c2.8-6,8.8-9.5,14.7-12.3c5.1-2.3,8.9-4.2,8.9-7.3c0-2.4-2.5-4-6.3-4c-2.6,0-4.7,0.8-5.9,1.9
		c0.6,0.5,0.9,1.3,0.9,2.2c0,1.8-1.4,3.2-3.2,3.2c-1.9,0-3.5-1.5-3.5-3.5c0-3.9,4.8-8.2,12.1-8.2c6.8,0,11.2,3.6,11.2,8.1
		c0,5.5-6.2,8.5-12.1,11.1c-6.1,2.7-8.8,4.5-10.8,7.4h15.2l1.2-5h4.4l-2.1,9.2h-24.1L354,53.3z"/>
	<path fill="#231F20" d="M384.9,42.9c0-8.9,6.7-17.6,16.1-17.6c8.2,0,13.1,6.2,13.1,13.7c0,8.9-6.7,17.6-16.1,17.6
		C389.6,56.6,384.9,50.5,384.9,42.9z M408.7,39c0-5.4-3.2-9.3-7.8-9.3c-6.2,0-10.7,6.2-10.7,13.1c0,5.4,3.2,9.4,7.9,9.4
		C404.2,52.2,408.7,45.9,408.7,39z"/>
</g>
</svg>
