<?xml version="1.0" encoding="utf-8"?>
<!-- Generator: Adobe Illustrator 17.0.0, SVG Export Plug-In . SVG Version: 6.00 Build 0)  -->
<!DOCTYPE svg PUBLIC "-//W3C//DTD SVG 1.1//EN" "http://www.w3.org/Graphics/SVG/1.1/DTD/svg11.dtd">
<svg version="1.1" id="Layer_1" xmlns="http://www.w3.org/2000/svg" xmlns:xlink="http://www.w3.org/1999/xlink" x="0px" y="0px"
	 width="215.079px" height="477.708px" viewBox="0 0 215.079 477.708" enable-background="new 0 0 215.079 477.708"
	 xml:space="preserve">
<rect x="-1.214" y="432.708" opacity="0.13" fill="#C3996B" width="210.52" height="45"/>
<g>
	<path fill="#231F20" d="M13.283,456.821c0-0.573,0.366-0.955,0.843-0.955c0.414,0,0.701,0.351,0.701,0.637
		c0,0.351-0.191,0.621-0.494,0.796c0.318,0.478,1.178,1.003,2.562,1.003c1.257,0,2.419-0.859,2.419-2.054
		c0-1.002-0.844-1.607-1.798-2.196c-1.337-0.827-2.451-1.56-2.451-3.008c0-1.512,1.401-2.801,3.247-2.801
		c1.639,0,3.056,0.955,3.056,2.006c0,0.604-0.414,0.923-0.796,0.923c-0.414,0-0.7-0.303-0.7-0.685c0-0.223,0.143-0.493,0.461-0.685
		c-0.318-0.35-1.019-0.764-2.085-0.764c-1.321,0-2.276,0.827-2.276,1.941c0,1.003,0.748,1.512,1.99,2.276
		c1.162,0.716,2.26,1.479,2.26,2.928c0,1.703-1.544,2.913-3.39,2.913C14.731,459.098,13.283,457.809,13.283,456.821z"/>
	<path fill="#231F20" d="M24.3,452.222l-1.13,4.329c-0.064,0.239-0.112,0.525-0.112,0.812c0,0.541,0.43,0.955,1.114,0.955
		c0.987,0,2.26-1.066,2.722-2.912l0.795-3.184h0.828l-1.257,5.014c-0.063,0.255-0.111,0.509-0.111,0.637
		c0,0.318,0.207,0.525,0.493,0.525c0.351,0,0.621-0.318,0.923-1.051l0.493,0.159c-0.318,0.938-0.795,1.496-1.528,1.496
		c-0.684,0-1.146-0.43-1.146-1.13c0-0.159,0.032-0.351,0.079-0.573c-0.588,0.971-1.4,1.734-2.419,1.734
		c-1.066,0-1.83-0.652-1.83-1.639c0-0.334,0.08-0.652,0.143-0.907l0.923-3.533h-1.273l0.191-0.732H24.3z"/>
	<path fill="#231F20" d="M34.855,457.872c0-0.176,0.064-0.51,0.127-0.732l0.684-2.371c0.096-0.351,0.159-0.621,0.159-0.907
		c0-0.604-0.477-1.051-1.162-1.051c-0.987,0-2.244,1.035-2.722,2.913l-0.795,3.183h-0.828l1.496-5.952h-1.273l0.191-0.732h2.053
		l-0.414,1.607c0.653-1.05,1.464-1.734,2.419-1.734c1.114,0,1.878,0.748,1.878,1.734c0,0.335-0.096,0.7-0.191,1.051l-0.685,2.34
		c-0.063,0.223-0.111,0.524-0.111,0.652c0,0.318,0.207,0.525,0.493,0.525c0.35,0,0.621-0.318,0.923-1.051l0.493,0.159
		c-0.318,0.938-0.795,1.496-1.528,1.496C35.364,459.002,34.855,458.54,34.855,457.872z"/>
	<path fill="#231F20" d="M42.275,452.095c1.146,0,2.069,0.637,2.26,1.734l1.353-5.841h-1.273l0.175-0.731h2.101l-2.34,9.979
		c-0.063,0.255-0.111,0.509-0.111,0.637c0,0.318,0.175,0.525,0.478,0.525c0.366,0,0.637-0.318,0.939-1.051l0.494,0.159
		c-0.318,0.938-0.796,1.496-1.528,1.496c-0.685,0-1.162-0.446-1.162-1.114c0-0.063,0-0.144,0.016-0.223
		c-0.573,0.764-1.4,1.368-2.387,1.368c-1.448,0-2.531-1.066-2.531-2.785C38.757,453.909,40.444,452.095,42.275,452.095z
		 M44.248,454.88c0-1.226-0.7-2.037-1.91-2.037c-1.607,0-2.689,1.655-2.689,3.39c0,1.241,0.668,2.053,1.814,2.053
		C43.15,458.285,44.248,456.439,44.248,454.88z"/>
	<path fill="#231F20" d="M47.419,456.265c0-2.276,1.655-4.17,3.581-4.17c1.209,0,2.005,0.668,2.196,1.734l0.398-1.687h0.828
		l-1.241,5.093c-0.064,0.255-0.111,0.509-0.111,0.637c0,0.318,0.207,0.525,0.493,0.525c0.35,0,0.621-0.318,0.923-1.051l0.494,0.159
		c-0.318,0.938-0.796,1.496-1.528,1.496c-0.7,0-1.178-0.446-1.178-1.066v-0.271c-0.589,0.779-1.417,1.368-2.387,1.368
		C48.438,459.033,47.419,457.983,47.419,456.265z M52.878,454.848c0-1.193-0.636-2.005-1.846-2.005
		c-1.607,0-2.722,1.671-2.722,3.405c0,1.242,0.605,2.037,1.75,2.037C51.796,458.285,52.878,456.344,52.878,454.848z"/>
	<path fill="#231F20" d="M54.25,461.294c0-0.366,0.271-0.717,0.668-0.717c0.397,0,0.636,0.287,0.668,0.732h0.08
		c0.382,0,1.241-0.604,2.721-2.419l-1.193-5.937h-1.242l0.175-0.732h1.814l1.066,5.873c1.273-1.655,2.546-3.454,2.77-4.52
		c-0.318-0.096-0.653-0.366-0.653-0.796c0-0.351,0.302-0.685,0.716-0.685c0.43,0,0.78,0.318,0.78,0.938
		c0,1.162-0.971,2.722-3.422,5.841c-2.005,2.562-3.056,3.215-3.995,3.215C54.728,462.089,54.25,461.755,54.25,461.294z"/>
	<path fill="#231F20" d="M63.723,458.158c-0.238-0.238-0.366-0.509-0.366-0.78c0-0.382,0.271-0.747,0.668-0.747
		s0.589,0.286,0.589,0.572c0,0.223-0.08,0.366-0.255,0.558c0.064,0.079,0.159,0.143,0.287,0.223c0.334,0.19,0.859,0.35,1.448,0.35
		c0.796,0,1.417-0.43,1.417-1.098c0-0.669-0.637-1.019-1.353-1.369c-1.019-0.509-1.878-0.955-1.878-1.926
		c0-1.066,0.923-1.846,2.308-1.846c0.844,0,1.576,0.286,1.99,0.7c0.238,0.223,0.366,0.493,0.366,0.78
		c0,0.445-0.302,0.731-0.637,0.731c-0.35,0-0.604-0.238-0.604-0.572c0-0.176,0.063-0.366,0.207-0.558
		c-0.032-0.031-0.096-0.096-0.271-0.175c-0.239-0.111-0.653-0.207-1.114-0.207c-0.891,0-1.417,0.462-1.417,1.019
		c0,0.573,0.605,0.907,1.4,1.305c0.971,0.478,1.831,0.971,1.831,1.989c0,1.258-1.114,1.926-2.308,1.926
		C65.124,459.033,64.217,458.668,63.723,458.158z"/>
	<path fill="#231F20" d="M76.636,457.458h1.878l1.209-5.22l-1.719,0.397l-0.063-1.448l3.024-0.748l0.828,0.382l-1.544,6.637h1.91
		l-0.318,1.433h-5.522L76.636,457.458z"/>
	<path fill="#231F20" d="M83.53,457.458h1.878l1.209-5.22l-1.719,0.397l-0.063-1.448l3.024-0.748l0.828,0.382l-1.544,6.637h1.91
		l-0.318,1.433h-5.523L83.53,457.458z"/>
	<path fill="#231F20" d="M90.679,457.761c0-0.7,0.573-1.273,1.273-1.273s1.272,0.573,1.272,1.273s-0.572,1.272-1.272,1.272
		S90.679,458.461,90.679,457.761z M91.634,453.559c0-0.7,0.572-1.272,1.272-1.272s1.273,0.572,1.273,1.272s-0.573,1.273-1.273,1.273
		S91.634,454.259,91.634,453.559z"/>
	<path fill="#231F20" d="M94.294,458.35c0-0.765,0.461-1.226,1.034-1.226c0.541,0,0.986,0.445,0.986,0.986
		c0,0.318-0.175,0.604-0.318,0.717c0.111,0.206,0.765,0.668,1.895,0.668c1.241,0,1.973-0.844,1.973-1.687
		c0-0.955-0.764-1.655-2.164-1.655h-0.462l0.335-1.369h0.397c1.512,0,2.753-0.589,2.753-1.703c0-0.779-0.7-1.209-1.671-1.209
		c-0.764,0-1.082,0.111-1.289,0.255c0.111,0.159,0.176,0.365,0.176,0.572c0,0.558-0.43,0.987-0.987,0.987
		c-0.478,0-1.034-0.287-1.034-1.083c0-1.13,1.273-2.18,3.23-2.18c2.006,0,3.374,1.066,3.374,2.594c0,1.082-0.764,2.244-2.785,2.53
		c1.353,0.541,1.878,1.448,1.878,2.355c0,1.671-1.464,3.024-3.756,3.024C95.662,460.928,94.294,459.574,94.294,458.35z"/>
	<path fill="#231F20" d="M103.56,455.229c0-2.387,1.878-4.806,4.504-4.806c2.372,0,3.709,1.671,3.709,3.787
		c0,2.388-1.879,4.807-4.504,4.807C104.896,459.018,103.56,457.347,103.56,455.229z M109.958,454.228
		c0-1.385-0.78-2.355-1.942-2.355c-1.512,0-2.642,1.607-2.642,3.342c0,1.385,0.78,2.355,1.941,2.355
		C108.828,457.569,109.958,455.962,109.958,454.228z"/>
	<path fill="#231F20" d="M112.698,456.328c0-2.403,1.607-4.52,3.629-4.52c0.923,0,1.671,0.764,1.958,1.56l0.478-1.433h1.623
		l-1.193,4.742c-0.08,0.303-0.128,0.573-0.128,0.748c0,0.287,0.111,0.43,0.351,0.43c0.207,0,0.541-0.175,0.891-1.146l0.7,0.271
		c-0.478,1.64-1.368,2.053-2.132,2.053c-0.907,0-1.433-0.62-1.433-1.575c-0.573,0.859-1.417,1.575-2.499,1.575
		C113.638,459.033,112.698,457.951,112.698,456.328z M117.982,454.832c0-0.907-0.445-1.48-1.369-1.48
		c-1.161,0-2.101,1.306-2.101,2.722c0,0.828,0.414,1.48,1.258,1.48C116.932,457.554,117.982,456.328,117.982,454.832z"/>
	<path fill="#231F20" d="M123.334,453.399h-1.273l0.382-1.464h2.722l-0.351,1.607c0.478-0.892,1.337-1.734,2.229-1.734
		c0.986,0,1.64,0.716,1.751,1.734c0.604-1.066,1.464-1.734,2.26-1.734c0.971,0,1.782,0.716,1.782,2.084
		c0,0.351-0.048,0.732-0.175,1.162l-0.51,1.83c-0.048,0.191-0.079,0.351-0.079,0.493c0,0.318,0.127,0.478,0.366,0.478
		c0.238,0,0.541-0.175,0.891-1.146l0.7,0.271c-0.413,1.448-1.161,2.053-2.101,2.053c-1.098,0-1.623-0.652-1.623-1.543
		c0-0.255,0.031-0.525,0.111-0.796l0.493-1.767c0.08-0.255,0.111-0.493,0.111-0.685c0-0.637-0.414-0.971-0.875-0.971
		c-0.685,0-1.178,0.557-1.448,1.687l-0.987,3.947h-1.782l1.003-3.947c0.063-0.271,0.111-0.572,0.111-0.764
		c0-0.525-0.382-0.923-0.875-0.923c-0.685,0-1.178,0.557-1.448,1.687l-0.987,3.947h-1.782L123.334,453.399z"/>
	<path fill="#231F20" d="M135.658,453.511h4.615l-0.413,1.783h-4.615L135.658,453.511z"/>
	<path fill="#231F20" d="M147.756,456.742h1.56l-0.318,1.432h-1.575l-0.604,2.643h-1.688l0.604-2.643h-4.646l-0.207-0.859
		l6.971-7.065l1.098,1.002l-5.427,5.491h2.547l0.413-1.799l1.847-0.668L147.756,456.742z"/>
	<path fill="#231F20" d="M150.816,457.761c0-0.7,0.573-1.273,1.273-1.273s1.272,0.573,1.272,1.273s-0.572,1.272-1.272,1.272
		S150.816,458.461,150.816,457.761z M151.771,453.559c0-0.7,0.572-1.272,1.272-1.272s1.273,0.572,1.273,1.272
		s-0.573,1.273-1.273,1.273S151.771,454.259,151.771,453.559z"/>
	<path fill="#231F20" d="M155.544,455.229c0-2.387,1.878-4.806,4.504-4.806c2.372,0,3.709,1.671,3.709,3.787
		c0,2.388-1.879,4.807-4.504,4.807C156.881,459.018,155.544,457.347,155.544,455.229z M161.942,454.228
		c0-1.385-0.78-2.355-1.942-2.355c-1.512,0-2.642,1.607-2.642,3.342c0,1.385,0.78,2.355,1.941,2.355
		C160.812,457.569,161.942,455.962,161.942,454.228z"/>
	<path fill="#231F20" d="M165.002,455.229c0-2.387,1.878-4.806,4.504-4.806c2.372,0,3.709,1.671,3.709,3.787
		c0,2.388-1.879,4.807-4.505,4.807C166.339,459.018,165.002,457.347,165.002,455.229z M171.4,454.228
		c0-1.385-0.78-2.355-1.942-2.355c-1.512,0-2.642,1.607-2.642,3.342c0,1.385,0.78,2.355,1.941,2.355
		C170.271,457.569,171.4,455.962,171.4,454.228z"/>
	<path fill="#231F20" d="M172.821,460.593h1.002l1.672-7.193h-1.306l0.382-1.464h2.77l-0.35,1.592
		c0.572-0.907,1.495-1.719,2.562-1.719c1.607,0,2.403,1.113,2.403,2.737c0,2.402-1.607,4.487-3.708,4.487
		c-0.986,0-1.655-0.7-1.989-1.479l-0.7,3.039h1.241l-0.382,1.433h-3.979L172.821,460.593z M180.142,454.784
		c0-0.827-0.461-1.496-1.337-1.496c-1.209,0-2.26,1.241-2.26,2.737c0,0.907,0.462,1.465,1.417,1.465
		C179.171,457.49,180.142,456.201,180.142,454.784z"/>
	<path fill="#231F20" d="M184.507,453.399h-1.273l0.382-1.464h2.722l-0.351,1.607c0.478-0.892,1.337-1.734,2.229-1.734
		c0.986,0,1.64,0.716,1.751,1.734c0.604-1.066,1.464-1.734,2.26-1.734c0.971,0,1.782,0.716,1.782,2.084
		c0,0.351-0.048,0.732-0.175,1.162l-0.51,1.83c-0.048,0.191-0.079,0.351-0.079,0.493c0,0.318,0.127,0.478,0.366,0.478
		c0.238,0,0.541-0.175,0.891-1.146l0.7,0.271c-0.413,1.448-1.161,2.053-2.101,2.053c-1.098,0-1.623-0.652-1.623-1.543
		c0-0.255,0.031-0.525,0.111-0.796l0.493-1.767c0.08-0.255,0.111-0.493,0.111-0.685c0-0.637-0.414-0.971-0.875-0.971
		c-0.685,0-1.178,0.557-1.448,1.687l-0.987,3.947h-1.782l1.003-3.947c0.063-0.271,0.111-0.572,0.111-0.764
		c0-0.525-0.382-0.923-0.875-0.923c-0.685,0-1.178,0.557-1.448,1.687l-0.987,3.947h-1.782L184.507,453.399z"/>
</g>
<g>
	<path fill="#231F20" d="M0.685,105.022h14.675V2.904H0.685V0h29.199c15.132,0,24.613,0,33.631,2.904
		C78.652,7.796,82.319,18.65,82.319,26.141c0,14.675-13.301,23.389-28.74,25.376c3.823,0.154,8.868,0.613,15.135,2.906
		c10.7,4.127,17.885,12.23,17.885,24.46c0,8.255-2.753,15.899-10.703,21.708c-10.089,7.337-21.706,7.337-37.606,7.337H0.685V105.022
		z M29.884,2.904v47.39l10.854-0.152c14.37,0,25.681-3.211,25.681-23.542c0-23.391-15.439-23.543-31.184-23.696H29.884z
		 M36.61,105.022c10.7-0.154,15.134-0.154,19.109-1.375c12.688-3.822,13.452-17.582,13.452-24.308c0-12.382-2.752-22.013-15.9-25.07
		c-4.431-1.07-4.891-1.07-23.387-1.07v51.823H36.61z"/>
	<path fill="#231F20" d="M150.349,105.022v2.905h-44.486v-2.905h14.675V2.904h-14.675V0h42.345c11.772,0,23.237,0,31.797,6.727
		c4.436,3.362,8.715,9.171,8.715,18.038c0,6.726-2.599,12.841-8.409,17.733c-8.865,7.338-21.098,8.255-25.223,8.561
		c7.643,0.918,15.135,3.363,20.79,8.56c7.186,6.575,9.172,14.523,9.172,23.848c0,11.465,0,13.758,0.611,15.745
		c1.223,4.127,4.435,5.962,7.645,5.962c2.599,0,4.585-1.069,6.421-2.141l1.07,2.753c-2.141,1.375-5.197,3.058-11.162,3.058
		c-7.488,0-12.076-3.211-14.521-5.657c-6.877-6.421-7.187-15.44-7.337-23.848v-3.362c0-7.033,0-18.5-10.854-22.168
		c-5.351-1.833-10.241-1.833-21.097-1.528v52.741H150.349z M135.824,3.209v45.556h6.575c6.572,0,15.744,0,21.555-3.667
		c5.962-3.976,7.947-11.62,7.947-18.803c0-4.894-1.221-11.772-4.279-15.747c-5.656-7.491-16.355-7.338-25.223-7.338H135.824z"/>
	<path fill="#231F20" d="M97.487,139.21H85.714v73.684c0,5.044-0.153,13.453-4.74,20.486c-7.798,12.381-21.401,12.688-28.127,12.688
		c-11.161,0-22.474-2.293-29.658-10.549c-7.184-8.103-7.339-18.498-7.491-27.059V139.21H1.328v-2.904h43.876v2.904H30.374v72.462
		c0,6.878,0,14.981,4.74,21.554c3.973,5.349,11.618,9.478,21.096,9.478c11.771,0,18.194-6.42,20.638-9.937
		c5.35-7.337,5.35-16.509,5.35-24.306V139.21H68.745v-2.904h28.741V139.21z"/>
	<path fill="#231F20" d="M195.479,139.21v105.023h-2.6l-48.768-74.448c-11.464-17.429-16.967-25.684-19.108-29.353v100.895h14.675
		v2.906H107.27v-2.906h13.912V139.21H107.27v-2.904h34.09l31.951,49.072c2.906,4.432,5.809,8.714,8.561,13.299l9.938,15.592V139.21
		h-13.761v-2.904h29.81v2.904H195.479z"/>
	<path fill="#231F20" d="M77.279,300.584c-1.834-7.487-5.502-14.674-11.465-19.717c-5.044-4.128-11.619-6.422-18.652-6.422
		c-2.139,0-5.349,0.153-9.323,1.376c-4.28,1.376-11.465,4.587-15.289,14.676c-2.289,6.419-3.207,19.72-3.207,39.746
		c0,22.625,0,32.869,7.795,40.97c4.434,4.738,11.618,7.644,19.263,7.644c17.734,0,25.988-14.982,27.057-17.275
		c0.919-1.527,4.282-9.478,5.198-11.159h2.6l-0.916,30.115h-2.295l-5.35-8.256c-8.103,6.422-16.814,10.09-26.906,10.09
		c-22.47,0-45.554-21.554-45.554-54.575c0-36.842,25.376-57.021,47.234-57.021c11.161,0,18.191,4.585,25.683,9.478l4.74-7.642h2.141
		v27.972H77.279z"/>
	<path fill="#231F20" d="M172.367,327.188h-44.485v50.446h14.523v2.904H97.767v-2.904h14.065V275.517H97.767v-2.905h44.639v2.905
		h-14.523v47.847h44.485v-47.847h-14.521v-2.905h44.485v2.905h-14.217v102.116h14.217v2.904h-44.485v-2.904h14.521V327.188z"/>
</g>
</svg>
