<?xml version="1.0" encoding="utf-8"?>
<!-- Generator: Adobe Illustrator 17.1.0, SVG Export Plug-In . SVG Version: 6.00 Build 0)  -->
<!DOCTYPE svg PUBLIC "-//W3C//DTD SVG 1.1//EN" "http://www.w3.org/Graphics/SVG/1.1/DTD/svg11.dtd">
<svg version="1.1" id="Layer_1" xmlns="http://www.w3.org/2000/svg" xmlns:xlink="http://www.w3.org/1999/xlink" x="0px" y="0px"
	 viewBox="0 0 597 318.75" enable-background="new 0 0 597 318.75" xml:space="preserve">
<rect x="0.738" y="271.733" opacity="0.13" fill="#C2986B" enable-background="new    " width="595.872" height="38.585"/>
<line fill="none" stroke="#010101" stroke-width="1.25" x1="0.776" y1="310.565" x2="596.671" y2="310.565"/>
<g>
	<path d="M1.457,68.427h9.538L25.937,3.36H15.445l0.53-2.332h23.526c5.299,0,9.75,0.848,13.353,2.861
		c4.557,2.543,7.418,7.1,7.418,13.035c0,9.432-7.312,16.956-19.923,18.015c9.644,1.696,14.942,7.207,14.942,15.366
		c0,5.511-2.12,10.173-5.829,13.564c-3.073,2.861-7.206,4.875-12.081,5.935c-3.073,0.636-6.464,0.954-10.385,0.954H0.927
		L1.457,68.427z M27.315,68.427c3.497,0,6.782-0.424,9.75-1.06c4.451-1.06,8.054-2.861,10.809-5.617
		c2.967-2.755,4.663-6.782,4.663-11.445c0-7.736-5.935-14.412-19.287-14.412H21.274L13.75,68.427H27.315z M34.203,33.562
		c15.472,0,23.314-6.994,23.314-16.638c0-4.875-2.226-8.902-6.464-11.127c-3.073-1.696-7.1-2.438-11.975-2.438H28.692l-6.888,30.202
		H34.203z"/>
	<path d="M59.955,68.427h9.538L84.435,3.36H73.944l0.53-2.332H94.82c9.008,0,15.472,2.12,19.605,6.252
		c2.861,2.755,4.345,6.782,4.345,11.657c0,10.703-8.478,19.075-23.102,20.665l13.141,28.824h8.16l-0.53,2.332h-9.538L93.125,39.92
		h-2.649c-6.358,0-8.583,0-11.551-0.212l-6.676,28.718h10.703l-0.53,2.332H59.425L59.955,68.427z M116.121,18.832
		c0-4.027-1.166-7.524-3.709-9.961c-3.497-3.603-9.326-5.511-18.016-5.511H87.19l-7.736,34.017
		c2.543,0.212,5.617,0.212,10.915,0.212C106.477,37.589,116.121,29.959,116.121,18.832z"/>
	<path d="M130.003,53.379c0-3.285,0.636-7.1,1.483-10.809l9.008-39.21h-10.491l0.53-2.332h23.102l-0.53,2.332h-9.961l-9.114,39.528
		c-0.848,3.709-1.271,6.888-1.271,10.173c0,11.021,7.312,16.32,17.697,16.32c12.929,0,20.029-8.478,23.526-24.162l9.644-41.859
		H172.71l0.53-2.332h23.102l-0.53,2.332h-9.538l-9.749,42.071c-3.921,17.167-11.551,26.281-26.281,26.281
		C138.693,71.712,130.003,65.565,130.003,53.379z"/>
	<path d="M213.51,5.903l-14.306,62.523h10.809l-0.53,2.332h-22.996l0.53-2.332h9.538L211.497,3.36h-10.385l0.424-2.332h12.399
		l30.202,64.855L258.443,3.36h-10.915l0.53-2.332h23.102l-0.53,2.332h-9.538l-15.578,67.716h-1.695L213.51,5.903z"/>
	<path d="M262.895,68.427h9.538L287.374,3.36h-10.491l0.53-2.332h20.771c11.233,0,20.347,3.073,26.387,9.114
		c4.663,4.663,7.524,11.339,7.524,19.605c0,11.445-4.027,20.876-11.551,28.4c-7.948,8.054-20.559,12.611-35.818,12.611h-22.36
		L262.895,68.427z M285.043,68.427c14.306,0,25.963-4.451,33.487-11.975c6.782-6.888,10.809-16.002,10.809-26.599
		c0-7.736-2.543-13.988-6.676-18.121c-5.617-5.511-13.988-8.372-24.797-8.372h-7.736l-14.942,65.067H285.043z"/>
	<path d="M324.148,68.427h6.146L369.716,3.36h-9.75l0.53-2.332h24.48l-0.424,2.332h-9.325l9.325,65.067h7.312l-0.424,2.332h-20.028
		l0.53-2.332h9.961l-3.391-24.162h-30.626l-14.519,24.162h10.703l-0.53,2.332h-19.923L324.148,68.427z M378.194,41.934
		l-5.511-38.892l-23.42,38.892H378.194z"/>
	<path d="M401.402,68.427h10.915l6.676-27.341L405.111,3.36h-7.206l0.529-2.332h19.923l-0.529,2.332h-9.855l12.822,35.501
		l29.99-35.501h-9.644l0.53-2.332h19.923l-0.53,2.332h-6.994l-32.428,38.044l-6.57,27.023h11.127l-0.529,2.332h-24.798
		L401.402,68.427z"/>
	<path d="M47.449,143.926h8.795l13.67-59.132h-9.855l1.272-5.299h25.433c5.087,0,9.538,1.06,13.035,3.073
		c4.769,2.755,7.524,7.418,7.524,13.035c0,9.538-7.524,16.532-18.015,18.122c6.994,1.907,13.035,7.312,13.035,15.26
		c0,5.299-2.12,9.855-5.935,13.353c-3.073,2.861-7.206,4.875-11.763,5.935c-2.649,0.636-5.723,0.954-8.69,0.954H46.177
		L47.449,143.926z M76.697,143.926c2.649,0,5.193-0.318,7.418-0.954c3.604-0.954,6.252-2.543,8.478-4.769
		c2.438-2.438,3.709-5.617,3.709-9.22c0-6.888-6.252-13.247-19.393-13.247h-8.054l-6.57,28.188H76.697z M79.664,110.651
		c12.611,0,21.619-5.405,21.619-14.836c0-3.709-1.696-6.994-5.511-9.007c-2.543-1.272-5.935-2.014-10.173-2.014h-9.644
		l-5.935,25.857H79.664z"/>
	<path d="M108.807,143.926h8.795l13.67-59.132h-9.855l1.272-5.299h20.876c9.008,0,15.684,2.12,19.923,6.358
		c3.073,3.073,4.557,7.1,4.557,11.869c0,10.385-7.524,18.757-20.453,21.406l11.869,24.797h8.16l-1.271,5.299h-11.127l-13.776-29.354
		c-1.377,0.106-2.861,0.106-4.345,0.106c-2.755,0-5.617-0.106-7.842-0.212l-5.617,24.162h9.855l-1.271,5.299h-24.692
		L108.807,143.926z M162.005,97.934c0-3.391-1.06-6.252-3.391-8.584c-3.073-3.073-8.478-4.557-15.366-4.557h-5.935l-6.888,29.672
		c2.543,0.106,5.087,0.212,9.326,0.212C153.633,114.678,162.005,107.684,162.005,97.934z"/>
	<path d="M178.961,130.361c0-2.331,0.318-4.98,0.954-7.63l8.796-37.938h-9.855l1.271-5.299h24.692l-1.272,5.299h-8.795
		l-8.796,38.256c-0.53,2.438-0.848,4.875-0.848,7.1c0,8.69,4.663,15.048,16.85,15.048c11.657,0,18.227-8.054,20.559-18.439
		l9.538-41.965h-9.855l1.271-5.299h24.691l-1.271,5.299h-8.796l-9.855,42.919c-2.967,13.141-11.339,22.784-26.811,22.784
		C186.697,150.496,178.961,142.23,178.961,130.361z"/>
	<path d="M270.523,89.244l-12.611,54.682h9.855l-1.272,5.299h-24.479l1.272-5.299h8.795l13.67-59.132h-9.855l1.272-5.299h14.942
		l28.507,57.543l11.975-52.244h-9.855l1.272-5.299h24.056l-1.272,5.299h-8.478l-14.942,64.749h-2.967L270.523,89.244z"/>
	<path d="M323.829,143.926h8.795l13.67-59.132h-9.855l1.272-5.299h21.83c13.882,0,21.725,3.179,28.294,9.75
		c4.345,4.345,7.101,11.127,7.101,18.651c0,11.127-3.815,20.771-10.81,27.765c-8.901,8.902-21.3,13.564-37.62,13.564h-23.95
		L323.829,143.926z M347.673,143.926c13.564,0,24.268-4.133,31.156-11.021c6.464-6.464,9.643-14.73,9.643-24.691
		c0-6.358-2.225-11.975-5.616-15.366c-4.98-4.98-11.233-8.054-23.844-8.054h-6.676l-13.67,59.132H347.673z"/>
	<path d="M386.883,143.926h6.464l35.395-59.132h-8.266l1.271-5.299h28.825l-1.272,5.299h-8.054l8.054,59.132h7.524l-1.271,5.299
		h-21.406l1.271-5.299h7.736l-2.544-19.71h-29.143l-11.656,19.71h9.008l-1.272,5.299h-21.936L386.883,143.926z M439.87,118.917
		l-4.558-34.653l-20.664,34.653H439.87z"/>
	<path d="M466.894,143.926h10.173l5.723-23.208l-12.081-35.925h-7.63l1.378-5.299h22.042l-1.166,5.299h-8.371l10.067,31.05
		l25.327-31.05h-7.948l1.378-5.299h22.042l-1.166,5.299h-7.312l-30.944,36.984l-5.192,22.148h10.174l-1.166,5.299h-26.705
		L466.894,143.926z"/>
	<path d="M112.193,216.987h7.418l11.233-48.323h-8.478l2.437-10.704h22.784c7.206,0,12.505,0.742,16.532,2.755
		c5.616,2.755,9.326,8.054,9.326,14.412c0,9.326-7.842,15.896-16.426,17.062c7.1,2.013,12.081,7.948,12.081,14.306
		c0,6.252-2.225,11.233-6.464,14.73c-3.497,2.861-8.372,4.769-14.624,5.723c-3.179,0.53-6.676,0.742-10.597,0.742h-27.659
		L112.193,216.987z M139.216,217.199c2.649,0,4.981-0.212,6.888-0.53c3.498-0.636,5.935-1.696,7.63-3.391
		c1.907-1.908,2.755-4.345,2.755-7.524c0-5.935-5.511-8.69-13.247-8.69h-6.994l-4.769,20.135H139.216z M143.243,187.527
		c11.445,0,17.591-3.815,17.591-10.809c0-2.967-1.696-5.829-4.981-6.994c-2.225-0.848-5.298-1.271-9.643-1.271h-3.391l-4.451,19.075
		H143.243z"/>
	<path d="M174.824,216.987h7.418l11.233-48.323h-8.478l2.438-10.704h22.678c9.75,0,16.744,2.12,21.088,6.464
		c3.391,3.391,5.193,7.842,5.193,13.141c0,10.809-6.994,19.181-18.545,22.466l7.63,16.956h8.372l-2.438,10.703h-14.412
		l-10.491-26.175h-1.484c-2.119,0-4.557-0.106-6.994-0.318l-3.815,15.79h8.69l-2.438,10.703h-28.083L174.824,216.987z
		 M224.207,178.52c0-2.755-0.954-4.981-2.543-6.57c-2.225-2.226-6.04-3.285-11.763-3.285h-4.557l-5.086,22.36
		c2.332,0.318,4.663,0.424,7.736,0.424C218.06,191.448,224.207,186.043,224.207,178.52z"/>
	<path d="M244.978,207.874c0-2.967,0.636-6.782,1.484-10.279l6.676-28.93h-8.16l2.438-10.704h28.083l-2.437,10.704h-7.948
		l-6.782,29.46c-0.742,3.073-1.271,6.252-1.271,8.584c0,7.63,4.451,11.339,12.187,11.339c8.69,0,14.095-5.51,16.32-15.366
		l7.842-34.017h-9.22l2.438-10.704h28.083l-2.438,10.704h-7.206l-8.054,34.971c-3.921,16.426-12.081,25.327-29.566,25.327
		C253.562,228.962,244.978,220.802,244.978,207.874z"/>
	<path d="M337.07,178.625l-8.902,38.362h9.22l-2.438,10.703h-28.4l2.437-10.703h7.418l11.233-48.323h-8.478l2.437-10.704h18.333
		l22.996,43.979l7.736-33.275h-9.22l2.438-10.704h28.401l-2.438,10.704h-7.418l-13.776,59.238h-5.829L337.07,178.625z"/>
	<path d="M386.666,216.987h7.418l11.233-48.323h-8.479l2.438-10.704h22.784c12.822,0,21.725,3.921,27.553,9.75
		c5.299,5.299,7.842,12.717,7.842,20.665c0,11.127-3.709,19.499-11.127,26.917c-8.689,8.69-20.877,12.399-34.971,12.399h-27.129
		L386.666,216.987z M413.052,216.987c11.233,0,18.228-2.861,24.268-8.902c5.405-5.404,7.736-12.398,7.736-19.181
		c0-5.087-1.695-10.279-5.299-13.883c-3.921-3.921-10.067-6.358-18.969-6.358h-3.497l-11.233,48.323H413.052z"/>
	<path d="M451.628,216.987h6.252l28.401-48.429h-8.372l2.438-10.598h39.209l-2.437,10.598h-7.736l5.935,48.429h7.1l-2.543,10.703
		h-25.963l2.438-10.597h7.842l-1.378-11.445h-26.705l-6.676,11.445h9.431l-2.437,10.597h-27.341L451.628,216.987z M501.646,195.687
		l-3.285-27.977l-16.426,27.977H501.646z"/>
	<path d="M534.605,216.987h8.055l3.814-16.32l-12.081-32.003h-6.676l2.438-10.704h26.387l-2.438,10.704h-7.312l7.842,23.526
		l18.651-23.526h-7.419l2.438-10.704h27.977l-2.437,10.704h-6.253l-29.672,34.229l-3.285,14.094h9.113l-2.438,10.703h-29.143
		L534.605,216.987z"/>
</g>
<g>
	<path d="M211.791,296.581h1.823l3.222-11.915h-2.006l0.162-0.709h2.857l2.148,10.233l6.87-10.233h2.715l-0.162,0.709h-1.803
		l-2.27,11.915h2.006l-0.162,0.709h-4.479l0.162-0.709h1.682l2.188-11.226l-6.93,10.273h-0.223l-2.208-10.294l-2.979,11.246h1.864
		l-0.182,0.709h-4.458L211.791,296.581z"/>
	<path d="M229.779,293.785c0-2.594,1.965-5.066,4.62-5.066c2.107,0,3.546,1.5,3.546,3.647c0,2.614-1.966,5.066-4.62,5.066
		C231.217,297.433,229.779,295.933,229.779,293.785z M237.175,292.366c0-1.823-1.175-2.979-2.817-2.979
		c-2.147,0-3.81,2.107-3.81,4.397c0,1.823,1.196,2.979,2.817,2.979C235.534,296.764,237.175,294.656,237.175,292.366z"/>
	<path d="M245.642,296.115c0-0.304,0.081-0.709,0.203-1.155l0.811-2.675c0.162-0.526,0.243-1.033,0.243-1.438
		c0-0.892-0.588-1.459-1.601-1.459c-1.479,0-3.06,1.581-3.708,4.053l-0.953,3.85h-0.75l1.945-7.761h-1.662l0.142-0.668h2.412
		l-0.608,2.331c0.851-1.5,1.966-2.452,3.303-2.452c1.358,0,2.25,0.831,2.25,2.087c0,0.466-0.122,1.034-0.284,1.581l-0.79,2.634
		c-0.122,0.446-0.203,0.831-0.203,1.074c0,0.426,0.284,0.709,0.689,0.709c0.486,0,0.851-0.364,1.256-1.378l0.486,0.142
		c-0.445,1.256-0.973,1.824-1.823,1.824C246.169,297.412,245.642,296.905,245.642,296.115z"/>
	<path d="M254.757,288.719c1.52,0,2.715,0.892,2.979,2.371l1.844-7.964h-1.661l0.142-0.668h2.452l-2.938,12.583
		c-0.122,0.547-0.183,0.852-0.183,1.074c0,0.426,0.264,0.709,0.689,0.709c0.486,0,0.831-0.364,1.236-1.378l0.486,0.142
		c-0.425,1.256-0.953,1.824-1.803,1.824c-0.771,0-1.317-0.527-1.317-1.297c0-0.183,0.021-0.385,0.061-0.608
		c-0.729,1.074-1.783,1.925-3.201,1.925c-1.844,0-3.161-1.297-3.161-3.506C250.381,291.13,252.265,288.719,254.757,288.719z
		 M257.432,292.204c0-1.702-1.014-2.816-2.614-2.816c-2.209,0-3.647,2.249-3.647,4.519c0,1.763,0.932,2.857,2.492,2.857
		C255.912,296.764,257.432,294.251,257.432,292.204z"/>
	<path d="M261.319,294.028c0-2.797,1.925-5.31,4.438-5.31c1.5,0,2.614,0.912,2.857,2.392l0.567-2.29h0.75l-1.54,6.282
		c-0.102,0.446-0.183,0.791-0.183,1.013c0,0.426,0.284,0.709,0.689,0.709c0.486,0,0.831-0.364,1.256-1.378l0.466,0.142
		c-0.445,1.256-0.952,1.824-1.803,1.824c-0.791,0-1.317-0.527-1.317-1.256c0-0.243,0.02-0.425,0.081-0.648
		c-0.75,1.094-1.844,1.925-3.222,1.925C262.616,297.433,261.319,296.196,261.319,294.028z M268.29,292.123
		c0-1.621-0.973-2.735-2.513-2.735c-2.148,0-3.668,2.29-3.668,4.6c0,1.743,0.912,2.776,2.392,2.776
		C266.79,296.764,268.29,294.17,268.29,292.123z"/>
	<path d="M269.887,300.492c0-0.365,0.263-0.669,0.648-0.669c0.445,0,0.709,0.324,0.709,0.811c0.689-0.061,1.925-0.993,3.83-3.303
		l-1.52-7.802h-1.621l0.162-0.668h2.148l1.398,7.761c1.803-2.29,3.546-4.924,3.789-6.403c-0.365-0.081-0.75-0.365-0.75-0.831
		c0-0.345,0.304-0.669,0.689-0.669c0.466,0,0.831,0.365,0.831,0.993c0,1.52-1.662,4.275-4.357,7.619
		c-2.533,3.121-3.891,3.992-4.944,3.992C270.353,301.323,269.887,300.979,269.887,300.492z"/>
	<path d="M281.617,296.379c-0.284-0.304-0.446-0.648-0.446-0.993c0-0.405,0.264-0.77,0.669-0.77c0.365,0,0.567,0.284,0.567,0.587
		c0,0.284-0.122,0.466-0.324,0.628c0.061,0.122,0.183,0.243,0.324,0.365c0.426,0.324,1.135,0.588,2.026,0.588
		c1.195,0,2.067-0.648,2.067-1.601c0-0.912-0.831-1.378-1.884-1.905c-1.216-0.588-2.25-1.155-2.25-2.29
		c0-1.317,1.175-2.27,2.776-2.27c1.054,0,1.986,0.385,2.493,0.892c0.304,0.304,0.405,0.628,0.405,0.933
		c0,0.445-0.284,0.729-0.608,0.729c-0.365,0-0.608-0.243-0.608-0.588c0-0.223,0.101-0.446,0.263-0.628
		c-0.04-0.061-0.121-0.162-0.324-0.284c-0.364-0.223-0.973-0.405-1.661-0.405c-1.176,0-1.986,0.648-1.986,1.52
		c0,0.791,0.729,1.196,1.885,1.763c1.175,0.567,2.249,1.195,2.249,2.432c0,1.499-1.317,2.351-2.857,2.351
		C283.258,297.433,282.184,296.966,281.617,296.379z"/>
	<path d="M293.426,295.446h2.391l1.54-6.646l-2.188,0.507l-0.081-1.844l3.85-0.953l1.054,0.486l-1.965,8.45h2.432l-0.405,1.824
		h-7.032L293.426,295.446z"/>
	<path d="M301.691,295.446h2.391l1.54-6.646l-2.188,0.507l-0.081-1.844l3.85-0.953l1.054,0.486l-1.966,8.45h2.432l-0.405,1.824
		h-7.031L301.691,295.446z"/>
	<path d="M310.482,294.008c0-3.06,2.047-5.755,4.62-5.755c1.176,0,2.128,0.973,2.493,1.986l0.608-1.824h2.067l-1.52,6.039
		c-0.101,0.385-0.162,0.729-0.162,0.953c0,0.364,0.142,0.547,0.446,0.547c0.263,0,0.688-0.223,1.135-1.459l0.892,0.345
		c-0.608,2.087-1.743,2.614-2.716,2.614c-1.155,0-1.823-0.791-1.823-2.006c-0.729,1.095-1.804,2.006-3.182,2.006
		C311.678,297.453,310.482,296.075,310.482,294.008z M317.21,292.103c0-1.155-0.567-1.884-1.742-1.884
		c-1.479,0-2.675,1.661-2.675,3.465c0,1.054,0.526,1.885,1.601,1.885C315.873,295.568,317.21,294.008,317.21,292.103z"/>
	<path d="M324.015,290.279h-1.621l0.486-1.864h3.465l-0.446,2.047c0.608-1.135,1.702-2.209,2.837-2.209
		c1.257,0,2.087,0.912,2.229,2.209c0.77-1.358,1.864-2.209,2.877-2.209c1.236,0,2.27,0.912,2.27,2.654
		c0,0.446-0.061,0.933-0.223,1.479l-0.648,2.33c-0.061,0.243-0.102,0.446-0.102,0.628c0,0.405,0.162,0.608,0.466,0.608
		s0.689-0.223,1.135-1.459l0.892,0.345c-0.527,1.844-1.479,2.614-2.675,2.614c-1.398,0-2.067-0.831-2.067-1.965
		c0-0.324,0.041-0.669,0.142-1.014l0.628-2.249c0.101-0.324,0.142-0.628,0.142-0.871c0-0.811-0.527-1.236-1.115-1.236
		c-0.872,0-1.5,0.709-1.844,2.148l-1.256,5.025h-2.27l1.276-5.025c0.081-0.344,0.142-0.729,0.142-0.973
		c0-0.668-0.486-1.175-1.114-1.175c-0.871,0-1.5,0.709-1.844,2.148l-1.257,5.025h-2.27L324.015,290.279z"/>
	<path d="M339.693,290.421h5.877l-0.527,2.27h-5.876L339.693,290.421z"/>
	<path d="M355.091,294.535h1.985l-0.405,1.824h-2.006l-0.77,3.364h-2.148l0.77-3.364h-5.917l-0.263-1.094l8.875-8.997l1.398,1.277
		l-6.91,6.991h3.242l0.527-2.29l2.351-0.852L355.091,294.535z"/>
	<path d="M356.992,299.438h1.276l2.128-9.159h-1.662l0.486-1.864h3.526l-0.446,2.026c0.729-1.155,1.905-2.188,3.262-2.188
		c2.047,0,3.06,1.418,3.06,3.485c0,3.06-2.046,5.714-4.721,5.714c-1.257,0-2.107-0.892-2.533-1.884l-0.892,3.87h1.581l-0.486,1.824
		h-5.066L356.992,299.438z M366.313,292.042c0-1.054-0.588-1.904-1.702-1.904c-1.54,0-2.877,1.58-2.877,3.485
		c0,1.155,0.587,1.864,1.803,1.864C365.077,295.487,366.313,293.846,366.313,292.042z"/>
	<path d="M371.861,290.279h-1.621l0.486-1.864h3.465l-0.446,2.047c0.608-1.135,1.702-2.209,2.837-2.209
		c1.257,0,2.087,0.912,2.229,2.209c0.77-1.358,1.864-2.209,2.877-2.209c1.236,0,2.27,0.912,2.27,2.654
		c0,0.446-0.061,0.933-0.223,1.479l-0.648,2.33c-0.061,0.243-0.102,0.446-0.102,0.628c0,0.405,0.162,0.608,0.466,0.608
		s0.689-0.223,1.135-1.459l0.892,0.345c-0.527,1.844-1.479,2.614-2.675,2.614c-1.398,0-2.067-0.831-2.067-1.965
		c0-0.324,0.041-0.669,0.142-1.014l0.628-2.249c0.101-0.324,0.142-0.628,0.142-0.871c0-0.811-0.527-1.236-1.115-1.236
		c-0.872,0-1.5,0.709-1.844,2.148l-1.256,5.025h-2.27l1.276-5.025c0.081-0.344,0.142-0.729,0.142-0.973
		c0-0.668-0.486-1.175-1.114-1.175c-0.871,0-1.5,0.709-1.844,2.148l-1.257,5.025h-2.27L371.861,290.279z"/>
</g>
<path fill="#010101" d="M274.635,313.019c1.744,1.51,4.756,1.566,7.08,1.566h10.093c3.945,0,5.742,0.579,6.675,4.003h0.111
	c0.289-1.166,0.932-2.204,2.152-2.961c1.507-1.1,2.664-1.045,4.637-1.045h11.257c2.608,0,5.104-0.173,6.782-2.09
	c0.639-0.825,1-1.636,1.209-2.456h-51.815C273.099,311.152,273.638,312.195,274.635,313.019z"/>
<line fill="none" stroke="#010101" stroke-width="1.25" x1="0.776" y1="271.615" x2="596.671" y2="271.615"/>
<path fill="#010101" d="M274.635,268.16c1.744-1.51,4.756-1.566,7.08-1.566h10.093c3.945,0,5.742-0.579,6.675-4.003h0.111
	c0.289,1.166,0.932,2.204,2.152,2.961c1.507,1.1,2.664,1.045,4.637,1.045h11.257c2.608,0,5.104,0.173,6.782,2.09
	c0.639,0.825,1,1.636,1.209,2.456h-51.815C273.099,270.027,273.638,268.984,274.635,268.16z"/>
</svg>
