<?xml version="1.0" encoding="utf-8"?>
<!-- Generator: Adobe Illustrator 17.1.0, SVG Export Plug-In . SVG Version: 6.00 Build 0)  -->
<!DOCTYPE svg PUBLIC "-//W3C//DTD SVG 1.1//EN" "http://www.w3.org/Graphics/SVG/1.1/DTD/svg11.dtd">
<svg version="1.1" id="Layer_1" xmlns="http://www.w3.org/2000/svg" xmlns:xlink="http://www.w3.org/1999/xlink" x="0px" y="0px"
	 viewBox="56.5 8 313 128" enable-background="new 56.5 8 313 128" xml:space="preserve">
<g>
	<g>
		<path d="M235.8,24.4L235.8,24.4c0.3-0.4,0.1-0.8-0.3-1.1c-0.3-0.3-0.8-0.1-1.1,0.1l0,0c0,0-2.1,2.5-7.4,2.7
			c-3.7,0-6.9-2.1-8.4-5.1c-0.4-0.7-1-0.4-2.1,0.1s-2.8,1.1-2.8,1.1l0,0c-7.1,2.4-19.5,7.8-19.4,17.4c0.1,9.6,8.5,12.5,14.2,14.7
			c0.6,0.1,1,0.4,1.6,0.7l-6.9,10.3l0,0l-0.4,0.6c-0.3,0-0.4,0-0.4,0c-12.2,0-16.3,6.2-15.1,10c0.1,0.3,1.1,2.8,5.2,2.7
			c1-0.1,1.8-0.3,2.7-0.6c3.3-1.3,5.9-5.1,5.9-5.1l0.4-0.7c0.1,0,0.1,0.1,0.3,0.1c0.4,0.3,1.4,0.8,2.5,1.4c0,0,0,0,0.1,0l0,0
			c0.1,0,0.1,0.1,0.3,0.1c0.4,0.3,0.7,0.4,1,0.7l0,0c0.4,0.3,0.8,0.6,1.3,1l0,0c0.4,0.3,0.8,0.7,1.3,1.1l0,0
			c1.4,1.3,2.7,2.5,3.7,3.5c0.4,0.4,1.7,1.7,2.4,0.6c10.6-13.9,18.8-10.5,19-19.3c0.1-6.9-7.1-11.6-14.4-15.4l2.5-3.8l0,0
			c0,0,1.7-2.5,2.4-1.3l0,0c0,0.3-0.1,0.6-0.1,0.8c0,2.5,2,4.5,4.4,4.5c2.4,0,4.4-2.3,4.4-4.5c0-1.4-0.8-4.2-3.7-5.1
			c-4.8-1-8.2,3-9.1,4.2l-0.3,0.4l0,0l-2.5,3.5c-4.4-2.3-8.8-4.4-11.5-6.5c-5.4-4.5-1.3-9.3,1.6-11.3l0,0c0,0,1.4-0.8,1.8-0.4
			c0.3,0.1,0.8,0.7,1.1,1l0,0c2,2.8,5.8,5.2,10.2,5.2l0,0C231.6,33.5,235.8,24.4,235.8,24.4z M198.4,72.3c0,0-3,4-6.8,4
			c-3.5-0.3-2-4.4,1.3-5.1c0.7-0.1,1.4-0.3,2-0.3c0.3,0,0.6,0,0.8,0l0,0c0.3,0,0.6,0,0.8,0.1l0,0c0.7,0.1,1.4,0.3,2.1,0.4l0,0
			L198.4,72.3z M223.8,62.4c0.3,0.4,1.1,1.4,1.3,3c0,0.6-0.1,1.1-0.3,1.6l0,0c-0.6,2.3-1.8,3.4-1.8,3.4c-2.7,2.7-1.6,1.8-7.4-0.8
			c-3.4-1.6-7.4-2.4-10-2.8l6.9-10.3C216.8,58,221.5,60.3,223.8,62.4z"/>
		<path d="M213,8c-24.2,0-43.9,19.7-43.9,43.9s19.7,43.9,43.9,43.9s43.9-19.7,43.9-43.9S237.2,8,213,8z M213,92.4
			c-22.4,0-40.5-18.1-40.5-40.5s18.1-40.5,40.5-40.5s40.5,18.1,40.5,40.5S235.4,92.4,213,92.4z"/>
	</g>
</g>
<g>
	<path d="M63.3,118.1l3,10.3v7.5h-2.1v-5.7h-5.5v5.7h-2.1v-7.6l3.1-10.2H63.3z M61.6,120.1h-0.4l-2.4,8.2h5.4L61.6,120.1z"/>
	<path d="M99.9,122.7c0-1.4-1.1-2.7-2.7-2.7c-1.4,0-2.7,1.1-2.7,2.4c0,3.7,7.6,3.1,7.6,9.1c0,2.5-2.1,4.7-4.8,4.7h-0.4
		c-2.7,0-4.8-2.1-4.8-4.7v-0.7h2.1v0.7c0,1.4,1.1,2.7,2.7,2.7h0.3c1.6,0,2.7-1.1,2.7-2.4c0-4.7-7.6-3.7-7.6-9.2
		c0-2.7,2.1-4.7,4.8-4.7c2.7,0,4.8,2.1,4.8,4.7h-2V122.7z"/>
	<path d="M120.2,118.1V136h-2.1v-13l0.1-1.1h-0.1l-0.4,1.1l-1.7,4.5h-2l-1.7-4.5l-0.4-1.3h-0.1l0.1,1.1v13h-2.1v-17.7h2.7l2.4,7.2
		h0.1l2.4-7.2H120.2z"/>
	<path d="M127.9,118.1h9.9v2H134V134h3.8v2h-9.9v-2h3.8v-13.9h-3.8V118.1z"/>
	<path d="M145.7,118.1h9.8v2h-3.8V136h-2.3v-15.9h-3.8v-2H145.7z"/>
	<path d="M173.3,118.1V136h-2.1v-8.4h-5.5v8.4h-2.1v-17.8h2.1v7.5h5.5v-7.5H173.3z"/>
	<path d="M203.8,129.5h-2.3v6.5h-2.1v-17.8h4.8c2.3,0,4.1,1.7,4.1,4v3.4c0,1.7-0.8,3-2.3,3.7l3,6.8h-2.3L203.8,129.5z M206.2,122.1
		c0-1.1-0.8-2-2-2h-2.7v7.2h2.7c1.1,0,2-0.8,2-2V122.1z"/>
	<path d="M226.3,118.1v2h-6.5v5.5h5.9v2h-5.9v6.4h6.8v2h-8.9v-17.8H226.3z"/>
	<path d="M242.5,122.7c0-1.4-1.1-2.7-2.7-2.7c-1.4,0-2.7,1.1-2.7,2.4c0,3.7,7.6,3.1,7.6,9.1c0,2.5-2.1,4.7-4.8,4.7h-0.4
		c-2.7,0-4.8-2.1-4.8-4.7v-0.7h2.1v0.7c0,1.4,1.1,2.7,2.7,2.7h0.3c1.6,0,2.7-1.1,2.7-2.4c0-4.7-7.6-3.7-7.6-9.2
		c0-2.7,2.1-4.7,4.8-4.7s4.8,2.1,4.8,4.7h-2V122.7z"/>
	<path d="M252.7,118.1h9.8v2h-3.7V136h-2.3v-15.9h-3.8V118.1z"/>
	<path d="M277.4,118.1l3.1,10.3v7.5h-2.1v-5.7h-5.5v5.7h-2.1v-7.6l3.1-10.2H277.4z M275.7,120.1h-0.4l-2.4,8.2h5.4L275.7,120.1z"/>
	<path d="M298.3,118.1v13.4c0,2.5-2.1,4.7-4.8,4.7h-0.4c-2.7,0-4.8-2.1-4.8-4.7v-13.4h2.1v13.4c0,1.4,1.1,2.7,2.7,2.7h0.3
		c1.6,0,2.7-1.1,2.7-2.7v-13.4H298.3z"/>
	<path d="M310.8,129.5h-2.3v6.5h-2.1v-17.8h4.8c2.3,0,4.1,1.7,4.1,4v3.4c0,1.7-0.8,3-2.3,3.7l3,6.8h-2.3L310.8,129.5z M313.2,122.1
		c0-1.1-0.8-2-2-2h-2.7v7.2h2.7c1.1,0,2-0.8,2-2V122.1z"/>
	<path d="M330.9,118.1l3,10.3v7.5h-2.1v-5.7h-5.5v5.7h-2.1v-7.6l3.1-10.2H330.9z M329.2,120.1h-0.4l-2.4,8.2h5.4L329.2,120.1z"/>
	<path d="M351.7,118.1V136h-2.4l-4.8-12.5L344,122h-0.1l0.1,1.7V136h-2.1v-17.8h2.4l4.8,12.5l0.4,1.6h0.1l-0.1-1.7V118h2.1V118.1z"
		/>
	<path d="M359.7,118.1h9.8v2h-3.8V136h-2.1v-15.9h-3.8V118.1z"/>
</g>
</svg>
