<?xml version="1.0" encoding="utf-8"?>
<!-- Generator: Adobe Illustrator 17.0.0, SVG Export Plug-In . SVG Version: 6.00 Build 0)  -->
<!DOCTYPE svg PUBLIC "-//W3C//DTD SVG 1.1//EN" "http://www.w3.org/Graphics/SVG/1.1/DTD/svg11.dtd">
<svg version="1.1" id="Layer_1" xmlns="http://www.w3.org/2000/svg" xmlns:xlink="http://www.w3.org/1999/xlink" x="0px" y="0px"
	 width="556.311px" height="10.68px" viewBox="0 0 556.311 10.68" enable-background="new 0 0 556.311 10.68" xml:space="preserve">
<path d="M551.513,5.945h-2.081V5.699h2.081V5.945z M545.489,5.945h-3.944V5.699h3.944V5.945z M537.601,5.945h-3.944V5.699h3.944
	V5.945z M529.714,5.945h-3.944V5.699h3.944V5.945z M521.826,5.945h-3.944V5.699h3.944V5.945z M513.938,5.945h-3.944V5.699h3.944
	V5.945z M506.051,5.945h-3.944V5.699h3.944V5.945z M498.162,5.945h-3.943V5.699h3.943V5.945z M490.274,5.945h-3.943V5.699h3.943
	V5.945z M482.386,5.945h-3.943V5.699h3.943V5.945z M474.499,5.945h-3.943V5.699h3.943V5.945z M466.611,5.945h-3.943V5.699h3.943
	V5.945z M458.723,5.945h-3.943V5.699h3.943V5.945z M450.836,5.945h-3.943V5.699h3.943V5.945z M442.948,5.945h-3.943V5.699h3.943
	V5.945z M435.06,5.945h-3.943V5.699h3.943V5.945z M427.173,5.945h-3.943V5.699h3.943V5.945z M419.285,5.945h-3.943V5.699h3.943
	V5.945z M411.397,5.945h-3.943V5.699h3.943V5.945z M403.51,5.945h-3.943V5.699h3.943V5.945z M395.622,5.945h-3.943V5.699h3.943
	V5.945z M387.734,5.945h-3.943V5.699h3.943V5.945z M379.846,5.945h-3.944V5.699h3.944V5.945z M371.959,5.945h-3.944V5.699h3.944
	V5.945z M364.071,5.945h-3.944V5.699h3.944V5.945z M356.183,5.945h-3.944V5.699h3.944V5.945z M348.296,5.945h-3.944V5.699h3.944
	V5.945z M340.408,5.945h-3.944V5.699h3.944V5.945z M332.52,5.945h-3.944V5.699h3.944V5.945z M324.633,5.945h-3.944V5.699h3.944
	V5.945z M316.745,5.945h-3.944V5.699h3.944V5.945z M308.857,5.945h-3.944V5.699h3.944V5.945z M300.969,5.945h-3.944V5.699h3.944
	V5.945z M293.082,5.945h-3.944V5.699h3.944V5.945z M285.194,5.945h-3.944V5.699h3.944V5.945z M277.306,5.945h-3.944V5.699h3.944
	V5.945z M269.418,5.945h-3.944V5.699h3.944V5.945z M261.531,5.945h-3.944V5.699h3.944V5.945z M253.643,5.945h-3.944V5.699h3.944
	V5.945z M245.755,5.945h-3.944V5.699h3.944V5.945z M237.867,5.945h-3.944V5.699h3.944V5.945z M229.98,5.945h-3.944V5.699h3.944
	V5.945z M222.092,5.945h-3.944V5.699h3.944V5.945z M214.204,5.945h-3.944V5.699h3.944V5.945z M206.317,5.945h-3.944V5.699h3.944
	V5.945z M198.428,5.945h-3.944V5.699h3.944V5.945z M190.541,5.945h-3.944V5.699h3.944V5.945z M182.653,5.945h-3.944V5.699h3.944
	V5.945z M174.765,5.945h-3.944V5.699h3.944V5.945z M166.878,5.945h-3.944V5.699h3.944V5.945z M158.99,5.945h-3.944V5.699h3.944
	V5.945z M151.102,5.945h-3.944V5.699h3.944V5.945z M143.215,5.945h-3.944V5.699h3.944V5.945z M135.327,5.945h-3.944V5.699h3.944
	V5.945z M127.439,5.945h-3.944V5.699h3.944V5.945z M119.552,5.945h-3.944V5.699h3.944V5.945z M111.664,5.945h-3.944V5.699h3.944
	V5.945z M103.776,5.945h-3.944V5.699h3.944V5.945z M95.888,5.945h-3.944V5.699h3.944V5.945z M88.001,5.945h-3.944V5.699h3.944V5.945
	z M80.113,5.945h-3.944V5.699h3.944V5.945z M72.225,5.945h-3.944V5.699h3.944V5.945z M64.337,5.945h-3.944V5.699h3.944V5.945z
	 M56.449,5.945h-3.944V5.699h3.944V5.945z M48.562,5.945h-3.944V5.699h3.944V5.945z M40.674,5.945H36.73V5.699h3.944V5.945z
	 M32.786,5.945h-3.944V5.699h3.944V5.945z M24.899,5.945h-3.944V5.699h3.944V5.945z M17.011,5.945h-3.944V5.699h3.944V5.945z
	 M9.123,5.945H5.179V5.699h3.944V5.945z"/>
<path d="M551.513,5.945h-2.081V5.699h2.081V5.945z M545.489,5.945h-3.944V5.699h3.944V5.945z M537.601,5.945h-3.944V5.699h3.944
	V5.945z M529.714,5.945h-3.944V5.699h3.944V5.945z M521.826,5.945h-3.944V5.699h3.944V5.945z M513.938,5.945h-3.944V5.699h3.944
	V5.945z M506.051,5.945h-3.944V5.699h3.944V5.945z M498.162,5.945h-3.943V5.699h3.943V5.945z M490.274,5.945h-3.943V5.699h3.943
	V5.945z M482.386,5.945h-3.943V5.699h3.943V5.945z M474.499,5.945h-3.943V5.699h3.943V5.945z M466.611,5.945h-3.943V5.699h3.943
	V5.945z M458.723,5.945h-3.943V5.699h3.943V5.945z M450.836,5.945h-3.943V5.699h3.943V5.945z M442.948,5.945h-3.943V5.699h3.943
	V5.945z M435.06,5.945h-3.943V5.699h3.943V5.945z M427.173,5.945h-3.943V5.699h3.943V5.945z M419.285,5.945h-3.943V5.699h3.943
	V5.945z M411.397,5.945h-3.943V5.699h3.943V5.945z M403.51,5.945h-3.943V5.699h3.943V5.945z M395.622,5.945h-3.943V5.699h3.943
	V5.945z M387.734,5.945h-3.943V5.699h3.943V5.945z M379.846,5.945h-3.944V5.699h3.944V5.945z M371.959,5.945h-3.944V5.699h3.944
	V5.945z M364.071,5.945h-3.944V5.699h3.944V5.945z M356.183,5.945h-3.944V5.699h3.944V5.945z M348.296,5.945h-3.944V5.699h3.944
	V5.945z M340.408,5.945h-3.944V5.699h3.944V5.945z M332.52,5.945h-3.944V5.699h3.944V5.945z M324.633,5.945h-3.944V5.699h3.944
	V5.945z M316.745,5.945h-3.944V5.699h3.944V5.945z M308.857,5.945h-3.944V5.699h3.944V5.945z M300.969,5.945h-3.944V5.699h3.944
	V5.945z M293.082,5.945h-3.944V5.699h3.944V5.945z M285.194,5.945h-3.944V5.699h3.944V5.945z M277.306,5.945h-3.944V5.699h3.944
	V5.945z M269.418,5.945h-3.944V5.699h3.944V5.945z M261.531,5.945h-3.944V5.699h3.944V5.945z M253.643,5.945h-3.944V5.699h3.944
	V5.945z M245.755,5.945h-3.944V5.699h3.944V5.945z M237.867,5.945h-3.944V5.699h3.944V5.945z M229.98,5.945h-3.944V5.699h3.944
	V5.945z M222.092,5.945h-3.944V5.699h3.944V5.945z M214.204,5.945h-3.944V5.699h3.944V5.945z M206.317,5.945h-3.944V5.699h3.944
	V5.945z M198.428,5.945h-3.944V5.699h3.944V5.945z M190.541,5.945h-3.944V5.699h3.944V5.945z M182.653,5.945h-3.944V5.699h3.944
	V5.945z M174.765,5.945h-3.944V5.699h3.944V5.945z M166.878,5.945h-3.944V5.699h3.944V5.945z M158.99,5.945h-3.944V5.699h3.944
	V5.945z M151.102,5.945h-3.944V5.699h3.944V5.945z M143.215,5.945h-3.944V5.699h3.944V5.945z M135.327,5.945h-3.944V5.699h3.944
	V5.945z M127.439,5.945h-3.944V5.699h3.944V5.945z M119.552,5.945h-3.944V5.699h3.944V5.945z M111.664,5.945h-3.944V5.699h3.944
	V5.945z M103.776,5.945h-3.944V5.699h3.944V5.945z M95.888,5.945h-3.944V5.699h3.944V5.945z M88.001,5.945h-3.944V5.699h3.944V5.945
	z M80.113,5.945h-3.944V5.699h3.944V5.945z M72.225,5.945h-3.944V5.699h3.944V5.945z M64.337,5.945h-3.944V5.699h3.944V5.945z
	 M56.449,5.945h-3.944V5.699h3.944V5.945z M48.562,5.945h-3.944V5.699h3.944V5.945z M40.674,5.945H36.73V5.699h3.944V5.945z
	 M32.786,5.945h-3.944V5.699h3.944V5.945z M24.899,5.945h-3.944V5.699h3.944V5.945z M17.011,5.945h-3.944V5.699h3.944V5.945z
	 M9.123,5.945H5.179V5.699h3.944V5.945z"/>
</svg>
