<?xml version="1.0" encoding="utf-8"?>
<!-- Generator: Adobe Illustrator 17.0.0, SVG Export Plug-In . SVG Version: 6.00 Build 0)  -->
<!DOCTYPE svg PUBLIC "-//W3C//DTD SVG 1.1//EN" "http://www.w3.org/Graphics/SVG/1.1/DTD/svg11.dtd">
<svg version="1.1" id="Layer_1" xmlns="http://www.w3.org/2000/svg" xmlns:xlink="http://www.w3.org/1999/xlink" x="0px" y="0px"
	 width="138.5px" height="55.25px" viewBox="0 0 138.5 55.25" enable-background="new 0 0 138.5 55.25" xml:space="preserve">
<rect x="1.526" y="34.433" opacity="0.13" fill="#C3996C" enable-background="new    " width="135.738" height="14.562"/>
<rect x="36.836" y="38.081" fill="#010101" width="0.178" height="7.742"/>
<rect x="70.243" y="38.081" fill="#010101" width="0.178" height="7.742"/>
<rect x="103.061" y="38.081" fill="#010101" width="0.178" height="7.742"/>
<g>
	<g enable-background="new    ">
		<path fill="#010101" d="M20.951,29.005h-6.217V0.93h6.337c6.738,0,10.709,4.131,10.709,13.998S27.529,29.005,20.951,29.005z
			 M21.071,5.823h-1.324v18.289h1.324c4.492,0,5.575-3.931,5.575-9.104S25.563,5.823,21.071,5.823z"/>
		<path fill="#010101" d="M36.192,29.005V0.93h5.014v28.076H36.192z"/>
		<path fill="#010101" d="M58.412,29.005l-5.174-12.514c-0.722-1.764-1.604-4.051-2.126-5.695c0.04,1.725,0.08,4.612,0.08,6.377
			v11.832h-4.572V0.93h5.054l4.933,12.313c0.682,1.685,1.685,4.292,2.206,5.856c-0.04-1.725-0.16-4.773-0.16-6.537V0.93h4.572
			v28.076H58.412z"/>
		<path fill="#010101" d="M80.231,29.005l-5.174-12.514c-0.722-1.764-1.604-4.051-2.126-5.695c0.04,1.725,0.08,4.613,0.08,6.377
			v11.832H68.44V0.93h5.054l4.933,12.313c0.682,1.685,1.685,4.292,2.206,5.856c-0.04-1.725-0.16-4.773-0.16-6.537V0.93h4.572v28.076
			H80.231z"/>
		<path fill="#010101" d="M90.259,29.005V0.93h14.399v4.813h-9.385v5.936h6.297v4.733h-6.297v7.781h9.746v4.813L90.259,29.005
			L90.259,29.005z"/>
		<path fill="#010101" d="M120.381,29.005l-4.372-10.669h-1.644v10.669h-5.014V0.93h7.46c5.454,0,8.944,2.928,8.944,8.744
			c0,3.931-2.006,6.377-4.733,7.661l4.813,11.672C125.835,29.005,120.381,29.005,120.381,29.005z M116.57,5.823h-2.206v7.821h2.486
			c2.567,0,3.89-1.324,3.89-3.89C120.741,7.226,119.578,5.823,116.57,5.823z"/>
	</g>
</g>
<rect x="1.316" y="49.126" fill="#010101" width="136.157" height="0.297"/>
<rect x="1.316" y="34.284" fill="#010101" width="136.157" height="0.297"/>
<rect x="5.358" y="37.84" fill="none" width="33.639" height="9.174"/>
<text transform="matrix(1 0 0 1 5.3577 40.4503)"><tspan x="0" y="0" fill="#010101" font-family="'Archer-BookItalic'" font-size="3.5658">Monday-Thursday</tspan><tspan x="0" y="4.17" fill="#010101" font-family="'Archer-BoldItalic'" font-size="3.5658">4:30pm-11:00pm</tspan></text>
<rect x="40.144" y="37.84" fill="none" width="28.128" height="9.174"/>
<text transform="matrix(1 0 0 1 40.144 40.4504)"><tspan x="0" y="0" fill="#010101" font-family="'Archer-BookItalic'" font-size="3.5658">Friday</tspan><tspan x="0" y="4.17" fill="#010101" font-family="'Archer-BoldItalic'" font-size="3.5658">4:00pm-10:00pm</tspan></text>
<rect x="73.535" y="37.84" fill="none" width="33.639" height="9.174"/>
<text transform="matrix(1 0 0 1 73.5353 40.4503)"><tspan x="0" y="0" fill="#010101" font-family="'Archer-BookItalic'" font-size="3.5658">Saturday</tspan><tspan x="0" y="4.17" fill="#010101" font-family="'Archer-BoldItalic'" font-size="3.5658">5:00pm-10:00pm</tspan></text>
<rect x="106.661" y="37.475" fill="none" width="33.639" height="9.174"/>
<text transform="matrix(1 0 0 1 106.6612 40.0852)"><tspan x="0" y="0" fill="#010101" font-family="'Archer-BookItalic'" font-size="3.5658">Sunday</tspan><tspan x="0" y="4.17" fill="#010101" font-family="'Archer-BoldItalic'" font-size="3.5658">5:00pm-11:00pm</tspan></text>
<g>
	<g>
		<text transform="matrix(1 0 0 1 39.7859 54.3164)"><tspan x="0" y="0" fill="#010101" font-family="'Archer-BookItalic'" font-size="3.5658">Friday and Saturday </tspan><tspan x="31.931" y="0" fill="#010101" font-family="'Archer-BoldItalic'" font-size="3.5658">Pizza until 1:00am</tspan></text>
	</g>
	<circle fill="#010101" cx="37.897" cy="53.225" r="0.312"/>
	<circle fill="#010101" cx="36.828" cy="53.225" r="0.312"/>
	<circle fill="#010101" cx="103.741" cy="53.225" r="0.312"/>
	<circle fill="#010101" cx="102.673" cy="53.225" r="0.312"/>
</g>
</svg>
