<?xml version="1.0" encoding="utf-8"?>
<!-- Generator: Adobe Illustrator 16.0.0, SVG Export Plug-In . SVG Version: 6.00 Build 0)  -->
<!DOCTYPE svg PUBLIC "-//W3C//DTD SVG 1.1//EN" "http://www.w3.org/Graphics/SVG/1.1/DTD/svg11.dtd">
<svg version="1.1" id="Layer_1" xmlns="http://www.w3.org/2000/svg" xmlns:xlink="http://www.w3.org/1999/xlink" x="0px" y="0px"
	 width="624.333px" height="164px" viewBox="0 0 624.333 164" enable-background="new 0 0 624.333 164" xml:space="preserve">
<rect x="457.813" y="7.043" opacity="0.13" fill="#C49A6C" enable-background="new    " width="160.686" height="137.009"/>
<path d="M275.793,148.198c2.956,2.56,8.062,2.655,12.002,2.655h17.11c6.688,0,9.734,0.982,11.316,6.787h0.188
	c0.49-1.976,1.58-3.736,3.648-5.02c2.555-1.865,4.516-1.771,7.861-1.771h19.084c4.422,0,8.652-0.293,11.498-3.543
	c1.084-1.398,1.695-2.774,2.049-4.164h-87.842C273.189,145.033,274.102,146.801,275.793,148.198z"/>
<line fill="none" stroke="#000000" stroke-width="2" x1="13.696" y1="143.146" x2="618.647" y2="143.146"/>
<g>
	<g enable-background="new    ">
		<path d="M37.671,127.257H14.107V20.841h24.02c25.54,0,40.59,15.658,40.59,53.056S62.603,127.257,37.671,127.257z M38.127,39.388
			H33.11v69.322h5.017c17.026,0,21.131-14.898,21.131-34.509C59.258,54.59,55.154,39.388,38.127,39.388z"/>
		<path d="M95.441,127.257V20.841h19.003v106.416H95.441z"/>
		<path d="M179.663,127.257l-19.611-47.432c-2.736-6.688-6.081-15.354-8.057-21.587c0.152,6.537,0.304,17.482,0.304,24.172v44.847
			h-17.331V20.841h19.155l18.699,46.671c2.584,6.385,6.385,16.267,8.361,22.195c-0.152-6.537-0.608-18.091-0.608-24.779V20.841
			h17.331v106.416H179.663z"/>
		<path d="M262.364,127.257l-19.611-47.432c-2.736-6.688-6.081-15.354-8.057-21.587C234.848,64.775,235,75.721,235,82.41v44.847
			h-17.331V20.841h19.155l18.699,46.671c2.584,6.385,6.385,16.267,8.361,22.195c-0.152-6.537-0.608-18.091-0.608-24.779V20.841
			h17.331v106.416H262.364z"/>
		<path d="M300.371,127.257V20.841h54.577v18.242h-35.574v22.5h23.867v17.938h-23.867v29.492h36.941v18.243H300.371z"/>
		<path d="M414.542,127.257l-16.57-40.438h-6.232v40.438h-19.004V20.841h28.277c20.674,0,33.9,11.098,33.9,33.141
			c0,14.898-7.602,24.172-17.939,29.036l18.244,44.239H414.542z M400.1,39.388h-8.361v29.645h9.424
			c9.73,0,14.746-5.018,14.746-14.746C415.909,44.708,411.5,39.388,400.1,39.388z"/>
	</g>
</g>
<g enable-background="new    ">
	<path d="M475.4,32.011c0-0.517,0.329-0.86,0.761-0.86c0.372,0,0.631,0.315,0.631,0.573c0,0.315-0.172,0.56-0.445,0.718
		c0.287,0.43,1.062,0.903,2.31,0.903c1.133,0,2.181-0.774,2.181-1.851c0-0.903-0.761-1.448-1.621-1.979
		c-1.205-0.745-2.209-1.405-2.209-2.711c0-1.362,1.262-2.524,2.926-2.524c1.478,0,2.754,0.861,2.754,1.808
		c0,0.545-0.373,0.832-0.717,0.832c-0.373,0-0.631-0.272-0.631-0.617c0-0.2,0.129-0.444,0.416-0.616
		c-0.287-0.315-0.918-0.688-1.879-0.688c-1.191,0-2.052,0.746-2.052,1.75c0,0.903,0.675,1.362,1.793,2.051
		c1.047,0.646,2.036,1.334,2.036,2.639c0,1.535-1.391,2.625-3.055,2.625C476.706,34.062,475.4,32.9,475.4,32.011z"/>
	<path d="M485.329,27.865l-1.02,3.901c-0.057,0.216-0.1,0.474-0.1,0.731c0,0.488,0.387,0.861,1.004,0.861
		c0.889,0,2.037-0.962,2.453-2.625l0.717-2.869h0.746l-1.133,4.519c-0.059,0.229-0.102,0.459-0.102,0.573
		c0,0.287,0.188,0.474,0.445,0.474c0.315,0,0.559-0.287,0.832-0.946l0.444,0.144c-0.286,0.846-0.718,1.348-1.377,1.348
		c-0.616,0-1.032-0.387-1.032-1.019c0-0.144,0.028-0.315,0.071-0.516c-0.53,0.874-1.263,1.563-2.181,1.563
		c-0.961,0-1.648-0.589-1.648-1.478c0-0.302,0.071-0.589,0.129-0.817l0.832-3.185h-1.148l0.173-0.66H485.329z"/>
	<path d="M494.84,32.957c0-0.157,0.058-0.459,0.115-0.659l0.617-2.138c0.086-0.315,0.143-0.56,0.143-0.817
		c0-0.545-0.43-0.946-1.047-0.946c-0.889,0-2.022,0.932-2.453,2.624l-0.717,2.869h-0.746l1.349-5.364h-1.147l0.172-0.66h1.851
		l-0.373,1.449c0.588-0.947,1.319-1.563,2.181-1.563c1.004,0,1.691,0.674,1.691,1.563c0,0.301-0.086,0.631-0.172,0.946l-0.616,2.108
		c-0.058,0.201-0.101,0.474-0.101,0.588c0,0.287,0.187,0.474,0.445,0.474c0.314,0,0.559-0.287,0.831-0.946l0.444,0.144
		c-0.286,0.846-0.717,1.348-1.377,1.348C495.299,33.976,494.84,33.56,494.84,32.957z"/>
	<path d="M501.528,27.751c1.033,0,1.865,0.573,2.037,1.563l1.219-5.265h-1.147l0.157-0.659h1.895l-2.109,8.993
		c-0.057,0.229-0.1,0.459-0.1,0.573c0,0.287,0.157,0.474,0.43,0.474c0.33,0,0.574-0.287,0.847-0.946l0.444,0.144
		c-0.287,0.846-0.717,1.348-1.377,1.348c-0.617,0-1.047-0.401-1.047-1.004c0-0.058,0-0.129,0.014-0.201
		c-0.516,0.688-1.262,1.234-2.15,1.234c-1.306,0-2.281-0.962-2.281-2.511C498.358,29.386,499.878,27.751,501.528,27.751z
		 M503.307,30.261c0-1.104-0.632-1.836-1.722-1.836c-1.448,0-2.425,1.492-2.425,3.055c0,1.119,0.604,1.851,1.636,1.851
		C502.317,33.33,503.307,31.666,503.307,30.261z"/>
	<path d="M506.164,31.509c0-2.051,1.491-3.758,3.228-3.758c1.09,0,1.807,0.603,1.979,1.563l0.359-1.521h0.746l-1.119,4.59
		c-0.058,0.229-0.101,0.459-0.101,0.573c0,0.287,0.187,0.474,0.444,0.474c0.316,0,0.56-0.287,0.832-0.946l0.445,0.144
		c-0.287,0.846-0.718,1.348-1.377,1.348c-0.632,0-1.062-0.401-1.062-0.961v-0.244c-0.53,0.703-1.275,1.234-2.15,1.234
		C507.082,34.005,506.164,33.058,506.164,31.509z M511.083,30.232c0-1.076-0.574-1.808-1.664-1.808
		c-1.448,0-2.452,1.506-2.452,3.069c0,1.119,0.545,1.836,1.577,1.836C510.108,33.33,511.083,31.58,511.083,30.232z"/>
	<path d="M512.32,36.041c0-0.33,0.243-0.646,0.603-0.646c0.358,0,0.573,0.259,0.602,0.66h0.072c0.344,0,1.119-0.545,2.453-2.181
		l-1.076-5.35h-1.119l0.158-0.66h1.635l0.961,5.293c1.148-1.492,2.295-3.112,2.496-4.073c-0.287-0.086-0.588-0.33-0.588-0.718
		c0-0.315,0.272-0.616,0.646-0.616c0.388,0,0.702,0.287,0.702,0.846c0,1.047-0.875,2.453-3.084,5.265
		c-1.807,2.309-2.754,2.897-3.6,2.897C512.75,36.759,512.32,36.457,512.32,36.041z"/>
	<path d="M520.9,29.558h2.567l-0.158,0.746h-2.596L520.9,29.558z"/>
	<path d="M524.946,33.173h1.262l1.836-8.004h-2.625l-0.344,1.492h-0.789l0.517-2.209h7.646l-0.518,2.209h-0.788l0.344-1.492h-2.624
		l-1.836,8.004h1.405l-0.173,0.717h-3.484L524.946,33.173z"/>
	<path d="M534.473,24.05h-1.147l0.157-0.659h1.895L534,29.199c0.459-0.746,1.176-1.448,2.107-1.448c1.004,0,1.736,0.674,1.75,1.563
		c0,0.301-0.057,0.631-0.143,0.946l-0.574,2.123c-0.058,0.215-0.086,0.459-0.086,0.573c0,0.287,0.187,0.474,0.444,0.474
		c0.315,0,0.56-0.287,0.817-0.946l0.445,0.144c-0.273,0.846-0.689,1.348-1.349,1.348c-0.631,0-1.104-0.416-1.104-1.019
		c0-0.157,0.043-0.43,0.101-0.646l0.573-2.151c0.086-0.315,0.115-0.56,0.115-0.817c-0.015-0.545-0.474-0.946-1.09-0.946
		c-0.89,0-2.037,0.946-2.424,2.624l-0.66,2.869h-0.746L534.473,24.05z"/>
	<path d="M541.992,27.865l-1.019,3.901c-0.057,0.216-0.1,0.474-0.1,0.731c0,0.488,0.387,0.861,1.004,0.861
		c0.889,0,2.036-0.962,2.452-2.625l0.718-2.869h0.745l-1.133,4.519c-0.058,0.229-0.101,0.459-0.101,0.573
		c0,0.287,0.187,0.474,0.445,0.474c0.314,0,0.559-0.287,0.831-0.946l0.444,0.144c-0.286,0.846-0.717,1.348-1.377,1.348
		c-0.616,0-1.032-0.387-1.032-1.019c0-0.144,0.028-0.315,0.071-0.516c-0.53,0.874-1.262,1.563-2.18,1.563
		c-0.961,0-1.649-0.589-1.649-1.478c0-0.302,0.071-0.589,0.129-0.817l0.832-3.185h-1.147l0.172-0.66H541.992z"/>
	<path d="M548.764,28.525h-1.146l0.172-0.66h1.85l-0.401,1.636c0.804-1.104,1.478-1.75,2.037-1.75c0.474,0,0.731,0.272,0.731,0.631
		c0,0.388-0.316,0.703-0.674,0.703c-0.33,0-0.561-0.201-0.632-0.488c-0.487,0.287-1.534,1.233-1.879,2.654l-0.659,2.639h-0.746
		L548.764,28.525z"/>
	<path d="M552.711,33.216c-0.215-0.216-0.33-0.459-0.33-0.703c0-0.344,0.244-0.674,0.603-0.674s0.53,0.258,0.53,0.516
		c0,0.201-0.071,0.33-0.229,0.502c0.057,0.072,0.143,0.13,0.258,0.201c0.301,0.172,0.774,0.315,1.305,0.315
		c0.718,0,1.277-0.387,1.277-0.989s-0.574-0.918-1.22-1.233c-0.918-0.459-1.692-0.861-1.692-1.735c0-0.962,0.832-1.664,2.08-1.664
		c0.76,0,1.42,0.258,1.793,0.631c0.215,0.201,0.33,0.444,0.33,0.703c0,0.401-0.273,0.659-0.574,0.659
		c-0.315,0-0.545-0.215-0.545-0.516c0-0.158,0.057-0.33,0.187-0.503c-0.028-0.028-0.087-0.086-0.244-0.157
		c-0.215-0.101-0.588-0.187-1.004-0.187c-0.804,0-1.276,0.416-1.276,0.918c0,0.517,0.545,0.817,1.262,1.176
		c0.875,0.431,1.65,0.875,1.65,1.793c0,1.134-1.005,1.736-2.08,1.736C553.973,34.005,553.156,33.675,552.711,33.216z"/>
	<path d="M561.52,27.751c1.033,0,1.865,0.573,2.037,1.563l1.219-5.265h-1.147l0.157-0.659h1.895l-2.109,8.993
		c-0.057,0.229-0.1,0.459-0.1,0.573c0,0.287,0.157,0.474,0.43,0.474c0.33,0,0.574-0.287,0.847-0.946l0.444,0.144
		c-0.287,0.846-0.717,1.348-1.377,1.348c-0.617,0-1.047-0.401-1.047-1.004c0-0.058,0-0.129,0.014-0.201
		c-0.516,0.688-1.262,1.234-2.15,1.234c-1.306,0-2.281-0.962-2.281-2.511C558.35,29.386,559.871,27.751,561.52,27.751z
		 M563.299,30.261c0-1.104-0.632-1.836-1.722-1.836c-1.448,0-2.425,1.492-2.425,3.055c0,1.119,0.604,1.851,1.636,1.851
		C562.309,33.33,563.299,31.666,563.299,30.261z"/>
	<path d="M566.157,31.509c0-2.051,1.491-3.758,3.227-3.758c1.09,0,1.808,0.603,1.979,1.563l0.358-1.521h0.746l-1.119,4.59
		c-0.057,0.229-0.1,0.459-0.1,0.573c0,0.287,0.186,0.474,0.444,0.474c0.315,0,0.56-0.287,0.831-0.946l0.445,0.144
		c-0.287,0.846-0.717,1.348-1.377,1.348c-0.631,0-1.062-0.401-1.062-0.961v-0.244c-0.53,0.703-1.276,1.234-2.151,1.234
		C567.075,34.005,566.157,33.058,566.157,31.509z M571.076,30.232c0-1.076-0.573-1.808-1.663-1.808
		c-1.449,0-2.453,1.506-2.453,3.069c0,1.119,0.545,1.836,1.578,1.836C570.1,33.33,571.076,31.58,571.076,30.232z"/>
	<path d="M572.313,36.041c0-0.33,0.243-0.646,0.602-0.646c0.359,0,0.574,0.259,0.603,0.66h0.071c0.345,0,1.119-0.545,2.453-2.181
		l-1.076-5.35h-1.118l0.157-0.66h1.636l0.961,5.293c1.147-1.492,2.295-3.112,2.495-4.073c-0.286-0.086-0.588-0.33-0.588-0.718
		c0-0.315,0.273-0.616,0.646-0.616c0.387,0,0.702,0.287,0.702,0.846c0,1.047-0.875,2.453-3.084,5.265
		c-1.808,2.309-2.754,2.897-3.601,2.897C572.743,36.759,572.313,36.457,572.313,36.041z"/>
</g>
<g enable-background="new    ">
	<path d="M481.18,44.776h1.406l-0.287,1.291h-1.42l-0.545,2.381h-1.521l0.545-2.381h-4.188l-0.187-0.774l6.282-6.368l0.99,0.903
		l-4.892,4.948h2.295l0.373-1.62l1.663-0.603L481.18,44.776z"/>
	<path d="M483.938,45.694c0-0.631,0.516-1.146,1.146-1.146s1.148,0.516,1.148,1.146c0,0.632-0.518,1.148-1.148,1.148
		S483.938,46.326,483.938,45.694z M484.797,41.908c0-0.631,0.518-1.147,1.148-1.147s1.146,0.517,1.146,1.147
		s-0.516,1.147-1.146,1.147S484.797,42.539,484.797,41.908z"/>
	<path d="M487.194,46.226c0-0.688,0.416-1.104,0.934-1.104c0.487,0,0.889,0.401,0.889,0.89c0,0.286-0.158,0.545-0.287,0.646
		c0.101,0.187,0.688,0.602,1.707,0.602c1.119,0,1.779-0.76,1.779-1.52c0-0.861-0.689-1.492-1.951-1.492h-0.416l0.301-1.233h0.359
		c1.362,0,2.48-0.531,2.48-1.535c0-0.702-0.631-1.09-1.506-1.09c-0.688,0-0.975,0.101-1.162,0.229
		c0.102,0.144,0.158,0.33,0.158,0.517c0,0.502-0.387,0.889-0.889,0.889c-0.431,0-0.933-0.258-0.933-0.975
		c0-1.019,1.147-1.965,2.911-1.965c1.808,0,3.041,0.961,3.041,2.338c0,0.975-0.688,2.022-2.51,2.28
		c1.219,0.487,1.692,1.306,1.692,2.123c0,1.506-1.319,2.725-3.386,2.725C488.428,48.549,487.194,47.33,487.194,46.226z"/>
	<path d="M495.545,43.414c0-2.151,1.692-4.331,4.059-4.331c2.138,0,3.342,1.506,3.342,3.413c0,2.151-1.691,4.332-4.059,4.332
		C496.75,46.828,495.545,45.322,495.545,43.414z M501.311,42.511c0-1.248-0.703-2.123-1.75-2.123c-1.362,0-2.381,1.449-2.381,3.012
		c0,1.248,0.703,2.123,1.75,2.123C500.293,45.522,501.311,44.074,501.311,42.511z"/>
	<path d="M502.591,48.248h0.903L505,41.765h-1.176l0.344-1.319h2.496l-0.315,1.435c0.517-0.818,1.349-1.55,2.31-1.55
		c1.448,0,2.166,1.005,2.166,2.468c0,2.165-1.449,4.045-3.342,4.045c-0.89,0-1.492-0.632-1.793-1.334l-0.632,2.739h1.119
		l-0.345,1.291h-3.586L502.591,48.248z M509.189,43.013c0-0.746-0.415-1.349-1.204-1.349c-1.091,0-2.037,1.119-2.037,2.468
		c0,0.817,0.416,1.319,1.276,1.319C508.315,45.451,509.189,44.289,509.189,43.013z"/>
	<path d="M513.123,41.765h-1.147l0.344-1.319h2.453l-0.316,1.448c0.432-0.803,1.205-1.563,2.009-1.563
		c0.89,0,1.478,0.646,1.577,1.563c0.545-0.961,1.32-1.563,2.037-1.563c0.875,0,1.606,0.646,1.606,1.879
		c0,0.316-0.043,0.66-0.157,1.048l-0.459,1.649c-0.043,0.172-0.072,0.315-0.072,0.444c0,0.287,0.115,0.431,0.33,0.431
		s0.488-0.158,0.803-1.033l0.632,0.244c-0.373,1.305-1.048,1.851-1.894,1.851c-0.99,0-1.463-0.589-1.463-1.392
		c0-0.229,0.028-0.474,0.1-0.718l0.445-1.592c0.072-0.229,0.101-0.444,0.101-0.616c0-0.574-0.373-0.875-0.789-0.875
		c-0.616,0-1.062,0.502-1.306,1.521l-0.889,3.557h-1.606l0.903-3.557c0.058-0.244,0.101-0.517,0.101-0.689
		c0-0.473-0.345-0.831-0.789-0.831c-0.616,0-1.062,0.502-1.306,1.521l-0.889,3.557h-1.606L513.123,41.765z"/>
	<path d="M524.229,41.865h4.159l-0.373,1.606h-4.159L524.229,41.865z"/>
	<path d="M528.877,45.422h1.693l1.09-4.704l-1.549,0.358l-0.058-1.305l2.726-0.675l0.745,0.345l-1.392,5.98h1.722l-0.287,1.291
		h-4.978L528.877,45.422z"/>
	<path d="M535.09,45.422h1.693l1.09-4.704l-1.549,0.358l-0.058-1.305l2.726-0.675l0.745,0.345l-1.392,5.98h1.722l-0.287,1.291
		h-4.978L535.09,45.422z"/>
	<path d="M541.534,45.694c0-0.631,0.516-1.146,1.147-1.146c0.631,0,1.147,0.516,1.147,1.146c0,0.632-0.517,1.148-1.147,1.148
		C542.049,46.843,541.534,46.326,541.534,45.694z M542.394,41.908c0-0.631,0.517-1.147,1.147-1.147s1.147,0.517,1.147,1.147
		s-0.517,1.147-1.147,1.147S542.394,42.539,542.394,41.908z"/>
	<path d="M545.795,43.414c0-2.151,1.692-4.331,4.059-4.331c2.138,0,3.342,1.506,3.342,3.413c0,2.151-1.691,4.332-4.059,4.332
		C547,46.828,545.795,45.322,545.795,43.414z M551.561,42.511c0-1.248-0.703-2.123-1.75-2.123c-1.362,0-2.381,1.449-2.381,3.012
		c0,1.248,0.703,2.123,1.75,2.123C550.543,45.522,551.561,44.074,551.561,42.511z"/>
	<path d="M554.319,43.414c0-2.151,1.691-4.331,4.059-4.331c2.137,0,3.342,1.506,3.342,3.413c0,2.151-1.692,4.332-4.059,4.332
		C555.523,46.828,554.319,45.322,554.319,43.414z M560.084,42.511c0-1.248-0.703-2.123-1.75-2.123c-1.363,0-2.381,1.449-2.381,3.012
		c0,1.248,0.703,2.123,1.75,2.123C559.066,45.522,560.084,44.074,560.084,42.511z"/>
	<path d="M561.364,48.248h0.904l1.506-6.483h-1.176l0.344-1.319h2.496l-0.316,1.435c0.518-0.818,1.349-1.55,2.311-1.55
		c1.448,0,2.165,1.005,2.165,2.468c0,2.165-1.448,4.045-3.342,4.045c-0.89,0-1.491-0.632-1.793-1.334l-0.631,2.739h1.118
		l-0.344,1.291h-3.586L561.364,48.248z M567.962,43.013c0-0.746-0.416-1.349-1.205-1.349c-1.09,0-2.036,1.119-2.036,2.468
		c0,0.817,0.416,1.319,1.275,1.319C567.087,45.451,567.962,44.289,567.962,43.013z"/>
	<path d="M571.895,41.765h-1.147l0.345-1.319h2.453l-0.316,1.448c0.431-0.803,1.205-1.563,2.008-1.563
		c0.89,0,1.478,0.646,1.578,1.563c0.545-0.961,1.32-1.563,2.037-1.563c0.875,0,1.605,0.646,1.605,1.879
		c0,0.316-0.043,0.66-0.157,1.048l-0.459,1.649c-0.043,0.172-0.071,0.315-0.071,0.444c0,0.287,0.114,0.431,0.33,0.431
		c0.215,0,0.487-0.158,0.803-1.033l0.631,0.244c-0.373,1.305-1.047,1.851-1.893,1.851c-0.99,0-1.463-0.589-1.463-1.392
		c0-0.229,0.028-0.474,0.1-0.718l0.445-1.592c0.071-0.229,0.1-0.444,0.1-0.616c0-0.574-0.373-0.875-0.789-0.875
		c-0.616,0-1.061,0.502-1.305,1.521l-0.889,3.557h-1.607l0.904-3.557c0.057-0.244,0.1-0.517,0.1-0.689
		c0-0.473-0.344-0.831-0.789-0.831c-0.616,0-1.061,0.502-1.305,1.521l-0.889,3.557h-1.607L571.895,41.765z"/>
</g>
<g enable-background="new    ">
	<path d="M475.084,71.688h1.19l1.851-8.004h-1.334l0.172-0.717h6.655l-0.502,2.137h-0.789l0.33-1.42h-3.716l-0.859,3.715h3.068
		l-0.157,0.717h-3.069l-0.832,3.572h1.406l-0.173,0.717h-3.413L475.084,71.688z"/>
	<path d="M484.153,67.041h-1.148l0.172-0.66h1.852l-0.402,1.636c0.803-1.104,1.478-1.75,2.037-1.75c0.473,0,0.731,0.272,0.731,0.631
		c0,0.388-0.315,0.703-0.675,0.703c-0.33,0-0.559-0.201-0.631-0.488c-0.487,0.287-1.535,1.233-1.879,2.654l-0.66,2.639h-0.745
		L484.153,67.041z"/>
	<path d="M488.286,71.473c0-0.157,0.057-0.444,0.114-0.646l1.062-3.786h-1.205l0.172-0.66h1.965l-1.262,4.519
		c-0.058,0.2-0.101,0.459-0.101,0.573c0,0.287,0.187,0.474,0.444,0.474c0.316,0,0.56-0.287,0.832-0.946l0.445,0.144
		c-0.287,0.846-0.718,1.348-1.377,1.348C488.745,72.491,488.286,72.075,488.286,71.473z M489.604,64.431
		c0-0.345,0.273-0.631,0.617-0.631c0.33,0,0.603,0.286,0.603,0.631c0,0.344-0.272,0.631-0.603,0.631
		C489.877,65.062,489.604,64.774,489.604,64.431z"/>
	<path d="M495.214,66.267c1.032,0,1.864,0.573,2.036,1.563l1.22-5.265h-1.147l0.158-0.659h1.893l-2.107,8.993
		c-0.059,0.229-0.102,0.459-0.102,0.573c0,0.287,0.158,0.474,0.431,0.474c0.33,0,0.573-0.287,0.847-0.946l0.444,0.144
		c-0.286,0.846-0.718,1.348-1.377,1.348c-0.616,0-1.047-0.401-1.047-1.004c0-0.058,0-0.129,0.015-0.201
		c-0.517,0.688-1.263,1.234-2.152,1.234c-1.305,0-2.28-0.962-2.28-2.511C492.044,67.901,493.565,66.267,495.214,66.267z
		 M496.993,68.776c0-1.104-0.631-1.836-1.721-1.836c-1.449,0-2.424,1.492-2.424,3.055c0,1.119,0.602,1.851,1.635,1.851
		C496.003,71.846,496.993,70.182,496.993,68.776z"/>
	<path d="M499.85,70.024c0-2.051,1.492-3.758,3.227-3.758c1.091,0,1.808,0.603,1.98,1.563l0.357-1.521h0.746l-1.118,4.59
		c-0.058,0.229-0.101,0.459-0.101,0.573c0,0.287,0.187,0.474,0.445,0.474c0.314,0,0.559-0.287,0.831-0.946l0.444,0.144
		c-0.286,0.846-0.717,1.348-1.377,1.348c-0.631,0-1.061-0.401-1.061-0.961v-0.244c-0.531,0.703-1.277,1.234-2.152,1.234
		C500.768,72.521,499.85,71.573,499.85,70.024z M504.77,68.748c0-1.076-0.574-1.808-1.664-1.808c-1.449,0-2.453,1.506-2.453,3.069
		c0,1.119,0.545,1.836,1.578,1.836C503.794,71.846,504.77,70.096,504.77,68.748z"/>
	<path d="M506.006,74.557c0-0.33,0.244-0.646,0.603-0.646s0.574,0.259,0.603,0.66h0.072c0.344,0,1.118-0.545,2.452-2.181
		l-1.075-5.35h-1.119l0.158-0.66h1.635l0.961,5.293c1.147-1.492,2.295-3.112,2.496-4.073c-0.287-0.086-0.588-0.33-0.588-0.718
		c0-0.315,0.271-0.616,0.645-0.616c0.388,0,0.703,0.287,0.703,0.846c0,1.047-0.875,2.453-3.084,5.265
		c-1.807,2.309-2.754,2.897-3.6,2.897C506.437,75.274,506.006,74.973,506.006,74.557z"/>
	<path d="M517.585,70.024c0-2.051,1.491-3.758,3.228-3.758c1.09,0,1.807,0.603,1.979,1.563l0.359-1.521h0.746l-1.119,4.59
		c-0.058,0.229-0.101,0.459-0.101,0.573c0,0.287,0.187,0.474,0.444,0.474c0.316,0,0.56-0.287,0.832-0.946l0.445,0.144
		c-0.287,0.846-0.718,1.348-1.377,1.348c-0.632,0-1.062-0.401-1.062-0.961v-0.244c-0.53,0.703-1.275,1.234-2.15,1.234
		C518.503,72.521,517.585,71.573,517.585,70.024z M522.505,68.748c0-1.076-0.574-1.808-1.664-1.808
		c-1.448,0-2.452,1.506-2.452,3.069c0,1.119,0.545,1.836,1.577,1.836C521.53,71.846,522.505,70.096,522.505,68.748z"/>
	<path d="M529.623,71.473c0-0.157,0.058-0.459,0.114-0.659l0.617-2.138c0.086-0.315,0.143-0.56,0.143-0.817
		c0-0.545-0.43-0.946-1.047-0.946c-0.889,0-2.021,0.932-2.452,2.624l-0.718,2.869h-0.745l1.349-5.364h-1.148l0.172-0.66h1.852
		l-0.373,1.449c0.588-0.947,1.319-1.563,2.18-1.563c1.004,0,1.692,0.674,1.692,1.563c0,0.301-0.086,0.631-0.172,0.946l-0.616,2.108
		c-0.059,0.201-0.102,0.474-0.102,0.588c0,0.287,0.188,0.474,0.445,0.474c0.315,0,0.559-0.287,0.832-0.946l0.444,0.144
		c-0.287,0.846-0.718,1.348-1.377,1.348C530.082,72.491,529.623,72.075,529.623,71.473z"/>
	<path d="M536.309,66.267c1.033,0,1.865,0.573,2.037,1.563l1.219-5.265h-1.147l0.157-0.659h1.895l-2.109,8.993
		c-0.057,0.229-0.1,0.459-0.1,0.573c0,0.287,0.157,0.474,0.43,0.474c0.33,0,0.574-0.287,0.847-0.946l0.444,0.144
		c-0.287,0.846-0.717,1.348-1.377,1.348c-0.617,0-1.047-0.401-1.047-1.004c0-0.058,0-0.129,0.014-0.201
		c-0.516,0.688-1.262,1.234-2.15,1.234c-1.306,0-2.281-0.962-2.281-2.511C533.139,67.901,534.66,66.267,536.309,66.267z
		 M538.088,68.776c0-1.104-0.632-1.836-1.722-1.836c-1.448,0-2.425,1.492-2.425,3.055c0,1.119,0.604,1.851,1.636,1.851
		C537.098,71.846,538.088,70.182,538.088,68.776z"/>
	<path d="M544.059,70.526c0-0.517,0.329-0.86,0.76-0.86c0.373,0,0.631,0.315,0.631,0.573c0,0.315-0.172,0.56-0.444,0.718
		c0.286,0.43,1.062,0.903,2.31,0.903c1.133,0,2.18-0.774,2.18-1.851c0-0.903-0.76-1.448-1.621-1.979
		c-1.205-0.745-2.209-1.405-2.209-2.711c0-1.362,1.263-2.524,2.926-2.524c1.479,0,2.754,0.861,2.754,1.808
		c0,0.545-0.372,0.832-0.717,0.832c-0.373,0-0.631-0.272-0.631-0.617c0-0.2,0.129-0.444,0.416-0.616
		c-0.287-0.315-0.918-0.688-1.879-0.688c-1.19,0-2.051,0.746-2.051,1.75c0,0.903,0.674,1.362,1.793,2.051
		c1.047,0.646,2.036,1.334,2.036,2.639c0,1.535-1.392,2.625-3.056,2.625C545.364,72.577,544.059,71.416,544.059,70.526z"/>
	<path d="M551.764,70.024c0-2.051,1.492-3.758,3.227-3.758c1.091,0,1.808,0.603,1.98,1.563l0.357-1.521h0.746l-1.118,4.59
		c-0.058,0.229-0.101,0.459-0.101,0.573c0,0.287,0.187,0.474,0.445,0.474c0.314,0,0.559-0.287,0.831-0.946l0.444,0.144
		c-0.286,0.846-0.717,1.348-1.377,1.348c-0.631,0-1.061-0.401-1.061-0.961v-0.244c-0.531,0.703-1.277,1.234-2.152,1.234
		C552.682,72.521,551.764,71.573,551.764,70.024z M556.684,68.748c0-1.076-0.574-1.808-1.664-1.808
		c-1.449,0-2.453,1.506-2.453,3.069c0,1.119,0.545,1.836,1.578,1.836C555.708,71.846,556.684,70.096,556.684,68.748z"/>
	<path d="M561.793,67.041l-0.947,3.858c-0.043,0.187-0.072,0.344-0.072,0.517c0,0.2,0.173,0.444,0.503,0.444
		c0.329,0,0.717-0.215,1.306-0.603l0.314,0.444c-0.702,0.517-1.219,0.818-1.778,0.818c-0.674,0-1.133-0.431-1.133-1.005
		c0-0.172,0.043-0.387,0.101-0.631l0.961-3.844h-1.062l0.172-0.66h1.048l0.372-1.478l0.804-0.229l-0.431,1.707h1.864l-0.172,0.66
		H561.793z"/>
	<path d="M566.557,66.381l-1.02,3.901c-0.057,0.216-0.1,0.474-0.1,0.731c0,0.488,0.387,0.861,1.004,0.861
		c0.889,0,2.037-0.962,2.453-2.625l0.717-2.869h0.746l-1.133,4.519c-0.059,0.229-0.102,0.459-0.102,0.573
		c0,0.287,0.188,0.474,0.445,0.474c0.315,0,0.559-0.287,0.832-0.946l0.444,0.144c-0.286,0.846-0.718,1.348-1.377,1.348
		c-0.616,0-1.032-0.387-1.032-1.019c0-0.144,0.028-0.315,0.071-0.516c-0.53,0.874-1.263,1.563-2.181,1.563
		c-0.961,0-1.648-0.589-1.648-1.478c0-0.302,0.071-0.589,0.129-0.817l0.832-3.185h-1.148l0.173-0.66H566.557z"/>
	<path d="M573.33,67.041h-1.147l0.172-0.66h1.851l-0.401,1.636c0.803-1.104,1.477-1.75,2.036-1.75c0.474,0,0.731,0.272,0.731,0.631
		c0,0.388-0.315,0.703-0.674,0.703c-0.33,0-0.56-0.201-0.631-0.488c-0.488,0.287-1.535,1.233-1.879,2.654l-0.66,2.639h-0.746
		L573.33,67.041z"/>
	<path d="M580.059,66.267c1.032,0,1.864,0.573,2.036,1.563l1.22-5.265h-1.148l0.158-0.659h1.894l-2.108,8.993
		c-0.058,0.229-0.101,0.459-0.101,0.573c0,0.287,0.157,0.474,0.431,0.474c0.33,0,0.573-0.287,0.846-0.946l0.445,0.144
		c-0.287,0.846-0.718,1.348-1.377,1.348c-0.617,0-1.047-0.401-1.047-1.004c0-0.058,0-0.129,0.014-0.201
		c-0.516,0.688-1.262,1.234-2.151,1.234c-1.306,0-2.28-0.962-2.28-2.511C576.889,67.901,578.409,66.267,580.059,66.267z
		 M581.837,68.776c0-1.104-0.632-1.836-1.722-1.836c-1.448,0-2.424,1.492-2.424,3.055c0,1.119,0.603,1.851,1.635,1.851
		C580.848,71.846,581.837,70.182,581.837,68.776z"/>
	<path d="M584.694,70.024c0-2.051,1.492-3.758,3.228-3.758c1.091,0,1.808,0.603,1.979,1.563l0.358-1.521h0.746l-1.118,4.59
		c-0.059,0.229-0.102,0.459-0.102,0.573c0,0.287,0.188,0.474,0.445,0.474c0.315,0,0.559-0.287,0.832-0.946l0.444,0.144
		c-0.287,0.846-0.718,1.348-1.377,1.348c-0.631,0-1.062-0.401-1.062-0.961v-0.244c-0.531,0.703-1.276,1.234-2.151,1.234
		C585.612,72.521,584.694,71.573,584.694,70.024z M589.614,68.748c0-1.076-0.573-1.808-1.664-1.808
		c-1.448,0-2.452,1.506-2.452,3.069c0,1.119,0.545,1.836,1.577,1.836C588.639,71.846,589.614,70.096,589.614,68.748z"/>
	<path d="M590.85,74.557c0-0.33,0.244-0.646,0.603-0.646s0.574,0.259,0.603,0.66h0.072c0.344,0,1.118-0.545,2.452-2.181l-1.075-5.35
		h-1.119l0.158-0.66h1.635l0.961,5.293c1.147-1.492,2.295-3.112,2.496-4.073c-0.287-0.086-0.588-0.33-0.588-0.718
		c0-0.315,0.271-0.616,0.645-0.616c0.388,0,0.703,0.287,0.703,0.846c0,1.047-0.875,2.453-3.084,5.265
		c-1.807,2.309-2.754,2.897-3.6,2.897C591.281,75.274,590.85,74.973,590.85,74.557z"/>
</g>
<g enable-background="new    ">
	<path d="M481.18,83.292h1.406l-0.287,1.291h-1.42l-0.545,2.381h-1.521l0.545-2.381h-4.188l-0.187-0.774l6.282-6.368l0.99,0.903
		l-4.892,4.948h2.295l0.373-1.62l1.663-0.603L481.18,83.292z"/>
	<path d="M483.938,84.21c0-0.631,0.516-1.146,1.146-1.146s1.148,0.516,1.148,1.146c0,0.632-0.518,1.148-1.148,1.148
		S483.938,84.842,483.938,84.21z M484.797,80.424c0-0.631,0.518-1.147,1.148-1.147s1.146,0.517,1.146,1.147
		s-0.516,1.147-1.146,1.147S484.797,81.055,484.797,80.424z"/>
	<path d="M487.194,84.741c0-0.688,0.416-1.104,0.934-1.104c0.487,0,0.889,0.401,0.889,0.89c0,0.286-0.158,0.545-0.287,0.646
		c0.101,0.187,0.688,0.602,1.707,0.602c1.119,0,1.779-0.76,1.779-1.52c0-0.861-0.689-1.492-1.951-1.492h-0.416l0.301-1.233h0.359
		c1.362,0,2.48-0.531,2.48-1.535c0-0.702-0.631-1.09-1.506-1.09c-0.688,0-0.975,0.101-1.162,0.229
		c0.102,0.144,0.158,0.33,0.158,0.517c0,0.502-0.387,0.889-0.889,0.889c-0.431,0-0.933-0.258-0.933-0.975
		c0-1.019,1.147-1.965,2.911-1.965c1.808,0,3.041,0.961,3.041,2.338c0,0.975-0.688,2.022-2.51,2.28
		c1.219,0.487,1.692,1.306,1.692,2.123c0,1.506-1.319,2.725-3.386,2.725C488.428,87.064,487.194,85.846,487.194,84.741z"/>
	<path d="M495.545,81.93c0-2.151,1.692-4.331,4.059-4.331c2.138,0,3.342,1.506,3.342,3.413c0,2.151-1.691,4.332-4.059,4.332
		C496.75,85.344,495.545,83.838,495.545,81.93z M501.311,81.026c0-1.248-0.703-2.123-1.75-2.123c-1.362,0-2.381,1.449-2.381,3.012
		c0,1.248,0.703,2.123,1.75,2.123C500.293,84.038,501.311,82.59,501.311,81.026z"/>
	<path d="M502.591,86.764h0.903L505,80.28h-1.176l0.344-1.319h2.496l-0.315,1.435c0.517-0.818,1.349-1.55,2.31-1.55
		c1.448,0,2.166,1.005,2.166,2.468c0,2.165-1.449,4.045-3.342,4.045c-0.89,0-1.492-0.632-1.793-1.334l-0.632,2.739h1.119
		l-0.345,1.291h-3.586L502.591,86.764z M509.189,81.528c0-0.746-0.415-1.349-1.204-1.349c-1.091,0-2.037,1.119-2.037,2.468
		c0,0.817,0.416,1.319,1.276,1.319C508.315,83.967,509.189,82.805,509.189,81.528z"/>
	<path d="M513.123,80.28h-1.147l0.344-1.319h2.453l-0.316,1.448c0.432-0.803,1.205-1.563,2.009-1.563
		c0.89,0,1.478,0.646,1.577,1.563c0.545-0.961,1.32-1.563,2.037-1.563c0.875,0,1.606,0.646,1.606,1.879
		c0,0.316-0.043,0.66-0.157,1.048l-0.459,1.649c-0.043,0.172-0.072,0.315-0.072,0.444c0,0.287,0.115,0.431,0.33,0.431
		s0.488-0.158,0.803-1.033l0.632,0.244c-0.373,1.305-1.048,1.851-1.894,1.851c-0.99,0-1.463-0.589-1.463-1.392
		c0-0.229,0.028-0.474,0.1-0.718l0.445-1.592c0.072-0.229,0.101-0.444,0.101-0.616c0-0.574-0.373-0.875-0.789-0.875
		c-0.616,0-1.062,0.502-1.306,1.521l-0.889,3.557h-1.606l0.903-3.557c0.058-0.244,0.101-0.517,0.101-0.689
		c0-0.473-0.345-0.831-0.789-0.831c-0.616,0-1.062,0.502-1.306,1.521l-0.889,3.557h-1.606L513.123,80.28z"/>
	<path d="M524.229,80.381h4.159l-0.373,1.606h-4.159L524.229,80.381z"/>
	<path d="M528.877,83.938h1.693l1.09-4.704l-1.549,0.358l-0.058-1.305l2.726-0.675l0.745,0.345l-1.392,5.98h1.722l-0.287,1.291
		h-4.978L528.877,83.938z"/>
	<path d="M535.392,81.93c0-2.151,1.692-4.331,4.06-4.331c2.137,0,3.342,1.506,3.342,3.413c0,2.151-1.693,4.332-4.06,4.332
		C536.596,85.344,535.392,83.838,535.392,81.93z M541.158,81.026c0-1.248-0.702-2.123-1.749-2.123c-1.363,0-2.382,1.449-2.382,3.012
		c0,1.248,0.703,2.123,1.75,2.123C540.139,84.038,541.158,82.59,541.158,81.026z"/>
	<path d="M543.844,84.21c0-0.631,0.516-1.146,1.146-1.146s1.148,0.516,1.148,1.146c0,0.632-0.518,1.148-1.148,1.148
		S543.844,84.842,543.844,84.21z M544.704,80.424c0-0.631,0.518-1.147,1.148-1.147s1.146,0.517,1.146,1.147
		s-0.516,1.147-1.146,1.147S544.704,81.055,544.704,80.424z"/>
	<path d="M548.106,81.93c0-2.151,1.691-4.331,4.059-4.331c2.137,0,3.342,1.506,3.342,3.413c0,2.151-1.692,4.332-4.059,4.332
		C549.31,85.344,548.106,83.838,548.106,81.93z M553.872,81.026c0-1.248-0.703-2.123-1.75-2.123c-1.363,0-2.381,1.449-2.381,3.012
		c0,1.248,0.703,2.123,1.75,2.123C552.853,84.038,553.872,82.59,553.872,81.026z"/>
	<path d="M556.628,81.93c0-2.151,1.692-4.331,4.06-4.331c2.137,0,3.342,1.506,3.342,3.413c0,2.151-1.693,4.332-4.06,4.332
		C557.833,85.344,556.628,83.838,556.628,81.93z M562.394,81.026c0-1.248-0.702-2.123-1.749-2.123c-1.363,0-2.382,1.449-2.382,3.012
		c0,1.248,0.703,2.123,1.75,2.123C561.375,84.038,562.394,82.59,562.394,81.026z"/>
	<path d="M563.674,86.764h0.904l1.506-6.483h-1.177l0.345-1.319h2.495l-0.315,1.435c0.517-0.818,1.349-1.55,2.31-1.55
		c1.448,0,2.165,1.005,2.165,2.468c0,2.165-1.448,4.045-3.342,4.045c-0.889,0-1.491-0.632-1.793-1.334l-0.631,2.739h1.119
		l-0.344,1.291h-3.586L563.674,86.764z M570.272,81.528c0-0.746-0.416-1.349-1.205-1.349c-1.09,0-2.036,1.119-2.036,2.468
		c0,0.817,0.416,1.319,1.276,1.319C569.397,83.967,570.272,82.805,570.272,81.528z"/>
	<path d="M574.206,80.28h-1.147l0.344-1.319h2.453l-0.315,1.448c0.43-0.803,1.205-1.563,2.008-1.563
		c0.889,0,1.478,0.646,1.578,1.563c0.545-0.961,1.319-1.563,2.036-1.563c0.875,0,1.606,0.646,1.606,1.879
		c0,0.316-0.043,0.66-0.158,1.048l-0.459,1.649c-0.043,0.172-0.071,0.315-0.071,0.444c0,0.287,0.114,0.431,0.33,0.431
		s0.487-0.158,0.804-1.033l0.631,0.244c-0.373,1.305-1.047,1.851-1.894,1.851c-0.989,0-1.463-0.589-1.463-1.392
		c0-0.229,0.028-0.474,0.101-0.718l0.444-1.592c0.071-0.229,0.101-0.444,0.101-0.616c0-0.574-0.373-0.875-0.789-0.875
		c-0.617,0-1.062,0.502-1.305,1.521l-0.89,3.557h-1.606l0.903-3.557c0.058-0.244,0.101-0.517,0.101-0.689
		c0-0.473-0.344-0.831-0.789-0.831c-0.617,0-1.062,0.502-1.305,1.521l-0.89,3.557h-1.606L574.206,80.28z"/>
</g>
<g enable-background="new    ">
	<path d="M475.084,110.204h1.19l1.851-8.004h-1.334l0.172-0.717h6.655l-0.502,2.137h-0.789l0.33-1.42h-3.716l-0.859,3.715h3.068
		l-0.157,0.717h-3.069l-0.832,3.572h1.406l-0.173,0.717h-3.413L475.084,110.204z"/>
	<path d="M484.153,105.557h-1.148l0.172-0.66h1.852l-0.402,1.636c0.803-1.104,1.478-1.75,2.037-1.75
		c0.473,0,0.731,0.272,0.731,0.631c0,0.388-0.315,0.703-0.675,0.703c-0.33,0-0.559-0.201-0.631-0.488
		c-0.487,0.287-1.535,1.233-1.879,2.654l-0.66,2.639h-0.745L484.153,105.557z"/>
	<path d="M488.286,109.988c0-0.157,0.057-0.444,0.114-0.646l1.062-3.786h-1.205l0.172-0.66h1.965l-1.262,4.519
		c-0.058,0.2-0.101,0.459-0.101,0.573c0,0.287,0.187,0.474,0.444,0.474c0.316,0,0.56-0.287,0.832-0.946l0.445,0.144
		c-0.287,0.846-0.718,1.348-1.377,1.348C488.745,111.007,488.286,110.591,488.286,109.988z M489.604,102.946
		c0-0.345,0.273-0.631,0.617-0.631c0.33,0,0.603,0.286,0.603,0.631c0,0.344-0.272,0.631-0.603,0.631
		C489.877,103.577,489.604,103.29,489.604,102.946z"/>
	<path d="M495.214,104.782c1.032,0,1.864,0.573,2.036,1.563l1.22-5.265h-1.147l0.158-0.659h1.893l-2.107,8.993
		c-0.059,0.229-0.102,0.459-0.102,0.573c0,0.287,0.158,0.474,0.431,0.474c0.33,0,0.573-0.287,0.847-0.946l0.444,0.144
		c-0.286,0.846-0.718,1.348-1.377,1.348c-0.616,0-1.047-0.401-1.047-1.004c0-0.058,0-0.129,0.015-0.201
		c-0.517,0.688-1.263,1.234-2.152,1.234c-1.305,0-2.28-0.962-2.28-2.511C492.044,106.417,493.565,104.782,495.214,104.782z
		 M496.993,107.292c0-1.104-0.631-1.836-1.721-1.836c-1.449,0-2.424,1.492-2.424,3.055c0,1.119,0.602,1.851,1.635,1.851
		C496.003,110.361,496.993,108.697,496.993,107.292z"/>
	<path d="M499.85,108.54c0-2.051,1.492-3.758,3.227-3.758c1.091,0,1.808,0.603,1.98,1.563l0.357-1.521h0.746l-1.118,4.59
		c-0.058,0.229-0.101,0.459-0.101,0.573c0,0.287,0.187,0.474,0.445,0.474c0.314,0,0.559-0.287,0.831-0.946l0.444,0.144
		c-0.286,0.846-0.717,1.348-1.377,1.348c-0.631,0-1.061-0.401-1.061-0.961v-0.244c-0.531,0.703-1.277,1.234-2.152,1.234
		C500.768,111.036,499.85,110.089,499.85,108.54z M504.77,107.264c0-1.076-0.574-1.808-1.664-1.808
		c-1.449,0-2.453,1.506-2.453,3.069c0,1.119,0.545,1.836,1.578,1.836C503.794,110.361,504.77,108.611,504.77,107.264z"/>
	<path d="M506.006,113.072c0-0.33,0.244-0.646,0.603-0.646s0.574,0.259,0.603,0.66h0.072c0.344,0,1.118-0.545,2.452-2.181
		l-1.075-5.35h-1.119l0.158-0.66h1.635l0.961,5.293c1.147-1.492,2.295-3.112,2.496-4.073c-0.287-0.086-0.588-0.33-0.588-0.718
		c0-0.315,0.271-0.616,0.645-0.616c0.388,0,0.703,0.287,0.703,0.846c0,1.047-0.875,2.453-3.084,5.265
		c-1.807,2.309-2.754,2.897-3.6,2.897C506.437,113.79,506.006,113.488,506.006,113.072z"/>
	<path d="M517.585,108.54c0-2.051,1.491-3.758,3.228-3.758c1.09,0,1.807,0.603,1.979,1.563l0.359-1.521h0.746l-1.119,4.59
		c-0.058,0.229-0.101,0.459-0.101,0.573c0,0.287,0.187,0.474,0.444,0.474c0.316,0,0.56-0.287,0.832-0.946l0.445,0.144
		c-0.287,0.846-0.718,1.348-1.377,1.348c-0.632,0-1.062-0.401-1.062-0.961v-0.244c-0.53,0.703-1.275,1.234-2.15,1.234
		C518.503,111.036,517.585,110.089,517.585,108.54z M522.505,107.264c0-1.076-0.574-1.808-1.664-1.808
		c-1.448,0-2.452,1.506-2.452,3.069c0,1.119,0.545,1.836,1.577,1.836C521.53,110.361,522.505,108.611,522.505,107.264z"/>
	<path d="M529.623,109.988c0-0.157,0.058-0.459,0.114-0.659l0.617-2.138c0.086-0.315,0.143-0.56,0.143-0.817
		c0-0.545-0.43-0.946-1.047-0.946c-0.889,0-2.021,0.932-2.452,2.624l-0.718,2.869h-0.745l1.349-5.364h-1.148l0.172-0.66h1.852
		l-0.373,1.449c0.588-0.947,1.319-1.563,2.18-1.563c1.004,0,1.692,0.674,1.692,1.563c0,0.301-0.086,0.631-0.172,0.946l-0.616,2.108
		c-0.059,0.201-0.102,0.474-0.102,0.588c0,0.287,0.188,0.474,0.445,0.474c0.315,0,0.559-0.287,0.832-0.946l0.444,0.144
		c-0.287,0.846-0.718,1.348-1.377,1.348C530.082,111.007,529.623,110.591,529.623,109.988z"/>
	<path d="M536.309,104.782c1.033,0,1.865,0.573,2.037,1.563l1.219-5.265h-1.147l0.157-0.659h1.895l-2.109,8.993
		c-0.057,0.229-0.1,0.459-0.1,0.573c0,0.287,0.157,0.474,0.43,0.474c0.33,0,0.574-0.287,0.847-0.946l0.444,0.144
		c-0.287,0.846-0.717,1.348-1.377,1.348c-0.617,0-1.047-0.401-1.047-1.004c0-0.058,0-0.129,0.014-0.201
		c-0.516,0.688-1.262,1.234-2.15,1.234c-1.306,0-2.281-0.962-2.281-2.511C533.139,106.417,534.66,104.782,536.309,104.782z
		 M538.088,107.292c0-1.104-0.632-1.836-1.722-1.836c-1.448,0-2.425,1.492-2.425,3.055c0,1.119,0.604,1.851,1.636,1.851
		C537.098,110.361,538.088,108.697,538.088,107.292z"/>
	<path d="M544.059,109.042c0-0.517,0.329-0.86,0.76-0.86c0.373,0,0.631,0.315,0.631,0.573c0,0.315-0.172,0.56-0.444,0.718
		c0.286,0.43,1.062,0.903,2.31,0.903c1.133,0,2.18-0.774,2.18-1.851c0-0.903-0.76-1.448-1.621-1.979
		c-1.205-0.745-2.209-1.405-2.209-2.711c0-1.362,1.263-2.524,2.926-2.524c1.479,0,2.754,0.861,2.754,1.808
		c0,0.545-0.372,0.832-0.717,0.832c-0.373,0-0.631-0.272-0.631-0.617c0-0.2,0.129-0.444,0.416-0.616
		c-0.287-0.315-0.918-0.688-1.879-0.688c-1.19,0-2.051,0.746-2.051,1.75c0,0.903,0.674,1.362,1.793,2.051
		c1.047,0.646,2.036,1.334,2.036,2.639c0,1.535-1.392,2.625-3.056,2.625C545.364,111.093,544.059,109.932,544.059,109.042z"/>
	<path d="M551.764,108.54c0-2.051,1.492-3.758,3.227-3.758c1.091,0,1.808,0.603,1.98,1.563l0.357-1.521h0.746l-1.118,4.59
		c-0.058,0.229-0.101,0.459-0.101,0.573c0,0.287,0.187,0.474,0.445,0.474c0.314,0,0.559-0.287,0.831-0.946l0.444,0.144
		c-0.286,0.846-0.717,1.348-1.377,1.348c-0.631,0-1.061-0.401-1.061-0.961v-0.244c-0.531,0.703-1.277,1.234-2.152,1.234
		C552.682,111.036,551.764,110.089,551.764,108.54z M556.684,107.264c0-1.076-0.574-1.808-1.664-1.808
		c-1.449,0-2.453,1.506-2.453,3.069c0,1.119,0.545,1.836,1.578,1.836C555.708,110.361,556.684,108.611,556.684,107.264z"/>
	<path d="M561.793,105.557l-0.947,3.858c-0.043,0.187-0.072,0.344-0.072,0.517c0,0.2,0.173,0.444,0.503,0.444
		c0.329,0,0.717-0.215,1.306-0.603l0.314,0.444c-0.702,0.517-1.219,0.818-1.778,0.818c-0.674,0-1.133-0.431-1.133-1.005
		c0-0.172,0.043-0.387,0.101-0.631l0.961-3.844h-1.062l0.172-0.66h1.048l0.372-1.478l0.804-0.229l-0.431,1.707h1.864l-0.172,0.66
		H561.793z"/>
	<path d="M566.557,104.896l-1.02,3.901c-0.057,0.216-0.1,0.474-0.1,0.731c0,0.488,0.387,0.861,1.004,0.861
		c0.889,0,2.037-0.962,2.453-2.625l0.717-2.869h0.746l-1.133,4.519c-0.059,0.229-0.102,0.459-0.102,0.573
		c0,0.287,0.188,0.474,0.445,0.474c0.315,0,0.559-0.287,0.832-0.946l0.444,0.144c-0.286,0.846-0.718,1.348-1.377,1.348
		c-0.616,0-1.032-0.387-1.032-1.019c0-0.144,0.028-0.315,0.071-0.516c-0.53,0.874-1.263,1.563-2.181,1.563
		c-0.961,0-1.648-0.589-1.648-1.478c0-0.302,0.071-0.589,0.129-0.817l0.832-3.185h-1.148l0.173-0.66H566.557z"/>
	<path d="M573.33,105.557h-1.147l0.172-0.66h1.851l-0.401,1.636c0.803-1.104,1.477-1.75,2.036-1.75c0.474,0,0.731,0.272,0.731,0.631
		c0,0.388-0.315,0.703-0.674,0.703c-0.33,0-0.56-0.201-0.631-0.488c-0.488,0.287-1.535,1.233-1.879,2.654l-0.66,2.639h-0.746
		L573.33,105.557z"/>
	<path d="M580.059,104.782c1.032,0,1.864,0.573,2.036,1.563l1.22-5.265h-1.148l0.158-0.659h1.894l-2.108,8.993
		c-0.058,0.229-0.101,0.459-0.101,0.573c0,0.287,0.157,0.474,0.431,0.474c0.33,0,0.573-0.287,0.846-0.946l0.445,0.144
		c-0.287,0.846-0.718,1.348-1.377,1.348c-0.617,0-1.047-0.401-1.047-1.004c0-0.058,0-0.129,0.014-0.201
		c-0.516,0.688-1.262,1.234-2.151,1.234c-1.306,0-2.28-0.962-2.28-2.511C576.889,106.417,578.409,104.782,580.059,104.782z
		 M581.837,107.292c0-1.104-0.632-1.836-1.722-1.836c-1.448,0-2.424,1.492-2.424,3.055c0,1.119,0.603,1.851,1.635,1.851
		C580.848,110.361,581.837,108.697,581.837,107.292z"/>
	<path d="M584.694,108.54c0-2.051,1.492-3.758,3.228-3.758c1.091,0,1.808,0.603,1.979,1.563l0.358-1.521h0.746l-1.118,4.59
		c-0.059,0.229-0.102,0.459-0.102,0.573c0,0.287,0.188,0.474,0.445,0.474c0.315,0,0.559-0.287,0.832-0.946l0.444,0.144
		c-0.287,0.846-0.718,1.348-1.377,1.348c-0.631,0-1.062-0.401-1.062-0.961v-0.244c-0.531,0.703-1.276,1.234-2.151,1.234
		C585.612,111.036,584.694,110.089,584.694,108.54z M589.614,107.264c0-1.076-0.573-1.808-1.664-1.808
		c-1.448,0-2.452,1.506-2.452,3.069c0,1.119,0.545,1.836,1.577,1.836C588.639,110.361,589.614,108.611,589.614,107.264z"/>
	<path d="M590.85,113.072c0-0.33,0.244-0.646,0.603-0.646s0.574,0.259,0.603,0.66h0.072c0.344,0,1.118-0.545,2.452-2.181
		l-1.075-5.35h-1.119l0.158-0.66h1.635l0.961,5.293c1.147-1.492,2.295-3.112,2.496-4.073c-0.287-0.086-0.588-0.33-0.588-0.718
		c0-0.315,0.271-0.616,0.645-0.616c0.388,0,0.703,0.287,0.703,0.846c0,1.047-0.875,2.453-3.084,5.265
		c-1.807,2.309-2.754,2.897-3.6,2.897C591.281,113.79,590.85,113.488,590.85,113.072z"/>
</g>
<g enable-background="new    ">
	<path d="M475.027,122.311h1.004l1.521-6.541h-1.147l0.33-1.448h3.241c0.459,0,0.875,0.057,1.248,0.157
		c1.363,0.373,2.137,1.377,2.137,2.653c0,1.922-1.52,3.515-4.088,3.515c-0.487,0-1.018-0.015-1.232-0.029l-0.388,1.693h1.247
		l-0.329,1.448h-3.873L475.027,122.311z M481.711,117.189c0-0.674-0.416-1.118-1.091-1.319c-0.243-0.072-0.53-0.101-0.788-0.101
		h-0.66l-0.789,3.399c0.315,0.028,0.717,0.043,1.062,0.043C480.879,119.212,481.711,118.366,481.711,117.189z"/>
	<path d="M483.894,122.468c0-0.215,0.028-0.459,0.086-0.703l0.731-2.969h-1.133l0.344-1.319h2.726l-1.075,4.274
		c-0.072,0.272-0.102,0.502-0.102,0.659c0,0.272,0.13,0.402,0.345,0.402c0.259,0,0.53-0.158,0.847-1.033l0.631,0.244
		c-0.43,1.478-1.147,1.851-1.965,1.851C484.353,123.874,483.894,123.314,483.894,122.468z M485.028,115.641
		c0-0.545,0.443-0.961,0.975-0.961s0.976,0.416,0.976,0.961s-0.444,0.961-0.976,0.961S485.028,116.186,485.028,115.641z"/>
	<path d="M487.596,122.97l4.748-4.26h-2.238l-0.286,1.147h-1.334l0.588-2.381h4.849l0.459,1.004l-4.519,4.06
		c0.345-0.101,0.53-0.158,0.946-0.158c0.459,0,1.09,0.215,1.377,0.215c0.717,0,0.918-0.373,1.205-1.219l0.588,0.129
		c-0.186,1.076-0.602,2.367-1.893,2.367c-0.488,0-1.736-0.345-2.338-0.345c-0.617,0-1.105,0.129-1.564,0.345L487.596,122.97z"/>
	<path d="M494.413,122.97l4.748-4.26h-2.238l-0.287,1.147h-1.334l0.588-2.381h4.849l0.459,1.004l-4.519,4.06
		c0.345-0.101,0.531-0.158,0.947-0.158c0.459,0,1.09,0.215,1.377,0.215c0.717,0,0.918-0.373,1.205-1.219l0.588,0.129
		c-0.187,1.076-0.603,2.367-1.894,2.367c-0.487,0-1.735-0.345-2.338-0.345c-0.616,0-1.104,0.129-1.563,0.345L494.413,122.97z"/>
	<path d="M501.601,121.436c0-2.166,1.448-4.074,3.271-4.074c0.832,0,1.506,0.688,1.764,1.406l0.431-1.291h1.463l-1.075,4.274
		c-0.072,0.272-0.115,0.516-0.115,0.674c0,0.258,0.101,0.388,0.315,0.388c0.187,0,0.487-0.158,0.804-1.033l0.631,0.244
		c-0.43,1.478-1.233,1.851-1.922,1.851c-0.818,0-1.291-0.56-1.291-1.421c-0.517,0.775-1.276,1.421-2.252,1.421
		C502.448,123.874,501.601,122.898,501.601,121.436z M506.364,120.087c0-0.817-0.402-1.334-1.234-1.334
		c-1.047,0-1.893,1.176-1.893,2.453c0,0.745,0.373,1.334,1.133,1.334C505.417,122.54,506.364,121.436,506.364,120.087z"/>
	<path d="M516.063,117.477l-0.903,3.629c-0.043,0.2-0.086,0.387-0.086,0.56c0,0.573,0.286,0.889,0.774,0.889
		c0.76,0,1.162-0.487,1.391-1.405l0.918-3.672h1.607l-1.076,4.274c-0.072,0.272-0.115,0.516-0.115,0.674
		c0,0.258,0.102,0.388,0.316,0.388c0.186,0,0.487-0.158,0.803-1.033l0.631,0.244c-0.43,1.478-1.233,1.851-1.922,1.851
		c-0.803,0-1.291-0.546-1.305-1.392c-0.517,0.846-1.291,1.392-2.094,1.392c-0.818,0-1.564-0.646-1.564-1.736
		c0-0.33,0.058-0.745,0.158-1.176l0.531-2.166h-1.134l0.345-1.319H516.063z"/>
	<path d="M525.232,122.482c0-0.229,0.028-0.474,0.101-0.718l0.473-1.692c0.058-0.187,0.072-0.358,0.072-0.516
		c0-0.546-0.33-0.875-0.861-0.875c-0.674,0-1.118,0.473-1.348,1.405l-0.918,3.672h-1.606l1.248-4.963h-1.147l0.344-1.319h2.453
		l-0.316,1.448c0.432-0.803,1.291-1.563,2.138-1.563c0.903,0,1.649,0.646,1.649,1.879c0,0.316-0.043,0.66-0.158,1.048l-0.459,1.649
		c-0.043,0.172-0.071,0.315-0.071,0.444c0,0.287,0.114,0.431,0.33,0.431s0.487-0.158,0.804-1.033l0.631,0.244
		c-0.373,1.305-1.047,1.851-1.894,1.851C525.706,123.874,525.232,123.285,525.232,122.482z"/>
	<path d="M532.034,118.796l-0.674,2.726c-0.058,0.229-0.101,0.459-0.101,0.573c0,0.431,0.216,0.574,0.459,0.574
		c0.33,0,0.573-0.086,1.205-0.502l0.517,0.717c-0.861,0.817-1.65,0.99-2.267,0.99c-0.832,0-1.534-0.445-1.534-1.507
		c0-0.243,0.057-0.53,0.129-0.846l0.674-2.726h-1.162l0.301-1.319h1.177l0.345-1.362l1.764-0.632l-0.502,1.994h1.908l-0.33,1.319
		H532.034z"/>
	<path d="M534.918,122.468c0-0.215,0.029-0.459,0.086-0.703l0.731-2.969h-1.133l0.345-1.319h2.725l-1.076,4.274
		c-0.071,0.272-0.1,0.502-0.1,0.659c0,0.272,0.129,0.402,0.344,0.402c0.258,0,0.531-0.158,0.846-1.033l0.632,0.244
		c-0.431,1.478-1.147,1.851-1.965,1.851C535.377,123.874,534.918,123.314,534.918,122.468z M536.051,115.641
		c0-0.545,0.445-0.961,0.976-0.961s0.976,0.416,0.976,0.961s-0.445,0.961-0.976,0.961S536.051,116.186,536.051,115.641z"/>
	<path d="M539.281,122.453c0-0.215,0.028-0.444,0.086-0.688l1.664-7.186h-1.177l0.345-1.319h2.726l-1.965,8.491
		c-0.059,0.258-0.102,0.459-0.102,0.616c0,0.315,0.102,0.445,0.33,0.445c0.259,0,0.531-0.158,0.847-1.033l0.631,0.244
		c-0.431,1.478-1.147,1.851-1.965,1.851C539.725,123.874,539.281,123.314,539.281,122.453z"/>
	<path d="M546.512,122.453h1.693l1.09-4.704l-1.549,0.358l-0.058-1.305l2.726-0.675l0.745,0.345l-1.392,5.98h1.722l-0.287,1.291
		h-4.978L546.512,122.453z"/>
	<path d="M552.74,121.436c0-2.166,1.448-4.074,3.271-4.074c0.832,0,1.506,0.688,1.764,1.406l0.431-1.291h1.463l-1.075,4.274
		c-0.072,0.272-0.115,0.516-0.115,0.674c0,0.258,0.101,0.388,0.315,0.388c0.187,0,0.487-0.158,0.804-1.033l0.631,0.244
		c-0.43,1.478-1.233,1.851-1.922,1.851c-0.818,0-1.291-0.56-1.291-1.421c-0.517,0.775-1.276,1.421-2.252,1.421
		C553.586,123.874,552.74,122.898,552.74,121.436z M557.502,120.087c0-0.817-0.402-1.334-1.234-1.334
		c-1.047,0-1.893,1.176-1.893,2.453c0,0.745,0.373,1.334,1.133,1.334C556.555,122.54,557.502,121.436,557.502,120.087z"/>
	<path d="M562.325,118.796h-1.147l0.344-1.319h2.453l-0.315,1.448c0.43-0.803,1.205-1.563,2.008-1.563
		c0.889,0,1.478,0.646,1.578,1.563c0.545-0.961,1.319-1.563,2.036-1.563c0.875,0,1.606,0.646,1.606,1.879
		c0,0.316-0.043,0.66-0.158,1.048l-0.459,1.649c-0.043,0.172-0.071,0.315-0.071,0.444c0,0.287,0.114,0.431,0.33,0.431
		s0.487-0.158,0.804-1.033l0.631,0.244c-0.373,1.305-1.047,1.851-1.894,1.851c-0.989,0-1.463-0.589-1.463-1.392
		c0-0.229,0.028-0.474,0.101-0.718l0.444-1.592c0.071-0.229,0.101-0.444,0.101-0.616c0-0.574-0.373-0.875-0.789-0.875
		c-0.617,0-1.062,0.502-1.305,1.521l-0.89,3.557h-1.606l0.903-3.557c0.058-0.244,0.101-0.517,0.101-0.689
		c0-0.473-0.344-0.831-0.789-0.831c-0.617,0-1.062,0.502-1.305,1.521l-0.89,3.557h-1.606L562.325,118.796z"/>
</g>
</svg>
