<?xml version="1.0" encoding="utf-8"?>
<!-- Generator: Adobe Illustrator 17.0.0, SVG Export Plug-In . SVG Version: 6.00 Build 0)  -->
<!DOCTYPE svg PUBLIC "-//W3C//DTD SVG 1.1//EN" "http://www.w3.org/Graphics/SVG/1.1/DTD/svg11.dtd">
<svg version="1.1" id="Layer_1" xmlns="http://www.w3.org/2000/svg" xmlns:xlink="http://www.w3.org/1999/xlink" x="0px" y="0px"
	 width="596.644px" height="363.721px" viewBox="4.82 2.079 596.644 363.721" enable-background="new 4.82 2.079 596.644 363.721"
	 xml:space="preserve">
<g>
	<path d="M229.633,171.848c-1.064,6.416-5.496,13.599-12.529,13.599c-6.26,0-12.068-2.904-12.068-9.322
		c0-1.222,0.154-2.445,0.611-3.819c0,0,5.5-18.796,7.641-26.437c2.293-8.248,8.859-7.792,9.475-7.792l0.152-0.613h-14.67
		l0.307-0.607h16.35l-11.002,38.2c-0.455,1.679-0.764,3.361-0.764,5.042c0,2.75,0.916,4.738,3.969,4.738
		c6.572,0,10.854-6.573,11.922-12.989H229.633z M228.723,103.238c2.9,0,4.734,2.293,4.277,5.196
		c-0.311,2.75-2.902,5.043-5.807,5.043c-2.908,0-4.738-2.293-4.432-5.043C223.219,105.531,225.814,103.238,228.723,103.238z"/>
	<path d="M231.844,184.988c0,0,9.016-31.479,11.152-39.119c2.445-8.556,9.477-7.792,9.477-7.792l0.148-0.613h-14.666l0.152-0.607
		h16.502l-4.734,16.808c4.582-9.322,12.529-17.726,20.627-17.726c6.111,0,12.377,4.432,10.391,10.847l-8.254,28.271
		c-1.373,4.43-1.834,9.779,3.061,9.779c6.568,0,11.305-7.183,12.223-13.143l0.611,0.154c-1.223,6.416-5.807,13.599-12.834,13.599
		c-7.336,0-14.059-4.126-11.311-13.293c0,0,6.877-22.921,9.322-30.561c0.766-2.599,0.459-5.042-3.209-5.042
		c-9.17,0-18.643,11.461-22.158,22.612l-7.334,25.825h-9.166V184.988z"/>
	<path d="M290.096,184.988c0,0,9.016-31.479,11.154-39.119c2.445-8.556,9.475-7.792,9.475-7.792l0.152-0.613h-14.67l0.154-0.607
		h16.502l-4.738,16.808c4.588-9.322,12.531-17.726,20.631-17.726c6.111,0,12.375,4.432,10.389,10.847l-8.248,28.271
		c-1.379,4.43-1.834,9.779,3.055,9.779c6.57,0,11.307-7.183,12.225-13.143l0.609,0.154c-1.221,6.416-5.803,13.599-12.834,13.599
		c-7.334,0-14.059-4.126-11.309-13.293c0,0,6.875-22.921,9.32-30.561c0.764-2.599,0.459-5.042-3.207-5.042
		c-9.172,0-18.643,11.461-22.158,22.612l-7.336,25.825h-9.166V184.988z"/>
	<path d="M385.957,171.084c-2.598,7.029-10.24,14.515-19.559,14.515c-11.463,0-16.041-6.723-16.041-15.128
		c0-14.518,13.746-34.228,31.164-34.228c7.184,0,11.615,3.361,11.615,9.169c0,6.877-8.859,17.269-22.918,17.269
		c-2.906,0-6.115-0.461-9.322-1.531c-1.527,4.584-2.445,9.167-2.445,13.141c0,6.265,2.291,10.696,7.947,10.696
		c9.018,0,16.502-7.487,18.945-14.209L385.957,171.084z M361.049,160.692c1.986,0.612,4.125,1.069,6.418,1.069
		c10.848,0,19.402-12.987,19.402-19.711c0-3.36-1.371-5.193-5.348-5.193C373.426,136.857,365.174,148.775,361.049,160.692z"/>
	<path d="M271.568,237.32l-10.846,38.352c-1.07,4.43-1.531,9.779,3.209,9.779c6.723,0,11-6.722,12.068-13.14h0.609
		c-1.066,6.57-5.496,13.751-12.678,13.751c-8.557,0-13.449-5.501-11.311-14.058l-0.457-0.152
		c-4.279,7.794-11.305,14.21-17.115,14.21c-10.389,0-14.514-6.417-14.359-14.668c0.301-14.516,13.752-34.687,29.947-34.687
		c7.334,0,8.861,6.877,8.404,12.836c1.529-5.043,2.902-9.628,3.666-12.224h8.863V237.32z M254,267.115
		c1.066-3.819,2.598-8.558,3.971-13.599c1.221-6.266,1.07-16.196-7.334-16.196c-10.852,0-22.158,24.601-22.006,38.659
		c0,5.653,1.99,9.472,6.418,9.472C241.621,285.451,250.33,276.129,254,267.115z"/>
	<path d="M282.879,285.605c0,0,9.016-31.478,11.154-39.119c2.293-8.404,8.559-8.097,9.172-8.097l0.15-0.46h-14.211l0.152-0.609
		h16.348l-4.582,16.196c4.279-9.167,11.459-16.809,19.252-16.809c5.504,0,7.492,3.516,7.492,7.642
		c0,6.873-5.045,12.529-10.85,12.529c-4.279,0-5.658-2.751-5.658-5.349c0-0.458,0.156-0.916,0.156-1.221
		c0.766,0.151,1.68,0.305,2.443,0.305c6.572,0,10.848-5.501,10.848-9.474c0-2.293-1.375-3.819-4.432-3.819
		c-9.016,0-17.57,11.307-20.932,22.461l-7.336,25.824H282.879z"/>
	<path d="M365.262,237.929h-11.154l-10.85,37.589c-1.223,4.432-1.525,9.782,3.359,9.782c6.572,0,11.156-7.187,12.072-13.144
		l0.463,0.153c-1.072,6.418-5.504,13.599-12.535,13.599c-7.332,0-14.209-4.125-11.609-13.293c0,0,6.875-23.99,9.936-34.687h-4.131
		l0.156-0.609h4.125c0.305-1.07,0.609-2.14,0.914-2.904c2.752-9.017,10.695-7.64,12.988-15.128h0.457l-5.193,18.032h11.156
		L365.262,237.929z"/>
	<path d="M231.867,184.983c0,0,9.018-31.477,11.154-39.119c2.443-8.558,9.473-7.793,9.473-7.793l0.152-0.614H237.98l0.152-0.61h16.5
		l-4.736,16.81c4.584-9.321,12.531-17.726,20.629-17.726c6.111,0,12.375,4.433,10.391,10.849l-8.248,28.269
		c-1.379,4.433-1.836,9.781,3.053,9.781c6.568,0,11.309-7.183,12.225-13.143l0.609,0.154c-1.221,6.416-5.805,13.599-12.834,13.599
		c-7.336,0-14.057-4.126-11.307-13.295c0,0,6.875-22.919,9.322-30.559c0.764-2.597,0.457-5.043-3.211-5.043
		c-9.17,0-18.643,11.461-22.156,22.614l-7.336,25.827L231.867,184.983L231.867,184.983z"/>
	<path d="M290.119,184.983c0,0,9.018-31.477,11.158-39.119c2.441-8.558,9.471-7.793,9.471-7.793l0.154-0.614h-14.67l0.154-0.61h16.5
		l-4.738,16.81c4.584-9.321,12.531-17.726,20.631-17.726c6.111,0,12.379,4.433,10.391,10.849l-8.25,28.269
		c-1.377,4.433-1.836,9.781,3.055,9.781c6.572,0,11.311-7.183,12.221-13.143l0.617,0.154c-1.227,6.416-5.809,13.599-12.838,13.599
		c-7.336,0-14.059-4.126-11.307-13.295c0,0,6.875-22.919,9.32-30.559c0.766-2.597,0.457-5.043-3.209-5.043
		c-9.168,0-18.643,11.461-22.156,22.614l-7.334,25.827L290.119,184.983L290.119,184.983z"/>
	<path d="M404.492,235.613c5.504,0,8.252,5.653,8.252,10.697v2.442c0,13.906-11.918,27.199-25.67,38.048
		c-5.957,17.268-18.18,32.547-35.297,32.547h-0.459c-5.957,0-8.861-3.668-8.709-7.182c0.152-4.582,3.668-8.861,10.238-8.861
		c4.275,0,6.723,3.055,6.57,6.113c0,1.068-0.307,2.137-0.918,3.057c-1.377-3.363-4.434-6.879-9.17-6.879
		c-3.357,0-6.109,2.295-6.262,6.57c-0.15,3.361,2.445,6.723,8.25,6.723h0.307c31.172,0,36.367-81.899,22.002-81.899h-1.219
		l0.305-0.458h0.914c17.729,0,21.24,26.279,13.906,49.048c13.6-10.542,24.297-23.84,24.297-35.296
		c0-6.573-7.182-12.225-14.516-8.406C396.092,237.6,400.674,235.613,404.492,235.613z"/>
	<g>
		<path d="M112.549,186.148l0.461-0.608h10.848c1.379-4.281,10.24-32.853,17.27-55.315H123.4
			c10.543,5.193,3.209,35.756-20.322,35.756c-13.754,0-20.629-9.474-22.461-19.252c-2.903-15.13,7.336-34.689,29.027-38.813
			c10.547-1.986,24.148-1.07,34.996-3.055c7.637-1.529,16.656-5.654,16.809-13.292c0-2.906-1.375-6.878-6.266-6.878
			c-3.666,0-8.252,3.209-9.018,9.321c-3.814-1.069-3.668-12.225,6.422-12.225c5.652,0,9.32,5.348,9.32,9.933
			c0,0.918-0.156,1.833-0.459,2.599l0.154-0.156l-0.918,3.057c4.129-3.057,9.164-5.5,14.975-5.5c49.662,0,29.492,94.43-35.605,94.43
			h-27.505V186.148z M120.039,129.46h21.391c3.365-10.543,6.268-19.711,7.643-23.988c-8.098,3.515-18.338,5.652-26.895,7.18
			c-3.514,0.762-6.725,1.376-9.93,1.985c-21.547,4.126-30.561,21.242-29.188,34.229c0.919,8.404,7.642,16.502,20.019,16.502
			c17.875,0,25.209-26.129,11.459-33.006C115.453,130.682,117.746,129.46,120.039,129.46z M150.141,130.225l-17.572,55.315h7.486
			c52.719,0,70.75-93.211,35.605-93.211c-5.959,0-11.004,2.597-15.432,6.111l-9.938,31.02h16.81v0.764L150.141,130.225
			L150.141,130.225z"/>
	</g>
	<g>
		<path d="M212.791,192.064c-5.807,0-13.143,4.433-18.494,9.017l2.146-6.572c0.15-0.763,0.301-1.527,0.301-2.445
			c0-4.584-3.664-9.93-9.32-9.93c-6.262,0-8.709,4.432-8.709,7.943c0,1.987,0.764,3.821,2.293,4.277
			c0.764-6.11,5.35-9.319,9.014-9.319c4.891,0,6.266,3.971,6.266,6.877c0,1.526-0.305,2.901-0.764,4.123
			c-0.305,0.767-0.764,1.379-1.227,2.139c-7.482,11.616-35.598,15.434-51.033,17.729c-23.682,3.666-33.768,21.697-33.768,35.754
			c0,4.276,0.914,7.942,2.447,11.306c-8.865-8.251-22.006-14.058-38.202-14.058c-31.02,0-69.526,27.352-68.914,67.998
			C5.283,344.865,27.594,365.8,58.459,365.8c56.689,0,100.087-48.133,121.171-117.048c1.068,3.975,4.434,6.269,10.545,6.269
			C231.895,255.021,250.838,192.064,212.791,192.064z M172.604,241.724l-2.598,8.408c-20.783,70.44-56.23,115.056-111.546,115.056
			c-30.409,0-52.563-20.779-53.021-48.283c-0.61-40.187,37.896-67.385,68.151-67.385c32.089,0.613,42.938,21.697,43.245,42.477
			c0.15,2.75,0,5.502-0.307,8.102c0.457,0,0.758,0.15,1.219,0.15c4.891,0,7.49-4.432,7.336-11.309
			c-0.152-8.097-3.969-16.808-11.004-23.988c-1.375-2.903-1.982-6.265-1.982-9.93c0-12.227,6.268-23.84,33.768-32.398
			c7.945-2.442,24.447-7.486,36.363-14.208c0.309,0.151,0.463,0.306,0.766,0.457C181.008,214.834,177.186,227.209,172.604,241.724z
			 M190.176,254.407c-6.266,0-9.477-2.598-10.086-6.875c0.609-1.832,1.072-3.821,1.682-5.808l12.227-39.574
			c5.039-4.735,13.137-9.473,18.793-9.473C238.156,192.677,222.414,254.407,190.176,254.407z"/>
	</g>
	<path d="M392.891,185.134c0,0,9.018-31.478,11.154-39.117c2.293-8.406,8.406-8.101,9.172-8.101l0.15-0.459h-14.209l0.15-0.61
		h16.352l-5.195,18.337c23.84-52.104,110.322-43.244,152.494-59.134c25.518-9.626,37.898-31.019,37.898-51.646
		c0-28.118-23.84-41.718-42.48-41.718c-35.297,0-59.135,25.217-52.713,58.832c-5.352,1.681-9.018-2.906-9.018-9.933
		c0-22.001,23.99-49.506,61.73-49.506c18.947,0,43.088,13.905,43.088,42.783c0,24.297-15.432,49.969-44.309,60.817
		c-46.912,17.569-126.83-3.06-148.068,54.396l-7.025,25.061h-9.171V185.134z"/>
	<path d="M343.473,275.494c-0.461,1.682-0.766,3.361-0.766,4.89c0,2.751,0.914,4.89,4.127,4.89c6.57,0,11.152-7.184,12.07-13.143
		l0.459,0.155c-1.072,6.417-5.504,13.599-12.529,13.599c-6.266,0-12.227-2.904-12.227-9.474c0-1.223,0.152-2.441,0.613-3.821
		l4.738-16.347c-6.879-4.126-10.242-11.612-10.242-19.102c0-16.044,14.977-33.31,39.729-33.31c20.629,0,38.963,19.1,56.844,19.1
		c11.461,0,15.434-6.57,15.434-11.614c0-3.513-1.982-6.874-5.805-6.874h-0.609c0.76-1.07,2.291-1.681,3.664-1.681
		c4.127,0,5.346,4.89,5.346,6.723c0,8.249-11.766,16.806-25.668,16.806c-21.393,0-40.191-19.864-56.385-19.864
		c-17.268,0-31.938,14.975-31.938,30.713c0,7.185,3.363,14.669,9.781,18.642L349.584,224c6.875-3.363,9.934-6.419,11.461-12.072
		h0.609L343.473,275.494z"/>
</g>
</svg>
