<?xml version="1.0" encoding="utf-8"?>
<!-- Generator: Adobe Illustrator 17.0.0, SVG Export Plug-In . SVG Version: 6.00 Build 0)  -->
<!DOCTYPE svg PUBLIC "-//W3C//DTD SVG 1.1//EN" "http://www.w3.org/Graphics/SVG/1.1/DTD/svg11.dtd">
<svg version="1.1" id="Layer_1" xmlns="http://www.w3.org/2000/svg" xmlns:xlink="http://www.w3.org/1999/xlink" x="0px" y="0px"
	 width="772.25px" height="161.75px" viewBox="0 0 772.25 161.75" enable-background="new 0 0 772.25 161.75" xml:space="preserve">
<g opacity="0.7">
	<polyline fill="#C4CFB6" points="773.717,31.248 2.767,31.248 2.767,159.184 773.717,159.184 773.717,31.248 	"/>
</g>
<polygon points="588.126,0.843 771.483,0.788 771.483,33.124 551.483,33.266 "/>
<polygon points="492.346,97.172 435.306,39.07 680.584,39.07 739.042,97.052 680.584,155.285 435.306,155.285 "/>
<polyline fill="none" stroke="#000000" stroke-width="0.5103" points="692.452,154.95 749.49,96.84 692.452,38.731 "/>
<polyline fill="none" stroke="#000000" stroke-width="0.5103" points="702.283,154.95 759.324,96.84 702.283,38.731 "/>
<polyline fill="none" stroke="#000000" stroke-width="0.5103" points="712.113,154.95 769.159,96.84 712.113,38.731 "/>
<polyline fill="none" stroke="#000000" stroke-width="0.5103" points="404.887,155.285 461.921,97.172 404.887,39.07 "/>
<polyline fill="none" stroke="#000000" stroke-width="0.5103" points="414.717,155.285 471.752,97.172 414.717,39.07 "/>
<polyline fill="none" stroke="#000000" stroke-width="0.5103" points="424.55,155.285 481.587,97.172 424.55,39.07 "/>
<g>
	<path fill="#B9C2AC" d="M514.18,70.029h-4.737l1.219-4.553h14.854l-1.219,4.553h-4.736l-3.104,11.544h-5.381L514.18,70.029z"/>
	<path fill="#B9C2AC" d="M526.692,65.477h5.381l-1.541,5.68h4.921l1.541-5.68h5.381l-4.323,16.097h-5.381l1.54-5.771h-4.921
		l-1.54,5.771h-5.381L526.692,65.477z"/>
	<path fill="#B9C2AC" d="M541.481,76.101c0-0.828,0.115-1.725,0.345-2.599l2.161-8.025h5.474l-2.254,8.37
		c-0.115,0.46-0.184,0.897-0.184,1.265c0,1.334,0.781,2.023,2.207,2.023c0.667,0,1.288-0.229,1.725-0.666
		c0.483-0.483,0.805-1.104,1.149-2.346l2.323-8.646h5.473l-2.553,9.475c-0.575,2.138-1.402,3.702-2.529,4.828
		c-1.518,1.518-3.817,2.116-6.37,2.116C543.919,81.896,541.481,79.733,541.481,76.101z"/>
	<path fill="#B9C2AC" d="M561.514,65.477h6.277c2.967,0,4.852,0.645,5.933,1.725c0.896,0.897,1.265,2.093,1.265,3.357
		c0,2.507-1.311,4.668-4.484,5.657l2.231,5.357h-5.795l-1.794-4.599h-1.334l-1.241,4.599h-5.381L561.514,65.477z M566.779,73.134
		c1.794,0,2.736-0.827,2.736-1.839c0-0.322-0.115-0.621-0.345-0.852c-0.299-0.299-0.828-0.46-1.587-0.46h-1.908l-0.852,3.15H566.779
		z"/>
	<path fill="#B9C2AC" d="M573.454,78.975l3.082-3.679c1.839,1.54,3.725,2.276,5.427,2.276c0.689,0,1.173-0.253,1.173-0.713
		c0-0.506-0.3-0.667-2.645-1.541c-2.989-1.104-4.393-2.161-4.393-4.529c0-3.104,2.852-5.634,7.243-5.634
		c2.875,0,5.428,0.919,7.175,2.414l-3.081,3.679c-1.219-0.988-2.943-1.793-4.646-1.793c-0.689,0-1.173,0.184-1.173,0.644
		c0,0.483,0.346,0.575,2.576,1.402c2.736,1.013,4.483,2.162,4.483,4.622c0,3.242-2.667,5.772-7.289,5.772
		C578.191,81.896,575.409,80.745,573.454,78.975z"/>
	<path fill="#B9C2AC" d="M592.819,65.477h5.702c3.128,0,5.082,0.851,6.301,2.069c1.196,1.196,1.748,2.76,1.748,4.715
		c0,2.414-0.92,4.621-2.645,6.346c-1.932,1.932-4.714,2.967-8.439,2.967h-6.99L592.819,65.477z M596.084,76.882
		c1.633,0,3.036-0.482,3.863-1.311c0.667-0.667,1.15-1.747,1.15-2.736c0-0.874-0.253-1.448-0.667-1.862
		c-0.506-0.506-1.311-0.805-2.599-0.805h-0.896l-1.794,6.714H596.084z"/>
	<path fill="#B9C2AC" d="M614.945,65.361h5.335l2.438,16.212h-5.726l-0.275-2.161h-5.634l-1.403,2.161h-5.863L614.945,65.361z
		 M616.417,75.595l-0.437-3.909l-2.507,3.909H616.417z"/>
	<path fill="#B9C2AC" d="M626.815,75.434l-3.15-9.957h5.656l1.312,5.381l4.185-5.381h6.37l-9.152,10.624l-1.472,5.473h-5.381
		L626.815,75.434z"/>
	<path fill="#B9C2AC" d="M511.282,89.477h5.702c3.128,0,5.082,0.851,6.301,2.069c1.196,1.196,1.748,2.76,1.748,4.715
		c0,2.414-0.92,4.621-2.645,6.346c-1.932,1.932-4.714,2.967-8.439,2.967h-6.99L511.282,89.477z M514.547,100.882
		c1.633,0,3.036-0.482,3.863-1.311c0.667-0.667,1.15-1.747,1.15-2.736c0-0.874-0.253-1.448-0.667-1.862
		c-0.506-0.506-1.311-0.805-2.599-0.805h-0.896l-1.794,6.714H514.547z"/>
	<path fill="#B9C2AC" d="M528.439,89.477h13.728l-1.195,4.415h-8.439l-0.437,1.633h7.864l-1.035,3.886h-7.864l-0.482,1.748h8.554
		l-1.173,4.415h-13.843L528.439,89.477z"/>
	<path fill="#B9C2AC" d="M540.975,98.858c0-4.392,3.381-9.727,10.325-9.727c3.472,0,5.933,1.84,6.6,4.691l-4.807,2.092
		c-0.345-1.311-1.287-1.954-2.506-1.954c-2.415,0-3.979,2.207-3.979,4.415c0,1.771,1.104,2.759,2.529,2.759
		c1.242,0,2.254-0.598,3.128-1.678l3.725,2.943c-1.609,2.115-3.955,3.518-7.381,3.518
		C544.103,105.918,540.975,103.182,540.975,98.858z"/>
	<path fill="#B9C2AC" d="M560.409,89.477h13.728l-1.195,4.415h-8.439l-0.437,1.633h7.864l-1.035,3.886h-7.864l-0.482,1.748h8.554
		l-1.173,4.415h-13.843L560.409,89.477z"/>
	<path fill="#B9C2AC" d="M575.888,89.477h5.312l1.932,5.657l4.967-5.657h5.91l-4.323,16.097h-5.358l2.139-7.979l-5.242,5.726h-0.093
		l-2.161-5.726l-2.139,7.979h-5.266L575.888,89.477z"/>
	<path fill="#B9C2AC" d="M595.76,89.477h7.128c4.944,0,6.14,1.816,6.14,3.794c0,1.955-1.311,3.588-3.771,4.231
		c1.518,0.391,2.621,1.518,2.621,3.174c0,2.713-2.162,4.897-7.681,4.897h-8.761L595.76,89.477z M600.358,101.503
		c1.311,0,2.093-0.574,2.093-1.38c0-0.689-0.575-1.012-1.725-1.012h-2.322l-0.645,2.392H600.358z M601.784,95.801
		c1.38,0,2.001-0.621,2.001-1.312c0-0.666-0.506-0.942-1.656-0.942h-2.23l-0.598,2.254H601.784z"/>
	<path fill="#B9C2AC" d="M612.136,89.477h13.728l-1.195,4.415h-8.439l-0.437,1.633h7.864l-1.035,3.886h-7.864l-0.482,1.748h8.554
		l-1.173,4.415h-13.843L612.136,89.477z"/>
	<path fill="#B9C2AC" d="M627.614,89.477h6.277c2.967,0,4.852,0.645,5.933,1.725c0.896,0.897,1.265,2.093,1.265,3.357
		c0,2.507-1.311,4.668-4.483,5.657l2.23,5.357h-5.795l-1.794-4.599h-1.334l-1.241,4.599h-5.381L627.614,89.477z M632.88,97.134
		c1.794,0,2.736-0.827,2.736-1.839c0-0.322-0.115-0.621-0.345-0.852c-0.299-0.299-0.828-0.46-1.587-0.46h-1.908l-0.852,3.15H632.88z
		"/>
	<path fill="#B9C2AC" d="M649.877,94.236l-2.46,0.621l-0.139-4.185l5.151-1.312h4.047l-4.346,16.212h-5.289L649.877,94.236z"/>
	<path fill="#B9C2AC" d="M654.915,104.217l2.392-3.702c0.827,0.713,2.046,1.241,3.081,1.241c1.219,0,2.346-0.482,3.15-1.287
		c0.437-0.438,0.805-0.989,1.058-1.61c-0.92,0.69-2.139,1.173-3.656,1.173c-2.322,0-4.346-1.563-4.346-4.23
		c0-3.817,3.242-6.669,7.197-6.669c2.023,0,3.702,0.644,4.806,1.748c1.081,1.08,1.679,2.575,1.679,4.322
		c0,2.76-1.058,5.841-3.173,7.957c-1.61,1.609-3.841,2.713-6.784,2.713C658.134,105.872,656.249,105.297,654.915,104.217z
		 M665.309,94.375c0-0.414-0.138-0.782-0.391-1.035s-0.645-0.437-1.104-0.437c-1.196,0-2.047,1.126-2.047,2.322
		c0,0.828,0.598,1.472,1.494,1.472C664.458,96.697,665.309,95.57,665.309,94.375z"/>
	<path fill="#B9C2AC" d="M676.649,94.029h-4.737l1.219-4.553h14.854l-1.219,4.553h-4.736l-3.104,11.544h-5.381L676.649,94.029z"/>
	<path fill="#B9C2AC" d="M689.161,89.477h5.381l-1.541,5.68h4.921l1.541-5.68h5.381l-4.323,16.097h-5.381l1.54-5.771h-4.921
		l-1.54,5.771h-5.381L689.161,89.477z"/>
	<path fill="#B9C2AC" d="M516.801,117.915h-7.129l1.196-4.438h13.199l-1.104,4.047l-9.542,12.05h-6.048L516.801,117.915z"/>
	<path fill="#B9C2AC" d="M521.563,127.319c0-1.563,1.426-2.989,3.035-2.989c1.472,0,2.507,1.058,2.507,2.529
		c0,1.564-1.402,2.99-3.035,2.99C522.621,129.85,521.563,128.814,521.563,127.319z M523.61,119.708c0-1.563,1.402-2.989,3.035-2.989
		c1.448,0,2.483,1.058,2.483,2.529c0,1.564-1.402,2.99-3.035,2.99C524.645,122.238,523.61,121.203,523.61,119.708z"/>
	<path fill="#B9C2AC" d="M529.384,123.571c0-5.519,3.84-10.439,9.175-10.439c4.254,0,6.622,2.967,6.622,6.369
		c0,5.52-3.84,10.44-9.175,10.44C531.752,129.941,529.384,126.975,529.384,123.571z M539.777,119.984
		c0-1.518-0.759-2.185-1.701-2.185c-2.07,0-3.289,3.013-3.289,5.289c0,1.518,0.759,2.185,1.702,2.185
		C538.559,125.273,539.777,122.261,539.777,119.984z"/>
	<path fill="#B9C2AC" d="M545.989,123.571c0-5.519,3.84-10.439,9.175-10.439c4.254,0,6.622,2.967,6.622,6.369
		c0,5.52-3.84,10.44-9.175,10.44C548.357,129.941,545.989,126.975,545.989,123.571z M556.383,119.984
		c0-1.518-0.759-2.185-1.701-2.185c-2.07,0-3.289,3.013-3.289,5.289c0,1.518,0.759,2.185,1.702,2.185
		C555.164,125.273,556.383,122.261,556.383,119.984z"/>
	<path fill="#B9C2AC" d="M569.908,113.477h5.403c2.967,0,4.783,0.575,5.979,1.771c0.852,0.852,1.265,1.978,1.265,3.242
		c0,4.024-3.035,6.715-8.14,6.715h-2.276l-1.173,4.369h-5.381L569.908,113.477z M574.139,121.364c2.047,0,2.989-0.92,2.989-2.139
		c0-0.345-0.138-0.69-0.391-0.943c-0.368-0.367-1.012-0.506-1.609-0.506h-1.012l-0.943,3.588H574.139z"/>
	<path fill="#B9C2AC" d="M585.203,113.477h5.312l1.932,5.657l4.967-5.657h5.91L599,129.573h-5.358l2.139-7.979l-5.242,5.726h-0.093
		l-2.161-5.726l-2.139,7.979h-5.266L585.203,113.477z"/>
</g>
<line fill="none" stroke="#000000" stroke-width="0.5901" x1="0.95" y1="38.931" x2="771.534" y2="38.931"/>
<line fill="none" stroke="#000000" stroke-width="0.5901" x1="0.95" y1="155.535" x2="771.534" y2="155.535"/>
<line fill="none" stroke="#000000" stroke-width="2.5" x1="0.95" y1="33.715" x2="771.534" y2="33.715"/>
<line fill="none" stroke="#000000" stroke-width="2.5" x1="0.95" y1="160.193" x2="771.534" y2="160.193"/>
<g>
	<g>
		<g>
			<path d="M60.56,110.263v3.654h-0.393l-0.73-0.855c-0.802,0.694-1.996,1.016-3.048,1.016c-3.137,0-5.507-3.19-5.507-6.148
				c0-2.317,1.229-4.51,3.226-5.703c0.713-0.41,1.604-0.589,2.424-0.589c0.998,0,1.979,0.285,2.763,0.927l0.713-0.748h0.392v3.439
				h-0.517c-0.267-1.942-1.622-3.172-3.368-3.172c-1.141,0-1.729,0.249-2.353,1.211c-0.838,1.283-0.659,3.352-0.659,4.795
				c0,1.016-0.036,2.406,0.303,3.564c0.339,1.141,1.176,1.906,2.531,1.979c2.191,0.106,3.207-1.444,3.725-3.369H60.56z"/>
			<path d="M65.118,105.785v3.582c1.198,0,1.835-0.188,1.896-1.522h0.35v3.482h-0.35c-0.112-1.386-0.549-1.686-1.896-1.648v3.819
				h1.772c1.622,0,1.972-0.961,2.233-2.371h0.362l-0.112,2.684h-7.102v-0.312h1.248v-7.713h-1.248v-0.312h6.902l0.074,2.247h-0.35
				c-0.262-1.198-0.736-1.66-1.373-1.835c-0.312-0.088-0.674-0.1-1.085-0.1H65.118z"/>
			<path d="M70.459,113.81v-0.312h1.235v-7.713h-1.235v-0.312h4.132v0.312h-1.299v7.713h1.636c1.585,0,2.146-1.061,2.196-2.496
				h0.387l-0.124,2.809H70.459z"/>
			<path d="M81.068,105.785v3.582c1.198,0,1.835-0.188,1.896-1.522h0.35v3.482h-0.35c-0.112-1.386-0.549-1.686-1.896-1.648v3.819
				h1.772c1.622,0,1.972-0.961,2.233-2.371h0.362l-0.112,2.684h-7.102v-0.312h1.248v-7.713h-1.248v-0.312h6.902l0.074,2.247h-0.35
				c-0.262-1.198-0.736-1.66-1.373-1.835c-0.312-0.088-0.674-0.1-1.086-0.1H81.068z"/>
			<path d="M86.322,113.81v-0.312h1.235v-7.713h-1.235v-0.312h3.831c1.373,0,3.346,0.212,3.346,2.01
				c0,1.273-1.311,1.822-2.384,1.984v0.025c1.223,0.087,2.671,0.724,2.671,2.146c0,1.099-0.762,1.686-1.636,1.973
				c-0.911,0.299-2.071,0.199-2.945,0.199H86.322z M89.155,109.341h1.11c0.949,0,1.535-0.437,1.535-1.859
				c0-2.01-1.098-1.66-2.646-1.697V109.341z M89.155,113.498h1.572c1.086,0,1.273-1.048,1.273-1.922c0-1.173-0.387-1.909-1.66-1.922
				h-1.186V113.498z"/>
			<path d="M97.842,113.498h1.236v0.312h-4.069v-0.312h1.235v-7.713h-1.235v-0.312h4.182c1.36,0,2.983,0.162,2.983,1.897
				c0,1.41-1.485,1.897-2.646,2.021v0.025c1.947,0.3,2.384,1.348,2.384,3.383c0,0.437,0.038,0.936,1.236,0.711v0.3
				c-0.35,0.087-0.699,0.149-1.062,0.149c-1.261,0-1.922-0.636-1.922-1.909c0-1.036-0.175-1.81-0.499-2.085
				c-0.35-0.299-0.749-0.449-1.137-0.449h-0.687V113.498z M97.842,109.205h1.024c1.123,0,1.585-0.537,1.585-1.66
				c0-1.398-0.412-1.76-1.523-1.76h-1.086V109.205z"/>
			<path d="M103.483,113.81v-0.312h1.011l2.983-8.213h0.424l2.858,8.213h0.999v0.312h-3.957v-0.312h1.298l-0.762-2.209h-2.695
				l-0.774,2.209h1.273v0.312H103.483z M105.779,110.977h2.435l-1.174-3.482L105.779,110.977z"/>
			<path d="M113.156,113.81v-0.312h1.311v-7.713c-1.76-0.088-2.297,0.761-2.521,2.358h-0.399l0.138-2.671h7.151l0.138,2.671h-0.387
				c-0.225-1.598-0.762-2.446-2.521-2.358v7.713h1.311v0.312H113.156z"/>
			<path d="M122.692,105.785v3.582c1.198,0,1.835-0.188,1.896-1.522h0.35v3.482h-0.35c-0.112-1.386-0.549-1.686-1.896-1.648v3.819
				h1.772c1.622,0,1.972-0.961,2.233-2.371h0.362l-0.112,2.684h-7.102v-0.312h1.248v-7.713h-1.248v-0.312h6.902l0.074,2.247h-0.35
				c-0.262-1.198-0.736-1.66-1.373-1.835c-0.312-0.088-0.674-0.1-1.085-0.1H122.692z"/>
			<path d="M142.808,110.263v3.654h-0.393l-0.73-0.855c-0.802,0.694-1.996,1.016-3.048,1.016c-3.137,0-5.507-3.19-5.507-6.148
				c0-2.317,1.229-4.51,3.226-5.703c0.713-0.41,1.604-0.589,2.424-0.589c0.998,0,1.979,0.285,2.763,0.927l0.713-0.748h0.392v3.439
				h-0.517c-0.267-1.942-1.622-3.172-3.368-3.172c-1.141,0-1.729,0.249-2.353,1.211c-0.838,1.283-0.659,3.352-0.659,4.795
				c0,1.016-0.036,2.406,0.303,3.564c0.339,1.141,1.176,1.906,2.531,1.979c2.191,0.106,3.207-1.444,3.725-3.369H142.808z"/>
			<path d="M147.291,109.678v3.819h1.235v0.312h-4.068v-0.312h1.235v-7.713h-1.235v-0.312h4.068v0.312h-1.235v3.582h3.32v-3.582
				h-1.236v-0.312h4.069v0.312h-1.235v7.713h1.235v0.312h-4.069v-0.312h1.236v-3.819H147.291z"/>
			<path d="M157.201,113.498h1.235v0.312h-4.069v-0.312h1.236v-7.713h-1.236v-0.312h4.182c1.36,0,2.983,0.162,2.983,1.897
				c0,1.41-1.485,1.897-2.646,2.021v0.025c1.947,0.3,2.384,1.348,2.384,3.383c0,0.437,0.038,0.936,1.236,0.711v0.3
				c-0.35,0.087-0.699,0.149-1.062,0.149c-1.261,0-1.922-0.636-1.922-1.909c0-1.036-0.175-1.81-0.499-2.085
				c-0.35-0.299-0.749-0.449-1.137-0.449h-0.686V113.498z M157.201,109.205h1.023c1.123,0,1.585-0.537,1.585-1.66
				c0-1.398-0.412-1.76-1.523-1.76h-1.085V109.205z"/>
			<path d="M166.038,113.498h1.235v0.312h-4.069v-0.312h1.236v-7.713h-1.236v-0.312h4.069v0.312h-1.235V113.498z"/>
			<path d="M168.745,113.885h-0.212v-2.484h0.362c0.262,1.186,0.974,2.284,2.296,2.284c0.986,0,1.86-0.724,1.86-1.747
				c0-1.161-1.036-1.386-1.973-1.71c-0.249-0.088-0.499-0.175-0.749-0.25c-1.16-0.35-1.734-1.223-1.734-2.409
				c0-1.311,0.974-2.284,2.271-2.284c0.724,0,1.248,0.175,1.822,0.624l0.475-0.499h0.225v2.359h-0.399
				c-0.138-1.186-0.911-2.172-2.159-2.172c-0.799,0-1.548,0.587-1.548,1.423c0,0.961,0.661,1.061,1.436,1.273
				c0.312,0.087,0.562,0.175,0.773,0.237c0.25,0.074,0.562,0.162,0.824,0.287c1.048,0.499,1.423,1.322,1.423,2.446
				c0,1.572-1.023,2.733-2.634,2.733c-0.587,0-1.336-0.237-1.772-0.637L168.745,113.885z"/>
			<path d="M176.671,113.81v-0.312h1.311v-7.713c-1.76-0.088-2.297,0.761-2.521,2.358h-0.399l0.138-2.671h7.151l0.138,2.671h-0.387
				c-0.225-1.598-0.762-2.446-2.521-2.358v7.713h1.311v0.312H176.671z"/>
			<path d="M191.86,113.498h1.235v0.312h-4.069v-0.312h1.236v-7.501h-0.038l-2.496,7.813h-0.425l-2.483-7.813h-0.025v7.501h1.211
				v0.312h-2.846v-0.312h1.235v-7.713h-1.235v-0.312h3.221l1.747,5.704l1.81-5.704h3.158v0.312h-1.235V113.498z"/>
			<path d="M193.357,113.81v-0.312h1.011l2.983-8.213h0.424l2.858,8.213h0.999v0.312h-3.957v-0.312h1.298l-0.762-2.209h-2.695
				l-0.774,2.209h1.273v0.312H193.357z M195.653,110.977h2.435l-1.174-3.482L195.653,110.977z"/>
			<path d="M202.73,113.885h-0.212v-2.484h0.362c0.262,1.186,0.973,2.284,2.296,2.284c0.986,0,1.86-0.724,1.86-1.747
				c0-1.161-1.036-1.386-1.973-1.71c-0.249-0.088-0.499-0.175-0.749-0.25c-1.16-0.35-1.734-1.223-1.734-2.409
				c0-1.311,0.974-2.284,2.271-2.284c0.724,0,1.248,0.175,1.822,0.624l0.475-0.499h0.225v2.359h-0.399
				c-0.138-1.186-0.911-2.172-2.159-2.172c-0.799,0-1.548,0.587-1.548,1.423c0,0.961,0.661,1.061,1.436,1.273
				c0.312,0.087,0.562,0.175,0.773,0.237c0.25,0.074,0.562,0.162,0.824,0.287c1.048,0.499,1.423,1.322,1.423,2.446
				c0,1.572-1.023,2.733-2.634,2.733c-0.587,0-1.336-0.237-1.772-0.637L202.73,113.885z"/>
			<path d="M217.723,102.35v5.115c1.711,0,2.62-0.268,2.709-2.175h0.5v4.973h-0.5c-0.16-1.979-0.783-2.406-2.709-2.353v5.454h2.531
				c2.316,0,2.816-1.373,3.19-3.387h0.517l-0.16,3.832H213.66v-0.445h1.781V102.35h-1.781v-0.445h9.855l0.106,3.208h-0.499
				c-0.374-1.711-1.051-2.37-1.96-2.62c-0.446-0.124-0.963-0.143-1.551-0.143H217.723z"/>
			<path d="M229.327,113.998h-0.374l-2.983-8.213h-1.023v-0.312h3.957v0.312h-1.286l2.122,5.841l2.109-5.841h-1.298v-0.312h2.708
				v0.312h-1.036L229.327,113.998z"/>
			<path d="M236.541,105.785v3.582c1.198,0,1.835-0.188,1.896-1.522h0.35v3.482h-0.35c-0.112-1.386-0.549-1.686-1.896-1.648v3.819
				h1.772c1.622,0,1.972-0.961,2.233-2.371h0.362l-0.112,2.684h-7.102v-0.312h1.248v-7.713h-1.248v-0.312h6.902l0.074,2.247h-0.35
				c-0.262-1.198-0.736-1.66-1.373-1.835c-0.312-0.088-0.674-0.1-1.086-0.1H236.541z"/>
			<path d="M252.253,107.593h1.555l-1.042,4.15c-0.144,0.561-0.272,0.977-0.272,1.233c0,0.208,0.097,0.368,0.32,0.368
				c0.513,0,1.25-1.33,1.442-1.762l0.32,0.111c-0.368,1.042-1.266,2.355-2.499,2.355c-0.673,0-1.138-0.496-1.202-1.153
				c-0.496,0.753-1.169,1.153-2.083,1.153c-1.313,0-2.146-0.978-2.146-2.676c0-1.811,1.778-4.005,3.669-4.005
				c0.833,0,1.41,0.641,1.538,1.426h0.032L252.253,107.593z M249.145,113.65c0.289,0,0.545-0.16,0.802-0.288
				c1.058-0.529,1.666-3.061,1.666-4.118c0-0.656-0.368-1.474-1.105-1.474c-0.721,0-1.153,0.272-1.826,2.771
				C247.863,113.57,248.536,113.65,249.145,113.65z"/>
			<path d="M261.651,103.38h-1.281l0.112-0.401l2.979-0.111l-2.099,9.34c-0.208,0.93-0.192,1.154,0.192,1.154
				c0.673,0,1.394-1.347,1.57-1.891l0.384,0.08c-0.416,1.138-1.281,2.499-2.644,2.499c-0.929,0-1.474-0.433-1.138-1.938
				L261.651,103.38z"/>
			<path d="M263.909,107.866l0.111-0.4h1.475c0.496,0,0.978-0.063,1.474-0.063l-1.073,4.613c-0.08,0.337-0.225,0.802-0.225,0.978
				c0,0.24,0.129,0.353,0.353,0.353c0.689,0,1.234-1.266,1.538-1.778l0.353,0.128c-0.305,0.625-0.641,1.218-1.105,1.73
				c-0.385,0.417-0.993,0.689-1.554,0.625c-0.642-0.08-1.154-0.368-1.154-1.105c0-0.145,0.032-0.545,0.129-0.961l0.945-4.118
				H263.909z M266.584,105.207c-0.496,0-0.913-0.433-0.913-0.93c0-0.48,0.449-0.913,0.913-0.913c0.465,0,0.93,0.417,0.93,0.913
				C267.514,104.79,267.081,105.207,266.584,105.207z"/>
			<path d="M271.565,107.61h1.361l-0.111,0.496h-1.347l-0.945,3.958c-0.111,0.48-0.208,0.945-0.208,1.105
				c0,0.224,0.16,0.336,0.368,0.336c0.625,0,1.298-1.298,1.522-1.811l0.353,0.08c-0.657,1.779-1.634,2.275-2.548,2.275
				c-0.608,0-1.249-0.305-1.249-0.993c0-0.145,0.096-0.673,0.224-1.218l0.834-3.733h-1.154l0.112-0.496h1.17l0.385-1.57
				c0.561-0.016,1.121-0.112,1.666-0.257L271.565,107.61z"/>
			<path d="M276.897,107.61h1.361l-0.111,0.496h-1.347l-0.945,3.958c-0.111,0.48-0.208,0.945-0.208,1.105
				c0,0.224,0.16,0.336,0.368,0.336c0.625,0,1.298-1.298,1.522-1.811l0.353,0.08c-0.657,1.779-1.634,2.275-2.548,2.275
				c-0.608,0-1.249-0.305-1.249-0.993c0-0.145,0.096-0.673,0.224-1.218l0.834-3.733h-1.154l0.112-0.496h1.17l0.385-1.57
				c0.561-0.016,1.121-0.112,1.666-0.257L276.897,107.61z"/>
			<path d="M281.221,103.38h-1.281l0.112-0.401l2.979-0.111l-2.099,9.34c-0.208,0.93-0.192,1.154,0.192,1.154
				c0.673,0,1.394-1.347,1.57-1.891l0.384,0.08c-0.416,1.138-1.281,2.499-2.644,2.499c-0.929,0-1.474-0.433-1.137-1.938
				L281.221,103.38z"/>
			<path d="M289.326,112.192c-0.753,1.313-1.795,1.858-3.284,1.858c-1.378,0-2.644-1.186-2.644-2.596
				c0-2.051,1.874-4.085,3.973-4.085c1.074,0,2.195,0.528,2.195,1.762c0,0.817-0.545,1.282-1.201,1.65
				c-0.433,0.24-0.914,0.337-1.891,0.337h-1.186c-0.177,0.433-0.225,0.896-0.225,1.394c0,0.753,0.625,1.138,1.33,1.138
				c1.137,0,2.034-0.673,2.595-1.618L289.326,112.192z M285.962,110.718c1.297,0,2.194-0.481,2.194-1.907
				c0-0.576-0.256-1.041-0.865-1.041c-1.394,0-1.57,1.971-1.922,2.948H285.962z"/>
			<path d="M300.439,112.192c-0.753,1.313-1.795,1.858-3.284,1.858c-1.378,0-2.644-1.186-2.644-2.596
				c0-2.051,1.874-4.085,3.973-4.085c1.074,0,2.195,0.528,2.195,1.762c0,0.817-0.545,1.282-1.201,1.65
				c-0.433,0.24-0.914,0.337-1.891,0.337h-1.186c-0.177,0.433-0.225,0.896-0.225,1.394c0,0.753,0.625,1.138,1.33,1.138
				c1.137,0,2.034-0.673,2.595-1.618L300.439,112.192z M297.075,110.718c1.297,0,2.194-0.481,2.194-1.907
				c0-0.576-0.256-1.041-0.865-1.041c-1.394,0-1.57,1.971-1.922,2.948H297.075z"/>
			<path d="M307.405,107.593h1.555l-1.042,4.15c-0.144,0.561-0.272,0.977-0.272,1.233c0,0.208,0.097,0.368,0.32,0.368
				c0.513,0,1.25-1.33,1.442-1.762l0.32,0.111c-0.368,1.042-1.266,2.355-2.499,2.355c-0.673,0-1.138-0.496-1.202-1.153
				c-0.496,0.753-1.169,1.153-2.083,1.153c-1.313,0-2.146-0.978-2.146-2.676c0-1.811,1.778-4.005,3.669-4.005
				c0.833,0,1.41,0.641,1.538,1.426h0.032L307.405,107.593z M304.297,113.65c0.289,0,0.545-0.16,0.802-0.288
				c1.058-0.529,1.666-3.061,1.666-4.118c0-0.656-0.368-1.474-1.105-1.474c-0.721,0-1.153,0.272-1.826,2.771
				C303.016,113.57,303.688,113.65,304.297,113.65z"/>
			<path d="M313.665,108.875l0.032,0.032c0.528-0.689,1.41-1.538,2.355-1.538c0.576,0,1.041,0.304,1.041,0.929
				c0,0.48-0.353,0.785-0.817,0.785c-0.4,0-0.561-0.208-0.688-0.416c-0.128-0.209-0.208-0.417-0.448-0.417
				c-0.513,0-1.138,0.961-1.378,1.346s-0.401,1.01-0.497,1.442l-0.641,2.771h-1.65l1.266-5.944h-1.266l0.112-0.4h1.474
				c0.497,0,0.978-0.063,1.475-0.063L313.665,108.875z"/>
			<path d="M319.91,103.38h-1.281l0.112-0.401l2.979-0.111l-2.099,9.34c-0.208,0.93-0.192,1.154,0.192,1.154
				c0.673,0,1.394-1.347,1.57-1.891l0.384,0.08c-0.416,1.138-1.281,2.499-2.644,2.499c-0.929,0-1.474-0.433-1.137-1.938
				L319.91,103.38z"/>
			<path d="M326.381,112.112l0.93-2.659c0.24-0.689,0.497-2.083,1.394-2.083c0.401,0,0.802,0.32,0.802,0.753
				c0,0.4-0.272,0.753-0.689,0.753c-0.112,0-0.225-0.048-0.336-0.08c-0.097-0.048-0.209-0.097-0.337-0.08
				c-0.145,0.016-0.16,0.112-0.192,0.192l-1.41,3.797c-0.368,1.01-0.688,1.826-1.249,2.756c-1.09,1.811-1.683,2.019-2.339,2.099
				c-0.465,0.064-1.122-0.32-1.122-0.849c0-0.353,0.305-0.754,0.689-0.754c0.544,0,0.688,0.497,0.656,0.705
				c-0.016,0.16,0.097,0.225,0.192,0.225c0.577,0,1.938-2.035,1.938-2.708c0-0.208-0.16-0.721-0.224-0.929l-1.298-4.086
				c-0.032-0.112-0.16-0.785-0.433-0.688c-0.257,0.096-0.433,0.384-0.962,1.57l-0.353-0.129c0.385-0.849,0.962-2.451,2.115-2.451
				c0.897,0,1.073,0.657,1.281,1.378L326.381,112.112z"/>
			<path d="M336.598,112.88c-0.112,0.465,0.16,0.609,0.336,0.609c0.978,0,1.939-2.035,2.212-2.82l1.009-2.947h1.522l-0.562,2.451
				c-0.128,0.593-0.32,1.714-0.32,2.291c0,0.513,0.08,0.993,0.722,0.993c1.266,0,2.659-2.948,2.579-4.342
				c-0.016-0.272-0.272-0.24-0.48-0.24c-0.417-0.017-0.753-0.305-0.753-0.737c0-0.465,0.32-0.769,0.801-0.769
				c0.753,0,0.93,0.721,0.93,1.346c0,1.746-1.33,5.335-3.493,5.335c-1.394,0-1.683-0.833-1.683-2.035
				c0-0.528,0.192-1.105,0.241-1.586l-0.032-0.032c-0.497,1.41-1.362,3.653-3.221,3.653c-0.721,0-1.346-0.32-1.346-1.105
				c0-0.465,0.145-0.913,0.256-1.378l0.513-2.243c0.16-0.705,0.257-1.105-0.128-1.138c-0.48,0-1.218,1.347-1.441,1.715l-0.337-0.128
				c0.513-0.914,1.298-2.308,2.516-2.308c0.737,0,1.153,0.465,1.153,1.17c0,0.448-0.145,0.881-0.256,1.329L336.598,112.88z"/>
			<path d="M345.74,107.866l0.111-0.4h1.475c0.496,0,0.978-0.063,1.474-0.063l-1.073,4.613c-0.08,0.337-0.225,0.802-0.225,0.978
				c0,0.24,0.129,0.353,0.353,0.353c0.689,0,1.233-1.266,1.538-1.778l0.353,0.128c-0.305,0.625-0.641,1.218-1.105,1.73
				c-0.385,0.417-0.993,0.689-1.554,0.625c-0.642-0.08-1.154-0.368-1.154-1.105c0-0.145,0.032-0.545,0.129-0.961l0.945-4.118H345.74
				z M348.415,105.207c-0.496,0-0.913-0.433-0.913-0.93c0-0.48,0.449-0.913,0.913-0.913c0.465,0,0.93,0.417,0.93,0.913
				C349.345,104.79,348.912,105.207,348.415,105.207z"/>
			<path d="M353.396,107.61h1.361l-0.111,0.496H353.3l-0.945,3.958c-0.111,0.48-0.208,0.945-0.208,1.105
				c0,0.224,0.16,0.336,0.369,0.336c0.624,0,1.297-1.298,1.521-1.811l0.353,0.08c-0.657,1.779-1.634,2.275-2.548,2.275
				c-0.608,0-1.249-0.305-1.249-0.993c0-0.145,0.096-0.673,0.224-1.218l0.834-3.733h-1.154l0.112-0.496h1.17l0.385-1.57
				c0.561-0.016,1.121-0.112,1.666-0.257L353.396,107.61z"/>
			<path d="M357.848,103.38h-1.281l0.112-0.401l2.979-0.111l-1.378,6.056c0.754-0.801,1.538-1.554,2.708-1.554
				c0.785,0,1.458,0.416,1.458,1.281c0,0.225-0.08,0.673-0.192,1.122l-0.561,2.242c-0.112,0.449-0.208,0.882-0.208,0.945
				c0,0.192,0.112,0.305,0.304,0.305c0.642,0,1.282-1.218,1.507-1.746l0.353,0.112c-0.177,0.465-0.417,0.897-0.722,1.281
				c-0.433,0.545-1.249,1.138-1.874,1.138c-0.545,0-1.218-0.256-1.218-0.929c0-0.192,0.08-0.657,0.192-1.138l0.561-2.34
				c0.288-1.201,0.32-1.602-0.497-1.602c-0.433,0-1.057,0.561-1.329,0.865c-0.385,0.433-0.705,1.009-0.833,1.554l-0.802,3.349h-1.65
				L357.848,103.38z"/>
			<path d="M52.166,122.108h4.774c1.763,0,3.477,0.593,3.477,2.675c0,1.763-1.538,3.093-5.047,3.093h-0.929l-0.945,4.534h1.49
				l-0.064,0.4H50.5l0.063-0.4h0.962l2.051-9.901h-1.49L52.166,122.108z M54.537,127.475h0.753c1.715,0,2.724-0.225,3.028-3.173
				c0.145-1.409-0.416-1.794-1.201-1.794h-1.538L54.537,127.475z"/>
			<path d="M67.126,127.01c0.593,0.545,0.944,1.201,0.944,2.019c0,2.067-1.938,4.021-4.005,4.021c-0.32,0-0.641-0.048-0.961-0.128
				c-1.218-0.288-1.907-1.362-1.907-2.676c0-1.17,0.802-2.243,1.603-2.98c0.545-0.496,1.266-0.896,2.323-0.896
				C65.812,126.37,66.597,126.545,67.126,127.01z M63.537,128.148c-0.225,0.721-0.609,2.436-0.609,3.188
				c0,0.849,0.177,1.313,1.122,1.313c0.271,0,0.576-0.064,0.833-0.16c0.673-0.257,0.993-1.891,1.153-2.483
				c0.128-0.513,0.305-1.618,0.305-2.099c0-0.833-0.449-1.138-1.218-1.138C64.226,126.77,63.793,127.363,63.537,128.148z"/>
			<path d="M72.2,127.875l0.032,0.032c0.528-0.689,1.41-1.538,2.355-1.538c0.576,0,1.041,0.304,1.041,0.929
				c0,0.48-0.353,0.785-0.817,0.785c-0.4,0-0.561-0.208-0.688-0.416c-0.128-0.209-0.208-0.417-0.448-0.417
				c-0.513,0-1.138,0.961-1.378,1.346s-0.401,1.01-0.497,1.442l-0.641,2.771h-1.65l1.266-5.944h-1.266l0.112-0.4h1.474
				c0.497,0,0.978-0.063,1.475-0.063L72.2,127.875z"/>
			<path d="M79.455,126.61h1.361l-0.111,0.496h-1.347l-0.945,3.958c-0.111,0.48-0.208,0.945-0.208,1.105
				c0,0.224,0.16,0.336,0.369,0.336c0.624,0,1.297-1.298,1.521-1.811l0.353,0.08c-0.657,1.779-1.634,2.275-2.548,2.275
				c-0.608,0-1.249-0.305-1.249-0.993c0-0.145,0.096-0.673,0.224-1.218l0.834-3.733h-1.154l0.112-0.496h1.17l0.385-1.57
				c0.561-0.016,1.121-0.112,1.666-0.257L79.455,126.61z"/>
			<path d="M87.286,126.593h1.555l-1.042,4.15c-0.144,0.561-0.272,0.977-0.272,1.233c0,0.208,0.097,0.368,0.32,0.368
				c0.513,0,1.25-1.33,1.442-1.762l0.32,0.111c-0.368,1.042-1.266,2.355-2.499,2.355c-0.673,0-1.138-0.496-1.202-1.153
				c-0.496,0.753-1.169,1.153-2.083,1.153c-1.313,0-2.146-0.978-2.146-2.676c0-1.811,1.778-4.005,3.669-4.005
				c0.833,0,1.41,0.641,1.538,1.426h0.032L87.286,126.593z M84.178,132.65c0.289,0,0.545-0.16,0.802-0.288
				c1.058-0.529,1.666-3.061,1.666-4.118c0-0.656-0.368-1.474-1.105-1.474c-0.721,0-1.153,0.272-1.826,2.771
				C82.896,132.57,83.569,132.65,84.178,132.65z"/>
			<path d="M92.426,125.665c0.736-0.369,2.066-1.153,2.066-2.115c0-0.128,0-0.353-0.16-0.368c-0.112-0.017-0.192,0.16-0.336,0.336
				c-0.145,0.177-0.369,0.369-0.754,0.369c-0.496,0-0.833-0.465-0.833-0.93c0-0.641,0.513-1.089,1.138-1.089
				c0.897,0,1.458,0.656,1.458,1.538c0,1.346-1.361,2.179-2.451,2.659L92.426,125.665z"/>
			<path d="M95.487,133.05c-0.93,0-2.147-0.336-2.147-1.49c0-0.433,0.369-0.753,0.77-0.753c0.433,0,0.705,0.32,0.705,0.753
				c0,0.272-0.305,0.529-0.305,0.673c0,0.337,0.737,0.465,0.978,0.417c0.641,0,1.458-0.225,1.458-0.993
				c0-1.25-2.708-1.747-2.708-3.285c0-1.281,1.153-2.002,2.308-2.002c1.009,0,1.842,0.513,1.842,1.073
				c0,0.496-0.24,0.785-0.736,0.785c-0.305,0-0.609-0.272-0.609-0.577c0-0.24,0.16-0.368,0.208-0.593
				c-0.016-0.288-0.496-0.288-0.704-0.288c-0.449,0-1.122,0.192-1.122,0.753c0,1.09,2.691,1.378,2.691,3.396
				C98.114,132.33,96.736,133.05,95.487,133.05z"/>
			<path d="M106.906,126.61h1.361l-0.111,0.496h-1.347l-0.945,3.958c-0.111,0.48-0.208,0.945-0.208,1.105
				c0,0.224,0.16,0.336,0.369,0.336c0.624,0,1.297-1.298,1.521-1.811l0.353,0.08c-0.657,1.779-1.634,2.275-2.548,2.275
				c-0.608,0-1.249-0.305-1.249-0.993c0-0.145,0.096-0.673,0.224-1.218l0.834-3.733h-1.154l0.112-0.496h1.17l0.385-1.57
				c0.561-0.016,1.121-0.112,1.666-0.257L106.906,126.61z"/>
			<path d="M114.737,126.593h1.555l-1.042,4.15c-0.144,0.561-0.272,0.977-0.272,1.233c0,0.208,0.097,0.368,0.32,0.368
				c0.513,0,1.25-1.33,1.442-1.762l0.32,0.111c-0.368,1.042-1.266,2.355-2.499,2.355c-0.673,0-1.138-0.496-1.202-1.153
				c-0.496,0.753-1.169,1.153-2.083,1.153c-1.313,0-2.146-0.978-2.146-2.676c0-1.811,1.778-4.005,3.669-4.005
				c0.833,0,1.41,0.641,1.538,1.426h0.032L114.737,126.593z M111.629,132.65c0.289,0,0.545-0.16,0.802-0.288
				c1.058-0.529,1.666-3.061,1.666-4.118c0-0.656-0.368-1.474-1.105-1.474c-0.721,0-1.153,0.272-1.826,2.771
				C110.348,132.57,111.021,132.65,111.629,132.65z"/>
			<path d="M119.604,132.81h-1.65l2.388-10.43h-1.282l0.112-0.401l2.979-0.111l-1.634,7.033c0.16-0.097,0.353-0.192,0.577-0.192
				c0.224,0,0.433,0.048,0.608,0.128c0.257,0.112,0.561-0.625,0.945-1.233c0.385-0.625,0.913-1.233,1.715-1.233
				c0.641,0,1.281,0.384,1.281,1.089c0,0.48-0.4,0.77-0.85,0.77c-0.368,0-0.736-0.225-0.736-0.625c0-0.225,0.112-0.32,0.192-0.417
				c0.096-0.096,0.192-0.16,0.144-0.304c-0.016-0.08-0.192-0.097-0.256-0.097c-0.705,0-1.475,1.538-1.778,2.051
				c0.993,0.192,1.346,0.722,1.346,1.698c0,0.465-0.112,0.913-0.112,1.378c0,0.24,0.208,0.305,0.4,0.305
				c0.337,0,1.282-1.378,1.475-1.714l0.256,0.144c-0.577,1.042-1.281,2.291-2.628,2.291c-0.673,0-1.217-0.384-1.217-1.089
				c0-0.785,0.496-1.57,0.496-2.211c0-0.209-0.032-0.497-0.305-0.497c-0.063,0-0.16,0.08-0.336,0.176
				c-0.177,0.097-0.433,0.192-0.785,0.192c-0.192,0-0.368-0.031-0.545-0.112L119.604,132.81z"/>
			<path d="M132.69,131.192c-0.753,1.313-1.795,1.858-3.284,1.858c-1.378,0-2.644-1.186-2.644-2.596
				c0-2.051,1.874-4.085,3.973-4.085c1.074,0,2.195,0.528,2.195,1.762c0,0.817-0.545,1.282-1.202,1.65
				c-0.432,0.24-0.913,0.337-1.89,0.337h-1.187c-0.176,0.433-0.224,0.896-0.224,1.394c0,0.753,0.625,1.138,1.33,1.138
				c1.137,0,2.034-0.673,2.595-1.618L132.69,131.192z M129.326,129.718c1.297,0,2.194-0.481,2.194-1.907
				c0-0.576-0.256-1.041-0.865-1.041c-1.394,0-1.57,1.971-1.922,2.948H129.326z"/>
			<path d="M143.948,127.01c0.593,0.545,0.944,1.201,0.944,2.019c0,2.067-1.938,4.021-4.005,4.021c-0.32,0-0.641-0.048-0.961-0.128
				c-1.218-0.288-1.907-1.362-1.907-2.676c0-1.17,0.802-2.243,1.603-2.98c0.545-0.496,1.266-0.896,2.323-0.896
				C142.634,126.37,143.419,126.545,143.948,127.01z M140.359,128.148c-0.225,0.721-0.609,2.436-0.609,3.188
				c0,0.849,0.177,1.313,1.122,1.313c0.271,0,0.576-0.064,0.833-0.16c0.673-0.257,0.993-1.891,1.153-2.483
				c0.128-0.513,0.305-1.618,0.305-2.099c0-0.833-0.449-1.138-1.218-1.138C141.048,126.77,140.615,127.363,140.359,128.148z"/>
			<path d="M148.862,127.971l0.032,0.032c0.657-0.865,1.554-1.634,2.708-1.634c0.769,0,1.426,0.433,1.426,1.266
				c0,0.304-0.048,0.528-0.112,0.817l-0.85,3.492c-0.063,0.24,0.112,0.353,0.353,0.353c0.449,0,1.314-1.378,1.442-1.778l0.32,0.145
				c-0.368,0.865-0.978,1.938-1.923,2.179c-0.384,0.096-0.528,0.096-0.913,0.096c-0.496,0-1.041-0.353-1.041-0.897
				c0-0.384,0.464-1.97,0.576-2.451c0.08-0.304,0.529-1.906,0.529-2.082c0-0.369-0.353-0.497-0.657-0.497
				c-0.978,0-2.019,1.618-2.211,2.483l-0.753,3.316h-1.65l1.346-5.944h-1.266l0.112-0.4h1.474c0.497,0,0.978-0.063,1.475-0.063
				L148.862,127.971z"/>
			<path d="M162.074,126.61h1.361l-0.111,0.496h-1.347l-0.945,3.958c-0.111,0.48-0.208,0.945-0.208,1.105
				c0,0.224,0.16,0.336,0.369,0.336c0.624,0,1.297-1.298,1.521-1.811l0.353,0.08c-0.657,1.779-1.634,2.275-2.548,2.275
				c-0.608,0-1.249-0.305-1.249-0.993c0-0.145,0.096-0.673,0.224-1.218l0.834-3.733h-1.154l0.112-0.496h1.17l0.385-1.57
				c0.561-0.016,1.121-0.112,1.666-0.257L162.074,126.61z"/>
			<path d="M166.525,122.38h-1.281l0.112-0.401l2.979-0.111l-1.378,6.056c0.754-0.801,1.538-1.554,2.708-1.554
				c0.785,0,1.458,0.416,1.458,1.281c0,0.225-0.08,0.673-0.192,1.122l-0.561,2.242c-0.112,0.449-0.208,0.882-0.208,0.945
				c0,0.192,0.112,0.305,0.304,0.305c0.642,0,1.282-1.218,1.507-1.746l0.353,0.112c-0.177,0.465-0.417,0.897-0.722,1.281
				c-0.433,0.545-1.249,1.138-1.874,1.138c-0.545,0-1.218-0.256-1.218-0.929c0-0.192,0.08-0.657,0.192-1.138l0.561-2.34
				c0.288-1.201,0.32-1.602-0.497-1.602c-0.433,0-1.057,0.561-1.329,0.865c-0.385,0.433-0.705,1.009-0.833,1.554l-0.802,3.349h-1.65
				L166.525,122.38z"/>
			<path d="M178.955,131.192c-0.753,1.313-1.795,1.858-3.284,1.858c-1.378,0-2.644-1.186-2.644-2.596
				c0-2.051,1.874-4.085,3.973-4.085c1.074,0,2.195,0.528,2.195,1.762c0,0.817-0.545,1.282-1.201,1.65
				c-0.433,0.24-0.914,0.337-1.891,0.337h-1.186c-0.177,0.433-0.225,0.896-0.225,1.394c0,0.753,0.625,1.138,1.33,1.138
				c1.137,0,2.034-0.673,2.595-1.618L178.955,131.192z M175.591,129.718c1.297,0,2.194-0.481,2.194-1.907
				c0-0.576-0.256-1.041-0.865-1.041c-1.394,0-1.57,1.971-1.922,2.948H175.591z"/>
			<path d="M186.388,121.35h-1.765v-0.445h9.874l0.124,3.636h-0.48c-0.25-1.176-0.518-2.424-1.693-2.959
				c-0.393-0.178-1.105-0.231-1.836-0.231h-1.942v5.115c1.711,0,2.62-0.268,2.709-2.175h0.499v4.973h-0.499
				c-0.16-1.979-0.784-2.406-2.709-2.353v5.454h1.765v0.445h-5.811v-0.445h1.765V121.35z"/>
			<path d="M198.342,124.785v3.582c1.198,0,1.835-0.188,1.896-1.522h0.35v3.482h-0.35c-0.112-1.386-0.549-1.686-1.896-1.648v3.819
				h1.772c1.622,0,1.972-0.961,2.233-2.371h0.362l-0.112,2.684h-7.102v-0.312h1.248v-7.713h-1.248v-0.312h6.902l0.074,2.247h-0.35
				c-0.262-1.198-0.736-1.66-1.373-1.835c-0.312-0.088-0.674-0.1-1.086-0.1H198.342z"/>
			<path d="M203.421,132.81v-0.312h1.011l2.983-8.213h0.424l2.858,8.213h0.999v0.312h-3.957v-0.312h1.298l-0.762-2.209h-2.695
				l-0.774,2.209h1.273v0.312H203.421z M205.717,129.977h2.435l-1.174-3.482L205.717,129.977z"/>
			<path d="M212.794,132.885h-0.212v-2.484h0.362c0.262,1.186,0.974,2.284,2.296,2.284c0.986,0,1.86-0.724,1.86-1.747
				c0-1.161-1.036-1.386-1.973-1.71c-0.249-0.088-0.499-0.175-0.749-0.25c-1.16-0.35-1.734-1.223-1.734-2.409
				c0-1.311,0.974-2.284,2.271-2.284c0.724,0,1.248,0.175,1.822,0.624l0.475-0.499h0.225v2.359h-0.399
				c-0.138-1.186-0.911-2.172-2.159-2.172c-0.799,0-1.548,0.587-1.548,1.423c0,0.961,0.661,1.061,1.436,1.273
				c0.312,0.087,0.562,0.175,0.773,0.237c0.25,0.074,0.562,0.162,0.824,0.287c1.048,0.499,1.423,1.322,1.423,2.446
				c0,1.572-1.023,2.733-2.634,2.733c-0.587,0-1.336-0.237-1.772-0.637L212.794,132.885z"/>
			<path d="M220.72,132.81v-0.312h1.311v-7.713c-1.76-0.088-2.297,0.761-2.521,2.358h-0.399l0.138-2.671h7.151l0.138,2.671h-0.387
				c-0.225-1.598-0.762-2.446-2.521-2.358v7.713h1.311v0.312H220.72z"/>
			<path d="M232.054,128.429c0-2.06,1.811-4.145,3.895-4.145c2.085,0,3.882,2.085,3.882,4.145c0,2.284-1.41,4.568-3.882,4.568
				S232.054,130.713,232.054,128.429z M237.995,127.106c0-0.449-0.062-0.874-0.188-1.248c-0.249-0.762-0.761-1.261-1.859-1.261
				c-1.11,0-1.647,0.499-1.872,1.261c-0.112,0.374-0.188,0.799-0.188,1.248v2.721c0,0.487,0.025,0.961,0.138,1.398
				c0.225,0.861,0.749,1.46,1.922,1.46c1.186,0,1.697-0.599,1.922-1.46c0.112-0.438,0.125-0.911,0.125-1.398V127.106z"/>
			<path d="M242.001,124.785h-1.235v-0.312h6.914l0.088,2.547h-0.337c-0.175-0.824-0.362-1.698-1.187-2.072
				c-0.274-0.125-0.773-0.162-1.285-0.162h-1.36v3.582c1.198,0,1.835-0.188,1.897-1.522h0.35v3.482h-0.35
				c-0.112-1.386-0.55-1.686-1.897-1.648v3.819h1.235v0.312h-4.068v-0.312h1.235V124.785z"/>
			<path d="M254.596,132.81v-0.312h1.311v-7.713c-1.76-0.088-2.297,0.761-2.521,2.358h-0.399l0.138-2.671h7.151l0.138,2.671h-0.387
				c-0.225-1.598-0.762-2.446-2.521-2.358v7.713h1.311v0.312H254.596z"/>
			<path d="M264.056,128.678v3.819h1.235v0.312h-4.068v-0.312h1.235v-7.713h-1.235v-0.312h4.068v0.312h-1.235v3.582h3.32v-3.582
				h-1.236v-0.312h4.069v0.312h-1.235v7.713h1.235v0.312h-4.069v-0.312h1.236v-3.819H264.056z"/>
			<path d="M273.841,124.785v3.582c1.198,0,1.835-0.188,1.896-1.522h0.35v3.482h-0.35c-0.112-1.386-0.549-1.686-1.896-1.648v3.819
				h1.772c1.622,0,1.972-0.961,2.233-2.371h0.362l-0.112,2.684h-7.102v-0.312h1.248v-7.713h-1.248v-0.312h6.902l0.074,2.247h-0.35
				c-0.262-1.198-0.736-1.66-1.373-1.835c-0.312-0.088-0.674-0.1-1.085-0.1H273.841z"/>
			<path d="M284.885,132.917h-0.303v-3.547h0.518c0.374,1.693,1.39,3.262,3.279,3.262c1.407,0,2.655-1.034,2.655-2.496
				c0-1.657-1.479-1.978-2.816-2.441c-0.356-0.125-0.713-0.249-1.069-0.356c-1.657-0.499-2.477-1.746-2.477-3.439
				c0-1.871,1.39-3.262,3.243-3.262c1.034,0,1.782,0.25,2.603,0.892l0.677-0.713h0.321v3.368h-0.57
				c-0.196-1.693-1.302-3.101-3.084-3.101c-1.141,0-2.21,0.837-2.21,2.031c0,1.372,0.944,1.515,2.05,1.818
				c0.445,0.124,0.802,0.249,1.105,0.338c0.355,0.107,0.802,0.232,1.176,0.41c1.497,0.713,2.031,1.889,2.031,3.493
				c0,2.245-1.461,3.903-3.76,3.903c-0.838,0-1.907-0.339-2.531-0.909L284.885,132.917z"/>
			<path d="M296.537,124.785v3.582c1.198,0,1.835-0.188,1.896-1.522h0.35v3.482h-0.35c-0.112-1.386-0.549-1.686-1.896-1.648v3.819
				h1.772c1.622,0,1.972-0.961,2.233-2.371h0.362l-0.112,2.684h-7.102v-0.312h1.248v-7.713h-1.248v-0.312h6.902l0.074,2.247h-0.35
				c-0.262-1.198-0.736-1.66-1.373-1.835c-0.312-0.088-0.674-0.1-1.086-0.1H296.537z"/>
			<path d="M305.972,132.998h-0.374l-2.983-8.213h-1.023v-0.312h3.957v0.312h-1.286l2.122,5.841l2.109-5.841h-1.298v-0.312h2.708
				v0.312h-1.036L305.972,132.998z"/>
			<path d="M313.186,124.785v3.582c1.198,0,1.835-0.188,1.896-1.522h0.35v3.482h-0.35c-0.112-1.386-0.549-1.686-1.896-1.648v3.819
				h1.772c1.622,0,1.972-0.961,2.233-2.371h0.362l-0.112,2.684h-7.102v-0.312h1.248v-7.713h-1.248v-0.312h6.902l0.074,2.247h-0.35
				c-0.262-1.198-0.736-1.66-1.373-1.835c-0.312-0.088-0.674-0.1-1.086-0.1H313.186z"/>
			<path d="M325.767,132.972h-0.374l-5.293-7.938v7.464h1.224v0.312h-2.846v-0.312h1.223v-7.713h-1.223v-0.312h3.195l3.694,5.455
				v-5.143h-1.198v-0.312h2.846v0.312h-1.248V132.972z"/>
			<path d="M333.918,121.35h-1.765v-0.445h9.874l0.125,3.636h-0.481c-0.25-1.176-0.517-2.424-1.693-2.959
				c-0.392-0.178-1.104-0.231-1.836-0.231h-1.942v5.115c1.711,0,2.62-0.268,2.709-2.175h0.499v4.973h-0.499
				c-0.16-1.979-0.784-2.406-2.709-2.353v5.454h1.765v0.445h-5.811v-0.445h1.765V121.35z"/>
			<path d="M345.823,132.498h1.235v0.312h-4.069v-0.312h1.236v-7.713h-1.236v-0.312h4.069v0.312h-1.235V132.498z"/>
			<path d="M348.53,132.885h-0.212v-2.484h0.362c0.262,1.186,0.974,2.284,2.296,2.284c0.986,0,1.86-0.724,1.86-1.747
				c0-1.161-1.036-1.386-1.973-1.71c-0.249-0.088-0.499-0.175-0.749-0.25c-1.16-0.35-1.734-1.223-1.734-2.409
				c0-1.311,0.974-2.284,2.271-2.284c0.724,0,1.248,0.175,1.822,0.624l0.475-0.499h0.225v2.359h-0.399
				c-0.138-1.186-0.911-2.172-2.159-2.172c-0.799,0-1.548,0.587-1.548,1.423c0,0.961,0.661,1.061,1.436,1.273
				c0.312,0.087,0.562,0.175,0.773,0.237c0.25,0.074,0.562,0.162,0.824,0.287c1.048,0.499,1.423,1.322,1.423,2.446
				c0,1.572-1.023,2.733-2.634,2.733c-0.587,0-1.336-0.237-1.772-0.637L348.53,132.885z"/>
			<path d="M357.592,128.678v3.819h1.235v0.312h-4.068v-0.312h1.235v-7.713h-1.235v-0.312h4.068v0.312h-1.235v3.582h3.32v-3.582
				h-1.236v-0.312h4.069v0.312h-1.235v7.713h1.235v0.312h-4.069v-0.312h1.236v-3.819H357.592z"/>
			<path d="M367.377,124.785v3.582c1.198,0,1.835-0.188,1.896-1.522h0.35v3.482h-0.35c-0.112-1.386-0.549-1.686-1.896-1.648v3.819
				h1.772c1.622,0,1.972-0.961,2.233-2.371h0.362l-0.112,2.684h-7.102v-0.312h1.248v-7.713h-1.248v-0.312h6.902l0.074,2.247h-0.35
				c-0.262-1.198-0.736-1.66-1.373-1.835c-0.312-0.088-0.674-0.1-1.086-0.1H367.377z"/>
			<path d="M373.505,132.885h-0.212v-2.484h0.362c0.262,1.186,0.974,2.284,2.296,2.284c0.986,0,1.86-0.724,1.86-1.747
				c0-1.161-1.036-1.386-1.973-1.71c-0.249-0.088-0.499-0.175-0.749-0.25c-1.16-0.35-1.734-1.223-1.734-2.409
				c0-1.311,0.974-2.284,2.271-2.284c0.724,0,1.248,0.175,1.822,0.624l0.475-0.499h0.225v2.359h-0.399
				c-0.138-1.186-0.911-2.172-2.159-2.172c-0.799,0-1.548,0.587-1.548,1.423c0,0.961,0.661,1.061,1.436,1.273
				c0.312,0.087,0.562,0.175,0.773,0.237c0.25,0.074,0.562,0.162,0.824,0.287c1.048,0.499,1.423,1.322,1.423,2.446
				c0,1.572-1.023,2.733-2.634,2.733c-0.587,0-1.336-0.237-1.772-0.637L373.505,132.885z"/>
			<path d="M383.435,131.937c0,0.623-0.57,1.141-1.123,1.141c-0.57,0-1.158-0.518-1.158-1.141c0-0.642,0.588-1.141,1.158-1.141
				C382.864,130.796,383.435,131.295,383.435,131.937z"/>
		</g>
	</g>
</g>
<g>
	<path fill="#C4CFB6" d="M602.852,13.791h-1.354l0.061-0.372h3.465l2.871,7.097l1.443-6.725h-1.367l0.059-0.372h2.619l-0.061,0.372
		h-0.818l-2.068,9.79h-0.475l-3.973-9.745l-1.904,9.149h1.354l-0.074,0.372h-2.648l0.061-0.372h0.861L602.852,13.791z"/>
	<path fill="#C4CFB6" d="M613.742,13.791h-1.367l0.059-0.372h7.588l-0.416,2.679h-0.432c0-1.83-0.268-2.307-2.41-2.307h-1.176
		l-0.877,4.24h0.504c1.191,0,1.727-0.595,1.965-1.74h0.402l-0.85,4.105h-0.4c0.164-1.711-0.58-1.993-1.176-1.993h-0.535
		l-0.938,4.582h1.682c1.621,0,2.336-0.432,3.465-2.708h0.447l-0.744,3.08h-7.676l0.059-0.372h0.908L613.742,13.791z"/>
	<path fill="#C4CFB6" d="M622.893,13.791h-1.25l0.061-0.372h4.479l-0.061,0.372h-1.309l1.324,3.362l2.811-3.362h-1.561l0.074-0.372
		h3.064l-0.074,0.372h-0.938l-3.184,3.839l2.098,5.355h1.234l-0.059,0.372h-4.582l0.059-0.372h1.473l-1.531-3.897l-3.229,3.897
		h1.605l-0.074,0.372h-3.109l0.061-0.372h0.98l3.586-4.329L622.893,13.791z"/>
	<path fill="#C4CFB6" d="M632.164,13.419h8.197l-0.461,3.199h-0.447c0-2.381-0.477-2.827-1.637-2.827h-0.625l-1.918,9.194h1.428
		l-0.074,0.372h-4.688l0.074-0.372h1.369l1.949-9.194h-0.461c-1.234,0-1.949,0.625-2.975,2.678h-0.447L632.164,13.419z"/>
	<path fill="#C4CFB6" d="M645.748,13.419h4.076c2.842,0,4.479,1.414,4.479,4.271c0,2.931-2.352,5.668-6.07,5.668h-4.062l0.074-0.372
		h0.893l1.92-9.194h-1.383L645.748,13.419z M646.982,22.985h1.189c1.756,0,2.484-0.401,3.199-1.964
		c0.715-1.562,1.041-3.511,1.041-4.746c0-2.067-0.922-2.484-2.781-2.484h-0.715L646.982,22.985z"/>
	<path fill="#C4CFB6" d="M656.52,13.419h4.18l-0.059,0.372h-0.938l-1.904,9.194h1.324l-0.074,0.372h-4.137l0.074-0.372h0.924
		l1.947-9.194h-1.412L656.52,13.419z"/>
	<path fill="#C4CFB6" d="M663.615,13.791h-1.354l0.061-0.372h3.465l2.871,7.097l1.443-6.725h-1.367l0.059-0.372h2.619l-0.061,0.372
		h-0.818l-2.068,9.79h-0.475l-3.973-9.745l-1.904,9.149h1.354l-0.074,0.372h-2.648l0.061-0.372h0.861L663.615,13.791z"/>
	<path fill="#C4CFB6" d="M674.359,13.791h-1.354l0.059-0.372h3.467l2.871,7.097l1.443-6.725h-1.369l0.059-0.372h2.619l-0.059,0.372
		h-0.818l-2.068,9.79h-0.477l-3.973-9.745l-1.904,9.149h1.355l-0.076,0.372h-2.646l0.059-0.372h0.863L674.359,13.791z"/>
	<path fill="#C4CFB6" d="M685.25,13.791h-1.369l0.061-0.372h7.586l-0.416,2.679h-0.432c0-1.83-0.268-2.307-2.41-2.307h-1.176
		l-0.877,4.24h0.506c1.189,0,1.727-0.595,1.963-1.74h0.402l-0.848,4.105h-0.402c0.164-1.711-0.58-1.993-1.174-1.993h-0.537
		l-0.938,4.582h1.682c1.621,0,2.336-0.432,3.467-2.708h0.445l-0.742,3.08h-7.678l0.061-0.372h0.906L685.25,13.791z"/>
	<path fill="#C4CFB6" d="M695.129,22.985h1.324l-0.074,0.372h-4.062l0.074-0.372h0.895l1.889-9.194h-1.34l0.074-0.372h4.523
		c2.246,0,3.258,0.789,3.258,2.083c0,2.143-2.381,2.484-4.031,2.589v0.029c2.246,0.685,2.738,1.28,2.738,3.586
		c0,0.685-0.016,1.413,0.893,1.413c0.236,0,0.49-0.074,0.713-0.134l-0.045,0.372c-0.207,0.089-0.445,0.148-0.668,0.179
		c-0.238,0.029-0.463,0.045-0.699,0.045c-1.176,0-2.039-0.536-2.143-1.801c-0.045-0.521-0.09-1.041-0.15-1.562
		c-0.074-0.715-0.133-1.384-0.58-1.682c-0.416-0.282-0.877-0.372-1.1-0.372h-0.461L695.129,22.985z M696.23,17.793h0.58
		c1.844,0,2.93-0.64,2.93-2.633c0-0.744-0.252-1.369-1.77-1.369h-0.908L696.23,17.793z"/>
	<path fill="#C4CFB6" d="M708.371,13.419h4.434c1.637,0,3.229,0.551,3.229,2.485c0,1.636-1.428,2.871-4.688,2.871h-0.861
		l-0.879,4.21h1.385l-0.061,0.372h-4.105l0.059-0.372h0.893l1.904-9.194h-1.383L708.371,13.419z M710.572,18.403h0.699
		c1.592,0,2.529-0.208,2.812-2.945c0.133-1.31-0.387-1.667-1.115-1.667h-1.43L710.572,18.403z"/>
	<path fill="#C4CFB6" d="M721.182,13.196h0.506l0.922,9.789h1.311l-0.074,0.372h-4.508l0.074-0.372h1.354l-0.223-2.648h-3.006
		l-1.488,2.648h1.504l-0.076,0.372h-2.678l0.074-0.372h0.67L721.182,13.196z M717.789,19.966h2.709l-0.373-4.196L717.789,19.966z"/>
	<path fill="#C4CFB6" d="M727.789,22.985h1.322l-0.074,0.372h-4.061l0.074-0.372h0.893l1.889-9.194h-1.338l0.074-0.372h4.523
		c2.246,0,3.258,0.789,3.258,2.083c0,2.143-2.381,2.484-4.033,2.589v0.029c2.248,0.685,2.738,1.28,2.738,3.586
		c0,0.685-0.016,1.413,0.893,1.413c0.238,0,0.49-0.074,0.715-0.134l-0.045,0.372c-0.209,0.089-0.447,0.148-0.67,0.179
		c-0.238,0.029-0.461,0.045-0.699,0.045c-1.176,0-2.039-0.536-2.143-1.801c-0.045-0.521-0.09-1.041-0.148-1.562
		c-0.074-0.715-0.135-1.384-0.58-1.682c-0.416-0.282-0.877-0.372-1.102-0.372h-0.461L727.789,22.985z M728.889,17.793h0.58
		c1.846,0,2.932-0.64,2.932-2.633c0-0.744-0.254-1.369-1.771-1.369h-0.906L728.889,17.793z"/>
	<path fill="#C4CFB6" d="M736.883,13.419h8.197l-0.461,3.199h-0.447c0-2.381-0.477-2.827-1.637-2.827h-0.625l-1.918,9.194h1.428
		l-0.074,0.372h-4.688l0.074-0.372h1.369l1.949-9.194h-0.461c-1.234,0-1.949,0.625-2.975,2.678h-0.447L736.883,13.419z"/>
	<path fill="#C4CFB6" d="M750.303,13.419l-0.061,0.372h-1.488l1.727,4.553l3.094-4.553h-1.473l0.061-0.372h2.781l-0.074,0.372
		h-0.789l-3.48,5.147l-0.803,4.047h1.443l-0.076,0.372h-4.701l0.076-0.372h1.398l0.877-4.15l-1.965-5.044h-1.189l0.061-0.372
		H750.303z"/>
</g>
<g>
	<g>
		<path d="M50.572,88.335v-0.96h3.802V63.64h-3.802v-0.96h12.712v0.96H59.29v23.735h5.031c4.878,0,6.605-3.265,6.76-7.682h1.19
			l-0.384,8.642H50.572z"/>
		<path d="M92.627,70.375v0.672h-2.689V82.34c0,2.688-0.511,4.006-1.612,5c-1.103,0.995-2.797,1.398-5.216,1.398
			c-1.909,0-3.63-0.592-4.759-1.425c-1.156-0.86-1.667-2.608-1.667-5.619V71.047h-2.662v-0.672h8.765v0.672h-2.661v9.841
			c0,3.737-0.403,6.99,4.463,6.99c3.146,0,4.489-1.989,4.489-4.947V71.047H86.47v-0.672H92.627z"/>
		<path d="M109.459,82.984v5.512h-0.592l-1.102-1.29c-1.21,1.048-3.012,1.532-4.598,1.532c-4.732,0-8.308-4.812-8.308-9.275
			c0-3.495,1.854-6.803,4.866-8.604c1.075-0.619,2.42-0.888,3.656-0.888c1.506,0,2.984,0.431,4.167,1.398l1.076-1.13h0.591v5.189
			h-0.779c-0.403-2.931-2.446-4.786-5.081-4.786c-1.721,0-2.608,0.377-3.55,1.829c-1.264,1.936-0.994,5.054-0.994,7.231
			c0,1.533-0.054,3.63,0.457,5.378c0.511,1.721,1.774,2.877,3.817,2.984c3.308,0.161,4.84-2.178,5.619-5.082H109.459z"/>
		<path d="M118.845,87.663h2.661v0.672h-8.765v-0.672h2.662V71.047h-2.662v-0.672h8.765v0.672h-2.661V87.663z M123.254,88.335
			v-0.672h2.77l-6.883-8.657l7.474-7.959h-3.064v-0.672h6.748v0.672h-2.607l-5.889,6.157l8.577,10.459h1.236v0.672H123.254z"/>
		<path d="M137.775,88.335v-0.672h2.85v-7.475l-5.646-9.142h-1.962v-0.672h8.737v0.672h-2.77l4.598,7.717l4.329-7.717h-2.796v-0.672
			h5.78v0.672h-2.151l-4.678,8.55v8.066h2.957v0.672H137.775z"/>
		<path d="M183.686,88.834h-1.152L166.25,64.408v22.967h3.764v0.96h-8.757v-0.96h3.764V63.64h-3.764v-0.96h9.832l11.368,16.783
			V63.64h-3.687v-0.96h8.757v0.96h-3.841V88.834z"/>
		<path d="M189.269,72.139c0-3.396,2.984-6.834,6.422-6.834s6.402,3.438,6.402,6.834c0,3.767-2.326,7.533-6.402,7.533
			C191.616,79.672,189.269,75.905,189.269,72.139z M199.067,69.956c0-0.741-0.103-1.44-0.309-2.059
			c-0.412-1.255-1.256-2.078-3.067-2.078c-1.832,0-2.717,0.823-3.088,2.078c-0.185,0.618-0.309,1.317-0.309,2.059v4.487
			c0,0.803,0.041,1.585,0.227,2.306c0.371,1.42,1.235,2.408,3.17,2.408c1.956,0,2.8-0.988,3.17-2.408
			c0.186-0.721,0.206-1.503,0.206-2.306V69.956z"/>
		<path d="M216.029,88.565h-0.652v-7.643h1.113c0.807,3.648,2.996,7.028,7.067,7.028c3.033,0,5.722-2.228,5.722-5.377
			c0-3.572-3.188-4.264-6.067-5.262c-0.769-0.269-1.537-0.538-2.305-0.769c-3.572-1.075-5.339-3.764-5.339-7.412
			c0-4.033,2.996-7.028,6.99-7.028c2.228,0,3.841,0.537,5.607,1.92l1.459-1.536h0.691v7.259h-1.229
			c-0.423-3.648-2.804-6.683-6.645-6.683c-2.458,0-4.763,1.806-4.763,4.378c0,2.958,2.036,3.265,4.417,3.918
			c0.96,0.269,1.729,0.538,2.381,0.729c0.769,0.23,1.729,0.499,2.535,0.884c3.227,1.536,4.378,4.071,4.378,7.527
			c0,4.839-3.148,8.411-8.104,8.411c-1.805,0-4.109-0.729-5.453-1.959L216.029,88.565z"/>
		<path d="M241.127,71.047v7.717c2.581,0,3.952-0.403,4.087-3.28h0.753v7.501h-0.753c-0.242-2.984-1.183-3.629-4.087-3.549v8.228
			h3.818c3.495,0,4.248-2.07,4.812-5.108h0.779l-0.242,5.78h-15.298v-0.672h2.688V71.047h-2.688v-0.672h14.868l0.161,4.84h-0.753
			c-0.564-2.581-1.586-3.576-2.957-3.952c-0.673-0.188-1.452-0.216-2.339-0.216H241.127z"/>
		<path d="M261.616,88.738h-0.806l-6.426-17.691h-2.205v-0.672h8.522v0.672h-2.769l4.57,12.583l4.544-12.583h-2.796v-0.672h5.834
			v0.672h-2.231L261.616,88.738z"/>
		<path d="M277.884,71.047v7.717c2.581,0,3.952-0.403,4.087-3.28h0.753v7.501h-0.753c-0.242-2.984-1.183-3.629-4.087-3.549v8.228
			h3.818c3.495,0,4.248-2.07,4.812-5.108h0.779l-0.242,5.78h-15.298v-0.672h2.688V71.047h-2.688v-0.672h14.868l0.161,4.84h-0.753
			c-0.564-2.581-1.586-3.576-2.957-3.952c-0.673-0.188-1.452-0.216-2.34-0.216H277.884z"/>
		<path d="M305.606,88.685h-0.807l-11.399-17.1v16.078h2.635v0.672h-6.13v-0.672h2.635V71.047h-2.635v-0.672h6.883l7.958,11.749
			V71.047h-2.581v-0.672h6.13v0.672h-2.688V88.685z"/>
	</g>
	<g>
		<path d="M197.405,84.059c0,1.006-0.919,1.839-1.81,1.839c-0.919,0-1.868-0.833-1.868-1.839c0-1.034,0.949-1.839,1.868-1.839
			C196.486,82.22,197.405,83.025,197.405,84.059z"/>
	</g>
</g>
</svg>
