<?xml version="1.0" encoding="utf-8"?>
<!-- Generator: Adobe Illustrator 16.0.0, SVG Export Plug-In . SVG Version: 6.00 Build 0)  -->
<!DOCTYPE svg PUBLIC "-//W3C//DTD SVG 1.1//EN" "http://www.w3.org/Graphics/SVG/1.1/DTD/svg11.dtd">
<svg version="1.1" id="Layer_1" xmlns="http://www.w3.org/2000/svg" xmlns:xlink="http://www.w3.org/1999/xlink" x="0px" y="0px"
	 width="783px" height="170.732px" viewBox="0 0 783 170.732" enable-background="new 0 0 783 170.732" xml:space="preserve">
<g>
	<polyline fill="#EFE0BA" points="776.957,37.945 6.424,37.945 6.424,165.882 776.957,165.882 776.957,37.945 	"/>
</g>
<g>
	<g>
		<rect id="SVGID_1_" x="861.607" y="-11.041" fill="#ECE0D1" width="437.5" height="437.334"/>
	</g>
</g>
<polygon points="593.6,5.703 776.957,5.648 776.957,37.984 556.957,38.126 "/>
<g enable-background="new    ">
	<path fill="#EFE0BA" d="M601.467,20.305l-1.676,7.235h1.539l-0.325,1.386h-4.327l0.325-1.386h1.282l1.967-8.484h-1.453l0.308-1.385
		h2.754l4.054,7.971l1.522-6.586h-1.522l0.325-1.385h4.293l-0.308,1.385h-1.266l-2.31,9.904h-0.752L601.467,20.305z"/>
	<path fill="#EFE0BA" d="M609.729,27.54h1.283l1.967-8.484h-1.454l0.308-1.385h8.297l-0.719,2.959h-1.471l0.376-1.591h-3.78
		l-0.821,3.489h3.507l-0.308,1.334h-3.49l-0.872,3.695h3.798l0.393-1.591h1.472l-0.685,2.959h-8.125L609.729,27.54z"/>
	<path fill="#EFE0BA" d="M619.256,27.54h1.163l4.55-4.481l-2.274-4.003h-1.352l0.325-1.385h4.379l-0.308,1.385h-1.249l1.522,3.165
		l2.977-3.165h-1.283l0.308-1.385h4.447l-0.308,1.385h-1.215l-4.259,4.191l2.463,4.293h1.317l-0.308,1.386h-4.311l0.325-1.386h1.282
		l-1.778-3.472l-3.302,3.472h1.368l-0.324,1.386h-4.465L619.256,27.54z"/>
	<path fill="#EFE0BA" d="M633.728,27.54h1.385l1.984-8.519H634.6l-0.394,1.779h-1.488l0.719-3.13h9.477l-0.719,3.13h-1.471
		l0.393-1.779h-2.479l-1.968,8.519h1.557l-0.308,1.386h-4.516L633.728,27.54z"/>
	<path fill="#EFE0BA" d="M645.563,27.54h1.283l1.967-8.484h-1.454l0.308-1.385h3.627c2.138,0,3.506,0.581,4.498,1.573
		c0.787,0.787,1.215,1.95,1.215,3.199c0,1.796-0.616,3.232-1.779,4.413c-1.419,1.402-3.403,2.069-5.815,2.069h-4.174L645.563,27.54z
		 M649.651,27.54c1.968,0,3.336-0.53,4.362-1.573c0.94-0.941,1.368-2.139,1.368-3.438c0-0.906-0.308-1.778-0.872-2.343
		c-0.701-0.702-1.693-1.13-3.37-1.13h-0.77l-1.984,8.484H649.651z"/>
	<path fill="#EFE0BA" d="M657.605,27.54h1.402l1.968-8.484h-1.522l0.325-1.385h4.481l-0.309,1.385h-1.419l-1.968,8.484h1.522
		l-0.325,1.386h-4.481L657.605,27.54z"/>
	<path fill="#EFE0BA" d="M668.125,20.305l-1.676,7.235h1.539l-0.325,1.386h-4.327l0.325-1.386h1.282l1.967-8.484h-1.453l0.308-1.385
		h2.754l4.054,7.971l1.522-6.586h-1.522l0.325-1.385h4.293l-0.308,1.385h-1.266l-2.31,9.904h-0.752L668.125,20.305z"/>
	<path fill="#EFE0BA" d="M680.852,20.305l-1.677,7.235h1.539l-0.324,1.386h-4.328l0.325-1.386h1.283l1.967-8.484h-1.454l0.308-1.385
		h2.754l4.055,7.971l1.522-6.586h-1.522l0.324-1.385h4.294l-0.308,1.385h-1.267l-2.309,9.904h-0.753L680.852,20.305z"/>
	<path fill="#EFE0BA" d="M689.113,27.54h1.282l1.967-8.484h-1.453l0.308-1.385h8.296l-0.719,2.959h-1.471l0.376-1.591h-3.78
		l-0.82,3.489h3.506l-0.308,1.334h-3.489l-0.872,3.695h3.797l0.394-1.591h1.471l-0.684,2.959h-8.125L689.113,27.54z"/>
	<path fill="#EFE0BA" d="M699,27.54h1.282l1.967-8.484h-1.453l0.308-1.385h3.558c1.522,0,2.635,0.342,3.318,1.043
		c0.53,0.514,0.804,1.215,0.804,2.036c0,1.71-1.163,3.062-3.112,3.558l1.505,3.232h1.334l-0.325,1.386h-2.104l-1.916-4.431h-0.428
		c-0.376,0-0.804-0.017-1.18-0.034l-0.735,3.079h1.487l-0.324,1.386h-4.311L699,27.54z M707.21,20.853
		c0-0.479-0.154-0.89-0.462-1.197c-0.41-0.411-1.129-0.6-2.138-0.6h-0.821l-0.94,4.071c0.393,0.034,0.786,0.052,1.351,0.052
		C706.081,23.179,707.21,22.203,707.21,20.853z"/>
	<path fill="#EFE0BA" d="M712.889,27.54h1.282l1.967-8.484h-1.453l0.308-1.385h3.78c0.53,0,1.009,0.068,1.437,0.171
		c1.625,0.428,2.463,1.591,2.463,3.045c0,2.24-1.762,4.122-4.771,4.122c-0.599,0-1.283-0.018-1.591-0.034l-0.599,2.565h1.539
		l-0.325,1.386h-4.361L712.889,27.54z M721.099,20.972c0-0.89-0.496-1.522-1.454-1.796c-0.308-0.085-0.667-0.12-1.026-0.12h-0.924
		l-1.061,4.551c0.394,0.017,0.941,0.034,1.454,0.034C720.072,23.641,721.099,22.409,721.099,20.972z"/>
	<path fill="#EFE0BA" d="M721.271,27.54h1.026l5.028-8.501h-1.334l0.308-1.368h5.662l-0.325,1.368h-1.266l1.095,8.501h1.181
		l-0.325,1.386h-3.9l0.308-1.368h1.267l-0.291-2.378h-4.481l-1.386,2.378h1.488l-0.325,1.368h-4.054L721.271,27.54z M729.532,23.863
		l-0.616-4.943l-2.925,4.943H729.532z"/>
	<path fill="#EFE0BA" d="M733.757,27.54h1.283l1.967-8.484h-1.454l0.308-1.385h3.559c1.522,0,2.634,0.342,3.318,1.043
		c0.53,0.514,0.804,1.215,0.804,2.036c0,1.71-1.163,3.062-3.113,3.558l1.505,3.232h1.335l-0.325,1.386h-2.104l-1.915-4.431h-0.428
		c-0.376,0-0.804-0.017-1.181-0.034l-0.735,3.079h1.488l-0.325,1.386h-4.311L733.757,27.54z M741.968,20.853
		c0-0.479-0.154-0.89-0.462-1.197c-0.411-0.411-1.129-0.6-2.139-0.6h-0.821l-0.94,4.071c0.394,0.034,0.787,0.052,1.352,0.052
		C740.838,23.179,741.968,22.203,741.968,20.853z"/>
	<path fill="#EFE0BA" d="M745.918,27.54h1.386l1.984-8.519h-2.498l-0.393,1.779h-1.488l0.718-3.13h9.477l-0.719,3.13h-1.471
		l0.394-1.779h-2.48l-1.967,8.519h1.557l-0.309,1.386h-4.516L745.918,27.54z"/>
	<path fill="#EFE0BA" d="M756.181,27.54h1.438l0.735-3.079l-1.95-5.405h-1.129l0.325-1.385h3.969l-0.309,1.385h-1.248l1.402,4.276
		l3.455-4.276h-1.231l0.325-1.385h4.122l-0.308,1.385h-1.078l-4.875,5.696l-0.649,2.788h1.539l-0.308,1.386h-4.55L756.181,27.54z"/>
</g>
<polygon points="497.82,102.032 440.78,43.931 686.058,43.931 744.516,101.912 686.058,160.146 440.78,160.146 "/>
<polyline fill="none" stroke="#000000" stroke-width="0.5103" points="697.926,159.811 754.964,101.7 697.926,43.592 "/>
<polyline fill="none" stroke="#000000" stroke-width="0.5103" points="707.757,159.811 764.798,101.7 707.757,43.592 "/>
<polyline fill="none" stroke="#000000" stroke-width="0.5103" points="717.587,159.811 774.633,101.7 717.587,43.592 "/>
<polyline fill="none" stroke="#000000" stroke-width="0.5103" points="410.361,160.146 467.395,102.032 410.361,43.931 "/>
<polyline fill="none" stroke="#000000" stroke-width="0.5103" points="420.191,160.146 477.226,102.032 420.191,43.931 "/>
<polyline fill="none" stroke="#000000" stroke-width="0.5103" points="430.023,160.146 487.061,102.032 430.023,43.931 "/>
<g enable-background="new    ">
	<path fill="#EFE0BA" d="M520.134,76.025h-5.092l1.31-4.895h15.969l-1.311,4.895h-5.092l-3.337,12.409h-5.784L520.134,76.025z"/>
	<path fill="#EFE0BA" d="M533.583,71.13h5.784l-1.656,6.105h5.29l1.656-6.105h5.784l-4.647,17.304h-5.784l1.656-6.204h-5.29
		l-1.656,6.204h-5.784L533.583,71.13z"/>
	<path fill="#EFE0BA" d="M549.479,82.551c0-0.891,0.124-1.854,0.371-2.794l2.324-8.627h5.883l-2.423,8.998
		c-0.124,0.494-0.198,0.964-0.198,1.359c0,1.434,0.842,2.176,2.373,2.176c0.718,0,1.385-0.247,1.854-0.717
		c0.519-0.52,0.865-1.187,1.236-2.521l2.497-9.295h5.883l-2.744,10.185c-0.618,2.299-1.508,3.979-2.719,5.191
		c-1.632,1.631-4.104,2.273-6.848,2.273C552.1,88.78,549.479,86.456,549.479,82.551z"/>
	<path fill="#EFE0BA" d="M571.012,71.13h6.748c3.188,0,5.215,0.692,6.377,1.854c0.965,0.964,1.359,2.249,1.359,3.608
		c0,2.694-1.408,5.019-4.82,6.081l2.398,5.76h-6.229l-1.929-4.943h-1.434l-1.334,4.943h-5.785L571.012,71.13z M576.672,79.362
		c1.928,0,2.941-0.89,2.941-1.978c0-0.346-0.123-0.667-0.371-0.914c-0.32-0.321-0.89-0.495-1.705-0.495h-2.052l-0.915,3.387H576.672
		z"/>
	<path fill="#EFE0BA" d="M583.845,85.641l3.312-3.955c1.978,1.656,4.005,2.447,5.834,2.447c0.741,0,1.261-0.272,1.261-0.767
		c0-0.544-0.321-0.717-2.843-1.656c-3.214-1.187-4.722-2.323-4.722-4.87c0-3.337,3.065-6.056,7.787-6.056
		c3.09,0,5.834,0.988,7.712,2.596l-3.312,3.955c-1.31-1.063-3.164-1.929-4.993-1.929c-0.741,0-1.261,0.198-1.261,0.692
		c0,0.52,0.371,0.618,2.769,1.508c2.941,1.088,4.82,2.323,4.82,4.969c0,3.485-2.867,6.204-7.836,6.204
		C588.938,88.78,585.946,87.544,583.845,85.641z"/>
	<path fill="#EFE0BA" d="M604.66,71.13h6.131c3.361,0,5.463,0.915,6.773,2.225c1.285,1.286,1.878,2.967,1.878,5.067
		c0,2.596-0.989,4.969-2.843,6.823c-2.076,2.076-5.067,3.188-9.072,3.188h-7.514L604.66,71.13z M608.17,83.391
		c1.756,0,3.264-0.519,4.153-1.409c0.717-0.717,1.236-1.878,1.236-2.941c0-0.939-0.272-1.557-0.717-2.002
		c-0.544-0.544-1.409-0.865-2.794-0.865h-0.964l-1.928,7.218H608.17z"/>
	<path fill="#EFE0BA" d="M628.443,71.007h5.735l2.62,17.427h-6.154l-0.297-2.323h-6.057l-1.508,2.323h-6.303L628.443,71.007z
		 M630.025,82.007l-0.469-4.202l-2.695,4.202H630.025z"/>
	<path fill="#EFE0BA" d="M641.201,81.834l-3.386-10.704h6.081l1.408,5.784l4.5-5.784h6.847l-9.839,11.421l-1.582,5.883h-5.783
		L641.201,81.834z"/>
</g>
<g enable-background="new    ">
	<path fill="#EFE0BA" d="M517.02,97.349h5.413l3.931,8.257l2.225-8.257h5.734l-4.646,17.304h-5.142l-4.104-8.603l-2.323,8.603
		h-5.735L517.02,97.349z"/>
	<path fill="#EFE0BA" d="M533.36,107.162c0-5.363,4.375-10.159,10.185-10.159c5.092,0,8.602,3.411,8.602,7.836
		c0,5.364-4.375,10.159-10.184,10.159C536.87,114.998,533.36,111.587,533.36,107.162z M546.338,105.358
		c0-1.829-1.112-3.263-3.189-3.263c-2.422,0-3.979,2.373-3.979,4.549c0,1.829,1.111,3.263,3.188,3.263
		C544.78,109.906,546.338,107.533,546.338,105.358z"/>
	<path fill="#EFE0BA" d="M552.914,97.349h6.352l0.742,9.715l5.982-9.715h6.501l-11.692,17.428h-5.537L552.914,97.349z"/>
	<path fill="#EFE0BA" d="M573.012,97.349h14.758l-1.285,4.746h-9.072l-0.47,1.755h8.454l-1.112,4.178h-8.454l-0.52,1.879h9.195
		l-1.26,4.746h-14.881L573.012,97.349z"/>
	<path fill="#EFE0BA" d="M589.65,97.349h5.709l2.077,6.081l5.339-6.081h6.354l-4.647,17.304h-5.76l2.299-8.577l-5.636,6.154h-0.1
		l-2.323-6.154l-2.299,8.577h-5.661L589.65,97.349z"/>
	<path fill="#EFE0BA" d="M611.01,97.349h7.662c5.314,0,6.6,1.953,6.6,4.079c0,2.101-1.408,3.856-4.053,4.548
		c1.631,0.421,2.817,1.632,2.817,3.411c0,2.917-2.323,5.266-8.257,5.266h-9.418L611.01,97.349z M615.953,110.278
		c1.408,0,2.249-0.618,2.249-1.483c0-0.741-0.618-1.088-1.854-1.088h-2.497l-0.691,2.571H615.953z M617.485,104.147
		c1.483,0,2.151-0.667,2.151-1.409c0-0.717-0.545-1.013-1.78-1.013h-2.397l-0.643,2.422H617.485z"/>
	<path fill="#EFE0BA" d="M628.611,97.349h14.757l-1.286,4.746h-9.071l-0.47,1.755h8.454l-1.112,4.178h-8.454l-0.519,1.879h9.195
		l-1.262,4.746h-14.881L628.611,97.349z"/>
	<path fill="#EFE0BA" d="M645.248,97.349h6.748c3.189,0,5.216,0.692,6.378,1.854c0.964,0.964,1.359,2.249,1.359,3.608
		c0,2.694-1.409,5.019-4.82,6.081l2.397,5.76h-6.229l-1.929-4.943h-1.434l-1.335,4.943h-5.784L645.248,97.349z M650.908,105.58
		c1.929,0,2.941-0.89,2.941-1.978c0-0.346-0.123-0.667-0.37-0.914c-0.321-0.321-0.89-0.495-1.706-0.495h-2.051l-0.915,3.387H650.908
		z"/>
	<path fill="#EFE0BA" d="M673.826,102.12h-7.664l1.285-4.771h14.189l-1.187,4.351l-10.259,12.953h-6.501L673.826,102.12z"/>
	<path fill="#EFE0BA" d="M686.285,102.243h-5.092l1.311-4.895h15.968l-1.31,4.895h-5.092l-3.338,12.409h-5.784L686.285,102.243z"/>
	<path fill="#EFE0BA" d="M699.734,97.349h5.784l-1.656,6.105h5.29l1.656-6.105h5.784l-4.647,17.304h-5.784l1.656-6.204h-5.29
		l-1.656,6.204h-5.784L699.734,97.349z"/>
</g>
<g enable-background="new    ">
	<path fill="#EFE0BA" d="M522.952,128.339h-7.663l1.285-4.771h14.189l-1.188,4.351l-10.258,12.953h-6.502L522.952,128.339z"/>
	<path fill="#EFE0BA" d="M528.07,138.448c0-1.681,1.532-3.213,3.263-3.213c1.582,0,2.694,1.137,2.694,2.719
		c0,1.681-1.508,3.214-3.263,3.214C529.207,141.168,528.07,140.056,528.07,138.448z M530.27,130.267
		c0-1.681,1.509-3.214,3.264-3.214c1.557,0,2.67,1.138,2.67,2.72c0,1.681-1.508,3.213-3.264,3.213
		C531.383,132.986,530.27,131.873,530.27,130.267z"/>
	<path fill="#EFE0BA" d="M536.476,134.419c0-5.933,4.128-11.222,9.862-11.222c4.574,0,7.119,3.188,7.119,6.847
		c0,5.933-4.127,11.223-9.862,11.223C539.021,141.267,536.476,138.078,536.476,134.419z M547.648,130.564
		c0-1.632-0.815-2.349-1.829-2.349c-2.225,0-3.534,3.238-3.534,5.686c0,1.631,0.814,2.349,1.828,2.349
		C546.338,136.249,547.648,133.011,547.648,130.564z"/>
	<path fill="#EFE0BA" d="M554.324,134.419c0-5.933,4.128-11.222,9.863-11.222c4.572,0,7.119,3.188,7.119,6.847
		c0,5.933-4.129,11.223-9.863,11.223C556.87,141.267,554.324,138.078,554.324,134.419z M565.497,130.564
		c0-1.632-0.815-2.349-1.829-2.349c-2.225,0-3.535,3.238-3.535,5.686c0,1.631,0.816,2.349,1.83,2.349
		C564.188,136.249,565.497,133.011,565.497,130.564z"/>
	<path fill="#EFE0BA" d="M580.033,123.568h5.81c3.188,0,5.142,0.618,6.427,1.903c0.914,0.915,1.359,2.126,1.359,3.485
		c0,4.326-3.263,7.219-8.75,7.219h-2.447l-1.262,4.696h-5.783L580.033,123.568z M584.582,132.046c2.199,0,3.213-0.988,3.213-2.299
		c0-0.37-0.148-0.741-0.42-1.013c-0.396-0.396-1.088-0.544-1.73-0.544h-1.088l-1.014,3.855H584.582z"/>
	<path fill="#EFE0BA" d="M596.474,123.568h5.71l2.076,6.081l5.34-6.081h6.353l-4.647,17.304h-5.76l2.299-8.577l-5.635,6.154h-0.1
		l-2.324-6.154l-2.299,8.577h-5.66L596.474,123.568z"/>
</g>
<line fill="none" stroke="#000000" stroke-width="0.5901" x1="6.424" y1="43.791" x2="777.008" y2="43.791"/>
<line fill="none" stroke="#000000" stroke-width="0.5901" x1="6.424" y1="160.396" x2="777.008" y2="160.396"/>
<line fill="none" stroke="#000000" stroke-width="2.5" x1="6.424" y1="38.575" x2="777.008" y2="38.575"/>
<line fill="none" stroke="#000000" stroke-width="2.5" x1="6.424" y1="165.054" x2="777.008" y2="165.054"/>
<g>
	<g enable-background="new    ">
		<path d="M49.625,109.913h-1.007l0.172-0.719h2.907l-0.172,0.719h-1.18l0.202,7.425l3.928-6.921h0.345l0.792,6.936l3.914-7.439
			h-1.151l0.172-0.719h2.893l-0.173,0.719h-0.95l-4.734,8.907h-0.46l-0.834-6.72l-3.885,6.72h-0.46L49.625,109.913z"/>
		<path d="M60.749,115.842c-0.014,0.13-0.014,0.259-0.014,0.389c0,1.252,1.021,1.885,2.043,1.885c0.705,0,1.208-0.144,1.986-0.562
			l-0.173,0.777c-0.633,0.316-1.151,0.446-1.942,0.446c-1.396,0-2.662-0.906-2.662-2.532c0-2.044,1.597-3.741,3.381-3.741
			c1.367,0,2.202,0.863,2.202,2.144c0,0.374-0.086,0.763-0.245,1.194H60.749z M60.893,115.209h3.856
			c0.072-0.216,0.115-0.461,0.115-0.69c0-0.677-0.46-1.339-1.554-1.339C62.245,113.18,61.267,114.043,60.893,115.209z"/>
		<path d="M67.742,109.741c0.072-0.532,0.359-0.72,0.619-0.72c0.345,0,0.546,0.23,0.546,0.532c0,0.115-0.028,0.245-0.086,0.374
			l-1.18,2.403h-0.273L67.742,109.741z"/>
		<path d="M70.361,113.281H69.21l0.172-0.661h1.856l-0.403,1.64c0.806-1.107,1.482-1.755,2.043-1.755
			c0.475,0,0.734,0.273,0.734,0.633c0,0.389-0.316,0.705-0.676,0.705c-0.331,0-0.561-0.201-0.633-0.489
			c-0.489,0.288-1.54,1.237-1.885,2.662l-0.662,2.647h-0.748L70.361,113.281z"/>
		<path d="M74.649,115.842c-0.014,0.13-0.014,0.259-0.014,0.389c0,1.252,1.021,1.885,2.043,1.885c0.705,0,1.208-0.144,1.986-0.562
			l-0.173,0.777c-0.633,0.316-1.151,0.446-1.942,0.446c-1.396,0-2.662-0.906-2.662-2.532c0-2.044,1.597-3.741,3.381-3.741
			c1.367,0,2.202,0.863,2.202,2.144c0,0.374-0.086,0.763-0.245,1.194H74.649z M74.793,115.209h3.856
			c0.072-0.216,0.115-0.461,0.115-0.69c0-0.677-0.46-1.339-1.554-1.339C76.146,113.18,75.167,114.043,74.793,115.209z"/>
		<path d="M83.585,120.878c-0.23-0.23-0.302-0.417-0.302-0.618c0-0.375,0.23-0.677,0.619-0.677c0.388,0,0.59,0.316,0.59,0.633
			c0,0.13-0.043,0.273-0.129,0.389c0.288,0.173,0.705,0.303,1.266,0.303c0.662,0,1.122-0.173,1.525-0.576
			c0.345-0.345,0.619-0.892,0.791-1.626l0.302-1.295c-0.518,0.835-1.338,1.252-2.173,1.252c-1.309,0-2.359-0.949-2.359-2.504
			c0-2.058,1.525-3.654,3.266-3.654c1.137,0,1.842,0.661,2.015,1.568l0.359-1.525h0.749l-1.454,6.259
			c-0.201,0.863-0.475,1.482-0.95,1.957c-0.532,0.532-1.223,0.777-2.101,0.777C84.794,121.54,83.902,121.195,83.585,120.878z
			 M88.708,114.979c0-1.108-0.633-1.799-1.727-1.799c-1.453,0-2.46,1.396-2.46,2.964c0,1.123,0.662,1.842,1.698,1.842
			C87.744,117.986,88.708,116.389,88.708,114.979z"/>
		<path d="M91.542,117.727c0-0.158,0.058-0.446,0.115-0.647l1.064-3.799h-1.208l0.173-0.661h1.971l-1.266,4.532
			c-0.058,0.201-0.101,0.46-0.101,0.575c0,0.288,0.187,0.476,0.446,0.476c0.316,0,0.561-0.288,0.834-0.95l0.446,0.144
			c-0.288,0.85-0.72,1.353-1.381,1.353C92.003,118.748,91.542,118.331,91.542,117.727z M92.866,110.662
			c0-0.346,0.273-0.634,0.619-0.634c0.331,0,0.604,0.288,0.604,0.634c0,0.345-0.273,0.633-0.604,0.633
			C93.14,111.295,92.866,111.007,92.866,110.662z"/>
		<path d="M96.104,113.281h-1.137l0.173-0.661h1.669l0.777,5.237c1.194-1.338,2.201-2.993,2.475-4.015
			c-0.288-0.058-0.576-0.288-0.576-0.662s0.273-0.676,0.662-0.676s0.705,0.287,0.705,0.849c0,1.051-1.655,3.669-3.468,5.554h-0.288
			L96.104,113.281z"/>
		<path d="M102.176,117.727c0-0.158,0.058-0.446,0.115-0.647l1.064-3.799h-1.208l0.173-0.661h1.971l-1.266,4.532
			c-0.058,0.201-0.101,0.46-0.101,0.575c0,0.288,0.187,0.476,0.446,0.476c0.316,0,0.561-0.288,0.834-0.95l0.446,0.144
			c-0.288,0.85-0.72,1.353-1.381,1.353C102.637,118.748,102.176,118.331,102.176,117.727z M103.5,110.662
			c0-0.346,0.273-0.634,0.619-0.634c0.331,0,0.604,0.288,0.604,0.634c0,0.345-0.273,0.633-0.604,0.633
			C103.773,111.295,103.5,111.007,103.5,110.662z"/>
		<path d="M110.062,117.727c0-0.158,0.057-0.46,0.115-0.662l0.619-2.144c0.086-0.316,0.144-0.562,0.144-0.82
			c0-0.547-0.432-0.949-1.05-0.949c-0.892,0-2.029,0.935-2.46,2.633l-0.72,2.878h-0.748l1.353-5.382h-1.151l0.172-0.661h1.856
			l-0.374,1.453c0.59-0.95,1.324-1.568,2.187-1.568c1.007,0,1.698,0.676,1.698,1.568c0,0.302-0.086,0.633-0.173,0.949l-0.619,2.115
			c-0.058,0.201-0.101,0.475-0.101,0.59c0,0.288,0.187,0.476,0.446,0.476c0.316,0,0.561-0.288,0.834-0.95l0.446,0.144
			c-0.288,0.85-0.719,1.353-1.381,1.353C110.522,118.748,110.062,118.331,110.062,117.727z"/>
		<path d="M113.458,120.878c-0.23-0.23-0.302-0.417-0.302-0.618c0-0.375,0.23-0.677,0.619-0.677c0.388,0,0.59,0.316,0.59,0.633
			c0,0.13-0.043,0.273-0.129,0.389c0.288,0.173,0.705,0.303,1.266,0.303c0.662,0,1.122-0.173,1.525-0.576
			c0.345-0.345,0.619-0.892,0.791-1.626l0.302-1.295c-0.518,0.835-1.338,1.252-2.173,1.252c-1.309,0-2.359-0.949-2.359-2.504
			c0-2.058,1.525-3.654,3.266-3.654c1.137,0,1.842,0.661,2.015,1.568l0.359-1.525h0.749l-1.454,6.259
			c-0.201,0.863-0.475,1.482-0.95,1.957c-0.532,0.532-1.223,0.777-2.101,0.777C114.667,121.54,113.775,121.195,113.458,120.878z
			 M118.581,114.979c0-1.108-0.633-1.799-1.727-1.799c-1.453,0-2.46,1.396-2.46,2.964c0,1.123,0.662,1.842,1.698,1.842
			C117.617,117.986,118.581,116.389,118.581,114.979z"/>
		<path d="M126.25,113.281l-0.95,3.871c-0.043,0.187-0.072,0.346-0.072,0.518c0,0.202,0.172,0.446,0.503,0.446
			s0.72-0.216,1.31-0.604l0.316,0.446c-0.705,0.518-1.223,0.82-1.784,0.82c-0.676,0-1.137-0.432-1.137-1.008
			c0-0.172,0.043-0.388,0.101-0.633l0.964-3.856h-1.065l0.173-0.661h1.05l0.374-1.482l0.806-0.23l-0.432,1.713h1.871l-0.173,0.661
			H126.25z"/>
		<path d="M130.956,108.791h-1.151l0.158-0.662h1.899l-1.381,5.828c0.46-0.748,1.18-1.453,2.115-1.453
			c1.007,0,1.741,0.676,1.755,1.568c0,0.302-0.058,0.633-0.144,0.949l-0.575,2.13c-0.058,0.216-0.086,0.46-0.086,0.575
			c0,0.288,0.187,0.476,0.446,0.476c0.317,0,0.562-0.288,0.82-0.95l0.446,0.144c-0.273,0.85-0.691,1.353-1.353,1.353
			c-0.633,0-1.108-0.417-1.108-1.021c0-0.158,0.043-0.432,0.101-0.647l0.575-2.158c0.086-0.316,0.115-0.562,0.115-0.82
			c-0.014-0.547-0.475-0.949-1.093-0.949c-0.892,0-2.043,0.949-2.432,2.633l-0.662,2.878h-0.749L130.956,108.791z"/>
		<path d="M137,115.842c-0.014,0.13-0.014,0.259-0.014,0.389c0,1.252,1.021,1.885,2.043,1.885c0.705,0,1.208-0.144,1.986-0.562
			l-0.173,0.777c-0.633,0.316-1.151,0.446-1.942,0.446c-1.396,0-2.662-0.906-2.662-2.532c0-2.044,1.597-3.741,3.381-3.741
			c1.367,0,2.202,0.863,2.202,2.144c0,0.374-0.086,0.763-0.245,1.194H137z M137.144,115.209H141c0.072-0.216,0.115-0.461,0.115-0.69
			c0-0.677-0.46-1.339-1.554-1.339C138.496,113.18,137.518,114.043,137.144,115.209z"/>
		<path d="M147.432,113.281h-1.151l0.172-0.661h1.856l-0.389,1.453c0.59-0.95,1.338-1.568,2.158-1.568
			c0.936,0,1.54,0.561,1.568,1.511c0.59-0.921,1.381-1.511,2.173-1.511c0.95,0,1.597,0.676,1.597,1.568
			c0,0.302-0.086,0.633-0.172,0.949l-0.619,2.115c-0.057,0.201-0.101,0.475-0.101,0.59c0,0.288,0.187,0.476,0.446,0.476
			c0.316,0,0.561-0.288,0.834-0.95l0.446,0.144c-0.288,0.85-0.719,1.353-1.381,1.353c-0.633,0-1.093-0.417-1.093-1.021
			c0-0.158,0.058-0.46,0.115-0.662l0.619-2.144c0.086-0.316,0.144-0.562,0.144-0.82c0-0.547-0.359-0.949-0.95-0.949
			c-0.863,0-1.942,0.935-2.388,2.647l-0.749,2.863h-0.748l0.964-3.741c0.086-0.316,0.144-0.562,0.144-0.82
			c0-0.547-0.374-0.949-0.964-0.949c-0.849,0-2,0.949-2.417,2.633l-0.72,2.878h-0.748L147.432,113.281z"/>
		<path d="M157.275,116.188c0-1.914,1.482-3.684,3.424-3.684c1.597,0,2.533,1.18,2.533,2.59c0,1.914-1.482,3.684-3.425,3.684
			C158.21,118.778,157.275,117.598,157.275,116.188z M162.469,115.079c0-1.151-0.777-1.899-1.813-1.899
			c-1.468,0-2.619,1.41-2.619,3.021c0,1.151,0.777,1.899,1.813,1.899C161.318,118.101,162.469,116.691,162.469,115.079z"/>
		<path d="M168.643,117.727c0-0.158,0.058-0.46,0.115-0.662l0.619-2.144c0.086-0.316,0.144-0.562,0.144-0.82
			c0-0.547-0.432-0.949-1.05-0.949c-0.892,0-2.029,0.935-2.46,2.633l-0.72,2.878h-0.748l1.353-5.382h-1.151l0.172-0.661h1.856
			l-0.375,1.453c0.59-0.95,1.324-1.568,2.188-1.568c1.007,0,1.698,0.676,1.698,1.568c0,0.302-0.086,0.633-0.173,0.949l-0.619,2.115
			c-0.058,0.201-0.101,0.475-0.101,0.59c0,0.288,0.187,0.476,0.446,0.476c0.316,0,0.561-0.288,0.834-0.95l0.446,0.144
			c-0.288,0.85-0.719,1.353-1.381,1.353C169.103,118.748,168.643,118.331,168.643,117.727z"/>
		<path d="M174.269,113.281l-0.95,3.871c-0.043,0.187-0.072,0.346-0.072,0.518c0,0.202,0.172,0.446,0.503,0.446
			s0.72-0.216,1.31-0.604l0.316,0.446c-0.705,0.518-1.223,0.82-1.784,0.82c-0.676,0-1.137-0.432-1.137-1.008
			c0-0.172,0.043-0.388,0.101-0.633l0.964-3.856h-1.065l0.173-0.661h1.05l0.374-1.482l0.806-0.23l-0.432,1.713h1.871l-0.173,0.661
			H174.269z"/>
		<path d="M178.974,108.791h-1.151l0.158-0.662h1.899l-1.381,5.828c0.46-0.748,1.18-1.453,2.115-1.453
			c1.007,0,1.741,0.676,1.755,1.568c0,0.302-0.058,0.633-0.144,0.949l-0.575,2.13c-0.058,0.216-0.086,0.46-0.086,0.575
			c0,0.288,0.187,0.476,0.446,0.476c0.317,0,0.562-0.288,0.82-0.95l0.446,0.144c-0.273,0.85-0.691,1.353-1.353,1.353
			c-0.633,0-1.108-0.417-1.108-1.021c0-0.158,0.043-0.432,0.101-0.647l0.575-2.158c0.086-0.316,0.115-0.562,0.115-0.82
			c-0.014-0.547-0.475-0.949-1.093-0.949c-0.892,0-2.043,0.949-2.432,2.633l-0.662,2.878h-0.749L178.974,108.791z"/>
		<path d="M187.292,116.188c0-1.914,1.482-3.684,3.424-3.684c1.597,0,2.533,1.18,2.533,2.59c0,1.914-1.482,3.684-3.425,3.684
			C188.227,118.778,187.292,117.598,187.292,116.188z M192.486,115.079c0-1.151-0.777-1.899-1.813-1.899
			c-1.468,0-2.619,1.41-2.619,3.021c0,1.151,0.777,1.899,1.813,1.899C191.335,118.101,192.486,116.691,192.486,115.079z"/>
		<path d="M195.738,113.281h-1.093l0.158-0.661h1.079l0.547-2.331c0.187-0.807,0.446-1.252,0.849-1.655
			c0.302-0.302,0.791-0.547,1.381-0.547c0.619,0,1.007,0.288,1.007,0.734c0,0.345-0.288,0.59-0.575,0.59
			c-0.374,0-0.619-0.245-0.619-0.677c-0.245,0.029-0.489,0.13-0.705,0.346c-0.288,0.288-0.504,0.777-0.633,1.338l-0.503,2.202h1.568
			l-0.158,0.661h-1.569l-1.237,5.382h-0.748L195.738,113.281z"/>
		<path d="M205.034,110.518l-1.712,7.425h1.338l-0.173,0.72h-3.324l0.172-0.72h1.194l1.856-8.029h-1.338l0.173-0.719h2.029
			l3.871,7.813l1.626-7.095h-1.338l0.173-0.719h3.266l-0.172,0.719h-1.151l-2.029,8.792h-0.403L205.034,110.518z"/>
		<path d="M212.618,116.188c0-1.914,1.482-3.684,3.424-3.684c1.597,0,2.533,1.18,2.533,2.59c0,1.914-1.482,3.684-3.425,3.684
			C213.553,118.778,212.618,117.598,212.618,116.188z M217.812,115.079c0-1.151-0.777-1.899-1.813-1.899
			c-1.468,0-2.619,1.41-2.619,3.021c0,1.151,0.777,1.899,1.813,1.899C216.661,118.101,217.812,116.691,217.812,115.079z"/>
		<path d="M220.374,113.281h-1.137l0.173-0.661h1.669l0.777,5.237c1.194-1.338,2.201-2.993,2.475-4.015
			c-0.288-0.058-0.575-0.288-0.575-0.662s0.273-0.676,0.662-0.676s0.705,0.287,0.705,0.849c0,1.051-1.655,3.669-3.468,5.554h-0.288
			L220.374,113.281z"/>
		<path d="M226.807,115.842c-0.014,0.13-0.014,0.259-0.014,0.389c0,1.252,1.021,1.885,2.043,1.885c0.705,0,1.208-0.144,1.986-0.562
			l-0.173,0.777c-0.633,0.316-1.151,0.446-1.942,0.446c-1.396,0-2.662-0.906-2.662-2.532c0-2.044,1.597-3.741,3.381-3.741
			c1.367,0,2.202,0.863,2.202,2.144c0,0.374-0.086,0.763-0.245,1.194H226.807z M226.951,115.209h3.856
			c0.072-0.216,0.115-0.461,0.115-0.69c0-0.677-0.46-1.339-1.554-1.339C228.303,113.18,227.325,114.043,226.951,115.209z"/>
		<path d="M234.217,113.281h-1.151l0.172-0.661h1.856l-0.389,1.453c0.59-0.95,1.338-1.568,2.158-1.568
			c0.936,0,1.54,0.561,1.568,1.511c0.59-0.921,1.381-1.511,2.173-1.511c0.95,0,1.597,0.676,1.597,1.568
			c0,0.302-0.086,0.633-0.172,0.949l-0.619,2.115c-0.057,0.201-0.101,0.475-0.101,0.59c0,0.288,0.187,0.476,0.446,0.476
			c0.316,0,0.561-0.288,0.834-0.95l0.446,0.144c-0.288,0.85-0.719,1.353-1.381,1.353c-0.633,0-1.093-0.417-1.093-1.021
			c0-0.158,0.058-0.46,0.115-0.662l0.619-2.144c0.086-0.316,0.144-0.562,0.144-0.82c0-0.547-0.359-0.949-0.95-0.949
			c-0.863,0-1.942,0.935-2.388,2.647l-0.749,2.863h-0.748l0.964-3.741c0.086-0.316,0.144-0.562,0.144-0.82
			c0-0.547-0.374-0.949-0.964-0.949c-0.849,0-2,0.949-2.417,2.633l-0.72,2.878h-0.748L234.217,113.281z"/>
		<path d="M246.232,108.791h-1.151l0.158-0.662h1.899l-1.324,5.655c0.489-0.69,1.208-1.28,2.158-1.28
			c1.31,0,2.331,0.992,2.331,2.547c0,2.115-1.568,3.727-3.223,3.727c-1.065,0-1.842-0.619-2.058-1.54l-0.345,1.425h-0.749
			L246.232,108.791z M249.499,115.137c0-1.194-0.619-1.957-1.655-1.957c-1.439,0-2.576,1.713-2.576,3.123
			c0,1.05,0.676,1.798,1.799,1.798C248.492,118.101,249.499,116.633,249.499,115.137z"/>
		<path d="M252.348,115.842c-0.014,0.13-0.014,0.259-0.014,0.389c0,1.252,1.021,1.885,2.043,1.885c0.705,0,1.208-0.144,1.986-0.562
			l-0.173,0.777c-0.633,0.316-1.151,0.446-1.942,0.446c-1.396,0-2.662-0.906-2.662-2.532c0-2.044,1.597-3.741,3.381-3.741
			c1.367,0,2.202,0.863,2.202,2.144c0,0.374-0.086,0.763-0.245,1.194H252.348z M252.492,115.209h3.856
			c0.072-0.216,0.115-0.461,0.115-0.69c0-0.677-0.46-1.339-1.554-1.339C253.845,113.18,252.866,114.043,252.492,115.209z"/>
		<path d="M259.759,113.281h-1.151l0.172-0.661h1.856l-0.403,1.64c0.806-1.107,1.482-1.755,2.043-1.755
			c0.475,0,0.734,0.273,0.734,0.633c0,0.389-0.316,0.705-0.676,0.705c-0.331,0-0.561-0.201-0.633-0.489
			c-0.489,0.288-1.54,1.237-1.885,2.662l-0.662,2.647h-0.748L259.759,113.281z"/>
	</g>
	<g enable-background="new    ">
		<path d="M268.263,116.331c0-2.173,1.454-4.087,3.281-4.087c0.834,0,1.511,0.691,1.77,1.41l0.432-1.295h1.468l-1.079,4.288
			c-0.072,0.273-0.115,0.519-0.115,0.677c0,0.259,0.101,0.389,0.316,0.389c0.187,0,0.489-0.159,0.806-1.036l0.633,0.244
			c-0.432,1.482-1.237,1.856-1.928,1.856c-0.82,0-1.295-0.562-1.295-1.425c-0.518,0.777-1.281,1.425-2.259,1.425
			C269.112,118.778,268.263,117.799,268.263,116.331z M273.04,114.979c0-0.82-0.403-1.338-1.237-1.338
			c-1.051,0-1.899,1.18-1.899,2.46c0,0.748,0.374,1.339,1.137,1.339C272.09,117.44,273.04,116.331,273.04,114.979z"/>
		<path d="M278.379,120.188h0.906l1.511-6.504h-1.18l0.345-1.324h2.504l-0.317,1.439c0.518-0.82,1.353-1.555,2.317-1.555
			c1.453,0,2.173,1.008,2.173,2.476c0,2.173-1.454,4.058-3.353,4.058c-0.892,0-1.496-0.633-1.798-1.338l-0.633,2.748h1.123
			l-0.346,1.295h-3.597L278.379,120.188z M284.998,114.936c0-0.748-0.417-1.353-1.208-1.353c-1.094,0-2.043,1.122-2.043,2.475
			c0,0.82,0.417,1.324,1.281,1.324C284.12,117.382,284.998,116.216,284.998,114.936z"/>
		<path d="M288.941,113.684h-1.151l0.345-1.324h2.46l-0.403,1.842c0.734-1.338,1.482-1.957,2.23-1.957
			c0.532,0,1.05,0.418,1.05,1.036c0,0.547-0.446,0.993-0.993,0.993c-0.503,0-0.877-0.359-0.949-0.72
			c-0.461,0.145-1.194,0.965-1.511,2.245l-0.719,2.863h-1.612L288.941,113.684z"/>
		<path d="M293.488,115.914c0-1.885,1.482-3.67,3.568-3.67c1.899,0,2.964,1.339,2.964,2.864c0,1.885-1.482,3.669-3.569,3.669
			C294.553,118.778,293.488,117.44,293.488,115.914z M298.424,115.109c0-1.022-0.647-1.555-1.425-1.555
			c-1.05,0-1.914,1.008-1.914,2.36c0,1.021,0.647,1.554,1.424,1.554C297.561,117.468,298.424,116.461,298.424,115.109z"/>
		<path d="M299.82,120.188h0.906l1.511-6.504h-1.18l0.345-1.324h2.504l-0.317,1.439c0.518-0.82,1.353-1.555,2.317-1.555
			c1.453,0,2.173,1.008,2.173,2.476c0,2.173-1.454,4.058-3.353,4.058c-0.892,0-1.496-0.633-1.798-1.338l-0.633,2.748h1.123
			l-0.346,1.295h-3.597L299.82,120.188z M306.439,114.936c0-0.748-0.417-1.353-1.208-1.353c-1.094,0-2.043,1.122-2.043,2.475
			c0,0.82,0.417,1.324,1.281,1.324C305.562,117.382,306.439,116.216,306.439,114.936z"/>
		<path d="M310.626,116.043v0.101c0,0.705,0.576,1.324,1.77,1.324c0.633,0,1.295-0.144,2.086-0.562l-0.302,1.439
			c-0.662,0.316-1.209,0.432-2.144,0.432c-1.54,0-2.964-0.964-2.964-2.705c0-2.145,1.525-3.828,3.411-3.828
			c1.597,0,2.705,0.864,2.705,2.433c0,0.402-0.072,0.863-0.23,1.366H310.626z M310.799,114.95h2.82
			c0.043-0.159,0.057-0.303,0.057-0.432c0-0.619-0.403-0.979-1.165-0.979C311.72,113.54,311.102,114.086,310.799,114.95z"/>
		<path d="M317.433,113.684h-1.151l0.345-1.324h2.46l-0.403,1.842c0.734-1.338,1.482-1.957,2.23-1.957
			c0.532,0,1.05,0.418,1.05,1.036c0,0.547-0.446,0.993-0.993,0.993c-0.503,0-0.877-0.359-0.949-0.72
			c-0.461,0.145-1.194,0.965-1.511,2.245l-0.719,2.863h-1.612L317.433,113.684z"/>
		<path d="M326.182,113.684h-1.151l0.345-1.324h2.187l0.216,4.576l2-3.929h1.05l0.748,3.986c0.763-1.166,1.396-2.245,1.497-2.921
			c-0.331-0.101-0.647-0.418-0.647-0.893c0-0.518,0.417-0.936,0.935-0.936c0.676,0,1.137,0.489,1.137,1.296
			c0,0.935-0.806,2.575-2.748,5.237h-1.065l-0.748-3.468l-1.971,3.468h-1.209L326.182,113.684z"/>
		<path d="M336.831,116.043v0.101c0,0.705,0.576,1.324,1.77,1.324c0.633,0,1.295-0.144,2.086-0.562l-0.302,1.439
			c-0.662,0.316-1.209,0.432-2.144,0.432c-1.54,0-2.964-0.964-2.964-2.705c0-2.145,1.525-3.828,3.411-3.828
			c1.597,0,2.705,0.864,2.705,2.433c0,0.402-0.072,0.863-0.23,1.366H336.831z M337.003,114.95h2.82
			c0.043-0.159,0.057-0.303,0.057-0.432c0-0.619-0.403-0.979-1.165-0.979C337.924,113.54,337.306,114.086,337.003,114.95z"/>
		<path d="M342.5,117.353c0-0.216,0.029-0.446,0.086-0.69l1.669-7.209h-1.18l0.345-1.324h2.734l-1.971,8.519
			c-0.058,0.259-0.101,0.461-0.101,0.619c0,0.316,0.101,0.446,0.331,0.446c0.259,0,0.533-0.159,0.849-1.036l0.633,0.244
			c-0.432,1.482-1.151,1.856-1.971,1.856C342.946,118.778,342.5,118.216,342.5,117.353z"/>
		<path d="M346.63,115.914c0-2.044,1.727-3.67,3.755-3.67c1.267,0,2.36,0.763,2.36,1.871c0,0.619-0.36,1.137-0.964,1.137
			c-0.504,0-0.907-0.403-0.907-0.906c0-0.23,0.086-0.432,0.216-0.604c-0.187-0.13-0.46-0.188-0.748-0.188
			c-0.921,0-2.115,0.647-2.115,2.245c0,1.064,0.734,1.669,1.655,1.669c0.734,0,1.482-0.259,2.129-0.705l-0.014,1.396
			c-0.59,0.403-1.367,0.619-2.216,0.619C348.011,118.778,346.63,117.713,346.63,115.914z"/>
		<path d="M353.652,115.914c0-1.885,1.482-3.67,3.568-3.67c1.899,0,2.964,1.339,2.964,2.864c0,1.885-1.482,3.669-3.569,3.669
			C354.717,118.778,353.652,117.44,353.652,115.914z M358.588,115.109c0-1.022-0.647-1.555-1.425-1.555
			c-1.05,0-1.914,1.008-1.914,2.36c0,1.021,0.647,1.554,1.424,1.554C357.725,117.468,358.588,116.461,358.588,115.109z"/>
		<path d="M362.315,113.684h-1.151l0.345-1.324h2.46l-0.316,1.454c0.432-0.807,1.208-1.569,2.014-1.569
			c0.892,0,1.482,0.648,1.583,1.569c0.547-0.965,1.324-1.569,2.043-1.569c0.878,0,1.612,0.648,1.612,1.886
			c0,0.316-0.043,0.661-0.158,1.05l-0.46,1.655c-0.043,0.173-0.072,0.316-0.072,0.445c0,0.288,0.115,0.433,0.331,0.433
			s0.489-0.159,0.806-1.036l0.633,0.244c-0.374,1.31-1.05,1.856-1.899,1.856c-0.993,0-1.468-0.59-1.468-1.396
			c0-0.23,0.029-0.476,0.101-0.72l0.446-1.598c0.072-0.229,0.101-0.445,0.101-0.618c0-0.576-0.375-0.878-0.792-0.878
			c-0.619,0-1.065,0.504-1.31,1.525l-0.892,3.568h-1.611l0.906-3.568c0.058-0.245,0.101-0.519,0.101-0.69
			c0-0.476-0.345-0.835-0.791-0.835c-0.619,0-1.065,0.504-1.31,1.525l-0.892,3.568h-1.612L362.315,113.684z"/>
		<path d="M374.258,116.043v0.101c0,0.705,0.576,1.324,1.77,1.324c0.633,0,1.295-0.144,2.086-0.562l-0.302,1.439
			c-0.662,0.316-1.209,0.432-2.144,0.432c-1.54,0-2.964-0.964-2.964-2.705c0-2.145,1.525-3.828,3.411-3.828
			c1.597,0,2.705,0.864,2.705,2.433c0,0.402-0.072,0.863-0.23,1.366H374.258z M374.431,114.95h2.82
			c0.043-0.159,0.057-0.303,0.057-0.432c0-0.619-0.403-0.979-1.165-0.979C375.352,113.54,374.733,114.086,374.431,114.95z"/>
	</g>
	<g enable-background="new    ">
		<path d="M95.988,128.837H94.88l0.172-0.661h1.583l0.359,4.892l2.475-4.101h0.23l0.964,4.288c0.964-1.425,1.77-2.85,1.885-3.856
			c-0.302-0.058-0.59-0.273-0.59-0.662c0-0.374,0.273-0.676,0.662-0.676c0.388,0,0.705,0.302,0.705,0.776
			c0,1.238-1.079,3.238-2.777,5.626h-0.259l-0.921-4.229l-2.619,4.229h-0.273L95.988,128.837z"/>
		<path d="M104.766,133.283c0-0.158,0.058-0.446,0.115-0.647l1.064-3.799h-1.208l0.173-0.661h1.971l-1.266,4.532
			c-0.058,0.201-0.101,0.46-0.101,0.575c0,0.288,0.187,0.476,0.446,0.476c0.316,0,0.561-0.288,0.834-0.95l0.446,0.144
			c-0.288,0.85-0.72,1.353-1.381,1.353C105.227,134.305,104.766,133.888,104.766,133.283z M106.09,126.219
			c0-0.346,0.273-0.634,0.619-0.634c0.331,0,0.604,0.288,0.604,0.634c0,0.345-0.273,0.633-0.604,0.633
			C106.363,126.852,106.09,126.564,106.09,126.219z"/>
		<path d="M110.637,128.837l-0.95,3.871c-0.043,0.187-0.072,0.346-0.072,0.518c0,0.202,0.172,0.446,0.503,0.446
			s0.72-0.216,1.31-0.604l0.316,0.446c-0.705,0.518-1.223,0.82-1.784,0.82c-0.676,0-1.137-0.432-1.137-1.008
			c0-0.172,0.043-0.388,0.101-0.633l0.964-3.856h-1.065l0.173-0.661h1.05l0.374-1.482l0.806-0.23l-0.432,1.713h1.871l-0.173,0.661
			H110.637z"/>
		<path d="M115.342,124.348h-1.151l0.158-0.662h1.899l-1.381,5.828c0.46-0.748,1.18-1.453,2.115-1.453
			c1.007,0,1.741,0.676,1.755,1.568c0,0.302-0.058,0.633-0.144,0.949l-0.575,2.13c-0.058,0.216-0.086,0.46-0.086,0.575
			c0,0.288,0.187,0.476,0.446,0.476c0.317,0,0.562-0.288,0.82-0.95l0.446,0.144c-0.273,0.85-0.691,1.353-1.353,1.353
			c-0.633,0-1.108-0.417-1.108-1.021c0-0.158,0.043-0.432,0.101-0.647l0.575-2.158c0.086-0.316,0.115-0.562,0.115-0.82
			c-0.014-0.547-0.475-0.949-1.093-0.949c-0.892,0-2.043,0.949-2.432,2.633l-0.662,2.878h-0.749L115.342,124.348z"/>
		<path d="M123.674,131.83c0-2.058,1.497-3.77,3.238-3.77c1.093,0,1.813,0.604,1.985,1.568l0.36-1.525h0.748l-1.122,4.604
			c-0.058,0.23-0.101,0.46-0.101,0.575c0,0.288,0.188,0.476,0.446,0.476c0.316,0,0.561-0.288,0.834-0.95l0.446,0.144
			c-0.288,0.85-0.72,1.353-1.381,1.353c-0.633,0-1.065-0.402-1.065-0.964v-0.244c-0.532,0.705-1.281,1.237-2.158,1.237
			C124.595,134.334,123.674,133.384,123.674,131.83z M128.61,130.55c0-1.079-0.576-1.813-1.669-1.813
			c-1.453,0-2.46,1.511-2.46,3.079c0,1.123,0.547,1.842,1.583,1.842C127.631,133.657,128.61,131.903,128.61,130.55z"/>
	</g>
	<g enable-background="new    ">
		<path d="M133.285,135.744h0.907l1.511-6.504h-1.18l0.345-1.324h2.504l-0.317,1.439c0.518-0.82,1.353-1.555,2.317-1.555
			c1.453,0,2.173,1.008,2.173,2.476c0,2.173-1.454,4.058-3.353,4.058c-0.892,0-1.496-0.633-1.798-1.338l-0.633,2.748h1.123
			l-0.346,1.295h-3.597L133.285,135.744z M139.904,130.492c0-0.748-0.417-1.353-1.208-1.353c-1.094,0-2.043,1.122-2.043,2.475
			c0,0.82,0.417,1.324,1.281,1.324C139.027,132.939,139.904,131.773,139.904,130.492z"/>
		<path d="M143.847,129.24h-1.151l0.345-1.324h2.46l-0.403,1.842c0.734-1.338,1.482-1.957,2.23-1.957c0.532,0,1.05,0.418,1.05,1.036
			c0,0.547-0.446,0.993-0.993,0.993c-0.503,0-0.877-0.359-0.949-0.72c-0.461,0.145-1.194,0.965-1.511,2.245l-0.719,2.863h-1.612
			L143.847,129.24z"/>
		<path d="M149.935,131.6v0.101c0,0.705,0.576,1.324,1.77,1.324c0.633,0,1.295-0.144,2.086-0.562l-0.302,1.439
			c-0.662,0.316-1.208,0.432-2.144,0.432c-1.54,0-2.964-0.964-2.964-2.705c0-2.145,1.525-3.828,3.411-3.828
			c1.597,0,2.705,0.864,2.705,2.433c0,0.402-0.072,0.863-0.23,1.366H149.935z M150.107,130.507h2.82
			c0.043-0.159,0.057-0.303,0.057-0.432c0-0.619-0.403-0.979-1.166-0.979C151.028,129.097,150.41,129.643,150.107,130.507z"/>
		<path d="M156.18,129.341h4.173l-0.374,1.611h-4.173L156.18,129.341z"/>
		<path d="M165.835,132.766h1.108l1.54-6.604h-1.741l-0.331,1.496h-1.554l0.676-2.906h8.159l-0.662,2.906h-1.54l0.331-1.496h-1.712
			l-1.54,6.604h1.252l-0.331,1.453h-3.986L165.835,132.766z"/>
		<path d="M174.843,125.01h-1.18l0.346-1.324h2.69l-1.237,5.382c0.432-0.662,1.166-1.267,1.928-1.267
			c0.906,0,1.684,0.648,1.684,1.886c0,0.316-0.043,0.661-0.158,1.05l-0.46,1.655c-0.043,0.173-0.072,0.316-0.072,0.445
			c0,0.288,0.115,0.433,0.331,0.433s0.489-0.159,0.806-1.036l0.633,0.244c-0.374,1.31-1.05,1.856-1.899,1.856
			c-0.993,0-1.468-0.59-1.468-1.396c0-0.23,0.029-0.476,0.101-0.72l0.475-1.698c0.058-0.187,0.072-0.359,0.072-0.518
			c0-0.547-0.331-0.878-0.863-0.878c-0.676,0-1.151,0.446-1.381,1.438l-0.849,3.655h-1.612L174.843,125.01z"/>
		<path d="M180.872,131.888c0-2.173,1.454-4.087,3.281-4.087c0.834,0,1.511,0.691,1.77,1.41l0.432-1.295h1.468l-1.079,4.288
			c-0.072,0.273-0.115,0.519-0.115,0.677c0,0.259,0.101,0.389,0.316,0.389c0.187,0,0.489-0.159,0.806-1.036l0.633,0.244
			c-0.432,1.482-1.237,1.856-1.928,1.856c-0.82,0-1.295-0.562-1.295-1.425c-0.518,0.777-1.281,1.425-2.259,1.425
			C181.721,134.334,180.872,133.356,180.872,131.888z M185.649,130.535c0-0.82-0.403-1.338-1.237-1.338
			c-1.051,0-1.899,1.18-1.899,2.46c0,0.748,0.374,1.339,1.137,1.339C184.7,132.996,185.649,131.888,185.649,130.535z"/>
		<path d="M193.334,132.939c0-0.23,0.029-0.476,0.101-0.72l0.475-1.698c0.058-0.187,0.072-0.359,0.072-0.518
			c0-0.547-0.331-0.878-0.863-0.878c-0.676,0-1.123,0.475-1.353,1.41l-0.921,3.684h-1.612l1.252-4.979h-1.151l0.345-1.324h2.46
			l-0.316,1.454c0.432-0.807,1.295-1.569,2.144-1.569c0.906,0,1.654,0.648,1.654,1.886c0,0.316-0.043,0.661-0.158,1.05l-0.46,1.655
			c-0.043,0.173-0.072,0.316-0.072,0.445c0,0.288,0.115,0.433,0.331,0.433s0.489-0.159,0.806-1.036l0.633,0.244
			c-0.375,1.31-1.051,1.856-1.899,1.856C193.809,134.334,193.334,133.744,193.334,132.939z"/>
		<path d="M197.162,134.219l2.115-9.209h-1.18l0.345-1.324h2.69l-1.64,7.123c1.597-0.475,2.331-0.906,2.604-1.338
			c-0.288-0.202-0.432-0.446-0.432-0.749c0-0.503,0.432-0.921,0.935-0.921c0.547,0,0.993,0.433,0.993,1.08
			c0,0.992-0.691,1.812-2.302,2.547l0.575,1.251c0.101,0.216,0.187,0.375,0.273,0.476c0.072,0.086,0.144,0.115,0.23,0.115
			c0.187,0,0.374-0.23,0.647-1.181l0.633,0.202c-0.374,1.712-1.021,2.043-1.712,2.043c-0.273,0-0.576-0.072-0.82-0.273
			c-0.216-0.173-0.403-0.417-0.547-0.763l-0.662-1.525l-0.604,0.188l-0.532,2.259H197.162z"/>
		<path d="M204.861,133.542c-0.259-0.259-0.417-0.561-0.417-0.892c0-0.547,0.36-0.893,0.82-0.893c0.432,0,0.792,0.36,0.792,0.792
			c0,0.115-0.043,0.287-0.086,0.345c0.058,0.044,0.129,0.087,0.216,0.13c0.288,0.13,0.662,0.188,1.05,0.188
			c0.59,0,1.137-0.173,1.137-0.591c0-0.475-0.662-0.69-1.367-0.992c-0.82-0.331-1.712-0.777-1.712-1.842
			c0-1.021,0.863-1.986,2.604-1.986c0.892,0,1.654,0.288,2.086,0.734c0.244,0.244,0.374,0.547,0.374,0.863
			c0,0.532-0.374,0.878-0.82,0.878c-0.432,0-0.806-0.374-0.806-0.806c0-0.115,0.014-0.173,0.086-0.346
			c-0.058-0.028-0.115-0.058-0.202-0.086c-0.202-0.072-0.46-0.115-0.705-0.115c-0.518,0-1.05,0.158-1.05,0.575
			c0,0.446,0.676,0.69,1.396,1.008c0.82,0.359,1.684,0.834,1.684,1.827c0,1.266-0.993,2-2.719,2
			C206.185,134.334,205.335,134.018,204.861,133.542z"/>
		<path d="M211.005,136.334c-0.302-0.302-0.403-0.562-0.403-0.936c0-0.59,0.417-0.949,0.906-0.949s0.892,0.389,0.892,0.878
			c0,0.114-0.028,0.273-0.072,0.345c0.129,0.087,0.46,0.188,0.878,0.188c0.547,0,0.95-0.145,1.28-0.476
			c0.302-0.302,0.46-0.776,0.604-1.409l0.245-1.051c-0.532,0.676-1.223,1.165-2.072,1.165c-1.454,0-2.202-1.007-2.202-2.46
			c0-2,1.31-3.828,3.295-3.828c0.993,0,1.583,0.72,1.842,1.324l0.403-1.209h1.439l-1.482,6.461c-0.187,0.82-0.432,1.453-0.892,1.914
			c-0.547,0.547-1.295,0.806-2.374,0.806C212.386,137.097,211.422,136.751,211.005,136.334z M215.955,130.463
			c0-0.776-0.59-1.266-1.338-1.266c-1.051,0-1.914,0.992-1.914,2.287c0,0.777,0.576,1.267,1.324,1.267
			C215.077,132.751,215.955,131.758,215.955,130.463z"/>
		<path d="M219.179,132.924c0-0.216,0.029-0.461,0.086-0.705l0.734-2.979h-1.137l0.345-1.324h2.734l-1.079,4.288
			c-0.072,0.273-0.101,0.504-0.101,0.662c0,0.273,0.129,0.403,0.345,0.403c0.259,0,0.532-0.159,0.849-1.036l0.633,0.244
			c-0.432,1.482-1.151,1.856-1.971,1.856C219.639,134.334,219.179,133.773,219.179,132.924z M220.315,126.074
			c0-0.547,0.446-0.964,0.979-0.964s0.979,0.417,0.979,0.964s-0.446,0.965-0.979,0.965S220.315,126.621,220.315,126.074z"/>
		<path d="M224.272,129.24h-1.051l0.346-1.324h2.043l0.691,4.72c1.05-1.107,1.727-2.058,1.942-2.936
			c-0.331-0.144-0.619-0.46-0.619-0.921c0-0.546,0.432-0.979,0.993-0.979c0.647,0,1.123,0.504,1.123,1.281
			c0,1.481-1.166,3.18-3.31,5.252h-1.18L224.272,129.24z"/>
		<path d="M231.036,132.924c0-0.216,0.029-0.461,0.086-0.705l0.734-2.979h-1.137l0.345-1.324h2.734l-1.079,4.288
			c-0.072,0.273-0.101,0.504-0.101,0.662c0,0.273,0.129,0.403,0.345,0.403c0.259,0,0.532-0.159,0.849-1.036l0.633,0.244
			c-0.432,1.482-1.151,1.856-1.971,1.856C231.496,134.334,231.036,133.773,231.036,132.924z M232.172,126.074
			c0-0.547,0.446-0.964,0.979-0.964s0.979,0.417,0.979,0.964s-0.446,0.965-0.979,0.965S232.172,126.621,232.172,126.074z"/>
		<path d="M239.396,132.939c0-0.23,0.029-0.476,0.101-0.72l0.475-1.698c0.058-0.187,0.072-0.359,0.072-0.518
			c0-0.547-0.331-0.878-0.863-0.878c-0.676,0-1.123,0.475-1.353,1.41l-0.921,3.684h-1.612l1.252-4.979h-1.151l0.345-1.324h2.46
			l-0.316,1.454c0.432-0.807,1.295-1.569,2.144-1.569c0.906,0,1.654,0.648,1.654,1.886c0,0.316-0.043,0.661-0.158,1.05l-0.46,1.655
			c-0.043,0.173-0.072,0.316-0.072,0.445c0,0.288,0.115,0.433,0.331,0.433s0.489-0.159,0.806-1.036l0.633,0.244
			c-0.375,1.31-1.051,1.856-1.899,1.856C239.871,134.334,239.396,133.744,239.396,132.939z"/>
		<path d="M243.469,136.334c-0.302-0.302-0.403-0.562-0.403-0.936c0-0.59,0.417-0.949,0.906-0.949s0.892,0.389,0.892,0.878
			c0,0.114-0.028,0.273-0.072,0.345c0.129,0.087,0.46,0.188,0.878,0.188c0.547,0,0.95-0.145,1.28-0.476
			c0.302-0.302,0.46-0.776,0.604-1.409l0.245-1.051c-0.532,0.676-1.223,1.165-2.072,1.165c-1.454,0-2.202-1.007-2.202-2.46
			c0-2,1.31-3.828,3.295-3.828c0.993,0,1.583,0.72,1.842,1.324l0.403-1.209h1.439l-1.482,6.461c-0.187,0.82-0.432,1.453-0.892,1.914
			c-0.547,0.547-1.295,0.806-2.374,0.806C244.85,137.097,243.886,136.751,243.469,136.334z M248.418,130.463
			c0-0.776-0.59-1.266-1.338-1.266c-1.051,0-1.914,0.992-1.914,2.287c0,0.777,0.576,1.267,1.324,1.267
			C247.541,132.751,248.418,131.758,248.418,130.463z"/>
		<path d="M257.052,129.24l-0.676,2.733c-0.058,0.23-0.101,0.461-0.101,0.576c0,0.432,0.216,0.575,0.46,0.575
			c0.331,0,0.576-0.086,1.208-0.504l0.518,0.72c-0.863,0.82-1.655,0.993-2.273,0.993c-0.834,0-1.54-0.446-1.54-1.511
			c0-0.245,0.058-0.532,0.129-0.85l0.676-2.733h-1.166l0.302-1.324h1.18l0.346-1.366l1.77-0.634l-0.503,2h1.914l-0.331,1.324
			H257.052z"/>
		<path d="M260.808,129.24h-1.151l0.345-1.324h2.46l-0.403,1.842c0.734-1.338,1.482-1.957,2.23-1.957c0.532,0,1.05,0.418,1.05,1.036
			c0,0.547-0.446,0.993-0.993,0.993c-0.503,0-0.877-0.359-0.949-0.72c-0.461,0.145-1.194,0.965-1.511,2.245l-0.719,2.863h-1.612
			L260.808,129.24z"/>
		<path d="M268.852,127.916l-0.906,3.641c-0.043,0.201-0.086,0.389-0.086,0.562c0,0.575,0.288,0.892,0.777,0.892
			c0.763,0,1.166-0.489,1.396-1.41l0.921-3.684h1.611l-1.079,4.288c-0.072,0.273-0.115,0.519-0.115,0.677
			c0,0.259,0.101,0.389,0.317,0.389c0.187,0,0.489-0.159,0.806-1.036l0.633,0.244c-0.432,1.482-1.238,1.856-1.928,1.856
			c-0.806,0-1.295-0.547-1.31-1.396c-0.518,0.849-1.295,1.396-2.101,1.396c-0.82,0-1.568-0.647-1.568-1.741
			c0-0.331,0.058-0.748,0.158-1.18l0.532-2.173h-1.137l0.345-1.324H268.852z"/>
		<path d="M274.306,127.916h1.05l0.374-1.611c0.115-0.532,0.331-1.007,0.619-1.381c0.532-0.677,1.324-1.065,2.331-1.065
			c0.806,0,1.266,0.446,1.266,1.021c0,0.504-0.403,0.907-0.907,0.907c-0.403,0-0.69-0.23-0.834-0.562
			c-0.23,0.058-0.432,0.201-0.576,0.389c-0.172,0.201-0.288,0.475-0.359,0.791l-0.346,1.511h2.633l0.475-2.014
			c0.115-0.489,0.316-0.921,0.604-1.281c0.518-0.647,1.31-1.05,2.317-1.05c0.719,0,1.295,0.273,1.698,0.705l0.403-0.591h1.036
			l-1.971,8.519c-0.058,0.259-0.101,0.461-0.101,0.619c0,0.316,0.101,0.446,0.331,0.446c0.259,0,0.533-0.159,0.849-1.036
			l0.633,0.244c-0.432,1.482-1.151,1.856-1.972,1.856c-0.979,0-1.424-0.562-1.424-1.425c0-0.216,0.029-0.446,0.086-0.69l0.69-2.979
			h-2.403l-1.137,4.979h-1.554l1.137-4.979h-2.633l-1.137,4.979h-1.554l1.122-4.979h-1.093L274.306,127.916z M281.112,127.916h2.403
			l0.259-1.15c-0.359-0.158-0.561-0.504-0.561-0.893c0-0.288,0.129-0.532,0.317-0.705c-0.188-0.158-0.432-0.259-0.677-0.259
			c-0.403,0-0.733,0.158-0.964,0.446c-0.173,0.201-0.288,0.475-0.36,0.791L281.112,127.916z"/>
		<path d="M288.106,131.6v0.101c0,0.705,0.576,1.324,1.77,1.324c0.633,0,1.295-0.144,2.086-0.562l-0.302,1.439
			c-0.662,0.316-1.209,0.432-2.144,0.432c-1.54,0-2.964-0.964-2.964-2.705c0-2.145,1.525-3.828,3.411-3.828
			c1.597,0,2.705,0.864,2.705,2.433c0,0.402-0.072,0.863-0.23,1.366H288.106z M288.279,130.507h2.82
			c0.043-0.159,0.057-0.303,0.057-0.432c0-0.619-0.403-0.979-1.165-0.979C289.2,129.097,288.581,129.643,288.279,130.507z"/>
		<path d="M295.416,135.744h0.906l1.511-6.504h-1.18l0.345-1.324h2.504l-0.317,1.439c0.518-0.82,1.353-1.555,2.317-1.555
			c1.453,0,2.173,1.008,2.173,2.476c0,2.173-1.454,4.058-3.353,4.058c-0.892,0-1.496-0.633-1.798-1.338l-0.633,2.748h1.123
			l-0.346,1.295h-3.597L295.416,135.744z M302.035,130.492c0-0.748-0.417-1.353-1.208-1.353c-1.094,0-2.043,1.122-2.043,2.475
			c0,0.82,0.417,1.324,1.281,1.324C301.157,132.939,302.035,131.773,302.035,130.492z"/>
		<path d="M304.697,131.888c0-2.173,1.454-4.087,3.281-4.087c0.834,0,1.511,0.691,1.77,1.41l0.432-1.295h1.468l-1.079,4.288
			c-0.072,0.273-0.115,0.519-0.115,0.677c0,0.259,0.101,0.389,0.316,0.389c0.187,0,0.489-0.159,0.806-1.036l0.633,0.244
			c-0.432,1.482-1.237,1.856-1.928,1.856c-0.82,0-1.295-0.562-1.295-1.425c-0.518,0.777-1.281,1.425-2.259,1.425
			C305.546,134.334,304.697,133.356,304.697,131.888z M309.475,130.535c0-0.82-0.403-1.338-1.237-1.338
			c-1.051,0-1.899,1.18-1.899,2.46c0,0.748,0.374,1.339,1.137,1.339C308.525,132.996,309.475,131.888,309.475,130.535z"/>
		<path d="M314.31,129.24h-1.151l0.345-1.324h2.46l-0.403,1.842c0.734-1.338,1.482-1.957,2.23-1.957c0.532,0,1.05,0.418,1.05,1.036
			c0,0.547-0.446,0.993-0.993,0.993c-0.503,0-0.877-0.359-0.95-0.72c-0.46,0.145-1.194,0.965-1.511,2.245l-0.719,2.863h-1.612
			L314.31,129.24z"/>
		<path d="M322.008,129.24l-0.676,2.733c-0.058,0.23-0.101,0.461-0.101,0.576c0,0.432,0.216,0.575,0.46,0.575
			c0.331,0,0.576-0.086,1.208-0.504l0.518,0.72c-0.863,0.82-1.655,0.993-2.273,0.993c-0.834,0-1.54-0.446-1.54-1.511
			c0-0.245,0.058-0.532,0.129-0.85l0.676-2.733h-1.166l0.302-1.324h1.18l0.346-1.366l1.77-0.634l-0.503,2h1.914l-0.331,1.324
			H322.008z"/>
		<path d="M322.656,136.061c0-0.547,0.432-0.906,0.906-0.906c0.36,0,0.705,0.229,0.82,0.59c0.331-0.043,0.849-0.532,2.015-1.914
			l-0.95-4.59h-1.065l0.345-1.324h2.058l0.749,4.705c0.877-1.15,1.583-2.114,1.813-2.921c-0.345-0.144-0.619-0.46-0.619-0.921
			c0-0.546,0.432-0.979,0.993-0.979c0.719,0,1.137,0.519,1.137,1.31c0,0.691-0.345,1.871-2.705,4.734
			c-2.432,2.949-3.266,3.252-4.273,3.252C323.117,137.097,322.656,136.593,322.656,136.061z"/>
		<path d="M331.405,133.155c0-0.662,0.532-1.194,1.18-1.194c0.647,0,1.18,0.532,1.18,1.194c0,0.647-0.532,1.18-1.18,1.18
			C331.937,134.334,331.405,133.802,331.405,133.155z"/>
	</g>
</g>
<g enable-background="new    ">
	<path d="M66.182,96.793h2.949l4.584-19.83h-3.305l0.426-1.776h8.28l-0.426,1.776h-2.95l-1.99,8.672h13.611l1.955-8.672h-3.305
		l0.426-1.776h8.28l-0.426,1.776h-2.95l-4.584,19.83h3.305l-0.427,1.777h-8.28l0.427-1.777h2.949l2.204-9.346H73.325l-2.168,9.346
		h3.305l-0.427,1.777h-8.28L66.182,96.793z"/>
	<path d="M92.553,96.793h2.168l11.87-19.83h-2.772l0.426-1.776h9.667l-0.427,1.776h-2.701l2.701,19.83h2.523l-0.427,1.777h-7.179
		l0.427-1.777h2.594l-0.853-6.609h-9.773l-3.909,6.609h3.021l-0.427,1.777h-7.356L92.553,96.793z M110.322,88.406l-1.528-11.62
		l-6.93,11.62H110.322z"/>
	<path d="M118.746,96.793h3.305l4.549-19.83h-3.305l0.427-1.776h8.636l-0.427,1.776h-3.305l-4.549,19.83h3.305l-0.426,1.777h-8.636
		L118.746,96.793z"/>
	<path d="M131.257,96.793h2.949l4.584-19.83h-3.305l0.426-1.776h8.458l-0.426,1.776h-3.127l-4.584,19.83h8.671l0.888-3.695h1.955
		l-1.279,5.473H130.83L131.257,96.793z"/>
</g>
<g enable-background="new    ">
	<path d="M161.881,84.635h-3.109l0.42-1.598h7.957l-0.42,1.598h-3.11l-2.213,8.208h-1.723L161.881,84.635z"/>
	<path d="M166.638,88.711c0-2.97,2.423-5.842,5.827-5.842c2.633,0,4.413,1.863,4.413,4.301c0,2.97-2.423,5.841-5.827,5.841
		C168.417,93.011,166.638,91.148,166.638,88.711z M175.071,87.268c0-1.61-1.022-2.815-2.788-2.815c-2.269,0-3.838,2.157-3.838,4.16
		c0,1.625,1.022,2.815,2.788,2.815C173.502,91.428,175.071,89.271,175.071,87.268z"/>
	<path d="M185.021,84.635h-3.109l0.42-1.598h7.957l-0.42,1.598h-3.11l-2.213,8.208h-1.723L185.021,84.635z"/>
	<path d="M191.881,83.037h1.723l-1.092,4.076h4.608l1.093-4.076h1.737l-2.633,9.806h-1.737l1.121-4.132h-4.608l-1.121,4.132h-1.723
		L191.881,83.037z"/>
	<path d="M202.395,83.037h7.2l-0.42,1.541h-5.477l-0.687,2.563h4.847l-0.406,1.527h-4.86l-0.701,2.633h5.561l-0.42,1.541h-7.27
		L202.395,83.037z"/>
</g>
<g enable-background="new    ">
	<path d="M222.217,96.793h3.127l4.549-19.83h-6.503l-0.853,3.696h-1.955l1.279-5.473h18.942l-1.279,5.473h-1.955l0.853-3.696h-6.503
		l-4.549,19.83h3.483l-0.426,1.777h-8.636L222.217,96.793z"/>
	<path d="M239.597,96.793h2.949l4.584-19.83h-3.305l0.426-1.776h7.001c3.021,0,5.259,0.711,6.681,2.132
		c1.03,1.031,1.528,2.382,1.528,3.98c0,3.482-2.523,6.29-6.858,7.179l3.98,8.315h2.736l-0.426,1.777h-3.731l-4.62-9.844
		c-0.462,0.035-0.959,0.035-1.457,0.035c-0.924,0-1.883-0.035-2.63-0.071l-1.883,8.103h3.305l-0.427,1.777h-8.28L239.597,96.793z
		 M257.437,81.37c0-1.138-0.355-2.097-1.137-2.879c-1.031-1.03-2.843-1.528-5.153-1.528h-1.99l-2.31,9.951
		c0.853,0.035,1.706,0.071,3.127,0.071C254.629,86.986,257.437,84.64,257.437,81.37z"/>
	<path d="M264.369,92.244c0-0.781,0.106-1.67,0.32-2.559l2.949-12.723h-3.305l0.426-1.776h8.28l-0.426,1.776h-2.95l-2.95,12.83
		c-0.178,0.816-0.284,1.634-0.284,2.381c0,2.914,1.563,5.046,5.65,5.046c3.909,0,6.112-2.701,6.895-6.184l3.198-14.073h-3.305
		l0.427-1.776h8.28l-0.427,1.776h-2.95l-3.305,14.394c-0.995,4.406-3.803,7.641-8.991,7.641
		C266.963,98.997,264.369,96.225,264.369,92.244z"/>
	<path d="M286.191,96.793h2.949l4.584-19.83h-3.305l0.426-1.776h16.489l-1.244,5.295h-1.955l0.817-3.519h-9.204l-2.132,9.205h7.605
		l-0.391,1.776h-7.605l-2.061,8.849h3.483l-0.427,1.777h-8.458L286.191,96.793z"/>
	<path d="M306.308,96.793h2.949l4.584-19.83h-3.305l0.426-1.776h16.489l-1.244,5.295h-1.955l0.817-3.519h-9.204l-2.132,9.205h7.605
		l-0.391,1.776h-7.605l-2.061,8.849h3.483l-0.427,1.777h-8.458L306.308,96.793z"/>
	<path d="M326.424,96.793h2.949l4.584-19.83h-3.305l0.426-1.776h8.458l-0.426,1.776h-3.127l-4.584,19.83h8.671l0.888-3.695h1.955
		l-1.279,5.473h-15.637L326.424,96.793z"/>
	<path d="M346.042,96.793h2.949l4.584-19.83h-3.305l0.426-1.776h16.774l-1.244,5.295h-1.955l0.817-3.519h-9.488l-2.026,8.778h7.748
		l-0.391,1.777h-7.747l-2.168,9.274h9.489l0.817-3.518h1.955l-1.208,5.295h-16.454L346.042,96.793z"/>
</g>
<line fill="none" stroke="#000000" x1="157.298" y1="77.743" x2="212.143" y2="77.743"/>
<line fill="none" stroke="#000000" x1="154.316" y1="97.189" x2="209.162" y2="97.189"/>
</svg>
