<?xml version="1.0" encoding="utf-8"?>
<!-- Generator: Adobe Illustrator 17.0.0, SVG Export Plug-In . SVG Version: 6.00 Build 0)  -->
<!DOCTYPE svg PUBLIC "-//W3C//DTD SVG 1.1//EN" "http://www.w3.org/Graphics/SVG/1.1/DTD/svg11.dtd">
<svg version="1.1" id="Layer_1" xmlns="http://www.w3.org/2000/svg" xmlns:xlink="http://www.w3.org/1999/xlink" x="0px" y="0px"
	 width="636.072px" height="281.426px" viewBox="0 0 636.072 281.426" enable-background="new 0 0 636.072 281.426"
	 xml:space="preserve">
<rect x="7.215" y="176.756" opacity="0.13" fill="#C49A6C" enable-background="new    " width="620.291" height="88.029"/>
<line fill="none" stroke="#000000" stroke-width="1.9927" x1="7.162" y1="264.823" x2="627.506" y2="264.823"/>
<line fill="none" stroke="#000000" stroke-width="1.9921" x1="7.476" y1="176.297" x2="627.471" y2="176.297"/>
<g enable-background="new    ">
	<path d="M194.785,46.585h-3.261c0.204-2.446,0.204-5.095,0.204-6.726c0-18.342-12.024-30.977-29.55-30.977
		c-16.1,0-30.162,10.801-39.333,30.569c-8.763,19.361-14.877,45.854-14.877,66.03c0,23.437,10.394,36.683,29.143,36.683
		c18.953,0,29.958-14.469,33.83-45.243h-18.75l0.815-3.668h55.433l-0.815,3.668H194.58c-10.189,34.238-27.309,49.319-56.451,49.319
		c-29.551,0-50.542-24.252-50.542-58.897c0-42.186,35.46-82.537,72.755-82.537c13.45,0,23.029,4.483,31.384,14.469l7.948-11.616
		h3.464L194.785,46.585z"/>
	<path d="M293.826,96.515c0,24.456-22.417,49.115-44.631,49.115c-18.138,0-32.404-15.285-32.404-34.849
		c0-23.844,23.233-48.096,45.854-48.096C279.968,62.685,293.826,77.766,293.826,96.515z M241.043,84.899
		c-4.891,12.024-8.763,29.958-8.763,40.148c0,10.597,5.91,17.323,15.488,17.323c8.967,0,16.1-5.502,20.38-15.896
		c5.706-14.266,9.578-31.792,9.578-44.427c0-10.19-5.095-15.896-14.469-15.896S245.934,72.875,241.043,84.899z"/>
	<path d="M385.736,96.515c0,24.456-22.418,49.115-44.632,49.115c-18.138,0-32.404-15.285-32.404-34.849
		c0-23.844,23.233-48.096,45.854-48.096C371.878,62.685,385.736,77.766,385.736,96.515z M332.952,84.899
		c-4.891,12.024-8.763,29.958-8.763,40.148c0,10.597,5.91,17.323,15.488,17.323c8.967,0,16.101-5.502,20.38-15.896
		c5.706-14.266,9.578-31.792,9.578-44.427c0-10.19-5.095-15.896-14.47-15.896C345.792,66.15,337.844,72.875,332.952,84.899z"/>
	<path d="M468.27,118.321c-2.241,8.967-2.853,12.635-2.853,15.081c0,3.261,1.427,5.299,3.464,5.299
		c6.114,0,13.247-7.948,19.564-21.806l3.058,1.427c-8.967,18.749-17.73,27.309-27.92,27.309c-7.541,0-11.005-5.095-11.82-17.323
		c-6.93,11.82-15.081,17.323-25.271,17.323c-15.081,0-26.494-13.247-26.494-30.977c0-26.29,22.01-51.968,44.428-51.968
		c9.375,0,15.081,4.076,18.546,13.858l15.692-65.215h-17.73l1.019-3.668h32.812L468.27,118.321z M426.493,83.472
		c-6.521,13.451-10.802,30.366-10.802,42.186c0,10.394,4.483,16.303,12.228,16.303c8.56,0,18.139-7.744,22.825-18.953
		c4.483-10.19,9.579-30.977,9.579-39.129c0-10.394-5.299-17.323-13.654-17.323C439.128,66.557,431.384,72.875,426.493,83.472z"/>
	<path d="M540.615,99.776c7.541,5.707,10.802,11.413,10.802,18.953c0,15.081-13.451,26.901-30.773,26.901
		c-13.043,0-23.232-7.337-23.232-16.711c0-4.688,3.261-8.355,7.336-8.355c3.873,0,7.133,3.261,7.133,7.133
		c0,2.649-0.611,3.872-3.464,7.133c-0.611,0.611-1.02,1.223-1.02,1.834c-0.203,2.649,7.133,5.502,13.858,5.502
		c9.986,0,18.749-6.521,18.749-13.858c0-3.872-1.834-7.133-5.91-10.394l-15.896-13.043c-7.541-5.91-10.802-11.617-10.802-18.342
		c0-13.043,12.024-23.844,26.901-23.844c11.209,0,19.769,5.707,19.769,13.043c0,4.28-3.058,7.541-7.133,7.541
		c-3.465,0-5.91-2.446-5.91-5.91c0-2.038,0.407-3.057,2.241-5.095c0.611-0.815,1.02-1.427,1.02-1.834
		c0-2.445-4.28-4.279-9.782-4.279c-9.375,0-15.896,4.687-15.896,11.616c0,3.464,2.038,7.133,6.114,10.19L540.615,99.776z"/>
</g>
<g enable-background="new    ">
	<path d="M74.011,213.611h1.578v-9.596h-1.578v-2.125h5.682v2.125h-1.726v3.662h6.397v-3.662h-1.726v-2.125h5.681v2.125h-1.578
		v9.596h1.578v2.125h-5.681v-2.125h1.726v-3.851h-6.397v3.851h1.726v2.125h-5.682V213.611z"/>
	<path d="M89.873,213.611h1.579v-9.596h-1.579v-2.125h10.332v3.956h-2.272v-1.852h-4.103v3.703h4.188v2.021h-4.188v3.913h4.124
		v-1.852h2.273v3.956H89.873V213.611z"/>
	<path d="M102.013,213.611h1.578v-9.596h-1.578v-2.125h5.366c3.178,0,5.45,1.368,5.45,4.188c0,1.788-1.094,3.156-2.609,3.767
		l2.125,3.767h1.578v2.125h-3.199l-2.777-5.261c-0.294,0.021-0.568,0.042-0.842,0.042c-0.442,0-0.842,0-1.136-0.021v3.114h1.726
		v2.125h-5.682V213.611z M110.367,206.162c0-1.452-1.2-2.146-3.114-2.146h-1.284v4.44c0.252,0.021,0.589,0.042,1.347,0.042
		C109.104,208.498,110.367,207.614,110.367,206.162z"/>
	<path d="M115.057,213.611h1.578v-9.596h-1.578v-2.125h10.332v3.956h-2.273v-1.852h-4.103v3.703h4.188v2.021h-4.188v3.913h4.124
		v-1.852h2.273v3.956h-10.353V213.611z"/>
	<path d="M126.712,207.361c1.326-1.052,1.978-2.062,2.02-2.651c-0.736-0.21-1.22-0.778-1.22-1.557c0-0.8,0.715-1.515,1.62-1.515
		s1.705,0.652,1.705,1.956c0,1.221-0.863,3.072-3.493,4.588L126.712,207.361z"/>
	<path d="M132.056,212.77c0-0.989,0.589-1.642,1.452-1.642c0.926,0,1.515,0.694,1.515,1.368c0,0.337-0.063,0.589-0.189,0.842
		c0.505,0.357,1.284,0.589,2.188,0.589c1.515,0,2.483-0.674,2.483-1.873c0-1.136-1.157-1.683-2.546-2.167
		c-2.567-0.926-4.377-1.746-4.377-4.313c0-2.21,1.789-3.935,4.587-3.935c2.588,0,4.587,1.325,4.587,2.987
		c0,0.989-0.61,1.558-1.41,1.558c-0.968,0-1.515-0.716-1.515-1.41c0-0.337,0.063-0.484,0.147-0.652
		c-0.379-0.231-0.968-0.421-1.831-0.421c-1.368,0-2.167,0.694-2.167,1.704c0,1.137,1.157,1.642,2.546,2.146
		c2.483,0.884,4.356,1.747,4.356,4.313c0,2.631-2.042,4.125-4.882,4.125C134.265,215.989,132.056,214.453,132.056,212.77z"/>
	<path d="M147.792,213.611h1.2l3.451-9.616h-1.515v-2.104h7.828v2.104h-1.515l3.451,9.616h1.199v2.125h-5.324v-2.104h1.599
		l-0.778-2.272h-5.176l-0.779,2.272h1.684v2.104h-5.324V213.611z M156.735,209.382l-1.936-5.45l-1.936,5.45H156.735z"/>
	<path d="M167.568,213.611h1.579v-9.596h-1.579v-2.125h5.787v2.125h-1.831v9.616h3.809v-1.957h2.293v4.062h-10.058V213.611z"/>
	<path d="M178.866,208.814c0-4.061,2.946-7.175,7.154-7.175c4.188,0,7.049,3.135,7.049,7.175c0,4.062-2.946,7.176-7.154,7.176
		C181.727,215.989,178.866,212.854,178.866,208.814z M190.607,208.814c0-2.883-1.957-4.966-4.629-4.966
		c-2.693,0-4.65,2.062-4.65,4.966c0,2.883,1.957,4.966,4.65,4.966C188.65,213.779,190.607,211.718,190.607,208.814z"/>
	<path d="M195.002,208.814c0-4.061,2.946-7.175,7.154-7.175c4.188,0,7.049,3.135,7.049,7.175c0,4.062-2.946,7.176-7.154,7.176
		C197.864,215.989,195.002,212.854,195.002,208.814z M206.744,208.814c0-2.883-1.957-4.966-4.629-4.966
		c-2.693,0-4.65,2.062-4.65,4.966c0,2.883,1.957,4.966,4.65,4.966C204.786,213.779,206.744,211.718,206.744,208.814z"/>
	<path d="M210.949,213.611h1.578v-9.596h-1.578v-2.125h5.682v2.083h-1.726v4.692l4.65-4.692h-1.578v-2.083h6.102v2.125h-1.494
		l-3.872,3.809l3.535,5.787h1.831v2.125h-3.325l-3.851-6.312l-1.999,1.957v2.23h1.726v2.125h-5.682V213.611z"/>
	<path d="M229.399,213.611h1.2l3.451-9.616h-1.515v-2.104h7.828v2.104h-1.515l3.451,9.616h1.199v2.125h-5.324v-2.104h1.599
		l-0.778-2.272h-5.176l-0.779,2.272h1.684v2.104h-5.324V213.611z M238.342,209.382l-1.936-5.45l-1.936,5.45H238.342z"/>
	<path d="M246.294,213.611h1.726v-9.658h-2.567v2.188h-2.251v-4.251h12.015v4.251h-2.251v-2.188h-2.567v9.658h1.726v2.125h-5.829
		V213.611z"/>
	<path d="M262.283,204.016h-1.473v-2.125h5.892v2.125h-1.831l2.251,7.281l3.43-8.06h1.262l3.43,8.06l2.104-7.281h-1.894v-2.125
		h5.892v2.125h-1.473l-3.724,11.868h-1.326l-3.704-8.522l-3.725,8.522h-1.325L262.283,204.016z"/>
	<path d="M282.605,213.611h1.578v-9.596h-1.578v-2.125h5.682v2.125h-1.726v3.662h6.397v-3.662h-1.726v-2.125h5.681v2.125h-1.578
		v9.596h1.578v2.125h-5.681v-2.125h1.726v-3.851h-6.397v3.851h1.726v2.125h-5.682V213.611z"/>
	<path d="M297.963,213.611h1.2l3.451-9.616h-1.515v-2.104h7.828v2.104h-1.515l3.451,9.616h1.199v2.125h-5.324v-2.104h1.599
		l-0.778-2.272h-5.176l-0.779,2.272h1.684v2.104h-5.324V213.611z M306.906,209.382l-1.936-5.45l-1.936,5.45H306.906z"/>
	<path d="M314.858,213.611h1.726v-9.658h-2.567v2.188h-2.251v-4.251h12.015v4.251h-2.251v-2.188h-2.567v9.658h1.726v2.125h-5.829
		V213.611z"/>
	<path d="M330.847,204.016h-1.473v-2.125h5.892v2.125h-1.831l2.252,7.281l3.43-8.06h1.263l3.43,8.06l2.104-7.281h-1.895v-2.125
		h5.893v2.125h-1.474l-3.725,11.868h-1.325l-3.703-8.522l-3.725,8.522h-1.325L330.847,204.016z"/>
	<path d="M351.169,213.611h1.578v-9.596h-1.578v-2.125h10.332v3.956h-2.272v-1.852h-4.104v3.703h4.188v2.021h-4.188v3.913h4.124
		v-1.852h2.273v3.956h-10.354V213.611z"/>
	<path d="M362.824,207.361c1.326-1.052,1.979-2.062,2.021-2.651c-0.736-0.21-1.221-0.778-1.221-1.557c0-0.8,0.716-1.515,1.62-1.515
		c0.905,0,1.705,0.652,1.705,1.956c0,1.221-0.863,3.072-3.493,4.588L362.824,207.361z"/>
	<path d="M369.199,204.016h-1.263v-2.125h5.472v2.125h-1.452l2.987,7.597l2.988-7.597h-1.536v-2.125h5.471v2.125h-1.262
		l-5.029,11.868h-1.347L369.199,204.016z"/>
	<path d="M382.916,213.611h1.578v-9.596h-1.578v-2.125h10.331v3.956h-2.272v-1.852h-4.103v3.703h4.188v2.021h-4.188v3.913h4.124
		v-1.852h2.272v3.956h-10.353V213.611z"/>
	<path d="M399.578,213.611h1.642l0.441-9.596h-1.725v-2.125h3.787l4.25,7.701l4.251-7.701h3.767v2.125h-1.726l0.441,9.596h1.642
		v2.125h-5.682v-2.125h1.663l-0.273-7.134l-3.956,6.944h-0.315l-3.956-6.944l-0.273,7.134h1.662v2.125h-5.64V213.611z"/>
	<path d="M417.103,213.611h1.199l3.451-9.616h-1.516v-2.104h7.828v2.104h-1.516l3.451,9.616h1.199v2.125h-5.323v-2.104h1.599
		l-0.778-2.272h-5.176l-0.779,2.272h1.684v2.104h-5.323V213.611z M426.046,209.382l-1.936-5.45l-1.936,5.45H426.046z"/>
	<path d="M432.251,213.611h1.578v-9.596h-1.578v-2.125h5.239c5.008,0,7.975,2.609,7.975,6.797c0,4.229-2.798,7.049-8.227,7.049
		h-4.987V213.611z M437.574,213.611c3.577,0,5.429-1.937,5.429-4.903c0-3.029-2.146-4.692-5.597-4.692h-1.199v9.596H437.574z"/>
	<path d="M447.209,213.611h1.578v-9.596h-1.578v-2.125h10.332v3.956h-2.272v-1.852h-4.104v3.703h4.188v2.021h-4.188v3.913h4.124
		v-1.852h2.273v3.956h-10.354V213.611z"/>
	<path d="M463.976,213.611h1.578v-9.596h-1.578v-2.125h10.205v3.956h-2.272v-1.852h-3.977v3.956h4.082v2.041h-4.082v3.619h1.83
		v2.125h-5.786V213.611z"/>
	<path d="M475.085,208.814c0-4.061,2.945-7.175,7.154-7.175c4.188,0,7.049,3.135,7.049,7.175c0,4.062-2.946,7.176-7.154,7.176
		C477.946,215.989,475.085,212.854,475.085,208.814z M486.826,208.814c0-2.883-1.957-4.966-4.629-4.966
		c-2.693,0-4.65,2.062-4.65,4.966c0,2.883,1.957,4.966,4.65,4.966C484.869,213.779,486.826,211.718,486.826,208.814z"/>
	<path d="M491.032,213.611h1.578v-9.596h-1.578v-2.125h5.365c3.178,0,5.45,1.368,5.45,4.188c0,1.788-1.094,3.156-2.609,3.767
		l2.125,3.767h1.579v2.125h-3.199l-2.777-5.261c-0.294,0.021-0.568,0.042-0.842,0.042c-0.441,0-0.842,0-1.136-0.021v3.114h1.726
		v2.125h-5.682V213.611z M499.386,206.162c0-1.452-1.199-2.146-3.114-2.146h-1.283v4.44c0.252,0.021,0.589,0.042,1.347,0.042
		C498.123,208.498,499.386,207.614,499.386,206.162z"/>
	<path d="M511.776,213.611h1.746v-3.156l-3.935-6.439h-1.389v-2.125h5.239v2.125h-1.221l2.546,4.44l2.525-4.44h-1.305v-2.125h5.239
		v2.125h-1.389l-3.935,6.439v3.156h1.746v2.125h-5.87V213.611z"/>
	<path d="M521.832,208.814c0-4.061,2.945-7.175,7.154-7.175c4.188,0,7.049,3.135,7.049,7.175c0,4.062-2.946,7.176-7.154,7.176
		C524.693,215.989,521.832,212.854,521.832,208.814z M533.573,208.814c0-2.883-1.957-4.966-4.629-4.966
		c-2.693,0-4.65,2.062-4.65,4.966c0,2.883,1.957,4.966,4.65,4.966C531.616,213.779,533.573,211.718,533.573,208.814z"/>
	<path d="M539.083,210.687v-6.671h-1.515v-2.125h5.555v2.125h-1.662v6.544c0,2.126,1.073,3.262,2.841,3.262
		c1.788,0,2.861-1.031,2.861-3.177v-6.629h-1.662v-2.125h5.492v2.125h-1.515v6.629c0,3.619-2.126,5.345-5.177,5.345
		C541.209,215.989,539.083,214.264,539.083,210.687z"/>
	<path d="M551.58,214.18c0-0.969,0.778-1.747,1.726-1.747c0.946,0,1.726,0.778,1.726,1.747c0,0.946-0.779,1.725-1.726,1.725
		C552.358,215.904,551.58,215.126,551.58,214.18z"/>
</g>
<g enable-background="new    ">
	<path d="M78.888,236.975h1.094l5.726-9.609h-1.422l0.273-1.186h5.507l-0.273,1.186h-1.368l1.276,9.609h1.276l-0.292,1.203h-3.92
		l0.273-1.186h1.331l-0.365-2.954h-4.887l-1.75,2.954h1.586l-0.292,1.186h-4.066L78.888,236.975z M87.841,232.871l-0.711-5.598
		l-3.319,5.598H87.841z"/>
	<path d="M92.544,237.303c-0.292-0.292-0.456-0.62-0.456-0.967c0-0.528,0.364-0.948,0.857-0.948c0.492,0,0.784,0.365,0.784,0.766
		c0,0.219-0.091,0.401-0.237,0.584c0.073,0.073,0.146,0.128,0.31,0.219c0.365,0.2,0.93,0.347,1.55,0.347
		c0.857,0,1.568-0.383,1.568-1.076c0-0.711-0.766-1.076-1.605-1.477c-1.13-0.529-2.151-1.04-2.151-2.207
		c0-1.239,1.039-2.225,2.808-2.225c1.021,0,1.896,0.329,2.389,0.839c0.292,0.292,0.438,0.603,0.438,0.948
		c0,0.565-0.383,0.931-0.82,0.931c-0.438,0-0.802-0.329-0.802-0.767c0-0.182,0.073-0.364,0.2-0.583
		c-0.055-0.037-0.091-0.073-0.273-0.164c-0.273-0.128-0.711-0.219-1.167-0.219c-0.912,0-1.513,0.419-1.513,1.021
		c0,0.62,0.748,0.967,1.659,1.404c1.094,0.511,2.115,1.094,2.115,2.279c0,1.495-1.276,2.298-2.899,2.298
		C94.167,238.306,93.128,237.886,92.544,237.303z"/>
	<path d="M99.856,238.178l2.845-12.254h-1.477l0.273-1.094h2.717l-2.188,9.391c2.279-0.93,3.483-1.75,3.792-2.242
		c-0.273-0.146-0.456-0.475-0.456-0.748c0-0.547,0.401-0.967,0.948-0.967c0.51,0,0.93,0.401,0.93,1.04
		c0,1.112-1.386,2.225-3.209,3.1l0.82,1.951c0.164,0.438,0.292,0.692,0.419,0.839c0.146,0.164,0.273,0.182,0.419,0.182
		c0.292,0,0.583-0.291,0.857-1.422l0.675,0.2c-0.383,1.715-1.021,2.152-1.75,2.152c-0.383,0-0.711-0.092-1.021-0.365
		c-0.255-0.219-0.474-0.547-0.675-1.039l-0.875-2.115c-0.364,0.164-0.748,0.328-1.076,0.456l-0.693,2.936H99.856z"/>
	<path d="M110.23,240.785c0-0.492,0.383-0.912,0.875-0.912c0.456,0,0.802,0.329,0.857,0.803h0.037c0.438,0,1.313-0.656,2.972-2.662
		l-1.331-6.491h-1.386l0.273-1.112h2.243l1.131,6.491c1.349-1.751,2.625-3.556,2.899-4.723c-0.383-0.128-0.748-0.475-0.748-0.984
		c0-0.492,0.401-0.931,0.948-0.931c0.62,0,1.058,0.456,1.058,1.259c0,1.203-0.894,2.899-3.756,6.491
		c-2.553,3.173-3.701,3.811-4.85,3.811C110.777,241.824,110.23,241.369,110.23,240.785z"/>
	<path d="M121.134,234.932c0-2.406,1.878-4.668,4.395-4.668c2.133,0,3.374,1.568,3.374,3.392c0,2.426-1.878,4.668-4.395,4.668
		C122.374,238.323,121.134,236.774,121.134,234.932z M127.607,233.655c0-1.422-0.93-2.279-2.133-2.279
		c-1.696,0-3.045,1.623-3.045,3.574c0,1.404,0.93,2.261,2.133,2.261C126.276,237.211,127.607,235.589,127.607,233.655z"/>
	<path d="M133.442,230.41l-1.258,4.868c-0.073,0.256-0.109,0.547-0.109,0.839c0,0.656,0.456,1.112,1.185,1.112
		c1.076,0,2.243-1.021,2.699-2.845l0.985-3.975h1.276l-1.404,5.652c-0.091,0.31-0.146,0.602-0.146,0.766
		c0,0.365,0.219,0.565,0.529,0.565c0.346,0,0.674-0.31,1.039-1.222l0.638,0.219c-0.419,1.313-1.112,1.915-1.969,1.915
		s-1.422-0.565-1.422-1.478c0-0.109,0.019-0.219,0.037-0.364c-0.656,1.058-1.604,1.842-2.699,1.842c-1.167,0-2.061-0.767-2.061-1.97
		c0-0.401,0.073-0.802,0.164-1.167l0.948-3.646h-1.458l0.292-1.112H133.442z"/>
	<path d="M141.866,231.523h-1.459l0.273-1.112h2.589l-0.51,2.151c1.003-1.477,1.878-2.279,2.662-2.279
		c0.62,0,1.058,0.401,1.058,0.967c0,0.547-0.456,1.003-0.985,1.003c-0.492,0-0.839-0.328-0.93-0.729
		c-0.583,0.292-1.805,1.459-2.225,3.209l-0.875,3.446h-1.276L141.866,231.523z"/>
	<path d="M153.535,225.924h-1.477l0.273-1.094h2.717l-1.678,7.185c0.584-0.894,1.496-1.732,2.589-1.732
		c1.24,0,2.188,0.857,2.207,2.115c0,0.383-0.073,0.803-0.201,1.222l-0.675,2.517c-0.073,0.255-0.109,0.528-0.109,0.675
		c0,0.364,0.219,0.583,0.529,0.583c0.365,0,0.675-0.31,1.021-1.222l0.638,0.219c-0.383,1.259-1.003,1.915-1.915,1.915
		c-0.948,0-1.55-0.602-1.55-1.44c0-0.237,0.055-0.565,0.128-0.857l0.693-2.553c0.091-0.347,0.127-0.62,0.127-0.912
		c-0.018-0.692-0.547-1.167-1.294-1.167c-1.058,0-2.243,0.985-2.681,2.845l-0.912,3.957h-1.276L153.535,225.924z"/>
	<path d="M160.518,234.932c0-2.406,1.878-4.668,4.395-4.668c2.133,0,3.374,1.568,3.374,3.392c0,2.426-1.878,4.668-4.395,4.668
		C161.758,238.323,160.518,236.774,160.518,234.932z M166.991,233.655c0-1.422-0.93-2.279-2.133-2.279
		c-1.696,0-3.045,1.623-3.045,3.574c0,1.404,0.93,2.261,2.133,2.261C165.66,237.211,166.991,235.589,166.991,233.655z"/>
	<path d="M169.762,237.303c-0.292-0.292-0.456-0.62-0.456-0.967c0-0.528,0.364-0.948,0.857-0.948c0.492,0,0.784,0.365,0.784,0.766
		c0,0.219-0.091,0.401-0.237,0.584c0.073,0.073,0.146,0.128,0.31,0.219c0.365,0.2,0.93,0.347,1.55,0.347
		c0.857,0,1.568-0.383,1.568-1.076c0-0.711-0.766-1.076-1.605-1.477c-1.13-0.529-2.151-1.04-2.151-2.207
		c0-1.239,1.039-2.225,2.808-2.225c1.021,0,1.896,0.329,2.389,0.839c0.292,0.292,0.438,0.603,0.438,0.948
		c0,0.565-0.383,0.931-0.82,0.931c-0.438,0-0.802-0.329-0.802-0.767c0-0.182,0.073-0.364,0.2-0.583
		c-0.055-0.037-0.091-0.073-0.273-0.164c-0.273-0.128-0.711-0.219-1.167-0.219c-0.912,0-1.513,0.419-1.513,1.021
		c0,0.62,0.748,0.967,1.659,1.404c1.094,0.511,2.115,1.094,2.115,2.279c0,1.495-1.276,2.298-2.899,2.298
		C171.385,238.306,170.346,237.886,169.762,237.303z"/>
	<path d="M180.283,231.523l-1.094,4.449c-0.073,0.255-0.109,0.474-0.109,0.675c0,0.346,0.237,0.619,0.62,0.619
		c0.419,0,0.857-0.219,1.623-0.729l0.474,0.674c-0.948,0.767-1.714,1.112-2.443,1.112c-0.912,0-1.604-0.564-1.604-1.477
		c0-0.255,0.055-0.547,0.146-0.875l1.094-4.449h-1.386l0.273-1.112h1.386l0.456-1.823l1.404-0.456l-0.565,2.279h2.37l-0.273,1.112
		H180.283z"/>
	<path d="M184.714,234.677c-0.019,0.128-0.019,0.255-0.019,0.383c0,1.368,1.131,2.17,2.48,2.17c0.875,0,1.568-0.183,2.571-0.711
		l-0.273,1.24c-0.821,0.4-1.496,0.564-2.553,0.564c-1.823,0-3.482-1.167-3.482-3.282c0-2.625,1.987-4.777,4.303-4.777
		c1.805,0,2.972,1.095,2.972,2.845c0,0.475-0.091,1.003-0.292,1.568H184.714z M184.914,233.693h4.467
		c0.091-0.237,0.127-0.511,0.127-0.767c0-0.838-0.565-1.55-1.823-1.55C186.464,231.376,185.37,232.343,184.914,233.693z"/>
	<path d="M192.298,237.303c-0.292-0.292-0.456-0.62-0.456-0.967c0-0.528,0.364-0.948,0.857-0.948c0.492,0,0.784,0.365,0.784,0.766
		c0,0.219-0.091,0.401-0.237,0.584c0.073,0.073,0.146,0.128,0.31,0.219c0.365,0.2,0.93,0.347,1.55,0.347
		c0.857,0,1.568-0.383,1.568-1.076c0-0.711-0.766-1.076-1.605-1.477c-1.13-0.529-2.151-1.04-2.151-2.207
		c0-1.239,1.039-2.225,2.808-2.225c1.021,0,1.896,0.329,2.389,0.839c0.292,0.292,0.438,0.603,0.438,0.948
		c0,0.565-0.383,0.931-0.82,0.931c-0.438,0-0.802-0.329-0.802-0.767c0-0.182,0.073-0.364,0.2-0.583
		c-0.055-0.037-0.091-0.073-0.273-0.164c-0.273-0.128-0.711-0.219-1.167-0.219c-0.912,0-1.513,0.419-1.513,1.021
		c0,0.62,0.748,0.967,1.659,1.404c1.094,0.511,2.115,1.094,2.115,2.279c0,1.495-1.276,2.298-2.899,2.298
		C193.921,238.306,192.882,237.886,192.298,237.303z"/>
	<path d="M199.993,237.303c-0.292-0.292-0.456-0.62-0.456-0.967c0-0.528,0.364-0.948,0.857-0.948c0.492,0,0.784,0.365,0.784,0.766
		c0,0.219-0.091,0.401-0.237,0.584c0.073,0.073,0.146,0.128,0.31,0.219c0.365,0.2,0.93,0.347,1.55,0.347
		c0.857,0,1.568-0.383,1.568-1.076c0-0.711-0.766-1.076-1.605-1.477c-1.13-0.529-2.151-1.04-2.151-2.207
		c0-1.239,1.039-2.225,2.808-2.225c1.021,0,1.896,0.329,2.389,0.839c0.292,0.292,0.438,0.603,0.438,0.948
		c0,0.565-0.383,0.931-0.82,0.931c-0.438,0-0.803-0.329-0.803-0.767c0-0.182,0.073-0.364,0.201-0.583
		c-0.055-0.037-0.091-0.073-0.273-0.164c-0.273-0.128-0.711-0.219-1.167-0.219c-0.912,0-1.513,0.419-1.513,1.021
		c0,0.62,0.748,0.967,1.659,1.404c1.094,0.511,2.115,1.094,2.115,2.279c0,1.495-1.276,2.298-2.899,2.298
		C201.616,238.306,200.577,237.886,199.993,237.303z"/>
	<path d="M211.334,234.932c0-2.406,1.878-4.668,4.395-4.668c2.133,0,3.374,1.568,3.374,3.392c0,2.426-1.878,4.668-4.395,4.668
		C212.574,238.323,211.334,236.774,211.334,234.932z M217.807,233.655c0-1.422-0.93-2.279-2.133-2.279
		c-1.696,0-3.045,1.623-3.045,3.574c0,1.404,0.93,2.261,2.134,2.261C216.476,237.211,217.807,235.589,217.807,233.655z"/>
	<path d="M222.329,231.523h-1.459l0.273-1.112h2.589l-0.51,2.151c1.002-1.477,1.878-2.279,2.662-2.279
		c0.62,0,1.058,0.401,1.058,0.967c0,0.547-0.456,1.003-0.985,1.003c-0.492,0-0.839-0.328-0.93-0.729
		c-0.583,0.292-1.805,1.459-2.225,3.209l-0.875,3.446h-1.276L222.329,231.523z"/>
	<path d="M231.536,237.303c-0.292-0.292-0.456-0.62-0.456-0.967c0-0.528,0.364-0.948,0.857-0.948c0.492,0,0.784,0.365,0.784,0.766
		c0,0.219-0.091,0.401-0.237,0.584c0.073,0.073,0.146,0.128,0.31,0.219c0.365,0.2,0.93,0.347,1.55,0.347
		c0.857,0,1.568-0.383,1.568-1.076c0-0.711-0.766-1.076-1.605-1.477c-1.13-0.529-2.151-1.04-2.151-2.207
		c0-1.239,1.039-2.225,2.808-2.225c1.021,0,1.896,0.329,2.389,0.839c0.292,0.292,0.438,0.603,0.438,0.948
		c0,0.565-0.383,0.931-0.82,0.931c-0.438,0-0.803-0.329-0.803-0.767c0-0.182,0.073-0.364,0.201-0.583
		c-0.055-0.037-0.091-0.073-0.273-0.164c-0.273-0.128-0.711-0.219-1.167-0.219c-0.912,0-1.513,0.419-1.513,1.021
		c0,0.62,0.748,0.967,1.659,1.404c1.094,0.511,2.115,1.094,2.115,2.279c0,1.495-1.276,2.298-2.899,2.298
		C233.159,238.306,232.12,237.886,231.536,237.303z"/>
	<path d="M240.198,234.677c-0.019,0.128-0.019,0.255-0.019,0.383c0,1.368,1.131,2.17,2.48,2.17c0.875,0,1.568-0.183,2.571-0.711
		l-0.273,1.24c-0.821,0.4-1.496,0.564-2.553,0.564c-1.823,0-3.482-1.167-3.482-3.282c0-2.625,1.987-4.777,4.303-4.777
		c1.805,0,2.972,1.095,2.972,2.845c0,0.475-0.091,1.003-0.292,1.568H240.198z M240.398,233.693h4.467
		c0.091-0.237,0.127-0.511,0.127-0.767c0-0.838-0.565-1.55-1.823-1.55C241.948,231.376,240.854,232.343,240.398,233.693z"/>
	<path d="M249.35,231.523h-1.459l0.273-1.112h2.589l-0.51,2.151c1.002-1.477,1.878-2.279,2.662-2.279
		c0.62,0,1.058,0.401,1.058,0.967c0,0.547-0.456,1.003-0.985,1.003c-0.492,0-0.839-0.328-0.93-0.729
		c-0.583,0.292-1.805,1.459-2.225,3.209l-0.875,3.446h-1.276L249.35,231.523z"/>
	<path d="M255.641,231.523h-1.404l0.292-1.112h2.261l0.948,6.437c1.44-1.604,2.589-3.41,2.917-4.649
		c-0.383-0.109-0.729-0.438-0.729-0.948c0-0.547,0.401-0.985,0.966-0.985c0.583,0,1.058,0.456,1.058,1.259
		c0,1.495-1.915,4.449-4.34,6.91h-0.711L255.641,231.523z"/>
	<path d="M264.375,234.677c-0.019,0.128-0.019,0.255-0.019,0.383c0,1.368,1.131,2.17,2.48,2.17c0.875,0,1.568-0.183,2.571-0.711
		l-0.273,1.24c-0.821,0.4-1.496,0.564-2.553,0.564c-1.823,0-3.482-1.167-3.482-3.282c0-2.625,1.987-4.777,4.303-4.777
		c1.805,0,2.972,1.095,2.972,2.845c0,0.475-0.091,1.003-0.292,1.568H264.375z M264.576,233.693h4.467
		c0.091-0.237,0.127-0.511,0.127-0.767c0-0.838-0.565-1.55-1.823-1.55C266.125,231.376,265.031,232.343,264.576,233.693z"/>
	<path d="M273.528,231.523h-1.459l0.273-1.112h2.589l-0.51,2.151c1.003-1.477,1.878-2.279,2.662-2.279
		c0.62,0,1.058,0.401,1.058,0.967c0,0.547-0.456,1.003-0.985,1.003c-0.492,0-0.839-0.328-0.93-0.729
		c-0.583,0.292-1.805,1.459-2.225,3.209l-0.875,3.446h-1.276L273.528,231.523z"/>
	<path d="M282.589,235.169c0-2.644,1.878-4.905,4.121-4.905c1.276,0,2.188,0.821,2.425,1.934l0.492-1.842h1.222l-1.404,5.707
		c-0.073,0.31-0.128,0.602-0.128,0.766c0,0.365,0.201,0.565,0.511,0.565c0.346,0,0.675-0.31,1.039-1.222l0.639,0.219
		c-0.419,1.313-1.112,1.915-1.951,1.915c-0.875,0-1.44-0.584-1.44-1.423v-0.182c-0.675,0.911-1.623,1.622-2.772,1.622
		C283.72,238.323,282.589,237.102,282.589,235.169z M288.789,233.51c0-1.258-0.674-2.115-1.951-2.115
		c-1.696,0-2.899,1.806-2.899,3.684c0,1.276,0.62,2.133,1.823,2.133C287.549,237.211,288.789,235.242,288.789,233.51z"/>
	<path d="M295.408,225.924h-1.477l0.273-1.094h2.717l-1.659,7.075c0.62-0.894,1.568-1.642,2.699-1.642
		c1.75,0,2.917,1.276,2.917,3.21c0,2.698-1.933,4.868-4.121,4.868c-1.276,0-2.261-0.766-2.516-1.896l-0.456,1.732h-1.222
		L295.408,225.924z M299.528,233.638c0-1.35-0.693-2.243-1.915-2.243c-1.696,0-3.045,1.933-3.045,3.701
		c0,1.24,0.748,2.098,2.061,2.098C298.307,237.193,299.528,235.443,299.528,233.638z"/>
	<path d="M302.409,234.932c0-2.406,1.878-4.668,4.395-4.668c2.133,0,3.374,1.568,3.374,3.392c0,2.426-1.878,4.668-4.395,4.668
		C303.649,238.323,302.409,236.774,302.409,234.932z M308.882,233.655c0-1.422-0.93-2.279-2.133-2.279
		c-1.696,0-3.045,1.623-3.045,3.574c0,1.404,0.93,2.261,2.134,2.261C307.551,237.211,308.882,235.589,308.882,233.655z"/>
	<path d="M314.717,230.41l-1.258,4.868c-0.073,0.256-0.109,0.547-0.109,0.839c0,0.656,0.456,1.112,1.186,1.112
		c1.076,0,2.243-1.021,2.698-2.845l0.985-3.975h1.276l-1.404,5.652c-0.091,0.31-0.146,0.602-0.146,0.766
		c0,0.365,0.219,0.565,0.529,0.565c0.346,0,0.674-0.31,1.04-1.222l0.638,0.219c-0.419,1.313-1.112,1.915-1.969,1.915
		s-1.422-0.565-1.422-1.478c0-0.109,0.019-0.219,0.037-0.364c-0.656,1.058-1.604,1.842-2.699,1.842c-1.167,0-2.061-0.767-2.061-1.97
		c0-0.401,0.073-0.802,0.165-1.167l0.948-3.646h-1.458l0.292-1.112H314.717z"/>
	<path d="M324.398,231.523l-1.094,4.449c-0.073,0.255-0.109,0.474-0.109,0.675c0,0.346,0.237,0.619,0.62,0.619
		c0.419,0,0.857-0.219,1.623-0.729l0.474,0.674c-0.948,0.767-1.714,1.112-2.443,1.112c-0.911,0-1.604-0.564-1.604-1.477
		c0-0.255,0.055-0.547,0.146-0.875l1.095-4.449h-1.386l0.273-1.112h1.386l0.456-1.823l1.403-0.456l-0.564,2.279h2.37l-0.273,1.112
		H324.398z"/>
	<path d="M329.723,240.657h1.167l2.188-9.135H331.6l0.273-1.112h2.608l-0.365,1.623c0.639-0.948,1.587-1.77,2.809-1.77
		c1.714,0,2.881,1.276,2.881,3.21c0,2.698-1.934,4.868-4.14,4.868c-1.222,0-2.17-0.784-2.534-1.805l-0.948,4.12h1.586l-0.273,1.095
		h-4.048L329.723,240.657z M338.457,233.638c0-1.35-0.693-2.243-1.915-2.243c-1.695,0-3.062,1.933-3.062,3.701
		c0,1.24,0.766,2.098,2.078,2.098C337.235,237.193,338.457,235.443,338.457,233.638z"/>
	<path d="M344.564,230.41l-1.258,4.868c-0.073,0.256-0.109,0.547-0.109,0.839c0,0.656,0.456,1.112,1.186,1.112
		c1.075,0,2.242-1.021,2.698-2.845l0.984-3.975h1.276l-1.403,5.652c-0.092,0.31-0.146,0.602-0.146,0.766
		c0,0.365,0.219,0.565,0.529,0.565c0.346,0,0.674-0.31,1.039-1.222l0.638,0.219c-0.419,1.313-1.112,1.915-1.969,1.915
		c-0.857,0-1.423-0.565-1.423-1.478c0-0.109,0.019-0.219,0.037-0.364c-0.656,1.058-1.604,1.842-2.699,1.842
		c-1.167,0-2.061-0.767-2.061-1.97c0-0.401,0.073-0.802,0.165-1.167l0.947-3.646h-1.458l0.291-1.112H344.564z"/>
	<path d="M352.988,231.523h-1.459l0.273-1.112h2.59l-0.511,2.151c1.003-1.477,1.878-2.279,2.662-2.279
		c0.62,0,1.058,0.401,1.058,0.967c0,0.547-0.456,1.003-0.984,1.003c-0.492,0-0.839-0.328-0.93-0.729
		c-0.584,0.292-1.806,1.459-2.225,3.209l-0.876,3.446h-1.276L352.988,231.523z"/>
	<path d="M357.856,234.969c0-2.462,2.006-4.705,4.449-4.705c1.823,0,2.809,1.112,2.809,2.079c0,0.602-0.401,1.094-0.967,1.094
		c-0.383,0-0.784-0.273-0.784-0.82c0-0.2,0.128-0.511,0.365-0.656c-0.273-0.365-0.748-0.584-1.459-0.584
		c-1.604,0-3.118,1.532-3.118,3.52c0,1.386,0.912,2.315,2.353,2.315c0.894,0,1.823-0.364,2.589-1.021l-0.036,1.239
		c-0.766,0.565-1.678,0.894-2.699,0.894C359.389,238.323,357.856,237.066,357.856,234.969z"/>
	<path d="M368.942,225.924h-1.477l0.273-1.094h2.717l-1.678,7.185c0.584-0.894,1.495-1.732,2.589-1.732
		c1.24,0,2.188,0.857,2.207,2.115c0,0.383-0.073,0.803-0.201,1.222l-0.675,2.517c-0.072,0.255-0.109,0.528-0.109,0.675
		c0,0.364,0.219,0.583,0.529,0.583c0.364,0,0.675-0.31,1.021-1.222l0.638,0.219c-0.383,1.259-1.003,1.915-1.914,1.915
		c-0.948,0-1.551-0.602-1.551-1.44c0-0.237,0.055-0.565,0.128-0.857l0.693-2.553c0.091-0.347,0.127-0.62,0.127-0.912
		c-0.018-0.692-0.547-1.167-1.294-1.167c-1.058,0-2.243,0.985-2.681,2.845l-0.912,3.957h-1.276L368.942,225.924z"/>
	<path d="M375.943,235.169c0-2.644,1.879-4.905,4.121-4.905c1.276,0,2.188,0.821,2.426,1.934l0.492-1.842h1.222l-1.404,5.707
		c-0.073,0.31-0.128,0.602-0.128,0.766c0,0.365,0.201,0.565,0.511,0.565c0.347,0,0.675-0.31,1.04-1.222l0.638,0.219
		c-0.419,1.313-1.112,1.915-1.951,1.915c-0.875,0-1.44-0.584-1.44-1.423v-0.182c-0.675,0.911-1.623,1.622-2.771,1.622
		C377.074,238.323,375.943,237.102,375.943,235.169z M382.143,233.51c0-1.258-0.675-2.115-1.951-2.115
		c-1.695,0-2.899,1.806-2.899,3.684c0,1.276,0.62,2.133,1.823,2.133C380.903,237.211,382.143,235.242,382.143,233.51z"/>
	<path d="M386.3,237.303c-0.291-0.292-0.455-0.62-0.455-0.967c0-0.528,0.364-0.948,0.856-0.948s0.784,0.365,0.784,0.766
		c0,0.219-0.091,0.401-0.237,0.584c0.073,0.073,0.146,0.128,0.311,0.219c0.364,0.2,0.93,0.347,1.55,0.347
		c0.856,0,1.568-0.383,1.568-1.076c0-0.711-0.767-1.076-1.605-1.477c-1.13-0.529-2.151-1.04-2.151-2.207
		c0-1.239,1.039-2.225,2.809-2.225c1.021,0,1.896,0.329,2.389,0.839c0.291,0.292,0.438,0.603,0.438,0.948
		c0,0.565-0.383,0.931-0.82,0.931c-0.438,0-0.803-0.329-0.803-0.767c0-0.182,0.073-0.364,0.2-0.583
		c-0.055-0.037-0.091-0.073-0.273-0.164c-0.273-0.128-0.711-0.219-1.167-0.219c-0.911,0-1.513,0.419-1.513,1.021
		c0,0.62,0.747,0.967,1.659,1.404c1.094,0.511,2.115,1.094,2.115,2.279c0,1.495-1.276,2.298-2.899,2.298
		C387.923,238.306,386.884,237.886,386.3,237.303z"/>
	<path d="M394.268,236.847c0-0.219,0.073-0.565,0.146-0.839l1.222-4.485h-1.513l0.291-1.112h2.79l-1.531,5.652
		c-0.073,0.292-0.128,0.602-0.128,0.766c0,0.365,0.219,0.565,0.528,0.565c0.384,0,0.712-0.31,1.058-1.222l0.639,0.219
		c-0.42,1.313-1.076,1.915-1.97,1.915C394.851,238.306,394.268,237.722,394.268,236.847z M395.873,227.984
		c0-0.51,0.42-0.93,0.93-0.93c0.492,0,0.912,0.42,0.912,0.93c0,0.511-0.42,0.931-0.912,0.931
		C396.293,228.915,395.873,228.495,395.873,227.984z"/>
	<path d="M404.461,236.865c0-0.237,0.055-0.603,0.146-0.876l0.729-2.534c0.091-0.347,0.128-0.62,0.128-0.912
		c0-0.692-0.511-1.167-1.259-1.167c-1.039,0-2.206,0.985-2.662,2.845l-1.003,3.957h-1.276l1.678-6.655h-1.459l0.273-1.112h2.59
		l-0.438,1.842c0.675-1.131,1.641-1.97,2.735-1.97c1.239,0,2.133,0.857,2.133,2.115c0,0.383-0.073,0.803-0.2,1.222l-0.711,2.517
		c-0.073,0.236-0.128,0.528-0.128,0.675c0,0.364,0.219,0.583,0.528,0.583c0.365,0,0.675-0.31,1.04-1.222l0.638,0.219
		c-0.401,1.259-1.039,1.915-1.951,1.915C405.044,238.306,404.461,237.704,404.461,236.865z"/>
	<path d="M409.018,240.949c-0.31-0.328-0.419-0.583-0.419-0.911c0-0.565,0.364-0.967,0.894-0.967c0.547,0,0.875,0.438,0.875,0.894
		c0,0.164-0.055,0.347-0.146,0.474c0.31,0.201,0.802,0.347,1.458,0.347c0.784,0,1.35-0.2,1.842-0.692
		c0.42-0.42,0.711-1.076,0.93-1.97l0.365-1.568c-0.656,1.003-1.642,1.568-2.717,1.568c-1.732,0-2.936-1.222-2.936-3.154
		c0-2.59,1.842-4.705,4.157-4.705c1.386,0,2.225,0.894,2.479,1.879l0.475-1.787h1.222l-1.86,8.005
		c-0.255,1.075-0.583,1.878-1.186,2.461c-0.674,0.693-1.567,1.003-2.771,1.003C410.623,241.824,409.474,241.387,409.018,240.949z
		 M415.455,233.474c0-1.276-0.783-2.079-2.042-2.079c-1.678,0-2.899,1.623-2.899,3.501c0,1.295,0.803,2.115,2.006,2.115
		C414.27,237.011,415.455,235.224,415.455,233.474z"/>
	<path d="M416.95,240.257c1.514-0.748,2.152-1.678,2.207-2.115c-0.511-0.146-0.784-0.657-0.784-1.003
		c0-0.602,0.474-1.112,1.112-1.112c0.638,0,1.148,0.511,1.148,1.276c0,1.222-1.167,2.698-3.41,3.482L416.95,240.257z"/>
	<path d="M426.322,234.932c0-2.406,1.878-4.668,4.395-4.668c2.133,0,3.373,1.568,3.373,3.392c0,2.426-1.878,4.668-4.395,4.668
		C427.561,238.323,426.322,236.774,426.322,234.932z M432.795,233.655c0-1.422-0.93-2.279-2.133-2.279
		c-1.696,0-3.045,1.623-3.045,3.574c0,1.404,0.93,2.261,2.133,2.261C431.464,237.211,432.795,235.589,432.795,233.655z"/>
	<path d="M437.317,231.523h-1.459l0.273-1.112h2.589l-0.51,2.151c1.003-1.477,1.878-2.279,2.662-2.279
		c0.619,0,1.058,0.401,1.058,0.967c0,0.547-0.456,1.003-0.985,1.003c-0.492,0-0.839-0.328-0.93-0.729
		c-0.583,0.292-1.805,1.459-2.225,3.209l-0.875,3.446h-1.276L437.317,231.523z"/>
	<path d="M450.463,230.264c1.24,0,2.206,0.803,2.462,1.879l1.458-6.219h-1.477l0.273-1.094h2.735l-2.626,11.232
		c-0.091,0.328-0.146,0.602-0.146,0.766c0,0.365,0.182,0.565,0.511,0.565c0.364,0,0.692-0.31,1.058-1.222l0.638,0.219
		c-0.419,1.313-1.131,1.915-1.97,1.915c-0.875,0-1.422-0.584-1.422-1.459c0-0.055-0.019-0.109,0-0.164
		c-0.656,0.911-1.604,1.641-2.771,1.641c-1.604,0-2.79-1.222-2.79-3.154C446.396,232.452,448.293,230.264,450.463,230.264z
		 M452.614,233.528c0-1.276-0.711-2.134-2.006-2.134c-1.677,0-2.862,1.787-2.862,3.665c0,1.276,0.675,2.151,1.878,2.151
		C451.375,237.211,452.614,235.316,452.614,233.528z"/>
	<path d="M458.34,231.523h-1.459l0.273-1.112h2.59l-0.511,2.151c1.003-1.477,1.878-2.279,2.662-2.279
		c0.62,0,1.058,0.401,1.058,0.967c0,0.547-0.456,1.003-0.984,1.003c-0.492,0-0.839-0.328-0.93-0.729
		c-0.584,0.292-1.806,1.459-2.225,3.209l-0.876,3.446h-1.276L458.34,231.523z"/>
	<path d="M463.208,234.932c0-2.406,1.878-4.668,4.395-4.668c2.133,0,3.373,1.568,3.373,3.392c0,2.426-1.878,4.668-4.395,4.668
		C464.447,238.323,463.208,236.774,463.208,234.932z M469.681,233.655c0-1.422-0.93-2.279-2.133-2.279
		c-1.696,0-3.045,1.623-3.045,3.574c0,1.404,0.93,2.261,2.133,2.261C468.349,237.211,469.681,235.589,469.681,233.655z"/>
	<path d="M470.811,240.657h1.167l2.188-9.135h-1.477l0.273-1.112h2.607l-0.364,1.623c0.638-0.948,1.586-1.77,2.808-1.77
		c1.714,0,2.881,1.276,2.881,3.21c0,2.698-1.933,4.868-4.139,4.868c-1.222,0-2.17-0.784-2.535-1.805l-0.948,4.12h1.587l-0.273,1.095
		h-4.048L470.811,240.657z M479.545,233.638c0-1.35-0.692-2.243-1.914-2.243c-1.696,0-3.063,1.933-3.063,3.701
		c0,1.24,0.766,2.098,2.079,2.098C478.323,237.193,479.545,235.443,479.545,233.638z"/>
	<path d="M489.464,230.41l-1.258,4.868c-0.073,0.256-0.109,0.547-0.109,0.839c0,0.656,0.456,1.112,1.186,1.112
		c1.075,0,2.242-1.021,2.698-2.845l0.984-3.975h1.276l-1.403,5.652c-0.092,0.31-0.146,0.602-0.146,0.766
		c0,0.365,0.219,0.565,0.529,0.565c0.346,0,0.674-0.31,1.039-1.222l0.638,0.219c-0.419,1.313-1.112,1.915-1.969,1.915
		c-0.857,0-1.423-0.565-1.423-1.478c0-0.109,0.019-0.219,0.037-0.364c-0.656,1.058-1.604,1.842-2.699,1.842
		c-1.167,0-2.061-0.767-2.061-1.97c0-0.401,0.073-0.802,0.165-1.167l0.947-3.646h-1.458l0.291-1.112H489.464z"/>
	<path d="M496.319,237.303c-0.292-0.292-0.456-0.62-0.456-0.967c0-0.528,0.364-0.948,0.857-0.948c0.492,0,0.784,0.365,0.784,0.766
		c0,0.219-0.092,0.401-0.237,0.584c0.072,0.073,0.146,0.128,0.31,0.219c0.365,0.2,0.93,0.347,1.55,0.347
		c0.857,0,1.568-0.383,1.568-1.076c0-0.711-0.766-1.076-1.604-1.477c-1.131-0.529-2.151-1.04-2.151-2.207
		c0-1.239,1.039-2.225,2.808-2.225c1.021,0,1.896,0.329,2.389,0.839c0.292,0.292,0.438,0.603,0.438,0.948
		c0,0.565-0.383,0.931-0.82,0.931s-0.802-0.329-0.802-0.767c0-0.182,0.072-0.364,0.2-0.583c-0.055-0.037-0.091-0.073-0.273-0.164
		c-0.273-0.128-0.711-0.219-1.167-0.219c-0.912,0-1.514,0.419-1.514,1.021c0,0.62,0.748,0.967,1.659,1.404
		c1.095,0.511,2.115,1.094,2.115,2.279c0,1.495-1.276,2.298-2.899,2.298C497.942,238.306,496.902,237.886,496.319,237.303z"/>
	<path d="M507.679,235.169c0-2.644,1.878-4.905,4.121-4.905c1.276,0,2.188,0.821,2.425,1.934l0.492-1.842h1.222l-1.403,5.707
		c-0.073,0.31-0.128,0.602-0.128,0.766c0,0.365,0.2,0.565,0.511,0.565c0.346,0,0.675-0.31,1.039-1.222l0.639,0.219
		c-0.42,1.313-1.112,1.915-1.951,1.915c-0.876,0-1.44-0.584-1.44-1.423v-0.182c-0.675,0.911-1.623,1.622-2.772,1.622
		C508.809,238.323,507.679,237.102,507.679,235.169z M513.878,233.51c0-1.258-0.674-2.115-1.95-2.115
		c-1.696,0-2.899,1.806-2.899,3.684c0,1.276,0.62,2.133,1.823,2.133C512.639,237.211,513.878,235.242,513.878,233.51z"/>
	<path d="M521.883,236.847c0-0.219,0.055-0.511,0.127-0.803l2.353-10.12h-1.459l0.273-1.094h2.718l-2.608,11.214
		c-0.055,0.292-0.127,0.603-0.127,0.767c0,0.383,0.2,0.583,0.511,0.583c0.383,0,0.711-0.31,1.075-1.222l0.639,0.219
		c-0.42,1.313-1.095,1.915-1.988,1.915C522.466,238.306,521.883,237.722,521.883,236.847z"/>
	<path d="M527.188,236.847c0-0.219,0.073-0.565,0.146-0.839l1.222-4.485h-1.513l0.291-1.112h2.79l-1.531,5.652
		c-0.073,0.292-0.128,0.602-0.128,0.766c0,0.365,0.219,0.565,0.528,0.565c0.384,0,0.712-0.31,1.058-1.222l0.639,0.219
		c-0.42,1.313-1.076,1.915-1.97,1.915C527.771,238.306,527.188,237.722,527.188,236.847z M528.793,227.984
		c0-0.51,0.42-0.93,0.93-0.93c0.492,0,0.912,0.42,0.912,0.93c0,0.511-0.42,0.931-0.912,0.931
		C529.213,228.915,528.793,228.495,528.793,227.984z"/>
	<path d="M537.381,236.865c0-0.237,0.055-0.603,0.146-0.876l0.729-2.534c0.091-0.347,0.127-0.62,0.127-0.912
		c0-0.692-0.511-1.167-1.258-1.167c-1.039,0-2.206,0.985-2.662,2.845l-1.003,3.957h-1.276l1.678-6.655h-1.459l0.273-1.112h2.589
		l-0.438,1.842c0.675-1.131,1.642-1.97,2.735-1.97c1.24,0,2.134,0.857,2.134,2.115c0,0.383-0.073,0.803-0.201,1.222l-0.711,2.517
		c-0.073,0.236-0.128,0.528-0.128,0.675c0,0.364,0.219,0.583,0.529,0.583c0.364,0,0.675-0.31,1.039-1.222l0.639,0.219
		c-0.401,1.259-1.04,1.915-1.951,1.915C537.965,238.306,537.381,237.704,537.381,236.865z"/>
	<path d="M543.307,234.677c-0.019,0.128-0.019,0.255-0.019,0.383c0,1.368,1.131,2.17,2.479,2.17c0.876,0,1.568-0.183,2.571-0.711
		l-0.273,1.24c-0.82,0.4-1.495,0.564-2.553,0.564c-1.823,0-3.482-1.167-3.482-3.282c0-2.625,1.987-4.777,4.303-4.777
		c1.806,0,2.973,1.095,2.973,2.845c0,0.475-0.092,1.003-0.292,1.568H543.307z M543.507,233.693h4.468
		c0.091-0.237,0.127-0.511,0.127-0.767c0-0.838-0.564-1.55-1.823-1.55C545.057,231.376,543.963,232.343,543.507,233.693z"/>
	<path d="M550.345,237.175c0-0.638,0.492-1.148,1.13-1.148c0.62,0,1.112,0.511,1.112,1.148c0,0.639-0.492,1.148-1.112,1.148
		C550.837,238.323,550.345,237.814,550.345,237.175z"/>
</g>
<path d="M287.139,269.364c2.188,1.895,5.963,1.965,8.876,1.965h12.651c4.948,0,7.197,0.728,8.369,5.019h0.138
	c0.361-1.459,1.168-2.764,2.696-3.711c1.888-1.378,3.337-1.308,5.813-1.308h14.108c3.273,0,6.399-0.218,8.504-2.619
	c0.802-1.037,1.252-2.055,1.515-3.08h-64.953C285.214,267.023,285.89,268.333,287.139,269.364z"/>
<path d="M347.664,172.25c-2.182-1.895-5.959-1.964-8.873-1.964h-12.65c-4.946,0-7.196-0.728-8.366-5.021h-0.138
	c-0.364,1.459-1.168,2.764-2.694,3.711c-1.894,1.379-3.343,1.31-5.818,1.31h-14.109c-3.27,0-6.396,0.217-8.504,2.618
	c-0.799,1.035-1.252,2.054-1.512,3.08h64.951C349.592,174.588,348.916,173.279,347.664,172.25z"/>
</svg>
