<?xml version="1.0" encoding="utf-8"?>
<!-- Generator: Adobe Illustrator 17.0.0, SVG Export Plug-In . SVG Version: 6.00 Build 0)  -->
<!DOCTYPE svg PUBLIC "-//W3C//DTD SVG 1.1//EN" "http://www.w3.org/Graphics/SVG/1.1/DTD/svg11.dtd">
<svg version="1.1" id="Layer_1" xmlns="http://www.w3.org/2000/svg" xmlns:xlink="http://www.w3.org/1999/xlink" x="0px" y="0px"
	 width="222.78px" height="21.82px" viewBox="2.271 3.986 222.78 21.82" enable-background="new 2.271 3.986 222.78 21.82"
	 xml:space="preserve">
<g>
	<path opacity="0.5" fill="#B5121C" enable-background="new    " d="M-538.488,24.376h2.527l3.903-16.831h-2.848l0.48-2.112h6.463
		c2.784,0,4.832,0.64,6.144,1.92c0.96,0.96,1.44,2.208,1.44,3.712c0,3.168-2.24,5.696-6.016,6.56l3.2,6.751h2.463l-0.479,2.112
		h-3.68l-3.84-8.575c-0.352,0.032-0.672,0.032-1.056,0.032c-0.769,0-1.6-0.032-2.272-0.064l-1.535,6.496h2.88l-0.513,2.112h-7.775
		L-538.488,24.376z M-522.778,11.193c0-0.96-0.319-1.76-0.959-2.4c-0.832-0.832-2.336-1.248-4.288-1.248h-1.664l-1.92,8.256
		c0.736,0.064,1.504,0.096,2.656,0.096C-525.113,15.896-522.778,13.945-522.778,11.193z"/>
	<path opacity="0.5" fill="#B5121C" enable-background="new    " d="M-518.489,20.792c0-4.224,3.296-8.191,7.712-8.191
		c3.743,0,5.92,2.752,5.92,5.952c0,4.256-3.296,8.191-7.712,8.191C-516.313,26.744-518.489,24.024-518.489,20.792z M-507.13,18.552
		c0-2.496-1.632-4-3.743-4c-2.977,0-5.344,2.848-5.344,6.271c0,2.464,1.632,3.968,3.743,3.968
		C-509.466,24.792-507.13,21.944-507.13,18.552z"/>
	<path opacity="0.5" fill="#B5121C" enable-background="new    " d="M-497.625,4.985h-2.592l0.479-1.92h4.768l-2.911,12.415
		c1.088-1.568,2.751-2.88,4.735-2.88c3.071,0,5.119,2.24,5.119,5.632c0,4.736-3.392,8.543-7.231,8.543
		c-2.239,0-3.968-1.344-4.415-3.328l-0.801,3.04h-2.144L-497.625,4.985z M-490.394,18.521c0-2.368-1.216-3.936-3.36-3.936
		c-2.976,0-5.344,3.392-5.344,6.496c0,2.176,1.312,3.68,3.616,3.68C-492.538,24.76-490.394,21.688-490.394,18.521z"/>
	<path opacity="0.5" fill="#B5121C" enable-background="new    " d="M-483.13,20.344c-0.032,0.224-0.032,0.448-0.032,0.672
		c0,2.4,1.984,3.808,4.353,3.808c1.535,0,2.751-0.32,4.512-1.248l-0.48,2.176c-1.439,0.704-2.624,0.992-4.479,0.992
		c-3.2,0-6.111-2.048-6.111-5.759c0-4.608,3.487-8.384,7.551-8.384c3.168,0,5.216,1.92,5.216,4.992c0,0.832-0.16,1.76-0.512,2.752
		h-10.018V20.344z M-482.777,18.616h7.839c0.16-0.416,0.225-0.896,0.225-1.344c0-1.472-0.992-2.72-3.2-2.72
		C-480.058,14.553-481.978,16.249-482.777,18.616z"/>
	<path opacity="0.5" fill="#B5121C" enable-background="new    " d="M-467.065,14.809h-2.56l0.479-1.952h4.544l-0.896,3.775
		c1.76-2.592,3.295-4,4.671-4c1.088,0,1.856,0.704,1.856,1.696c0,0.96-0.8,1.76-1.729,1.76c-0.863,0-1.472-0.576-1.632-1.28
		c-1.023,0.512-3.167,2.56-3.903,5.632l-1.536,6.047h-2.239L-467.065,14.809z"/>
	<path opacity="0.5" fill="#B5121C" enable-background="new    " d="M-452.634,14.809l-1.92,7.808
		c-0.128,0.448-0.192,0.832-0.192,1.184c0,0.608,0.416,1.088,1.088,1.088c0.736,0,1.504-0.384,2.849-1.28l0.832,1.184
		c-1.664,1.344-3.008,1.952-4.288,1.952c-1.6,0-2.815-0.992-2.815-2.592c0-0.448,0.096-0.96,0.256-1.536l1.92-7.808h-2.433
		l0.48-1.952h2.432l0.8-3.2l2.464-0.8l-0.992,4h4.16l-0.48,1.952H-452.634z"/>
	<path opacity="0.5" fill="#B5121C" enable-background="new    " d="M-447.066,20.792c0-4.224,3.296-8.191,7.712-8.191
		c3.743,0,5.92,2.752,5.92,5.952c0,4.256-3.296,8.191-7.712,8.191C-444.891,26.744-447.066,24.024-447.066,20.792z M-435.707,18.552
		c0-2.496-1.632-4-3.743-4c-2.977,0-5.344,2.848-5.344,6.271c0,2.464,1.632,3.968,3.743,3.968
		C-438.043,24.792-435.707,21.944-435.707,18.552z"/>
	<path opacity="0.5" fill="#B5121C" enable-background="new    " d="M-423.131,17.592c0-6.719,5.408-12.543,11.903-12.543
		c4.928,0,7.552,3.072,7.552,5.152c0,1.408-0.896,2.335-1.92,2.335c-1.024,0-1.696-0.704-1.696-1.6c0-0.608,0.384-1.184,0.928-1.504
		c-0.352-0.992-2.048-2.24-4.959-2.24c-5.44,0-9.344,5.184-9.344,10.175c0,4.607,2.72,7.327,6.783,7.327
		c2.496,0,4.672-1.056,6.592-2.944l1.408,1.472c-2.368,2.432-5.12,3.647-8.224,3.647C-419.035,26.872-423.131,23.512-423.131,17.592
		z"/>
	<path opacity="0.5" fill="#B5121C" enable-background="new    " d="M-402.972,21.208c0-4.64,3.296-8.607,7.231-8.607
		c2.24,0,3.84,1.44,4.256,3.392l0.864-3.232h2.144l-2.464,10.015c-0.128,0.544-0.224,1.056-0.224,1.344
		c0,0.64,0.352,0.992,0.896,0.992c0.608,0,1.184-0.544,1.824-2.144l1.12,0.384c-0.736,2.304-1.952,3.36-3.424,3.36
		c-1.536,0-2.528-1.024-2.528-2.496v-0.32c-1.184,1.6-2.848,2.848-4.863,2.848C-400.987,26.744-402.972,24.6-402.972,21.208z
		 M-392.093,18.296c0-2.208-1.184-3.712-3.423-3.712c-2.977,0-5.088,3.168-5.088,6.464c0,2.24,1.088,3.744,3.199,3.744
		C-394.269,24.792-392.093,21.336-392.093,18.296z"/>
	<path opacity="0.5" fill="#B5121C" enable-background="new    " d="M-387.995,30.839h2.048l3.84-16.031h-2.592l0.479-1.952h4.576
		l-0.641,2.848c1.12-1.664,2.784-3.104,4.928-3.104c3.008,0,5.056,2.24,5.056,5.632c0,4.736-3.392,8.543-7.264,8.543
		c-2.144,0-3.808-1.376-4.447-3.168l-1.664,7.231h2.784l-0.48,1.92h-7.104L-387.995,30.839z M-372.669,18.521
		c0-2.368-1.216-3.936-3.359-3.936c-2.976,0-5.376,3.392-5.376,6.496c0,2.176,1.345,3.68,3.648,3.68
		C-374.812,24.76-372.669,21.688-372.669,18.521z"/>
	<path opacity="0.5" fill="#B5121C" enable-background="new    " d="M-367.611,20.792c0-4.224,3.296-8.191,7.712-8.191
		c3.743,0,5.92,2.752,5.92,5.952c0,4.256-3.296,8.191-7.712,8.191C-365.436,26.744-367.611,24.024-367.611,20.792z M-356.252,18.552
		c0-2.496-1.632-4-3.743-4c-2.977,0-5.344,2.848-5.344,6.271c0,2.464,1.632,3.968,3.743,3.968
		C-358.588,24.792-356.252,21.944-356.252,18.552z"/>
	<path opacity="0.5" fill="#B5121C" enable-background="new    " d="M-348.315,14.809h-2.56l0.479-1.952h4.544l-0.896,3.775
		c1.76-2.592,3.295-4,4.671-4c1.088,0,1.856,0.704,1.856,1.696c0,0.96-0.8,1.76-1.729,1.76c-0.863,0-1.472-0.576-1.632-1.28
		c-1.023,0.512-3.167,2.56-3.903,5.632l-1.536,6.047h-2.239L-348.315,14.809z"/>
	<path opacity="0.5" fill="#B5121C" enable-background="new    " d="M-333.469,12.857l-2.208,8.543
		c-0.128,0.448-0.192,0.959-0.192,1.472c0,1.152,0.801,1.952,2.08,1.952c1.888,0,3.936-1.792,4.736-4.992l1.728-6.975h2.24
		l-2.464,9.919c-0.16,0.544-0.257,1.056-0.257,1.344c0,0.64,0.385,0.992,0.929,0.992c0.607,0,1.184-0.544,1.823-2.144l1.12,0.384
		c-0.736,2.304-1.952,3.36-3.456,3.36s-2.495-0.992-2.495-2.592c0-0.192,0.031-0.384,0.063-0.64
		c-1.151,1.856-2.815,3.232-4.735,3.232c-2.048,0-3.616-1.344-3.616-3.456c0-0.704,0.128-1.408,0.288-2.048l1.664-6.399h-2.56
		l0.512-1.952C-338.269,12.857-333.469,12.857-333.469,12.857z"/>
	<path opacity="0.5" fill="#B5121C" enable-background="new    " d="M-321.437,24.952c-0.512-0.512-0.8-1.088-0.8-1.696
		c0-0.928,0.64-1.664,1.504-1.664s1.376,0.64,1.376,1.344c0,0.384-0.16,0.704-0.416,1.024c0.128,0.128,0.256,0.224,0.544,0.384
		c0.64,0.352,1.632,0.608,2.72,0.608c1.504,0,2.752-0.672,2.752-1.888c0-1.248-1.344-1.888-2.815-2.592
		c-1.984-0.928-3.776-1.824-3.776-3.872c0-2.176,1.824-3.904,4.928-3.904c1.792,0,3.328,0.576,4.192,1.472
		c0.512,0.512,0.768,1.056,0.768,1.664c0,0.992-0.672,1.632-1.44,1.632s-1.407-0.576-1.407-1.344c0-0.32,0.128-0.64,0.352-1.024
		c-0.096-0.064-0.16-0.128-0.479-0.288c-0.48-0.224-1.248-0.384-2.048-0.384c-1.601,0-2.656,0.736-2.656,1.792
		c0,1.088,1.312,1.696,2.912,2.464c1.92,0.896,3.712,1.92,3.712,4c0,2.624-2.24,4.032-5.088,4.032
		C-318.589,26.712-320.412,25.976-321.437,24.952z"/>
	<path opacity="0.5" fill="#B5121C" enable-background="new    " d="M-308.443,20.856c0-4.32,3.521-8.256,7.808-8.256
		c3.2,0,4.928,1.952,4.928,3.648c0,1.056-0.704,1.92-1.695,1.92c-0.673,0-1.376-0.48-1.376-1.44c0-0.352,0.224-0.896,0.64-1.152
		c-0.48-0.64-1.312-1.024-2.56-1.024c-2.816,0-5.472,2.688-5.472,6.175c0,2.432,1.6,4.064,4.128,4.064
		c1.567,0,3.199-0.64,4.543-1.792l-0.063,2.176c-1.344,0.992-2.944,1.568-4.736,1.568
		C-305.755,26.744-308.443,24.536-308.443,20.856z"/>
	<path opacity="0.5" fill="#B5121C" enable-background="new    " d="M-292.827,24.152c0-0.384,0.128-0.992,0.256-1.472l2.144-7.872
		h-2.655l0.512-1.952h4.896l-2.688,9.919c-0.128,0.512-0.225,1.056-0.225,1.344c0,0.64,0.385,0.992,0.929,0.992
		c0.672,0,1.247-0.544,1.855-2.144l1.12,0.384c-0.736,2.304-1.888,3.36-3.456,3.36C-291.804,26.712-292.827,25.688-292.827,24.152z
		 M-290.012,8.601c0-0.896,0.736-1.632,1.632-1.632c0.864,0,1.6,0.736,1.6,1.632s-0.735,1.632-1.6,1.632
		C-289.275,10.233-290.012,9.497-290.012,8.601z"/>
	<path opacity="0.5" fill="#B5121C" enable-background="new    " d="M-284.156,20.792c0-4.224,3.296-8.191,7.712-8.191
		c3.743,0,5.92,2.752,5.92,5.952c0,4.256-3.296,8.191-7.712,8.191C-281.98,26.744-284.156,24.024-284.156,20.792z M-272.797,18.552
		c0-2.496-1.632-4-3.743-4c-2.977,0-5.344,2.848-5.344,6.271c0,2.464,1.632,3.968,3.743,3.968
		C-275.133,24.792-272.797,21.944-272.797,18.552z"/>
</g>
<g>
	<path d="M-462.299-32.815h3.301c1.947,0,3.201,1.001,3.201,2.707v0.022c0,1.815-1.397,2.772-3.312,2.772h-1.056v2.2h-2.135v-7.701
		H-462.299z M-459.152-28.987c0.759,0,1.222-0.396,1.222-1.001v-0.022c0-0.66-0.463-1.012-1.232-1.012h-1.001v2.035
		C-460.163-28.987-459.152-28.987-459.152-28.987z"/>
	<path d="M-454.874-32.815h2.146v7.701h-2.146V-32.815z"/>
	<path d="M-451.585-26.666l3.862-4.346h-3.729v-1.804h6.678v1.551l-3.861,4.346h3.861v1.804h-6.811V-26.666z"/>
	<path d="M-444.039-26.666l3.862-4.346h-3.729v-1.804h6.678v1.551l-3.861,4.346h3.861v1.804h-6.811V-26.666z"/>
	<path d="M-433.479-32.871h2.058l3.278,7.756h-2.288l-0.561-1.375h-2.971l-0.55,1.375h-2.245L-433.479-32.871z M-431.607-28.151
		l-0.858-2.189l-0.869,2.189H-431.607z"/>
	<path d="M-424.778-32.815h2.256l1.837,2.981l1.837-2.981h2.256v7.701h-2.123v-4.423l-1.97,3.015h-0.044l-1.958-2.992v4.4h-2.091
		L-424.778-32.815L-424.778-32.815z"/>
	<path d="M-412.59-32.871h2.058l3.278,7.756h-2.288l-0.561-1.375h-2.971l-0.55,1.375h-2.245L-412.59-32.871z M-410.719-28.151
		l-0.858-2.189l-0.869,2.189H-410.719z"/>
	<path d="M-406.529-32.815h2.135v3.125l2.651-3.125h2.53l-2.916,3.312l3.015,4.39h-2.563l-1.936-2.86l-0.781,0.869v1.991h-2.135
		L-406.529-32.815L-406.529-32.815z"/>
	<path d="M-398.521-32.815h6.194V-31h-4.082v1.166h3.696v1.683h-3.696v1.221h4.137v1.815h-6.249V-32.815z"/>
	<path d="M-391.207-32.815h3.642c1.178,0,1.991,0.308,2.509,0.836c0.451,0.44,0.682,1.034,0.682,1.793v0.022
		c0,1.177-0.627,1.958-1.584,2.365l1.837,2.685h-2.464l-1.552-2.333h-0.021h-0.913v2.333h-2.135v-7.701H-391.207z M-387.664-29.119
		c0.726,0,1.144-0.352,1.144-0.913v-0.022c0-0.605-0.439-0.913-1.155-0.913h-1.396v1.849L-387.664-29.119L-387.664-29.119z"/>
	<path d="M-379.547-33.894h1.694l-4.873,10.188h-1.694L-379.547-33.894z"/>
	<path d="M-377.457-32.815h3.642c1.178,0,1.991,0.308,2.509,0.836c0.451,0.44,0.682,1.034,0.682,1.793v0.022
		c0,1.177-0.627,1.958-1.584,2.365l1.837,2.685h-2.464l-1.552-2.333h-0.021h-0.913v2.333h-2.135v-7.701H-377.457z M-373.914-29.119
		c0.726,0,1.144-0.352,1.144-0.913v-0.022c0-0.605-0.439-0.913-1.155-0.913h-1.396v1.849L-373.914-29.119L-373.914-29.119z"/>
	<path d="M-369.57-32.815h6.194V-31h-4.082v1.166h3.696v1.683h-3.696v1.221h4.137v1.815h-6.249V-32.815z"/>
	<path d="M-362.839-26.258l1.188-1.419c0.759,0.605,1.606,0.924,2.497,0.924c0.572,0,0.88-0.198,0.88-0.528v-0.022
		c0-0.319-0.253-0.495-1.298-0.737c-1.64-0.374-2.904-0.836-2.904-2.42v-0.022c0-1.43,1.133-2.464,2.981-2.464
		c1.309,0,2.332,0.352,3.168,1.023l-1.066,1.507c-0.704-0.495-1.475-0.759-2.156-0.759c-0.518,0-0.771,0.22-0.771,0.495v0.022
		c0,0.352,0.264,0.506,1.331,0.748c1.771,0.385,2.871,0.958,2.871,2.398v0.022c0,1.573-1.243,2.508-3.113,2.508
		C-360.595-24.982-361.893-25.411-362.839-26.258z"/>
	<path d="M-353.443-30.945h-2.311v-1.87h6.755v1.87h-2.311v5.831h-2.134v-5.831H-353.443z"/>
	<path d="M-346.416-32.871h2.058l3.278,7.756h-2.288l-0.561-1.375h-2.971l-0.55,1.375h-2.245L-346.416-32.871z M-344.545-28.151
		l-0.858-2.189l-0.869,2.189H-344.545z"/>
	<path d="M-340.752-28.492v-4.324h2.167v4.28c0,1.111,0.562,1.639,1.419,1.639c0.858,0,1.42-0.506,1.42-1.584v-4.334h2.167v4.269
		c0,2.486-1.419,3.576-3.608,3.576S-340.752-26.083-340.752-28.492z"/>
	<path d="M-332.337-32.815h3.642c1.178,0,1.991,0.308,2.509,0.836c0.451,0.44,0.682,1.034,0.682,1.793v0.022
		c0,1.177-0.627,1.958-1.584,2.365l1.837,2.685h-2.464l-1.552-2.333h-0.021h-0.913v2.333h-2.135v-7.701H-332.337z M-328.794-29.119
		c0.726,0,1.144-0.352,1.144-0.913v-0.022c0-0.605-0.439-0.913-1.155-0.913h-1.396v1.849L-328.794-29.119L-328.794-29.119z"/>
	<path d="M-321.92-32.871h2.058l3.278,7.756h-2.288l-0.561-1.375h-2.971l-0.55,1.375h-2.245L-321.92-32.871z M-320.049-28.151
		l-0.858-2.189l-0.869,2.189H-320.049z"/>
	<path d="M-314.969-30.945h-2.311v-1.87h6.755v1.87h-2.311v5.831h-2.134v-5.831H-314.969z"/>
	<path d="M-309.612-32.815h6.194V-31h-4.082v1.166h3.696v1.683h-3.696v1.221h4.137v1.815h-6.249V-32.815z"/>
	<path d="M-302.396-28.492v-4.324h2.167v4.28c0,1.111,0.562,1.639,1.419,1.639c0.858,0,1.42-0.506,1.42-1.584v-4.334h2.167v4.269
		c0,2.486-1.419,3.576-3.608,3.576S-302.396-26.083-302.396-28.492z"/>
	<path d="M-293.981-32.815h3.642c1.178,0,1.991,0.308,2.509,0.836c0.451,0.44,0.682,1.034,0.682,1.793v0.022
		c0,1.177-0.627,1.958-1.584,2.365l1.837,2.685h-2.464l-1.552-2.333h-0.021h-0.913v2.333h-2.135v-7.701H-293.981z M-290.438-29.119
		c0.726,0,1.144-0.352,1.144-0.913v-0.022c0-0.605-0.439-0.913-1.155-0.913h-1.396v1.849L-290.438-29.119L-290.438-29.119z"/>
</g>
<g>
	<path opacity="0.5" fill="#B5121C" enable-background="new    " d="M16.959,23.376c-1.792,1.44-4.032,2.368-6.56,2.368
		c-4.544,0-8.128-3.359-8.128-8.607c0-6.943,5.44-13.119,12.512-13.119c2.752,0,5.023,0.928,6.304,2.144
		c0.735,0.736,1.216,1.536,1.216,2.56c0,1.344-0.929,2.144-1.889,2.144c-1.023,0-1.695-0.672-1.695-1.6
		c0-0.544,0.288-1.024,0.832-1.408c-0.096-0.16-0.256-0.32-0.416-0.48c-0.832-0.64-2.4-1.216-4.448-1.216
		c-5.887,0-9.919,5.344-9.919,10.879c0,3.936,2.4,6.591,6.176,6.591c2.432,0,4.607-0.832,6.304-2.144l1.056-4.288h-5.888l0.48-2.016
		h8.223l-2.432,10.239h-2.08L16.959,23.376z"/>
	<path opacity="0.5" fill="#B5121C" enable-background="new    " d="M27.328,13.745h-2.56l0.479-1.952h4.544l-0.896,3.775
		c1.76-2.592,3.296-4,4.671-4c1.088,0,1.856,0.704,1.856,1.696c0,0.96-0.8,1.76-1.729,1.76c-0.863,0-1.472-0.576-1.632-1.28
		c-1.023,0.512-3.167,2.56-3.903,5.632l-1.536,6.047h-2.239L27.328,13.745z"/>
	<path opacity="0.5" fill="#B5121C" enable-background="new    " d="M35.904,20.145c0-4.64,3.296-8.607,7.231-8.607
		c2.24,0,3.84,1.44,4.256,3.392l0.864-3.232h2.144l-2.464,10.015c-0.128,0.544-0.224,1.056-0.224,1.344
		c0,0.64,0.352,0.992,0.896,0.992c0.608,0,1.184-0.544,1.824-2.144l1.12,0.384c-0.736,2.304-1.952,3.36-3.424,3.36
		c-1.536,0-2.528-1.024-2.528-2.496v-0.32c-1.184,1.6-2.848,2.848-4.863,2.848C37.888,25.68,35.904,23.537,35.904,20.145z
		 M46.783,17.233c0-2.208-1.184-3.712-3.423-3.712c-2.977,0-5.088,3.168-5.088,6.464c0,2.24,1.088,3.744,3.199,3.744
		C44.607,23.729,46.783,20.272,46.783,17.233z"/>
	<path opacity="0.5" fill="#B5121C" enable-background="new    " d="M53.792,19.793c0-4.32,3.521-8.256,7.808-8.256
		c3.2,0,4.928,1.952,4.928,3.648c0,1.056-0.704,1.92-1.695,1.92c-0.673,0-1.376-0.48-1.376-1.44c0-0.352,0.224-0.896,0.64-1.152
		c-0.48-0.64-1.312-1.024-2.56-1.024c-2.816,0-5.472,2.688-5.472,6.175c0,2.432,1.6,4.064,4.128,4.064
		c1.567,0,3.199-0.64,4.543-1.792l-0.063,2.176c-1.344,0.992-2.944,1.568-4.736,1.568C56.48,25.68,53.792,23.473,53.792,19.793z"/>
	<path opacity="0.5" fill="#B5121C" enable-background="new    " d="M70.847,19.281c-0.032,0.224-0.032,0.448-0.032,0.672
		c0,2.4,1.984,3.808,4.353,3.808c1.535,0,2.751-0.32,4.512-1.248l-0.48,2.176c-1.439,0.704-2.624,0.992-4.479,0.992
		c-3.2,0-6.111-2.048-6.111-5.759c0-4.608,3.487-8.384,7.551-8.384c3.168,0,5.216,1.92,5.216,4.992c0,0.832-0.16,1.76-0.512,2.752
		H70.847V19.281z M71.2,17.553h7.839c0.16-0.416,0.225-0.896,0.225-1.344c0-1.472-0.992-2.72-3.2-2.72
		C73.919,13.489,72,15.185,71.2,17.553z"/>
	<path opacity="0.5" fill="#B5121C" enable-background="new    " d="M91.551,16.529c0-6.719,5.408-12.543,11.903-12.543
		c4.928,0,7.552,3.072,7.552,5.152c0,1.408-0.896,2.335-1.92,2.335c-1.024,0-1.696-0.704-1.696-1.6c0-0.608,0.384-1.184,0.928-1.504
		c-0.352-0.992-2.048-2.24-4.959-2.24c-5.44,0-9.344,5.184-9.344,10.175c0,4.607,2.72,7.327,6.783,7.327
		c2.496,0,4.672-1.056,6.592-2.944l1.408,1.472c-2.368,2.432-5.12,3.647-8.224,3.647C95.647,25.808,91.551,22.449,91.551,16.529z"/>
	<path opacity="0.5" fill="#B5121C" enable-background="new    " d="M115.006,13.745h-2.56l0.479-1.952h4.544l-0.896,3.775
		c1.76-2.592,3.295-4,4.671-4c1.088,0,1.856,0.704,1.856,1.696c0,0.96-0.8,1.76-1.729,1.76c-0.863,0-1.472-0.576-1.632-1.28
		c-1.023,0.512-3.167,2.56-3.903,5.632l-1.536,6.047h-2.239L115.006,13.745z"/>
	<path opacity="0.5" fill="#B5121C" enable-background="new    " d="M123.55,19.729c0-4.224,3.296-8.191,7.712-8.191
		c3.743,0,5.92,2.752,5.92,5.952c0,4.256-3.296,8.191-7.712,8.191C125.726,25.68,123.55,22.96,123.55,19.729z M134.91,17.489
		c0-2.496-1.632-4-3.743-4c-2.977,0-5.344,2.848-5.344,6.271c0,2.464,1.632,3.968,3.743,3.968
		C132.574,23.729,134.91,20.881,134.91,17.489z"/>
	<path opacity="0.5" fill="#B5121C" enable-background="new    " d="M139.774,23.889c-0.512-0.512-0.8-1.088-0.8-1.696
		c0-0.928,0.64-1.664,1.504-1.664s1.376,0.64,1.376,1.344c0,0.384-0.16,0.704-0.416,1.024c0.128,0.128,0.256,0.224,0.544,0.384
		c0.64,0.352,1.632,0.608,2.72,0.608c1.504,0,2.752-0.672,2.752-1.888c0-1.248-1.344-1.888-2.815-2.592
		c-1.984-0.928-3.776-1.824-3.776-3.872c0-2.176,1.824-3.904,4.928-3.904c1.792,0,3.328,0.576,4.192,1.472
		c0.512,0.512,0.768,1.056,0.768,1.664c0,0.992-0.672,1.632-1.441,1.632c-0.768,0-1.407-0.576-1.407-1.344
		c0-0.32,0.128-0.64,0.352-1.024c-0.096-0.064-0.16-0.128-0.479-0.288c-0.48-0.224-1.248-0.384-2.048-0.384
		c-1.601,0-2.656,0.736-2.656,1.792c0,1.088,1.312,1.696,2.912,2.464c1.92,0.896,3.712,1.92,3.712,4c0,2.624-2.24,4.032-5.088,4.032
		C142.622,25.648,140.798,24.912,139.774,23.889z"/>
	<path opacity="0.5" fill="#B5121C" enable-background="new    " d="M153.278,23.889c-0.512-0.512-0.8-1.088-0.8-1.696
		c0-0.928,0.64-1.664,1.504-1.664s1.376,0.64,1.376,1.344c0,0.384-0.16,0.704-0.416,1.024c0.128,0.128,0.256,0.224,0.544,0.384
		c0.64,0.352,1.632,0.608,2.72,0.608c1.504,0,2.752-0.672,2.752-1.888c0-1.248-1.344-1.888-2.815-2.592
		c-1.984-0.928-3.776-1.824-3.776-3.872c0-2.176,1.824-3.904,4.928-3.904c1.792,0,3.328,0.576,4.192,1.472
		c0.512,0.512,0.768,1.056,0.768,1.664c0,0.992-0.672,1.632-1.44,1.632s-1.407-0.576-1.407-1.344c0-0.32,0.128-0.64,0.352-1.024
		c-0.096-0.064-0.16-0.128-0.479-0.288c-0.48-0.224-1.248-0.384-2.048-0.384c-1.601,0-2.656,0.736-2.656,1.792
		c0,1.088,1.312,1.696,2.912,2.464c1.92,0.896,3.712,1.92,3.712,4c0,2.624-2.24,4.032-5.088,4.032
		C156.126,25.648,154.303,24.912,153.278,23.889z"/>
	<path opacity="0.5" fill="#B5121C" enable-background="new    " d="M169.534,13.745h-2.56l0.479-1.952h4.544l-0.8,3.231
		c1.216-1.984,2.88-3.456,4.672-3.456c2.048,0,3.424,1.312,3.52,3.424c1.28-2.112,3.008-3.424,4.735-3.424
		c2.048,0,3.552,1.504,3.552,3.712c0,0.672-0.128,1.408-0.352,2.144l-1.28,4.416c-0.096,0.416-0.191,0.928-0.191,1.184
		c0,0.64,0.384,1.024,0.928,1.024c0.607,0,1.184-0.544,1.823-2.144l1.12,0.384c-0.704,2.208-1.823,3.36-3.424,3.36
		c-1.663,0-2.688-1.056-2.688-2.528c0-0.416,0.096-1.056,0.256-1.536l1.248-4.384c0.16-0.64,0.256-1.152,0.256-1.664
		c0-1.248-0.8-2.048-1.983-2.048c-1.76,0-3.712,1.76-4.576,5.087l-1.76,6.848h-2.24l2.112-8.191c0.16-0.672,0.256-1.216,0.256-1.728
		c0-1.152-0.8-2.016-2.016-2.016c-1.728,0-3.808,1.76-4.607,5.056l-1.729,6.879h-2.239L169.534,13.745z"/>
	<path opacity="0.5" fill="#B5121C" enable-background="new    " d="M191.839,20.145c0-4.64,3.296-8.607,7.231-8.607
		c2.24,0,3.84,1.44,4.256,3.392l0.864-3.232h2.144l-2.464,10.015c-0.128,0.544-0.224,1.056-0.224,1.344
		c0,0.64,0.352,0.992,0.896,0.992c0.608,0,1.184-0.544,1.824-2.144l1.12,0.384c-0.736,2.304-1.952,3.36-3.424,3.36
		c-1.536,0-2.528-1.024-2.528-2.496v-0.32c-1.184,1.6-2.848,2.848-4.863,2.848C193.823,25.68,191.839,23.537,191.839,20.145z
		 M202.718,17.233c0-2.208-1.184-3.712-3.423-3.712c-2.977,0-5.088,3.168-5.088,6.464c0,2.24,1.088,3.744,3.199,3.744
		C200.542,23.729,202.718,20.272,202.718,17.233z"/>
	<path opacity="0.5" fill="#B5121C" enable-background="new    " d="M218.942,23.121c0-0.416,0.096-1.056,0.256-1.536l1.28-4.448
		c0.159-0.608,0.224-1.088,0.224-1.6c0-1.216-0.896-2.048-2.208-2.048c-1.823,0-3.871,1.728-4.672,4.992l-1.76,6.943h-2.239
		l2.943-11.679h-2.56l0.479-1.952h4.544l-0.768,3.231c1.184-1.984,2.88-3.456,4.8-3.456c2.176,0,3.743,1.504,3.743,3.712
		c0,0.672-0.128,1.408-0.352,2.144l-1.248,4.416c-0.128,0.416-0.225,0.928-0.225,1.184c0,0.64,0.385,1.024,0.929,1.024
		c0.64,0,1.184-0.544,1.823-2.144l1.12,0.384c-0.704,2.208-1.824,3.36-3.424,3.36C219.966,25.648,218.942,24.592,218.942,23.121z"/>
</g>
<rect x="606.298" y="-453.952" fill="none" width="302.143" height="42.547"/>
<text transform="matrix(1 0 0 1 606.2979 -445.9198)" font-family="'ArialMT'" font-size="11">Executive Chef/Printmaker</text>
<rect x="602.294" y="-292.155" fill="none" width="239.143" height="25.678"/>
<text transform="matrix(1 0 0 1 602.2945 -268.7313)" opacity="0.5" fill="#B5121C" enable-background="new    " font-family="'ArialMT'" font-size="32">Brandon Carter</text>
<rect x="606.298" y="-259.416" fill="none" width="302.143" height="42.547"/>
<text transform="matrix(1 0 0 1 606.2979 -251.3835)" font-family="'ArialMT'" font-size="11">SOUS CHEF</text>
<rect x="602.294" y="72.635" fill="none" width="239.143" height="25.678"/>
<text transform="matrix(1 0 0 1 602.2945 96.0587)" opacity="0.5" fill="#B5121C" enable-background="new    " font-family="'ArialMT'" font-size="32">Mark Hinchliffe</text>
<rect x="606.298" y="109.378" fill="none" width="302.143" height="42.547"/>
<text transform="matrix(1 0 0 1 606.2979 117.4093)" font-family="'ArialMT'" font-size="11">Writer/Illustrator</text>
<rect x="602.294" y="258.49" fill="none" width="239.143" height="25.678"/>
<text transform="matrix(1 0 0 1 602.2945 281.914)" opacity="0.5" fill="#B5121C" enable-background="new    " font-family="'ArialMT'" font-size="32">Andrew Holtz</text>
<rect x="606.298" y="294.232" fill="none" width="302.143" height="42.547"/>
<text transform="matrix(1 0 0 1 606.2979 302.2636)" font-family="'ArialMT'" font-size="11">Photographer</text>
<rect x="602.294" y="447.466" fill="none" width="239.143" height="25.678"/>
<text transform="matrix(1 0 0 1 602.2945 470.8903)" opacity="0.5" fill="#B5121C" enable-background="new    " font-family="'ArialMT'" font-size="32">Paul Holzheimer</text>
<rect x="606.298" y="481.207" fill="none" width="302.143" height="42.547"/>
<text transform="matrix(1 0 0 1 606.2979 489.2385)" font-family="'ArialMT'" font-size="11">Executive Chef</text>
<rect x="606.298" y="669.28" fill="none" width="302.143" height="42.547"/>
<text transform="matrix(1 0 0 1 606.2979 677.3117)" font-family="'ArialMT'" font-size="11">Oven Cook/Artist</text>
<rect x="602.294" y="635.783" fill="none" width="239.143" height="25.678"/>
<text transform="matrix(1 0 0 1 602.2945 659.2067)" opacity="0.5" fill="#B5121C" enable-background="new    " font-family="'ArialMT'" font-size="32">Michael Johnson</text>
<rect x="606.298" y="856.59" fill="none" width="302.143" height="42.547"/>
<text transform="matrix(1 0 0 1 606.2979 864.6221)" font-family="'ArialMT'" font-size="11">Head Pizzaiola/Creative Director</text>
<rect x="602.294" y="823.093" fill="none" width="239.143" height="25.678"/>
<text transform="matrix(1 0 0 1 602.2945 846.5172)" opacity="0.5" fill="#B5121C" enable-background="new    " font-family="'ArialMT'" font-size="32">Fredrica Vilardi</text>
<rect x="602.294" y="1010.404" fill="none" width="239.143" height="25.678"/>
<text transform="matrix(1 0 0 1 602.2945 1033.8276)" opacity="0.5" fill="#B5121C" enable-background="new    " font-family="'ArialMT'" font-size="32">Nick Villapiano</text>
<rect x="606.298" y="1044.902" fill="none" width="302.143" height="42.547"/>
<text transform="matrix(1 0 0 1 606.2979 1052.9336)" font-family="'ArialMT'" font-size="11">Barista/Web Developer</text>
<rect x="602.294" y="1195.777" fill="none" width="239.143" height="25.678"/>
<text transform="matrix(1 0 0 1 602.2945 1219.2006)" opacity="0.5" fill="#B5121C" enable-background="new    " font-family="'ArialMT'" font-size="32">Adam Worth</text>
<rect x="606.298" y="1230.275" fill="none" width="302.143" height="42.547"/>
<text transform="matrix(1 0 0 1 606.2979 1238.3065)" font-family="'ArialMT'" font-size="11">DJ/TV Producer</text>
<rect x="604.183" y="1383.475" fill="none" width="239.143" height="25.678"/>
<text transform="matrix(1 0 0 1 604.1832 1406.8995)" opacity="0.5" fill="#B5121C" enable-background="new    " font-family="'ArialMT'" font-size="32">Brian Wrensen</text>
<rect x="607.209" y="-111.814" fill="none" width="239.143" height="25.678"/>
<text transform="matrix(1 0 0 1 607.2095 -88.3892)" opacity="0.5" fill="#B5121C" enable-background="new    " font-family="'ArialMT'" font-size="32">Andrei Ferbei</text>
<rect x="608.187" y="1417.973" fill="none" width="302.143" height="42.547"/>
<text transform="matrix(1 0 0 1 608.1866 1426.0048)" font-family="'ArialMT'" font-size="11">Designer</text>
<rect x="607.209" y="-77.315" fill="none" width="302.143" height="42.547"/>
<text transform="matrix(1 0 0 1 607.209 -69.284)" font-family="'ArialMT'" font-size="11">Pizzaoli</text>
<g>
	<path d="M-347.13-44.443l1.188-1.419c0.759,0.605,1.606,0.924,2.497,0.924c0.572,0,0.88-0.198,0.88-0.528v-0.022
		c0-0.319-0.253-0.495-1.298-0.737c-1.64-0.374-2.904-0.836-2.904-2.42v-0.022c0-1.43,1.133-2.464,2.981-2.464
		c1.309,0,2.332,0.352,3.168,1.023l-1.066,1.507c-0.704-0.495-1.475-0.759-2.156-0.759c-0.518,0-0.771,0.22-0.771,0.495v0.022
		c0,0.352,0.264,0.506,1.331,0.748c1.771,0.385,2.871,0.958,2.871,2.398v0.022c0,1.573-1.243,2.508-3.113,2.508
		C-344.886-43.167-346.184-43.596-347.13-44.443z"/>
	<path d="M-339.66-47.127v-0.022c0-2.211,1.782-4.004,4.158-4.004c2.377,0,4.137,1.771,4.137,3.982v0.022
		c0,2.211-1.782,4.004-4.158,4.004C-337.9-43.145-339.66-44.916-339.66-47.127z M-333.543-47.127v-0.022
		c0-1.111-0.804-2.079-1.98-2.079c-1.166,0-1.947,0.946-1.947,2.057v0.022c0,1.111,0.803,2.079,1.969,2.079
		C-334.324-45.07-333.543-46.016-333.543-47.127z"/>
	<path d="M-330.376-46.676V-51h2.167v4.28c0,1.111,0.562,1.639,1.419,1.639c0.858,0,1.42-0.506,1.42-1.584V-51h2.167v4.269
		c0,2.486-1.419,3.576-3.608,3.576S-330.376-44.267-330.376-46.676z"/>
	<path d="M-322.544-44.443l1.188-1.419c0.759,0.605,1.606,0.924,2.497,0.924c0.572,0,0.88-0.198,0.88-0.528v-0.022
		c0-0.319-0.253-0.495-1.298-0.737c-1.64-0.374-2.904-0.836-2.904-2.42v-0.022c0-1.43,1.133-2.464,2.981-2.464
		c1.309,0,2.332,0.352,3.168,1.023l-1.066,1.507c-0.704-0.495-1.475-0.759-2.156-0.759c-0.518,0-0.771,0.22-0.771,0.495v0.022
		c0,0.352,0.264,0.506,1.331,0.748c1.771,0.385,2.871,0.958,2.871,2.398v0.022c0,1.573-1.243,2.508-3.113,2.508
		C-320.3-43.167-321.598-43.596-322.544-44.443z"/>
	<path d="M-312.435-47.127v-0.022c0-2.244,1.728-4.004,4.06-4.004c1.573,0,2.585,0.66,3.268,1.606l-1.606,1.243
		c-0.44-0.55-0.946-0.902-1.684-0.902c-1.078,0-1.837,0.913-1.837,2.035v0.022c0,1.155,0.759,2.057,1.837,2.057
		c0.804,0,1.276-0.374,1.738-0.935l1.606,1.145c-0.726,1.001-1.705,1.738-3.41,1.738C-310.663-43.145-312.435-44.828-312.435-47.127
		z"/>
	<path d="M-304.163-51h2.135v2.882h2.739V-51h2.134v7.701h-2.134v-2.926h-2.739v2.926h-2.135V-51z"/>
	<path d="M-295.814-51h6.194v1.815h-4.082v1.166h3.696v1.683h-3.696v1.221h4.137v1.815h-6.249V-51z"/>
	<path d="M-288.5-51h6.161v1.87h-4.026v1.31h3.642v1.771h-3.642v2.75h-2.135V-51z"/>
</g>
</svg>
