<?xml version="1.0" encoding="utf-8"?>
<!-- Generator: Adobe Illustrator 17.0.0, SVG Export Plug-In . SVG Version: 6.00 Build 0)  -->
<!DOCTYPE svg PUBLIC "-//W3C//DTD SVG 1.1//EN" "http://www.w3.org/Graphics/SVG/1.1/DTD/svg11.dtd">
<svg version="1.1" id="Layer_1" xmlns="http://www.w3.org/2000/svg" xmlns:xlink="http://www.w3.org/1999/xlink" x="0px" y="0px"
	 width="64.791px" height="8.009px" viewBox="0.941 0.914 64.791 8.009" enable-background="new 0.941 0.914 64.791 8.009"
	 xml:space="preserve">
<rect x="606.298" y="-676.032" fill="none" width="277.143" height="28.415"/>
<text transform="matrix(1 0 0 1 606.2979 -652.6072)" opacity="0.5" fill="#B5121C" enable-background="new    " font-family="'ArialMT'" font-size="32">Roberto Caporuscio</text>
<rect x="606.298" y="-640.61" fill="none" width="302.143" height="42.547"/>
<text transform="matrix(1 0 0 1 606.2979 -632.5808)" font-family="'ArialMT'" font-size="11">Pizza Maker/Restaurateur</text>
<rect x="602.294" y="-488.693" fill="none" width="239.143" height="25.678"/>
<text transform="matrix(1 0 0 1 602.2945 -465.2684)" opacity="0.5" fill="#B5121C" enable-background="new    " font-family="'ArialMT'" font-size="32">Grace Crossman</text>
<rect x="606.298" y="-453.952" fill="none" width="302.143" height="42.547"/>
<text transform="matrix(1 0 0 1 606.2979 -445.9198)" font-family="'ArialMT'" font-size="11">Executive Chef/Printmaker</text>
<rect x="602.294" y="-292.155" fill="none" width="239.143" height="25.678"/>
<text transform="matrix(1 0 0 1 602.2945 -268.7313)" opacity="0.5" fill="#B5121C" enable-background="new    " font-family="'ArialMT'" font-size="32">Brandon Carter</text>
<rect x="606.298" y="-259.416" fill="none" width="302.143" height="42.547"/>
<text transform="matrix(1 0 0 1 606.2979 -251.3835)" font-family="'ArialMT'" font-size="11">SOUS CHEF</text>
<rect x="602.294" y="72.635" fill="none" width="239.143" height="25.678"/>
<text transform="matrix(1 0 0 1 602.2945 96.0587)" opacity="0.5" fill="#B5121C" enable-background="new    " font-family="'ArialMT'" font-size="32">Mark Hinchliffe</text>
<rect x="606.298" y="109.378" fill="none" width="302.143" height="42.547"/>
<text transform="matrix(1 0 0 1 606.2979 117.4093)" font-family="'ArialMT'" font-size="11">Writer/Illustrator</text>
<rect x="602.294" y="258.49" fill="none" width="239.143" height="25.678"/>
<text transform="matrix(1 0 0 1 602.2945 281.914)" opacity="0.5" fill="#B5121C" enable-background="new    " font-family="'ArialMT'" font-size="32">Andrew Holtz</text>
<rect x="606.298" y="294.232" fill="none" width="302.143" height="42.547"/>
<text transform="matrix(1 0 0 1 606.2979 302.2636)" font-family="'ArialMT'" font-size="11">Photographer</text>
<rect x="602.294" y="447.466" fill="none" width="239.143" height="25.678"/>
<text transform="matrix(1 0 0 1 602.2945 470.8903)" opacity="0.5" fill="#B5121C" enable-background="new    " font-family="'ArialMT'" font-size="32">Paul Holzheimer</text>
<rect x="606.298" y="481.207" fill="none" width="302.143" height="42.547"/>
<text transform="matrix(1 0 0 1 606.2979 489.2385)" font-family="'ArialMT'" font-size="11">Executive Chef</text>
<rect x="606.298" y="669.28" fill="none" width="302.143" height="42.547"/>
<text transform="matrix(1 0 0 1 606.2979 677.3117)" font-family="'ArialMT'" font-size="11">Oven Cook/Artist</text>
<rect x="602.294" y="635.783" fill="none" width="239.143" height="25.678"/>
<text transform="matrix(1 0 0 1 602.2945 659.2067)" opacity="0.5" fill="#B5121C" enable-background="new    " font-family="'ArialMT'" font-size="32">Michael Johnson</text>
<rect x="606.298" y="856.59" fill="none" width="302.143" height="42.547"/>
<text transform="matrix(1 0 0 1 606.2979 864.6221)" font-family="'ArialMT'" font-size="11">Head Pizzaiola/Creative Director</text>
<rect x="602.294" y="823.093" fill="none" width="239.143" height="25.678"/>
<text transform="matrix(1 0 0 1 602.2945 846.5172)" opacity="0.5" fill="#B5121C" enable-background="new    " font-family="'ArialMT'" font-size="32">Fredrica Vilardi</text>
<rect x="602.294" y="1010.404" fill="none" width="239.143" height="25.678"/>
<text transform="matrix(1 0 0 1 602.2945 1033.8276)" opacity="0.5" fill="#B5121C" enable-background="new    " font-family="'ArialMT'" font-size="32">Nick Villapiano</text>
<rect x="606.298" y="1044.902" fill="none" width="302.143" height="42.547"/>
<text transform="matrix(1 0 0 1 606.2979 1052.9336)" font-family="'ArialMT'" font-size="11">Barista/Web Developer</text>
<rect x="602.294" y="1195.777" fill="none" width="239.143" height="25.678"/>
<text transform="matrix(1 0 0 1 602.2945 1219.2006)" opacity="0.5" fill="#B5121C" enable-background="new    " font-family="'ArialMT'" font-size="32">Adam Worth</text>
<rect x="606.298" y="1230.275" fill="none" width="302.143" height="42.547"/>
<text transform="matrix(1 0 0 1 606.2979 1238.3065)" font-family="'ArialMT'" font-size="11">DJ/TV Producer</text>
<rect x="604.183" y="1383.475" fill="none" width="239.143" height="25.678"/>
<text transform="matrix(1 0 0 1 604.1832 1406.8995)" opacity="0.5" fill="#B5121C" enable-background="new    " font-family="'ArialMT'" font-size="32">Brian Wrensen</text>
<rect x="607.209" y="-111.814" fill="none" width="239.143" height="25.678"/>
<text transform="matrix(1 0 0 1 607.2095 -88.3892)" opacity="0.5" fill="#B5121C" enable-background="new    " font-family="'ArialMT'" font-size="32">Andrei Ferbei</text>
<rect x="608.187" y="1417.973" fill="none" width="302.143" height="42.547"/>
<text transform="matrix(1 0 0 1 608.1866 1426.0048)" font-family="'ArialMT'" font-size="11">Designer</text>
<rect x="607.209" y="-77.315" fill="none" width="302.143" height="42.547"/>
<text transform="matrix(1 0 0 1 607.209 -69.284)" font-family="'ArialMT'" font-size="11">Pizzaoli</text>
<g>
	<path d="M0.941,7.625l1.188-1.419C2.888,6.811,3.736,7.13,4.626,7.13c0.572,0,0.88-0.198,0.88-0.528V6.58
		c0-0.319-0.253-0.495-1.298-0.737c-1.64-0.374-2.904-0.836-2.904-2.42V3.4c0-1.43,1.133-2.464,2.981-2.464
		c1.309,0,2.332,0.352,3.168,1.023L6.387,3.466C5.683,2.971,4.913,2.707,4.231,2.707c-0.518,0-0.771,0.22-0.771,0.495v0.022
		c0,0.352,0.264,0.506,1.331,0.748C6.563,4.357,7.663,4.93,7.663,6.371v0.022c0,1.573-1.243,2.508-3.113,2.508
		C3.185,8.901,1.887,8.472,0.941,7.625z"/>
	<path d="M8.411,4.94V4.918c0-2.211,1.782-4.004,4.158-4.004c2.377,0,4.137,1.771,4.137,3.982v0.022
		c0,2.211-1.782,4.004-4.158,4.004C10.17,8.923,8.411,7.152,8.411,4.94z M14.528,4.94V4.918c0-1.111-0.804-2.079-1.98-2.079
		c-1.166,0-1.947,0.946-1.947,2.057v0.022c0,1.111,0.803,2.079,1.969,2.079C13.747,6.998,14.528,6.052,14.528,4.94z"/>
	<path d="M17.695,5.392V1.068h2.167v4.28c0,1.111,0.562,1.639,1.419,1.639c0.858,0,1.42-0.506,1.42-1.584V1.068h2.167v4.269
		c0,2.486-1.419,3.576-3.608,3.576S17.695,7.801,17.695,5.392z"/>
	<path d="M25.527,7.625l1.188-1.419c0.759,0.605,1.606,0.924,2.497,0.924c0.572,0,0.88-0.198,0.88-0.528V6.58
		c0-0.319-0.253-0.495-1.298-0.737c-1.64-0.374-2.904-0.836-2.904-2.42V3.4c0-1.43,1.133-2.464,2.981-2.464
		c1.309,0,2.332,0.352,3.168,1.023l-1.066,1.507c-0.704-0.495-1.475-0.759-2.156-0.759c-0.518,0-0.771,0.22-0.771,0.495v0.022
		c0,0.352,0.264,0.506,1.331,0.748c1.771,0.385,2.871,0.958,2.871,2.398v0.022c0,1.573-1.243,2.508-3.113,2.508
		C27.771,8.901,26.473,8.472,25.527,7.625z"/>
	<path d="M35.636,4.94V4.918c0-2.244,1.728-4.004,4.06-4.004c1.573,0,2.585,0.66,3.268,1.606l-1.606,1.243
		c-0.44-0.55-0.946-0.902-1.684-0.902c-1.078,0-1.837,0.913-1.837,2.035v0.022c0,1.155,0.759,2.057,1.837,2.057
		c0.804,0,1.276-0.374,1.738-0.935l1.606,1.145c-0.726,1.001-1.705,1.738-3.41,1.738C37.408,8.923,35.636,7.24,35.636,4.94z"/>
	<path d="M43.908,1.068h2.135V3.95h2.739V1.068h2.134v7.701h-2.134V5.843h-2.739v2.926h-2.135V1.068z"/>
	<path d="M52.256,1.068h6.194v1.815h-4.082v1.166h3.696v1.683h-3.696v1.221h4.137v1.815h-6.249V1.068z"/>
	<path d="M59.571,1.068h6.161v1.87h-4.026v1.31h3.642v1.771h-3.642v2.75h-2.135C59.571,8.769,59.571,1.068,59.571,1.068z"/>
</g>
</svg>
