<?xml version="1.0" encoding="utf-8"?>
<!-- Generator: Adobe Illustrator 17.0.0, SVG Export Plug-In . SVG Version: 6.00 Build 0)  -->
<!DOCTYPE svg PUBLIC "-//W3C//DTD SVG 1.1//EN" "http://www.w3.org/Graphics/SVG/1.1/DTD/svg11.dtd">
<svg version="1.1" id="Layer_1" xmlns="http://www.w3.org/2000/svg" xmlns:xlink="http://www.w3.org/1999/xlink" x="0px" y="0px"
	 width="170.941px" height="23.678px" viewBox="3.976 3.247 170.941 23.678" enable-background="new 3.976 3.247 170.941 23.678"
	 xml:space="preserve">
<g>
	<path opacity="0.5" fill="#B5121C" enable-background="new    " d="M4.488,24.557h2.527l3.903-16.831H8.071l0.48-2.112h7.999
		l-0.479,2.112h-2.784L9.384,24.589h7.167l0.769-3.231h2.271l-1.216,5.312H3.976L4.488,24.557z"/>
	<path opacity="0.5" fill="#B5121C" enable-background="new    " d="M22.536,21.389c0-4.64,3.296-8.607,7.231-8.607
		c2.24,0,3.84,1.44,4.256,3.392l0.864-3.232h2.144l-2.464,10.015c-0.128,0.544-0.224,1.056-0.224,1.344
		c0,0.64,0.352,0.992,0.896,0.992c0.608,0,1.184-0.544,1.824-2.144l1.12,0.384c-0.736,2.304-1.952,3.36-3.424,3.36
		c-1.536,0-2.528-1.024-2.528-2.496v-0.32c-1.184,1.6-2.848,2.848-4.863,2.848C24.521,26.925,22.536,24.781,22.536,21.389z
		 M33.415,18.478c0-2.208-1.184-3.712-3.423-3.712c-2.977,0-5.088,3.168-5.088,6.464c0,2.24,1.088,3.744,3.199,3.744
		C31.239,24.973,33.415,21.517,33.415,18.478z"/>
	<path opacity="0.5" fill="#B5121C" enable-background="new    " d="M46.088,13.038l-2.208,8.543
		c-0.128,0.448-0.192,0.959-0.192,1.472c0,1.152,0.801,1.952,2.08,1.952c1.888,0,3.936-1.792,4.736-4.992l1.728-6.975h2.24
		l-2.464,9.919c-0.16,0.544-0.257,1.056-0.257,1.344c0,0.64,0.385,0.992,0.929,0.992c0.607,0,1.184-0.544,1.823-2.144l1.12,0.384
		c-0.736,2.304-1.952,3.36-3.456,3.36s-2.495-0.992-2.495-2.592c0-0.192,0.031-0.384,0.063-0.64
		c-1.151,1.856-2.815,3.232-4.735,3.232c-2.048,0-3.616-1.344-3.616-3.456c0-0.704,0.128-1.408,0.288-2.048l1.664-6.399h-2.56
		l0.512-1.952C41.288,13.038,46.088,13.038,46.088,13.038z"/>
	<path opacity="0.5" fill="#B5121C" enable-background="new    " d="M60.872,14.99h-2.56l0.479-1.952h4.544l-0.896,3.775
		c1.76-2.592,3.295-4,4.671-4c1.088,0,1.856,0.704,1.856,1.696c0,0.96-0.8,1.76-1.729,1.76c-0.863,0-1.472-0.576-1.632-1.28
		c-1.023,0.512-3.167,2.56-3.903,5.632l-1.536,6.047h-2.239L60.872,14.99z"/>
	<path opacity="0.5" fill="#B5121C" enable-background="new    " d="M69.448,21.389c0-4.64,3.296-8.607,7.231-8.607
		c2.24,0,3.84,1.44,4.256,3.392l0.864-3.232h2.144l-2.464,10.015c-0.128,0.544-0.224,1.056-0.224,1.344
		c0,0.64,0.352,0.992,0.896,0.992c0.608,0,1.184-0.544,1.824-2.144l1.12,0.384c-0.736,2.304-1.952,3.36-3.424,3.36
		c-1.536,0-2.528-1.024-2.528-2.496v-0.32c-1.184,1.6-2.848,2.848-4.863,2.848C71.433,26.925,69.448,24.781,69.448,21.389z
		 M80.327,18.478c0-2.208-1.184-3.712-3.423-3.712c-2.977,0-5.088,3.168-5.088,6.464c0,2.24,1.088,3.744,3.199,3.744
		C78.151,24.973,80.327,21.517,80.327,18.478z"/>
	<path opacity="0.5" fill="#B5121C" enable-background="new    " d="M93.321,24.557h2.527l3.903-16.831h-2.848l0.48-2.112h7.423
		c1.761,0,3.168,0.288,4.288,0.896c1.504,0.832,2.432,2.304,2.432,4.064c0,2.848-2.304,4.928-5.312,5.375
		c2.144,0.576,3.872,2.272,3.872,4.512c0,1.696-0.672,3.104-1.856,4.16c-0.96,0.864-2.271,1.472-3.808,1.792
		c-0.863,0.16-1.823,0.256-2.815,0.256h-8.8L93.321,24.557z M101.929,24.589c0.8,0,1.567-0.096,2.207-0.256
		c1.057-0.256,1.856-0.672,2.464-1.312c0.704-0.672,1.024-1.568,1.024-2.624c0-1.984-1.792-3.584-5.28-3.584h-2.335l-1.792,7.775
		h3.712V24.589z M102.92,14.862c3.712,0,6.176-1.472,6.176-4.096c0-1.056-0.512-1.984-1.632-2.528
		c-0.736-0.352-1.728-0.544-3.008-0.544h-2.336l-1.664,7.167h2.464V14.862z"/>
	<path opacity="0.5" fill="#B5121C" enable-background="new    " d="M116.264,14.99h-2.56l0.479-1.952h4.544l-0.896,3.775
		c1.76-2.592,3.296-4,4.671-4c1.088,0,1.856,0.704,1.856,1.696c0,0.96-0.8,1.76-1.729,1.76c-0.863,0-1.472-0.576-1.632-1.28
		c-1.023,0.512-3.167,2.56-3.903,5.632l-1.536,6.047h-2.239L116.264,14.99z"/>
	<path opacity="0.5" fill="#B5121C" enable-background="new    " d="M124.84,21.389c0-4.64,3.296-8.607,7.231-8.607
		c2.24,0,3.84,1.44,4.256,3.392l0.864-3.232h2.144l-2.464,10.015c-0.128,0.544-0.224,1.056-0.224,1.344
		c0,0.64,0.352,0.992,0.896,0.992c0.608,0,1.184-0.544,1.824-2.144l1.12,0.384c-0.736,2.304-1.952,3.36-3.424,3.36
		c-1.536,0-2.528-1.024-2.528-2.496v-0.32c-1.184,1.6-2.848,2.848-4.863,2.848C126.824,26.925,124.84,24.781,124.84,21.389z
		 M135.719,18.478c0-2.208-1.184-3.712-3.423-3.712c-2.977,0-5.088,3.168-5.088,6.464c0,2.24,1.088,3.744,3.199,3.744
		C133.543,24.973,135.719,21.517,135.719,18.478z"/>
	<path opacity="0.5" fill="#B5121C" enable-background="new    " d="M147.336,5.167h-2.592l0.479-1.92h4.768l-2.943,12.607
		c1.023-1.568,2.624-3.04,4.543-3.04c2.177,0,3.84,1.504,3.872,3.712c0,0.672-0.128,1.408-0.352,2.144l-1.185,4.416
		c-0.128,0.448-0.191,0.928-0.191,1.184c0,0.64,0.384,1.024,0.928,1.024c0.64,0,1.184-0.544,1.792-2.144l1.12,0.384
		c-0.672,2.208-1.76,3.36-3.36,3.36c-1.664,0-2.72-1.056-2.72-2.528c0-0.416,0.096-0.992,0.225-1.504l1.216-4.48
		c0.159-0.608,0.224-1.088,0.224-1.6c-0.032-1.216-0.96-2.048-2.271-2.048c-1.856,0-3.937,1.728-4.704,4.992l-1.6,6.943h-2.24
		L147.336,5.167z"/>
	<path opacity="0.5" fill="#B5121C" enable-background="new    " d="M168.808,24.365c0-0.416,0.096-1.056,0.256-1.536l1.28-4.448
		c0.159-0.608,0.224-1.088,0.224-1.6c0-1.216-0.896-2.048-2.208-2.048c-1.823,0-3.871,1.728-4.672,4.992l-1.76,6.943h-2.239
		l2.943-11.679h-2.56l0.479-1.952h4.544l-0.768,3.231c1.184-1.984,2.88-3.456,4.8-3.456c2.176,0,3.743,1.504,3.743,3.712
		c0,0.672-0.128,1.408-0.352,2.144l-1.248,4.416c-0.128,0.416-0.225,0.928-0.225,1.184c0,0.64,0.385,1.024,0.929,1.024
		c0.64,0,1.184-0.544,1.823-2.144l1.12,0.384c-0.704,2.208-1.824,3.36-3.424,3.36C169.831,26.893,168.808,25.837,168.808,24.365z"/>
</g>
<rect x="609.798" y="-670.032" fill="none" width="277.143" height="28.415"/>
<text transform="matrix(1 0 0 1 609.7979 -646.6072)" opacity="0.5" fill="#B5121C" enable-background="new    " font-family="'ArialMT'" font-size="32">Roberto Caporuscio</text>
<rect x="609.798" y="-634.61" fill="none" width="302.143" height="42.547"/>
<text transform="matrix(1 0 0 1 609.7979 -626.5808)" font-family="'ArialMT'" font-size="11">Pizza Maker/Restaurateur</text>
<rect x="605.794" y="-482.693" fill="none" width="239.143" height="25.678"/>
<text transform="matrix(1 0 0 1 605.7945 -459.2684)" opacity="0.5" fill="#B5121C" enable-background="new    " font-family="'ArialMT'" font-size="32">Grace Crossman</text>
<rect x="609.798" y="-447.952" fill="none" width="302.143" height="42.547"/>
<text transform="matrix(1 0 0 1 609.7979 -439.9198)" font-family="'ArialMT'" font-size="11">Executive Chef/Printmaker</text>
<rect x="605.794" y="-286.155" fill="none" width="239.143" height="25.678"/>
<text transform="matrix(1 0 0 1 605.7945 -262.7313)" opacity="0.5" fill="#B5121C" enable-background="new    " font-family="'ArialMT'" font-size="32">Brandon Carter</text>
<rect x="609.798" y="-253.416" fill="none" width="302.143" height="42.547"/>
<text transform="matrix(1 0 0 1 609.7979 -245.3835)" font-family="'ArialMT'" font-size="11">SOUS CHEF</text>
<rect x="605.794" y="78.635" fill="none" width="239.143" height="25.678"/>
<text transform="matrix(1 0 0 1 605.7945 102.0587)" opacity="0.5" fill="#B5121C" enable-background="new    " font-family="'ArialMT'" font-size="32">Mark Hinchliffe</text>
<rect x="609.798" y="115.378" fill="none" width="302.143" height="42.547"/>
<text transform="matrix(1 0 0 1 609.7979 123.4093)" font-family="'ArialMT'" font-size="11">Writer/Illustrator</text>
<rect x="605.794" y="264.49" fill="none" width="239.143" height="25.678"/>
<text transform="matrix(1 0 0 1 605.7945 287.914)" opacity="0.5" fill="#B5121C" enable-background="new    " font-family="'ArialMT'" font-size="32">Andrew Holtz</text>
<rect x="609.798" y="300.232" fill="none" width="302.143" height="42.547"/>
<text transform="matrix(1 0 0 1 609.7979 308.2636)" font-family="'ArialMT'" font-size="11">Photographer</text>
<rect x="605.794" y="453.466" fill="none" width="239.143" height="25.678"/>
<text transform="matrix(1 0 0 1 605.7945 476.8903)" opacity="0.5" fill="#B5121C" enable-background="new    " font-family="'ArialMT'" font-size="32">Paul Holzheimer</text>
<rect x="609.798" y="487.207" fill="none" width="302.143" height="42.547"/>
<text transform="matrix(1 0 0 1 609.7979 495.2385)" font-family="'ArialMT'" font-size="11">Executive Chef</text>
<rect x="609.798" y="675.28" fill="none" width="302.143" height="42.547"/>
<text transform="matrix(1 0 0 1 609.7979 683.3117)" font-family="'ArialMT'" font-size="11">Oven Cook/Artist</text>
<rect x="605.794" y="641.783" fill="none" width="239.143" height="25.678"/>
<text transform="matrix(1 0 0 1 605.7945 665.2067)" opacity="0.5" fill="#B5121C" enable-background="new    " font-family="'ArialMT'" font-size="32">Michael Johnson</text>
<rect x="609.798" y="862.59" fill="none" width="302.143" height="42.547"/>
<text transform="matrix(1 0 0 1 609.7979 870.6221)" font-family="'ArialMT'" font-size="11">Head Pizzaiola/Creative Director</text>
<rect x="605.794" y="829.093" fill="none" width="239.143" height="25.678"/>
<text transform="matrix(1 0 0 1 605.7945 852.5172)" opacity="0.5" fill="#B5121C" enable-background="new    " font-family="'ArialMT'" font-size="32">Fredrica Vilardi</text>
<rect x="605.794" y="1016.404" fill="none" width="239.143" height="25.678"/>
<text transform="matrix(1 0 0 1 605.7945 1039.8276)" opacity="0.5" fill="#B5121C" enable-background="new    " font-family="'ArialMT'" font-size="32">Nick Villapiano</text>
<rect x="609.798" y="1050.902" fill="none" width="302.143" height="42.547"/>
<text transform="matrix(1 0 0 1 609.7979 1058.9336)" font-family="'ArialMT'" font-size="11">Barista/Web Developer</text>
<rect x="605.794" y="1201.777" fill="none" width="239.143" height="25.678"/>
<text transform="matrix(1 0 0 1 605.7945 1225.2006)" opacity="0.5" fill="#B5121C" enable-background="new    " font-family="'ArialMT'" font-size="32">Adam Worth</text>
<rect x="609.798" y="1236.275" fill="none" width="302.143" height="42.547"/>
<text transform="matrix(1 0 0 1 609.7979 1244.3065)" font-family="'ArialMT'" font-size="11">DJ/TV Producer</text>
<rect x="607.683" y="1389.475" fill="none" width="239.143" height="25.678"/>
<text transform="matrix(1 0 0 1 607.6832 1412.8995)" opacity="0.5" fill="#B5121C" enable-background="new    " font-family="'ArialMT'" font-size="32">Brian Wrensen</text>
<rect x="610.709" y="-105.814" fill="none" width="239.143" height="25.678"/>
<text transform="matrix(1 0 0 1 610.7095 -82.3892)" opacity="0.5" fill="#B5121C" enable-background="new    " font-family="'ArialMT'" font-size="32">Andrei Ferbei</text>
<rect x="611.687" y="1423.973" fill="none" width="302.143" height="42.547"/>
<text transform="matrix(1 0 0 1 611.6866 1432.0048)" font-family="'ArialMT'" font-size="11">Designer</text>
<rect x="610.709" y="-71.315" fill="none" width="302.143" height="42.547"/>
<text transform="matrix(1 0 0 1 610.709 -63.284)" font-family="'ArialMT'" font-size="11">Pizzaoli</text>
<rect x="611.687" y="-833.93" fill="none" width="302.143" height="42.547"/>
<text transform="matrix(1 0 0 1 611.6866 -825.8978)" font-family="'ArialMT'" font-size="11">Sous chef</text>
</svg>
