<?xml version="1.0" encoding="utf-8"?>
<!-- Generator: Adobe Illustrator 17.1.0, SVG Export Plug-In . SVG Version: 6.00 Build 0)  -->
<!DOCTYPE svg PUBLIC "-//W3C//DTD SVG 1.1//EN" "http://www.w3.org/Graphics/SVG/1.1/DTD/svg11.dtd">
<svg version="1.1" id="Layer_1" xmlns="http://www.w3.org/2000/svg" xmlns:xlink="http://www.w3.org/1999/xlink" x="0px" y="0px"
	 viewBox="0 0 79.188 68.682" enable-background="new 0 0 79.188 68.682" xml:space="preserve">
<g>
	<rect x="1.438" y="13.882" fill="#ED1D24" width="1.951" height="25.231"/>
	<rect x="4.543" y="13.882" fill="#ED1D24" width="1.951" height="25.231"/>
	
		<rect x="-3.992" y="25.527" transform="matrix(-4.647215e-04 -1 1 -4.647215e-04 -17.8811 35.1327)" fill="#ED1D24" width="25.22" height="1.951"/>
	<rect x="10.753" y="13.882" fill="#ED1D24" width="1.951" height="25.231"/>
	<rect x="1.438" y="40.49" fill="#ED1D24" width="1.951" height="27.188"/>
	<rect x="4.543" y="40.49" fill="#ED1D24" width="1.951" height="27.188"/>
	
		<rect x="-4.97" y="53.115" transform="matrix(-4.312237e-04 -1 1 -4.312237e-04 -45.4688 62.7311)" fill="#ED1D24" width="27.176" height="1.951"/>
	<rect x="10.753" y="40.49" fill="#ED1D24" width="1.951" height="27.188"/>
	<path fill="#ED1D24" d="M43.433,20.006c0,9.424-7.667,17.091-17.091,17.091H14.315v1.951h12.026c10.5,0,19.042-8.542,19.042-19.042
		S36.841,0.964,26.342,0.964H1.438v1.951h24.904C35.766,2.915,43.433,10.582,43.433,20.006z"/>
	<path fill="#ED1D24" d="M40.045,20.006c0,7.556-6.147,13.703-13.704,13.703H14.298v1.951h12.044
		c8.632,0,15.655-7.022,15.655-15.654c0-8.632-7.022-15.654-15.655-15.654H1.438v1.951h24.904
		C33.898,6.303,40.045,12.45,40.045,20.006z"/>
	<path fill="#ED1D24" d="M36.846,20.006c0,5.792-4.712,10.504-10.504,10.504H14.315v1.951h12.026
		c6.868,0,12.455-5.587,12.455-12.455S33.21,7.551,26.342,7.551H1.438v1.951h24.904C32.134,9.502,36.846,14.214,36.846,20.006z"/>
	<path fill="#ED1D24" d="M26.342,27.281H14.345v1.951h11.997c5.087,0,9.226-4.139,9.226-9.226s-4.139-9.226-9.226-9.226H1.485v1.951
		h24.857c4.012,0,7.276,3.264,7.276,7.276C33.617,24.017,30.353,27.281,26.342,27.281z"/>
	<polygon fill="#ED1D24" points="45.096,56.858 45.096,40.367 43.146,40.367 43.146,54.578 	"/>
	<polygon fill="#ED1D24" points="48.202,40.367 46.251,40.367 46.251,58.206 48.202,60.486 	"/>
	<polygon fill="#ED1D24" points="51.305,64.113 51.295,40.39 49.344,40.391 49.353,61.832 	"/>
	<polygon fill="#ED1D24" points="52.461,65.465 54.412,67.744 54.412,40.367 52.461,40.367 	"/>
	<polygon fill="#ED1D24" points="14.026,40.266 37.449,67.641 40.017,67.641 16.593,40.266 	"/>
	<polygon fill="#ED1D24" points="18.112,40.266 41.536,67.641 44.104,67.641 20.68,40.266 	"/>
	<polygon fill="#ED1D24" points="22.185,40.266 45.617,67.641 48.185,67.641 24.753,40.266 	"/>
	<polygon fill="#ED1D24" points="26.286,40.266 49.71,67.641 52.277,67.641 28.853,40.266 	"/>
	<polygon fill="#ED1D24" points="55.516,57.752 63.978,67.641 66.545,67.641 55.516,54.752 	"/>
	<polygon fill="#ED1D24" points="55.516,52.976 68.064,67.641 70.632,67.641 55.516,49.976 	"/>
	<polygon fill="#ED1D24" points="55.516,48.216 72.143,67.641 74.711,67.641 55.516,45.215 	"/>
	<polygon fill="#ED1D24" points="55.516,40.423 55.516,43.424 76.238,67.641 78.805,67.641 	"/>
</g>
</svg>
