<?xml version="1.0" encoding="utf-8"?>
<!-- Generator: Adobe Illustrator 17.1.0, SVG Export Plug-In . SVG Version: 6.00 Build 0)  -->
<!DOCTYPE svg PUBLIC "-//W3C//DTD SVG 1.1//EN" "http://www.w3.org/Graphics/SVG/1.1/DTD/svg11.dtd">
<svg version="1.1" id="Layer_1" xmlns="http://www.w3.org/2000/svg" xmlns:xlink="http://www.w3.org/1999/xlink" x="0px" y="0px"
	 viewBox="0 0 78.5 68.5" enable-background="new 0 0 78.5 68.5" xml:space="preserve">
<g>
	<rect y="12.918" fill="#CEBE2C" width="1.951" height="25.231"/>
	<rect x="3.105" y="12.918" fill="#CEBE2C" width="1.951" height="25.231"/>
	
		<rect x="-5.43" y="24.563" transform="matrix(-4.647215e-04 -1 1 -4.647215e-04 -18.3553 32.7307)" fill="#CEBE2C" width="25.22" height="1.951"/>
	<rect x="9.316" y="12.918" fill="#CEBE2C" width="1.951" height="25.231"/>
	<rect y="39.526" fill="#CEBE2C" width="1.951" height="27.188"/>
	<rect x="3.105" y="39.526" fill="#CEBE2C" width="1.951" height="27.188"/>
	
		<rect x="-6.408" y="52.151" transform="matrix(-4.312237e-04 -1 1 -4.312237e-04 -45.943 60.3292)" fill="#CEBE2C" width="27.176" height="1.951"/>
	<rect x="9.316" y="39.526" fill="#CEBE2C" width="1.951" height="27.188"/>
	<path fill="#CEBE2C" d="M41.995,19.042c0,9.424-7.667,17.091-17.091,17.091H12.878v1.951h12.026c10.5,0,19.042-8.542,19.042-19.042
		S35.404,0,24.904,0H0v1.951h24.904C34.328,1.951,41.995,9.618,41.995,19.042z"/>
	<path fill="#CEBE2C" d="M38.608,19.042c0,7.556-6.147,13.703-13.704,13.703H12.86v1.951h12.044c8.632,0,15.655-7.022,15.655-15.654
		c0-8.632-7.022-15.654-15.655-15.654H0v1.951h24.904C32.46,5.339,38.608,11.486,38.608,19.042z"/>
	<path fill="#CEBE2C" d="M35.408,19.042c0,5.792-4.712,10.504-10.504,10.504H12.878v1.951h12.026
		c6.868,0,12.455-5.587,12.455-12.455S31.772,6.587,24.904,6.587H0v1.951h24.904C30.696,8.538,35.408,13.25,35.408,19.042z"/>
	<path fill="#CEBE2C" d="M24.904,26.317H12.907v1.951h11.997c5.087,0,9.226-4.139,9.226-9.226s-4.139-9.226-9.226-9.226H0.047v1.951
		h24.857c4.012,0,7.276,3.264,7.276,7.276C32.18,23.053,28.916,26.317,24.904,26.317z"/>
	<polygon fill="#CEBE2C" points="43.659,55.894 43.659,39.403 41.708,39.403 41.708,53.614 	"/>
	<polygon fill="#CEBE2C" points="46.764,39.403 44.813,39.403 44.813,57.242 46.764,59.522 	"/>
	<polygon fill="#CEBE2C" points="49.868,63.149 49.858,39.426 47.907,39.427 47.916,60.868 	"/>
	<polygon fill="#CEBE2C" points="51.024,64.501 52.974,66.78 52.974,39.403 51.024,39.403 	"/>
	<polygon fill="#CEBE2C" points="12.588,39.302 36.012,66.677 38.579,66.677 15.155,39.302 	"/>
	<polygon fill="#CEBE2C" points="16.675,39.302 40.099,66.677 42.666,66.677 19.242,39.302 	"/>
	<polygon fill="#CEBE2C" points="20.747,39.302 44.179,66.677 46.748,66.677 23.316,39.302 	"/>
	<polygon fill="#CEBE2C" points="24.848,39.302 48.272,66.677 50.84,66.677 27.416,39.302 	"/>
	<polygon fill="#CEBE2C" points="54.078,56.788 62.54,66.677 65.107,66.677 54.078,53.788 	"/>
	<polygon fill="#CEBE2C" points="54.078,52.012 66.627,66.677 69.194,66.677 54.078,49.012 	"/>
	<polygon fill="#CEBE2C" points="54.078,47.252 70.706,66.677 73.274,66.677 54.078,44.251 	"/>
	<polygon fill="#CEBE2C" points="54.078,39.459 54.078,42.46 74.8,66.677 77.368,66.677 	"/>
</g>
</svg>
