<?xml version="1.0" encoding="utf-8"?>
<!-- Generator: Adobe Illustrator 17.1.0, SVG Export Plug-In . SVG Version: 6.00 Build 0)  -->
<!DOCTYPE svg PUBLIC "-//W3C//DTD SVG 1.1//EN" "http://www.w3.org/Graphics/SVG/1.1/DTD/svg11.dtd">
<svg version="1.1" id="Layer_1" xmlns="http://www.w3.org/2000/svg" xmlns:xlink="http://www.w3.org/1999/xlink" x="0px" y="0px"
	 viewBox="0 0 78.5 68.5" enable-background="new 0 0 78.5 68.5" xml:space="preserve">
<g>
	<rect x="0.75" y="13.986" fill="#79401B" width="1.951" height="25.231"/>
	<rect x="3.855" y="13.986" fill="#79401B" width="1.951" height="25.231"/>
	
		<rect x="-4.68" y="25.631" transform="matrix(-4.647215e-04 -1 1 -4.647215e-04 -18.673 34.5493)" fill="#79401B" width="25.22" height="1.951"/>
	<rect x="10.066" y="13.986" fill="#79401B" width="1.951" height="25.231"/>
	<rect x="0.75" y="40.594" fill="#79401B" width="1.951" height="27.188"/>
	<rect x="3.855" y="40.594" fill="#79401B" width="1.951" height="27.188"/>
	
		<rect x="-5.658" y="53.219" transform="matrix(-4.312237e-04 -1 1 -4.312237e-04 -46.2607 62.1477)" fill="#79401B" width="27.176" height="1.951"/>
	<rect x="10.066" y="40.594" fill="#79401B" width="1.951" height="27.188"/>
	<path fill="#79401B" d="M42.745,20.11c0,9.424-7.667,17.091-17.091,17.091H13.628v1.951h12.026c10.5,0,19.042-8.542,19.042-19.042
		S36.154,1.068,25.654,1.068H0.75v1.951h24.904C35.078,3.019,42.745,10.686,42.745,20.11z"/>
	<path fill="#79401B" d="M39.358,20.11c0,7.556-6.147,13.703-13.704,13.703H13.61v1.951h12.044c8.632,0,15.655-7.022,15.655-15.654
		c0-8.632-7.022-15.654-15.655-15.654H0.75v1.951h24.904C33.21,6.407,39.358,12.554,39.358,20.11z"/>
	<path fill="#79401B" d="M36.158,20.11c0,5.792-4.712,10.504-10.504,10.504H13.628v1.951h12.026c6.868,0,12.455-5.587,12.455-12.455
		S32.522,7.655,25.654,7.655H0.75v1.951h24.904C31.446,9.606,36.158,14.318,36.158,20.11z"/>
	<path fill="#79401B" d="M25.654,27.385H13.657v1.951h11.997c5.087,0,9.226-4.139,9.226-9.226s-4.139-9.226-9.226-9.226H0.797v1.951
		h24.857c4.012,0,7.276,3.264,7.276,7.276C32.93,24.121,29.666,27.385,25.654,27.385z"/>
	<polygon fill="#79401B" points="44.409,56.962 44.409,40.471 42.458,40.471 42.458,54.682 	"/>
	<polygon fill="#79401B" points="47.514,40.471 45.563,40.471 45.563,58.311 47.514,60.59 	"/>
	<polygon fill="#79401B" points="50.618,64.218 50.608,40.495 48.657,40.495 48.666,61.937 	"/>
	<polygon fill="#79401B" points="51.774,65.569 53.724,67.849 53.724,40.471 51.774,40.471 	"/>
	<polygon fill="#79401B" points="13.338,40.37 36.762,67.745 39.329,67.745 15.905,40.37 	"/>
	<polygon fill="#79401B" points="17.425,40.37 40.849,67.745 43.416,67.745 19.992,40.37 	"/>
	<polygon fill="#79401B" points="21.497,40.37 44.929,67.745 47.498,67.745 24.066,40.37 	"/>
	<polygon fill="#79401B" points="25.598,40.37 49.022,67.745 51.59,67.745 28.166,40.37 	"/>
	<polygon fill="#79401B" points="54.828,57.856 63.29,67.745 65.857,67.745 54.828,54.856 	"/>
	<polygon fill="#79401B" points="54.828,53.08 67.377,67.745 69.944,67.745 54.828,50.08 	"/>
	<polygon fill="#79401B" points="54.828,48.32 71.456,67.745 74.024,67.745 54.828,45.319 	"/>
	<polygon fill="#79401B" points="54.828,40.527 54.828,43.528 75.55,67.745 78.118,67.745 	"/>
</g>
</svg>
