<?xml version="1.0" encoding="utf-8"?>
<!-- Generator: Adobe Illustrator 17.1.0, SVG Export Plug-In . SVG Version: 6.00 Build 0)  -->
<!DOCTYPE svg PUBLIC "-//W3C//DTD SVG 1.1//EN" "http://www.w3.org/Graphics/SVG/1.1/DTD/svg11.dtd">
<svg version="1.1" id="Layer_1" xmlns="http://www.w3.org/2000/svg" xmlns:xlink="http://www.w3.org/1999/xlink" x="0px" y="0px"
	 viewBox="0 0 79 68.682" enable-background="new 0 0 79 68.682" xml:space="preserve">
<g>
	<g>
		<rect x="1.188" y="13.944" fill="#6AB6B1" width="1.951" height="25.231"/>
		<rect x="4.293" y="13.944" fill="#6AB6B1" width="1.951" height="25.231"/>
		
			<rect x="-4.242" y="25.59" transform="matrix(-4.647215e-04 -1 1 -4.647215e-04 -18.1937 34.9452)" fill="#6AB6B1" width="25.22" height="1.951"/>
		<rect x="10.503" y="13.944" fill="#6AB6B1" width="1.951" height="25.231"/>
		<rect x="1.188" y="40.553" fill="#6AB6B1" width="1.951" height="27.188"/>
		<rect x="4.293" y="40.553" fill="#6AB6B1" width="1.951" height="27.188"/>
		
			<rect x="-5.22" y="53.177" transform="matrix(-4.312237e-04 -1 1 -4.312237e-04 -45.7814 62.5436)" fill="#6AB6B1" width="27.176" height="1.951"/>
		<rect x="10.503" y="40.553" fill="#6AB6B1" width="1.951" height="27.188"/>
		<path fill="#6AB6B1" d="M43.183,20.068c0,9.424-7.667,17.091-17.091,17.091H14.065v1.951h12.026
			c10.5,0,19.042-8.542,19.042-19.042S36.591,1.026,26.092,1.026H1.188v1.951h24.904C35.516,2.977,43.183,10.644,43.183,20.068z"/>
		<path fill="#6AB6B1" d="M39.795,20.068c0,7.556-6.147,13.703-13.704,13.703H14.048v1.951h12.044
			c8.632,0,15.655-7.022,15.655-15.654c0-8.632-7.022-15.654-15.655-15.654H1.188v1.951h24.904
			C33.648,6.365,39.795,12.512,39.795,20.068z"/>
		<path fill="#6AB6B1" d="M36.596,20.068c0,5.792-4.712,10.504-10.504,10.504H14.065v1.951h12.026
			c6.868,0,12.455-5.587,12.455-12.455S32.96,7.613,26.092,7.613H1.188v1.951h24.904C31.884,9.564,36.596,14.276,36.596,20.068z"/>
		<path fill="#6AB6B1" d="M26.092,27.344H14.095v1.951h11.997c5.087,0,9.226-4.139,9.226-9.226s-4.139-9.226-9.226-9.226H1.235
			v1.951h24.857c4.012,0,7.276,3.264,7.276,7.276C33.367,24.08,30.103,27.344,26.092,27.344z"/>
		<polygon fill="#6AB6B1" points="44.846,56.92 44.846,40.43 42.896,40.43 42.896,54.64 		"/>
		<polygon fill="#6AB6B1" points="47.952,40.43 46.001,40.43 46.001,58.269 47.952,60.549 		"/>
		<polygon fill="#6AB6B1" points="51.055,64.176 51.045,40.453 49.094,40.454 49.103,61.895 		"/>
		<polygon fill="#6AB6B1" points="52.211,65.527 54.162,67.807 54.162,40.43 52.211,40.43 		"/>
		<polygon fill="#6AB6B1" points="13.776,40.329 37.199,67.704 39.767,67.704 16.343,40.329 		"/>
		<polygon fill="#6AB6B1" points="17.862,40.329 41.286,67.704 43.854,67.704 20.43,40.329 		"/>
		<polygon fill="#6AB6B1" points="21.935,40.329 45.367,67.704 47.935,67.704 24.503,40.329 		"/>
		<polygon fill="#6AB6B1" points="26.036,40.329 49.46,67.704 52.027,67.704 28.603,40.329 		"/>
		<polygon fill="#6AB6B1" points="55.266,57.815 63.728,67.704 66.295,67.704 55.266,54.814 		"/>
		<polygon fill="#6AB6B1" points="55.266,53.038 67.814,67.704 70.382,67.704 55.266,50.038 		"/>
		<polygon fill="#6AB6B1" points="55.266,48.278 71.893,67.704 74.461,67.704 55.266,45.278 		"/>
		<polygon fill="#6AB6B1" points="55.266,40.486 55.266,43.486 75.988,67.704 78.555,67.704 		"/>
	</g>
</g>
</svg>
