<?xml version="1.0" encoding="utf-8"?>
<!-- Generator: Adobe Illustrator 17.1.0, SVG Export Plug-In . SVG Version: 6.00 Build 0)  -->
<!DOCTYPE svg PUBLIC "-//W3C//DTD SVG 1.1//EN" "http://www.w3.org/Graphics/SVG/1.1/DTD/svg11.dtd">
<svg version="1.1" id="Layer_1" xmlns="http://www.w3.org/2000/svg" xmlns:xlink="http://www.w3.org/1999/xlink" x="0px" y="0px"
	 viewBox="0 0 77.975 67.579" enable-background="new 0 0 77.975 67.579" xml:space="preserve">
<g>
	<rect x="0.368" y="13.459" fill="#F15F22" width="1.951" height="25.231"/>
	<rect x="3.473" y="13.459" fill="#F15F22" width="1.951" height="25.231"/>
	
		<rect x="-5.062" y="25.104" transform="matrix(-4.647215e-04 -1 1 -4.647215e-04 -18.5282 33.6402)" fill="#F15F22" width="25.22" height="1.951"/>
	<rect x="9.684" y="13.459" fill="#F15F22" width="1.951" height="25.231"/>
	<rect x="0.368" y="40.068" fill="#F15F22" width="1.951" height="27.188"/>
	<rect x="3.473" y="40.068" fill="#F15F22" width="1.951" height="27.188"/>
	
		<rect x="-6.04" y="52.692" transform="matrix(-4.312237e-04 -1 1 -4.312237e-04 -46.1159 61.2387)" fill="#F15F22" width="27.176" height="1.951"/>
	<rect x="9.684" y="40.068" fill="#F15F22" width="1.951" height="27.188"/>
	<path fill="#F15F22" d="M42.363,19.583c0,9.424-7.667,17.091-17.091,17.091H13.246v1.951h12.026c10.5,0,19.042-8.542,19.042-19.042
		S35.772,0.541,25.272,0.541H0.368v1.951h24.904C34.696,2.492,42.363,10.159,42.363,19.583z"/>
	<path fill="#F15F22" d="M38.976,19.583c0,7.556-6.147,13.703-13.704,13.703H13.228v1.951h12.044
		c8.632,0,15.655-7.022,15.655-15.654c0-8.632-7.022-15.654-15.655-15.654H0.368V5.88h24.904
		C32.829,5.88,38.976,12.027,38.976,19.583z"/>
	<path fill="#F15F22" d="M35.776,19.583c0,5.792-4.712,10.504-10.504,10.504H13.246v1.951h12.026
		c6.868,0,12.455-5.587,12.455-12.455S32.14,7.128,25.272,7.128H0.368v1.951h24.904C31.064,9.079,35.776,13.791,35.776,19.583z"/>
	<path fill="#F15F22" d="M25.272,26.858H13.275v1.951h11.997c5.087,0,9.226-4.139,9.226-9.226s-4.139-9.226-9.226-9.226H0.415v1.951
		h24.857c4.012,0,7.276,3.264,7.276,7.276C32.548,23.594,29.284,26.858,25.272,26.858z"/>
	<polygon fill="#F15F22" points="44.027,56.435 44.027,39.944 42.076,39.944 42.076,54.155 	"/>
	<polygon fill="#F15F22" points="47.132,39.944 45.181,39.944 45.181,57.784 47.132,60.064 	"/>
	<polygon fill="#F15F22" points="50.236,63.691 50.226,39.968 48.275,39.968 48.284,61.41 	"/>
	<polygon fill="#F15F22" points="51.392,65.042 53.343,67.322 53.343,39.944 51.392,39.944 	"/>
	<polygon fill="#F15F22" points="12.956,39.843 36.38,67.218 38.947,67.218 15.523,39.843 	"/>
	<polygon fill="#F15F22" points="17.043,39.843 40.467,67.218 43.034,67.218 19.61,39.843 	"/>
	<polygon fill="#F15F22" points="21.115,39.843 44.547,67.218 47.116,67.218 23.684,39.843 	"/>
	<polygon fill="#F15F22" points="25.216,39.843 48.64,67.218 51.208,67.218 27.784,39.843 	"/>
	<polygon fill="#F15F22" points="54.446,57.329 62.908,67.218 65.476,67.218 54.446,54.329 	"/>
	<polygon fill="#F15F22" points="54.446,52.553 66.995,67.218 69.562,67.218 54.446,49.553 	"/>
	<polygon fill="#F15F22" points="54.446,47.793 71.074,67.218 73.642,67.218 54.446,44.793 	"/>
	<polygon fill="#F15F22" points="54.446,40 54.446,43.001 75.169,67.218 77.736,67.218 	"/>
</g>
</svg>
