<?xml version="1.0" encoding="utf-8"?>
<!-- Generator: Adobe Illustrator 17.0.0, SVG Export Plug-In . SVG Version: 6.00 Build 0)  -->
<!DOCTYPE svg PUBLIC "-//W3C//DTD SVG 1.1//EN" "http://www.w3.org/Graphics/SVG/1.1/DTD/svg11.dtd">
<svg version="1.1" id="Layer_1" xmlns="http://www.w3.org/2000/svg" xmlns:xlink="http://www.w3.org/1999/xlink" x="0px" y="0px"
	 width="632.446px" height="194.341px" viewBox="0 0 632.446 194.341" enable-background="new 0 0 632.446 194.341"
	 xml:space="preserve">
<g>
	<g>
		<polyline opacity="0.32" fill="#C3996B" points="70.404,80.908 72.374,83.836 79.071,89.219 158.644,89.219 159.894,60.334 
			152.01,53.66 121.765,78.042 113.495,76.03 113.495,52.561 113.716,29.982 126.906,29.759 128.188,18.607 122.243,11.25 
			70.404,11.25 70.404,23.352 75.046,27.749 78.738,31.126 88.235,30.208 87.565,71.561 		"/>
		<path opacity="0.32" fill="#C3996B" d="M250.136,19.175l-4.914-8.033h-44.763h-55.349v12.209l0.448,1.364l7.926,7.277l7.036,1.42
			l2.493-0.172l11.57,45.83l1.107,7.629l9.216,3.603c0,0,24.956,4.991,33.012,0.226c8.054-4.765,17.013-7.147,18.149-15.314
			c1.136-8.168,1.475-24.729,1.475-24.729l-0.679-18.264l13.045-0.113L250.136,19.175z M218.372,72.378
			c-10.772,9.188-25.409,1.703-25.409,1.703l-5.107-11.345V31.993l12.943-0.681v-7.96l8.386,8.982l10.888,0.114L218.372,72.378z"/>
		<polygon opacity="0.32" fill="#C3996B" points="256.149,79.638 259.778,85.311 263.18,89.62 302.885,89.394 303.114,77.143 
			298.802,69.428 288.592,69.428 288.592,33.808 331.928,88.485 334.423,89.62 349.395,89.62 349.395,29.951 363.916,29.951 
			363.916,17.019 357.79,12.028 313.095,12.028 313.095,22.01 320.127,29.724 333.061,29.724 333.286,67.16 289.499,12.708 
			256.149,12.254 256.149,22.236 261.594,29.498 272.71,29.724 273.391,71.924 256.83,69.882 		"/>
		<path opacity="0.32" fill="#C3996B" d="M434.701,11.8l7.487,6.58l-0.225,26.092l-13.975,0.926l-7.202-7.204l-0.379-9.377
			c0,0-5.219-0.454-7.033-0.454c-1.814,0-9.756-1.587-14.974,2.27c-5.216,3.857-5.444,22.233-4.084,30.173
			c1.362,7.942,2.496,13.159,7.487,14.975c4.992,1.815,22.235-10.662,22.235-10.662l4.082-7.035l7.712-1.133l7.034,7.032
			c0,0-4.99,13.84-8.848,17.47c-3.854,3.63-16.561,8.394-18.83,9.075c-2.269,0.681-20.873,2.494-26.318-1.815
			c-5.444-4.311-10.867-4.939-10.993-6.441c-0.123-1.499,0-19.422,0-19.422l8.498-41.521c0,0,20.42-7.712,24.502-5.217
			c4.084,2.495,7.941,5.444,8.621,6.125c0.683,0.682,4.765-9.755,4.765-9.755l11.259-1.339L434.701,11.8z"/>
		<g opacity="0.32">
			<path fill="#C3996B" d="M558.579,30.632V19.74L552,12.028l-48.78,0.454v4.537l-4.183-5.068l-49.36,0.077v9.756l6.126,8.848h10.66
				v39.704H449.79v13.5l5.104,5.104h47.19l2.043-5.217l4.083,4.991h50.368V76.462l-5.898-7.033l-9.305,0.68V30.632H558.579z
				 M517.769,68.557h-28.162V58.083h28.162V68.557z M520.238,43.564h-30.402V31.085h30.402V43.564z"/>
		</g>
	</g>
	<g>
		<path fill="#231F20" d="M70.404,68.557h16.335V23.352H70.404V11.25h51.84v12.101h-14.972v45.205h18.292
			c4.906,0,8.386-0.948,10.478-2.846c1.31-1.39,2.169-3.369,2.618-5.906c0.477-2.536,0.692-4.737,0.692-6.549v-0.444h13.347v28.096
			H70.404V68.557z M114.574,67.304h-1.919V28.95h13.347V18.22l-2.278-2.618v-2.54l4.458,5.608v12.456h-13.607V67.304z
			 M74.528,24.492l4.898,4.458h6.173v2.176h-6.861l-6.972-6.634H74.528z M78.063,90.017l-5.813-6.269h2.494l4.682,4.212h78.665
			V60.809l-4.244-3.79v-1.813l6.047,5.128v29.683H78.063z"/>
		<path fill="#231F20" d="M145.111,11.143h51.706v12.209h-15.305V62.4c0,3.679,1.725,6.353,5.16,8.025
			c3.417,1.643,7.579,2.481,12.425,2.481c12.629-0.25,18.963-4.291,18.963-12.096V23.352h-17.6V11.143h44.763v11.985h-15.295v34.141
			c0,5.99-0.832,10.869-2.539,14.633c-1.705,3.763-4.96,6.688-9.813,8.808c-4.819,2.091-11.787,3.258-20.875,3.481
			c-11.867,0-20.568-2.171-26.075-6.548c-5.528-4.374-8.29-10.648-8.29-18.785V23.352h-17.224V11.143z M200.944,91.637
			c7.463,0,13.6-0.837,18.372-2.538c4.755-1.701,8.352-3.956,10.747-6.715c2.422-2.763,4.02-5.745,4.826-8.894
			c0.807-3.178,1.201-6.576,1.201-10.173V31.35h13.011V19.584l-2.28-3.427v-3.314l4.683,6.522v14.271h-12.919v30.937
			c0.117,18.255-12.172,29.32-35.938,29.208c-12.521,0-21.492-2.368-26.955-7.082l-0.449-2.284c0.449,0.449,1.697,1.23,3.795,2.342
			c2.08,1.117,5.042,2.175,8.827,3.202C191.66,90.996,196.009,91.547,200.944,91.637z M152.969,33.413l-7.41-8.697h2.736
			l5.376,6.158h6.85v2.539H152.969z M209.608,30.874h6.603v2.539h-7.524l-6.495-7.889h2.501L209.608,30.874z M188.815,64.792
			l-0.224,0.225c-0.978-0.973-1.48-2.311-1.48-3.983V30.874h13.58v-3.54h1.956v6.079h-13.832V64.792z"/>
		<path fill="#231F20" d="M342.141,80.908h-18.254l-41.005-50.814v38.24h16.002v12.574h-43.733V68.335h15.19V23.352h-15.19V10.92
			h36.65l37.692,45.876V23.577h-17.035V11.143h45.56v12.434h-15.877V80.908z M332.776,90.493l-5.832-6.525h2.764l4.209,4.237h14.271
			V28.476h14.747V17.521l-3.317-2.615v-2.287l5.713,3.763v14.272h-14.747v59.838H332.776z M319.643,30.654l-6.047-6.162h2.978
			l4.218,3.983h6.854v2.179H319.643z M260.976,30.654l-5.131-6.162h2.959l3.32,3.983h6.493v2.179H260.976z M287.798,67.528V39.458
			l2.169,2.147v25.922H287.798z M262.787,90.493l-5.795-7.189h2.511l3.985,4.901h38.573V76.669l-2.263-2.731v-2.87l4.433,5.377
			v14.048H262.787z"/>
		<path fill="#231F20" d="M402.073,73.13c12.066-0.198,21.576-6.329,22.833-17.004h11.982c-0.054,0.221-0.476,1.866-1.273,4.966
			c-0.814,3.089-2.333,6.296-4.585,9.644c-2.249,3.341-5.686,6.35-10.307,8.997c-4.602,2.651-10.512,4.126-17.726,4.458
			c-6.495,0-12.764-1.337-18.783-4.01c-6.029-2.678-10.926-6.608-14.694-11.792c-3.769-5.181-5.662-11.29-5.686-18.309
			c0.088-0.477,0.116-1.036,0.116-1.731c0.312-7.162,1.893-13.625,4.736-19.399c2.844-5.769,7.04-10.339,12.656-13.74
			c5.6-3.399,12.452-5.125,20.616-5.21c3.928,0,7.284,0.391,10.008,1.143c2.729,0.754,5.745,2.144,9.061,4.208l1.366-4.208h13.13
			v27.172h-15.049c-0.422-5.377-1.614-9.558-3.624-12.541c-2.01-2.984-5.859-4.49-11.574-4.49c-4.485,0.112-8.017,0.893-10.61,2.373
			c-2.596,1.448-4.46,3.426-5.642,5.965c-1.133,2.536-1.859,5.042-2.174,7.553c-0.268,2.477-0.609,6.854-0.995,13.125
			c0,1.534-0.082,2.789-0.225,3.761c0.143,5.769,1.362,10.372,3.733,13.856C391.731,71.399,395.973,73.13,402.073,73.13z
			 M427.989,45.397l-5.381-5.157h2.52l3.096,3.206h12.675V18.22l-4.01-3.761v-2.508l6.299,5.794v27.652H427.989z M416.347,28.254
			l0.917,2.06c0.17,0-0.836-0.193-2.98-0.551c-2.145-0.392-3.875-0.585-5.24-0.585c-3.119,0-5.936,0.5-8.44,1.477
			c-2.592,1.113-4.213,3.148-4.853,6.074c-0.646,2.925-0.967,6.884-0.967,11.844v3.539c0,5.464,0.518,10.677,1.575,15.637v1.732
			c-0.832-0.812-1.471-1.592-1.89-2.314c-0.423-0.754-0.782-1.759-1.068-3.068c-0.61-3.375-0.915-6.272-0.915-8.666V43.67
			c0-3.259,0.534-6.19,1.596-8.808c1.062-2.65,2.712-4.548,4.9-5.685c1.65-0.949,3.174-1.538,4.628-1.729
			c1.47-0.225,3.517-0.336,6.136-0.336c1.309,0,2.674,0.139,4.089,0.447C415.253,27.864,416.096,28.089,416.347,28.254z
			 M377.879,82.271l-0.477-2.507c2.847,2.255,6.562,4.65,11.154,7.19c4.601,2.507,10.038,3.763,16.254,3.763
			c7.776-0.336,14.191-1.785,19.199-4.325c5.037-2.566,8.805-5.464,11.282-8.696c2.513-3.23,4.216-6.154,5.135-8.778
			c0.922-2.62,1.37-4.293,1.37-5.046l-4.655-4.679l0.436-1.925l6.06,6.048c-0.055,0.251-0.533,1.95-1.401,5.104
			c-0.862,3.122-2.586,6.489-5.185,10.115c-2.585,3.597-6.547,6.799-11.87,9.585c-5.318,2.79-12.1,4.297-20.371,4.516
			c-7.075,0-12.881-1.251-17.368-3.763C382.959,86.366,379.776,84.163,377.879,82.271z"/>
		<path fill="#231F20" d="M499.037,11.25v0.7l2.845,3.175V11.25h51.733v12.326H538.09v44.98h15.525v12.571h-51.733V68.557h15.887
			V50.973H483.18v17.583h15.857v12.571h-50.69V68.557h14.514v-44.98h-14.514V11.25H499.037z M542.545,67.304V29.873H557.6V19.366
			l-2.405-2.983v-2.844l4.253,5.827v12.426h-15.196v35.512H542.545z M501.882,23.577v-6.495l-2.845-3.319v9.814H483.18v15.882
			h34.589V23.577H501.882z M502.582,29.873h-13.821v7.523h2.168v-5.604h14.049v-3.538l3.427,3.764h7.301v-1.924h-6.154l-6.044-6.518
			h-0.925V29.873z M455.308,31.574l-5.133-6.858h2.298l3.758,4.682h5.381v2.176H455.308z M490.712,66.384h-2.178v-9.813h27.171v2.4
			h-24.993V66.384z M454.644,89.798l-5.375-6.751h2.054l4.683,5.158h44.99l2.512-5.377h0.914l4.432,5.377H557.6V76.669l-2.853-3.763
			v-2.511l4.701,5.575v13.828h-51.743l-3.067-3.539l-1.613,3.539H454.644z"/>
	</g>
</g>
<g>
	<polyline opacity="0.32" fill="#C49A6C" enable-background="new    " points="70.502,-414.591 72.492,-411.636 79.25,-406.203 
		159.559,-406.203 160.819,-435.356 152.863,-442.091 122.339,-417.483 113.993,-419.513 113.993,-443.2 114.215,-465.988 
		127.526,-466.212 128.82,-477.468 122.821,-484.892 70.502,-484.892 70.502,-472.679 75.188,-468.241 78.914,-464.833 
		88.498,-465.76 87.822,-424.024 	"/>
	<path opacity="0.32" fill="#C49A6C" enable-background="new    " d="M251.896-476.894L246.935-485H201.76H145.9v12.321l0.452,1.377
		l8,7.345l7.102,1.433l2.516-0.174l11.678,46.254l1.117,7.699l9.301,3.636c0,0,25.188,5.037,33.316,0.229
		c8.129-4.81,17.17-7.213,18.317-15.456c1.146-8.242,1.488-24.958,1.488-24.958l-0.685-18.433l13.165-0.114L251.896-476.894z
		 M219.839-423.2c-10.873,9.272-25.645,1.718-25.645,1.718l-5.153-11.448v-31.028l13.062-0.688v-8.035l8.464,9.064l10.988,0.115
		L219.839-423.2z"/>
	<polygon opacity="0.32" fill="#C49A6C" enable-background="new    " points="257.965,-415.873 261.627,-410.147 265.061,-405.798 
		305.132,-406.027 305.362,-418.391 301.012,-426.177 290.708,-426.177 290.708,-462.126 334.444,-406.944 336.961,-405.798 
		352.073,-405.798 352.073,-466.019 366.727,-466.019 366.727,-479.071 360.545,-484.108 315.438,-484.108 315.438,-474.033 
		322.534,-466.248 335.586,-466.248 335.815,-428.466 291.623,-483.42 257.965,-483.879 257.965,-473.804 263.46,-466.476 
		274.679,-466.248 275.365,-423.658 258.652,-425.719 	"/>
	<path opacity="0.32" fill="#C49A6C" enable-background="new    " d="M438.167-484.337l7.557,6.642l-0.227,26.333l-14.105,0.936
		l-7.268-7.271l-0.383-9.464c0,0-5.268-0.458-7.1-0.458c-1.83,0-9.846-1.604-15.111,2.29c-5.266,3.893-5.494,22.438-4.121,30.453
		c1.375,8.015,2.52,13.279,7.557,15.112c5.037,1.832,22.441-10.762,22.441-10.762l4.119-7.1l7.783-1.145l7.1,7.097
		c0,0-5.037,13.969-8.93,17.633c-3.891,3.664-16.715,8.471-19.006,9.158c-2.289,0.688-21.064,2.519-26.561-1.832
		c-5.496-4.352-10.969-4.984-11.096-6.5c-0.125-1.514,0-19.603,0-19.603l8.574-41.903c0,0,20.607-7.783,24.73-5.266
		c4.121,2.519,8.016,5.495,8.701,6.183c0.688,0.688,4.809-9.846,4.809-9.846l11.363-1.352L438.167-484.337z"/>
	<g opacity="0.32">
		<path fill="#C49A6C" d="M563.19-465.332v-10.992l-6.643-7.784l-49.229,0.458v4.579l-4.225-5.114l-49.813,0.077v9.848l6.184,8.93
			h10.76v40.069h-16.826v13.625l5.15,5.15h47.627l2.062-5.266l4.121,5.036h50.834v-12.363l-5.951-7.099l-9.395,0.687v-39.841H563.19
			z M522.002-427.056H493.58v-10.57h28.422V-427.056z M524.493-452.28h-30.684v-12.594h30.686v12.594H524.493z"/>
	</g>
</g>
<rect x="5.993" y="-383.014" opacity="0.13" fill="#C49A6C" enable-background="new    " width="621.396" height="47.854"/>
<g>
	<path d="M70.502-427.056h16.486v-45.623H70.502v-12.213h52.319v12.212h-15.109v45.623h18.46c4.952,0,8.464-0.957,10.574-2.872
		c1.322-1.401,2.189-3.399,2.644-5.96c0.48-2.561,0.698-4.781,0.698-6.608v-0.448h13.47v28.354H70.502V-427.056z M115.081-428.321
		h-1.937v-38.708h13.47v-10.829l-2.299-2.642v-2.564l4.499,5.66v12.571h-13.733C115.081-464.833,115.081-428.321,115.081-428.321z
		 M74.665-471.528l4.943,4.499h6.229v2.196h-6.924l-7.037-6.695C71.876-471.528,74.665-471.528,74.665-471.528z M78.233-405.398
		l-5.867-6.326h2.517l4.726,4.251H159v-27.402l-4.283-3.825v-1.83l6.103,5.175v29.958L78.233-405.398L78.233-405.398z"/>
	<path d="M145.899-485.001h52.185v12.321h-15.446v39.41c0,3.713,1.741,6.411,5.208,8.099c3.448,1.658,7.648,2.504,12.539,2.504
		c12.746-0.252,19.139-4.331,19.139-12.208v-37.804H201.76v-12.322h45.176v12.097H231.5v34.456c0,6.045-0.84,10.971-2.562,14.77
		c-1.721,3.797-5.006,6.75-9.904,8.89c-4.863,2.109-11.896,3.288-21.067,3.514c-11.978,0-20.759-2.19-26.316-6.607
		c-5.58-4.414-8.366-10.747-8.366-18.959v-35.839h-17.384v-12.322H145.899z M202.249-403.762c7.532,0,13.725-0.847,18.541-2.562
		c4.799-1.717,8.429-3.992,10.847-6.776c2.444-2.788,4.058-5.799,4.871-8.978c0.814-3.207,1.212-6.637,1.212-10.268v-32.261h13.131
		v-11.874l-2.301-3.459v-3.345l4.726,6.583v14.402h-13.038v31.224c0.118,18.423-12.284,29.591-36.27,29.479
		c-12.638,0-21.69-2.391-27.204-7.147l-0.453-2.306c0.453,0.453,1.712,1.241,3.83,2.364c2.099,1.127,5.088,2.194,8.908,3.23
		C192.88-404.41,197.269-403.852,202.249-403.762z M153.831-462.525l-7.479-8.776h2.763l5.425,6.216h6.914v2.562L153.831-462.525
		L153.831-462.525z M210.993-465.088h6.663v2.562h-7.594l-6.555-7.962h2.524L210.993-465.088z M190.008-430.856l-0.226,0.228
		c-0.987-0.981-1.494-2.331-1.494-4.021v-30.439h13.706v-3.571h1.974v6.135h-13.96L190.008-430.856L190.008-430.856z"/>
	<path d="M344.75-414.591h-18.422l-41.386-51.283v38.593h16.15v12.69h-44.137v-12.69h15.33v-45.398h-15.33v-12.547h36.987
		l38.042,46.3v-33.526h-17.193v-12.549h45.982v12.549H344.75V-414.591L344.75-414.591z M335.299-404.918l-5.887-6.586h2.791
		l4.246,4.276h14.402v-60.28h14.885v-11.056l-3.35-2.639v-2.308l5.768,3.798v14.404h-14.883v60.393L335.299-404.918L335.299-404.918
		z M322.045-465.309l-6.103-6.22h3.005l4.256,4.021h6.918v2.199H322.045z M262.836-465.309l-5.179-6.22h2.986l3.352,4.021h6.553
		v2.199H262.836z M289.905-428.095v-28.329l2.19,2.168v26.161H289.905z M264.664-404.918l-5.849-7.256h2.534l4.021,4.947h38.931
		v-11.642l-2.283-2.756v-2.896l4.473,5.427v14.179L264.664-404.918L264.664-404.918z"/>
	<path d="M405.237-422.441c12.18-0.199,21.775-6.387,23.045-17.16h12.094c-0.055,0.223-0.479,1.883-1.285,5.012
		c-0.82,3.118-2.354,6.354-4.629,9.732c-2.27,3.372-5.738,6.408-10.402,9.08c-4.643,2.676-10.605,4.165-17.889,4.5
		c-6.555,0-12.881-1.35-18.957-4.047c-6.084-2.703-11.023-6.669-14.83-11.9c-3.803-5.229-5.715-11.396-5.736-18.479
		c0.09-0.479,0.115-1.046,0.115-1.747c0.314-7.229,1.91-13.751,4.779-19.579c2.871-5.821,7.105-10.435,12.773-13.865
		c5.65-3.431,12.566-5.174,20.807-5.26c3.965,0,7.352,0.395,10.102,1.153c2.754,0.761,5.801,2.163,9.146,4.246l1.379-4.246H439
		v27.424h-15.188c-0.43-5.428-1.633-9.646-3.658-12.657c-2.027-3.011-5.912-4.53-11.684-4.53c-4.523,0.111-8.092,0.9-10.709,2.396
		c-2.615,1.462-4.5,3.458-5.691,6.021c-1.145,2.56-1.875,5.088-2.193,7.623c-0.27,2.5-0.615,6.917-1.004,13.245
		c0,1.549-0.082,2.815-0.227,3.797c0.145,5.821,1.375,10.467,3.768,13.983C394.799-424.187,399.081-422.441,405.237-422.441z
		 M431.393-450.429l-5.432-5.205h2.545l3.123,3.235h12.791v-25.46l-4.045-3.796v-2.53l6.355,5.848v27.908
		C446.73-450.429,431.393-450.429,431.393-450.429z M419.643-467.731l0.926,2.079c0.172,0-0.844-0.193-3.01-0.556
		c-2.162-0.396-3.908-0.592-5.287-0.592c-3.148,0-5.99,0.504-8.52,1.49c-2.615,1.124-4.252,3.178-4.896,6.13
		c-0.652,2.952-0.977,6.947-0.977,11.954v3.57c0,5.516,0.523,10.775,1.59,15.781v1.748c-0.84-0.82-1.482-1.607-1.906-2.335
		c-0.428-0.762-0.789-1.775-1.078-3.098c-0.615-3.405-0.924-6.329-0.924-8.746v-11.87c0-3.29,0.539-6.247,1.609-8.889
		c1.072-2.676,2.736-4.591,4.945-5.737c1.666-0.958,3.205-1.552,4.672-1.746c1.48-0.228,3.549-0.339,6.191-0.339
		c1.318,0,2.695,0.141,4.127,0.452C418.538-468.125,419.389-467.898,419.643-467.731z M380.819-413.215l-0.48-2.529
		c2.873,2.275,6.623,4.692,11.258,7.256c4.646,2.53,10.131,3.798,16.404,3.798c7.848-0.339,14.322-1.801,19.375-4.363
		c5.086-2.59,8.887-5.515,11.389-8.776c2.535-3.261,4.254-6.211,5.184-8.859c0.93-2.644,1.383-4.333,1.383-5.093l-4.697-4.723
		l0.439-1.942l6.115,6.104c-0.057,0.253-0.537,1.969-1.414,5.15c-0.869,3.15-2.609,6.55-5.232,10.208
		c-2.609,3.63-6.607,6.862-11.979,9.673c-5.367,2.816-12.215,4.338-20.562,4.559c-7.141,0-13-1.262-17.527-3.797
		C385.946-409.083,382.733-411.305,380.819-413.215z"/>
	<path d="M503.096-484.892v0.707l2.871,3.204v-3.911h52.213v12.439h-15.67v45.396h15.67v12.688h-52.213v-12.687h16.035v-17.746
		h-34.91v17.746h16.004v12.688H451.94v-12.688h14.646v-45.396H451.94v-12.44H503.096z M547.006-428.321v-37.776h15.195v-10.605
		l-2.428-3.012v-2.869l4.291,5.881v12.542h-15.336v35.839H547.006z M505.967-472.452v-6.556l-2.871-3.351v9.905h-16.004v16.027
		h34.91v-16.025H505.967z M506.674-466.097h-13.949v7.592h2.189v-5.654h14.18v-3.572l3.457,3.8h7.369v-1.941h-6.211l-6.1-6.578
		h-0.938v6.354h0.003V-466.097z M458.963-464.381l-5.18-6.922h2.314l3.793,4.727h5.434v2.195H458.963z M494.696-429.249h-2.199
		v-9.904h27.422v2.423h-25.223V-429.249z M458.293-405.619l-5.426-6.812h2.074l4.725,5.206h45.406l2.535-5.428h0.924l4.473,5.428
		h49.197v-11.644l-2.881-3.798v-2.534l4.744,5.626v13.956h-52.223l-3.098-3.572l-1.627,3.572H458.293z"/>
</g>
<g enable-background="new    ">
	<path d="M114.719-355.543h1.537l2.811-10.013h-1.756l0.505-2.218h3.601l2.635,8.103l6.039-8.103h3.952l-0.505,2.218H132
		l-1.866,10.013h1.8l-0.505,2.218H125.5l0.505-2.218h1.647l1.449-7.443l-5.555,7.246h-0.352l-2.481-7.246l-1.976,7.443h1.91
		l-0.505,2.218h-5.929L114.719-355.543z"/>
	<path d="M133.686-357.519c0-2.876,2.262-5.599,5.445-5.599c2.898,0,4.523,2.042,4.523,4.369c0,2.877-2.262,5.6-5.446,5.6
		C135.311-353.149,133.686-355.191,133.686-357.519z M141.217-358.749c0-1.559-0.988-2.371-2.174-2.371
		c-1.603,0-2.92,1.537-2.92,3.601c0,1.56,0.988,2.372,2.174,2.372C139.9-355.147,141.217-356.684,141.217-358.749z"/>
	<path d="M151.469-355.279c0-0.352,0.044-0.725,0.154-1.098l0.725-2.591c0.088-0.286,0.11-0.55,0.11-0.791
		c0-0.834-0.505-1.339-1.318-1.339c-1.032,0-1.712,0.725-2.064,2.151l-1.405,5.621h-2.459l1.91-7.598h-1.756l0.527-2.02h3.755
		l-0.483,2.218c0.659-1.229,1.976-2.394,3.272-2.394c1.383,0,2.525,0.988,2.525,2.876c0,0.483-0.066,1.011-0.242,1.604l-0.703,2.524
		c-0.066,0.264-0.11,0.483-0.11,0.682c0,0.438,0.176,0.658,0.505,0.658c0.329,0,0.747-0.241,1.229-1.581l0.966,0.373
		c-0.571,1.998-1.603,2.833-2.898,2.833C152.193-353.149,151.469-354.049,151.469-355.279z"/>
	<path d="M162.752-363.118c1.295,0,2.262,1.054,2.657,2.064l1.471-6.324h-1.779l0.527-2.021h4.128l-3.03,12.999
		c-0.11,0.461-0.176,0.791-0.176,1.032c0,0.396,0.154,0.593,0.483,0.593c0.285,0,0.747-0.241,1.229-1.581l0.966,0.373
		c-0.659,2.262-1.911,2.833-2.964,2.833c-1.251,0-1.976-0.856-1.976-2.174c-0.791,1.186-1.955,2.174-3.447,2.174
		c-1.801,0-3.096-1.493-3.096-3.732C157.746-360.198,159.963-363.118,162.752-363.118z M165.036-358.946
		c0-1.252-0.615-2.042-1.889-2.042c-1.603,0-2.898,1.801-2.898,3.755c0,1.142,0.571,2.042,1.735,2.042
		C163.586-355.191,165.036-356.881,165.036-358.946z"/>
	<path d="M170.215-356.881c0-3.316,2.218-6.236,5.006-6.236c1.273,0,2.305,1.054,2.701,2.151l0.659-1.976h2.24l-1.647,6.543
		c-0.11,0.417-0.176,0.791-0.176,1.032c0,0.396,0.154,0.593,0.483,0.593c0.285,0,0.747-0.241,1.229-1.581l0.966,0.373
		c-0.659,2.262-1.889,2.833-2.942,2.833c-1.251,0-1.976-0.856-1.976-2.174c-0.791,1.186-1.955,2.174-3.448,2.174
		C171.51-353.149,170.215-354.642,170.215-356.881z M177.505-358.946c0-1.252-0.615-2.042-1.889-2.042
		c-1.603,0-2.898,1.801-2.898,3.755c0,1.142,0.571,2.042,1.735,2.042C176.056-355.191,177.505-356.881,177.505-358.946z"/>
	<path d="M180.137-350.514c0-0.834,0.659-1.384,1.383-1.384c0.549,0,1.076,0.352,1.251,0.9c0.505-0.065,1.295-0.812,3.074-2.92
		l-1.449-7.005h-1.625l0.527-2.02h3.14l1.142,7.18c1.339-1.757,2.416-3.228,2.767-4.457c-0.527-0.22-0.944-0.703-0.944-1.405
		c0-0.835,0.659-1.493,1.515-1.493c1.098,0,1.734,0.79,1.734,1.998c0,1.054-0.527,2.854-4.128,7.224
		c-3.711,4.502-4.984,4.963-6.521,4.963C180.839-348.933,180.137-349.702,180.137-350.514z"/>
	<path d="M199.565-360.768h6.368l-0.571,2.459h-6.368L199.565-360.768z"/>
	<path d="M211.726-356.684c0-1.164,0.725-1.933,1.669-1.933c0.834,0,1.493,0.681,1.493,1.516c0,0.373-0.131,0.79-0.483,1.098
		c0.483,0.483,1.493,0.79,2.723,0.79c1.515,0,2.569-0.593,2.569-1.822c0-0.988-0.791-1.581-2.459-2.481
		c-1.69-0.899-3.469-2.174-3.469-4.479c0-2.086,1.888-4.041,5.204-4.041c2.986,0,4.831,1.757,4.831,3.25
		c0,1.076-0.615,1.954-1.647,1.954c-0.834,0-1.493-0.658-1.493-1.493c0-0.351,0.11-0.725,0.396-1.031
		c-0.198-0.264-0.988-0.527-2.042-0.527c-1.691,0-2.591,0.812-2.591,1.669c0,1.142,1.076,1.888,2.547,2.679
		c1.756,0.944,3.381,2.218,3.381,4.281c0,2.306-1.888,4.194-5.357,4.194C214.098-353.061,211.726-354.73,211.726-356.684z"/>
	<path d="M224.151-356.881c0-3.316,2.218-6.236,5.006-6.236c1.273,0,2.306,1.054,2.701,2.151l0.659-1.976h2.24l-1.647,6.543
		c-0.11,0.417-0.176,0.791-0.176,1.032c0,0.396,0.154,0.593,0.483,0.593c0.285,0,0.747-0.241,1.229-1.581l0.966,0.373
		c-0.659,2.262-1.889,2.833-2.942,2.833c-1.251,0-1.976-0.856-1.976-2.174c-0.791,1.186-1.955,2.174-3.447,2.174
		C225.446-353.149,224.151-354.642,224.151-356.881z M231.441-358.946c0-1.252-0.615-2.042-1.889-2.042
		c-1.603,0-2.898,1.801-2.898,3.755c0,1.142,0.571,2.042,1.735,2.042C229.992-355.191,231.441-356.881,231.441-358.946z"/>
	<path d="M241.209-360.922l-1.032,4.172c-0.088,0.352-0.154,0.703-0.154,0.879c0,0.658,0.33,0.878,0.703,0.878
		c0.505,0,0.878-0.132,1.845-0.769l0.791,1.098c-1.317,1.252-2.525,1.516-3.469,1.516c-1.274,0-2.35-0.681-2.35-2.306
		c0-0.373,0.088-0.812,0.198-1.296l1.032-4.172h-1.778l0.461-2.02h1.801l0.527-2.086l2.701-0.966l-0.769,3.052h2.92l-0.505,2.02
		L241.209-360.922L241.209-360.922z"/>
	<path d="M249.858-362.942l-1.383,5.555c-0.066,0.308-0.132,0.593-0.132,0.856c0,0.879,0.439,1.361,1.186,1.361
		c1.164,0,1.779-0.746,2.13-2.151l1.405-5.621h2.459l-1.647,6.543c-0.11,0.417-0.175,0.791-0.175,1.032
		c0,0.396,0.153,0.593,0.483,0.593c0.285,0,0.747-0.241,1.229-1.581l0.966,0.373c-0.659,2.262-1.889,2.833-2.942,2.833
		c-1.229,0-1.976-0.835-1.998-2.13c-0.791,1.295-1.976,2.13-3.206,2.13c-1.251,0-2.393-0.988-2.393-2.657
		c0-0.505,0.088-1.142,0.241-1.8l0.812-3.316h-1.734l0.527-2.02H249.858z"/>
	<path d="M259.539-360.922h-1.756l0.527-2.02h3.755l-0.615,2.811c1.12-2.042,2.262-2.986,3.404-2.986
		c0.812,0,1.603,0.637,1.603,1.581c0,0.834-0.681,1.515-1.515,1.515c-0.768,0-1.339-0.549-1.449-1.098
		c-0.703,0.22-1.823,1.471-2.306,3.426l-1.098,4.369h-2.459L259.539-360.922z"/>
	<path d="M271.504-363.118c1.295,0,2.262,1.054,2.657,2.064l1.471-6.324h-1.779l0.527-2.021h4.128l-3.03,12.999
		c-0.11,0.461-0.176,0.791-0.176,1.032c0,0.396,0.154,0.593,0.483,0.593c0.285,0,0.747-0.241,1.229-1.581l0.966,0.373
		c-0.659,2.262-1.911,2.833-2.964,2.833c-1.251,0-1.976-0.856-1.976-2.174c-0.791,1.186-1.955,2.174-3.447,2.174
		c-1.801,0-3.096-1.493-3.096-3.732C266.498-360.198,268.715-363.118,271.504-363.118z M273.788-358.946
		c0-1.252-0.615-2.042-1.889-2.042c-1.603,0-2.898,1.801-2.898,3.755c0,1.142,0.571,2.042,1.735,2.042
		C272.338-355.191,273.788-356.881,273.788-358.946z"/>
	<path d="M278.966-356.881c0-3.316,2.218-6.236,5.006-6.236c1.273,0,2.306,1.054,2.701,2.151l0.659-1.976h2.24l-1.647,6.543
		c-0.11,0.417-0.176,0.791-0.176,1.032c0,0.396,0.154,0.593,0.483,0.593c0.285,0,0.747-0.241,1.229-1.581l0.966,0.373
		c-0.659,2.262-1.889,2.833-2.942,2.833c-1.251,0-1.976-0.856-1.976-2.174c-0.791,1.186-1.955,2.174-3.447,2.174
		C280.262-353.149,278.966-354.642,278.966-356.881z M286.256-358.946c0-1.252-0.615-2.042-1.889-2.042
		c-1.603,0-2.898,1.801-2.898,3.755c0,1.142,0.571,2.042,1.735,2.042C284.807-355.191,286.256-356.881,286.256-358.946z"/>
	<path d="M288.888-350.514c0-0.834,0.659-1.384,1.383-1.384c0.549,0,1.076,0.352,1.251,0.9c0.505-0.065,1.295-0.812,3.074-2.92
		l-1.449-7.005h-1.625l0.527-2.02h3.14l1.142,7.18c1.339-1.757,2.416-3.228,2.767-4.457c-0.527-0.22-0.944-0.703-0.944-1.405
		c0-0.835,0.659-1.493,1.515-1.493c1.098,0,1.734,0.79,1.734,1.998c0,1.054-0.527,2.854-4.128,7.224
		c-3.711,4.502-4.984,4.963-6.521,4.963C289.591-348.933,288.888-349.702,288.888-350.514z"/>
	<path d="M308.975-360.922h-1.668l0.527-2.02h1.603l0.461-1.977c0.374-1.625,0.922-2.679,1.647-3.403
		c0.9-0.9,2.064-1.251,3.118-1.251c1.449,0,2.108,0.855,2.108,1.624c0,0.9-0.681,1.472-1.471,1.472c-0.681,0-1.229-0.461-1.339-1.01
		c-0.263,0.088-0.505,0.263-0.637,0.395c-0.417,0.418-0.769,1.142-1.054,2.372l-0.417,1.778h2.525l-0.527,2.02h-2.459l-1.735,7.598
		h-2.415L308.975-360.922z"/>
	<path d="M316.549-360.922h-1.756l0.527-2.02h3.755l-0.615,2.811c1.119-2.042,2.262-2.986,3.403-2.986
		c0.812,0,1.603,0.637,1.603,1.581c0,0.834-0.681,1.515-1.516,1.515c-0.768,0-1.339-0.549-1.449-1.098
		c-0.701,0.22-1.822,1.471-2.305,3.426l-1.098,4.369h-2.459L316.549-360.922z"/>
	<path d="M323.486-357.519c0-2.876,2.262-5.599,5.445-5.599c2.898,0,4.523,2.042,4.523,4.369c0,2.877-2.262,5.6-5.446,5.6
		C325.111-353.149,323.486-355.191,323.486-357.519z M331.017-358.749c0-1.559-0.987-2.371-2.174-2.371
		c-1.603,0-2.921,1.537-2.921,3.601c0,1.56,0.988,2.372,2.174,2.372C329.7-355.147,331.017-356.684,331.017-358.749z"/>
	<path d="M336.702-360.922h-1.757l0.526-2.02h3.756l-0.484,2.218c0.659-1.229,1.846-2.394,3.074-2.394
		c1.361,0,2.262,0.988,2.416,2.394c0.834-1.472,2.02-2.394,3.117-2.394c1.34,0,2.459,0.988,2.459,2.876
		c0,0.483-0.064,1.011-0.24,1.604l-0.703,2.524c-0.066,0.264-0.109,0.483-0.109,0.682c0,0.438,0.176,0.658,0.504,0.658
		c0.33,0,0.747-0.241,1.23-1.581l0.966,0.373c-0.571,1.998-1.603,2.833-2.898,2.833c-1.515,0-2.239-0.9-2.239-2.13
		c0-0.352,0.043-0.725,0.153-1.098l0.681-2.438c0.109-0.352,0.154-0.681,0.154-0.944c0-0.878-0.571-1.339-1.208-1.339
		c-0.944,0-1.625,0.768-1.998,2.327l-1.361,5.445h-2.46l1.384-5.445c0.088-0.373,0.153-0.791,0.153-1.054
		c0-0.725-0.526-1.273-1.207-1.273c-0.944,0-1.625,0.768-1.998,2.327l-1.361,5.445h-2.459L336.702-360.922z"/>
	<path d="M357.116-355.323h2.592l1.668-7.202l-2.371,0.549l-0.088-1.998l4.172-1.032l1.143,0.527l-2.131,9.156h2.635l-0.438,1.977
		h-7.619L357.116-355.323z"/>
	<path d="M366.622-355.323h2.591l1.669-7.202l-2.371,0.549l-0.088-1.998l4.172-1.032l1.142,0.527l-2.13,9.156h2.635l-0.439,1.977
		h-7.619L366.622-355.323z"/>
	<path d="M376.478-354.906c0-0.966,0.79-1.757,1.757-1.757s1.756,0.791,1.756,1.757s-0.789,1.757-1.756,1.757
		S376.478-353.94,376.478-354.906z M377.795-360.703c0-0.966,0.791-1.757,1.757-1.757s1.757,0.791,1.757,1.757
		c0,0.967-0.791,1.757-1.757,1.757S377.795-359.736,377.795-360.703z"/>
	<path d="M381.461-354.093c0-1.054,0.637-1.69,1.427-1.69c0.747,0,1.362,0.614,1.362,1.361c0,0.438-0.242,0.834-0.439,0.988
		c0.153,0.285,1.054,0.922,2.612,0.922c1.713,0,2.724-1.164,2.724-2.327c0-1.317-1.055-2.284-2.986-2.284h-0.637l0.461-1.888h0.549
		c2.086,0,3.799-0.812,3.799-2.35c0-1.076-0.967-1.669-2.307-1.669c-1.053,0-1.492,0.153-1.777,0.352
		c0.152,0.219,0.24,0.505,0.24,0.79c0,0.769-0.592,1.361-1.361,1.361c-0.658,0-1.427-0.396-1.427-1.493
		c0-1.559,1.757-3.008,4.458-3.008c2.766,0,4.654,1.471,4.654,3.579c0,1.493-1.054,3.096-3.842,3.491
		c1.865,0.746,2.59,1.998,2.59,3.249c0,2.306-2.02,4.173-5.182,4.173C383.35-350.536,381.461-352.403,381.461-354.093z"/>
	<path d="M394.238-358.397c0-3.294,2.591-6.631,6.214-6.631c3.271,0,5.116,2.306,5.116,5.226c0,3.294-2.591,6.631-6.214,6.631
		C396.083-353.171,394.238-355.476,394.238-358.397z M403.065-359.78c0-1.911-1.076-3.25-2.679-3.25
		c-2.087,0-3.646,2.218-3.646,4.611c0,1.91,1.076,3.249,2.68,3.249C401.506-355.169,403.065-357.387,403.065-359.78z"/>
	<path d="M406.838-356.881c0-3.316,2.218-6.236,5.006-6.236c1.273,0,2.307,1.054,2.701,2.151l0.658-1.976h2.24l-1.646,6.543
		c-0.11,0.417-0.176,0.791-0.176,1.032c0,0.396,0.153,0.593,0.482,0.593c0.285,0,0.747-0.241,1.23-1.581l0.966,0.373
		c-0.659,2.262-1.889,2.833-2.942,2.833c-1.252,0-1.977-0.856-1.977-2.174c-0.79,1.186-1.954,2.174-3.447,2.174
		C408.133-353.149,406.838-354.642,406.838-356.881z M414.128-358.946c0-1.252-0.615-2.042-1.889-2.042
		c-1.603,0-2.898,1.801-2.898,3.755c0,1.142,0.571,2.042,1.735,2.042C412.679-355.191,414.128-356.881,414.128-358.946z"/>
	<path d="M421.502-360.922h-1.756l0.527-2.02h3.754l-0.482,2.218c0.658-1.229,1.844-2.394,3.074-2.394
		c1.361,0,2.262,0.988,2.414,2.394c0.835-1.472,2.021-2.394,3.119-2.394c1.339,0,2.459,0.988,2.459,2.876
		c0,0.483-0.066,1.011-0.242,1.604l-0.702,2.524c-0.065,0.264-0.11,0.483-0.11,0.682c0,0.438,0.176,0.658,0.506,0.658
		c0.329,0,0.746-0.241,1.229-1.581l0.967,0.373c-0.57,1.998-1.604,2.833-2.898,2.833c-1.516,0-2.24-0.9-2.24-2.13
		c0-0.352,0.045-0.725,0.154-1.098l0.681-2.438c0.11-0.352,0.153-0.681,0.153-0.944c0-0.878-0.57-1.339-1.207-1.339
		c-0.944,0-1.625,0.768-1.998,2.327l-1.361,5.445h-2.459l1.383-5.445c0.088-0.373,0.154-0.791,0.154-1.054
		c0-0.725-0.527-1.273-1.208-1.273c-0.944,0-1.625,0.768-1.999,2.327l-1.361,5.445h-2.459L421.502-360.922z"/>
	<path d="M438.494-360.768h6.368l-0.571,2.459h-6.368L438.494-360.768z"/>
	<path d="M455.179-356.311h2.151l-0.438,1.977h-2.174l-0.835,3.645h-2.327l0.835-3.645h-6.412l-0.285-1.186l9.617-9.75l1.516,1.384
		l-7.488,7.575h3.514l0.57-2.481l2.547-0.922L455.179-356.311z"/>
	<path d="M459.391-354.906c0-0.966,0.791-1.757,1.758-1.757c0.966,0,1.756,0.791,1.756,1.757s-0.79,1.757-1.756,1.757
		C460.182-353.149,459.391-353.94,459.391-354.906z M460.709-360.703c0-0.966,0.79-1.757,1.756-1.757
		c0.967,0,1.758,0.791,1.758,1.757c0,0.967-0.791,1.757-1.758,1.757C461.5-358.946,460.709-359.736,460.709-360.703z"/>
	<path d="M464.375-354.093c0-1.054,0.638-1.69,1.427-1.69c0.747,0,1.361,0.614,1.361,1.361c0,0.438-0.24,0.834-0.438,0.988
		c0.153,0.285,1.054,0.922,2.612,0.922c1.713,0,2.724-1.164,2.724-2.327c0-1.317-1.054-2.284-2.986-2.284h-0.637l0.461-1.888h0.549
		c2.086,0,3.799-0.812,3.799-2.35c0-1.076-0.966-1.669-2.306-1.669c-1.054,0-1.493,0.153-1.778,0.352
		c0.153,0.219,0.241,0.505,0.241,0.79c0,0.769-0.593,1.361-1.361,1.361c-0.658,0-1.428-0.396-1.428-1.493
		c0-1.559,1.758-3.008,4.458-3.008c2.767,0,4.655,1.471,4.655,3.579c0,1.493-1.055,3.096-3.843,3.491
		c1.866,0.746,2.591,1.998,2.591,3.249c0,2.306-2.02,4.173-5.182,4.173C466.263-350.536,464.375-352.403,464.375-354.093z"/>
	<path d="M477.151-358.397c0-3.294,2.592-6.631,6.215-6.631c3.271,0,5.115,2.306,5.115,5.226c0,3.294-2.59,6.631-6.213,6.631
		C478.997-353.171,477.151-355.476,477.151-358.397z M485.979-359.78c0-1.911-1.076-3.25-2.68-3.25
		c-2.086,0-3.645,2.218-3.645,4.611c0,1.91,1.076,3.249,2.679,3.249C484.419-355.169,485.979-357.387,485.979-359.78z"/>
	<path d="M487.93-350.998h1.383l2.305-9.925h-1.8l0.526-2.02h3.821l-0.483,2.195c0.791-1.251,2.064-2.371,3.535-2.371
		c2.218,0,3.316,1.537,3.316,3.776c0,3.315-2.219,6.192-5.117,6.192c-1.361,0-2.283-0.966-2.744-2.042L491.705-351h1.713
		l-0.527,1.977h-5.488L487.93-350.998z M498.03-359.011c0-1.143-0.637-2.064-1.844-2.064c-1.67,0-3.119,1.713-3.119,3.776
		c0,1.252,0.637,2.021,1.955,2.021C496.69-355.279,498.03-357.057,498.03-359.011z"/>
	<path d="M504.043-360.922h-1.756l0.526-2.02h3.755l-0.483,2.218c0.659-1.229,1.845-2.394,3.074-2.394
		c1.36,0,2.261,0.988,2.415,2.394c0.834-1.472,2.02-2.394,3.117-2.394c1.34,0,2.461,0.988,2.461,2.876
		c0,0.483-0.066,1.011-0.242,1.604l-0.703,2.524c-0.066,0.264-0.109,0.483-0.109,0.682c0,0.438,0.176,0.658,0.506,0.658
		c0.328,0,0.746-0.241,1.229-1.581l0.967,0.373c-0.572,1.998-1.604,2.833-2.898,2.833c-1.516,0-2.24-0.9-2.24-2.13
		c0-0.352,0.045-0.725,0.154-1.098l0.68-2.438c0.111-0.352,0.154-0.681,0.154-0.944c0-0.878-0.57-1.339-1.207-1.339
		c-0.945,0-1.625,0.768-1.998,2.327l-1.361,5.445h-2.46l1.384-5.445c0.088-0.373,0.153-0.791,0.153-1.054
		c0-0.725-0.526-1.273-1.208-1.273c-0.943,0-1.625,0.768-1.998,2.327l-1.361,5.445h-2.459L504.043-360.922z"/>
</g>
<line fill="none" stroke="#000000" x1="5.937" y1="-335.043" x2="627.491" y2="-335.043"/>
<path d="M287.264-331.387c2.138,1.855,5.838,1.925,8.691,1.925h12.395c4.846,0,7.051,0.713,8.195,4.915h0.135
	c0.354-1.429,1.143-2.705,2.643-3.634c1.848-1.351,3.27-1.281,5.693-1.281h13.818c3.209,0,6.271-0.213,8.33-2.564
	c0.787-1.015,1.229-2.013,1.484-3.017h-63.621C285.377-333.679,286.039-332.397,287.264-331.387z"/>
<path d="M346.413-385.903c-2.137-1.854-5.838-1.924-8.691-1.924h-12.393c-4.844,0-7.049-0.711-8.197-4.914h-0.133
	c-0.357,1.43-1.141,2.705-2.64,3.634c-1.851,1.352-3.271,1.28-5.699,1.28h-13.816c-3.205,0-6.266,0.213-8.331,2.566
	c-0.782,1.016-1.228,2.012-1.481,3.018h63.62C348.299-383.61,347.639-384.891,346.413-385.903z"/>
<line fill="none" stroke="#000000" x1="5.937" y1="-382.673" x2="627.491" y2="-382.673"/>
<rect x="6.925" y="122.96" opacity="0.13" fill="#C3996B" width="615.706" height="56.653"/>
<g>
	<path fill="#231F20" d="M177.032,145.648h1.292l2.346-8.431h-1.462l0.306-1.377h2.72l1.938,7.071l5.048-7.071h2.839l-0.323,1.377
		h-1.291l-1.581,8.431h1.479l-0.306,1.377h-4.317l0.306-1.377h1.326l1.343-6.952l-4.861,6.697h-0.238l-1.904-6.697l-1.853,6.952
		h1.513l-0.322,1.377h-4.301L177.032,145.648z"/>
	<path fill="#231F20" d="M191.992,143.914c0-2.244,1.751-4.352,4.148-4.352c2.107,0,3.297,1.513,3.297,3.264
		c0,2.227-1.75,4.335-4.147,4.335C193.182,147.161,191.992,145.648,191.992,143.914z M197.942,142.81
		c0-1.259-0.816-1.989-1.87-1.989c-1.428,0-2.584,1.377-2.584,3.094c0,1.274,0.816,2.006,1.87,2.006
		C196.785,145.92,197.942,144.527,197.942,142.81z"/>
	<path fill="#231F20" d="M205.624,145.682c0-0.238,0.052-0.561,0.119-0.833l0.629-2.21c0.085-0.288,0.119-0.51,0.119-0.747
		c0-0.646-0.441-1.071-1.104-1.071c-0.901,0-1.751,0.765-2.125,2.227l-0.986,3.978h-1.495l1.529-6.068h-1.359l0.322-1.258h2.618
		l-0.391,1.717c0.577-1.02,1.529-1.836,2.532-1.836c1.122,0,1.989,0.766,1.989,2.074c0,0.356-0.068,0.765-0.188,1.189l-0.629,2.159
		c-0.051,0.221-0.102,0.459-0.102,0.595c0,0.34,0.17,0.544,0.459,0.544s0.611-0.255,0.951-1.189l0.663,0.237
		c-0.391,1.326-1.088,1.955-1.988,1.955C206.186,147.144,205.624,146.531,205.624,145.682z"/>
	<path fill="#231F20" d="M214.04,139.563c1.088,0,1.938,0.799,2.209,1.683l1.241-5.405h-1.359l0.306-1.258h2.821l-2.413,10.301
		c-0.068,0.323-0.119,0.578-0.119,0.748c0,0.323,0.136,0.51,0.425,0.51s0.612-0.255,0.969-1.189l0.663,0.237
		c-0.442,1.462-1.224,1.955-2.022,1.955c-0.884,0-1.428-0.595-1.428-1.496v-0.067c-0.612,0.884-1.496,1.581-2.602,1.581
		c-1.462,0-2.532-1.156-2.532-2.924C210.199,141.704,211.95,139.563,214.04,139.563z M215.944,142.691
		c0-1.105-0.595-1.819-1.699-1.819c-1.429,0-2.499,1.547-2.499,3.196c0,1.054,0.561,1.818,1.581,1.818
		C214.788,145.886,215.944,144.322,215.944,142.691z"/>
	<path fill="#231F20" d="M219.702,144.237c0-2.499,1.733-4.675,3.858-4.675c1.104,0,1.938,0.799,2.192,1.733l0.477-1.632h1.394
		l-1.292,5.219c-0.085,0.306-0.136,0.578-0.136,0.748c0,0.323,0.153,0.51,0.442,0.51c0.271,0,0.611-0.255,0.951-1.189l0.663,0.237
		c-0.441,1.462-1.207,1.955-2.022,1.955c-0.867,0-1.411-0.595-1.411-1.479v-0.085c-0.629,0.866-1.513,1.581-2.617,1.581
		C220.739,147.161,219.702,146.022,219.702,144.237z M225.412,142.673c0-1.088-0.544-1.802-1.665-1.802
		c-1.429,0-2.499,1.547-2.499,3.196c0,1.07,0.526,1.818,1.547,1.818C224.291,145.886,225.412,144.271,225.412,142.673z"/>
	<path fill="#231F20" d="M227.233,149.354c0-0.544,0.408-0.952,0.918-0.952c0.425,0,0.782,0.289,0.884,0.731
		c0.408-0.018,1.139-0.612,2.618-2.397l-1.19-5.779h-1.292l0.323-1.258h2.244l0.985,5.848c1.156-1.53,2.193-2.958,2.465-4.012
		c-0.374-0.136-0.714-0.476-0.714-0.986c0-0.526,0.425-0.985,1.003-0.985c0.697,0,1.139,0.51,1.139,1.326
		c0,0.985-0.663,2.498-3.383,5.864c-2.583,3.179-3.62,3.672-4.725,3.672C227.76,150.425,227.233,149.932,227.233,149.354z"/>
	<path fill="#231F20" d="M238.197,141.518h4.182l-0.34,1.495h-4.182L238.197,141.518z"/>
	<path fill="#231F20" d="M243.076,145.648h1.275l1.954-8.431h-1.444l0.306-1.377h8.092l-0.714,2.94h-1.462l0.374-1.581h-3.604
		l-0.866,3.672h3.383l-0.307,1.343h-3.365l-0.816,3.434h1.615l-0.323,1.377h-4.419L243.076,145.648z"/>
	<path fill="#231F20" d="M253.785,140.956h-1.359l0.322-1.258h2.618l-0.476,2.057c0.9-1.444,1.75-2.176,2.55-2.176
		c0.595,0,1.088,0.425,1.088,1.021c0,0.578-0.477,1.036-1.021,1.036c-0.51,0-0.9-0.34-0.985-0.747
		c-0.527,0.237-1.564,1.274-1.955,2.855l-0.816,3.28h-1.495L253.785,140.956z"/>
	<path fill="#231F20" d="M259.481,145.665c0-0.222,0.052-0.544,0.119-0.799l1.021-3.91h-1.377l0.322-1.258h2.873l-1.359,5.185
		c-0.085,0.289-0.119,0.578-0.119,0.748c0,0.323,0.17,0.51,0.441,0.51c0.34,0,0.646-0.255,1.003-1.189l0.663,0.237
		c-0.441,1.462-1.155,1.955-2.057,1.955C260.025,147.144,259.481,146.549,259.481,145.665z M260.91,137.472
		c0-0.544,0.441-0.986,0.985-0.986c0.527,0,0.986,0.442,0.986,0.986s-0.459,0.986-0.986,0.986
		C261.351,138.458,260.91,138.016,260.91,137.472z"/>
	<path fill="#231F20" d="M268.1,139.563c1.088,0,1.938,0.799,2.209,1.683l1.241-5.405h-1.359l0.306-1.258h2.821l-2.413,10.301
		c-0.068,0.323-0.119,0.578-0.119,0.748c0,0.323,0.136,0.51,0.425,0.51s0.612-0.255,0.969-1.189l0.663,0.237
		c-0.442,1.462-1.224,1.955-2.022,1.955c-0.884,0-1.428-0.595-1.428-1.496v-0.067c-0.612,0.884-1.496,1.581-2.602,1.581
		c-1.462,0-2.532-1.156-2.532-2.924C264.258,141.704,266.009,139.563,268.1,139.563z M270.003,142.691
		c0-1.105-0.595-1.819-1.699-1.819c-1.429,0-2.499,1.547-2.499,3.196c0,1.054,0.561,1.818,1.581,1.818
		C268.848,145.886,270.003,144.322,270.003,142.691z"/>
	<path fill="#231F20" d="M273.761,144.237c0-2.499,1.733-4.675,3.858-4.675c1.104,0,1.938,0.799,2.192,1.733l0.477-1.632h1.394
		l-1.292,5.219c-0.085,0.306-0.136,0.578-0.136,0.748c0,0.323,0.153,0.51,0.442,0.51c0.271,0,0.611-0.255,0.951-1.189l0.663,0.237
		c-0.441,1.462-1.207,1.955-2.022,1.955c-0.867,0-1.411-0.595-1.411-1.479v-0.085c-0.629,0.866-1.513,1.581-2.617,1.581
		C274.798,147.161,273.761,146.022,273.761,144.237z M279.472,142.673c0-1.088-0.544-1.802-1.665-1.802
		c-1.429,0-2.499,1.547-2.499,3.196c0,1.07,0.526,1.818,1.547,1.818C278.351,145.886,279.472,144.271,279.472,142.673z"/>
	<path fill="#231F20" d="M281.291,149.354c0-0.544,0.408-0.952,0.918-0.952c0.425,0,0.782,0.289,0.884,0.731
		c0.408-0.018,1.139-0.612,2.618-2.397l-1.19-5.779h-1.292l0.323-1.258h2.244l0.985,5.848c1.156-1.53,2.193-2.958,2.465-4.012
		c-0.374-0.136-0.714-0.476-0.714-0.986c0-0.526,0.425-0.985,1.003-0.985c0.697,0,1.139,0.51,1.139,1.326
		c0,0.985-0.663,2.498-3.383,5.864c-2.583,3.179-3.62,3.672-4.725,3.672C281.819,150.425,281.291,149.932,281.291,149.354z"/>
	<path fill="#231F20" d="M296.761,140.956h-1.274l0.306-1.258h1.258l0.476-2.022c0.256-1.122,0.646-1.836,1.174-2.363
		c0.561-0.561,1.325-0.833,2.09-0.833c0.97,0,1.462,0.527,1.462,1.105s-0.459,0.952-0.951,0.952c-0.493,0-0.884-0.323-0.936-0.782
		c-0.237,0.051-0.459,0.187-0.611,0.34c-0.34,0.34-0.596,0.901-0.799,1.733l-0.426,1.87h1.921l-0.322,1.258h-1.887l-1.395,6.068
		h-1.479L296.761,140.956z"/>
	<path fill="#231F20" d="M302.337,140.956h-1.359l0.322-1.258h2.618l-0.476,2.057c0.9-1.444,1.75-2.176,2.55-2.176
		c0.595,0,1.088,0.425,1.088,1.021c0,0.578-0.477,1.036-1.021,1.036c-0.51,0-0.9-0.34-0.985-0.747
		c-0.527,0.237-1.564,1.274-1.955,2.855l-0.816,3.28h-1.495L302.337,140.956z"/>
	<path fill="#231F20" d="M307.233,143.914c0-2.244,1.751-4.352,4.148-4.352c2.107,0,3.297,1.513,3.297,3.264
		c0,2.227-1.75,4.335-4.147,4.335C308.423,147.161,307.233,145.648,307.233,143.914z M313.183,142.81
		c0-1.259-0.816-1.989-1.87-1.989c-1.428,0-2.584,1.377-2.584,3.094c0,1.274,0.816,2.006,1.87,2.006
		C312.027,145.92,313.183,144.527,313.183,142.81z"/>
	<path fill="#231F20" d="M317.382,140.956h-1.359l0.322-1.258h2.618l-0.408,1.717c0.595-1.02,1.479-1.836,2.448-1.836
		c1.07,0,1.768,0.714,1.853,1.819c0.663-1.122,1.598-1.819,2.481-1.819c1.071,0,1.904,0.766,1.904,2.074
		c0,0.356-0.068,0.765-0.188,1.189l-0.629,2.159c-0.051,0.221-0.102,0.459-0.102,0.595c0,0.34,0.17,0.544,0.459,0.544
		s0.612-0.255,0.952-1.189l0.662,0.237c-0.391,1.326-1.088,1.955-1.988,1.955c-1.003,0-1.563-0.612-1.563-1.462
		c0-0.238,0.051-0.561,0.118-0.833l0.612-2.142c0.102-0.306,0.136-0.578,0.136-0.815c0-0.663-0.441-1.071-1.003-1.071
		c-0.85,0-1.665,0.782-2.057,2.329l-0.985,3.875h-1.496l1.104-4.301c0.068-0.322,0.119-0.629,0.119-0.866
		c0-0.595-0.408-1.037-1.003-1.037c-0.85,0-1.699,0.799-2.073,2.312l-0.97,3.893h-1.495L317.382,140.956z"/>
	<path fill="#231F20" d="M332.733,145.784h2.006l1.394-6.035l-1.87,0.459l-0.051-1.274l3.043-0.765l0.662,0.306l-1.699,7.31h2.022
		l-0.271,1.224h-5.524L332.733,145.784z"/>
	<path fill="#231F20" d="M339.686,145.784h2.006l1.394-6.035l-1.87,0.459l-0.051-1.274l3.043-0.765l0.662,0.306l-1.699,7.31h2.022
		l-0.271,1.224h-5.524L339.686,145.784z"/>
	<path fill="#231F20" d="M346.876,145.971c0-0.646,0.527-1.173,1.173-1.173c0.663,0,1.173,0.527,1.173,1.173
		c0,0.663-0.51,1.19-1.173,1.19C347.404,147.161,346.876,146.634,346.876,145.971z M347.897,141.5c0-0.663,0.526-1.189,1.173-1.189
		c0.663,0,1.173,0.526,1.173,1.189c0,0.646-0.51,1.173-1.173,1.173C348.423,142.673,347.897,142.147,347.897,141.5z"/>
	<path fill="#231F20" d="M350.379,146.668c0-0.697,0.425-1.139,0.969-1.139c0.526,0,0.9,0.407,0.9,0.866
		c0,0.307-0.187,0.629-0.425,0.731c0.153,0.306,0.901,0.799,2.159,0.799c1.428,0,2.346-0.918,2.346-1.972
		c0-1.105-0.969-1.921-2.533-1.921h-0.425l0.306-1.207h0.392c1.818,0,3.145-0.765,3.145-1.972c0-0.918-0.782-1.479-1.955-1.479
		c-0.867,0-1.309,0.188-1.581,0.426c0.188,0.136,0.289,0.374,0.289,0.611c0,0.51-0.391,0.884-0.9,0.884
		c-0.477,0-0.952-0.322-0.952-1.003c0-1.155,1.411-2.158,3.213-2.158c2.091,0,3.416,1.104,3.416,2.635
		c0,1.325-1.02,2.413-2.975,2.72c1.411,0.526,2.04,1.496,2.04,2.516c0,1.768-1.598,3.161-3.858,3.161
		C351.943,149.166,350.379,147.977,350.379,146.668z"/>
	<path fill="#231F20" d="M359.983,143.217c0-2.566,1.938-5.082,4.658-5.082c2.38,0,3.773,1.784,3.773,3.943
		c0,2.566-1.938,5.083-4.657,5.083C361.36,147.161,359.983,145.393,359.983,143.217z M366.868,142.095
		c0-1.547-0.935-2.686-2.261-2.686c-1.785,0-3.094,1.802-3.094,3.791c0,1.563,0.935,2.702,2.277,2.702
		C365.576,145.903,366.868,144.084,366.868,142.095z"/>
	<path fill="#231F20" d="M369.554,144.237c0-2.499,1.733-4.675,3.858-4.675c1.104,0,1.938,0.799,2.192,1.733l0.477-1.632h1.394
		l-1.292,5.219c-0.085,0.306-0.136,0.578-0.136,0.748c0,0.323,0.153,0.51,0.442,0.51c0.271,0,0.611-0.255,0.951-1.189l0.663,0.237
		c-0.441,1.462-1.207,1.955-2.022,1.955c-0.867,0-1.411-0.595-1.411-1.479v-0.085c-0.629,0.866-1.513,1.581-2.617,1.581
		C370.591,147.161,369.554,146.022,369.554,144.237z M375.265,142.673c0-1.088-0.544-1.802-1.665-1.802
		c-1.429,0-2.499,1.547-2.499,3.196c0,1.07,0.526,1.818,1.547,1.818C374.144,145.886,375.265,144.271,375.265,142.673z"/>
	<path fill="#231F20" d="M380.774,140.956h-1.359l0.322-1.258h2.618l-0.408,1.717c0.595-1.02,1.479-1.836,2.448-1.836
		c1.07,0,1.768,0.714,1.853,1.819c0.663-1.122,1.598-1.819,2.481-1.819c1.071,0,1.904,0.766,1.904,2.074
		c0,0.356-0.068,0.765-0.188,1.189l-0.629,2.159c-0.051,0.221-0.102,0.459-0.102,0.595c0,0.34,0.17,0.544,0.459,0.544
		s0.611-0.255,0.952-1.189l0.662,0.237c-0.391,1.326-1.088,1.955-1.988,1.955c-1.003,0-1.563-0.612-1.563-1.462
		c0-0.238,0.051-0.561,0.118-0.833l0.612-2.142c0.102-0.306,0.136-0.578,0.136-0.815c0-0.663-0.441-1.071-1.003-1.071
		c-0.85,0-1.666,0.782-2.057,2.329l-0.985,3.875h-1.496l1.104-4.301c0.068-0.322,0.119-0.629,0.119-0.866
		c0-0.595-0.408-1.037-1.003-1.037c-0.85,0-1.7,0.799-2.073,2.312l-0.97,3.893h-1.495L380.774,140.956z"/>
	<path fill="#231F20" d="M393.32,141.518h4.182l-0.34,1.495h-4.182L393.32,141.518z"/>
	<path fill="#231F20" d="M404.828,144.9h1.784l-0.271,1.225h-1.785l-0.68,2.94h-1.462l0.68-2.94h-4.912l-0.153-0.681l7.225-7.428
		l0.935,0.867l-5.864,6.017h3.06l0.51-2.209l1.581-0.562L404.828,144.9z"/>
	<path fill="#231F20" d="M408.11,145.971c0-0.646,0.527-1.173,1.173-1.173c0.663,0,1.173,0.527,1.173,1.173
		c0,0.663-0.51,1.19-1.173,1.19C408.637,147.161,408.11,146.634,408.11,145.971z M409.13,141.5c0-0.663,0.526-1.189,1.173-1.189
		c0.662,0,1.173,0.526,1.173,1.189c0,0.646-0.511,1.173-1.173,1.173C409.657,142.673,409.13,142.147,409.13,141.5z"/>
	<path fill="#231F20" d="M411.612,146.668c0-0.697,0.425-1.139,0.969-1.139c0.526,0,0.9,0.407,0.9,0.866
		c0,0.307-0.187,0.629-0.425,0.731c0.153,0.306,0.901,0.799,2.159,0.799c1.428,0,2.346-0.918,2.346-1.972
		c0-1.105-0.969-1.921-2.533-1.921h-0.425l0.306-1.207h0.392c1.818,0,3.145-0.765,3.145-1.972c0-0.918-0.782-1.479-1.955-1.479
		c-0.867,0-1.309,0.188-1.581,0.426c0.188,0.136,0.289,0.374,0.289,0.611c0,0.51-0.391,0.884-0.9,0.884
		c-0.477,0-0.952-0.322-0.952-1.003c0-1.155,1.411-2.158,3.213-2.158c2.091,0,3.416,1.104,3.416,2.635
		c0,1.325-1.02,2.413-2.975,2.72c1.411,0.526,2.04,1.496,2.04,2.516c0,1.768-1.598,3.161-3.858,3.161
		C413.175,149.166,411.612,147.977,411.612,146.668z"/>
	<path fill="#231F20" d="M421.216,143.217c0-2.566,1.938-5.082,4.658-5.082c2.38,0,3.773,1.784,3.773,3.943
		c0,2.566-1.938,5.083-4.657,5.083C422.593,147.161,421.216,145.393,421.216,143.217z M428.101,142.095
		c0-1.547-0.935-2.686-2.261-2.686c-1.785,0-3.094,1.802-3.094,3.791c0,1.563,0.935,2.702,2.277,2.702
		C426.809,145.903,428.101,144.084,428.101,142.095z"/>
	<path fill="#231F20" d="M429.291,149.133h1.088l1.921-8.177h-1.377l0.323-1.258h2.651l-0.374,1.598
		c0.612-0.918,1.513-1.733,2.669-1.733c1.648,0,2.651,1.189,2.651,2.958c0,2.55-1.768,4.641-3.909,4.641
		c-1.104,0-1.887-0.748-2.261-1.615l-0.833,3.587h1.428l-0.323,1.224h-3.978L429.291,149.133z M437.297,142.724
		c0-1.104-0.595-1.887-1.632-1.887c-1.462,0-2.668,1.599-2.668,3.23c0,1.07,0.611,1.784,1.751,1.784
		C436.193,145.852,437.297,144.339,437.297,142.724z"/>
	<path fill="#231F20" d="M441.752,140.956h-1.359l0.322-1.258h2.618l-0.408,1.717c0.595-1.02,1.479-1.836,2.448-1.836
		c1.07,0,1.768,0.714,1.853,1.819c0.663-1.122,1.598-1.819,2.481-1.819c1.071,0,1.904,0.766,1.904,2.074
		c0,0.356-0.068,0.765-0.188,1.189l-0.629,2.159c-0.051,0.221-0.102,0.459-0.102,0.595c0,0.34,0.17,0.544,0.459,0.544
		s0.611-0.255,0.952-1.189l0.662,0.237c-0.391,1.326-1.088,1.955-1.988,1.955c-1.003,0-1.563-0.612-1.563-1.462
		c0-0.238,0.051-0.561,0.118-0.833l0.612-2.142c0.102-0.306,0.136-0.578,0.136-0.815c0-0.663-0.441-1.071-1.003-1.071
		c-0.85,0-1.666,0.782-2.057,2.329l-0.985,3.875h-1.496l1.104-4.301c0.068-0.322,0.119-0.629,0.119-0.866
		c0-0.595-0.408-1.037-1.003-1.037c-0.85,0-1.7,0.799-2.073,2.312l-0.97,3.893h-1.495L441.752,140.956z"/>
</g>
<g>
	<path fill="#231F20" d="M199.617,163.577c0-0.782,0.492-1.31,1.139-1.31c0.561,0,0.985,0.459,0.985,0.97
		c0,0.322-0.136,0.646-0.425,0.85c0.357,0.442,1.19,0.799,2.346,0.799c1.241,0,2.228-0.646,2.228-1.717
		c0-0.884-0.715-1.428-1.904-2.091c-1.359-0.782-2.651-1.683-2.651-3.365c0-1.615,1.462-3.077,3.79-3.077
		c2.091,0,3.553,1.224,3.553,2.363c0,0.765-0.459,1.309-1.104,1.309c-0.562,0-0.986-0.442-0.986-0.986
		c0-0.255,0.103-0.544,0.374-0.781c-0.221-0.272-0.884-0.562-1.836-0.562c-1.343,0-2.176,0.731-2.176,1.598
		c0,0.97,0.816,1.53,2.04,2.228c1.309,0.73,2.533,1.648,2.533,3.229c0,1.802-1.547,3.195-3.944,3.195
		C201.333,166.229,199.617,164.903,199.617,163.577z"/>
	<path fill="#231F20" d="M209.035,163.237c0-2.499,1.733-4.675,3.858-4.675c1.104,0,1.938,0.799,2.192,1.733l0.477-1.632h1.394
		l-1.292,5.219c-0.085,0.306-0.136,0.578-0.136,0.748c0,0.323,0.153,0.51,0.442,0.51c0.271,0,0.611-0.255,0.951-1.189l0.663,0.237
		c-0.441,1.462-1.207,1.955-2.022,1.955c-0.867,0-1.411-0.595-1.411-1.479v-0.085c-0.629,0.866-1.513,1.581-2.617,1.581
		C210.072,166.161,209.035,165.022,209.035,163.237z M214.745,161.673c0-1.088-0.544-1.802-1.665-1.802
		c-1.429,0-2.499,1.547-2.499,3.196c0,1.07,0.526,1.818,1.547,1.818C213.624,164.886,214.745,163.271,214.745,161.673z"/>
	<path fill="#231F20" d="M221.716,159.956l-0.935,3.757c-0.068,0.255-0.103,0.493-0.103,0.646c0,0.408,0.238,0.629,0.578,0.629
		c0.392,0,0.748-0.17,1.462-0.646l0.527,0.714c-0.952,0.833-1.751,1.088-2.465,1.088c-0.901,0-1.615-0.51-1.615-1.547
		c0-0.255,0.051-0.544,0.119-0.884l0.935-3.757h-1.325l0.289-1.258h1.343l0.425-1.666l1.632-0.561l-0.562,2.227h2.244l-0.323,1.258
		H221.716z"/>
	<path fill="#231F20" d="M227.989,158.698l-1.122,4.437c-0.051,0.238-0.102,0.493-0.102,0.731c0,0.646,0.391,1.036,1.02,1.036
		c0.969,0,1.785-0.781,2.159-2.227l0.985-3.978h1.496l-1.309,5.185c-0.068,0.306-0.119,0.578-0.119,0.748
		c0,0.323,0.153,0.51,0.425,0.51c0.289,0,0.612-0.255,0.969-1.189l0.663,0.237c-0.441,1.462-1.224,1.955-2.022,1.955
		c-0.867,0-1.411-0.595-1.411-1.513v-0.153c-0.595,1.003-1.496,1.684-2.481,1.684c-1.037,0-1.904-0.748-1.904-1.938
		c0-0.374,0.068-0.799,0.17-1.224l0.782-3.043h-1.359l0.322-1.258H227.989z"/>
	<path fill="#231F20" d="M235.706,159.956h-1.359l0.322-1.258h2.618l-0.476,2.057c0.9-1.444,1.75-2.176,2.55-2.176
		c0.595,0,1.088,0.425,1.088,1.021c0,0.578-0.477,1.036-1.021,1.036c-0.51,0-0.9-0.34-0.985-0.747
		c-0.527,0.237-1.564,1.274-1.955,2.855l-0.816,3.28h-1.495L235.706,159.956z"/>
	<path fill="#231F20" d="M244.462,158.563c1.088,0,1.938,0.799,2.209,1.683l1.241-5.405h-1.359l0.306-1.258h2.821l-2.413,10.301
		c-0.068,0.323-0.119,0.578-0.119,0.748c0,0.323,0.136,0.51,0.425,0.51s0.612-0.255,0.969-1.189l0.663,0.237
		c-0.442,1.462-1.224,1.955-2.022,1.955c-0.884,0-1.428-0.595-1.428-1.496v-0.067c-0.612,0.884-1.496,1.581-2.602,1.581
		c-1.462,0-2.532-1.156-2.532-2.924C240.62,160.704,242.371,158.563,244.462,158.563z M246.366,161.691
		c0-1.105-0.595-1.819-1.699-1.819c-1.429,0-2.499,1.547-2.499,3.196c0,1.054,0.561,1.818,1.581,1.818
		C245.21,164.886,246.366,163.322,246.366,161.691z"/>
	<path fill="#231F20" d="M250.122,163.237c0-2.499,1.733-4.675,3.858-4.675c1.104,0,1.938,0.799,2.192,1.733l0.477-1.632h1.394
		l-1.292,5.219c-0.085,0.306-0.136,0.578-0.136,0.748c0,0.323,0.153,0.51,0.442,0.51c0.271,0,0.611-0.255,0.951-1.189l0.663,0.237
		c-0.441,1.462-1.207,1.955-2.022,1.955c-0.867,0-1.411-0.595-1.411-1.479v-0.085c-0.629,0.866-1.513,1.581-2.617,1.581
		C251.16,166.161,250.122,165.022,250.122,163.237z M255.833,161.673c0-1.088-0.544-1.802-1.665-1.802
		c-1.429,0-2.499,1.547-2.499,3.196c0,1.07,0.526,1.818,1.547,1.818C254.712,164.886,255.833,163.271,255.833,161.673z"/>
	<path fill="#231F20" d="M257.654,168.354c0-0.544,0.408-0.952,0.918-0.952c0.425,0,0.782,0.289,0.884,0.731
		c0.408-0.018,1.139-0.612,2.618-2.397l-1.19-5.779h-1.292l0.323-1.258h2.244l0.985,5.848c1.156-1.53,2.193-2.958,2.465-4.012
		c-0.374-0.136-0.714-0.476-0.714-0.986c0-0.526,0.425-0.985,1.003-0.985c0.697,0,1.139,0.51,1.139,1.326
		c0,0.985-0.663,2.498-3.383,5.864c-2.583,3.179-3.62,3.672-4.725,3.672C258.181,169.425,257.654,168.932,257.654,168.354z"/>
	<path fill="#231F20" d="M273.123,159.956h-1.274l0.306-1.258h1.258l0.476-2.022c0.256-1.122,0.646-1.836,1.174-2.363
		c0.561-0.561,1.325-0.833,2.09-0.833c0.97,0,1.462,0.527,1.462,1.105s-0.459,0.952-0.951,0.952c-0.493,0-0.884-0.323-0.936-0.782
		c-0.237,0.051-0.459,0.187-0.611,0.34c-0.34,0.34-0.596,0.901-0.799,1.733l-0.426,1.87h1.921l-0.322,1.258h-1.887l-1.395,6.068
		h-1.479L273.123,159.956z"/>
	<path fill="#231F20" d="M278.699,159.956h-1.359l0.322-1.258h2.618l-0.476,2.057c0.9-1.444,1.75-2.176,2.55-2.176
		c0.595,0,1.088,0.425,1.088,1.021c0,0.578-0.477,1.036-1.021,1.036c-0.51,0-0.9-0.34-0.985-0.747
		c-0.527,0.237-1.564,1.274-1.955,2.855l-0.816,3.28h-1.495L278.699,159.956z"/>
	<path fill="#231F20" d="M283.595,162.914c0-2.244,1.751-4.352,4.148-4.352c2.107,0,3.297,1.513,3.297,3.264
		c0,2.227-1.75,4.335-4.147,4.335C284.785,166.161,283.595,164.648,283.595,162.914z M289.545,161.81
		c0-1.259-0.816-1.989-1.87-1.989c-1.428,0-2.584,1.377-2.584,3.094c0,1.274,0.816,2.006,1.87,2.006
		C288.389,164.92,289.545,163.527,289.545,161.81z"/>
	<path fill="#231F20" d="M293.743,159.956h-1.359l0.322-1.258h2.618l-0.408,1.717c0.595-1.02,1.479-1.836,2.448-1.836
		c1.07,0,1.768,0.714,1.853,1.819c0.663-1.122,1.598-1.819,2.481-1.819c1.071,0,1.904,0.766,1.904,2.074
		c0,0.356-0.068,0.765-0.188,1.189l-0.629,2.159c-0.051,0.221-0.102,0.459-0.102,0.595c0,0.34,0.17,0.544,0.459,0.544
		s0.611-0.255,0.952-1.189l0.662,0.237c-0.391,1.326-1.088,1.955-1.988,1.955c-1.003,0-1.563-0.612-1.563-1.462
		c0-0.238,0.051-0.561,0.118-0.833l0.612-2.142c0.102-0.306,0.136-0.578,0.136-0.815c0-0.663-0.441-1.071-1.003-1.071
		c-0.85,0-1.666,0.782-2.057,2.329l-0.985,3.875h-1.496l1.104-4.301c0.068-0.322,0.119-0.629,0.119-0.866
		c0-0.595-0.408-1.037-1.003-1.037c-0.85,0-1.7,0.799-2.073,2.312l-0.97,3.893h-1.495L293.743,159.956z"/>
	<path fill="#231F20" d="M309.095,164.784h2.006l1.394-6.035l-1.87,0.459l-0.051-1.274l3.043-0.765l0.662,0.306l-1.699,7.31h2.022
		l-0.271,1.224h-5.524L309.095,164.784z"/>
	<path fill="#231F20" d="M316.048,164.784h2.006l1.394-6.035l-1.87,0.459l-0.051-1.274l3.043-0.765l0.662,0.306l-1.699,7.31h2.022
		l-0.271,1.224h-5.524L316.048,164.784z"/>
	<path fill="#231F20" d="M323.239,164.971c0-0.646,0.527-1.173,1.173-1.173c0.663,0,1.173,0.527,1.173,1.173
		c0,0.663-0.51,1.19-1.173,1.19C323.766,166.161,323.239,165.634,323.239,164.971z M324.259,160.5c0-0.663,0.526-1.189,1.173-1.189
		c0.663,0,1.173,0.526,1.173,1.189c0,0.646-0.51,1.173-1.173,1.173C324.785,161.673,324.259,161.147,324.259,160.5z"/>
	<path fill="#231F20" d="M326.741,165.668c0-0.697,0.425-1.139,0.969-1.139c0.526,0,0.9,0.407,0.9,0.866
		c0,0.307-0.187,0.629-0.425,0.731c0.153,0.306,0.901,0.799,2.159,0.799c1.428,0,2.346-0.918,2.346-1.972
		c0-1.105-0.969-1.921-2.533-1.921h-0.425l0.306-1.207h0.392c1.818,0,3.145-0.765,3.145-1.972c0-0.918-0.782-1.479-1.955-1.479
		c-0.867,0-1.309,0.188-1.581,0.426c0.188,0.136,0.289,0.374,0.289,0.611c0,0.51-0.391,0.884-0.9,0.884
		c-0.477,0-0.952-0.322-0.952-1.003c0-1.155,1.411-2.158,3.213-2.158c2.091,0,3.416,1.104,3.416,2.635
		c0,1.325-1.02,2.413-2.975,2.72c1.411,0.526,2.04,1.496,2.04,2.516c0,1.768-1.598,3.161-3.858,3.161
		C328.304,168.166,326.741,166.977,326.741,165.668z"/>
	<path fill="#231F20" d="M336.345,162.217c0-2.566,1.938-5.082,4.658-5.082c2.38,0,3.773,1.784,3.773,3.943
		c0,2.566-1.938,5.083-4.657,5.083C337.722,166.161,336.345,164.393,336.345,162.217z M343.23,161.095
		c0-1.547-0.935-2.686-2.261-2.686c-1.785,0-3.094,1.802-3.094,3.791c0,1.563,0.935,2.702,2.277,2.702
		C341.938,164.903,343.23,163.084,343.23,161.095z"/>
	<path fill="#231F20" d="M345.916,163.237c0-2.499,1.733-4.675,3.858-4.675c1.104,0,1.938,0.799,2.192,1.733l0.477-1.632h1.394
		l-1.292,5.219c-0.085,0.306-0.136,0.578-0.136,0.748c0,0.323,0.153,0.51,0.442,0.51c0.271,0,0.611-0.255,0.951-1.189l0.663,0.237
		c-0.441,1.462-1.207,1.955-2.022,1.955c-0.867,0-1.411-0.595-1.411-1.479v-0.085c-0.629,0.866-1.513,1.581-2.617,1.581
		C346.953,166.161,345.916,165.022,345.916,163.237z M351.627,161.673c0-1.088-0.544-1.802-1.665-1.802
		c-1.429,0-2.499,1.547-2.499,3.196c0,1.07,0.526,1.818,1.547,1.818C350.506,164.886,351.627,163.271,351.627,161.673z"/>
	<path fill="#231F20" d="M357.136,159.956h-1.359l0.322-1.258h2.618l-0.408,1.717c0.595-1.02,1.479-1.836,2.448-1.836
		c1.07,0,1.768,0.714,1.853,1.819c0.663-1.122,1.598-1.819,2.481-1.819c1.071,0,1.904,0.766,1.904,2.074
		c0,0.356-0.068,0.765-0.188,1.189l-0.629,2.159c-0.051,0.221-0.102,0.459-0.102,0.595c0,0.34,0.17,0.544,0.459,0.544
		s0.611-0.255,0.952-1.189l0.662,0.237c-0.391,1.326-1.088,1.955-1.988,1.955c-1.003,0-1.563-0.612-1.563-1.462
		c0-0.238,0.051-0.561,0.118-0.833l0.612-2.142c0.102-0.306,0.136-0.578,0.136-0.815c0-0.663-0.441-1.071-1.003-1.071
		c-0.85,0-1.666,0.782-2.057,2.329l-0.985,3.875h-1.496l1.104-4.301c0.068-0.322,0.119-0.629,0.119-0.866
		c0-0.595-0.408-1.037-1.003-1.037c-0.85,0-1.7,0.799-2.073,2.312l-0.97,3.893h-1.495L357.136,159.956z"/>
	<path fill="#231F20" d="M369.682,160.518h4.182l-0.34,1.495h-4.182L369.682,160.518z"/>
	<path fill="#231F20" d="M381.191,163.9h1.784l-0.271,1.225h-1.785l-0.68,2.94h-1.462l0.68-2.94h-4.912l-0.153-0.681l7.225-7.428
		l0.935,0.867l-5.864,6.017h3.06l0.51-2.209l1.581-0.562L381.191,163.9z"/>
	<path fill="#231F20" d="M384.471,164.971c0-0.646,0.527-1.173,1.173-1.173c0.663,0,1.173,0.527,1.173,1.173
		c0,0.663-0.51,1.19-1.173,1.19C384.998,166.161,384.471,165.634,384.471,164.971z M385.492,160.5c0-0.663,0.526-1.189,1.173-1.189
		c0.663,0,1.173,0.526,1.173,1.189c0,0.646-0.51,1.173-1.173,1.173C386.018,161.673,385.492,161.147,385.492,160.5z"/>
	<path fill="#231F20" d="M389.095,162.217c0-2.566,1.938-5.082,4.658-5.082c2.38,0,3.773,1.784,3.773,3.943
		c0,2.566-1.938,5.083-4.657,5.083C390.472,166.161,389.095,164.393,389.095,162.217z M395.98,161.095
		c0-1.547-0.935-2.686-2.261-2.686c-1.785,0-3.094,1.802-3.094,3.791c0,1.563,0.935,2.702,2.277,2.702
		C394.688,164.903,395.98,163.084,395.98,161.095z"/>
	<path fill="#231F20" d="M398.938,162.217c0-2.566,1.938-5.082,4.658-5.082c2.38,0,3.773,1.784,3.773,3.943
		c0,2.566-1.938,5.083-4.657,5.083C400.315,166.161,398.938,164.393,398.938,162.217z M405.823,161.095
		c0-1.547-0.935-2.686-2.261-2.686c-1.785,0-3.094,1.802-3.094,3.791c0,1.563,0.935,2.702,2.277,2.702
		C404.531,164.903,405.823,163.084,405.823,161.095z"/>
	<path fill="#231F20" d="M407.013,168.133h1.088l1.921-8.177h-1.377l0.323-1.258h2.651l-0.374,1.598
		c0.612-0.918,1.513-1.733,2.669-1.733c1.648,0,2.651,1.189,2.651,2.958c0,2.55-1.768,4.641-3.909,4.641
		c-1.104,0-1.887-0.748-2.261-1.615l-0.833,3.587h1.428l-0.323,1.224h-3.978L407.013,168.133z M415.019,161.724
		c0-1.104-0.595-1.887-1.632-1.887c-1.462,0-2.668,1.599-2.668,3.23c0,1.07,0.611,1.784,1.751,1.784
		C413.914,164.852,415.019,163.339,415.019,161.724z"/>
	<path fill="#231F20" d="M419.474,159.956h-1.359l0.322-1.258h2.618l-0.408,1.717c0.595-1.02,1.479-1.836,2.448-1.836
		c1.07,0,1.768,0.714,1.853,1.819c0.663-1.122,1.598-1.819,2.481-1.819c1.071,0,1.904,0.766,1.904,2.074
		c0,0.356-0.068,0.765-0.188,1.189l-0.629,2.159c-0.051,0.221-0.102,0.459-0.102,0.595c0,0.34,0.17,0.544,0.459,0.544
		s0.611-0.255,0.952-1.189l0.662,0.237c-0.391,1.326-1.088,1.955-1.988,1.955c-1.003,0-1.563-0.612-1.563-1.462
		c0-0.238,0.051-0.561,0.118-0.833l0.612-2.142c0.102-0.306,0.136-0.578,0.136-0.815c0-0.663-0.441-1.071-1.003-1.071
		c-0.85,0-1.666,0.782-2.057,2.329l-0.985,3.875h-1.496l1.104-4.301c0.068-0.322,0.119-0.629,0.119-0.866
		c0-0.595-0.408-1.037-1.003-1.037c-0.85,0-1.7,0.799-2.073,2.312l-0.97,3.893h-1.495L419.474,159.956z"/>
</g>
<line fill="none" stroke="#231F20" x1="6.87" y1="179.727" x2="622.732" y2="179.727"/>
<path d="M285.62,183.351c2.118,1.839,5.784,1.906,8.612,1.906h12.281c4.799,0,6.983,0.706,8.12,4.871h0.133
	c0.352-1.415,1.132-2.682,2.617-3.601c1.833-1.337,3.242-1.27,5.644-1.27h13.692c3.179,0,6.213-0.21,8.253-2.541
	c0.779-1.005,1.219-1.994,1.471-2.989h-63.036C283.752,181.08,284.408,182.35,285.62,183.351z"/>
<path d="M344.228,119.334c-2.116-1.837-5.785-1.907-8.611-1.907h-12.279c-4.8,0-6.985-0.705-8.122-4.87h-0.131
	c-0.355,1.417-1.132,2.682-2.618,3.601c-1.831,1.338-3.241,1.269-5.647,1.269h-13.69c-3.175,0-6.208,0.211-8.254,2.544
	c-0.775,1.005-1.217,1.992-1.468,2.989h63.036C346.097,121.605,345.443,120.336,344.228,119.334z"/>
<line fill="none" stroke="#231F20" x1="6.87" y1="122.534" x2="622.732" y2="122.534"/>
</svg>
