<?xml version="1.0" encoding="utf-8"?>
<!-- Generator: Adobe Illustrator 17.1.0, SVG Export Plug-In . SVG Version: 6.00 Build 0)  -->
<!DOCTYPE svg PUBLIC "-//W3C//DTD SVG 1.1//EN" "http://www.w3.org/Graphics/SVG/1.1/DTD/svg11.dtd">
<svg version="1.1" id="Layer_1" xmlns="http://www.w3.org/2000/svg" xmlns:xlink="http://www.w3.org/1999/xlink" x="0px" y="0px"
	 viewBox="0 0 166.995 115.764" enable-background="new 0 0 166.995 115.764" xml:space="preserve">
<g>
	<path d="M53.935,23.773h1.681l1.275-5.533l-1.611,0.406l-0.014-0.7l2.283-0.603l0.266,0.127l-1.457,6.303h1.653l-0.154,0.645H53.78
		L53.935,23.773z"/>
	<path d="M59.143,23.773h1.681l1.275-5.533l-1.611,0.406l-0.014-0.7l2.283-0.603l0.266,0.127l-1.457,6.303h1.653l-0.154,0.645
		h-4.076L59.143,23.773z"/>
	<path d="M64.533,23.773c0-0.42,0.308-0.756,0.729-0.756c0.42,0,0.728,0.336,0.728,0.756s-0.308,0.757-0.728,0.757
		C64.841,24.53,64.533,24.193,64.533,23.773z M65.373,20.09c0-0.421,0.308-0.757,0.729-0.757c0.42,0,0.729,0.336,0.729,0.757
		c0,0.42-0.309,0.756-0.729,0.756C65.681,20.845,65.373,20.51,65.373,20.09z"/>
	<path d="M66.94,24.418c0-0.42,0.28-0.742,0.658-0.742c0.35,0,0.546,0.252,0.546,0.504c0,0.21-0.168,0.477-0.448,0.547
		c0.168,0.363,0.827,0.784,1.947,0.784c1.289,0,2.199-0.784,2.199-1.835c0-1.037-0.98-1.793-2.339-1.793h-0.266l0.168-0.658H69.7
		c1.737,0,2.858-0.799,2.858-1.835c0-0.841-0.687-1.429-1.821-1.429c-0.784,0-1.289,0.237-1.569,0.518
		c0.224,0.084,0.378,0.28,0.378,0.505c0,0.308-0.266,0.532-0.574,0.532c-0.336,0-0.603-0.309-0.603-0.658
		c0-0.869,1.247-1.569,2.381-1.569c1.639,0,2.563,0.896,2.563,2.018c0,1.316-1.093,2.017-2.438,2.269
		c1.121,0.364,1.723,1.148,1.723,2.06c0,1.442-1.373,2.535-3.012,2.535C68.369,26.169,66.94,25.496,66.94,24.418z"/>
	<path d="M74.5,21.42c0-2.129,1.513-4.104,3.642-4.104c1.779,0,2.871,1.442,2.871,3.123c0,2.13-1.513,4.104-3.642,4.104
		C75.579,24.544,74.5,23.101,74.5,21.42z M80.229,20.454c0-1.387-0.896-2.451-2.101-2.451c-1.681,0-2.857,1.597-2.857,3.403
		c0,1.387,0.896,2.451,2.101,2.451C79.053,23.857,80.229,22.261,80.229,20.454z"/>
	<path d="M82.172,20.187h2.507l-0.154,0.729H81.99L82.172,20.187z"/>
	<path d="M84.902,23.983c0.56-1.414,2.017-2.227,3.488-2.97c1.121-0.574,2.031-1.12,2.031-1.904c0-0.561-0.519-1.148-1.737-1.148
		c-0.785,0-1.289,0.266-1.611,0.658c0.224,0.098,0.336,0.294,0.336,0.532c0,0.322-0.252,0.574-0.574,0.574
		c-0.35,0-0.645-0.267-0.645-0.658c0-0.911,1.135-1.779,2.521-1.779c1.611,0,2.465,0.854,2.465,1.765
		c0,1.247-1.261,1.934-2.563,2.578c-1.667,0.826-2.325,1.288-2.788,2.143h3.796l0.28-1.232h0.687l-0.434,1.877h-5.169L84.902,23.983
		z"/>
	<path d="M91.944,23.773c0-0.42,0.308-0.756,0.729-0.756c0.42,0,0.728,0.336,0.728,0.756s-0.308,0.757-0.728,0.757
		C92.251,24.53,91.944,24.193,91.944,23.773z M92.784,20.09c0-0.421,0.309-0.757,0.729-0.757s0.729,0.336,0.729,0.757
		c0,0.42-0.309,0.756-0.729,0.756S92.784,20.51,92.784,20.09z"/>
	<path d="M95.206,21.42c0-2.129,1.513-4.104,3.643-4.104c1.778,0,2.871,1.442,2.871,3.123c0,2.13-1.513,4.104-3.642,4.104
		C96.285,24.544,95.206,23.101,95.206,21.42z M100.935,20.454c0-1.387-0.896-2.451-2.102-2.451c-1.681,0-2.857,1.597-2.857,3.403
		c0,1.387,0.896,2.451,2.102,2.451C99.758,23.857,100.935,22.261,100.935,20.454z"/>
	<path d="M103.003,21.42c0-2.129,1.513-4.104,3.643-4.104c1.778,0,2.871,1.442,2.871,3.123c0,2.13-1.513,4.104-3.642,4.104
		C104.082,24.544,103.003,23.101,103.003,21.42z M108.733,20.454c0-1.387-0.896-2.451-2.102-2.451c-1.681,0-2.857,1.597-2.857,3.403
		c0,1.387,0.896,2.451,2.102,2.451C107.556,23.857,108.733,22.261,108.733,20.454z"/>
</g>
<g>
	<path d="M5.377,44.636h1.65l2.53-10.914h-1.87l0.396-1.782h10.671l-0.924,3.807h-1.893l0.484-2.046H11.56l-1.056,4.488h4.511
		l-0.396,1.717H10.13l-1.123,4.753h4.885l0.506-2.047h1.892l-0.88,3.807H4.959L5.377,44.636z"/>
	<path d="M24.649,44.679c0-0.308,0.066-0.727,0.154-1.078l0.814-2.86c0.11-0.374,0.154-0.66,0.154-0.968
		c0-0.837-0.572-1.387-1.43-1.387c-1.167,0-2.267,0.99-2.75,2.883l-1.276,5.148h-1.936l1.98-7.855h-1.76l0.418-1.628h3.389
		l-0.506,2.223c0.748-1.32,1.98-2.377,3.278-2.377c1.452,0,2.574,0.99,2.574,2.685c0,0.462-0.088,0.99-0.242,1.54L26.696,43.8
		c-0.066,0.286-0.132,0.594-0.132,0.77c0,0.44,0.22,0.704,0.594,0.704c0.374,0,0.792-0.33,1.232-1.54l0.858,0.309
		c-0.506,1.716-1.408,2.53-2.574,2.53C25.375,46.572,24.649,45.78,24.649,44.679z"/>
	<path d="M35.54,36.759c1.408,0,2.508,1.034,2.86,2.178l1.606-6.997h-1.76l0.396-1.628h3.653L39.17,43.645
		c-0.088,0.418-0.154,0.748-0.154,0.968c0,0.419,0.176,0.66,0.55,0.66s0.792-0.33,1.254-1.54l0.858,0.309
		c-0.572,1.892-1.584,2.53-2.618,2.53c-1.145,0-1.849-0.771-1.849-1.937v-0.088c-0.792,1.144-1.936,2.046-3.366,2.046
		c-1.893,0-3.279-1.496-3.279-3.784C30.566,39.531,32.833,36.759,35.54,36.759z M38.004,40.807c0-1.431-0.771-2.354-2.201-2.354
		c-1.848,0-3.234,2.002-3.234,4.137c0,1.363,0.726,2.354,2.046,2.354C36.507,44.943,38.004,42.92,38.004,40.807z"/>
	<path d="M43.305,44.636c0-0.286,0.066-0.638,0.132-0.99l2.729-11.706h-1.782l0.418-1.628h3.653l-3.081,13.312
		c-0.088,0.374-0.154,0.726-0.154,0.945c0,0.463,0.198,0.704,0.572,0.704c0.44,0,0.836-0.33,1.298-1.54l0.836,0.309
		c-0.572,1.892-1.496,2.53-2.64,2.53C43.987,46.572,43.305,45.802,43.305,44.636z"/>
	<path d="M51.225,42.281v0.33c0,1.431,1.144,2.376,2.86,2.376c1.012,0,1.936-0.22,3.125-0.857l-0.374,1.804
		c-0.99,0.484-1.804,0.66-3.146,0.66c-2.267,0-4.357-1.43-4.357-4.026c0-3.213,2.376-5.809,5.193-5.809
		c2.311,0,3.829,1.32,3.829,3.542c0,0.595-0.11,1.255-0.352,1.98H51.225z M51.488,40.895h4.929c0.088-0.265,0.132-0.551,0.132-0.814
		c0-0.99-0.66-1.716-2.024-1.716S51.995,39.399,51.488,40.895z"/>
	<path d="M60.178,45.384c-0.374-0.374-0.594-0.792-0.594-1.254c0-0.704,0.484-1.232,1.122-1.232c0.616,0,1.057,0.484,1.057,1.056
		c0,0.221-0.088,0.463-0.22,0.616c0.088,0.089,0.198,0.154,0.352,0.242c0.44,0.221,1.078,0.374,1.76,0.374
		c0.99,0,1.826-0.396,1.826-1.166c0-0.792-0.946-1.188-2.002-1.65c-1.32-0.594-2.596-1.254-2.596-2.772
		c0-1.518,1.298-2.838,3.652-2.838c1.298,0,2.398,0.418,3.015,1.056c0.352,0.353,0.55,0.792,0.55,1.232
		c0,0.727-0.506,1.21-1.101,1.21c-0.594,0-1.078-0.483-1.078-1.056c0-0.198,0.044-0.353,0.198-0.616
		c-0.066-0.044-0.154-0.11-0.33-0.176c-0.33-0.133-0.792-0.221-1.276-0.221c-0.968,0-1.738,0.396-1.738,1.078
		c0,0.727,0.946,1.145,2.046,1.65c1.298,0.595,2.552,1.299,2.552,2.772c0,1.87-1.518,2.904-3.762,2.904
		C62.159,46.594,60.882,46.11,60.178,45.384z"/>
	<path d="M69.704,45.384c-0.374-0.374-0.594-0.792-0.594-1.254c0-0.704,0.484-1.232,1.123-1.232c0.616,0,1.056,0.484,1.056,1.056
		c0,0.221-0.088,0.463-0.22,0.616c0.088,0.089,0.198,0.154,0.352,0.242c0.44,0.221,1.078,0.374,1.76,0.374
		c0.99,0,1.826-0.396,1.826-1.166c0-0.792-0.946-1.188-2.002-1.65c-1.32-0.594-2.596-1.254-2.596-2.772
		c0-1.518,1.298-2.838,3.652-2.838c1.298,0,2.398,0.418,3.015,1.056c0.352,0.353,0.55,0.792,0.55,1.232c0,0.727-0.506,1.21-1.1,1.21
		c-0.594,0-1.078-0.483-1.078-1.056c0-0.198,0.044-0.353,0.198-0.616c-0.066-0.044-0.154-0.11-0.33-0.176
		c-0.33-0.133-0.792-0.221-1.276-0.221c-0.968,0-1.738,0.396-1.738,1.078c0,0.727,0.946,1.145,2.046,1.65
		c1.298,0.595,2.552,1.299,2.552,2.772c0,1.87-1.518,2.904-3.762,2.904C71.685,46.594,70.408,46.11,69.704,45.384z"/>
	<path d="M83.08,44.636h1.672l3.036-10.914h-1.892l0.396-1.782h3.521l2.508,9.153l6.535-9.153h3.674l-0.418,1.782h-1.672
		l-2.047,10.914h1.915l-0.396,1.782h-5.589l0.396-1.782h1.716l1.738-8.999l-6.292,8.669h-0.308l-2.464-8.669l-2.398,8.999h1.958
		l-0.418,1.782h-5.567L83.08,44.636z"/>
	<path d="M103.034,44.658c0-0.286,0.065-0.705,0.153-1.034l1.32-5.062h-1.782l0.418-1.628h3.719l-1.76,6.711
		c-0.11,0.374-0.154,0.748-0.154,0.968c0,0.419,0.22,0.66,0.572,0.66c0.439,0,0.836-0.33,1.298-1.54l0.858,0.309
		c-0.572,1.892-1.496,2.53-2.662,2.53C103.738,46.572,103.034,45.802,103.034,44.658z M104.881,34.052
		c0-0.704,0.572-1.275,1.276-1.275c0.683,0,1.276,0.571,1.276,1.275s-0.594,1.276-1.276,1.276
		C105.454,35.328,104.881,34.756,104.881,34.052z"/>
	<path d="M111.24,38.562h-1.761l0.418-1.628h3.389l-0.528,2.223c0.771-1.32,1.915-2.377,3.169-2.377
		c1.386,0,2.288,0.925,2.398,2.354c0.858-1.452,2.068-2.354,3.212-2.354c1.387,0,2.465,0.99,2.465,2.685
		c0,0.462-0.088,0.99-0.242,1.54l-0.814,2.795c-0.065,0.286-0.132,0.594-0.132,0.77c0,0.44,0.221,0.704,0.595,0.704
		s0.792-0.33,1.231-1.54l0.858,0.309c-0.506,1.716-1.408,2.53-2.574,2.53c-1.298,0-2.024-0.792-2.024-1.893
		c0-0.308,0.066-0.727,0.154-1.078l0.792-2.772c0.132-0.396,0.176-0.748,0.176-1.056c0-0.858-0.572-1.387-1.298-1.387
		c-1.101,0-2.156,1.013-2.662,3.015l-1.276,5.017h-1.937l1.43-5.566c0.089-0.418,0.154-0.814,0.154-1.123
		c0-0.77-0.528-1.342-1.298-1.342c-1.101,0-2.2,1.034-2.685,2.992l-1.254,5.039h-1.937L111.24,38.562z"/>
	<path d="M126.792,42.391c0-2.904,2.267-5.633,5.369-5.633c2.729,0,4.269,1.958,4.269,4.225c0,2.882-2.267,5.61-5.369,5.61
		C128.333,46.594,126.792,44.636,126.792,42.391z M134.494,40.961c0-1.628-1.056-2.574-2.42-2.574c-1.849,0-3.345,1.782-3.345,4.005
		c0,1.65,1.057,2.596,2.421,2.596C132.998,44.987,134.494,43.183,134.494,40.961z"/>
	<path d="M138.101,45.384c-0.374-0.374-0.595-0.792-0.595-1.254c0-0.704,0.484-1.232,1.122-1.232c0.616,0,1.057,0.484,1.057,1.056
		c0,0.221-0.088,0.463-0.22,0.616c0.088,0.089,0.197,0.154,0.352,0.242c0.44,0.221,1.078,0.374,1.761,0.374
		c0.99,0,1.826-0.396,1.826-1.166c0-0.792-0.946-1.188-2.003-1.65c-1.319-0.594-2.596-1.254-2.596-2.772
		c0-1.518,1.298-2.838,3.652-2.838c1.298,0,2.398,0.418,3.015,1.056c0.352,0.353,0.55,0.792,0.55,1.232
		c0,0.727-0.506,1.21-1.101,1.21c-0.594,0-1.078-0.483-1.078-1.056c0-0.198,0.044-0.353,0.198-0.616
		c-0.065-0.044-0.154-0.11-0.33-0.176c-0.33-0.133-0.792-0.221-1.276-0.221c-0.968,0-1.738,0.396-1.738,1.078
		c0,0.727,0.946,1.145,2.047,1.65c1.298,0.595,2.552,1.299,2.552,2.772c0,1.87-1.518,2.904-3.762,2.904
		C140.082,46.594,138.805,46.11,138.101,45.384z"/>
	<path d="M147.231,42.809c0-3.234,2.244-6.051,4.995-6.051c1.43,0,2.508,1.034,2.838,2.244l0.616-2.112h1.805l-1.673,6.755
		c-0.11,0.396-0.176,0.748-0.176,0.968c0,0.419,0.198,0.66,0.572,0.66c0.352,0,0.792-0.33,1.231-1.54l0.858,0.309
		c-0.572,1.892-1.562,2.53-2.618,2.53c-1.122,0-1.826-0.771-1.826-1.914v-0.11c-0.814,1.122-1.958,2.046-3.389,2.046
		C148.573,46.594,147.231,45.12,147.231,42.809z M154.624,40.785c0-1.408-0.704-2.332-2.156-2.332c-1.848,0-3.234,2.002-3.234,4.137
		c0,1.386,0.683,2.354,2.003,2.354C153.171,44.943,154.624,42.853,154.624,40.785z"/>
</g>
<g>
	<path d="M11.185,60.321c0-4.665,3.719-8.647,8.251-8.647c3.212,0,5.193,1.958,5.193,3.631c0,0.968-0.66,1.716-1.475,1.716
		c-0.748,0-1.32-0.572-1.32-1.276c0-0.418,0.242-0.813,0.55-1.034c-0.264-0.55-1.342-1.21-3.014-1.21
		c-3.411,0-6.117,3.19-6.117,6.667c0,2.86,1.694,4.665,4.335,4.665c1.584,0,2.992-0.66,4.291-1.937l1.21,1.21
		c-1.628,1.761-3.521,2.553-5.677,2.553C14.001,66.658,11.185,64.37,11.185,60.321z"/>
	<path d="M25,62.807c0-3.234,2.245-6.051,4.995-6.051c1.43,0,2.508,1.034,2.838,2.244l0.616-2.112h1.805l-1.672,6.755
		c-0.11,0.396-0.176,0.748-0.176,0.968c0,0.419,0.198,0.66,0.572,0.66c0.352,0,0.792-0.33,1.232-1.54l0.858,0.309
		c-0.572,1.892-1.562,2.53-2.619,2.53c-1.122,0-1.826-0.771-1.826-1.914v-0.11c-0.814,1.122-1.958,2.046-3.388,2.046
		C26.342,66.592,25,65.118,25,62.807z M32.393,60.783c0-1.408-0.704-2.332-2.156-2.332c-1.848,0-3.234,2.002-3.234,4.137
		c0,1.386,0.682,2.354,2.002,2.354C30.941,64.941,32.393,62.851,32.393,60.783z"/>
	<path d="M39.52,58.56h-1.76l0.418-1.628h3.389l-0.616,2.662c1.167-1.87,2.267-2.816,3.301-2.816c0.77,0,1.408,0.551,1.408,1.32
		c0,0.748-0.616,1.343-1.32,1.343c-0.66,0-1.166-0.44-1.276-0.969c-0.682,0.309-2.024,1.65-2.53,3.696l-1.056,4.247H37.54
		L39.52,58.56z"/>
	<path d="M45.899,62.807c0-3.234,2.245-6.051,4.995-6.051c1.43,0,2.508,1.034,2.838,2.244l0.616-2.112h1.805l-1.672,6.755
		c-0.11,0.396-0.176,0.748-0.176,0.968c0,0.419,0.198,0.66,0.572,0.66c0.352,0,0.792-0.33,1.232-1.54l0.858,0.309
		c-0.572,1.892-1.562,2.53-2.619,2.53c-1.122,0-1.826-0.771-1.826-1.914v-0.11c-0.814,1.122-1.958,2.046-3.388,2.046
		C47.242,66.592,45.899,65.118,45.899,62.807z M53.292,60.783c0-1.408-0.704-2.332-2.156-2.332c-1.848,0-3.234,2.002-3.234,4.137
		c0,1.386,0.682,2.354,2.002,2.354C51.84,64.941,53.292,62.851,53.292,60.783z"/>
	<path d="M60.31,58.56h-1.65l0.396-1.628h1.628l0.616-2.618c0.33-1.452,0.836-2.377,1.518-3.059
		c0.726-0.727,1.716-1.078,2.707-1.078c1.254,0,1.892,0.682,1.892,1.43c0,0.749-0.594,1.232-1.232,1.232
		c-0.638,0-1.145-0.418-1.21-1.012c-0.308,0.065-0.594,0.242-0.792,0.439c-0.44,0.44-0.77,1.167-1.034,2.245l-0.55,2.42h2.486
		l-0.418,1.628h-2.442l-1.804,7.855h-1.914L60.31,58.56z"/>
	<path d="M66.844,62.279v0.33c0,1.431,1.144,2.376,2.86,2.376c1.012,0,1.936-0.22,3.125-0.857l-0.374,1.804
		c-0.99,0.484-1.805,0.66-3.146,0.66c-2.267,0-4.357-1.43-4.357-4.026c0-3.213,2.376-5.809,5.193-5.809
		c2.311,0,3.829,1.32,3.829,3.542c0,0.595-0.11,1.255-0.352,1.98H66.844z M67.108,60.893h4.929c0.088-0.265,0.132-0.551,0.132-0.814
		c0-0.99-0.66-1.716-2.024-1.716S67.614,59.397,67.108,60.893z"/>
	<path d="M79.713,64.634h1.65l2.53-10.914h-1.87l0.396-1.782h10.473l-0.924,3.807h-1.892l0.484-2.046h-4.665l-1.122,4.753h4.378
		l-0.396,1.738H84.4l-1.056,4.444h2.09l-0.418,1.782h-5.721L79.713,64.634z"/>
	<path d="M91.307,62.389c0-2.904,2.267-5.633,5.369-5.633c2.728,0,4.269,1.958,4.269,4.225c0,2.882-2.267,5.61-5.369,5.61
		C92.847,66.592,91.307,64.634,91.307,62.389z M99.008,60.959c0-1.628-1.057-2.574-2.421-2.574c-1.848,0-3.344,1.782-3.344,4.005
		c0,1.65,1.056,2.596,2.42,2.596C97.512,64.985,99.008,63.181,99.008,60.959z"/>
	<path d="M104.661,58.56h-1.76l0.418-1.628h3.389l-0.616,2.662c1.166-1.87,2.267-2.816,3.301-2.816c0.77,0,1.408,0.551,1.408,1.32
		c0,0.748-0.616,1.343-1.32,1.343c-0.66,0-1.166-0.44-1.276-0.969c-0.683,0.309-2.024,1.65-2.53,3.696l-1.057,4.247h-1.936
		L104.661,58.56z"/>
	<path d="M118.587,64.634h1.782l2.552-10.958h-3.212l-0.507,2.289h-1.914l0.925-4.027h12.189l-0.924,4.027h-1.893l0.506-2.289h-3.19
		l-2.53,10.958h2.002l-0.396,1.782h-5.81L118.587,64.634z"/>
	<path d="M130.29,58.56h-1.738l0.418-1.628h2.971l0.418,7.195l3.366-6.117h1.101l1.276,6.293c1.275-1.958,2.376-3.807,2.53-5.061
		c-0.484-0.11-0.969-0.528-0.969-1.21c0-0.704,0.551-1.276,1.276-1.276c0.858,0,1.475,0.638,1.475,1.672
		c0,1.606-1.408,4.335-4.225,8.251h-1.145l-1.254-5.786l-3.411,5.786h-1.275L130.29,58.56z"/>
	<path d="M143.732,62.389c0-2.904,2.267-5.633,5.369-5.633c2.728,0,4.269,1.958,4.269,4.225c0,2.882-2.267,5.61-5.369,5.61
		C145.272,66.592,143.732,64.634,143.732,62.389z M151.433,60.959c0-1.628-1.057-2.574-2.421-2.574
		c-1.848,0-3.344,1.782-3.344,4.005c0,1.65,1.056,2.596,2.42,2.596C149.937,64.985,151.433,63.181,151.433,60.959z"/>
</g>
<line fill="none" stroke="#000000" stroke-linecap="round" stroke-linejoin="round" stroke-dasharray="0,2.914" x1="126.659" y1="19.668" x2="163.088" y2="19.668"/>
<path fill="none" stroke="#000000" stroke-linecap="round" stroke-linejoin="round" d="M164.545,19.668L164.545,19.668
	 M123.745,19.668L123.745,19.668"/>
<line fill="none" stroke="#000000" x1="2.325" y1="3.118" x2="165.045" y2="3.118"/>
<line fill="none" stroke="#000000" x1="2.325" y1="112.28" x2="165.045" y2="112.28"/>
<line fill="none" stroke="#000000" x1="2.325" y1="78.037" x2="165.045" y2="78.037"/>
<line fill="none" stroke="#000000" x1="2.325" y1="6.31" x2="165.045" y2="6.31"/>
<polygon points="2.325,80.791 15.461,94.829 2.325,109.315 165.045,109.315 151.631,95.143 164.045,80.791 "/>
<g>
	<path fill="#FFFFFF" d="M66.254,103.015c0.075-0.275,0.5-1.7,0.775-2.5c-1.825-0.55-3.225-1.725-3.225-3.049
		c0-0.85,0.525-1.55,1.375-1.55c0.75,0,1.274,0.6,1.274,1.274c0,0.4-0.175,0.726-0.425,0.95c0.25,0.35,0.875,0.649,1.625,0.85
		l1.25-3.974c-1.6-0.7-3.25-1.55-3.25-3.549c0-1.875,1.925-3.6,4.924-3.6c0.15,0,0.3,0,0.45,0.025l0.55-1.7l1.524,0.425l-0.5,1.55
		c1.625,0.475,2.774,1.55,2.774,2.749c0,0.95-0.575,1.525-1.375,1.525c-0.725,0-1.275-0.55-1.275-1.25c0-0.35,0.125-0.675,0.4-0.975
		c-0.2-0.2-0.625-0.4-1.149-0.525l-1.2,3.85c1.674,0.774,3.449,1.699,3.449,3.574c0,2.149-1.9,3.724-4.924,3.724
		c-0.25,0-0.475-0.024-0.7-0.05l-0.825,2.649L66.254,103.015z M69.528,92.943l1.05-3.399c-1.725,0-2.649,0.699-2.649,1.699
		C67.928,91.993,68.628,92.493,69.528,92.943z M70.153,95.542l-1.125,3.624h0.1c1.65,0,2.825-0.624,2.825-1.799
		C71.953,96.542,71.178,95.992,70.153,95.542z"/>
	<path fill="#FFFFFF" d="M74.53,99.592c1.175-2.55,3.749-4.05,6.249-5.199c2.174-0.975,3.774-1.8,3.774-3.1
		c0-1.024-1.075-1.699-2.674-1.699c-1.1,0-2,0.325-2.5,0.8c0.25,0.225,0.4,0.55,0.4,0.925c0,0.774-0.6,1.375-1.375,1.375
		c-0.8,0-1.475-0.625-1.475-1.5c0-1.675,2.024-3.475,5.124-3.475c2.899,0,4.774,1.525,4.774,3.449c0,2.325-2.625,3.6-5.149,4.699
		c-2.599,1.149-3.749,1.925-4.574,3.149h6.448l0.5-2.125h1.85l-0.9,3.899H74.78L74.53,99.592z"/>
	<path fill="#FFFFFF" d="M87.629,95.192c0-3.774,2.85-7.474,6.848-7.474c3.499,0,5.549,2.625,5.549,5.799
		c0,3.774-2.85,7.474-6.849,7.474C89.653,100.991,87.629,98.391,87.629,95.192z M97.751,93.543c0-2.274-1.375-3.949-3.324-3.949
		c-2.624,0-4.549,2.649-4.549,5.573c0,2.3,1.375,3.975,3.349,3.975C95.852,99.141,97.751,96.467,97.751,93.543z"/>
</g>
<polyline fill="none" stroke="#FFFFFF" points="1.572,80.298 15.046,94.856 1.772,110.03 "/>
<polyline fill="none" stroke="#FFFFFF" points="4.529,80.206 18.003,94.764 4.729,109.938 "/>
<polyline fill="none" stroke="#FFFFFF" points="7.411,80.156 20.885,94.714 7.611,109.888 "/>
<polyline fill="none" stroke="#FFFFFF" points="10.219,80.227 23.693,94.785 10.419,109.959 "/>
<polyline fill="none" stroke="#FFFFFF" points="13.176,80.136 26.65,94.694 13.376,109.868 "/>
<polyline fill="none" stroke="#FFFFFF" points="16.058,80.085 29.532,94.643 16.258,109.817 "/>
<polyline fill="none" stroke="#FFFFFF" points="165.998,109.645 152.524,95.087 165.798,79.913 "/>
<polyline fill="none" stroke="#FFFFFF" points="163.04,109.736 149.566,95.178 162.84,80.004 "/>
<polyline fill="none" stroke="#FFFFFF" points="160.159,109.787 146.685,95.229 159.959,80.055 "/>
<polyline fill="none" stroke="#FFFFFF" points="157.351,109.716 143.877,95.158 157.151,79.984 "/>
<polyline fill="none" stroke="#FFFFFF" points="154.393,109.807 140.919,95.249 154.193,80.075 "/>
<polyline fill="none" stroke="#FFFFFF" points="151.512,109.857 138.038,95.299 151.312,80.125 "/>
<line fill="none" stroke="#000000" stroke-linecap="round" stroke-linejoin="round" stroke-dasharray="0,2.938" x1="5.763" y1="19.668" x2="39.555" y2="19.668"/>
<path fill="none" stroke="#000000" stroke-linecap="round" stroke-linejoin="round" d="M41.025,19.668L41.025,19.668 M2.825,19.668
	L2.825,19.668"/>
</svg>
