<?xml version="1.0" encoding="utf-8"?>
<!-- Generator: Adobe Illustrator 16.0.0, SVG Export Plug-In . SVG Version: 6.00 Build 0)  -->
<!DOCTYPE svg PUBLIC "-//W3C//DTD SVG 1.1//EN" "http://www.w3.org/Graphics/SVG/1.1/DTD/svg11.dtd">
<svg version="1.1" id="Layer_1" xmlns="http://www.w3.org/2000/svg" xmlns:xlink="http://www.w3.org/1999/xlink" x="0px" y="0px"
	 width="71px" height="16.458px" viewBox="0 0 71 16.458" enable-background="new 0 0 71 16.458" xml:space="preserve">
<g>
	<g enable-background="new    ">
		<path fill="#010101" d="M1.86,8.441V8.405c0-3.635,2.852-6.486,6.719-6.486c2.192,0,3.743,0.677,5.062,1.817l-2.032,2.441
			c-0.891-0.748-1.782-1.176-3.012-1.176c-1.8,0-3.19,1.515-3.19,3.422v0.035c0,2.015,1.408,3.458,3.386,3.458
			c0.837,0,1.479-0.179,1.996-0.518V9.884H8.33v-2.53h5.739v5.613c-1.319,1.088-3.155,1.926-5.418,1.926
			C4.765,14.893,1.86,12.219,1.86,8.441z"/>
		<path fill="#010101" d="M15.527,8.441V8.405c0-3.582,2.888-6.486,6.737-6.486s6.701,2.869,6.701,6.451v0.035
			c0,3.583-2.888,6.488-6.737,6.488S15.527,12.023,15.527,8.441z M25.436,8.441V8.405c0-1.8-1.301-3.368-3.208-3.368
			c-1.889,0-3.154,1.533-3.154,3.333v0.035c0,1.801,1.301,3.369,3.19,3.369C24.171,11.774,25.436,10.241,25.436,8.441z"/>
		<path fill="#010101" d="M30.298,8.441V8.405c0-3.582,2.888-6.486,6.737-6.486c3.85,0,6.701,2.869,6.701,6.451v0.035
			c0,3.583-2.887,6.488-6.736,6.488C33.15,14.893,30.298,12.023,30.298,8.441z M40.207,8.441V8.405c0-1.8-1.301-3.368-3.207-3.368
			c-1.889,0-3.155,1.533-3.155,3.333v0.035c0,1.801,1.301,3.369,3.19,3.369C38.942,11.774,40.207,10.241,40.207,8.441z"/>
		<path fill="#010101" d="M45.498,2.167h4.812c4.455,0,7.039,2.566,7.039,6.167V8.37c0,3.6-2.619,6.273-7.111,6.273h-4.74V2.167z
			 M50.363,11.578c2.068,0,3.439-1.141,3.439-3.154V8.387c0-1.996-1.371-3.154-3.439-3.154h-1.408v6.345H50.363z"/>
		<path fill="#010101" d="M57.971,12.79l1.925-2.299c1.229,0.98,2.603,1.497,4.046,1.497c0.926,0,1.426-0.321,1.426-0.855v-0.036
			c0-0.517-0.41-0.802-2.104-1.193c-2.655-0.606-4.705-1.355-4.705-3.922V5.946c0-2.316,1.836-3.992,4.83-3.992
			c2.121,0,3.778,0.57,5.133,1.657l-1.729,2.442c-1.141-0.803-2.389-1.23-3.494-1.23c-0.837,0-1.246,0.356-1.246,0.803v0.035
			c0,0.57,0.428,0.82,2.156,1.212c2.869,0.624,4.65,1.551,4.65,3.886v0.035c0,2.549-2.014,4.063-5.043,4.063
			C61.606,14.857,59.504,14.162,57.971,12.79z"/>
	</g>
</g>
</svg>
