<?xml version="1.0" encoding="utf-8"?>
<!-- Generator: Adobe Illustrator 17.0.0, SVG Export Plug-In . SVG Version: 6.00 Build 0)  -->
<!DOCTYPE svg PUBLIC "-//W3C//DTD SVG 1.1//EN" "http://www.w3.org/Graphics/SVG/1.1/DTD/svg11.dtd">
<svg version="1.1" id="Layer_1" xmlns="http://www.w3.org/2000/svg" xmlns:xlink="http://www.w3.org/1999/xlink" x="0px" y="0px"
	 width="60.286px" height="10.253px" viewBox="238.463 13.267 60.286 10.253" enable-background="new 238.463 13.267 60.286 10.253"
	 xml:space="preserve">
<rect x="-65.436" y="-307.28" fill="none" width="470" height="126"/>
<text transform="matrix(1 0 0 1 -61.3159 -299.2288)" font-family="'ArialMT'" font-size="11">Italy Before the Tomatoes   |   The Allegory of Spring   |   An Al Fresco Affair   |   Northern Exposure   </text>
<text transform="matrix(1 0 0 1 -5.3759 -286.0287)" font-family="'ArialMT'" font-size="11">|    Curious Giorgio   |   Weird Science   |   Bacchanalia   |   Back to the Earth</text>
<g>
	<path d="M0.283,7.228h0.902L2.45,1.771H1.471L1.68,0.88h2.882L4.364,1.771H3.451L2.186,7.228h0.979L2.956,8.119H0.074L0.283,7.228z
		"/>
	<path d="M6.366,4.191L5.761,6.623C5.717,6.788,5.695,6.942,5.695,7.041c0,0.264,0.154,0.407,0.374,0.407
		c0.253,0,0.484-0.11,0.946-0.418l0.341,0.462C6.74,8.031,6.223,8.196,5.761,8.196c-0.583,0-1.045-0.33-1.045-1.001
		c0-0.165,0.033-0.352,0.077-0.572l0.605-2.432H4.54l0.187-0.814h0.869l0.275-1.078l1.056-0.363L6.564,3.377h1.452L7.807,4.191
		H6.366z"/>
	<path d="M8.28,6.315c0-1.617,1.122-3.025,2.497-3.025c0.715,0,1.254,0.517,1.419,1.122l0.308-1.056h0.902L12.57,6.733
		c-0.055,0.198-0.088,0.374-0.088,0.484c0,0.209,0.099,0.33,0.286,0.33c0.176,0,0.396-0.165,0.616-0.77l0.429,0.154
		c-0.286,0.946-0.781,1.265-1.309,1.265c-0.561,0-0.913-0.385-0.913-0.957V7.184c-0.407,0.561-0.979,1.023-1.694,1.023
		C8.951,8.207,8.28,7.47,8.28,6.315z M11.976,5.303c0-0.704-0.352-1.166-1.078-1.166c-0.924,0-1.617,1.001-1.617,2.068
		c0,0.693,0.341,1.177,1.001,1.177C11.25,7.382,11.976,6.337,11.976,5.303z"/>
	<path d="M14.638,7.228c0-0.143,0.033-0.319,0.066-0.495l1.364-5.853h-0.891l0.209-0.814h1.826l-1.54,6.656
		c-0.044,0.187-0.077,0.363-0.077,0.473c0,0.231,0.099,0.352,0.286,0.352c0.22,0,0.418-0.165,0.649-0.77l0.418,0.154
		c-0.286,0.946-0.749,1.265-1.32,1.265C14.979,8.196,14.638,7.811,14.638,7.228z"/>
	<path d="M16.353,9.626c0-0.352,0.264-0.616,0.594-0.616c0.275,0,0.506,0.187,0.572,0.473c0.264-0.011,0.737-0.396,1.694-1.551
		l-0.77-3.741h-0.836l0.209-0.814h1.452l0.638,3.785c0.748-0.99,1.419-1.915,1.595-2.597C21.26,4.478,21.04,4.258,21.04,3.928
		c0-0.341,0.275-0.638,0.649-0.638c0.451,0,0.737,0.33,0.737,0.858c0,0.638-0.429,1.617-2.189,3.796
		c-1.672,2.057-2.343,2.376-3.059,2.376C16.695,10.319,16.353,10,16.353,9.626z"/>
	<path d="M25.176,7.228h0.825l1.265-5.457h-0.935l0.198-0.891h2.475c0.66,0,1.177,0.088,1.573,0.297
		c0.55,0.286,0.891,0.814,0.891,1.441c0,0.979-0.792,1.672-1.771,1.815c0.737,0.209,1.298,0.803,1.298,1.529
		c0,0.605-0.231,1.1-0.649,1.463c-0.341,0.297-0.825,0.506-1.397,0.605c-0.308,0.066-0.66,0.088-1.023,0.088h-2.959L25.176,7.228z
		 M28.069,7.25c0.275,0,0.528-0.033,0.737-0.077c0.363-0.077,0.627-0.209,0.825-0.407c0.22-0.22,0.33-0.506,0.33-0.858
		c0-0.649-0.605-1.089-1.628-1.089h-0.77L26.991,7.25H28.069z M28.443,4.016c1.232,0,1.992-0.462,1.992-1.287
		c0-0.341-0.176-0.66-0.54-0.814c-0.242-0.099-0.572-0.165-1.023-0.165h-0.605l-0.528,2.267L28.443,4.016L28.443,4.016z"/>
	<path d="M32.887,6.051v0.165c0,0.715,0.572,1.188,1.43,1.188c0.506,0,0.968-0.11,1.562-0.429l-0.187,0.902
		c-0.495,0.242-0.902,0.33-1.573,0.33c-1.133,0-2.178-0.715-2.178-2.013c0-1.606,1.188-2.904,2.596-2.904
		c1.155,0,1.914,0.66,1.914,1.771c0,0.297-0.055,0.627-0.176,0.99C36.275,6.051,32.887,6.051,32.887,6.051z M33.019,5.358h2.464
		c0.044-0.132,0.066-0.275,0.066-0.407c0-0.495-0.33-0.858-1.012-0.858S33.272,4.61,33.019,5.358z"/>
	<path d="M38.222,4.191h-0.825l0.198-0.814h0.814l0.308-1.309c0.165-0.726,0.418-1.188,0.759-1.529C39.839,0.176,40.334,0,40.829,0
		c0.627,0,0.946,0.341,0.946,0.715c0,0.375-0.297,0.616-0.616,0.616s-0.572-0.209-0.605-0.506c-0.154,0.033-0.297,0.121-0.396,0.22
		c-0.22,0.22-0.385,0.583-0.517,1.123l-0.275,1.21h1.243L40.4,4.191h-1.221l-0.902,3.928H37.32L38.222,4.191z"/>
	<path d="M40.554,6.106c0-1.452,1.133-2.816,2.685-2.816c1.364,0,2.134,0.979,2.134,2.112c0,1.441-1.133,2.805-2.685,2.805
		C41.324,8.207,40.554,7.228,40.554,6.106z M44.404,5.391c0-0.814-0.528-1.287-1.21-1.287c-0.924,0-1.672,0.891-1.672,2.002
		c0,0.825,0.528,1.298,1.21,1.298C43.656,7.404,44.404,6.502,44.404,5.391z"/>
	<path d="M47.231,4.191h-0.88l0.209-0.814h1.694l-0.308,1.331c0.583-0.935,1.133-1.408,1.65-1.408c0.385,0,0.704,0.275,0.704,0.66
		c0,0.374-0.308,0.671-0.66,0.671c-0.33,0-0.583-0.22-0.638-0.484c-0.341,0.154-1.012,0.825-1.265,1.848l-0.528,2.124h-0.968
		L47.231,4.191z"/>
	<path d="M51.334,6.051v0.165c0,0.715,0.572,1.188,1.43,1.188c0.506,0,0.968-0.11,1.562-0.429l-0.187,0.902
		c-0.495,0.242-0.902,0.33-1.573,0.33c-1.133,0-2.178-0.715-2.178-2.013c0-1.606,1.188-2.904,2.596-2.904
		c1.155,0,1.914,0.66,1.914,1.771c0,0.297-0.055,0.627-0.176,0.99C54.722,6.051,51.334,6.051,51.334,6.051z M51.466,5.358h2.464
		c0.044-0.132,0.066-0.275,0.066-0.407c0-0.495-0.33-0.858-1.012-0.858S51.719,4.61,51.466,5.358z"/>
	<path d="M59.958,4.191l-0.605,2.432c-0.044,0.165-0.066,0.319-0.066,0.418c0,0.264,0.154,0.407,0.374,0.407
		c0.253,0,0.484-0.11,0.946-0.418l0.341,0.462c-0.616,0.539-1.133,0.704-1.595,0.704c-0.583,0-1.045-0.33-1.045-1.001
		c0-0.165,0.033-0.352,0.077-0.572l0.605-2.432h-0.858l0.187-0.814h0.869l0.275-1.078l1.056-0.363l-0.363,1.441h1.452l-0.209,0.814
		H59.958z"/>
	<path d="M63.368,0.88h-0.891l0.209-0.814h1.815l-0.99,4.236C63.852,3.773,64.413,3.3,65.04,3.3c0.726,0,1.309,0.495,1.309,1.342
		c0,0.231-0.033,0.495-0.121,0.77L65.843,6.82c-0.033,0.143-0.055,0.286-0.055,0.374c0,0.22,0.11,0.352,0.286,0.352
		c0.198,0,0.396-0.165,0.616-0.77l0.429,0.154c-0.253,0.858-0.693,1.265-1.287,1.265c-0.649,0-1.012-0.396-1.012-0.946
		c0-0.154,0.033-0.352,0.077-0.528l0.396-1.441c0.055-0.187,0.066-0.33,0.066-0.484c0-0.418-0.297-0.693-0.726-0.693
		c-0.583,0-1.155,0.484-1.375,1.463l-0.594,2.552h-0.968L63.368,0.88z"/>
	<path d="M68.68,6.051v0.165c0,0.715,0.572,1.188,1.43,1.188c0.506,0,0.968-0.11,1.562-0.429l-0.187,0.902
		c-0.495,0.242-0.902,0.33-1.573,0.33c-1.133,0-2.178-0.715-2.178-2.013c0-1.606,1.188-2.904,2.596-2.904
		c1.155,0,1.914,0.66,1.914,1.771c0,0.297-0.055,0.627-0.176,0.99C72.068,6.051,68.68,6.051,68.68,6.051z M68.813,5.358h2.464
		c0.044-0.132,0.066-0.275,0.066-0.407c0-0.495-0.33-0.858-1.012-0.858S69.066,4.61,68.813,5.358z"/>
	<path d="M76.622,7.228h0.891l1.276-5.479h-1.606L76.93,2.894h-0.957l0.462-2.014h6.095l-0.462,2.014h-0.946l0.253-1.145H79.78
		l-1.265,5.479h1.001l-0.198,0.891h-2.904L76.622,7.228z"/>
	<path d="M81.55,6.106c0-1.452,1.133-2.816,2.685-2.816c1.364,0,2.134,0.979,2.134,2.112c0,1.441-1.133,2.805-2.685,2.805
		C82.32,8.207,81.55,7.228,81.55,6.106z M85.401,5.391c0-0.814-0.528-1.287-1.21-1.287c-0.924,0-1.672,0.891-1.672,2.002
		c0,0.825,0.528,1.298,1.21,1.298C84.653,7.404,85.401,6.502,85.401,5.391z"/>
	<path d="M88.117,4.191h-0.88l0.209-0.814h1.694l-0.264,1.111C89.261,3.828,89.833,3.3,90.46,3.3c0.693,0,1.144,0.462,1.199,1.177
		c0.43-0.726,1.035-1.177,1.607-1.177c0.693,0,1.232,0.495,1.232,1.342c0,0.231-0.044,0.495-0.121,0.77L93.97,6.81
		c-0.033,0.143-0.066,0.297-0.066,0.385c0,0.22,0.11,0.352,0.297,0.352s0.396-0.165,0.616-0.77l0.429,0.154
		c-0.253,0.858-0.704,1.265-1.287,1.265c-0.649,0-1.012-0.396-1.012-0.946c0-0.154,0.033-0.363,0.077-0.539l0.396-1.386
		c0.066-0.198,0.088-0.374,0.088-0.528c0-0.429-0.286-0.693-0.649-0.693c-0.55,0-1.079,0.506-1.332,1.507l-0.638,2.508h-0.968
		l0.715-2.783c0.044-0.209,0.077-0.407,0.077-0.562c0-0.385-0.264-0.671-0.649-0.671c-0.55,0-1.101,0.517-1.342,1.496l-0.627,2.52
		h-0.968L88.117,4.191z"/>
	<path d="M95.905,6.315c0-1.617,1.122-3.025,2.497-3.025c0.715,0,1.254,0.517,1.419,1.122l0.308-1.056h0.902l-0.836,3.377
		c-0.055,0.198-0.088,0.374-0.088,0.484c0,0.209,0.099,0.33,0.286,0.33c0.176,0,0.396-0.165,0.616-0.77l0.429,0.154
		c-0.286,0.946-0.781,1.265-1.309,1.265c-0.561,0-0.913-0.385-0.913-0.957V7.184c-0.407,0.561-0.979,1.023-1.694,1.023
		C96.576,8.207,95.905,7.47,95.905,6.315z M99.601,5.303c0-0.704-0.352-1.166-1.078-1.166c-0.924,0-1.617,1.001-1.617,2.068
		c0,0.693,0.341,1.177,1.001,1.177C98.875,7.382,99.601,6.337,99.601,5.303z"/>
	<path d="M104.111,4.191l-0.605,2.432c-0.044,0.165-0.066,0.319-0.066,0.418c0,0.264,0.154,0.407,0.374,0.407
		c0.253,0,0.484-0.11,0.946-0.418l0.341,0.462c-0.616,0.539-1.133,0.704-1.595,0.704c-0.583,0-1.045-0.33-1.045-1.001
		c0-0.165,0.033-0.352,0.077-0.572l0.605-2.432h-0.858l0.187-0.814h0.869l0.275-1.078l1.056-0.363l-0.363,1.441h1.452l-0.209,0.814
		H104.111z"/>
	<path d="M106.014,6.106c0-1.452,1.133-2.816,2.685-2.816c1.364,0,2.134,0.979,2.134,2.112c0,1.441-1.133,2.805-2.685,2.805
		C106.784,8.207,106.014,7.228,106.014,6.106z M109.864,5.391c0-0.814-0.528-1.287-1.21-1.287c-0.924,0-1.672,0.891-1.672,2.002
		c0,0.825,0.528,1.298,1.21,1.298C109.116,7.404,109.864,6.502,109.864,5.391z"/>
	<path d="M112.603,6.051v0.165c0,0.715,0.572,1.188,1.43,1.188c0.506,0,0.968-0.11,1.562-0.429l-0.187,0.902
		c-0.495,0.242-0.902,0.33-1.573,0.33c-1.133,0-2.178-0.715-2.178-2.013c0-1.606,1.188-2.904,2.596-2.904
		c1.155,0,1.914,0.66,1.914,1.771c0,0.297-0.055,0.627-0.176,0.99C115.991,6.051,112.603,6.051,112.603,6.051z M112.735,5.358h2.464
		c0.044-0.132,0.066-0.275,0.066-0.407c0-0.495-0.33-0.858-1.012-0.858S112.988,4.61,112.735,5.358z"/>
	<path d="M117.079,7.602c-0.187-0.187-0.297-0.396-0.297-0.627c0-0.352,0.242-0.616,0.561-0.616c0.308,0,0.528,0.242,0.528,0.528
		c0,0.11-0.044,0.231-0.11,0.308c0.044,0.044,0.099,0.077,0.176,0.121c0.22,0.11,0.539,0.187,0.88,0.187
		c0.495,0,0.914-0.198,0.914-0.583c0-0.396-0.473-0.594-1.001-0.825c-0.66-0.297-1.298-0.627-1.298-1.386s0.649-1.419,1.826-1.419
		c0.649,0,1.199,0.209,1.507,0.528c0.176,0.176,0.275,0.396,0.275,0.616c0,0.363-0.253,0.605-0.55,0.605
		c-0.297,0-0.539-0.242-0.539-0.528c0-0.099,0.022-0.176,0.099-0.308c-0.033-0.022-0.077-0.055-0.165-0.088
		c-0.165-0.066-0.396-0.11-0.638-0.11c-0.484,0-0.869,0.198-0.869,0.539c0,0.363,0.473,0.572,1.023,0.825
		c0.649,0.297,1.276,0.649,1.276,1.386c0,0.935-0.759,1.452-1.881,1.452C118.07,8.207,117.432,7.965,117.079,7.602z"/>
	<path d="M129.279,0.066h0.836v10.253h-0.836V0.066z"/>
	<path d="M139.784,7.228h0.891l1.276-5.479h-1.606l-0.253,1.145h-0.957l0.462-2.014h6.095l-0.462,2.014h-0.946l0.253-1.145h-1.595
		l-1.265,5.479h1.001l-0.198,0.891h-2.905L139.784,7.228z"/>
	<path d="M146.835,0.88h-0.891l0.209-0.814h1.815l-0.99,4.236c0.341-0.528,0.902-1.001,1.529-1.001c0.726,0,1.309,0.495,1.309,1.342
		c0,0.231-0.033,0.495-0.121,0.77l-0.385,1.408c-0.033,0.143-0.055,0.286-0.055,0.374c0,0.22,0.11,0.352,0.286,0.352
		c0.198,0,0.396-0.165,0.616-0.77l0.429,0.154c-0.253,0.858-0.693,1.265-1.287,1.265c-0.649,0-1.012-0.396-1.012-0.946
		c0-0.154,0.033-0.352,0.077-0.528l0.396-1.441c0.055-0.187,0.066-0.33,0.066-0.484c0-0.418-0.297-0.693-0.726-0.693
		c-0.583,0-1.155,0.484-1.375,1.463l-0.594,2.552h-0.968L146.835,0.88z"/>
	<path d="M152.148,6.051v0.165c0,0.715,0.572,1.188,1.43,1.188c0.506,0,0.968-0.11,1.562-0.429l-0.187,0.902
		c-0.495,0.242-0.902,0.33-1.573,0.33c-1.133,0-2.178-0.715-2.178-2.013c0-1.606,1.188-2.904,2.596-2.904
		c1.155,0,1.914,0.66,1.914,1.771c0,0.297-0.055,0.627-0.176,0.99C155.536,6.051,152.148,6.051,152.148,6.051z M152.28,5.358h2.464
		c0.044-0.132,0.066-0.275,0.066-0.407c0-0.495-0.33-0.858-1.012-0.858S152.533,4.61,152.28,5.358z"/>
	<path d="M158.297,7.228h0.66l3.234-5.468h-0.858l0.198-0.88h3.642l-0.209,0.88h-0.814l0.704,5.468h0.759l-0.209,0.891h-2.508
		l0.198-0.88h0.814L163.72,5.71h-2.883l-0.891,1.529h0.958l-0.209,0.88h-2.607L158.297,7.228z M163.61,4.863l-0.396-3.18
		l-1.881,3.18H163.61z"/>
	<path d="M166.58,7.228c0-0.143,0.033-0.319,0.066-0.495l1.364-5.853h-0.891l0.209-0.814h1.826l-1.54,6.656
		c-0.044,0.187-0.077,0.363-0.077,0.473c0,0.231,0.099,0.352,0.286,0.352c0.22,0,0.418-0.165,0.649-0.77l0.418,0.154
		c-0.286,0.946-0.749,1.265-1.32,1.265C166.921,8.196,166.58,7.811,166.58,7.228z"/>
	<path d="M169.78,7.228c0-0.143,0.033-0.319,0.066-0.495l1.364-5.853h-0.891l0.209-0.814h1.826l-1.54,6.656
		c-0.044,0.187-0.077,0.363-0.077,0.473c0,0.231,0.099,0.352,0.286,0.352c0.22,0,0.418-0.165,0.649-0.77l0.418,0.154
		c-0.286,0.946-0.749,1.265-1.32,1.265C170.121,8.196,169.78,7.811,169.78,7.228z"/>
	<path d="M173.729,6.051v0.165c0,0.715,0.572,1.188,1.43,1.188c0.506,0,0.968-0.11,1.562-0.429l-0.187,0.902
		c-0.495,0.242-0.902,0.33-1.573,0.33c-1.133,0-2.178-0.715-2.178-2.013c0-1.606,1.188-2.904,2.596-2.904
		c1.155,0,1.914,0.66,1.914,1.771c0,0.297-0.055,0.627-0.176,0.99C177.117,6.051,173.729,6.051,173.729,6.051z M173.862,5.358h2.464
		c0.044-0.132,0.066-0.275,0.066-0.407c0-0.495-0.33-0.858-1.012-0.858S174.114,4.61,173.862,5.358z"/>
	<path d="M178.052,9.77c-0.209-0.209-0.275-0.385-0.275-0.616c0-0.385,0.264-0.649,0.605-0.649s0.583,0.275,0.583,0.594
		c0,0.099-0.022,0.209-0.066,0.286c0.143,0.088,0.429,0.176,0.792,0.176c0.451,0,0.77-0.121,1.045-0.396
		c0.253-0.242,0.407-0.627,0.528-1.144l0.209-0.891c-0.407,0.572-0.979,0.935-1.628,0.935c-1.067,0-1.728-0.759-1.728-1.903
		c0-1.54,1.067-2.871,2.508-2.871c0.814,0,1.298,0.55,1.463,1.078l0.297-1.012h0.891l-1.133,4.885
		C182,8.88,181.802,9.353,181.45,9.716c-0.418,0.407-0.968,0.605-1.738,0.605C179.053,10.319,178.338,10.056,178.052,9.77z
		 M181.891,5.27c0-0.704-0.462-1.133-1.144-1.133c-0.924,0-1.628,0.88-1.628,1.958c0,0.704,0.462,1.145,1.122,1.145
		C181.187,7.239,181.891,6.293,181.891,5.27z"/>
	<path d="M183.893,6.106c0-1.452,1.133-2.816,2.685-2.816c1.364,0,2.134,0.979,2.134,2.112c0,1.441-1.133,2.805-2.685,2.805
		C184.663,8.207,183.893,7.228,183.893,6.106z M187.743,5.391c0-0.814-0.528-1.287-1.21-1.287c-0.924,0-1.672,0.891-1.672,2.002
		c0,0.825,0.528,1.298,1.21,1.298C186.995,7.404,187.743,6.502,187.743,5.391z"/>
	<path d="M190.57,4.191h-0.88l0.209-0.814h1.694l-0.308,1.331c0.583-0.935,1.133-1.408,1.65-1.408c0.385,0,0.704,0.275,0.704,0.66
		c0,0.374-0.308,0.671-0.66,0.671c-0.33,0-0.583-0.22-0.638-0.484c-0.341,0.154-1.012,0.825-1.265,1.848l-0.528,2.124h-0.968
		L190.57,4.191z"/>
	<path d="M192.593,9.626c0-0.352,0.264-0.616,0.594-0.616c0.275,0,0.506,0.187,0.572,0.473c0.264-0.011,0.737-0.396,1.694-1.551
		l-0.77-3.741h-0.836l0.209-0.814h1.452l0.638,3.785c0.748-0.99,1.419-1.915,1.595-2.597c-0.242-0.088-0.462-0.308-0.462-0.638
		c0-0.341,0.275-0.638,0.649-0.638c0.451,0,0.737,0.33,0.737,0.858c0,0.638-0.429,1.617-2.189,3.796
		c-1.672,2.057-2.343,2.376-3.059,2.376C192.934,10.319,192.593,10,192.593,9.626z"/>
	<path d="M201.635,6.106c0-1.452,1.133-2.816,2.685-2.816c1.364,0,2.134,0.979,2.134,2.112c0,1.441-1.133,2.805-2.684,2.805
		C202.405,8.207,201.635,7.228,201.635,6.106z M205.486,5.391c0-0.814-0.528-1.287-1.21-1.287c-0.924,0-1.672,0.891-1.672,2.002
		c0,0.825,0.528,1.298,1.21,1.298C204.738,7.404,205.486,6.502,205.486,5.391z"/>
	<path d="M208.158,4.191h-0.824l0.197-0.814h0.814l0.308-1.309c0.165-0.726,0.419-1.188,0.76-1.529
		C209.777,0.176,210.271,0,210.766,0c0.628,0,0.946,0.341,0.946,0.715c0,0.375-0.297,0.616-0.616,0.616
		c-0.318,0-0.571-0.209-0.604-0.506c-0.154,0.033-0.297,0.121-0.396,0.22c-0.22,0.22-0.385,0.583-0.517,1.123l-0.275,1.21h1.243
		l-0.209,0.814h-1.221l-0.902,3.928h-0.957L208.158,4.191z"/>
	<path d="M213.01,6.535c0-0.506,0.318-0.847,0.736-0.847c0.363,0,0.639,0.297,0.639,0.627c0,0.209-0.088,0.418-0.275,0.55
		c0.231,0.286,0.771,0.517,1.519,0.517c0.803,0,1.441-0.418,1.441-1.111c0-0.572-0.463-0.924-1.232-1.354
		c-0.88-0.506-1.717-1.089-1.717-2.178c0-1.045,0.946-1.991,2.454-1.991c1.353,0,2.299,0.792,2.299,1.529
		c0,0.495-0.297,0.847-0.715,0.847c-0.363,0-0.639-0.286-0.639-0.638c0-0.165,0.066-0.352,0.242-0.506
		c-0.143-0.176-0.572-0.363-1.188-0.363c-0.869,0-1.408,0.473-1.408,1.034c0,0.627,0.527,0.99,1.32,1.441
		c0.847,0.473,1.639,1.067,1.639,2.09c0,1.167-1.001,2.068-2.553,2.068C214.12,8.251,213.01,7.393,213.01,6.535z"/>
	<path d="M218.168,9.483h0.704l1.243-5.292h-0.892l0.21-0.814h1.716l-0.242,1.034c0.396-0.594,0.979-1.122,1.728-1.122
		c1.067,0,1.716,0.77,1.716,1.914c0,1.65-1.144,3.003-2.53,3.003c-0.715,0-1.221-0.484-1.463-1.045l-0.539,2.321h0.924l-0.209,0.792
		h-2.574L218.168,9.483z M223.35,5.336c0-0.715-0.385-1.221-1.056-1.221c-0.946,0-1.728,1.034-1.728,2.09
		c0,0.693,0.396,1.155,1.133,1.155C222.635,7.36,223.35,6.381,223.35,5.336z"/>
	<path d="M226.232,4.191h-0.88l0.209-0.814h1.693l-0.308,1.331c0.583-0.935,1.133-1.408,1.65-1.408c0.385,0,0.704,0.275,0.704,0.66
		c0,0.374-0.309,0.671-0.66,0.671c-0.33,0-0.583-0.22-0.638-0.484c-0.342,0.154-1.013,0.825-1.266,1.848l-0.528,2.124h-0.968
		L226.232,4.191z"/>
	<path d="M229.916,7.239c0-0.143,0.033-0.353,0.077-0.517l0.66-2.531h-0.891l0.209-0.814h1.858l-0.88,3.355
		c-0.055,0.187-0.077,0.374-0.077,0.484c0,0.209,0.11,0.33,0.286,0.33c0.221,0,0.418-0.165,0.649-0.77l0.429,0.154
		c-0.286,0.946-0.748,1.265-1.331,1.265C230.269,8.196,229.916,7.811,229.916,7.239z M230.841,1.936
		c0-0.352,0.285-0.638,0.638-0.638c0.341,0,0.638,0.286,0.638,0.638s-0.297,0.638-0.638,0.638
		C231.126,2.574,230.841,2.288,230.841,1.936z"/>
	<path d="M236.165,7.25c0-0.154,0.032-0.363,0.076-0.539l0.407-1.43c0.056-0.187,0.077-0.33,0.077-0.484
		c0-0.418-0.286-0.693-0.715-0.693c-0.583,0-1.133,0.495-1.375,1.441l-0.639,2.574h-0.968l0.99-3.928h-0.88l0.209-0.814h1.694
		l-0.254,1.111c0.374-0.66,0.99-1.188,1.64-1.188c0.726,0,1.287,0.495,1.287,1.342c0,0.231-0.044,0.495-0.121,0.77l-0.407,1.397
		c-0.033,0.143-0.065,0.297-0.065,0.385c0,0.22,0.109,0.352,0.297,0.352c0.187,0,0.396-0.165,0.616-0.77l0.429,0.154
		c-0.253,0.858-0.704,1.265-1.287,1.265C236.528,8.196,236.165,7.8,236.165,7.25z"/>
	<path d="M239.069,9.77c-0.209-0.209-0.275-0.385-0.275-0.616c0-0.385,0.265-0.649,0.605-0.649s0.583,0.275,0.583,0.594
		c0,0.099-0.021,0.209-0.066,0.286c0.144,0.088,0.43,0.176,0.793,0.176c0.45,0,0.77-0.121,1.045-0.396
		c0.253-0.242,0.407-0.627,0.528-1.144l0.209-0.891c-0.407,0.572-0.979,0.935-1.629,0.935c-1.066,0-1.727-0.759-1.727-1.903
		c0-1.54,1.066-2.871,2.508-2.871c0.814,0,1.299,0.55,1.464,1.078l0.297-1.012h0.891l-1.133,4.885
		c-0.144,0.638-0.341,1.111-0.693,1.474c-0.418,0.407-0.968,0.605-1.738,0.605C240.07,10.319,239.355,10.056,239.069,9.77z
		 M242.908,5.27c0-0.704-0.462-1.133-1.145-1.133c-0.924,0-1.628,0.88-1.628,1.958c0,0.704,0.462,1.145,1.122,1.145
		C242.204,7.239,242.908,6.293,242.908,5.27z"/>
	<path d="M252.5,0.066h0.836v10.253H252.5V0.066z"/>
	<path d="M261.212,7.228h0.66l3.234-5.468h-0.858l0.198-0.88h3.642l-0.209,0.88h-0.814l0.704,5.468h0.76l-0.21,0.891h-2.508
		l0.198-0.88h0.813l-0.187-1.529h-2.883l-0.891,1.529h0.957l-0.209,0.88h-2.607L261.212,7.228z M266.526,4.863l-0.396-3.18
		l-1.882,3.18H266.526z"/>
	<path d="M272.433,7.25c0-0.154,0.032-0.363,0.076-0.539l0.407-1.43c0.056-0.187,0.077-0.33,0.077-0.484
		c0-0.418-0.286-0.693-0.715-0.693c-0.583,0-1.133,0.495-1.375,1.441l-0.639,2.574h-0.968l0.99-3.928h-0.88l0.209-0.814h1.694
		l-0.254,1.111c0.374-0.66,0.99-1.188,1.64-1.188c0.726,0,1.287,0.495,1.287,1.342c0,0.231-0.044,0.495-0.121,0.77l-0.407,1.397
		c-0.033,0.143-0.065,0.297-0.065,0.385c0,0.22,0.109,0.352,0.297,0.352c0.187,0,0.396-0.165,0.616-0.77l0.429,0.154
		c-0.253,0.858-0.704,1.265-1.287,1.265C272.795,8.196,272.433,7.8,272.433,7.25z"/>
	<path d="M277.162,7.228h0.66l3.234-5.468h-0.858l0.198-0.88h3.642l-0.209,0.88h-0.814l0.704,5.468h0.76l-0.21,0.891h-2.508
		l0.198-0.88h0.813l-0.187-1.529h-2.883l-0.891,1.529h0.957l-0.209,0.88h-2.607L277.162,7.228z M282.476,4.863l-0.396-3.18
		l-1.882,3.18H282.476z"/>
	<path d="M285.445,7.228c0-0.143,0.033-0.319,0.066-0.495l1.364-5.853h-0.892l0.209-0.814h1.826l-1.54,6.656
		c-0.044,0.187-0.077,0.363-0.077,0.473c0,0.231,0.1,0.352,0.286,0.352c0.22,0,0.418-0.165,0.649-0.77l0.418,0.154
		c-0.286,0.946-0.748,1.265-1.32,1.265C285.786,8.196,285.445,7.811,285.445,7.228z"/>
	<path d="M290.594,7.228h0.825l1.265-5.457h-0.935l0.197-0.891h5.237l-0.462,1.903h-0.946l0.242-1.023h-2.333l-0.561,2.376h2.189
		l-0.198,0.869h-2.179l-0.527,2.222h1.045l-0.209,0.891h-2.86L290.594,7.228z"/>
	<path d="M297.525,4.191h-0.88l0.209-0.814h1.693l-0.308,1.331c0.583-0.935,1.133-1.408,1.65-1.408c0.385,0,0.704,0.275,0.704,0.66
		c0,0.374-0.309,0.671-0.66,0.671c-0.33,0-0.583-0.22-0.638-0.484c-0.342,0.154-1.013,0.825-1.266,1.848l-0.528,2.124h-0.968
		L297.525,4.191z"/>
	<path d="M301.627,6.051v0.165c0,0.715,0.571,1.188,1.43,1.188c0.506,0,0.969-0.11,1.562-0.429l-0.188,0.902
		c-0.495,0.242-0.901,0.33-1.573,0.33c-1.133,0-2.178-0.715-2.178-2.013c0-1.606,1.188-2.904,2.597-2.904
		c1.154,0,1.914,0.66,1.914,1.771c0,0.297-0.056,0.627-0.177,0.99C305.014,6.051,301.627,6.051,301.627,6.051z M301.759,5.358h2.464
		c0.044-0.132,0.066-0.275,0.066-0.407c0-0.495-0.33-0.858-1.012-0.858S302.012,4.61,301.759,5.358z"/>
	<path d="M306.104,7.602c-0.188-0.187-0.297-0.396-0.297-0.627c0-0.352,0.241-0.616,0.561-0.616c0.309,0,0.528,0.242,0.528,0.528
		c0,0.11-0.044,0.231-0.11,0.308c0.044,0.044,0.1,0.077,0.176,0.121c0.221,0.11,0.539,0.187,0.881,0.187
		c0.495,0,0.913-0.198,0.913-0.583c0-0.396-0.474-0.594-1.001-0.825c-0.66-0.297-1.299-0.627-1.299-1.386s0.649-1.419,1.826-1.419
		c0.649,0,1.199,0.209,1.508,0.528c0.176,0.176,0.274,0.396,0.274,0.616c0,0.363-0.253,0.605-0.55,0.605s-0.539-0.242-0.539-0.528
		c0-0.099,0.022-0.176,0.099-0.308c-0.032-0.022-0.076-0.055-0.165-0.088c-0.164-0.066-0.396-0.11-0.638-0.11
		c-0.484,0-0.869,0.198-0.869,0.539c0,0.363,0.474,0.572,1.023,0.825c0.648,0.297,1.276,0.649,1.276,1.386
		c0,0.935-0.76,1.452-1.882,1.452C307.094,8.207,306.455,7.965,306.104,7.602z"/>
	<path d="M310.712,6.106c0-1.507,1.254-2.816,2.762-2.816c1.045,0,1.738,0.638,1.738,1.331c0,0.407-0.253,0.748-0.649,0.748
		c-0.297,0-0.561-0.231-0.561-0.583c0-0.143,0.076-0.319,0.197-0.418c-0.153-0.176-0.407-0.264-0.748-0.264
		c-0.857,0-1.771,0.737-1.771,1.947c0,0.825,0.551,1.353,1.354,1.353c0.55,0,1.111-0.22,1.596-0.594l-0.022,0.88
		c-0.462,0.33-1.034,0.517-1.661,0.517C311.692,8.207,310.712,7.426,310.712,6.106z"/>
	<path d="M315.926,6.106c0-1.452,1.133-2.816,2.685-2.816c1.364,0,2.134,0.979,2.134,2.112c0,1.441-1.133,2.805-2.684,2.805
		C316.696,8.207,315.926,7.228,315.926,6.106z M319.777,5.391c0-0.814-0.528-1.287-1.21-1.287c-0.924,0-1.673,0.891-1.673,2.002
		c0,0.825,0.528,1.298,1.211,1.298C319.029,7.404,319.777,6.502,319.777,5.391z"/>
	<path d="M323.362,7.228h0.66l3.234-5.468h-0.858l0.198-0.88h3.642l-0.209,0.88h-0.814l0.704,5.468h0.76l-0.21,0.891h-2.508
		l0.198-0.88h0.813l-0.187-1.529h-2.883l-0.891,1.529h0.957l-0.209,0.88h-2.607L323.362,7.228z M328.676,4.863l-0.396-3.18
		l-1.882,3.18H328.676z"/>
	<path d="M334.441,1.111c-0.088,0.022-0.176,0.077-0.253,0.154c-0.198,0.187-0.363,0.572-0.495,1.133l-0.23,0.979h2.145l0.319-1.364
		c0.154-0.66,0.396-1.166,0.748-1.507C336.993,0.198,337.433,0,337.984,0c0.616,0,0.979,0.319,0.979,0.715
		c0,0.375-0.297,0.616-0.616,0.616c-0.318,0-0.583-0.209-0.604-0.506c-0.154,0.022-0.309,0.11-0.407,0.22
		c-0.209,0.198-0.374,0.55-0.495,1.067l-0.297,1.265h1.254l-0.209,0.814h-1.232l-0.891,3.928h-0.946l0.902-3.928h-2.146
		l-0.891,3.928h-0.946l0.901-3.928h-0.836l0.209-0.814h0.814l0.264-1.144c0.165-0.704,0.396-1.167,0.727-1.496
		c0.33-0.33,0.77-0.517,1.199-0.517c0.55,0,0.88,0.297,0.88,0.693c0,0.341-0.264,0.605-0.583,0.605
		C334.727,1.518,334.507,1.342,334.441,1.111z"/>
	<path d="M337.795,6.315c0-1.617,1.122-3.025,2.498-3.025c0.715,0,1.254,0.517,1.419,1.122l0.308-1.056h0.902l-0.836,3.377
		c-0.055,0.198-0.088,0.374-0.088,0.484c0,0.209,0.099,0.33,0.286,0.33c0.176,0,0.396-0.165,0.616-0.77l0.429,0.154
		c-0.286,0.946-0.781,1.265-1.31,1.265c-0.561,0-0.913-0.385-0.913-0.957V7.184c-0.407,0.561-0.979,1.023-1.694,1.023
		C338.467,8.207,337.795,7.47,337.795,6.315z M341.492,5.303c0-0.704-0.353-1.166-1.078-1.166c-0.925,0-1.617,1.001-1.617,2.068
		c0,0.693,0.341,1.177,1.001,1.177C340.766,7.382,341.492,6.337,341.492,5.303z"/>
	<path d="M344.329,7.239c0-0.143,0.033-0.353,0.077-0.517l0.66-2.531h-0.891l0.209-0.814h1.858l-0.88,3.355
		c-0.055,0.187-0.077,0.374-0.077,0.484c0,0.209,0.11,0.33,0.286,0.33c0.221,0,0.418-0.165,0.649-0.77l0.429,0.154
		c-0.286,0.946-0.748,1.265-1.331,1.265C344.682,8.196,344.329,7.811,344.329,7.239z M345.254,1.936
		c0-0.352,0.285-0.638,0.638-0.638c0.341,0,0.638,0.286,0.638,0.638s-0.297,0.638-0.638,0.638
		C345.539,2.574,345.254,2.288,345.254,1.936z"/>
	<path d="M348.433,4.191h-0.88l0.209-0.814h1.693l-0.308,1.331c0.583-0.935,1.133-1.408,1.65-1.408c0.385,0,0.704,0.275,0.704,0.66
		c0,0.374-0.309,0.671-0.66,0.671c-0.33,0-0.583-0.22-0.638-0.484c-0.342,0.154-1.013,0.825-1.266,1.848l-0.528,2.124h-0.968
		L348.433,4.191z"/>
	<path d="M359.367,0.066h0.836v10.253h-0.836V0.066z"/>
	<path d="M371.237,2.574l-1.078,4.654h0.99l-0.209,0.891h-2.783l0.209-0.891h0.825l1.265-5.457h-0.935l0.197-0.891h1.771
		l2.607,5.127l0.979-4.236h-0.979l0.209-0.891h2.762l-0.198,0.891h-0.814l-1.484,6.37h-0.484L371.237,2.574z"/>
	<path d="M376.769,6.106c0-1.452,1.133-2.816,2.685-2.816c1.364,0,2.134,0.979,2.134,2.112c0,1.441-1.133,2.805-2.684,2.805
		C377.539,8.207,376.769,7.228,376.769,6.106z M380.619,5.391c0-0.814-0.528-1.287-1.21-1.287c-0.924,0-1.673,0.891-1.673,2.002
		c0,0.825,0.528,1.298,1.211,1.298C379.871,7.404,380.619,6.502,380.619,5.391z"/>
	<path d="M383.446,4.191h-0.88l0.209-0.814h1.693l-0.308,1.331c0.583-0.935,1.133-1.408,1.65-1.408c0.385,0,0.704,0.275,0.704,0.66
		c0,0.374-0.309,0.671-0.66,0.671c-0.33,0-0.583-0.22-0.638-0.484c-0.342,0.154-1.013,0.825-1.266,1.848l-0.528,2.124h-0.968
		L383.446,4.191z"/>
	<path d="M388.804,4.191l-0.605,2.432c-0.044,0.165-0.066,0.319-0.066,0.418c0,0.264,0.154,0.407,0.374,0.407
		c0.254,0,0.484-0.11,0.946-0.418l0.342,0.462c-0.616,0.539-1.134,0.704-1.596,0.704c-0.583,0-1.045-0.33-1.045-1.001
		c0-0.165,0.033-0.352,0.077-0.572l0.604-2.432h-0.857l0.187-0.814h0.869l0.275-1.078l1.056-0.363l-0.363,1.441h1.452l-0.209,0.814
		H388.804z"/>
	<path d="M392.213,0.88h-0.891l0.209-0.814h1.815l-0.99,4.236c0.341-0.528,0.902-1.001,1.529-1.001c0.726,0,1.309,0.495,1.309,1.342
		c0,0.231-0.032,0.495-0.12,0.77l-0.386,1.408c-0.033,0.143-0.055,0.286-0.055,0.374c0,0.22,0.11,0.352,0.286,0.352
		c0.198,0,0.396-0.165,0.616-0.77l0.429,0.154c-0.253,0.858-0.693,1.265-1.287,1.265c-0.649,0-1.012-0.396-1.012-0.946
		c0-0.154,0.032-0.352,0.076-0.528l0.396-1.441c0.055-0.187,0.066-0.33,0.066-0.484c0-0.418-0.298-0.693-0.727-0.693
		c-0.583,0-1.155,0.484-1.375,1.463l-0.595,2.552h-0.968L392.213,0.88z"/>
	<path d="M397.527,6.051v0.165c0,0.715,0.571,1.188,1.43,1.188c0.506,0,0.969-0.11,1.562-0.429l-0.188,0.902
		c-0.495,0.242-0.901,0.33-1.573,0.33c-1.133,0-2.178-0.715-2.178-2.013c0-1.606,1.188-2.904,2.597-2.904
		c1.154,0,1.914,0.66,1.914,1.771c0,0.297-0.056,0.627-0.177,0.99C400.914,6.051,397.527,6.051,397.527,6.051z M397.658,5.358h2.464
		c0.044-0.132,0.066-0.275,0.066-0.407c0-0.495-0.33-0.858-1.012-0.858S397.911,4.61,397.658,5.358z"/>
	<path d="M402.916,4.191h-0.88l0.209-0.814h1.694l-0.309,1.331c0.583-0.935,1.133-1.408,1.65-1.408c0.385,0,0.704,0.275,0.704,0.66
		c0,0.374-0.309,0.671-0.66,0.671c-0.33,0-0.583-0.22-0.638-0.484c-0.342,0.154-1.013,0.825-1.266,1.848l-0.528,2.124h-0.968
		L402.916,4.191z"/>
	<path d="M409.473,7.25c0-0.154,0.032-0.363,0.076-0.539l0.407-1.43c0.056-0.187,0.077-0.33,0.077-0.484
		c0-0.418-0.286-0.693-0.715-0.693c-0.583,0-1.133,0.495-1.375,1.441l-0.639,2.574h-0.968l0.99-3.928h-0.88l0.209-0.814h1.693
		l-0.253,1.111c0.374-0.66,0.99-1.188,1.64-1.188c0.727,0,1.287,0.495,1.287,1.342c0,0.231-0.044,0.495-0.121,0.77l-0.407,1.397
		c-0.032,0.143-0.065,0.297-0.065,0.385c0,0.22,0.109,0.352,0.297,0.352c0.187,0,0.396-0.165,0.616-0.77l0.429,0.154
		c-0.253,0.858-0.704,1.265-1.287,1.265C409.835,8.196,409.473,7.8,409.473,7.25z"/>
	<path d="M414.488,7.228h0.825l1.265-5.457h-0.935l0.197-0.891h5.336l-0.462,1.903h-0.946l0.242-1.023h-2.432l-0.527,2.244h2.255
		l-0.198,0.858h-2.244l-0.561,2.376h2.442l0.253-1.023h0.946l-0.44,1.903h-5.226L414.488,7.228z"/>
	<path d="M420.681,7.525c0-0.319,0.264-0.583,0.583-0.583c0.253,0,0.429,0.154,0.517,0.352c0.209-0.044,0.451-0.319,0.781-0.792
		l0.518-0.737l-0.627-1.573h-0.936l0.209-0.814h1.354l0.583,1.639l0.396-0.616c0.462-0.737,0.979-1.111,1.475-1.111
		c0.473,0,0.781,0.308,0.781,0.671c0,0.319-0.265,0.583-0.583,0.583c-0.265,0-0.44-0.143-0.518-0.33
		c-0.165,0.044-0.439,0.319-0.715,0.737l-0.473,0.693l0.527,1.276c0.231,0.55,0.319,0.605,0.44,0.605
		c0.143,0,0.297-0.143,0.495-0.759l0.429,0.132c-0.23,0.957-0.638,1.298-1.122,1.298c-0.462,0-0.759-0.242-1.012-0.891l-0.342-0.913
		l-0.473,0.726c-0.484,0.77-0.968,1.078-1.507,1.078C420.978,8.196,420.681,7.888,420.681,7.525z"/>
	<path d="M425.949,9.483h0.704l1.243-5.292h-0.892l0.21-0.814h1.716l-0.242,1.034c0.396-0.594,0.979-1.122,1.728-1.122
		c1.067,0,1.716,0.77,1.716,1.914c0,1.65-1.144,3.003-2.53,3.003c-0.715,0-1.221-0.484-1.463-1.045L427.6,9.483h0.924l-0.209,0.792
		h-2.574L425.949,9.483z M431.131,5.336c0-0.715-0.385-1.221-1.056-1.221c-0.946,0-1.728,1.034-1.728,2.09
		c0,0.693,0.396,1.155,1.133,1.155C430.416,7.36,431.131,6.381,431.131,5.336z"/>
	<path d="M432.989,6.106c0-1.452,1.133-2.816,2.685-2.816c1.364,0,2.134,0.979,2.134,2.112c0,1.441-1.133,2.805-2.684,2.805
		C433.76,8.207,432.989,7.228,432.989,6.106z M436.84,5.391c0-0.814-0.528-1.287-1.21-1.287c-0.924,0-1.673,0.891-1.673,2.002
		c0,0.825,0.528,1.298,1.211,1.298C436.092,7.404,436.84,6.502,436.84,5.391z"/>
	<path d="M438.644,7.602c-0.188-0.187-0.297-0.396-0.297-0.627c0-0.352,0.241-0.616,0.561-0.616c0.309,0,0.528,0.242,0.528,0.528
		c0,0.11-0.044,0.231-0.11,0.308c0.044,0.044,0.1,0.077,0.176,0.121c0.221,0.11,0.539,0.187,0.881,0.187
		c0.495,0,0.913-0.198,0.913-0.583c0-0.396-0.474-0.594-1.001-0.825c-0.66-0.297-1.299-0.627-1.299-1.386s0.649-1.419,1.826-1.419
		c0.649,0,1.199,0.209,1.508,0.528c0.176,0.176,0.274,0.396,0.274,0.616c0,0.363-0.253,0.605-0.55,0.605s-0.539-0.242-0.539-0.528
		c0-0.099,0.022-0.176,0.099-0.308c-0.032-0.022-0.076-0.055-0.165-0.088c-0.165-0.066-0.396-0.11-0.638-0.11
		c-0.484,0-0.869,0.198-0.869,0.539c0,0.363,0.474,0.572,1.023,0.825c0.648,0.297,1.276,0.649,1.276,1.386
		c0,0.935-0.76,1.452-1.882,1.452C439.634,8.207,438.995,7.965,438.644,7.602z"/>
	<path d="M445.452,3.377l-0.726,2.872c-0.033,0.154-0.066,0.319-0.066,0.473c0,0.418,0.253,0.671,0.66,0.671
		c0.627,0,1.155-0.506,1.397-1.441l0.638-2.574h0.968l-0.847,3.355c-0.044,0.198-0.077,0.374-0.077,0.484
		c0,0.209,0.1,0.33,0.275,0.33c0.187,0,0.396-0.165,0.627-0.77l0.429,0.154c-0.286,0.946-0.792,1.265-1.309,1.265
		c-0.562,0-0.913-0.385-0.913-0.979V7.118c-0.386,0.649-0.969,1.089-1.606,1.089c-0.671,0-1.232-0.484-1.232-1.254
		c0-0.242,0.044-0.517,0.11-0.792l0.506-1.969h-0.88l0.209-0.814h1.837V3.377z"/>
	<path d="M450.446,4.191h-0.88l0.209-0.814h1.693l-0.308,1.331c0.583-0.935,1.133-1.408,1.65-1.408c0.385,0,0.704,0.275,0.704,0.66
		c0,0.374-0.309,0.671-0.66,0.671c-0.33,0-0.583-0.22-0.638-0.484c-0.342,0.154-1.013,0.825-1.266,1.848l-0.528,2.124h-0.968
		L450.446,4.191z"/>
	<path d="M454.55,6.051v0.165c0,0.715,0.571,1.188,1.43,1.188c0.506,0,0.969-0.11,1.562-0.429l-0.188,0.902
		c-0.495,0.242-0.901,0.33-1.573,0.33c-1.133,0-2.178-0.715-2.178-2.013c0-1.606,1.188-2.904,2.597-2.904
		c1.154,0,1.914,0.66,1.914,1.771c0,0.297-0.056,0.627-0.177,0.99C457.937,6.051,454.55,6.051,454.55,6.051z M454.682,5.358h2.464
		c0.044-0.132,0.066-0.275,0.066-0.407c0-0.495-0.33-0.858-1.012-0.858S454.935,4.61,454.682,5.358z"/>
	<path d="M61.998,18.272c0-2.333,1.859-4.324,4.125-4.324c1.606,0,2.596,0.979,2.596,1.815c0,0.483-0.33,0.858-0.737,0.858
		c-0.374,0-0.66-0.287-0.66-0.639c0-0.209,0.121-0.406,0.275-0.518c-0.132-0.274-0.671-0.604-1.507-0.604
		c-1.705,0-3.058,1.595-3.058,3.333c0,1.431,0.847,2.333,2.167,2.333c0.792,0,1.496-0.33,2.146-0.968l0.605,0.604
		c-0.814,0.88-1.76,1.276-2.838,1.276C63.406,21.44,61.998,20.296,61.998,18.272z"/>
	<path d="M71.04,16.577l-0.726,2.872c-0.033,0.153-0.066,0.319-0.066,0.474c0,0.418,0.253,0.67,0.66,0.67
		c0.627,0,1.155-0.506,1.397-1.441l0.638-2.574h0.968l-0.847,3.355c-0.044,0.199-0.077,0.375-0.077,0.484
		c0,0.209,0.099,0.33,0.275,0.33c0.187,0,0.396-0.165,0.627-0.77l0.429,0.154c-0.286,0.945-0.792,1.265-1.31,1.265
		c-0.561,0-0.913-0.386-0.913-0.979v-0.099c-0.385,0.649-0.968,1.089-1.606,1.089c-0.671,0-1.232-0.484-1.232-1.254
		c0-0.242,0.044-0.518,0.11-0.793l0.506-1.969h-0.88l0.209-0.814H71.04z"/>
	<path d="M76.034,17.392h-0.88l0.209-0.814h1.694l-0.308,1.332c0.583-0.936,1.133-1.408,1.65-1.408c0.385,0,0.704,0.275,0.704,0.66
		c0,0.373-0.308,0.671-0.66,0.671c-0.33,0-0.583-0.22-0.638-0.484c-0.341,0.154-1.012,0.825-1.265,1.849l-0.528,2.123h-0.968
		L76.034,17.392z"/>
	<path d="M79.719,20.439c0-0.144,0.033-0.353,0.077-0.517l0.66-2.531h-0.891l0.209-0.814h1.859l-0.88,3.355
		c-0.055,0.188-0.077,0.375-0.077,0.484c0,0.209,0.11,0.33,0.286,0.33c0.22,0,0.418-0.165,0.649-0.77l0.429,0.154
		c-0.286,0.945-0.748,1.265-1.332,1.265C80.071,21.396,79.719,21.011,79.719,20.439z M80.643,15.136
		c0-0.352,0.286-0.637,0.638-0.637c0.341,0,0.638,0.285,0.638,0.637c0,0.353-0.297,0.639-0.638,0.639
		C80.929,15.774,80.643,15.488,80.643,15.136z"/>
	<path d="M82.799,19.306c0-1.451,1.133-2.816,2.685-2.816c1.364,0,2.134,0.979,2.134,2.113c0,1.44-1.133,2.805-2.685,2.805
		C83.569,21.407,82.799,20.429,82.799,19.306z M86.649,18.591c0-0.814-0.528-1.287-1.21-1.287c-0.924,0-1.672,0.891-1.672,2.002
		c0,0.826,0.528,1.299,1.21,1.299C85.901,20.604,86.649,19.702,86.649,18.591z"/>
	<path d="M90.498,16.577l-0.726,2.872c-0.033,0.153-0.066,0.319-0.066,0.474c0,0.418,0.253,0.67,0.66,0.67
		c0.627,0,1.155-0.506,1.397-1.441l0.638-2.574h0.968l-0.847,3.355c-0.044,0.199-0.077,0.375-0.077,0.484
		c0,0.209,0.099,0.33,0.275,0.33c0.187,0,0.396-0.165,0.627-0.77l0.429,0.154c-0.286,0.945-0.792,1.265-1.31,1.265
		c-0.561,0-0.913-0.386-0.913-0.979v-0.099c-0.385,0.649-0.968,1.089-1.606,1.089c-0.671,0-1.232-0.484-1.232-1.254
		c0-0.242,0.044-0.518,0.11-0.793l0.506-1.969h-0.88l0.209-0.814H90.498z"/>
	<path d="M94.579,20.802c-0.188-0.187-0.297-0.396-0.297-0.627c0-0.352,0.242-0.615,0.561-0.615c0.308,0,0.528,0.242,0.528,0.527
		c0,0.11-0.044,0.231-0.11,0.309c0.044,0.044,0.099,0.076,0.176,0.121c0.22,0.109,0.539,0.187,0.88,0.187
		c0.495,0,0.914-0.198,0.914-0.583c0-0.396-0.473-0.594-1.001-0.825c-0.66-0.297-1.298-0.627-1.298-1.386
		c0-0.76,0.649-1.42,1.827-1.42c0.649,0,1.199,0.209,1.507,0.528c0.176,0.177,0.275,0.396,0.275,0.616
		c0,0.363-0.253,0.605-0.55,0.605c-0.297,0-0.539-0.242-0.539-0.528c0-0.099,0.022-0.177,0.099-0.308
		c-0.033-0.022-0.077-0.056-0.165-0.088c-0.165-0.066-0.396-0.111-0.638-0.111c-0.484,0-0.869,0.199-0.869,0.539
		c0,0.363,0.473,0.572,1.023,0.826c0.649,0.297,1.276,0.648,1.276,1.386c0,0.935-0.759,1.452-1.881,1.452
		C95.569,21.407,94.931,21.165,94.579,20.802z"/>
	<path d="M106.823,20.582c-0.649,0.55-1.342,0.858-2.2,0.858c-1.507,0-2.761-1.199-2.761-2.992c0-2.421,1.892-4.5,4.334-4.5
		c1.001,0,1.76,0.318,2.189,0.748c0.286,0.275,0.429,0.572,0.429,0.924c0,0.484-0.352,0.793-0.715,0.793
		c-0.385,0-0.66-0.275-0.66-0.639c0-0.165,0.077-0.318,0.22-0.451l-0.077-0.088c-0.22-0.209-0.737-0.374-1.397-0.374
		c-1.87,0-3.289,1.617-3.289,3.532c0,1.342,0.847,2.134,1.969,2.134c0.825,0,1.518-0.242,2.024-0.628l0.319-1.353h-1.937
		l0.198-0.847h2.938l-0.858,3.619h-0.836L106.823,20.582z"/>
	<path d="M109.682,20.439c0-0.144,0.033-0.353,0.077-0.517l0.66-2.531h-0.891l0.209-0.814h1.859l-0.88,3.355
		c-0.055,0.188-0.077,0.375-0.077,0.484c0,0.209,0.11,0.33,0.286,0.33c0.22,0,0.418-0.165,0.649-0.77l0.429,0.154
		c-0.286,0.945-0.749,1.265-1.332,1.265C110.034,21.396,109.682,21.011,109.682,20.439z M110.606,15.136
		c0-0.352,0.286-0.637,0.638-0.637c0.341,0,0.638,0.285,0.638,0.637c0,0.353-0.297,0.639-0.638,0.639
		C110.892,15.774,110.606,15.488,110.606,15.136z"/>
	<path d="M112.762,19.306c0-1.451,1.133-2.816,2.685-2.816c1.364,0,2.134,0.979,2.134,2.113c0,1.44-1.133,2.805-2.685,2.805
		C113.532,21.407,112.762,20.429,112.762,19.306z M116.613,18.591c0-0.814-0.528-1.287-1.21-1.287c-0.924,0-1.672,0.891-1.672,2.002
		c0,0.826,0.528,1.299,1.21,1.299C115.864,20.604,116.613,19.702,116.613,18.591z"/>
	<path d="M119.44,17.392h-0.88l0.209-0.814h1.694l-0.308,1.332c0.583-0.936,1.133-1.408,1.65-1.408c0.385,0,0.704,0.275,0.704,0.66
		c0,0.373-0.308,0.671-0.66,0.671c-0.33,0-0.583-0.22-0.638-0.484c-0.341,0.154-1.012,0.825-1.265,1.849l-0.528,2.123h-0.968
		L119.44,17.392z"/>
	<path d="M122.563,22.97c-0.209-0.209-0.275-0.385-0.275-0.616c0-0.386,0.264-0.649,0.605-0.649s0.583,0.275,0.583,0.594
		c0,0.1-0.022,0.209-0.066,0.287c0.143,0.088,0.429,0.176,0.792,0.176c0.451,0,0.77-0.121,1.045-0.396
		c0.253-0.242,0.407-0.627,0.528-1.145l0.209-0.891c-0.407,0.572-0.979,0.936-1.628,0.936c-1.067,0-1.728-0.76-1.728-1.904
		c0-1.539,1.067-2.871,2.508-2.871c0.814,0,1.298,0.551,1.463,1.078l0.297-1.012h0.891l-1.133,4.885
		c-0.143,0.639-0.341,1.111-0.693,1.475c-0.418,0.406-0.968,0.604-1.738,0.604C123.564,23.52,122.849,23.256,122.563,22.97z
		 M126.402,18.47c0-0.704-0.462-1.133-1.144-1.133c-0.924,0-1.628,0.88-1.628,1.958c0,0.704,0.462,1.145,1.122,1.145
		C125.698,20.439,126.402,19.493,126.402,18.47z"/>
	<path d="M128.745,20.439c0-0.144,0.033-0.353,0.077-0.517l0.66-2.531h-0.891l0.209-0.814h1.859l-0.88,3.355
		c-0.055,0.188-0.077,0.375-0.077,0.484c0,0.209,0.11,0.33,0.286,0.33c0.22,0,0.418-0.165,0.649-0.77l0.429,0.154
		c-0.286,0.945-0.749,1.265-1.332,1.265C129.097,21.396,128.745,21.011,128.745,20.439z M129.669,15.136
		c0-0.352,0.286-0.637,0.638-0.637c0.341,0,0.638,0.285,0.638,0.637c0,0.353-0.297,0.639-0.638,0.639
		C129.955,15.774,129.669,15.488,129.669,15.136z"/>
	<path d="M131.824,19.306c0-1.451,1.133-2.816,2.685-2.816c1.364,0,2.134,0.979,2.134,2.113c0,1.44-1.133,2.805-2.685,2.805
		C132.594,21.407,131.824,20.429,131.824,19.306z M135.675,18.591c0-0.814-0.528-1.287-1.21-1.287c-0.924,0-1.672,0.891-1.672,2.002
		c0,0.826,0.528,1.299,1.21,1.299C134.927,20.604,135.675,19.702,135.675,18.591z"/>
	<path d="M145.025,13.267h0.836V23.52h-0.836V13.267z"/>
	<path d="M155.761,14.972h-0.781l0.209-0.892h2.662l-0.198,0.892h-0.913l0.22,4.555l2.685-4.654h0.473l0.803,4.676l2.222-4.576
		h-0.88l0.198-0.892h2.673l-0.209,0.892h-0.693l-3.29,6.425h-0.539l-0.869-4.61l-2.784,4.61l-0.528,0.011L155.761,14.972z"/>
	<path d="M165.067,19.251v0.165c0,0.716,0.572,1.188,1.43,1.188c0.506,0,0.968-0.11,1.562-0.43l-0.187,0.902
		c-0.495,0.242-0.902,0.33-1.573,0.33c-1.133,0-2.178-0.715-2.178-2.014c0-1.605,1.188-2.904,2.596-2.904
		c1.155,0,1.914,0.66,1.914,1.771c0,0.297-0.055,0.627-0.176,0.99h-3.388V19.251z M165.199,18.558h2.464
		c0.044-0.132,0.066-0.275,0.066-0.406c0-0.496-0.33-0.858-1.012-0.858S165.452,17.81,165.199,18.558z"/>
	<path d="M169.731,20.439c0-0.144,0.033-0.353,0.077-0.517l0.66-2.531h-0.891l0.209-0.814h1.859l-0.88,3.355
		c-0.055,0.188-0.077,0.375-0.077,0.484c0,0.209,0.11,0.33,0.286,0.33c0.22,0,0.418-0.165,0.649-0.77l0.429,0.154
		c-0.286,0.945-0.748,1.265-1.332,1.265C170.083,21.396,169.731,21.011,169.731,20.439z M170.654,15.136
		c0-0.352,0.286-0.637,0.638-0.637c0.341,0,0.638,0.285,0.638,0.637c0,0.353-0.297,0.639-0.638,0.639
		C170.941,15.774,170.654,15.488,170.654,15.136z"/>
	<path d="M173.834,17.392h-0.88l0.209-0.814h1.694l-0.308,1.332c0.583-0.936,1.133-1.408,1.65-1.408c0.385,0,0.704,0.275,0.704,0.66
		c0,0.373-0.308,0.671-0.66,0.671c-0.33,0-0.583-0.22-0.638-0.484c-0.341,0.154-1.012,0.825-1.265,1.849l-0.528,2.123h-0.968
		L173.834,17.392z"/>
	<path d="M179.498,16.489c0.704,0,1.254,0.518,1.43,1.09l0.803-3.499h-0.88l0.198-0.813h1.826l-1.562,6.666
		c-0.044,0.209-0.077,0.375-0.077,0.484c0,0.209,0.088,0.33,0.275,0.33s0.396-0.165,0.627-0.77l0.429,0.154
		c-0.286,0.945-0.792,1.265-1.309,1.265c-0.572,0-0.924-0.386-0.924-0.968v-0.045c-0.396,0.572-0.968,1.023-1.683,1.023
		c-0.946,0-1.639-0.748-1.639-1.893C177.012,17.876,178.145,16.489,179.498,16.489z M180.73,18.515c0-0.716-0.385-1.178-1.1-1.178
		c-0.924,0-1.617,1.001-1.617,2.068c0,0.682,0.363,1.177,1.023,1.177C179.982,20.582,180.73,19.57,180.73,18.515z"/>
	<path d="M185.526,19.735c0-0.506,0.319-0.848,0.737-0.848c0.363,0,0.638,0.297,0.638,0.627c0,0.209-0.088,0.418-0.275,0.551
		c0.231,0.285,0.77,0.517,1.519,0.517c0.803,0,1.441-0.418,1.441-1.11c0-0.572-0.462-0.925-1.232-1.354
		c-0.88-0.506-1.716-1.09-1.716-2.179c0-1.045,0.946-1.991,2.453-1.991c1.354,0,2.299,0.792,2.299,1.529
		c0,0.495-0.297,0.848-0.715,0.848c-0.363,0-0.638-0.287-0.638-0.639c0-0.165,0.066-0.352,0.242-0.506
		c-0.143-0.176-0.572-0.363-1.188-0.363c-0.869,0-1.408,0.473-1.408,1.034c0,0.627,0.528,0.99,1.32,1.441
		c0.847,0.473,1.639,1.067,1.639,2.09c0,1.167-1.001,2.068-2.552,2.068C186.637,21.451,185.526,20.593,185.526,19.735z"/>
	<path d="M191.609,19.306c0-1.507,1.254-2.816,2.762-2.816c1.045,0,1.738,0.639,1.738,1.332c0,0.406-0.253,0.748-0.649,0.748
		c-0.297,0-0.561-0.231-0.561-0.584c0-0.143,0.077-0.318,0.198-0.418c-0.154-0.176-0.407-0.264-0.749-0.264
		c-0.858,0-1.771,0.737-1.771,1.947c0,0.825,0.55,1.354,1.353,1.354c0.55,0,1.111-0.221,1.595-0.594l-0.022,0.879
		c-0.462,0.33-1.034,0.518-1.661,0.518C192.588,21.407,191.609,20.626,191.609,19.306z"/>
	<path d="M197.12,20.439c0-0.144,0.033-0.353,0.077-0.517l0.66-2.531h-0.891l0.209-0.814h1.859l-0.88,3.355
		c-0.055,0.188-0.077,0.375-0.077,0.484c0,0.209,0.11,0.33,0.286,0.33c0.22,0,0.418-0.165,0.649-0.77l0.429,0.154
		c-0.286,0.945-0.748,1.265-1.332,1.265C197.472,21.396,197.12,21.011,197.12,20.439z M198.044,15.136
		c0-0.352,0.286-0.637,0.638-0.637c0.341,0,0.638,0.285,0.638,0.637c0,0.353-0.297,0.639-0.638,0.639
		C198.33,15.774,198.044,15.488,198.044,15.136z"/>
	<path d="M201.135,19.251v0.165c0,0.716,0.572,1.188,1.43,1.188c0.506,0,0.968-0.11,1.562-0.43l-0.187,0.902
		c-0.495,0.242-0.902,0.33-1.573,0.33c-1.133,0-2.178-0.715-2.178-2.014c0-1.605,1.188-2.904,2.596-2.904
		c1.155,0,1.914,0.66,1.914,1.771c0,0.297-0.055,0.627-0.176,0.99h-3.388V19.251z M201.267,18.558h2.464
		c0.044-0.132,0.065-0.275,0.065-0.406c0-0.496-0.33-0.858-1.012-0.858C202.103,17.293,201.52,17.81,201.267,18.558z"/>
	<path d="M208.67,20.45c0-0.154,0.032-0.363,0.076-0.539l0.407-1.43c0.056-0.188,0.077-0.33,0.077-0.484
		c0-0.418-0.286-0.693-0.715-0.693c-0.583,0-1.133,0.495-1.375,1.441l-0.639,2.574h-0.968l0.99-3.928h-0.88l0.209-0.814h1.693
		l-0.253,1.111c0.374-0.66,0.99-1.188,1.64-1.188c0.727,0,1.287,0.494,1.287,1.342c0,0.23-0.044,0.495-0.121,0.77l-0.407,1.398
		c-0.032,0.143-0.065,0.297-0.065,0.385c0,0.22,0.109,0.352,0.297,0.352c0.187,0,0.396-0.165,0.616-0.77l0.429,0.154
		c-0.253,0.857-0.704,1.265-1.287,1.265C209.032,21.396,208.67,21.001,208.67,20.45z"/>
	<path d="M211.617,19.306c0-1.507,1.254-2.816,2.762-2.816c1.045,0,1.738,0.639,1.738,1.332c0,0.406-0.253,0.748-0.649,0.748
		c-0.297,0-0.561-0.231-0.561-0.584c0-0.143,0.076-0.318,0.197-0.418c-0.153-0.176-0.407-0.264-0.748-0.264
		c-0.857,0-1.771,0.737-1.771,1.947c0,0.825,0.551,1.354,1.354,1.354c0.55,0,1.111-0.221,1.596-0.594l-0.022,0.879
		c-0.462,0.33-1.034,0.518-1.661,0.518C212.597,21.407,211.617,20.626,211.617,19.306z"/>
	<path d="M217.767,19.251v0.165c0,0.716,0.571,1.188,1.43,1.188c0.506,0,0.969-0.11,1.562-0.43l-0.188,0.902
		c-0.495,0.242-0.901,0.33-1.573,0.33c-1.133,0-2.178-0.715-2.178-2.014c0-1.605,1.188-2.904,2.597-2.904
		c1.154,0,1.914,0.66,1.914,1.771c0,0.297-0.056,0.627-0.177,0.99h-3.387V19.251z M217.899,18.558h2.464
		c0.044-0.132,0.066-0.275,0.066-0.406c0-0.496-0.33-0.858-1.012-0.858C218.735,17.293,218.152,17.81,217.899,18.558z"/>
	<path d="M229.68,13.267h0.836V23.52h-0.836V13.267z"/>
	<path d="M238.678,20.429h0.825l1.265-5.457h-0.935l0.197-0.892h2.476c0.66,0,1.178,0.089,1.573,0.298
		c0.55,0.285,0.892,0.813,0.892,1.44c0,0.979-0.792,1.673-1.771,1.815c0.737,0.209,1.298,0.803,1.298,1.529
		c0,0.605-0.23,1.1-0.648,1.463c-0.342,0.297-0.825,0.506-1.397,0.605c-0.309,0.066-0.66,0.088-1.023,0.088h-2.959L238.678,20.429z
		 M241.571,20.45c0.274,0,0.527-0.033,0.736-0.077c0.363-0.077,0.628-0.209,0.825-0.407c0.221-0.22,0.33-0.506,0.33-0.857
		c0-0.649-0.604-1.09-1.628-1.09h-0.771l-0.571,2.432L241.571,20.45L241.571,20.45z M241.946,17.216
		c1.231,0,1.991-0.462,1.991-1.287c0-0.342-0.177-0.66-0.539-0.814c-0.242-0.099-0.572-0.165-1.023-0.165h-0.605l-0.527,2.267
		L241.946,17.216L241.946,17.216z"/>
	<path d="M245.464,19.515c0-1.617,1.122-3.025,2.498-3.025c0.715,0,1.254,0.518,1.419,1.123l0.308-1.057h0.902l-0.836,3.377
		c-0.055,0.199-0.088,0.375-0.088,0.484c0,0.209,0.099,0.33,0.286,0.33c0.176,0,0.396-0.165,0.616-0.77l0.429,0.154
		c-0.286,0.945-0.781,1.265-1.31,1.265c-0.561,0-0.913-0.386-0.913-0.957v-0.056c-0.407,0.562-0.979,1.023-1.694,1.023
		C246.136,21.407,245.464,20.671,245.464,19.515z M249.161,18.503c0-0.704-0.353-1.166-1.078-1.166
		c-0.925,0-1.617,1.001-1.617,2.068c0,0.693,0.341,1.177,1.001,1.177C248.435,20.582,249.161,19.537,249.161,18.503z"/>
	<path d="M251.701,19.306c0-1.507,1.254-2.816,2.762-2.816c1.045,0,1.738,0.639,1.738,1.332c0,0.406-0.253,0.748-0.649,0.748
		c-0.297,0-0.561-0.231-0.561-0.584c0-0.143,0.076-0.318,0.197-0.418c-0.153-0.176-0.407-0.264-0.748-0.264
		c-0.857,0-1.771,0.737-1.771,1.947c0,0.825,0.551,1.354,1.354,1.354c0.55,0,1.111-0.221,1.596-0.594l-0.022,0.879
		c-0.462,0.33-1.034,0.518-1.661,0.518C252.681,21.407,251.701,20.626,251.701,19.306z"/>
	<path d="M256.915,19.306c0-1.507,1.254-2.816,2.762-2.816c1.045,0,1.738,0.639,1.738,1.332c0,0.406-0.253,0.748-0.649,0.748
		c-0.297,0-0.561-0.231-0.561-0.584c0-0.143,0.076-0.318,0.197-0.418c-0.153-0.176-0.407-0.264-0.748-0.264
		c-0.857,0-1.771,0.737-1.771,1.947c0,0.825,0.551,1.354,1.354,1.354c0.55,0,1.111-0.221,1.596-0.594l-0.022,0.879
		c-0.462,0.33-1.034,0.518-1.661,0.518C257.895,21.407,256.915,20.626,256.915,19.306z"/>
	<path d="M263.636,14.08h-0.891l0.209-0.813h1.815l-0.99,4.235c0.341-0.528,0.902-1.001,1.529-1.001
		c0.726,0,1.309,0.494,1.309,1.342c0,0.23-0.032,0.495-0.12,0.77l-0.386,1.408c-0.033,0.144-0.055,0.287-0.055,0.375
		c0,0.22,0.11,0.352,0.286,0.352c0.198,0,0.396-0.165,0.616-0.77l0.429,0.154c-0.253,0.857-0.693,1.265-1.287,1.265
		c-0.649,0-1.012-0.396-1.012-0.946c0-0.154,0.032-0.352,0.076-0.527l0.396-1.441c0.055-0.188,0.066-0.33,0.066-0.484
		c0-0.418-0.298-0.693-0.727-0.693c-0.583,0-1.155,0.484-1.375,1.463l-0.595,2.553h-0.968L263.636,14.08z"/>
	<path d="M268.025,19.515c0-1.617,1.122-3.025,2.498-3.025c0.715,0,1.254,0.518,1.419,1.123l0.308-1.057h0.902l-0.836,3.377
		c-0.055,0.199-0.088,0.375-0.088,0.484c0,0.209,0.099,0.33,0.286,0.33c0.176,0,0.396-0.165,0.616-0.77l0.429,0.154
		c-0.286,0.945-0.781,1.265-1.31,1.265c-0.561,0-0.913-0.386-0.913-0.957v-0.056c-0.407,0.562-0.979,1.023-1.694,1.023
		C268.696,21.407,268.025,20.671,268.025,19.515z M271.722,18.503c0-0.704-0.353-1.166-1.078-1.166
		c-0.925,0-1.617,1.001-1.617,2.068c0,0.693,0.341,1.177,1.001,1.177C270.995,20.582,271.722,19.537,271.722,18.503z"/>
	<path d="M277.431,20.45c0-0.154,0.032-0.363,0.076-0.539l0.407-1.43c0.056-0.188,0.077-0.33,0.077-0.484
		c0-0.418-0.286-0.693-0.715-0.693c-0.583,0-1.133,0.495-1.375,1.441l-0.639,2.574h-0.968l0.99-3.928h-0.88l0.209-0.814h1.694
		l-0.254,1.111c0.374-0.66,0.99-1.188,1.64-1.188c0.726,0,1.287,0.494,1.287,1.342c0,0.23-0.044,0.495-0.121,0.77l-0.407,1.398
		c-0.033,0.143-0.065,0.297-0.065,0.385c0,0.22,0.109,0.352,0.297,0.352c0.187,0,0.396-0.165,0.616-0.77l0.429,0.154
		c-0.253,0.857-0.704,1.265-1.287,1.265C277.793,21.396,277.431,21.001,277.431,20.45z"/>
	<path d="M280.389,19.515c0-1.617,1.122-3.025,2.498-3.025c0.715,0,1.254,0.518,1.419,1.123l0.308-1.057h0.902l-0.836,3.377
		c-0.055,0.199-0.088,0.375-0.088,0.484c0,0.209,0.099,0.33,0.286,0.33c0.176,0,0.396-0.165,0.616-0.77l0.429,0.154
		c-0.286,0.945-0.781,1.265-1.31,1.265c-0.561,0-0.913-0.386-0.913-0.957v-0.056c-0.407,0.562-0.979,1.023-1.694,1.023
		C281.061,21.407,280.389,20.671,280.389,19.515z M284.086,18.503c0-0.704-0.353-1.166-1.078-1.166
		c-0.925,0-1.617,1.001-1.617,2.068c0,0.693,0.341,1.177,1.001,1.177C283.36,20.582,284.086,19.537,284.086,18.503z"/>
	<path d="M286.747,20.429c0-0.144,0.033-0.319,0.066-0.496l1.364-5.853h-0.892l0.209-0.813h1.826l-1.54,6.656
		c-0.044,0.187-0.077,0.362-0.077,0.473c0,0.23,0.1,0.352,0.286,0.352c0.22,0,0.418-0.165,0.649-0.77l0.418,0.154
		c-0.286,0.945-0.748,1.265-1.32,1.265C287.088,21.396,286.747,21.011,286.747,20.429z"/>
	<path d="M290.124,20.439c0-0.144,0.033-0.353,0.077-0.517l0.66-2.531h-0.891l0.209-0.814h1.858l-0.88,3.355
		c-0.055,0.188-0.077,0.375-0.077,0.484c0,0.209,0.11,0.33,0.286,0.33c0.221,0,0.418-0.165,0.649-0.77l0.429,0.154
		c-0.286,0.945-0.748,1.265-1.331,1.265C290.477,21.396,290.124,21.011,290.124,20.439z M291.049,15.136
		c0-0.352,0.285-0.637,0.638-0.637c0.341,0,0.638,0.285,0.638,0.637c0,0.353-0.297,0.639-0.638,0.639
		C291.334,15.774,291.049,15.488,291.049,15.136z"/>
	<path d="M293.215,19.515c0-1.617,1.122-3.025,2.498-3.025c0.715,0,1.254,0.518,1.419,1.123l0.308-1.057h0.902l-0.836,3.377
		c-0.055,0.199-0.088,0.375-0.088,0.484c0,0.209,0.099,0.33,0.286,0.33c0.176,0,0.396-0.165,0.616-0.77l0.429,0.154
		c-0.286,0.945-0.781,1.265-1.31,1.265c-0.561,0-0.913-0.386-0.913-0.957v-0.056c-0.407,0.562-0.979,1.023-1.694,1.023
		C293.887,21.407,293.215,20.671,293.215,19.515z M296.912,18.503c0-0.704-0.353-1.166-1.078-1.166
		c-0.925,0-1.617,1.001-1.617,2.068c0,0.693,0.341,1.177,1.001,1.177C296.186,20.582,296.912,19.537,296.912,18.503z"/>
	<path d="M306.999,13.267h0.836V23.52h-0.836V13.267z"/>
	<path d="M315.997,20.429h0.825l1.265-5.457h-0.935l0.197-0.892h2.476c0.66,0,1.178,0.089,1.573,0.298
		c0.55,0.285,0.892,0.813,0.892,1.44c0,0.979-0.792,1.673-1.771,1.815c0.737,0.209,1.298,0.803,1.298,1.529
		c0,0.605-0.23,1.1-0.648,1.463c-0.342,0.297-0.825,0.506-1.397,0.605c-0.309,0.066-0.66,0.088-1.023,0.088h-2.959L315.997,20.429z
		 M318.891,20.45c0.274,0,0.527-0.033,0.736-0.077c0.363-0.077,0.628-0.209,0.825-0.407c0.221-0.22,0.33-0.506,0.33-0.857
		c0-0.649-0.604-1.09-1.628-1.09h-0.771l-0.571,2.432L318.891,20.45L318.891,20.45z M319.265,17.216
		c1.231,0,1.991-0.462,1.991-1.287c0-0.342-0.176-0.66-0.539-0.814c-0.242-0.099-0.572-0.165-1.023-0.165h-0.605l-0.527,2.267
		L319.265,17.216L319.265,17.216z"/>
	<path d="M322.783,19.515c0-1.617,1.122-3.025,2.498-3.025c0.715,0,1.254,0.518,1.419,1.123l0.308-1.057h0.902l-0.836,3.377
		c-0.055,0.199-0.088,0.375-0.088,0.484c0,0.209,0.099,0.33,0.286,0.33c0.176,0,0.396-0.165,0.616-0.77l0.429,0.154
		c-0.286,0.945-0.781,1.265-1.31,1.265c-0.561,0-0.913-0.386-0.913-0.957v-0.056c-0.407,0.562-0.979,1.023-1.694,1.023
		C323.455,21.407,322.783,20.671,322.783,19.515z M326.481,18.503c0-0.704-0.353-1.166-1.078-1.166
		c-0.925,0-1.617,1.001-1.617,2.068c0,0.693,0.341,1.177,1.001,1.177C325.754,20.582,326.481,19.537,326.481,18.503z"/>
	<path d="M329.021,19.306c0-1.507,1.254-2.816,2.762-2.816c1.045,0,1.738,0.639,1.738,1.332c0,0.406-0.253,0.748-0.649,0.748
		c-0.297,0-0.561-0.231-0.561-0.584c0-0.143,0.076-0.318,0.197-0.418c-0.153-0.176-0.407-0.264-0.748-0.264
		c-0.857,0-1.771,0.737-1.771,1.947c0,0.825,0.551,1.354,1.354,1.354c0.55,0,1.111-0.221,1.596-0.594l-0.022,0.879
		c-0.462,0.33-1.034,0.518-1.661,0.518C330,21.407,329.021,20.626,329.021,19.306z"/>
	<path d="M334.07,21.319l1.672-7.239h-0.891l0.209-0.813h1.815l-1.299,5.566c1.32-0.473,1.97-0.902,2.168-1.21
		c-0.188-0.11-0.297-0.308-0.297-0.507c0-0.34,0.274-0.627,0.627-0.627c0.352,0,0.648,0.275,0.648,0.705
		c0,0.715-0.704,1.363-1.858,1.914l0.462,1.078c0.099,0.23,0.165,0.363,0.242,0.451c0.076,0.076,0.143,0.099,0.22,0.099
		c0.165,0,0.319-0.177,0.506-0.88l0.44,0.143c-0.253,1.145-0.683,1.397-1.166,1.397c-0.221,0-0.43-0.056-0.616-0.209
		c-0.154-0.132-0.297-0.33-0.407-0.605l-0.518-1.231c-0.187,0.076-0.396,0.143-0.571,0.209l-0.419,1.76h-0.967V21.319z"/>
	<path d="M343.838,17.392l-0.605,2.432c-0.044,0.165-0.066,0.318-0.066,0.418c0,0.264,0.154,0.407,0.374,0.407
		c0.254,0,0.484-0.11,0.946-0.419l0.342,0.463c-0.616,0.539-1.134,0.704-1.596,0.704c-0.583,0-1.045-0.33-1.045-1.001
		c0-0.166,0.033-0.353,0.077-0.572l0.604-2.432h-0.857l0.187-0.814h0.869l0.275-1.078l1.056-0.363l-0.363,1.441h1.452l-0.209,0.814
		C345.279,17.392,343.838,17.392,343.838,17.392z"/>
	<path d="M345.74,19.306c0-1.451,1.133-2.816,2.685-2.816c1.364,0,2.134,0.979,2.134,2.113c0,1.44-1.133,2.805-2.684,2.805
		C346.511,21.407,345.74,20.429,345.74,19.306z M349.591,18.591c0-0.814-0.528-1.287-1.21-1.287c-0.924,0-1.673,0.891-1.673,2.002
		c0,0.826,0.528,1.299,1.211,1.299C348.843,20.604,349.591,19.702,349.591,18.591z"/>
	<path d="M355.653,17.392l-0.605,2.432c-0.044,0.165-0.066,0.318-0.066,0.418c0,0.264,0.154,0.407,0.374,0.407
		c0.254,0,0.484-0.11,0.946-0.419l0.342,0.463c-0.616,0.539-1.134,0.704-1.596,0.704c-0.583,0-1.045-0.33-1.045-1.001
		c0-0.166,0.033-0.353,0.077-0.572l0.604-2.432h-0.857l0.187-0.814h0.869l0.275-1.078l1.056-0.363l-0.363,1.441h1.452l-0.209,0.814
		C357.094,17.392,355.653,17.392,355.653,17.392z"/>
	<path d="M359.062,14.08h-0.891l0.209-0.813h1.815l-0.99,4.235c0.341-0.528,0.902-1.001,1.529-1.001
		c0.726,0,1.309,0.494,1.309,1.342c0,0.23-0.032,0.495-0.12,0.77l-0.386,1.408c-0.033,0.144-0.055,0.287-0.055,0.375
		c0,0.22,0.11,0.352,0.286,0.352c0.198,0,0.396-0.165,0.616-0.77l0.429,0.154c-0.253,0.857-0.693,1.265-1.287,1.265
		c-0.649,0-1.012-0.396-1.012-0.946c0-0.154,0.032-0.352,0.076-0.527l0.396-1.441c0.055-0.188,0.066-0.33,0.066-0.484
		c0-0.418-0.298-0.693-0.727-0.693c-0.583,0-1.155,0.484-1.375,1.463l-0.595,2.553h-0.968L359.062,14.08z"/>
	<path d="M364.375,19.251v0.165c0,0.716,0.571,1.188,1.43,1.188c0.506,0,0.969-0.11,1.562-0.43l-0.188,0.902
		c-0.495,0.242-0.901,0.33-1.573,0.33c-1.133,0-2.178-0.715-2.178-2.014c0-1.605,1.188-2.904,2.597-2.904
		c1.154,0,1.914,0.66,1.914,1.771c0,0.297-0.056,0.627-0.177,0.99h-3.387V19.251z M364.507,18.558h2.464
		c0.044-0.132,0.066-0.275,0.066-0.406c0-0.496-0.33-0.858-1.012-0.858C365.343,17.293,364.76,17.81,364.507,18.558z"/>
	<path d="M370.81,20.429h0.825l1.265-5.457h-0.935l0.197-0.892h5.336l-0.462,1.903h-0.946l0.242-1.023H373.9l-0.527,2.244h2.255
		l-0.198,0.859h-2.244l-0.561,2.376h2.442l0.253-1.023h0.946l-0.44,1.903H370.6L370.81,20.429z"/>
	<path d="M377.321,19.515c0-1.617,1.122-3.025,2.498-3.025c0.715,0,1.254,0.518,1.419,1.123l0.308-1.057h0.902l-0.836,3.377
		c-0.055,0.199-0.088,0.375-0.088,0.484c0,0.209,0.099,0.33,0.286,0.33c0.176,0,0.396-0.165,0.616-0.77l0.429,0.154
		c-0.286,0.945-0.781,1.265-1.31,1.265c-0.561,0-0.913-0.386-0.913-0.957v-0.056c-0.407,0.562-0.979,1.023-1.694,1.023
		C377.993,21.407,377.321,20.671,377.321,19.515z M381.019,18.503c0-0.704-0.353-1.166-1.078-1.166
		c-0.925,0-1.617,1.001-1.617,2.068c0,0.693,0.341,1.177,1.001,1.177C380.292,20.582,381.019,19.537,381.019,18.503z"/>
	<path d="M384.582,17.392h-0.88l0.209-0.814h1.694l-0.309,1.332c0.583-0.936,1.133-1.408,1.65-1.408c0.385,0,0.704,0.275,0.704,0.66
		c0,0.373-0.309,0.671-0.66,0.671c-0.33,0-0.583-0.22-0.638-0.484c-0.342,0.154-1.013,0.825-1.266,1.849l-0.528,2.123h-0.968
		L384.582,17.392z"/>
	<path d="M389.94,17.392l-0.605,2.432c-0.044,0.165-0.066,0.318-0.066,0.418c0,0.264,0.154,0.407,0.374,0.407
		c0.254,0,0.484-0.11,0.946-0.419l0.342,0.463c-0.616,0.539-1.134,0.704-1.596,0.704c-0.583,0-1.045-0.33-1.045-1.001
		c0-0.166,0.033-0.353,0.077-0.572l0.604-2.432h-0.857l0.187-0.814h0.869l0.275-1.078l1.056-0.363l-0.363,1.441h1.452l-0.209,0.814
		C391.381,17.392,389.94,17.392,389.94,17.392z"/>
	<path d="M393.349,14.08h-0.891l0.209-0.813h1.815l-0.99,4.235c0.341-0.528,0.902-1.001,1.529-1.001
		c0.726,0,1.309,0.494,1.309,1.342c0,0.23-0.032,0.495-0.12,0.77l-0.386,1.408c-0.033,0.144-0.055,0.287-0.055,0.375
		c0,0.22,0.11,0.352,0.286,0.352c0.198,0,0.396-0.165,0.616-0.77l0.429,0.154c-0.253,0.857-0.693,1.265-1.287,1.265
		c-0.649,0-1.012-0.396-1.012-0.946c0-0.154,0.032-0.352,0.076-0.527l0.396-1.441c0.055-0.188,0.066-0.33,0.066-0.484
		c0-0.418-0.298-0.693-0.727-0.693c-0.583,0-1.155,0.484-1.375,1.463l-0.595,2.553h-0.968L393.349,14.08z"/>
</g>
</svg>
