<?xml version="1.0" encoding="utf-8"?>
<!-- Generator: Adobe Illustrator 17.0.0, SVG Export Plug-In . SVG Version: 6.00 Build 0)  -->
<!DOCTYPE svg PUBLIC "-//W3C//DTD SVG 1.1//EN" "http://www.w3.org/Graphics/SVG/1.1/DTD/svg11.dtd">
<svg version="1.1" id="Layer_1" xmlns="http://www.w3.org/2000/svg" xmlns:xlink="http://www.w3.org/1999/xlink" x="0px" y="0px"
	 width="71.414px" height="14px" viewBox="297.885 0 71.414 14" enable-background="new 297.885 0 71.414 14" xml:space="preserve">
<rect x="2.969" y="2.708" fill="none" width="375.334" height="12.25"/>
<g enable-background="new    ">
	<path d="M3.19,9.144c0-0.594,0.363-0.99,0.825-0.99c0.341,0,0.605,0.264,0.605,0.594c0,0.265-0.165,0.495-0.473,0.562
		c0.022,0.374,0.451,0.671,1.144,0.671c0.528,0,0.913-0.198,1.177-0.539c0.253-0.319,0.418-0.77,0.539-1.287l0.869-3.741h-1.21
		l0.209-0.892h2.992L9.659,4.413H8.845L7.954,8.274c-0.176,0.771-0.429,1.364-0.792,1.793c-0.451,0.551-1.089,0.814-1.936,0.814
		C4.147,10.882,3.19,10.167,3.19,9.144z"/>
	<path d="M9.57,8.956c0-1.618,1.122-3.026,2.497-3.026c0.715,0,1.254,0.518,1.419,1.122l0.308-1.056h0.902L13.86,9.375
		c-0.055,0.197-0.088,0.374-0.088,0.483c0,0.209,0.099,0.33,0.286,0.33c0.176,0,0.396-0.165,0.616-0.77l0.429,0.153
		c-0.286,0.946-0.781,1.266-1.309,1.266c-0.561,0-0.913-0.385-0.913-0.957V9.825c-0.407,0.562-0.979,1.023-1.694,1.023
		C10.241,10.849,9.57,10.111,9.57,8.956z M13.266,7.944c0-0.705-0.352-1.167-1.078-1.167c-0.924,0-1.617,1.001-1.617,2.069
		c0,0.693,0.341,1.177,1.001,1.177C12.54,10.023,13.266,8.979,13.266,7.944z"/>
	<path d="M16.83,6.833h-0.88l0.209-0.813h1.694l-0.264,1.11c0.385-0.66,0.957-1.188,1.584-1.188c0.693,0,1.144,0.462,1.199,1.177
		c0.429-0.726,1.034-1.177,1.606-1.177c0.693,0,1.232,0.495,1.232,1.342c0,0.232-0.044,0.496-0.121,0.771l-0.407,1.396
		c-0.033,0.144-0.066,0.298-0.066,0.386c0,0.22,0.11,0.352,0.297,0.352s0.396-0.165,0.616-0.77l0.429,0.153
		c-0.253,0.858-0.704,1.266-1.287,1.266c-0.649,0-1.012-0.396-1.012-0.946c0-0.154,0.033-0.363,0.077-0.539l0.396-1.386
		c0.066-0.198,0.088-0.374,0.088-0.529c0-0.43-0.286-0.693-0.649-0.693c-0.55,0-1.079,0.506-1.332,1.507l-0.638,2.509h-0.968
		l0.715-2.783c0.044-0.209,0.077-0.407,0.077-0.562c0-0.385-0.264-0.671-0.649-0.671c-0.55,0-1.101,0.518-1.342,1.497l-0.627,2.52
		H15.84L16.83,6.833z"/>
	<path d="M24.904,9.881c0-0.144,0.033-0.353,0.077-0.518l0.66-2.531H24.75l0.209-0.813h1.859l-0.88,3.356
		c-0.055,0.187-0.077,0.374-0.077,0.483c0,0.209,0.11,0.33,0.286,0.33c0.22,0,0.418-0.165,0.649-0.77l0.429,0.153
		c-0.286,0.946-0.749,1.266-1.332,1.266C25.256,10.838,24.904,10.453,24.904,9.881z M25.828,4.578c0-0.353,0.286-0.639,0.638-0.639
		c0.341,0,0.638,0.286,0.638,0.639c0,0.352-0.297,0.638-0.638,0.638C26.114,5.215,25.828,4.929,25.828,4.578z"/>
	<path d="M28.918,8.692v0.165c0,0.715,0.572,1.188,1.43,1.188c0.506,0,0.968-0.11,1.562-0.43l-0.187,0.902
		c-0.495,0.242-0.902,0.33-1.573,0.33c-1.133,0-2.178-0.715-2.178-2.013c0-1.607,1.188-2.906,2.596-2.906
		c1.155,0,1.914,0.66,1.914,1.772c0,0.297-0.055,0.627-0.176,0.99h-3.388V8.692z M29.051,7.999h2.464
		c0.044-0.132,0.066-0.274,0.066-0.406c0-0.496-0.33-0.859-1.012-0.859S29.304,7.25,29.051,7.999z"/>
	<path d="M37.268,6.932C36.971,6.437,36.85,6.074,36.85,5.6c0-1.022,0.858-1.858,1.98-1.858c1.023,0,1.65,0.715,1.65,1.463
		c0,0.957-0.825,1.562-1.98,2.046l0.341,0.397l0.715,0.847c0.66-0.891,1.123-1.321,1.793-1.321c0.473,0,0.781,0.342,0.781,0.694
		c0,0.341-0.286,0.616-0.616,0.616c-0.231,0-0.429-0.121-0.528-0.33c-0.22,0.066-0.506,0.473-0.869,0.968l1.067,1.222l-0.627,0.572
		l-1.012-1.199c-0.55,0.616-1.298,1.188-2.289,1.188c-1.199,0-1.936-0.726-1.936-1.738C35.32,7.999,36.277,7.338,37.268,6.932z
		 M39.006,9.11L38.17,8.109c-0.176-0.209-0.33-0.396-0.462-0.572c-0.913,0.43-1.386,0.869-1.386,1.552
		c0,0.594,0.385,0.979,1.023,0.979C38.016,10.067,38.544,9.639,39.006,9.11z M38.06,6.657c0.913-0.396,1.485-0.781,1.485-1.441
		c0-0.363-0.286-0.715-0.759-0.715c-0.638,0-1.023,0.572-1.023,1.111C37.763,5.986,37.807,6.25,38.06,6.657z"/>
	<path d="M44.604,9.869h0.825l1.265-5.457h-0.935l0.198-0.892h2.333c1.375,0,2.255,0.374,2.893,1.013
		c0.506,0.506,0.781,1.254,0.781,2.057c0,1.156-0.396,2.081-1.144,2.839c-0.913,0.902-2.189,1.331-3.741,1.331h-2.685L44.604,9.869z
		 M47.234,9.869c1.265,0,2.145-0.341,2.805-1.012c0.605-0.605,0.88-1.375,0.88-2.211c0-0.583-0.198-1.145-0.561-1.508
		c-0.451-0.451-1.089-0.726-2.167-0.726h-0.495L46.42,9.869H47.234z"/>
	<path d="M52.535,8.747c0-1.453,1.133-2.817,2.685-2.817c1.364,0,2.134,0.979,2.134,2.113c0,1.441-1.133,2.806-2.685,2.806
		C53.305,10.849,52.535,9.869,52.535,8.747z M56.385,8.032c0-0.815-0.528-1.288-1.21-1.288c-0.924,0-1.672,0.892-1.672,2.002
		c0,0.825,0.528,1.299,1.21,1.299C55.637,10.046,56.385,9.144,56.385,8.032z"/>
	<path d="M59.212,6.833h-0.88l0.209-0.813h1.694l-0.308,1.33c0.583-0.936,1.133-1.408,1.65-1.408c0.385,0,0.704,0.274,0.704,0.66
		c0,0.374-0.308,0.671-0.66,0.671c-0.33,0-0.583-0.221-0.638-0.484c-0.341,0.154-1.012,0.826-1.265,1.849l-0.528,2.123h-0.968
		L59.212,6.833z"/>
	<path d="M62.38,8.747c0-1.453,1.133-2.817,2.685-2.817c1.364,0,2.134,0.979,2.134,2.113c0,1.441-1.133,2.806-2.685,2.806
		C63.15,10.849,62.38,9.869,62.38,8.747z M66.23,8.032c0-0.815-0.528-1.288-1.21-1.288c-0.924,0-1.672,0.892-1.672,2.002
		c0,0.825,0.528,1.299,1.21,1.299C65.482,10.046,66.23,9.144,66.23,8.032z"/>
	<path d="M69.948,6.833l-0.605,2.432c-0.044,0.165-0.066,0.319-0.066,0.418c0,0.264,0.154,0.407,0.374,0.407
		c0.253,0,0.484-0.11,0.946-0.418l0.341,0.462c-0.616,0.539-1.133,0.704-1.595,0.704c-0.583,0-1.045-0.33-1.045-1.001
		c0-0.165,0.033-0.353,0.077-0.572l0.605-2.432h-0.858l0.187-0.813h0.869l0.275-1.079l1.056-0.362L70.146,6.02h1.452L71.39,6.833
		H69.948z"/>
	<path d="M73.358,3.521h-0.891l0.209-0.813h1.815l-0.99,4.235c0.341-0.528,0.902-1.001,1.529-1.001c0.726,0,1.309,0.495,1.309,1.342
		c0,0.232-0.032,0.496-0.12,0.771l-0.386,1.408c-0.033,0.143-0.055,0.286-0.055,0.374c0,0.22,0.11,0.352,0.286,0.352
		c0.198,0,0.396-0.165,0.616-0.77l0.429,0.153c-0.253,0.858-0.693,1.266-1.287,1.266c-0.649,0-1.012-0.396-1.012-0.946
		c0-0.154,0.033-0.352,0.077-0.528l0.396-1.441c0.055-0.187,0.066-0.329,0.066-0.484c0-0.418-0.298-0.693-0.727-0.693
		c-0.583,0-1.155,0.484-1.375,1.463l-0.594,2.553h-0.968L73.358,3.521z"/>
	<path d="M76.272,12.268c0-0.352,0.265-0.615,0.594-0.615c0.275,0,0.507,0.187,0.572,0.473c0.265-0.011,0.737-0.396,1.694-1.552
		l-0.77-3.741h-0.837l0.209-0.813h1.453l0.638,3.785c0.748-0.99,1.419-1.914,1.595-2.597C81.179,7.12,80.958,6.9,80.958,6.57
		c0-0.341,0.275-0.639,0.649-0.639c0.451,0,0.737,0.33,0.737,0.858c0,0.639-0.43,1.618-2.189,3.796
		c-1.672,2.057-2.344,2.376-3.059,2.376C76.613,12.961,76.272,12.642,76.272,12.268z"/>
	<path d="M83.29,6.172c1.013-0.583,1.354-1.111,1.397-1.342c-0.308-0.144-0.473-0.44-0.473-0.671c0-0.43,0.341-0.792,0.781-0.792
		c0.429,0,0.792,0.341,0.792,0.868c0,0.814-0.946,1.815-2.3,2.344L83.29,6.172z"/>
	<path d="M85.832,10.244c-0.188-0.188-0.297-0.396-0.297-0.628c0-0.352,0.241-0.615,0.561-0.615c0.309,0,0.528,0.241,0.528,0.527
		c0,0.11-0.044,0.231-0.11,0.309c0.044,0.044,0.1,0.077,0.176,0.121c0.221,0.109,0.539,0.187,0.881,0.187
		c0.495,0,0.913-0.198,0.913-0.583c0-0.396-0.474-0.594-1.001-0.825c-0.66-0.297-1.299-0.627-1.299-1.386
		c0-0.76,0.649-1.42,1.826-1.42c0.649,0,1.199,0.209,1.508,0.528c0.176,0.176,0.274,0.396,0.274,0.616
		c0,0.363-0.253,0.606-0.55,0.606s-0.539-0.243-0.539-0.529c0-0.1,0.022-0.176,0.099-0.309c-0.032-0.021-0.076-0.055-0.165-0.088
		c-0.165-0.065-0.396-0.109-0.638-0.109c-0.484,0-0.869,0.197-0.869,0.539c0,0.363,0.474,0.572,1.023,0.826
		c0.648,0.297,1.276,0.648,1.276,1.386c0,0.936-0.76,1.452-1.882,1.452C86.822,10.849,86.184,10.606,85.832,10.244z"/>
	<path d="M94.291,4.413H93.51l0.209-0.892h2.662l-0.198,0.892H95.27l0.221,4.555l2.685-4.655h0.473l0.803,4.676l2.223-4.577h-0.88
		l0.198-0.892h2.673l-0.209,0.892h-0.693l-3.289,6.425h-0.539l-0.869-4.61l-2.783,4.61l-0.528,0.011L94.291,4.413z"/>
	<path d="M103.597,8.692v0.165c0,0.715,0.571,1.188,1.43,1.188c0.506,0,0.969-0.11,1.562-0.43l-0.188,0.902
		c-0.495,0.242-0.901,0.33-1.573,0.33c-1.133,0-2.178-0.715-2.178-2.013c0-1.607,1.188-2.906,2.597-2.906
		c1.154,0,1.914,0.66,1.914,1.772c0,0.297-0.056,0.627-0.177,0.99h-3.387V8.692z M103.729,7.999h2.464
		c0.044-0.132,0.066-0.274,0.066-0.406c0-0.496-0.33-0.859-1.012-0.859C104.564,6.734,103.981,7.25,103.729,7.999z"/>
	<path d="M110.461,5.93c0.704,0,1.255,0.518,1.431,1.09l0.803-3.499h-0.88l0.198-0.813h1.826l-1.562,6.667
		c-0.044,0.209-0.077,0.374-0.077,0.483c0,0.209,0.088,0.33,0.275,0.33s0.396-0.165,0.627-0.77l0.429,0.153
		c-0.285,0.946-0.792,1.266-1.309,1.266c-0.572,0-0.924-0.385-0.924-0.969V9.825c-0.396,0.572-0.969,1.023-1.684,1.023
		c-0.946,0-1.64-0.748-1.64-1.893C107.975,7.317,109.108,5.93,110.461,5.93z M111.693,7.955c0-0.715-0.385-1.177-1.1-1.177
		c-0.925,0-1.617,1.001-1.617,2.069c0,0.682,0.362,1.177,1.022,1.177C110.945,10.023,111.693,9.012,111.693,7.955z"/>
	<path d="M116.609,5.93c0.704,0,1.255,0.518,1.431,1.09l0.803-3.499h-0.88l0.198-0.813h1.826l-1.562,6.667
		c-0.044,0.209-0.077,0.374-0.077,0.483c0,0.209,0.088,0.33,0.275,0.33s0.396-0.165,0.627-0.77l0.429,0.153
		c-0.285,0.946-0.792,1.266-1.309,1.266c-0.572,0-0.924-0.385-0.924-0.969V9.825c-0.396,0.572-0.969,1.023-1.684,1.023
		c-0.946,0-1.64-0.748-1.64-1.893C114.123,7.317,115.257,5.93,116.609,5.93z M117.842,7.955c0-0.715-0.385-1.177-1.1-1.177
		c-0.925,0-1.617,1.001-1.617,2.069c0,0.682,0.362,1.177,1.022,1.177C117.094,10.023,117.842,9.012,117.842,7.955z"/>
	<path d="M120.668,9.881c0-0.144,0.033-0.353,0.077-0.518l0.66-2.531h-0.891l0.209-0.813h1.858l-0.88,3.356
		c-0.055,0.187-0.077,0.374-0.077,0.483c0,0.209,0.11,0.33,0.286,0.33c0.221,0,0.418-0.165,0.649-0.77l0.429,0.153
		c-0.286,0.946-0.748,1.266-1.331,1.266C121.021,10.838,120.668,10.453,120.668,9.881z M121.593,4.578
		c0-0.353,0.285-0.639,0.638-0.639c0.341,0,0.638,0.286,0.638,0.639c0,0.352-0.297,0.638-0.638,0.638
		C121.878,5.215,121.593,4.929,121.593,4.578z"/>
	<path d="M126.917,9.892c0-0.154,0.032-0.363,0.076-0.539l0.407-1.431c0.056-0.187,0.077-0.329,0.077-0.484
		c0-0.418-0.286-0.693-0.715-0.693c-0.583,0-1.133,0.495-1.375,1.442l-0.639,2.574h-0.968l0.99-3.928h-0.88l0.209-0.813h1.693
		l-0.253,1.11c0.374-0.66,0.99-1.188,1.64-1.188c0.727,0,1.287,0.495,1.287,1.342c0,0.232-0.044,0.496-0.121,0.771l-0.407,1.396
		c-0.032,0.144-0.065,0.298-0.065,0.386c0,0.22,0.109,0.352,0.297,0.352c0.187,0,0.396-0.165,0.616-0.77l0.429,0.153
		c-0.253,0.858-0.704,1.266-1.287,1.266C127.279,10.838,126.917,10.441,126.917,9.892z"/>
	<path d="M129.82,12.411c-0.209-0.209-0.275-0.385-0.275-0.616c0-0.385,0.265-0.649,0.605-0.649s0.583,0.275,0.583,0.595
		c0,0.099-0.021,0.209-0.066,0.286c0.144,0.088,0.43,0.176,0.793,0.176c0.451,0,0.77-0.121,1.045-0.396
		c0.253-0.242,0.407-0.627,0.528-1.144l0.209-0.892c-0.407,0.572-0.979,0.936-1.629,0.936c-1.066,0-1.727-0.76-1.727-1.903
		c0-1.541,1.066-2.873,2.508-2.873c0.814,0,1.299,0.551,1.464,1.078l0.297-1.012h0.891l-1.133,4.885
		c-0.144,0.638-0.341,1.111-0.693,1.475c-0.418,0.406-0.968,0.604-1.738,0.604C130.821,12.961,130.106,12.697,129.82,12.411z
		 M133.66,7.911c0-0.705-0.462-1.133-1.145-1.133c-0.924,0-1.628,0.88-1.628,1.958c0,0.704,0.462,1.145,1.122,1.145
		C132.956,9.881,133.66,8.935,133.66,7.911z"/>
	<path d="M143.251,2.708h0.836v10.253h-0.836V2.708z"/>
	<path d="M152.271,9.144c0-0.594,0.363-0.99,0.825-0.99c0.341,0,0.605,0.264,0.605,0.594c0,0.265-0.165,0.495-0.474,0.562
		c0.022,0.374,0.451,0.671,1.145,0.671c0.528,0,0.913-0.198,1.177-0.539c0.254-0.319,0.419-0.77,0.539-1.287l0.869-3.741h-1.21
		l0.209-0.892h2.993l-0.21,0.892h-0.813l-0.892,3.862c-0.176,0.771-0.429,1.364-0.792,1.793c-0.451,0.551-1.089,0.814-1.937,0.814
		C153.228,10.882,152.271,10.167,152.271,9.144z"/>
	<path d="M158.64,8.747c0-1.453,1.133-2.817,2.685-2.817c1.364,0,2.134,0.979,2.134,2.113c0,1.441-1.133,2.806-2.684,2.806
		C159.41,10.849,158.64,9.869,158.64,8.747z M162.49,8.032c0-0.815-0.528-1.288-1.21-1.288c-0.924,0-1.673,0.892-1.673,2.002
		c0,0.825,0.528,1.299,1.211,1.299C161.742,10.046,162.49,9.144,162.49,8.032z"/>
	<path d="M164.414,9.869c0-0.143,0.033-0.318,0.066-0.494l1.364-5.854h-0.892l0.209-0.813h1.826l-1.54,6.656
		c-0.044,0.188-0.077,0.363-0.077,0.474c0,0.23,0.1,0.352,0.286,0.352c0.22,0,0.418-0.165,0.649-0.77l0.418,0.153
		c-0.286,0.946-0.748,1.266-1.32,1.266C164.755,10.838,164.414,10.453,164.414,9.869z"/>
	<path d="M168.363,8.692v0.165c0,0.715,0.571,1.188,1.43,1.188c0.506,0,0.969-0.11,1.562-0.43l-0.188,0.902
		c-0.495,0.242-0.901,0.33-1.573,0.33c-1.133,0-2.178-0.715-2.178-2.013c0-1.607,1.188-2.906,2.597-2.906
		c1.154,0,1.914,0.66,1.914,1.772c0,0.297-0.056,0.627-0.177,0.99h-3.387V8.692z M168.495,7.999h2.464
		c0.044-0.132,0.066-0.274,0.066-0.406c0-0.496-0.33-0.859-1.012-0.859C169.331,6.734,168.748,7.25,168.495,7.999z"/>
	<path d="M175.898,9.892c0-0.154,0.032-0.363,0.076-0.539l0.407-1.431c0.056-0.187,0.077-0.329,0.077-0.484
		c0-0.418-0.286-0.693-0.715-0.693c-0.583,0-1.133,0.495-1.375,1.442l-0.639,2.574h-0.968l0.99-3.928h-0.88l0.209-0.813h1.694
		l-0.254,1.11c0.374-0.66,0.99-1.188,1.64-1.188c0.726,0,1.287,0.495,1.287,1.342c0,0.232-0.044,0.496-0.121,0.771l-0.407,1.396
		c-0.033,0.144-0.065,0.298-0.065,0.386c0,0.22,0.109,0.352,0.297,0.352c0.187,0,0.396-0.165,0.616-0.77l0.429,0.153
		c-0.253,0.858-0.704,1.266-1.287,1.266C176.261,10.838,175.898,10.441,175.898,9.892z"/>
	<path d="M179.781,8.692v0.165c0,0.715,0.571,1.188,1.43,1.188c0.506,0,0.969-0.11,1.562-0.43l-0.188,0.902
		c-0.495,0.242-0.901,0.33-1.573,0.33c-1.133,0-2.178-0.715-2.178-2.013c0-1.607,1.188-2.906,2.597-2.906
		c1.154,0,1.914,0.66,1.914,1.772c0,0.297-0.056,0.627-0.177,0.99h-3.387V8.692z M179.913,7.999h2.464
		c0.044-0.132,0.066-0.274,0.066-0.406c0-0.496-0.33-0.859-1.012-0.859C180.749,6.734,180.166,7.25,179.913,7.999z"/>
	<path d="M188.13,6.932c-0.297-0.495-0.418-0.858-0.418-1.332c0-1.022,0.858-1.858,1.98-1.858c1.022,0,1.65,0.715,1.65,1.463
		c0,0.957-0.825,1.562-1.98,2.046l0.341,0.397l0.715,0.847c0.66-0.891,1.122-1.321,1.794-1.321c0.473,0,0.78,0.342,0.78,0.694
		c0,0.341-0.286,0.616-0.615,0.616c-0.231,0-0.43-0.121-0.528-0.33c-0.221,0.066-0.506,0.473-0.869,0.968l1.067,1.222l-0.628,0.572
		l-1.012-1.199c-0.55,0.616-1.297,1.188-2.288,1.188c-1.199,0-1.937-0.726-1.937-1.738C186.183,7.999,187.14,7.338,188.13,6.932z
		 M189.868,9.11l-0.835-1.001c-0.176-0.209-0.33-0.396-0.462-0.572c-0.913,0.43-1.387,0.869-1.387,1.552
		c0,0.594,0.385,0.979,1.023,0.979C188.878,10.067,189.406,9.639,189.868,9.11z M188.922,6.657c0.913-0.396,1.485-0.781,1.485-1.441
		c0-0.363-0.286-0.715-0.759-0.715c-0.638,0-1.023,0.572-1.023,1.111C188.625,5.986,188.669,6.25,188.922,6.657z"/>
	<path d="M195.433,9.869h0.836l1.519-5.457h-0.946l0.198-0.892h1.76l1.255,4.578l3.267-4.578h1.838l-0.209,0.892h-0.836
		l-1.023,5.457h0.957l-0.198,0.892h-2.794l0.197-0.892h0.858l0.869-4.5l-3.146,4.334h-0.153l-1.232-4.334l-1.199,4.5h0.979
		l-0.209,0.892h-2.783L195.433,9.869z"/>
	<path d="M205.124,8.956c0-1.618,1.122-3.026,2.498-3.026c0.715,0,1.254,0.518,1.419,1.122l0.308-1.056h0.902l-0.836,3.378
		c-0.055,0.197-0.088,0.374-0.088,0.483c0,0.209,0.099,0.33,0.286,0.33c0.176,0,0.396-0.165,0.616-0.77l0.429,0.153
		c-0.286,0.946-0.781,1.266-1.31,1.266c-0.561,0-0.913-0.385-0.913-0.957V9.825c-0.407,0.562-0.979,1.023-1.694,1.023
		C205.795,10.849,205.124,10.111,205.124,8.956z M208.821,7.944c0-0.705-0.353-1.167-1.078-1.167c-0.925,0-1.617,1.001-1.617,2.069
		c0,0.693,0.341,1.177,1.001,1.177C208.094,10.023,208.821,8.979,208.821,7.944z"/>
	<path d="M212.384,6.833h-0.88l0.209-0.813h1.693l-0.308,1.331c0.583-0.936,1.133-1.408,1.65-1.408c0.385,0,0.704,0.274,0.704,0.66
		c0,0.374-0.309,0.671-0.66,0.671c-0.33,0-0.583-0.221-0.638-0.484c-0.342,0.154-1.013,0.826-1.266,1.849l-0.528,2.123h-0.968
		L212.384,6.833z"/>
	<path d="M217.742,6.833l-0.605,2.432c-0.044,0.165-0.066,0.319-0.066,0.418c0,0.264,0.154,0.407,0.374,0.407
		c0.254,0,0.484-0.11,0.946-0.418l0.342,0.462c-0.616,0.539-1.134,0.704-1.596,0.704c-0.583,0-1.045-0.33-1.045-1.001
		c0-0.165,0.033-0.353,0.077-0.572l0.604-2.432h-0.857l0.187-0.813h0.869l0.275-1.079l1.056-0.362L217.94,6.02h1.452l-0.209,0.813
		C219.183,6.833,217.742,6.833,217.742,6.833z"/>
	<path d="M219.941,9.881c0-0.144,0.033-0.353,0.077-0.518l0.66-2.531h-0.891l0.209-0.813h1.858l-0.88,3.356
		c-0.055,0.187-0.077,0.374-0.077,0.483c0,0.209,0.11,0.33,0.286,0.33c0.221,0,0.418-0.165,0.649-0.77l0.429,0.153
		c-0.286,0.946-0.748,1.266-1.331,1.266C220.293,10.838,219.941,10.453,219.941,9.881z M220.866,4.578
		c0-0.353,0.285-0.639,0.638-0.639c0.341,0,0.638,0.286,0.638,0.639c0,0.352-0.297,0.638-0.638,0.638
		C221.151,5.215,220.866,4.929,220.866,4.578z"/>
	<path d="M226.19,9.892c0-0.154,0.032-0.363,0.076-0.539l0.407-1.431c0.056-0.187,0.077-0.329,0.077-0.484
		c0-0.418-0.286-0.693-0.715-0.693c-0.583,0-1.133,0.495-1.375,1.442l-0.639,2.574h-0.968l0.99-3.928h-0.88l0.209-0.813h1.693
		l-0.253,1.11c0.374-0.66,0.99-1.188,1.64-1.188c0.727,0,1.287,0.495,1.287,1.342c0,0.232-0.044,0.496-0.121,0.771l-0.407,1.396
		c-0.032,0.144-0.065,0.298-0.065,0.386c0,0.22,0.109,0.352,0.297,0.352c0.187,0,0.396-0.165,0.616-0.77l0.429,0.153
		c-0.253,0.858-0.704,1.266-1.287,1.266C226.552,10.838,226.19,10.441,226.19,9.892z"/>
	<path d="M229.136,6.172c1.013-0.583,1.354-1.111,1.397-1.342c-0.308-0.144-0.473-0.44-0.473-0.671c0-0.43,0.341-0.792,0.781-0.792
		c0.429,0,0.792,0.341,0.792,0.868c0,0.814-0.946,1.815-2.3,2.344L229.136,6.172z"/>
	<path d="M231.678,10.244c-0.188-0.188-0.297-0.396-0.297-0.628c0-0.352,0.241-0.615,0.561-0.615c0.309,0,0.528,0.241,0.528,0.527
		c0,0.11-0.044,0.231-0.11,0.309c0.044,0.044,0.1,0.077,0.176,0.121c0.221,0.109,0.539,0.187,0.881,0.187
		c0.495,0,0.913-0.198,0.913-0.583c0-0.396-0.474-0.594-1.001-0.825c-0.66-0.297-1.299-0.627-1.299-1.386
		c0-0.76,0.649-1.42,1.826-1.42c0.649,0,1.199,0.209,1.508,0.528c0.176,0.176,0.274,0.396,0.274,0.616
		c0,0.363-0.253,0.606-0.55,0.606s-0.539-0.243-0.539-0.529c0-0.1,0.022-0.176,0.099-0.309c-0.032-0.021-0.076-0.055-0.165-0.088
		c-0.164-0.065-0.396-0.109-0.638-0.109c-0.484,0-0.869,0.197-0.869,0.539c0,0.363,0.474,0.572,1.023,0.826
		c0.648,0.297,1.276,0.648,1.276,1.386c0,0.936-0.76,1.452-1.882,1.452C232.668,10.849,232.03,10.606,231.678,10.244z"/>
	<path d="M240.137,4.413h-0.781l0.209-0.892h2.662l-0.198,0.892h-0.913l0.221,4.555l2.685-4.655h0.473l0.803,4.676l2.223-4.577
		h-0.88l0.198-0.892h2.673l-0.209,0.892h-0.693l-3.289,6.425h-0.539l-0.869-4.61l-2.783,4.61l-0.528,0.011L240.137,4.413z"/>
	<path d="M249.443,8.692v0.165c0,0.715,0.571,1.188,1.43,1.188c0.506,0,0.969-0.11,1.562-0.43l-0.188,0.902
		c-0.495,0.242-0.901,0.33-1.573,0.33c-1.133,0-2.178-0.715-2.178-2.013c0-1.607,1.188-2.906,2.597-2.906
		c1.154,0,1.914,0.66,1.914,1.772c0,0.297-0.056,0.627-0.177,0.99h-3.387V8.692z M249.575,7.999h2.464
		c0.044-0.132,0.066-0.274,0.066-0.406c0-0.496-0.33-0.859-1.012-0.859C250.411,6.734,249.828,7.25,249.575,7.999z"/>
	<path d="M256.307,5.93c0.704,0,1.255,0.518,1.431,1.09l0.803-3.499h-0.88l0.198-0.813h1.826l-1.562,6.667
		c-0.044,0.209-0.077,0.374-0.077,0.483c0,0.209,0.088,0.33,0.275,0.33s0.396-0.165,0.627-0.77l0.43,0.153
		c-0.286,0.946-0.793,1.266-1.31,1.266c-0.572,0-0.924-0.385-0.924-0.969V9.825c-0.396,0.572-0.969,1.023-1.684,1.023
		c-0.946,0-1.64-0.748-1.64-1.893C253.821,7.317,254.955,5.93,256.307,5.93z M257.54,7.955c0-0.715-0.385-1.177-1.1-1.177
		c-0.925,0-1.617,1.001-1.617,2.069c0,0.682,0.362,1.177,1.022,1.177C256.792,10.023,257.54,9.012,257.54,7.955z"/>
	<path d="M262.456,5.93c0.704,0,1.255,0.518,1.431,1.09l0.803-3.499h-0.88l0.198-0.813h1.826l-1.562,6.667
		c-0.044,0.209-0.077,0.374-0.077,0.483c0,0.209,0.088,0.33,0.275,0.33s0.396-0.165,0.627-0.77l0.43,0.153
		c-0.286,0.946-0.793,1.266-1.31,1.266c-0.572,0-0.924-0.385-0.924-0.969V9.825c-0.396,0.572-0.969,1.023-1.684,1.023
		c-0.946,0-1.64-0.748-1.64-1.893C259.969,7.317,261.103,5.93,262.456,5.93z M263.688,7.955c0-0.715-0.385-1.177-1.1-1.177
		c-0.925,0-1.617,1.001-1.617,2.069c0,0.682,0.362,1.177,1.022,1.177C262.94,10.023,263.688,9.012,263.688,7.955z"/>
	<path d="M266.514,9.881c0-0.144,0.033-0.353,0.077-0.518l0.66-2.531h-0.891l0.209-0.813h1.858l-0.88,3.356
		c-0.055,0.187-0.077,0.374-0.077,0.483c0,0.209,0.11,0.33,0.286,0.33c0.221,0,0.418-0.165,0.649-0.77l0.429,0.153
		c-0.286,0.946-0.748,1.266-1.331,1.266C266.867,10.838,266.514,10.453,266.514,9.881z M267.439,4.578
		c0-0.353,0.285-0.639,0.638-0.639c0.341,0,0.638,0.286,0.638,0.639c0,0.352-0.297,0.638-0.638,0.638
		C267.724,5.215,267.439,4.929,267.439,4.578z"/>
	<path d="M272.763,9.892c0-0.154,0.032-0.363,0.076-0.539l0.407-1.431c0.056-0.187,0.077-0.329,0.077-0.484
		c0-0.418-0.286-0.693-0.715-0.693c-0.583,0-1.133,0.495-1.375,1.442l-0.639,2.574h-0.968l0.99-3.928h-0.88l0.209-0.813h1.694
		l-0.254,1.11c0.374-0.66,0.99-1.188,1.64-1.188c0.726,0,1.287,0.495,1.287,1.342c0,0.232-0.044,0.496-0.121,0.771l-0.407,1.396
		c-0.033,0.144-0.065,0.298-0.065,0.386c0,0.22,0.109,0.352,0.297,0.352c0.187,0,0.396-0.165,0.616-0.77l0.429,0.153
		c-0.253,0.858-0.704,1.266-1.287,1.266C273.125,10.838,272.763,10.441,272.763,9.892z"/>
	<path d="M275.667,12.411c-0.209-0.209-0.275-0.385-0.275-0.616c0-0.385,0.265-0.649,0.605-0.649s0.583,0.275,0.583,0.595
		c0,0.099-0.021,0.209-0.066,0.286c0.144,0.088,0.43,0.176,0.793,0.176c0.45,0,0.77-0.121,1.045-0.396
		c0.253-0.242,0.407-0.627,0.528-1.144l0.209-0.892c-0.407,0.572-0.979,0.936-1.629,0.936c-1.066,0-1.727-0.76-1.727-1.903
		c0-1.541,1.066-2.873,2.508-2.873c0.814,0,1.299,0.551,1.464,1.078l0.297-1.012h0.891l-1.133,4.885
		c-0.144,0.638-0.341,1.111-0.693,1.475c-0.418,0.406-0.968,0.604-1.738,0.604C276.667,12.961,275.953,12.697,275.667,12.411z
		 M279.506,7.911c0-0.705-0.462-1.133-1.145-1.133c-0.924,0-1.628,0.88-1.628,1.958c0,0.704,0.462,1.145,1.122,1.145
		C278.802,9.881,279.506,8.935,279.506,7.911z"/>
	<path d="M289.097,2.708h0.836v10.253h-0.836V2.708z"/>
	<path d="M298.094,9.869h0.825l1.265-5.457h-0.935l0.197-0.892h2.432c0.341,0,0.649,0.044,0.924,0.11
		c1.046,0.275,1.585,1.023,1.585,1.958c0,1.441-1.134,2.652-3.069,2.652c-0.386,0-0.825-0.011-1.023-0.021l-0.385,1.649h0.99
		l-0.21,0.892h-2.805L298.094,9.869z M303.375,5.644c0-0.571-0.318-0.979-0.935-1.154c-0.198-0.056-0.43-0.077-0.66-0.077h-0.595
		l-0.682,2.926c0.253,0.012,0.605,0.022,0.936,0.022C302.714,7.361,303.375,6.569,303.375,5.644z"/>
	<path d="M304.375,8.747c0-1.453,1.133-2.817,2.685-2.817c1.364,0,2.134,0.979,2.134,2.113c0,1.441-1.133,2.806-2.684,2.806
		C305.146,10.849,304.375,9.869,304.375,8.747z M308.226,8.032c0-0.815-0.528-1.288-1.21-1.288c-0.924,0-1.673,0.892-1.673,2.002
		c0,0.825,0.528,1.299,1.211,1.299C307.478,10.046,308.226,9.144,308.226,8.032z"/>
	<path d="M311.052,6.833h-0.88l0.209-0.813h1.693l-0.308,1.331c0.583-0.936,1.133-1.408,1.65-1.408c0.385,0,0.704,0.274,0.704,0.66
		c0,0.374-0.309,0.671-0.66,0.671c-0.33,0-0.583-0.221-0.638-0.484c-0.342,0.154-1.013,0.826-1.266,1.849l-0.528,2.123h-0.968
		L311.052,6.833z"/>
	<path d="M316.41,6.833l-0.605,2.432c-0.044,0.165-0.066,0.319-0.066,0.418c0,0.264,0.154,0.407,0.374,0.407
		c0.254,0,0.484-0.11,0.946-0.418l0.342,0.462c-0.616,0.539-1.134,0.704-1.596,0.704c-0.583,0-1.045-0.33-1.045-1.001
		c0-0.165,0.033-0.353,0.077-0.572l0.604-2.432h-0.857l0.187-0.813h0.869l0.275-1.079l1.056-0.362l-0.363,1.441h1.452l-0.209,0.813
		C317.851,6.833,316.41,6.833,316.41,6.833z"/>
	<path d="M318.323,8.956c0-1.618,1.122-3.026,2.498-3.026c0.715,0,1.254,0.518,1.419,1.122l0.308-1.056h0.902l-0.836,3.378
		c-0.055,0.197-0.088,0.374-0.088,0.483c0,0.209,0.099,0.33,0.286,0.33c0.176,0,0.396-0.165,0.616-0.77l0.429,0.153
		c-0.286,0.946-0.781,1.266-1.31,1.266c-0.561,0-0.913-0.385-0.913-0.957V9.825c-0.407,0.562-0.979,1.023-1.694,1.023
		C318.995,10.849,318.323,10.111,318.323,8.956z M322.02,7.944c0-0.705-0.353-1.167-1.078-1.167c-0.925,0-1.617,1.001-1.617,2.069
		c0,0.693,0.341,1.177,1.001,1.177C321.293,10.023,322.02,8.979,322.02,7.944z"/>
	<path d="M326.342,9.869h0.66l3.234-5.468h-0.858l0.198-0.88h3.642l-0.209,0.88h-0.814l0.704,5.468h0.76l-0.21,0.892h-2.508
		l0.198-0.88h0.813l-0.187-1.529h-2.883l-0.891,1.529h0.957l-0.209,0.88h-2.607L326.342,9.869z M331.656,7.504l-0.396-3.179
		l-1.882,3.179H331.656z"/>
	<path d="M335.417,6.833h-0.88l0.209-0.813h1.693l-0.308,1.331c0.583-0.936,1.133-1.408,1.65-1.408c0.385,0,0.704,0.274,0.704,0.66
		c0,0.374-0.309,0.671-0.66,0.671c-0.33,0-0.583-0.221-0.638-0.484c-0.342,0.154-1.013,0.826-1.266,1.849l-0.528,2.123h-0.968
		L335.417,6.833z"/>
	<path d="M340.775,6.833l-0.605,2.432c-0.044,0.165-0.066,0.319-0.066,0.418c0,0.264,0.154,0.407,0.374,0.407
		c0.254,0,0.484-0.11,0.946-0.418l0.342,0.462c-0.616,0.539-1.134,0.704-1.596,0.704c-0.583,0-1.045-0.33-1.045-1.001
		c0-0.165,0.033-0.353,0.077-0.572l0.604-2.432h-0.857l0.187-0.813h0.869l0.275-1.079l1.056-0.362l-0.363,1.441h1.452l-0.209,0.813
		C342.216,6.833,340.775,6.833,340.775,6.833z"/>
	<path d="M344.943,9.177c0-0.506,0.318-0.848,0.736-0.848c0.363,0,0.639,0.297,0.639,0.627c0,0.209-0.088,0.419-0.275,0.551
		c0.231,0.286,0.771,0.517,1.519,0.517c0.803,0,1.441-0.418,1.441-1.111c0-0.571-0.463-0.924-1.232-1.353
		c-0.88-0.507-1.717-1.09-1.717-2.179c0-1.045,0.946-1.991,2.454-1.991c1.353,0,2.299,0.792,2.299,1.529
		c0,0.495-0.297,0.847-0.715,0.847c-0.363,0-0.639-0.286-0.639-0.638c0-0.165,0.066-0.352,0.242-0.506
		c-0.143-0.176-0.571-0.363-1.188-0.363c-0.869,0-1.408,0.473-1.408,1.034c0,0.627,0.527,0.99,1.319,1.441
		c0.848,0.473,1.64,1.068,1.64,2.09c0,1.166-1.001,2.068-2.553,2.068C346.053,10.893,344.943,10.034,344.943,9.177z"/>
	<path d="M352.609,3.521h-0.891l0.209-0.813h1.815l-0.99,4.235c0.341-0.528,0.902-1.001,1.529-1.001
		c0.726,0,1.309,0.495,1.309,1.342c0,0.232-0.032,0.496-0.12,0.771l-0.386,1.408c-0.033,0.143-0.055,0.286-0.055,0.374
		c0,0.22,0.11,0.352,0.286,0.352c0.198,0,0.396-0.165,0.616-0.77l0.429,0.153c-0.253,0.858-0.693,1.266-1.287,1.266
		c-0.649,0-1.012-0.396-1.012-0.946c0-0.154,0.032-0.352,0.076-0.528l0.396-1.441c0.055-0.187,0.066-0.329,0.066-0.484
		c0-0.418-0.298-0.693-0.727-0.693c-0.583,0-1.155,0.484-1.375,1.463l-0.595,2.553h-0.968L352.609,3.521z"/>
	<path d="M356.988,8.747c0-1.453,1.133-2.817,2.685-2.817c1.364,0,2.134,0.979,2.134,2.113c0,1.441-1.133,2.806-2.684,2.806
		C357.758,10.849,356.988,9.869,356.988,8.747z M360.838,8.032c0-0.815-0.528-1.288-1.21-1.288c-0.924,0-1.673,0.892-1.673,2.002
		c0,0.825,0.528,1.299,1.211,1.299C360.09,10.046,360.838,9.144,360.838,8.032z"/>
	<path d="M363.236,6.833h-0.869l0.209-0.813h1.485l0.209,3.597l1.684-3.058h0.55l0.638,3.146c0.639-0.979,1.188-1.902,1.266-2.531
		c-0.242-0.055-0.484-0.264-0.484-0.604c0-0.353,0.275-0.639,0.639-0.639c0.429,0,0.736,0.319,0.736,0.837
		c0,0.803-0.704,2.167-2.112,4.125h-0.571l-0.627-2.894l-1.706,2.894h-0.638L363.236,6.833z"/>
</g>
</svg>
