<?xml version="1.0" encoding="utf-8"?>
<!-- Generator: Adobe Illustrator 16.0.0, SVG Export Plug-In . SVG Version: 6.00 Build 0)  -->
<!DOCTYPE svg PUBLIC "-//W3C//DTD SVG 1.1//EN" "http://www.w3.org/Graphics/SVG/1.1/DTD/svg11.dtd">
<svg version="1.1" id="Layer_1" xmlns="http://www.w3.org/2000/svg" xmlns:xlink="http://www.w3.org/1999/xlink" x="0px" y="0px"
	 width="108.5px" height="16.458px" viewBox="0 0 108.5 16.458" enable-background="new 0 0 108.5 16.458" xml:space="preserve">
<g>
	<g enable-background="new    ">
		<path fill="#010101" d="M2.88,8.094V8.058c0-3.635,2.798-6.486,6.577-6.486c2.548,0,4.188,1.068,5.293,2.602l-2.603,2.014
			c-0.713-0.891-1.532-1.461-2.727-1.461c-1.747,0-2.977,1.479-2.977,3.297v0.035c0,1.872,1.23,3.333,2.977,3.333
			c1.301,0,2.067-0.605,2.816-1.515l2.602,1.854c-1.176,1.622-2.763,2.816-5.525,2.816C5.75,14.546,2.88,11.819,2.88,8.094z"/>
		<path fill="#010101" d="M20.485,1.732h3.333l5.311,12.564h-3.707l-0.909-2.228h-4.812l-0.892,2.228h-3.636L20.485,1.732z
			 M23.514,9.377l-1.39-3.547l-1.408,3.547H23.514z"/>
		<path fill="#010101" d="M30.302,1.821h3.457v9.446h6.042v3.029h-9.499V1.821z"/>
		<path fill="#010101" d="M41.243,1.821h10.034v2.94h-6.612v1.89h5.988v2.727h-5.988v1.979h6.701v2.94H41.243V1.821z"/>
		<path fill="#010101" d="M53.092,1.821h3.226l5.133,6.595V1.821h3.422v12.476h-3.03l-5.329-6.844v6.844h-3.421V1.821z"/>
		<path fill="#010101" d="M67.043,1.821h4.812c4.455,0,7.04,2.566,7.04,6.167v0.035c0,3.6-2.62,6.273-7.11,6.273h-4.742V1.821z
			 M71.909,11.231c2.067,0,3.44-1.141,3.44-3.154V8.041c0-1.996-1.373-3.154-3.44-3.154h-1.407v6.345H71.909z"/>
		<path fill="#010101" d="M84.061,1.732h3.333l5.312,12.564h-3.707l-0.91-2.228h-4.811l-0.893,2.228H78.75L84.061,1.732z
			 M87.09,9.377l-1.389-3.547l-1.408,3.547H87.09z"/>
		<path fill="#010101" d="M93.877,1.821h5.9c1.906,0,3.225,0.499,4.062,1.354c0.73,0.713,1.105,1.676,1.105,2.905v0.035
			c0,1.907-1.016,3.173-2.566,3.832l2.977,4.349h-3.992l-2.514-3.778h-0.035h-1.479v3.778h-3.459V1.821z M99.617,7.809
			c1.176,0,1.854-0.57,1.854-1.479V6.294c0-0.98-0.713-1.479-1.872-1.479h-2.263v2.994H99.617z"/>
	</g>
</g>
</svg>
