<?xml version="1.0" encoding="utf-8"?>
<!-- Generator: Adobe Illustrator 16.0.0, SVG Export Plug-In . SVG Version: 6.00 Build 0)  -->
<!DOCTYPE svg PUBLIC "-//W3C//DTD SVG 1.1//EN" "http://www.w3.org/Graphics/SVG/1.1/DTD/svg11.dtd">
<svg version="1.1" id="Layer_1" xmlns="http://www.w3.org/2000/svg" xmlns:xlink="http://www.w3.org/1999/xlink" x="0px" y="0px"
	 width="71px" height="16.458px" viewBox="0 0 71 16.458" enable-background="new 0 0 71 16.458" xml:space="preserve">
<g enable-background="new    ">
	<path fill="#010101" d="M3.088,2.222h3.654l2.976,4.83l2.977-4.83h3.653v12.476h-3.439V7.534l-3.19,4.883H9.647L6.475,7.569v7.129
		H3.088V2.222z"/>
	<path fill="#010101" d="M18.518,2.222h10.034v2.94H21.94v1.89h5.988v2.727H21.94v1.979h6.701v2.94H18.518V2.222z"/>
	<path fill="#010101" d="M30.366,2.222h3.226l5.133,6.595V2.222h3.422v12.476h-3.03l-5.329-6.844v6.844h-3.422V2.222z"/>
	<path fill="#010101" d="M44.155,9.226V2.222h3.511v6.933c0,1.801,0.909,2.656,2.299,2.656c1.391,0,2.299-0.82,2.299-2.566V2.222
		h3.512v6.915c0,4.027-2.299,5.792-5.846,5.792S44.155,13.129,44.155,9.226z"/>
	<path fill="#010101" d="M56.84,12.844l1.926-2.299c1.229,0.98,2.602,1.497,4.045,1.497c0.928,0,1.426-0.321,1.426-0.855v-0.036
		c0-0.517-0.41-0.802-2.104-1.193c-2.654-0.606-4.705-1.355-4.705-3.922V6c0-2.316,1.836-3.992,4.83-3.992
		c2.121,0,3.779,0.57,5.133,1.657l-1.729,2.442c-1.141-0.803-2.389-1.23-3.492-1.23c-0.838,0-1.248,0.356-1.248,0.803v0.035
		c0,0.57,0.428,0.82,2.156,1.212c2.869,0.624,4.652,1.551,4.652,3.886v0.035c0,2.549-2.015,4.063-5.045,4.063
		C60.477,14.912,58.373,14.216,56.84,12.844z"/>
</g>
</svg>
