<?xml version="1.0" encoding="utf-8"?>
<!-- Generator: Adobe Illustrator 17.0.0, SVG Export Plug-In . SVG Version: 6.00 Build 0)  -->
<!DOCTYPE svg PUBLIC "-//W3C//DTD SVG 1.1//EN" "http://www.w3.org/Graphics/SVG/1.1/DTD/svg11.dtd">
<svg version="1.1" id="Layer_1" xmlns="http://www.w3.org/2000/svg" xmlns:xlink="http://www.w3.org/1999/xlink" x="0px" y="0px"
	 width="84.454px" height="8.208px" viewBox="366.067 14.132 84.454 8.208" enable-background="new 366.067 14.132 84.454 8.208"
	 xml:space="preserve">
<rect x="-65.436" y="-307.28" fill="none" width="470" height="126"/>
<text transform="matrix(1 0 0 1 -61.3159 -299.2287)" font-family="'Archer-SemiboldItalic'" font-size="11">Italy Before the Tomatoes   |   The Allegory of Spring   |   An Al Fresco Affair   |   Northern Exposure   </text>
<text transform="matrix(1 0 0 1 -53.3759 -283.0288)" font-family="'Archer-SemiboldItalic'" font-size="11">Curious Giorgio   |   Weird Science   |   Bacchanalia   |   Back to the Earth   |   Hail to the Truffle</text>
<rect x="1.802" y="0" fill="none" width="470" height="126"/>
<g enable-background="new    ">
	<path d="M6.153,7.16h0.902L8.32,1.704H7.341L7.55,0.812h2.882l-0.198,0.892H9.321L8.056,7.16h0.979L8.826,8.052H5.944L6.153,7.16z"
		/>
	<path d="M12.236,4.124l-0.605,2.432c-0.044,0.165-0.066,0.319-0.066,0.418c0,0.264,0.154,0.407,0.374,0.407
		c0.253,0,0.484-0.11,0.946-0.418l0.341,0.462c-0.616,0.539-1.133,0.704-1.595,0.704c-0.583,0-1.045-0.33-1.045-1.001
		c0-0.165,0.033-0.353,0.077-0.572l0.605-2.432H10.41l0.187-0.813h0.869l0.275-1.079l1.056-0.362l-0.363,1.44h1.452l-0.209,0.813
		L12.236,4.124L12.236,4.124z"/>
	<path d="M14.15,6.247c0-1.617,1.122-3.025,2.497-3.025c0.715,0,1.254,0.518,1.419,1.122l0.308-1.056h0.902L18.44,6.666
		c-0.055,0.197-0.088,0.374-0.088,0.483c0,0.209,0.099,0.33,0.286,0.33c0.176,0,0.396-0.165,0.616-0.77l0.429,0.153
		c-0.286,0.946-0.781,1.266-1.309,1.266c-0.561,0-0.913-0.385-0.913-0.957V7.116c-0.407,0.562-0.979,1.023-1.694,1.023
		C14.821,8.139,14.15,7.402,14.15,6.247z M17.846,5.235c0-0.704-0.352-1.166-1.078-1.166c-0.924,0-1.617,1.001-1.617,2.068
		c0,0.693,0.341,1.177,1.001,1.177C17.12,7.314,17.846,6.269,17.846,5.235z"/>
	<path d="M20.508,7.16c0-0.143,0.033-0.318,0.066-0.494l1.364-5.854h-0.891l0.209-0.813h1.826l-1.54,6.655
		c-0.044,0.188-0.077,0.363-0.077,0.474c0,0.23,0.099,0.352,0.286,0.352c0.22,0,0.418-0.165,0.649-0.77l0.418,0.153
		c-0.286,0.946-0.749,1.266-1.32,1.266C20.849,8.129,20.508,7.744,20.508,7.16z"/>
	<path d="M22.223,9.558c0-0.352,0.264-0.615,0.594-0.615c0.275,0,0.506,0.187,0.572,0.473c0.264-0.011,0.737-0.396,1.694-1.552
		l-0.77-3.74h-0.836l0.209-0.813h1.452l0.638,3.784c0.748-0.99,1.419-1.914,1.595-2.597C27.13,4.41,26.91,4.19,26.91,3.86
		c0-0.341,0.275-0.639,0.649-0.639c0.451,0,0.737,0.33,0.737,0.858c0,0.639-0.429,1.617-2.189,3.796
		c-1.672,2.057-2.343,2.376-3.059,2.376C22.564,10.252,22.223,9.932,22.223,9.558z"/>
	<path d="M31.045,7.16h0.825l1.266-5.456H32.2l0.198-0.892h2.475c0.66,0,1.177,0.088,1.573,0.297
		c0.55,0.286,0.891,0.814,0.891,1.441c0,0.979-0.792,1.673-1.771,1.815c0.737,0.209,1.298,0.803,1.298,1.529
		c0,0.605-0.231,1.1-0.649,1.463c-0.341,0.297-0.825,0.506-1.397,0.605c-0.308,0.065-0.66,0.088-1.023,0.088h-2.959L31.045,7.16z
		 M33.938,7.182c0.275,0,0.528-0.033,0.737-0.077c0.363-0.077,0.627-0.209,0.825-0.407c0.22-0.22,0.33-0.506,0.33-0.857
		c0-0.649-0.605-1.09-1.628-1.09h-0.77L32.86,7.182H33.938z M34.312,3.948c1.232,0,1.991-0.462,1.991-1.287
		c0-0.341-0.176-0.66-0.539-0.814c-0.242-0.099-0.572-0.165-1.023-0.165h-0.605l-0.528,2.267L34.312,3.948L34.312,3.948z"/>
	<path d="M38.756,5.983v0.165c0,0.715,0.572,1.188,1.43,1.188c0.506,0,0.968-0.11,1.562-0.43l-0.187,0.902
		c-0.495,0.242-0.902,0.33-1.573,0.33c-1.133,0-2.178-0.715-2.178-2.013c0-1.606,1.188-2.905,2.596-2.905
		c1.155,0,1.914,0.66,1.914,1.771c0,0.297-0.055,0.627-0.176,0.99h-3.388V5.983z M38.889,5.29h2.464
		c0.044-0.132,0.066-0.274,0.066-0.406c0-0.495-0.33-0.858-1.012-0.858S39.141,4.542,38.889,5.29z"/>
	<path d="M44.091,4.124h-0.825l0.198-0.813h0.814l0.308-1.31c0.165-0.727,0.418-1.188,0.759-1.529
		c0.363-0.363,0.858-0.539,1.353-0.539c0.627,0,0.946,0.341,0.946,0.715s-0.297,0.616-0.616,0.616s-0.572-0.209-0.605-0.506
		c-0.154,0.033-0.297,0.121-0.396,0.22c-0.22,0.221-0.385,0.583-0.517,1.122l-0.275,1.21h1.243l-0.209,0.813h-1.221l-0.902,3.928
		h-0.958L44.091,4.124z"/>
	<path d="M46.423,6.038c0-1.452,1.133-2.816,2.685-2.816c1.364,0,2.134,0.979,2.134,2.112c0,1.441-1.133,2.806-2.685,2.806
		C47.193,8.139,46.423,7.16,46.423,6.038z M50.274,5.323c0-0.814-0.528-1.287-1.21-1.287c-0.924,0-1.672,0.892-1.672,2.002
		c0,0.825,0.528,1.299,1.21,1.299C49.526,7.337,50.274,6.434,50.274,5.323z"/>
	<path d="M53.1,4.124h-0.88l0.209-0.813h1.694l-0.308,1.331c0.583-0.936,1.133-1.408,1.65-1.408c0.385,0,0.704,0.274,0.704,0.66
		c0,0.374-0.308,0.671-0.66,0.671c-0.33,0-0.583-0.221-0.638-0.484c-0.341,0.154-1.012,0.825-1.265,1.849l-0.528,2.123H52.11
		L53.1,4.124z"/>
	<path d="M57.203,5.983v0.165c0,0.715,0.572,1.188,1.43,1.188c0.506,0,0.968-0.11,1.562-0.43l-0.187,0.902
		c-0.495,0.242-0.902,0.33-1.573,0.33c-1.133,0-2.178-0.715-2.178-2.013c0-1.606,1.188-2.905,2.596-2.905
		c1.155,0,1.914,0.66,1.914,1.771c0,0.297-0.055,0.627-0.176,0.99h-3.388V5.983z M57.335,5.29H59.8
		c0.044-0.132,0.066-0.274,0.066-0.406c0-0.495-0.33-0.858-1.012-0.858S57.588,4.542,57.335,5.29z"/>
	<path d="M65.827,4.124l-0.605,2.432c-0.044,0.165-0.066,0.319-0.066,0.418c0,0.264,0.154,0.407,0.374,0.407
		c0.253,0,0.484-0.11,0.946-0.418l0.341,0.462c-0.616,0.539-1.133,0.704-1.595,0.704c-0.583,0-1.045-0.33-1.045-1.001
		c0-0.165,0.033-0.353,0.077-0.572l0.605-2.432h-0.858l0.187-0.813h0.869l0.275-1.079l1.056-0.362l-0.363,1.44h1.452l-0.209,0.813
		L65.827,4.124L65.827,4.124z"/>
	<path d="M69.237,0.812h-0.891l0.209-0.813h1.815l-0.99,4.235c0.341-0.528,0.902-1.001,1.529-1.001c0.726,0,1.309,0.495,1.309,1.342
		c0,0.231-0.033,0.495-0.121,0.771l-0.385,1.408c-0.033,0.143-0.055,0.286-0.055,0.374c0,0.22,0.11,0.352,0.286,0.352
		c0.198,0,0.396-0.165,0.616-0.77l0.429,0.153c-0.253,0.858-0.693,1.266-1.287,1.266c-0.649,0-1.012-0.396-1.012-0.946
		c0-0.154,0.033-0.352,0.077-0.528l0.396-1.441c0.055-0.187,0.066-0.329,0.066-0.483c0-0.418-0.297-0.693-0.726-0.693
		c-0.583,0-1.155,0.484-1.375,1.463l-0.594,2.553h-0.968L69.237,0.812z"/>
	<path d="M74.55,5.983v0.165c0,0.715,0.572,1.188,1.43,1.188c0.506,0,0.968-0.11,1.562-0.43l-0.187,0.902
		c-0.495,0.242-0.902,0.33-1.573,0.33c-1.133,0-2.178-0.715-2.178-2.013c0-1.606,1.188-2.905,2.596-2.905
		c1.155,0,1.914,0.66,1.914,1.771c0,0.297-0.055,0.627-0.176,0.99H74.55V5.983z M74.682,5.29h2.464
		c0.044-0.132,0.066-0.274,0.066-0.406c0-0.495-0.33-0.858-1.012-0.858S74.935,4.542,74.682,5.29z"/>
	<path d="M82.492,7.16h0.891l1.276-5.479h-1.606L82.8,2.826h-0.957l0.462-2.014H88.4l-0.462,2.014h-0.946l0.253-1.145H85.65
		L84.384,7.16h1.001l-0.198,0.892h-2.905L82.492,7.16z"/>
	<path d="M87.419,6.038c0-1.452,1.133-2.816,2.685-2.816c1.364,0,2.134,0.979,2.134,2.112c0,1.441-1.133,2.806-2.685,2.806
		C88.189,8.139,87.419,7.16,87.419,6.038z M91.27,5.323c0-0.814-0.528-1.287-1.21-1.287c-0.924,0-1.672,0.892-1.672,2.002
		c0,0.825,0.528,1.299,1.21,1.299C90.522,7.337,91.27,6.434,91.27,5.323z"/>
	<path d="M93.987,4.124h-0.88l0.209-0.813h1.694l-0.264,1.11c0.385-0.66,0.957-1.188,1.584-1.188c0.693,0,1.144,0.462,1.199,1.177
		c0.429-0.726,1.034-1.177,1.606-1.177c0.693,0,1.232,0.495,1.232,1.342c0,0.231-0.044,0.495-0.121,0.771l-0.407,1.396
		c-0.033,0.144-0.066,0.298-0.066,0.386c0,0.22,0.11,0.352,0.297,0.352s0.396-0.165,0.616-0.77l0.429,0.153
		c-0.253,0.858-0.704,1.266-1.287,1.266c-0.649,0-1.012-0.396-1.012-0.946c0-0.154,0.033-0.363,0.077-0.539l0.396-1.386
		c0.066-0.198,0.088-0.374,0.088-0.528c0-0.43-0.286-0.693-0.649-0.693c-0.55,0-1.078,0.506-1.332,1.507l-0.638,2.509H95.79
		l0.715-2.783c0.044-0.209,0.077-0.407,0.077-0.562c0-0.385-0.264-0.671-0.649-0.671c-0.55,0-1.1,0.518-1.342,1.496l-0.627,2.52
		h-0.968L93.987,4.124z"/>
	<path d="M101.774,6.247c0-1.617,1.122-3.025,2.497-3.025c0.715,0,1.254,0.518,1.419,1.122l0.308-1.056h0.902l-0.836,3.378
		c-0.055,0.197-0.088,0.374-0.088,0.483c0,0.209,0.099,0.33,0.286,0.33c0.176,0,0.396-0.165,0.616-0.77l0.429,0.153
		c-0.286,0.946-0.781,1.266-1.309,1.266c-0.561,0-0.913-0.385-0.913-0.957V7.116c-0.407,0.562-0.979,1.023-1.694,1.023
		C102.445,8.139,101.774,7.402,101.774,6.247z M105.471,5.235c0-0.704-0.352-1.166-1.078-1.166c-0.924,0-1.617,1.001-1.617,2.068
		c0,0.693,0.341,1.177,1.001,1.177C104.745,7.314,105.471,6.269,105.471,5.235z"/>
	<path d="M109.98,4.124l-0.605,2.432c-0.044,0.165-0.066,0.319-0.066,0.418c0,0.264,0.154,0.407,0.374,0.407
		c0.253,0,0.484-0.11,0.946-0.418l0.341,0.462c-0.616,0.539-1.133,0.704-1.595,0.704c-0.583,0-1.045-0.33-1.045-1.001
		c0-0.165,0.033-0.353,0.077-0.572l0.605-2.432h-0.858l0.187-0.813h0.869l0.275-1.079l1.056-0.362l-0.363,1.441h1.452l-0.209,0.813
		C111.421,4.124,109.98,4.124,109.98,4.124z"/>
	<path d="M111.883,6.038c0-1.452,1.133-2.816,2.685-2.816c1.364,0,2.134,0.979,2.134,2.112c0,1.441-1.133,2.806-2.685,2.806
		C112.653,8.139,111.883,7.16,111.883,6.038z M115.733,5.323c0-0.814-0.528-1.287-1.21-1.287c-0.924,0-1.672,0.892-1.672,2.002
		c0,0.825,0.528,1.299,1.21,1.299C114.985,7.337,115.733,6.434,115.733,5.323z"/>
	<path d="M118.472,5.983v0.165c0,0.715,0.572,1.188,1.43,1.188c0.506,0,0.968-0.11,1.562-0.43l-0.187,0.902
		c-0.495,0.242-0.902,0.33-1.573,0.33c-1.133,0-2.178-0.715-2.178-2.013c0-1.606,1.188-2.905,2.596-2.905
		c1.155,0,1.914,0.66,1.914,1.771c0,0.297-0.055,0.627-0.176,0.99h-3.388V5.983z M118.604,5.29h2.464
		c0.044-0.132,0.066-0.274,0.066-0.406c0-0.495-0.33-0.858-1.012-0.858S118.857,4.542,118.604,5.29z"/>
	<path d="M122.949,7.535c-0.188-0.188-0.297-0.396-0.297-0.628c0-0.352,0.242-0.615,0.561-0.615c0.308,0,0.528,0.241,0.528,0.527
		c0,0.11-0.044,0.231-0.11,0.309c0.044,0.044,0.099,0.077,0.176,0.121c0.22,0.109,0.539,0.187,0.88,0.187
		c0.495,0,0.914-0.198,0.914-0.583c0-0.396-0.473-0.594-1.001-0.825c-0.66-0.297-1.298-0.627-1.298-1.386
		c0-0.76,0.649-1.42,1.827-1.42c0.649,0,1.199,0.209,1.507,0.528c0.176,0.176,0.275,0.396,0.275,0.616
		c0,0.363-0.253,0.605-0.55,0.605c-0.297,0-0.539-0.242-0.539-0.528c0-0.1,0.022-0.176,0.099-0.309
		c-0.033-0.021-0.077-0.055-0.165-0.088c-0.165-0.065-0.396-0.109-0.638-0.109c-0.484,0-0.869,0.197-0.869,0.539
		c0,0.362,0.473,0.571,1.023,0.825c0.649,0.297,1.276,0.648,1.276,1.386c0,0.936-0.759,1.452-1.881,1.452
		C123.939,8.139,123.301,7.897,122.949,7.535z"/>
	<path d="M135.148-0.001h0.836v10.253h-0.836V-0.001z"/>
	<path d="M145.652,7.16h0.892l1.276-5.479h-1.606l-0.253,1.145h-0.957l0.462-2.014h6.095l-0.462,2.014h-0.946l0.253-1.145h-1.596
		l-1.265,5.479h1.001l-0.198,0.892h-2.904L145.652,7.16z"/>
	<path d="M152.703,0.812h-0.891l0.209-0.813h1.815l-0.99,4.235c0.341-0.528,0.902-1.001,1.529-1.001
		c0.726,0,1.309,0.495,1.309,1.342c0,0.231-0.032,0.495-0.12,0.771l-0.386,1.408c-0.033,0.143-0.055,0.286-0.055,0.374
		c0,0.22,0.11,0.352,0.286,0.352c0.198,0,0.396-0.165,0.616-0.77l0.429,0.153c-0.253,0.858-0.693,1.266-1.287,1.266
		c-0.649,0-1.012-0.396-1.012-0.946c0-0.154,0.032-0.352,0.076-0.528l0.396-1.441c0.055-0.187,0.066-0.329,0.066-0.483
		c0-0.418-0.298-0.693-0.727-0.693c-0.583,0-1.155,0.484-1.375,1.463l-0.595,2.553h-0.968L152.703,0.812z"/>
	<path d="M158.016,5.983v0.165c0,0.715,0.571,1.188,1.43,1.188c0.506,0,0.969-0.11,1.562-0.43l-0.188,0.902
		c-0.495,0.242-0.901,0.33-1.573,0.33c-1.133,0-2.178-0.715-2.178-2.013c0-1.606,1.188-2.905,2.597-2.905
		c1.154,0,1.914,0.66,1.914,1.771c0,0.297-0.056,0.627-0.177,0.99h-3.387V5.983z M158.148,5.29h2.464
		c0.044-0.132,0.066-0.274,0.066-0.406c0-0.495-0.33-0.858-1.012-0.858C158.984,4.025,158.401,4.542,158.148,5.29z"/>
	<path d="M164.165,7.16h0.66l3.234-5.468h-0.858l0.198-0.88h3.642l-0.209,0.88h-0.814l0.704,5.468h0.76l-0.21,0.892h-2.508
		l0.198-0.88h0.813l-0.187-1.529h-2.883l-0.891,1.529h0.957l-0.209,0.88h-2.607L164.165,7.16z M169.478,4.795l-0.396-3.179
		L167.2,4.795H169.478z"/>
	<path d="M172.448,7.16c0-0.143,0.033-0.318,0.066-0.494l1.364-5.854h-0.892l0.209-0.813h1.826l-1.54,6.655
		c-0.044,0.188-0.077,0.363-0.077,0.474c0,0.23,0.1,0.352,0.286,0.352c0.22,0,0.418-0.165,0.649-0.77l0.418,0.153
		c-0.286,0.946-0.748,1.266-1.32,1.266C172.789,8.129,172.448,7.744,172.448,7.16z"/>
	<path d="M175.648,7.16c0-0.143,0.033-0.318,0.066-0.494l1.364-5.854h-0.892l0.209-0.813h1.826l-1.54,6.655
		c-0.044,0.188-0.077,0.363-0.077,0.474c0,0.23,0.1,0.352,0.286,0.352c0.22,0,0.418-0.165,0.649-0.77l0.418,0.153
		c-0.286,0.946-0.748,1.266-1.32,1.266C175.989,8.129,175.648,7.744,175.648,7.16z"/>
	<path d="M179.598,5.983v0.165c0,0.715,0.571,1.188,1.43,1.188c0.506,0,0.969-0.11,1.562-0.43l-0.188,0.902
		c-0.495,0.242-0.901,0.33-1.573,0.33c-1.133,0-2.178-0.715-2.178-2.013c0-1.606,1.188-2.905,2.597-2.905
		c1.154,0,1.914,0.66,1.914,1.771c0,0.297-0.056,0.627-0.177,0.99h-3.387V5.983z M179.729,5.29h2.464
		c0.044-0.132,0.066-0.274,0.066-0.406c0-0.495-0.33-0.858-1.012-0.858C180.565,4.025,179.982,4.542,179.729,5.29z"/>
	<path d="M183.921,9.702c-0.209-0.209-0.275-0.385-0.275-0.616c0-0.385,0.265-0.649,0.605-0.649s0.583,0.275,0.583,0.595
		c0,0.099-0.021,0.209-0.066,0.286c0.144,0.088,0.43,0.176,0.793,0.176c0.451,0,0.77-0.121,1.045-0.396
		c0.253-0.242,0.407-0.627,0.528-1.144l0.209-0.892c-0.407,0.572-0.979,0.936-1.629,0.936c-1.066,0-1.727-0.76-1.727-1.903
		c0-1.54,1.066-2.872,2.508-2.872c0.814,0,1.299,0.551,1.464,1.078l0.297-1.012h0.891l-1.133,4.885
		c-0.144,0.638-0.341,1.111-0.693,1.475c-0.418,0.406-0.968,0.604-1.738,0.604C184.922,10.252,184.207,9.988,183.921,9.702z
		 M187.761,5.202c0-0.704-0.462-1.133-1.145-1.133c-0.924,0-1.628,0.88-1.628,1.958c0,0.704,0.462,1.145,1.122,1.145
		C187.057,7.172,187.761,6.225,187.761,5.202z"/>
	<path d="M189.762,6.038c0-1.452,1.133-2.816,2.685-2.816c1.364,0,2.134,0.979,2.134,2.112c0,1.441-1.133,2.806-2.684,2.806
		C190.532,8.139,189.762,7.16,189.762,6.038z M193.612,5.323c0-0.814-0.528-1.287-1.21-1.287c-0.924,0-1.673,0.892-1.673,2.002
		c0,0.825,0.528,1.299,1.211,1.299C192.864,7.337,193.612,6.434,193.612,5.323z"/>
	<path d="M196.438,4.124h-0.88l0.209-0.813h1.693l-0.308,1.331c0.583-0.936,1.133-1.408,1.65-1.408c0.385,0,0.704,0.274,0.704,0.66
		c0,0.374-0.309,0.671-0.66,0.671c-0.33,0-0.583-0.221-0.638-0.484c-0.342,0.154-1.013,0.825-1.266,1.849l-0.528,2.123h-0.968
		L196.438,4.124z"/>
	<path d="M198.462,9.558c0-0.352,0.265-0.615,0.595-0.615c0.274,0,0.506,0.187,0.571,0.473c0.265-0.011,0.737-0.396,1.694-1.552
		l-0.77-3.74h-0.837l0.209-0.813h1.453l0.638,3.784c0.748-0.99,1.419-1.914,1.595-2.597c-0.241-0.088-0.462-0.308-0.462-0.638
		c0-0.341,0.275-0.639,0.649-0.639c0.451,0,0.737,0.33,0.737,0.858c0,0.639-0.43,1.617-2.189,3.796
		c-1.672,2.057-2.344,2.376-3.059,2.376C198.803,10.252,198.462,9.932,198.462,9.558z"/>
	<path d="M207.504,6.038c0-1.452,1.133-2.816,2.685-2.816c1.364,0,2.134,0.979,2.134,2.112c0,1.441-1.133,2.806-2.684,2.806
		C208.274,8.139,207.504,7.16,207.504,6.038z M211.354,5.323c0-0.814-0.528-1.287-1.21-1.287c-0.924,0-1.673,0.892-1.673,2.002
		c0,0.825,0.528,1.299,1.211,1.299C210.606,7.337,211.354,6.434,211.354,5.323z"/>
	<path d="M214.026,4.124h-0.824l0.197-0.813h0.814l0.308-1.31c0.165-0.727,0.419-1.188,0.76-1.529
		c0.363-0.363,0.857-0.539,1.353-0.539c0.628,0,0.946,0.341,0.946,0.715s-0.297,0.616-0.616,0.616c-0.318,0-0.571-0.209-0.604-0.506
		c-0.154,0.033-0.297,0.121-0.396,0.22c-0.22,0.221-0.385,0.583-0.517,1.122l-0.275,1.211h1.243l-0.209,0.813h-1.221l-0.902,3.928
		h-0.957L214.026,4.124z"/>
	<path d="M218.878,6.468c0-0.506,0.318-0.848,0.736-0.848c0.363,0,0.639,0.297,0.639,0.627c0,0.209-0.088,0.419-0.275,0.551
		c0.231,0.286,0.771,0.517,1.519,0.517c0.803,0,1.441-0.418,1.441-1.111c0-0.571-0.463-0.924-1.232-1.353
		c-0.88-0.507-1.717-1.09-1.717-2.179c0-1.045,0.946-1.991,2.454-1.991c1.353,0,2.299,0.792,2.299,1.529
		c0,0.495-0.297,0.847-0.715,0.847c-0.363,0-0.639-0.286-0.639-0.638c0-0.165,0.066-0.352,0.242-0.506
		c-0.143-0.176-0.571-0.363-1.188-0.363c-0.869,0-1.408,0.473-1.408,1.034c0,0.627,0.527,0.99,1.319,1.441
		c0.848,0.473,1.64,1.067,1.64,2.09c0,1.166-1.001,2.068-2.553,2.068C219.988,8.183,218.878,7.325,218.878,6.468z"/>
	<path d="M224.037,9.416h0.704l1.243-5.292h-0.892l0.21-0.813h1.716l-0.242,1.033c0.396-0.594,0.979-1.122,1.728-1.122
		c1.067,0,1.715,0.771,1.715,1.915c0,1.649-1.143,3.003-2.53,3.003c-0.715,0-1.221-0.484-1.463-1.045l-0.539,2.321h0.924
		l-0.209,0.792h-2.574L224.037,9.416z M229.219,5.268c0-0.715-0.385-1.222-1.056-1.222c-0.946,0-1.728,1.034-1.728,2.091
		c0,0.693,0.396,1.155,1.133,1.155C228.504,7.293,229.219,6.313,229.219,5.268z"/>
	<path d="M232.1,4.124h-0.88l0.209-0.813h1.693l-0.308,1.331c0.583-0.936,1.133-1.408,1.65-1.408c0.385,0,0.704,0.274,0.704,0.66
		c0,0.374-0.309,0.671-0.66,0.671c-0.33,0-0.583-0.221-0.638-0.484c-0.342,0.154-1.013,0.825-1.266,1.849l-0.528,2.123h-0.968
		L232.1,4.124z"/>
	<path d="M235.784,7.172c0-0.144,0.033-0.353,0.077-0.518l0.66-2.53h-0.891l0.209-0.813h1.858l-0.88,3.355
		c-0.055,0.187-0.077,0.374-0.077,0.483c0,0.209,0.11,0.33,0.286,0.33c0.221,0,0.418-0.165,0.649-0.77l0.429,0.153
		c-0.286,0.946-0.748,1.266-1.331,1.266C236.136,8.129,235.784,7.744,235.784,7.172z M236.708,1.869
		c0-0.353,0.285-0.639,0.638-0.639c0.341,0,0.638,0.286,0.638,0.639c0,0.352-0.297,0.638-0.638,0.638
		C236.994,2.507,236.708,2.22,236.708,1.869z"/>
	<path d="M242.033,7.182c0-0.154,0.032-0.363,0.076-0.539l0.407-1.431c0.056-0.187,0.077-0.329,0.077-0.483
		c0-0.418-0.286-0.693-0.715-0.693c-0.583,0-1.133,0.495-1.375,1.441l-0.639,2.574h-0.968l0.99-3.928h-0.88l0.209-0.813h1.693
		l-0.253,1.11c0.374-0.66,0.99-1.188,1.64-1.188c0.727,0,1.287,0.495,1.287,1.342c0,0.231-0.044,0.495-0.121,0.771l-0.407,1.396
		c-0.032,0.144-0.065,0.298-0.065,0.386c0,0.22,0.109,0.352,0.297,0.352c0.187,0,0.396-0.165,0.616-0.77l0.429,0.153
		c-0.253,0.858-0.704,1.266-1.287,1.266C242.395,8.129,242.033,7.732,242.033,7.182z"/>
	<path d="M244.936,9.702c-0.209-0.209-0.275-0.385-0.275-0.616c0-0.385,0.265-0.649,0.605-0.649s0.583,0.275,0.583,0.595
		c0,0.099-0.021,0.209-0.066,0.286c0.144,0.088,0.43,0.176,0.793,0.176c0.451,0,0.77-0.121,1.045-0.396
		c0.253-0.242,0.407-0.627,0.528-1.144l0.209-0.892c-0.407,0.572-0.979,0.936-1.629,0.936c-1.066,0-1.727-0.76-1.727-1.903
		c0-1.54,1.066-2.872,2.508-2.872c0.814,0,1.299,0.551,1.464,1.078l0.297-1.012h0.891l-1.133,4.885
		c-0.144,0.638-0.341,1.111-0.693,1.475c-0.418,0.406-0.968,0.604-1.738,0.604C245.937,10.252,245.222,9.988,244.936,9.702z
		 M248.776,5.202c0-0.704-0.462-1.133-1.145-1.133c-0.924,0-1.628,0.88-1.628,1.958c0,0.704,0.462,1.145,1.122,1.145
		C248.072,7.172,248.776,6.225,248.776,5.202z"/>
	<path d="M258.368-0.001h0.836v10.253h-0.836V-0.001z"/>
	<path d="M267.078,7.16h0.66l3.234-5.468h-0.858l0.198-0.88h3.642l-0.209,0.88h-0.814l0.704,5.468h0.76l-0.21,0.892h-2.508
		l0.198-0.88h0.813l-0.187-1.529h-2.883l-0.891,1.529h0.957l-0.209,0.88h-2.607L267.078,7.16z M272.392,4.795l-0.396-3.179
		l-1.882,3.179H272.392z"/>
	<path d="M278.299,7.182c0-0.154,0.032-0.363,0.076-0.539l0.407-1.431c0.056-0.187,0.077-0.329,0.077-0.483
		c0-0.418-0.286-0.693-0.715-0.693c-0.583,0-1.133,0.495-1.375,1.441l-0.639,2.574h-0.968l0.99-3.928h-0.88l0.209-0.813h1.694
		l-0.254,1.11c0.374-0.66,0.99-1.188,1.64-1.188c0.726,0,1.287,0.495,1.287,1.342c0,0.231-0.044,0.495-0.121,0.771l-0.407,1.396
		c-0.033,0.144-0.065,0.298-0.065,0.386c0,0.22,0.109,0.352,0.297,0.352c0.187,0,0.396-0.165,0.616-0.77l0.429,0.153
		c-0.253,0.858-0.704,1.266-1.287,1.266C278.661,8.129,278.299,7.732,278.299,7.182z"/>
	<path d="M283.029,7.16h0.66l3.234-5.468h-0.858l0.198-0.88h3.642l-0.209,0.88h-0.814l0.704,5.468h0.76l-0.21,0.892h-2.508
		l0.198-0.88h0.813l-0.187-1.529h-2.883l-0.891,1.529h0.957l-0.209,0.88h-2.607L283.029,7.16z M288.342,4.795l-0.396-3.179
		l-1.882,3.179H288.342z"/>
	<path d="M291.311,7.16c0-0.143,0.033-0.318,0.066-0.494l1.364-5.854h-0.892l0.209-0.813h1.826l-1.54,6.655
		c-0.044,0.188-0.077,0.363-0.077,0.474c0,0.23,0.1,0.352,0.286,0.352c0.22,0,0.418-0.165,0.649-0.77l0.418,0.153
		c-0.286,0.946-0.748,1.266-1.32,1.266C291.652,8.129,291.311,7.744,291.311,7.16z"/>
	<path d="M296.459,7.16h0.825l1.265-5.456h-0.935l0.197-0.892h5.237l-0.462,1.903h-0.946l0.242-1.023h-2.333l-0.561,2.377h2.189
		l-0.198,0.869H298.8l-0.527,2.222h1.045l-0.209,0.892h-2.86L296.459,7.16z"/>
	<path d="M303.39,4.124h-0.88l0.209-0.813h1.694l-0.309,1.331c0.583-0.936,1.133-1.408,1.65-1.408c0.385,0,0.704,0.274,0.704,0.66
		c0,0.374-0.309,0.671-0.66,0.671c-0.33,0-0.583-0.221-0.638-0.484c-0.342,0.154-1.013,0.825-1.266,1.849l-0.528,2.123H302.4
		L303.39,4.124z"/>
	<path d="M307.493,5.983v0.165c0,0.715,0.571,1.188,1.43,1.188c0.506,0,0.969-0.11,1.562-0.43l-0.188,0.902
		c-0.495,0.242-0.901,0.33-1.573,0.33c-1.133,0-2.178-0.715-2.178-2.013c0-1.606,1.188-2.905,2.597-2.905
		c1.154,0,1.914,0.66,1.914,1.771c0,0.297-0.056,0.627-0.177,0.99h-3.387V5.983z M307.624,5.29h2.464
		c0.044-0.132,0.066-0.274,0.066-0.406c0-0.495-0.33-0.858-1.012-0.858C308.46,4.025,307.877,4.542,307.624,5.29z"/>
	<path d="M311.969,7.535c-0.188-0.188-0.297-0.396-0.297-0.628c0-0.352,0.241-0.615,0.561-0.615c0.309,0,0.528,0.241,0.528,0.527
		c0,0.11-0.044,0.231-0.11,0.309c0.044,0.044,0.1,0.077,0.176,0.121c0.221,0.109,0.539,0.187,0.881,0.187
		c0.495,0,0.913-0.198,0.913-0.583c0-0.396-0.474-0.594-1.001-0.825c-0.66-0.297-1.299-0.627-1.299-1.386
		c0-0.76,0.649-1.42,1.826-1.42c0.649,0,1.199,0.209,1.508,0.528c0.176,0.176,0.274,0.396,0.274,0.616
		c0,0.363-0.253,0.605-0.55,0.605s-0.539-0.242-0.539-0.528c0-0.1,0.022-0.176,0.099-0.309c-0.032-0.021-0.076-0.055-0.165-0.088
		c-0.165-0.065-0.396-0.109-0.638-0.109c-0.484,0-0.869,0.197-0.869,0.539c0,0.362,0.474,0.571,1.023,0.825
		c0.648,0.297,1.276,0.648,1.276,1.386c0,0.936-0.76,1.452-1.882,1.452C312.959,8.139,312.321,7.897,311.969,7.535z"/>
	<path d="M316.578,6.038c0-1.507,1.254-2.816,2.762-2.816c1.045,0,1.738,0.639,1.738,1.332c0,0.406-0.253,0.748-0.649,0.748
		c-0.297,0-0.561-0.231-0.561-0.583c0-0.144,0.076-0.319,0.197-0.419c-0.153-0.176-0.407-0.264-0.748-0.264
		c-0.857,0-1.771,0.737-1.771,1.947c0,0.825,0.551,1.354,1.354,1.354c0.55,0,1.111-0.221,1.596-0.595l-0.022,0.881
		c-0.462,0.33-1.034,0.517-1.661,0.517C317.557,8.139,316.578,7.358,316.578,6.038z"/>
	<path d="M321.792,6.038c0-1.452,1.133-2.816,2.685-2.816c1.364,0,2.134,0.979,2.134,2.112c0,1.441-1.133,2.806-2.684,2.806
		C322.563,8.139,321.792,7.16,321.792,6.038z M325.643,5.323c0-0.814-0.528-1.287-1.21-1.287c-0.924,0-1.673,0.892-1.673,2.002
		c0,0.825,0.528,1.299,1.211,1.299C324.895,7.337,325.643,6.434,325.643,5.323z"/>
	<path d="M329.228,7.16h0.66l3.234-5.468h-0.858l0.198-0.88h3.642l-0.209,0.88h-0.814l0.704,5.468h0.76l-0.21,0.892h-2.508
		l0.198-0.88h0.813l-0.187-1.529h-2.883l-0.891,1.529h0.957l-0.209,0.88h-2.607L329.228,7.16z M334.541,4.795l-0.396-3.179
		l-1.882,3.179H334.541z"/>
	<path d="M340.305,1.044c-0.088,0.021-0.176,0.077-0.253,0.154c-0.198,0.187-0.363,0.571-0.495,1.133l-0.23,0.979h2.145l0.319-1.364
		c0.154-0.66,0.396-1.167,0.748-1.508c0.319-0.308,0.759-0.506,1.31-0.506c0.616,0,0.979,0.319,0.979,0.715
		c0,0.374-0.297,0.616-0.616,0.616c-0.318,0-0.583-0.209-0.604-0.506c-0.154,0.021-0.309,0.11-0.407,0.22
		c-0.209,0.198-0.374,0.55-0.495,1.067l-0.297,1.266h1.254l-0.209,0.813h-1.232l-0.891,3.928h-0.946l0.902-3.928h-2.146
		l-0.891,3.928h-0.946l0.901-3.928h-0.836l0.209-0.813h0.814l0.264-1.145c0.165-0.704,0.396-1.166,0.727-1.496
		s0.77-0.518,1.199-0.518c0.55,0,0.88,0.297,0.88,0.693c0,0.341-0.264,0.605-0.583,0.605C340.591,1.451,340.371,1.274,340.305,1.044
		z"/>
	<path d="M343.66,6.247c0-1.617,1.122-3.025,2.498-3.025c0.715,0,1.254,0.518,1.419,1.122l0.308-1.056h0.902l-0.836,3.378
		c-0.055,0.197-0.088,0.374-0.088,0.483c0,0.209,0.099,0.33,0.286,0.33c0.176,0,0.396-0.165,0.616-0.77l0.429,0.153
		c-0.286,0.946-0.781,1.266-1.31,1.266c-0.561,0-0.913-0.385-0.913-0.957V7.116c-0.407,0.562-0.979,1.023-1.694,1.023
		C344.331,8.139,343.66,7.402,343.66,6.247z M347.357,5.235c0-0.704-0.353-1.166-1.078-1.166c-0.925,0-1.617,1.001-1.617,2.068
		c0,0.693,0.341,1.177,1.001,1.177C346.63,7.314,347.357,6.269,347.357,5.235z"/>
	<path d="M350.194,7.172c0-0.144,0.033-0.353,0.077-0.518l0.66-2.53h-0.891l0.209-0.813h1.858l-0.88,3.355
		c-0.055,0.187-0.077,0.374-0.077,0.483c0,0.209,0.11,0.33,0.286,0.33c0.221,0,0.418-0.165,0.649-0.77l0.429,0.153
		c-0.286,0.946-0.748,1.266-1.331,1.266C350.546,8.129,350.194,7.744,350.194,7.172z M351.119,1.869
		c0-0.353,0.285-0.639,0.638-0.639c0.341,0,0.638,0.286,0.638,0.639c0,0.352-0.297,0.638-0.638,0.638
		C351.404,2.507,351.119,2.22,351.119,1.869z"/>
	<path d="M354.297,4.124h-0.88l0.209-0.813h1.693l-0.308,1.331c0.583-0.936,1.133-1.408,1.65-1.408c0.385,0,0.704,0.274,0.704,0.66
		c0,0.374-0.309,0.671-0.66,0.671c-0.33,0-0.583-0.221-0.638-0.484c-0.342,0.154-1.013,0.825-1.266,1.849l-0.528,2.123h-0.968
		L354.297,4.124z"/>
	<path d="M365.231-0.001h0.836v10.253h-0.836V-0.001z"/>
	<path d="M377.099,2.507l-1.078,4.653h0.99l-0.209,0.892h-2.783l0.209-0.892h0.825l1.265-5.456h-0.935l0.197-0.892h1.771
		l2.607,5.127l0.979-4.235h-0.979l0.209-0.892h2.762l-0.198,0.892h-0.814l-1.484,6.37h-0.484L377.099,2.507z"/>
	<path d="M382.631,6.038c0-1.452,1.133-2.816,2.685-2.816c1.364,0,2.134,0.979,2.134,2.112c0,1.441-1.133,2.806-2.684,2.806
		C383.402,8.139,382.631,7.16,382.631,6.038z M386.482,5.323c0-0.814-0.528-1.287-1.21-1.287c-0.924,0-1.673,0.892-1.673,2.002
		c0,0.825,0.528,1.299,1.211,1.299C385.734,7.337,386.482,6.434,386.482,5.323z"/>
	<path d="M389.309,4.124h-0.88l0.209-0.813h1.693l-0.308,1.331c0.583-0.936,1.133-1.408,1.65-1.408c0.385,0,0.704,0.274,0.704,0.66
		c0,0.374-0.309,0.671-0.66,0.671c-0.33,0-0.583-0.221-0.638-0.484c-0.342,0.154-1.013,0.825-1.266,1.849l-0.528,2.123h-0.968
		L389.309,4.124z"/>
	<path d="M394.666,4.124l-0.605,2.432c-0.044,0.165-0.066,0.319-0.066,0.418c0,0.264,0.154,0.407,0.374,0.407
		c0.254,0,0.484-0.11,0.946-0.418l0.342,0.462c-0.616,0.539-1.134,0.704-1.596,0.704c-0.583,0-1.045-0.33-1.045-1.001
		c0-0.165,0.033-0.353,0.077-0.572l0.604-2.432h-0.857l0.187-0.813h0.869l0.275-1.079l1.056-0.362l-0.363,1.441h1.452l-0.209,0.813
		C396.107,4.124,394.666,4.124,394.666,4.124z"/>
	<path d="M398.075,0.812h-0.891l0.209-0.813h1.815l-0.99,4.235c0.341-0.528,0.902-1.001,1.529-1.001
		c0.726,0,1.309,0.495,1.309,1.342c0,0.231-0.032,0.495-0.12,0.771l-0.386,1.408c-0.033,0.143-0.055,0.286-0.055,0.374
		c0,0.22,0.11,0.352,0.286,0.352c0.198,0,0.396-0.165,0.616-0.77l0.429,0.153c-0.253,0.858-0.693,1.266-1.287,1.266
		c-0.649,0-1.012-0.396-1.012-0.946c0-0.154,0.032-0.352,0.076-0.528L400,5.213c0.055-0.187,0.066-0.329,0.066-0.483
		c0-0.418-0.298-0.693-0.727-0.693c-0.583,0-1.155,0.484-1.375,1.463l-0.595,2.553h-0.968L398.075,0.812z"/>
	<path d="M403.389,5.983v0.165c0,0.715,0.571,1.188,1.43,1.188c0.506,0,0.969-0.11,1.562-0.43l-0.188,0.902
		c-0.495,0.242-0.901,0.33-1.573,0.33c-1.133,0-2.178-0.715-2.178-2.013c0-1.606,1.188-2.905,2.597-2.905
		c1.154,0,1.914,0.66,1.914,1.771c0,0.297-0.056,0.627-0.177,0.99h-3.387V5.983z M403.521,5.29h2.464
		c0.044-0.132,0.066-0.274,0.066-0.406c0-0.495-0.33-0.858-1.012-0.858C404.357,4.025,403.774,4.542,403.521,5.29z"/>
	<path d="M408.779,4.124h-0.88l0.209-0.813h1.694l-0.309,1.331c0.583-0.936,1.133-1.408,1.65-1.408c0.385,0,0.704,0.274,0.704,0.66
		c0,0.374-0.309,0.671-0.66,0.671c-0.33,0-0.583-0.221-0.638-0.484c-0.342,0.154-1.013,0.825-1.266,1.849l-0.528,2.123h-0.968
		L408.779,4.124z"/>
	<path d="M415.334,7.182c0-0.154,0.032-0.363,0.076-0.539l0.407-1.431c0.056-0.187,0.077-0.329,0.077-0.483
		c0-0.418-0.286-0.693-0.715-0.693c-0.583,0-1.133,0.495-1.375,1.441l-0.639,2.574h-0.968l0.99-3.928h-0.88l0.209-0.813h1.694
		l-0.254,1.11c0.374-0.66,0.99-1.188,1.64-1.188c0.726,0,1.287,0.495,1.287,1.342c0,0.231-0.044,0.495-0.121,0.771l-0.407,1.396
		c-0.033,0.144-0.065,0.298-0.065,0.386c0,0.22,0.109,0.352,0.297,0.352c0.187,0,0.396-0.165,0.616-0.77l0.429,0.153
		c-0.253,0.858-0.704,1.266-1.287,1.266C415.697,8.129,415.334,7.732,415.334,7.182z"/>
	<path d="M420.35,7.16h0.825l1.265-5.456h-0.935l0.197-0.892h5.336l-0.462,1.903h-0.946l0.242-1.023h-2.432l-0.527,2.245h2.255
		l-0.198,0.857h-2.244l-0.561,2.377h2.442l0.253-1.023h0.946l-0.44,1.903h-5.226L420.35,7.16z"/>
	<path d="M426.543,7.458c0-0.319,0.264-0.583,0.583-0.583c0.253,0,0.429,0.153,0.517,0.352c0.209-0.044,0.451-0.319,0.781-0.792
		l0.518-0.737l-0.627-1.573h-0.936l0.209-0.813h1.354l0.583,1.639l0.396-0.616c0.462-0.737,0.979-1.111,1.475-1.111
		c0.473,0,0.781,0.309,0.781,0.672c0,0.318-0.265,0.583-0.583,0.583c-0.265,0-0.44-0.144-0.518-0.33
		c-0.165,0.044-0.439,0.318-0.715,0.737l-0.473,0.692l0.527,1.276c0.231,0.55,0.319,0.605,0.44,0.605
		c0.143,0,0.297-0.144,0.495-0.76l0.429,0.133c-0.23,0.957-0.638,1.298-1.122,1.298c-0.462,0-0.759-0.242-1.012-0.892l-0.342-0.913
		l-0.473,0.727c-0.484,0.77-0.968,1.078-1.507,1.078C426.84,8.129,426.543,7.82,426.543,7.458z"/>
	<path d="M431.812,9.416h0.704l1.243-5.292h-0.892l0.21-0.813h1.716l-0.242,1.033c0.396-0.594,0.979-1.122,1.728-1.122
		c1.067,0,1.716,0.771,1.716,1.915c0,1.649-1.144,3.003-2.53,3.003c-0.715,0-1.221-0.484-1.463-1.045l-0.539,2.321h0.924
		l-0.209,0.792h-2.574L431.812,9.416z M436.994,5.268c0-0.715-0.385-1.222-1.056-1.222c-0.946,0-1.728,1.034-1.728,2.091
		c0,0.693,0.396,1.155,1.133,1.155C436.279,7.293,436.994,6.313,436.994,5.268z"/>
	<path d="M438.852,6.038c0-1.452,1.133-2.816,2.685-2.816c1.364,0,2.134,0.979,2.134,2.112c0,1.441-1.133,2.806-2.684,2.806
		C439.622,8.139,438.852,7.16,438.852,6.038z M442.703,5.323c0-0.814-0.528-1.287-1.21-1.287c-0.924,0-1.673,0.892-1.673,2.002
		c0,0.825,0.528,1.299,1.211,1.299C441.954,7.337,442.703,6.434,442.703,5.323z"/>
	<path d="M444.506,7.535c-0.188-0.188-0.297-0.396-0.297-0.628c0-0.352,0.241-0.615,0.561-0.615c0.309,0,0.528,0.241,0.528,0.527
		c0,0.11-0.044,0.231-0.11,0.309c0.044,0.044,0.1,0.077,0.176,0.121c0.221,0.109,0.539,0.187,0.881,0.187
		c0.495,0,0.913-0.198,0.913-0.583c0-0.396-0.474-0.594-1.001-0.825c-0.66-0.297-1.299-0.627-1.299-1.386
		c0-0.76,0.649-1.42,1.826-1.42c0.649,0,1.199,0.209,1.508,0.528c0.176,0.176,0.274,0.396,0.274,0.616
		c0,0.363-0.253,0.605-0.55,0.605s-0.539-0.242-0.539-0.528c0-0.1,0.022-0.176,0.099-0.309c-0.032-0.021-0.076-0.055-0.165-0.088
		c-0.165-0.065-0.396-0.109-0.638-0.109c-0.484,0-0.869,0.197-0.869,0.539c0,0.362,0.474,0.571,1.023,0.825
		c0.648,0.297,1.276,0.648,1.276,1.386c0,0.936-0.76,1.452-1.882,1.452C445.496,8.139,444.858,7.897,444.506,7.535z"/>
	<path d="M451.315,3.31l-0.726,2.871c-0.033,0.154-0.066,0.319-0.066,0.473c0,0.418,0.253,0.671,0.66,0.671
		c0.627,0,1.155-0.506,1.397-1.44l0.638-2.574h0.968l-0.847,3.355c-0.044,0.197-0.077,0.374-0.077,0.483
		c0,0.209,0.1,0.33,0.275,0.33c0.187,0,0.396-0.165,0.627-0.77l0.429,0.153c-0.286,0.946-0.792,1.266-1.309,1.266
		c-0.562,0-0.913-0.385-0.913-0.979V7.051c-0.386,0.649-0.969,1.089-1.606,1.089c-0.671,0-1.232-0.484-1.232-1.254
		c0-0.242,0.044-0.518,0.11-0.792l0.506-1.97h-0.88l0.209-0.813h1.837V3.31z"/>
	<path d="M456.309,4.124h-0.88l0.209-0.813h1.693l-0.308,1.331c0.583-0.936,1.133-1.408,1.65-1.408c0.385,0,0.704,0.274,0.704,0.66
		c0,0.374-0.309,0.671-0.66,0.671c-0.33,0-0.583-0.221-0.638-0.484c-0.342,0.154-1.013,0.825-1.266,1.849l-0.528,2.123h-0.968
		L456.309,4.124z"/>
	<path d="M460.411,5.983v0.165c0,0.715,0.571,1.188,1.43,1.188c0.506,0,0.969-0.11,1.562-0.43l-0.188,0.902
		c-0.495,0.242-0.901,0.33-1.573,0.33c-1.133,0-2.178-0.715-2.178-2.013c0-1.606,1.188-2.905,2.597-2.905
		c1.154,0,1.914,0.66,1.914,1.771c0,0.297-0.056,0.627-0.177,0.99h-3.387V5.983z M460.543,5.29h2.464
		c0.044-0.132,0.066-0.274,0.066-0.406c0-0.495-0.33-0.858-1.012-0.858C461.379,4.025,460.796,4.542,460.543,5.29z"/>
</g>
<g enable-background="new    ">
	<path d="M14.621,19.203c0-2.332,1.859-4.323,4.125-4.323c1.606,0,2.596,0.979,2.596,1.815c0,0.484-0.33,0.858-0.737,0.858
		c-0.374,0-0.66-0.286-0.66-0.639c0-0.209,0.121-0.407,0.275-0.517c-0.132-0.275-0.671-0.605-1.507-0.605
		c-1.705,0-3.058,1.596-3.058,3.334c0,1.43,0.847,2.332,2.167,2.332c0.792,0,1.497-0.33,2.146-0.968l0.605,0.604
		c-0.814,0.88-1.76,1.276-2.838,1.276C16.029,22.372,14.621,21.228,14.621,19.203z"/>
	<path d="M23.663,17.51l-0.726,2.871c-0.033,0.154-0.066,0.319-0.066,0.473c0,0.418,0.253,0.671,0.66,0.671
		c0.627,0,1.155-0.506,1.397-1.44l0.638-2.574h0.968l-0.847,3.355c-0.044,0.197-0.077,0.374-0.077,0.483
		c0,0.209,0.099,0.33,0.275,0.33c0.187,0,0.396-0.165,0.627-0.77l0.429,0.153c-0.286,0.946-0.792,1.266-1.31,1.266
		c-0.561,0-0.913-0.385-0.913-0.979V21.25c-0.385,0.649-0.968,1.089-1.606,1.089c-0.671,0-1.232-0.484-1.232-1.254
		c0-0.242,0.044-0.518,0.11-0.792l0.506-1.97h-0.88l0.209-0.813C21.825,17.51,23.663,17.51,23.663,17.51z"/>
	<path d="M28.657,18.323h-0.88l0.209-0.813h1.694l-0.308,1.331c0.583-0.936,1.133-1.408,1.65-1.408c0.385,0,0.704,0.274,0.704,0.66
		c0,0.374-0.308,0.671-0.66,0.671c-0.33,0-0.583-0.221-0.638-0.484c-0.341,0.154-1.012,0.825-1.265,1.849l-0.528,2.123h-0.968
		L28.657,18.323z"/>
	<path d="M32.342,21.371c0-0.144,0.033-0.353,0.077-0.518l0.66-2.53h-0.891l0.209-0.813h1.859l-0.88,3.355
		c-0.055,0.187-0.077,0.374-0.077,0.483c0,0.209,0.11,0.33,0.286,0.33c0.22,0,0.418-0.165,0.649-0.77l0.429,0.153
		c-0.286,0.946-0.749,1.266-1.332,1.266C32.694,22.328,32.342,21.944,32.342,21.371z M33.266,16.069
		c0-0.353,0.286-0.639,0.638-0.639c0.341,0,0.638,0.286,0.638,0.639c0,0.352-0.297,0.638-0.638,0.638
		C33.552,16.706,33.266,16.42,33.266,16.069z"/>
	<path d="M35.421,20.238c0-1.452,1.133-2.816,2.685-2.816c1.364,0,2.134,0.979,2.134,2.112c0,1.441-1.133,2.806-2.685,2.806
		C36.191,22.339,35.421,21.36,35.421,20.238z M39.272,19.523c0-0.814-0.528-1.287-1.21-1.287c-0.924,0-1.672,0.892-1.672,2.002
		c0,0.825,0.528,1.299,1.21,1.299C38.524,21.536,39.272,20.634,39.272,19.523z"/>
	<path d="M43.121,17.51l-0.726,2.871c-0.033,0.154-0.066,0.319-0.066,0.473c0,0.418,0.253,0.671,0.66,0.671
		c0.627,0,1.155-0.506,1.397-1.44l0.638-2.574h0.968l-0.847,3.355c-0.044,0.197-0.077,0.374-0.077,0.483
		c0,0.209,0.099,0.33,0.275,0.33c0.187,0,0.396-0.165,0.627-0.77l0.429,0.153c-0.286,0.946-0.792,1.266-1.31,1.266
		c-0.561,0-0.913-0.385-0.913-0.979V21.25c-0.385,0.649-0.968,1.089-1.606,1.089c-0.671,0-1.232-0.484-1.232-1.254
		c0-0.242,0.044-0.518,0.11-0.792l0.506-1.97h-0.88l0.209-0.813C41.283,17.51,43.121,17.51,43.121,17.51z"/>
	<path d="M47.203,21.735c-0.188-0.188-0.297-0.396-0.297-0.628c0-0.352,0.242-0.615,0.561-0.615c0.308,0,0.528,0.241,0.528,0.527
		c0,0.11-0.044,0.231-0.11,0.309c0.044,0.044,0.099,0.077,0.176,0.121c0.22,0.109,0.539,0.187,0.88,0.187
		c0.495,0,0.914-0.198,0.914-0.583c0-0.396-0.473-0.594-1.001-0.825c-0.66-0.297-1.298-0.627-1.298-1.386
		c0-0.76,0.649-1.42,1.827-1.42c0.649,0,1.199,0.209,1.507,0.528c0.176,0.176,0.275,0.396,0.275,0.616
		c0,0.363-0.253,0.605-0.55,0.605s-0.539-0.242-0.539-0.528c0-0.1,0.022-0.176,0.099-0.309c-0.033-0.021-0.077-0.055-0.165-0.088
		c-0.165-0.065-0.396-0.109-0.638-0.109c-0.484,0-0.869,0.197-0.869,0.539c0,0.362,0.473,0.571,1.023,0.825
		c0.649,0.297,1.276,0.648,1.276,1.386c0,0.936-0.759,1.452-1.881,1.452C48.192,22.339,47.554,22.097,47.203,21.735z"/>
	<path d="M59.446,21.514c-0.649,0.55-1.342,0.858-2.2,0.858c-1.507,0-2.761-1.199-2.761-2.992c0-2.421,1.892-4.5,4.334-4.5
		c1.001,0,1.76,0.319,2.189,0.748c0.286,0.275,0.429,0.572,0.429,0.924c0,0.484-0.352,0.793-0.715,0.793
		c-0.385,0-0.66-0.275-0.66-0.639c0-0.165,0.077-0.319,0.22-0.451l-0.077-0.088c-0.22-0.209-0.737-0.374-1.397-0.374
		c-1.87,0-3.289,1.617-3.289,3.531c0,1.343,0.847,2.135,1.969,2.135c0.825,0,1.518-0.242,2.024-0.627l0.319-1.354h-1.937
		l0.198-0.847h2.938l-0.858,3.619h-0.836L59.446,21.514z"/>
	<path d="M62.306,21.371c0-0.144,0.033-0.353,0.077-0.518l0.66-2.53h-0.891l0.209-0.813h1.859l-0.88,3.355
		c-0.055,0.187-0.077,0.374-0.077,0.483c0,0.209,0.11,0.33,0.286,0.33c0.22,0,0.418-0.165,0.649-0.77l0.429,0.153
		c-0.286,0.946-0.749,1.266-1.332,1.266C62.658,22.328,62.306,21.944,62.306,21.371z M63.229,16.069
		c0-0.353,0.286-0.639,0.638-0.639c0.341,0,0.638,0.286,0.638,0.639c0,0.352-0.297,0.638-0.638,0.638
		C63.516,16.706,63.229,16.42,63.229,16.069z"/>
	<path d="M65.385,20.238c0-1.452,1.133-2.816,2.685-2.816c1.364,0,2.134,0.979,2.134,2.112c0,1.441-1.133,2.806-2.685,2.806
		C66.155,22.339,65.385,21.36,65.385,20.238z M69.236,19.523c0-0.814-0.528-1.287-1.21-1.287c-0.924,0-1.672,0.892-1.672,2.002
		c0,0.825,0.528,1.299,1.21,1.299C68.488,21.536,69.236,20.634,69.236,19.523z"/>
	<path d="M72.062,18.323h-0.88l0.209-0.813h1.694l-0.308,1.331c0.583-0.936,1.133-1.408,1.65-1.408c0.385,0,0.704,0.274,0.704,0.66
		c0,0.374-0.308,0.671-0.66,0.671c-0.33,0-0.583-0.221-0.638-0.484c-0.341,0.154-1.012,0.825-1.265,1.849l-0.528,2.123h-0.968
		L72.062,18.323z"/>
	<path d="M75.186,23.902c-0.209-0.209-0.275-0.385-0.275-0.616c0-0.385,0.264-0.649,0.605-0.649s0.583,0.275,0.583,0.595
		c0,0.099-0.022,0.209-0.066,0.286c0.143,0.088,0.429,0.176,0.792,0.176c0.451,0,0.77-0.121,1.045-0.396
		c0.253-0.242,0.407-0.627,0.528-1.144l0.209-0.892c-0.407,0.572-0.979,0.936-1.628,0.936c-1.067,0-1.728-0.76-1.728-1.903
		c0-1.54,1.067-2.872,2.508-2.872c0.814,0,1.298,0.551,1.463,1.078l0.297-1.012h0.891l-1.133,4.885
		c-0.143,0.638-0.341,1.111-0.693,1.475c-0.418,0.406-0.968,0.604-1.738,0.604C76.187,24.451,75.472,24.188,75.186,23.902z
		 M79.025,19.402c0-0.704-0.462-1.133-1.144-1.133c-0.924,0-1.628,0.88-1.628,1.958c0,0.704,0.462,1.145,1.122,1.145
		C78.321,21.371,79.025,20.425,79.025,19.402z"/>
	<path d="M81.368,21.371c0-0.144,0.033-0.353,0.077-0.518l0.66-2.53h-0.891l0.209-0.813h1.859l-0.88,3.355
		c-0.055,0.187-0.077,0.374-0.077,0.483c0,0.209,0.11,0.33,0.286,0.33c0.22,0,0.418-0.165,0.649-0.77l0.429,0.153
		c-0.286,0.946-0.749,1.266-1.332,1.266C81.72,22.328,81.368,21.944,81.368,21.371z M82.292,16.069c0-0.353,0.286-0.639,0.638-0.639
		c0.341,0,0.638,0.286,0.638,0.639c0,0.352-0.297,0.638-0.638,0.638C82.578,16.706,82.292,16.42,82.292,16.069z"/>
	<path d="M84.448,20.238c0-1.452,1.133-2.816,2.685-2.816c1.364,0,2.134,0.979,2.134,2.112c0,1.441-1.133,2.806-2.685,2.806
		C85.218,22.339,84.448,21.36,84.448,20.238z M88.298,19.523c0-0.814-0.528-1.287-1.21-1.287c-0.924,0-1.672,0.892-1.672,2.002
		c0,0.825,0.528,1.299,1.21,1.299C87.55,21.536,88.298,20.634,88.298,19.523z"/>
	<path d="M97.647,14.198h0.836v10.253h-0.836V14.198z"/>
	<path d="M108.383,15.904h-0.781l0.209-0.892h2.662l-0.198,0.892h-0.913l0.22,4.555l2.685-4.654h0.473l0.803,4.676l2.222-4.576
		h-0.88l0.198-0.892h2.673l-0.209,0.892h-0.693l-3.29,6.425h-0.539l-0.869-4.609l-2.784,4.609l-0.528,0.011L108.383,15.904z"/>
	<path d="M117.689,20.183v0.165c0,0.715,0.572,1.188,1.43,1.188c0.506,0,0.968-0.11,1.562-0.43l-0.187,0.902
		c-0.495,0.242-0.902,0.33-1.573,0.33c-1.133,0-2.178-0.715-2.178-2.013c0-1.606,1.188-2.905,2.596-2.905
		c1.155,0,1.914,0.66,1.914,1.771c0,0.297-0.055,0.627-0.176,0.99h-3.388V20.183z M117.821,19.49h2.464
		c0.044-0.132,0.066-0.274,0.066-0.406c0-0.495-0.33-0.858-1.012-0.858S118.074,18.741,117.821,19.49z"/>
	<path d="M122.353,21.371c0-0.144,0.033-0.353,0.077-0.518l0.66-2.53h-0.891l0.209-0.813h1.859l-0.88,3.355
		c-0.055,0.187-0.077,0.374-0.077,0.483c0,0.209,0.11,0.33,0.286,0.33c0.22,0,0.418-0.165,0.649-0.77l0.429,0.153
		c-0.286,0.946-0.749,1.266-1.332,1.266C122.705,22.328,122.353,21.944,122.353,21.371z M123.277,16.069
		c0-0.353,0.286-0.639,0.638-0.639c0.341,0,0.638,0.286,0.638,0.639c0,0.352-0.297,0.638-0.638,0.638
		C123.563,16.706,123.277,16.42,123.277,16.069z"/>
	<path d="M126.456,18.323h-0.88l0.209-0.813h1.694l-0.308,1.331c0.583-0.936,1.133-1.408,1.65-1.408c0.385,0,0.704,0.274,0.704,0.66
		c0,0.374-0.308,0.671-0.66,0.671c-0.33,0-0.583-0.221-0.638-0.484c-0.341,0.154-1.012,0.825-1.265,1.849l-0.528,2.123h-0.968
		L126.456,18.323z"/>
	<path d="M132.121,17.421c0.704,0,1.254,0.518,1.43,1.09l0.803-3.499h-0.88l0.198-0.813h1.826l-1.562,6.667
		c-0.044,0.209-0.077,0.374-0.077,0.483c0,0.209,0.088,0.33,0.275,0.33s0.396-0.165,0.627-0.77l0.429,0.153
		c-0.286,0.946-0.792,1.266-1.309,1.266c-0.572,0-0.924-0.385-0.924-0.969v-0.044c-0.396,0.572-0.968,1.023-1.683,1.023
		c-0.946,0-1.639-0.748-1.639-1.893C129.635,18.808,130.768,17.421,132.121,17.421z M133.353,19.446c0-0.715-0.385-1.177-1.1-1.177
		c-0.924,0-1.617,1.001-1.617,2.068c0,0.682,0.363,1.177,1.023,1.177C132.605,21.514,133.353,20.502,133.353,19.446z"/>
	<path d="M138.148,20.667c0-0.506,0.319-0.848,0.737-0.848c0.363,0,0.638,0.297,0.638,0.627c0,0.209-0.088,0.419-0.275,0.551
		c0.231,0.286,0.771,0.517,1.519,0.517c0.803,0,1.441-0.418,1.441-1.111c0-0.571-0.463-0.924-1.232-1.353
		c-0.88-0.507-1.716-1.09-1.716-2.179c0-1.045,0.946-1.991,2.454-1.991c1.353,0,2.299,0.792,2.299,1.529
		c0,0.495-0.297,0.847-0.715,0.847c-0.363,0-0.639-0.286-0.639-0.638c0-0.165,0.066-0.352,0.242-0.506
		c-0.143-0.176-0.572-0.363-1.188-0.363c-0.869,0-1.408,0.473-1.408,1.034c0,0.627,0.527,0.99,1.32,1.441
		c0.847,0.473,1.639,1.067,1.639,2.09c0,1.166-1.001,2.068-2.553,2.068C139.26,22.383,138.148,21.525,138.148,20.667z"/>
	<path d="M144.232,20.238c0-1.507,1.254-2.816,2.762-2.816c1.045,0,1.738,0.639,1.738,1.332c0,0.406-0.253,0.748-0.649,0.748
		c-0.297,0-0.561-0.231-0.561-0.583c0-0.144,0.076-0.319,0.197-0.419c-0.153-0.176-0.407-0.264-0.748-0.264
		c-0.857,0-1.771,0.737-1.771,1.947c0,0.825,0.551,1.354,1.354,1.354c0.55,0,1.111-0.221,1.596-0.595l-0.022,0.881
		c-0.462,0.33-1.034,0.517-1.661,0.517C145.211,22.339,144.232,21.558,144.232,20.238z"/>
	<path d="M149.743,21.371c0-0.144,0.033-0.353,0.077-0.518l0.66-2.53h-0.891l0.209-0.813h1.858l-0.88,3.355
		c-0.055,0.187-0.077,0.374-0.077,0.483c0,0.209,0.11,0.33,0.286,0.33c0.221,0,0.418-0.165,0.649-0.77l0.429,0.153
		c-0.286,0.946-0.748,1.266-1.331,1.266C150.095,22.328,149.743,21.944,149.743,21.371z M150.667,16.069
		c0-0.353,0.285-0.639,0.638-0.639c0.341,0,0.638,0.286,0.638,0.639c0,0.352-0.297,0.638-0.638,0.638
		C150.953,16.706,150.667,16.42,150.667,16.069z"/>
	<path d="M153.758,20.183v0.165c0,0.715,0.571,1.188,1.43,1.188c0.506,0,0.969-0.11,1.562-0.43l-0.188,0.902
		c-0.495,0.242-0.901,0.33-1.573,0.33c-1.133,0-2.178-0.715-2.178-2.013c0-1.606,1.188-2.905,2.597-2.905
		c1.154,0,1.914,0.66,1.914,1.771c0,0.297-0.056,0.627-0.177,0.99h-3.387V20.183z M153.89,19.49h2.464
		c0.044-0.132,0.066-0.274,0.066-0.406c0-0.495-0.33-0.858-1.012-0.858C154.726,18.225,154.143,18.741,153.89,19.49z"/>
	<path d="M161.293,21.382c0-0.154,0.032-0.363,0.076-0.539l0.407-1.431c0.056-0.187,0.077-0.329,0.077-0.483
		c0-0.418-0.286-0.693-0.715-0.693c-0.583,0-1.133,0.495-1.375,1.441l-0.639,2.574h-0.968l0.99-3.928h-0.88l0.209-0.813h1.693
		l-0.253,1.11c0.374-0.66,0.99-1.188,1.64-1.188c0.727,0,1.287,0.495,1.287,1.342c0,0.231-0.044,0.495-0.121,0.771l-0.407,1.396
		c-0.032,0.144-0.065,0.298-0.065,0.386c0,0.22,0.109,0.352,0.297,0.352c0.187,0,0.396-0.165,0.616-0.77l0.429,0.153
		c-0.253,0.858-0.704,1.266-1.287,1.266C161.656,22.328,161.293,21.932,161.293,21.382z"/>
	<path d="M164.241,20.238c0-1.507,1.254-2.816,2.762-2.816c1.045,0,1.738,0.639,1.738,1.332c0,0.406-0.253,0.748-0.649,0.748
		c-0.297,0-0.561-0.231-0.561-0.583c0-0.144,0.076-0.319,0.197-0.419c-0.153-0.176-0.407-0.264-0.748-0.264
		c-0.857,0-1.771,0.737-1.771,1.947c0,0.825,0.551,1.354,1.354,1.354c0.55,0,1.111-0.221,1.596-0.595l-0.022,0.881
		c-0.462,0.33-1.034,0.517-1.661,0.517C165.22,22.339,164.241,21.558,164.241,20.238z"/>
	<path d="M170.39,20.183v0.165c0,0.715,0.571,1.188,1.43,1.188c0.506,0,0.969-0.11,1.562-0.43l-0.188,0.902
		c-0.495,0.242-0.901,0.33-1.573,0.33c-1.133,0-2.178-0.715-2.178-2.013c0-1.606,1.188-2.905,2.597-2.905
		c1.154,0,1.914,0.66,1.914,1.771c0,0.297-0.056,0.627-0.177,0.99h-3.387V20.183z M170.522,19.49h2.464
		c0.044-0.132,0.066-0.274,0.066-0.406c0-0.495-0.33-0.858-1.012-0.858C171.358,18.225,170.775,18.741,170.522,19.49z"/>
	<path d="M182.303,14.198h0.836v10.253h-0.836V14.198z"/>
	<path d="M191.3,21.36h0.825l1.265-5.456h-0.935l0.197-0.892h2.476c0.66,0,1.178,0.088,1.573,0.297
		c0.55,0.286,0.892,0.814,0.892,1.441c0,0.979-0.792,1.673-1.771,1.815c0.737,0.209,1.298,0.803,1.298,1.529
		c0,0.605-0.23,1.1-0.648,1.463c-0.342,0.297-0.825,0.506-1.397,0.605c-0.309,0.065-0.66,0.088-1.023,0.088h-2.959L191.3,21.36z
		 M194.194,21.382c0.274,0,0.527-0.033,0.736-0.077c0.363-0.077,0.628-0.209,0.825-0.407c0.221-0.22,0.33-0.506,0.33-0.857
		c0-0.649-0.604-1.09-1.628-1.09h-0.771l-0.571,2.432L194.194,21.382L194.194,21.382z M194.568,18.148
		c1.231,0,1.991-0.462,1.991-1.287c0-0.341-0.176-0.66-0.539-0.814c-0.242-0.099-0.572-0.165-1.023-0.165h-0.605l-0.527,2.267
		L194.568,18.148L194.568,18.148z"/>
	<path d="M198.086,20.447c0-1.617,1.122-3.025,2.498-3.025c0.715,0,1.254,0.518,1.419,1.122l0.308-1.056h0.902l-0.836,3.378
		c-0.055,0.197-0.088,0.374-0.088,0.483c0,0.209,0.099,0.33,0.286,0.33c0.176,0,0.396-0.165,0.616-0.77l0.429,0.153
		c-0.286,0.946-0.781,1.266-1.31,1.266c-0.561,0-0.913-0.385-0.913-0.957v-0.056c-0.407,0.562-0.979,1.023-1.694,1.023
		C198.758,22.339,198.086,21.602,198.086,20.447z M201.784,19.435c0-0.704-0.353-1.166-1.078-1.166
		c-0.925,0-1.617,1.001-1.617,2.068c0,0.693,0.341,1.177,1.001,1.177C201.057,21.514,201.784,20.469,201.784,19.435z"/>
	<path d="M204.324,20.238c0-1.507,1.254-2.816,2.762-2.816c1.045,0,1.738,0.639,1.738,1.332c0,0.406-0.253,0.748-0.649,0.748
		c-0.297,0-0.561-0.231-0.561-0.583c0-0.144,0.076-0.319,0.197-0.419c-0.153-0.176-0.407-0.264-0.748-0.264
		c-0.857,0-1.771,0.737-1.771,1.947c0,0.825,0.551,1.354,1.354,1.354c0.55,0,1.111-0.221,1.596-0.595l-0.022,0.881
		c-0.462,0.33-1.034,0.517-1.661,0.517C205.303,22.339,204.324,21.558,204.324,20.238z"/>
	<path d="M209.537,20.238c0-1.507,1.254-2.816,2.762-2.816c1.045,0,1.738,0.639,1.738,1.332c0,0.406-0.253,0.748-0.649,0.748
		c-0.297,0-0.561-0.231-0.561-0.583c0-0.144,0.076-0.319,0.197-0.419c-0.153-0.176-0.407-0.264-0.748-0.264
		c-0.857,0-1.771,0.737-1.771,1.947c0,0.825,0.551,1.354,1.354,1.354c0.55,0,1.111-0.221,1.596-0.595l-0.022,0.881
		c-0.462,0.33-1.034,0.517-1.661,0.517C210.517,22.339,209.537,21.558,209.537,20.238z"/>
	<path d="M216.258,15.012h-0.891l0.209-0.813h1.815l-0.99,4.235c0.341-0.528,0.902-1.001,1.529-1.001
		c0.726,0,1.309,0.495,1.309,1.342c0,0.231-0.032,0.495-0.12,0.771l-0.386,1.408c-0.033,0.143-0.055,0.286-0.055,0.374
		c0,0.22,0.11,0.352,0.286,0.352c0.198,0,0.396-0.165,0.616-0.77l0.429,0.153c-0.253,0.858-0.693,1.266-1.287,1.266
		c-0.649,0-1.012-0.396-1.012-0.946c0-0.154,0.032-0.352,0.076-0.528l0.396-1.441c0.055-0.187,0.066-0.329,0.066-0.483
		c0-0.418-0.298-0.693-0.727-0.693c-0.583,0-1.155,0.484-1.375,1.463l-0.595,2.553h-0.968L216.258,15.012z"/>
	<path d="M220.647,20.447c0-1.617,1.122-3.025,2.498-3.025c0.715,0,1.254,0.518,1.419,1.122l0.308-1.056h0.902l-0.836,3.378
		c-0.055,0.197-0.088,0.374-0.088,0.483c0,0.209,0.099,0.33,0.286,0.33c0.176,0,0.396-0.165,0.616-0.77l0.429,0.153
		c-0.286,0.946-0.781,1.266-1.31,1.266c-0.561,0-0.913-0.385-0.913-0.957v-0.056c-0.407,0.562-0.979,1.023-1.694,1.023
		C221.319,22.339,220.647,21.602,220.647,20.447z M224.344,19.435c0-0.704-0.353-1.166-1.078-1.166
		c-0.925,0-1.617,1.001-1.617,2.068c0,0.693,0.341,1.177,1.001,1.177C223.618,21.514,224.344,20.469,224.344,19.435z"/>
	<path d="M230.053,21.382c0-0.154,0.032-0.363,0.076-0.539l0.407-1.431c0.056-0.187,0.077-0.329,0.077-0.483
		c0-0.418-0.286-0.693-0.715-0.693c-0.583,0-1.133,0.495-1.375,1.441l-0.639,2.574h-0.968l0.99-3.928h-0.88l0.209-0.813h1.693
		l-0.253,1.11c0.374-0.66,0.99-1.188,1.64-1.188c0.727,0,1.287,0.495,1.287,1.342c0,0.231-0.044,0.495-0.121,0.771l-0.407,1.396
		c-0.032,0.144-0.065,0.298-0.065,0.386c0,0.22,0.109,0.352,0.297,0.352c0.187,0,0.396-0.165,0.616-0.77l0.429,0.153
		c-0.253,0.858-0.704,1.266-1.287,1.266C230.415,22.328,230.053,21.932,230.053,21.382z"/>
	<path d="M233.011,20.447c0-1.617,1.122-3.025,2.498-3.025c0.715,0,1.254,0.518,1.419,1.122l0.308-1.056h0.902l-0.836,3.378
		c-0.055,0.197-0.088,0.374-0.088,0.483c0,0.209,0.099,0.33,0.286,0.33c0.176,0,0.396-0.165,0.616-0.77l0.429,0.153
		c-0.286,0.946-0.781,1.266-1.31,1.266c-0.561,0-0.913-0.385-0.913-0.957v-0.056c-0.407,0.562-0.979,1.023-1.694,1.023
		C233.683,22.339,233.011,21.602,233.011,20.447z M236.708,19.435c0-0.704-0.353-1.166-1.078-1.166
		c-0.925,0-1.617,1.001-1.617,2.068c0,0.693,0.341,1.177,1.001,1.177C235.982,21.514,236.708,20.469,236.708,19.435z"/>
	<path d="M239.37,21.36c0-0.143,0.033-0.318,0.066-0.494l1.364-5.854h-0.892l0.209-0.813h1.826l-1.54,6.655
		c-0.044,0.188-0.077,0.363-0.077,0.474c0,0.23,0.1,0.352,0.286,0.352c0.22,0,0.418-0.165,0.649-0.77l0.418,0.153
		c-0.286,0.946-0.748,1.266-1.32,1.266C239.71,22.328,239.37,21.944,239.37,21.36z"/>
	<path d="M242.746,21.371c0-0.144,0.033-0.353,0.077-0.518l0.66-2.53h-0.891l0.209-0.813h1.858l-0.88,3.355
		c-0.055,0.187-0.077,0.374-0.077,0.483c0,0.209,0.11,0.33,0.286,0.33c0.221,0,0.418-0.165,0.649-0.77l0.429,0.153
		c-0.286,0.946-0.748,1.266-1.331,1.266C243.099,22.328,242.746,21.944,242.746,21.371z M243.671,16.069
		c0-0.353,0.285-0.639,0.638-0.639c0.341,0,0.638,0.286,0.638,0.639c0,0.352-0.297,0.638-0.638,0.638
		C243.956,16.706,243.671,16.42,243.671,16.069z"/>
	<path d="M245.836,20.447c0-1.617,1.122-3.025,2.498-3.025c0.715,0,1.254,0.518,1.419,1.122l0.308-1.056h0.902l-0.836,3.378
		c-0.055,0.197-0.088,0.374-0.088,0.483c0,0.209,0.099,0.33,0.286,0.33c0.176,0,0.396-0.165,0.616-0.77l0.429,0.153
		c-0.286,0.946-0.781,1.266-1.31,1.266c-0.561,0-0.913-0.385-0.913-0.957v-0.056c-0.407,0.562-0.979,1.023-1.694,1.023
		C246.508,22.339,245.836,21.602,245.836,20.447z M249.534,19.435c0-0.704-0.353-1.166-1.078-1.166
		c-0.925,0-1.617,1.001-1.617,2.068c0,0.693,0.341,1.177,1.001,1.177C248.807,21.514,249.534,20.469,249.534,19.435z"/>
	<path d="M259.62,14.198h0.836v10.253h-0.836V14.198z"/>
	<path d="M268.618,21.36h0.825l1.265-5.456h-0.935l0.197-0.892h2.476c0.66,0,1.178,0.088,1.573,0.297
		c0.55,0.286,0.892,0.814,0.892,1.441c0,0.979-0.792,1.673-1.771,1.815c0.737,0.209,1.298,0.803,1.298,1.529
		c0,0.605-0.23,1.1-0.648,1.463c-0.342,0.297-0.825,0.506-1.397,0.605c-0.309,0.065-0.66,0.088-1.023,0.088h-2.959L268.618,21.36z
		 M271.511,21.382c0.274,0,0.527-0.033,0.736-0.077c0.363-0.077,0.628-0.209,0.825-0.407c0.221-0.22,0.33-0.506,0.33-0.857
		c0-0.649-0.604-1.09-1.628-1.09h-0.771l-0.571,2.432L271.511,21.382L271.511,21.382z M271.885,18.148
		c1.231,0,1.991-0.462,1.991-1.287c0-0.341-0.177-0.66-0.539-0.814c-0.242-0.099-0.572-0.165-1.023-0.165h-0.605l-0.527,2.267
		L271.885,18.148L271.885,18.148z"/>
	<path d="M275.404,20.447c0-1.617,1.122-3.025,2.498-3.025c0.715,0,1.254,0.518,1.419,1.122l0.308-1.056h0.902l-0.836,3.378
		c-0.055,0.197-0.088,0.374-0.088,0.483c0,0.209,0.099,0.33,0.286,0.33c0.176,0,0.396-0.165,0.616-0.77l0.429,0.153
		c-0.286,0.946-0.781,1.266-1.31,1.266c-0.561,0-0.913-0.385-0.913-0.957v-0.056c-0.407,0.562-0.979,1.023-1.694,1.023
		C276.076,22.339,275.404,21.602,275.404,20.447z M279.101,19.435c0-0.704-0.353-1.166-1.078-1.166
		c-0.925,0-1.617,1.001-1.617,2.068c0,0.693,0.341,1.177,1.001,1.177C278.374,21.514,279.101,20.469,279.101,19.435z"/>
	<path d="M281.641,20.238c0-1.507,1.254-2.816,2.762-2.816c1.045,0,1.738,0.639,1.738,1.332c0,0.406-0.253,0.748-0.649,0.748
		c-0.297,0-0.561-0.231-0.561-0.583c0-0.144,0.076-0.319,0.197-0.419c-0.153-0.176-0.407-0.264-0.748-0.264
		c-0.857,0-1.771,0.737-1.771,1.947c0,0.825,0.551,1.354,1.354,1.354c0.55,0,1.111-0.221,1.596-0.595l-0.022,0.881
		c-0.462,0.33-1.034,0.517-1.661,0.517C282.62,22.339,281.641,21.558,281.641,20.238z"/>
	<path d="M286.69,22.251l1.672-7.239h-0.891l0.209-0.813h1.815l-1.298,5.566c1.319-0.473,1.969-0.902,2.167-1.21
		c-0.188-0.11-0.297-0.309-0.297-0.506c0-0.342,0.274-0.628,0.627-0.628c0.352,0,0.648,0.275,0.648,0.704
		c0,0.716-0.704,1.364-1.858,1.915l0.462,1.078c0.099,0.23,0.165,0.362,0.242,0.451c0.076,0.076,0.143,0.099,0.22,0.099
		c0.165,0,0.319-0.176,0.506-0.88l0.44,0.143c-0.253,1.145-0.683,1.397-1.166,1.397c-0.221,0-0.43-0.055-0.616-0.209
		c-0.154-0.132-0.297-0.33-0.407-0.605l-0.518-1.232c-0.187,0.077-0.396,0.144-0.571,0.21l-0.419,1.76h-0.967V22.251z"/>
	<path d="M296.458,18.323l-0.605,2.432c-0.044,0.165-0.066,0.319-0.066,0.418c0,0.264,0.154,0.407,0.374,0.407
		c0.254,0,0.484-0.11,0.946-0.418l0.342,0.462c-0.616,0.539-1.134,0.704-1.596,0.704c-0.583,0-1.045-0.33-1.045-1.001
		c0-0.165,0.033-0.353,0.077-0.572l0.604-2.432h-0.857l0.187-0.813h0.869l0.275-1.079l1.056-0.362l-0.363,1.441h1.452l-0.209,0.813
		H296.458z"/>
	<path d="M298.361,20.238c0-1.452,1.133-2.816,2.685-2.816c1.364,0,2.134,0.979,2.134,2.112c0,1.441-1.133,2.806-2.684,2.806
		C299.131,22.339,298.361,21.36,298.361,20.238z M302.211,19.523c0-0.814-0.528-1.287-1.21-1.287c-0.924,0-1.673,0.892-1.673,2.002
		c0,0.825,0.528,1.299,1.211,1.299C301.463,21.536,302.211,20.634,302.211,19.523z"/>
	<path d="M308.273,18.323l-0.605,2.432c-0.044,0.165-0.066,0.319-0.066,0.418c0,0.264,0.154,0.407,0.374,0.407
		c0.254,0,0.484-0.11,0.946-0.418l0.342,0.462c-0.616,0.539-1.134,0.704-1.596,0.704c-0.583,0-1.045-0.33-1.045-1.001
		c0-0.165,0.033-0.353,0.077-0.572l0.604-2.432h-0.857l0.187-0.813h0.869l0.275-1.079l1.056-0.362l-0.363,1.441h1.452l-0.209,0.813
		H308.273z"/>
	<path d="M311.681,15.012h-0.891l0.209-0.813h1.815l-0.99,4.235c0.341-0.528,0.902-1.001,1.529-1.001
		c0.726,0,1.309,0.495,1.309,1.342c0,0.231-0.032,0.495-0.12,0.771l-0.386,1.408c-0.033,0.143-0.055,0.286-0.055,0.374
		c0,0.22,0.11,0.352,0.286,0.352c0.198,0,0.396-0.165,0.616-0.77l0.429,0.153c-0.253,0.858-0.693,1.266-1.287,1.266
		c-0.649,0-1.012-0.396-1.012-0.946c0-0.154,0.032-0.352,0.076-0.528l0.396-1.441c0.055-0.187,0.066-0.329,0.066-0.483
		c0-0.418-0.298-0.693-0.727-0.693c-0.583,0-1.155,0.484-1.375,1.463l-0.595,2.553h-0.968L311.681,15.012z"/>
	<path d="M316.995,20.183v0.165c0,0.715,0.571,1.188,1.43,1.188c0.506,0,0.969-0.11,1.562-0.43l-0.188,0.902
		c-0.495,0.242-0.901,0.33-1.573,0.33c-1.133,0-2.178-0.715-2.178-2.013c0-1.606,1.188-2.905,2.597-2.905
		c1.154,0,1.914,0.66,1.914,1.771c0,0.297-0.056,0.627-0.177,0.99h-3.387V20.183z M317.126,19.49h2.464
		c0.044-0.132,0.066-0.274,0.066-0.406c0-0.495-0.33-0.858-1.012-0.858C317.962,18.225,317.379,18.741,317.126,19.49z"/>
	<path d="M323.429,21.36h0.825l1.265-5.456h-0.935l0.197-0.892h5.336l-0.462,1.903h-0.946l0.242-1.023h-2.432l-0.527,2.245h2.255
		l-0.198,0.857h-2.244l-0.561,2.377h2.442l0.253-1.023h0.946l-0.44,1.903h-5.226L323.429,21.36z"/>
	<path d="M329.941,20.447c0-1.617,1.122-3.025,2.498-3.025c0.715,0,1.254,0.518,1.419,1.122l0.308-1.056h0.902l-0.836,3.378
		c-0.055,0.197-0.088,0.374-0.088,0.483c0,0.209,0.099,0.33,0.286,0.33c0.176,0,0.396-0.165,0.616-0.77l0.429,0.153
		c-0.286,0.946-0.781,1.266-1.31,1.266c-0.561,0-0.913-0.385-0.913-0.957v-0.056c-0.407,0.562-0.979,1.023-1.694,1.023
		C330.613,22.339,329.941,21.602,329.941,20.447z M333.638,19.435c0-0.704-0.353-1.166-1.078-1.166
		c-0.925,0-1.617,1.001-1.617,2.068c0,0.693,0.341,1.177,1.001,1.177C332.911,21.514,333.638,20.469,333.638,19.435z"/>
	<path d="M337.202,18.323h-0.88l0.209-0.813h1.694l-0.309,1.331c0.583-0.936,1.133-1.408,1.65-1.408c0.385,0,0.704,0.274,0.704,0.66
		c0,0.374-0.309,0.671-0.66,0.671c-0.33,0-0.583-0.221-0.638-0.484c-0.342,0.154-1.013,0.825-1.266,1.849l-0.528,2.123h-0.968
		L337.202,18.323z"/>
	<path d="M342.559,18.323l-0.605,2.432c-0.044,0.165-0.066,0.319-0.066,0.418c0,0.264,0.154,0.407,0.374,0.407
		c0.254,0,0.484-0.11,0.946-0.418l0.342,0.462c-0.616,0.539-1.134,0.704-1.596,0.704c-0.583,0-1.045-0.33-1.045-1.001
		c0-0.165,0.033-0.353,0.077-0.572l0.604-2.432h-0.857l0.187-0.813h0.869l0.275-1.079l1.056-0.362l-0.363,1.441h1.452L344,18.323
		H342.559z"/>
	<path d="M345.968,15.012h-0.891l0.209-0.813h1.815l-0.99,4.235c0.341-0.528,0.902-1.001,1.529-1.001
		c0.726,0,1.309,0.495,1.309,1.342c0,0.231-0.032,0.495-0.12,0.771l-0.386,1.408c-0.033,0.143-0.055,0.286-0.055,0.374
		c0,0.22,0.11,0.352,0.286,0.352c0.198,0,0.396-0.165,0.616-0.77l0.429,0.153c-0.253,0.858-0.693,1.266-1.287,1.266
		c-0.649,0-1.012-0.396-1.012-0.946c0-0.154,0.032-0.352,0.076-0.528l0.396-1.441c0.055-0.187,0.066-0.329,0.066-0.483
		c0-0.418-0.298-0.693-0.727-0.693c-0.583,0-1.155,0.484-1.375,1.463l-0.595,2.553h-0.968L345.968,15.012z"/>
	<path d="M357.892,14.198h0.836v10.253h-0.836V14.198z"/>
	<path d="M366.889,21.36h0.825l1.265-5.456h-0.935l0.197-0.892h2.816l-0.209,0.892h-0.869l-0.517,2.222h3.652l0.518-2.222h-0.99
		l0.209-0.892h2.805l-0.197,0.892h-0.836l-1.266,5.456h0.936l-0.198,0.892h-2.806l0.198-0.892h0.88l0.55-2.365h-3.652l-0.561,2.365
		h0.99l-0.21,0.892h-2.805L366.889,21.36z"/>
	<path d="M375.469,20.447c0-1.617,1.122-3.025,2.498-3.025c0.715,0,1.254,0.518,1.419,1.122l0.308-1.056h0.902l-0.836,3.378
		c-0.055,0.197-0.088,0.374-0.088,0.483c0,0.209,0.099,0.33,0.286,0.33c0.176,0,0.396-0.165,0.616-0.77l0.429,0.153
		c-0.286,0.946-0.781,1.266-1.31,1.266c-0.561,0-0.913-0.385-0.913-0.957v-0.056c-0.407,0.562-0.979,1.023-1.694,1.023
		C376.141,22.339,375.469,21.602,375.469,20.447z M379.166,19.435c0-0.704-0.353-1.166-1.078-1.166
		c-0.925,0-1.617,1.001-1.617,2.068c0,0.693,0.341,1.177,1.001,1.177C378.44,21.514,379.166,20.469,379.166,19.435z"/>
	<path d="M382.002,21.371c0-0.144,0.033-0.353,0.077-0.518l0.66-2.53h-0.891l0.209-0.813h1.858l-0.88,3.355
		c-0.055,0.187-0.077,0.374-0.077,0.483c0,0.209,0.11,0.33,0.286,0.33c0.221,0,0.418-0.165,0.649-0.77l0.429,0.153
		c-0.286,0.946-0.748,1.266-1.331,1.266C382.355,22.328,382.002,21.944,382.002,21.371z M382.927,16.069
		c0-0.353,0.285-0.639,0.638-0.639c0.341,0,0.638,0.286,0.638,0.639c0,0.352-0.297,0.638-0.638,0.638
		C383.212,16.706,382.927,16.42,382.927,16.069z"/>
	<path d="M385.203,21.36c0-0.143,0.033-0.318,0.066-0.494l1.364-5.854h-0.892l0.209-0.813h1.826l-1.54,6.655
		c-0.044,0.188-0.077,0.363-0.077,0.474c0,0.23,0.1,0.352,0.286,0.352c0.22,0,0.418-0.165,0.649-0.77l0.418,0.153
		c-0.286,0.946-0.748,1.266-1.32,1.266C385.544,22.328,385.203,21.944,385.203,21.36z"/>
	<path d="M392.541,18.323l-0.605,2.432c-0.044,0.165-0.066,0.319-0.066,0.418c0,0.264,0.154,0.407,0.374,0.407
		c0.254,0,0.484-0.11,0.946-0.418l0.342,0.462c-0.616,0.539-1.134,0.704-1.596,0.704c-0.583,0-1.045-0.33-1.045-1.001
		c0-0.165,0.033-0.353,0.077-0.572l0.604-2.432h-0.857l0.187-0.813h0.869l0.275-1.079l1.056-0.362l-0.363,1.441h1.452l-0.209,0.813
		H392.541z"/>
	<path d="M394.444,20.238c0-1.452,1.133-2.816,2.685-2.816c1.364,0,2.134,0.979,2.134,2.112c0,1.441-1.133,2.806-2.684,2.806
		C395.214,22.339,394.444,21.36,394.444,20.238z M398.294,19.523c0-0.814-0.528-1.287-1.21-1.287c-0.924,0-1.673,0.892-1.673,2.002
		c0,0.825,0.528,1.299,1.211,1.299C397.546,21.536,398.294,20.634,398.294,19.523z"/>
	<path d="M404.355,18.323l-0.605,2.432c-0.044,0.165-0.066,0.319-0.066,0.418c0,0.264,0.154,0.407,0.374,0.407
		c0.254,0,0.484-0.11,0.946-0.418l0.342,0.462c-0.616,0.539-1.134,0.704-1.596,0.704c-0.583,0-1.045-0.33-1.045-1.001
		c0-0.165,0.033-0.353,0.077-0.572l0.604-2.432h-0.857l0.187-0.813h0.869l0.275-1.079l1.056-0.362l-0.363,1.441h1.452l-0.209,0.813
		H404.355z"/>
	<path d="M407.764,15.012h-0.891l0.209-0.813h1.815l-0.99,4.235c0.341-0.528,0.902-1.001,1.529-1.001
		c0.726,0,1.309,0.495,1.309,1.342c0,0.231-0.032,0.495-0.12,0.771l-0.386,1.408c-0.033,0.143-0.055,0.286-0.055,0.374
		c0,0.22,0.11,0.352,0.286,0.352c0.198,0,0.396-0.165,0.616-0.77l0.429,0.153c-0.253,0.858-0.693,1.266-1.287,1.266
		c-0.649,0-1.012-0.396-1.012-0.946c0-0.154,0.032-0.352,0.076-0.528l0.396-1.441c0.055-0.187,0.066-0.329,0.066-0.483
		c0-0.418-0.298-0.693-0.727-0.693c-0.583,0-1.155,0.484-1.375,1.463l-0.595,2.553h-0.968L407.764,15.012z"/>
	<path d="M413.078,20.183v0.165c0,0.715,0.571,1.188,1.43,1.188c0.506,0,0.969-0.11,1.562-0.43l-0.188,0.902
		c-0.495,0.242-0.901,0.33-1.573,0.33c-1.133,0-2.178-0.715-2.178-2.013c0-1.606,1.188-2.905,2.597-2.905
		c1.154,0,1.914,0.66,1.914,1.771c0,0.297-0.056,0.627-0.177,0.99h-3.387V20.183z M413.209,19.49h2.464
		c0.044-0.132,0.066-0.274,0.066-0.406c0-0.495-0.33-0.858-1.012-0.858C414.045,18.225,413.462,18.741,413.209,19.49z"/>
	<path d="M421.019,21.36h0.892l1.275-5.479h-1.605l-0.253,1.145h-0.958l0.463-2.014h6.095l-0.462,2.014h-0.946l0.253-1.145h-1.596
		l-1.265,5.479h1.001l-0.198,0.892h-2.904L421.019,21.36z"/>
	<path d="M427.179,18.323h-0.88l0.209-0.813h1.693l-0.308,1.331c0.583-0.936,1.133-1.408,1.65-1.408c0.385,0,0.704,0.274,0.704,0.66
		c0,0.374-0.309,0.671-0.66,0.671c-0.33,0-0.583-0.221-0.638-0.484c-0.342,0.154-1.013,0.825-1.266,1.849l-0.528,2.123h-0.968
		L427.179,18.323z"/>
	<path d="M432.723,17.51l-0.726,2.871c-0.033,0.154-0.066,0.319-0.066,0.473c0,0.418,0.253,0.671,0.66,0.671
		c0.627,0,1.155-0.506,1.397-1.44l0.638-2.574h0.968l-0.847,3.355c-0.044,0.197-0.077,0.374-0.077,0.483
		c0,0.209,0.1,0.33,0.275,0.33c0.187,0,0.396-0.165,0.627-0.77l0.429,0.153c-0.286,0.946-0.792,1.266-1.309,1.266
		c-0.562,0-0.913-0.385-0.913-0.979V21.25c-0.386,0.649-0.969,1.089-1.606,1.089c-0.671,0-1.232-0.484-1.232-1.254
		c0-0.242,0.044-0.518,0.11-0.792l0.506-1.97h-0.88l0.209-0.813C430.886,17.51,432.723,17.51,432.723,17.51z"/>
	<path d="M437.035,17.51h0.814l0.319-1.376c0.077-0.374,0.242-0.726,0.451-0.99c0.385-0.495,0.957-0.78,1.661-0.78
		c0.517,0,0.957,0.253,0.957,0.704c0,0.341-0.275,0.604-0.595,0.604c-0.318,0-0.517-0.209-0.583-0.495
		c-0.264,0.044-0.483,0.176-0.66,0.374c-0.143,0.165-0.253,0.407-0.308,0.671l-0.297,1.288h2.134l0.386-1.65
		c0.088-0.363,0.242-0.693,0.451-0.957c0.374-0.474,0.945-0.771,1.661-0.771c0.55,0,0.968,0.22,1.243,0.572l0.318-0.506h0.605
		l-1.551,6.655c-0.033,0.188-0.077,0.363-0.077,0.474c0,0.23,0.109,0.352,0.297,0.352c0.209,0,0.407-0.165,0.638-0.77l0.43,0.153
		c-0.286,0.946-0.748,1.266-1.332,1.266c-0.638,0-0.979-0.385-0.979-0.969c0-0.143,0.021-0.318,0.065-0.494l0.595-2.542h-2.003
		l-0.891,3.928h-0.946l0.902-3.928h-2.135l-0.901,3.928h-0.946l0.901-3.928h-0.836L437.035,17.51z M441.865,17.51h2.002l0.286-1.199
		c-0.242-0.1-0.385-0.33-0.385-0.584c0-0.209,0.088-0.374,0.23-0.483c-0.153-0.188-0.396-0.286-0.638-0.286
		c-0.341,0-0.627,0.132-0.825,0.374c-0.154,0.176-0.253,0.407-0.319,0.671L441.865,17.51z"/>
	<path d="M446.957,20.183v0.165c0,0.715,0.571,1.188,1.43,1.188c0.506,0,0.969-0.11,1.562-0.43l-0.188,0.902
		c-0.495,0.242-0.901,0.33-1.573,0.33c-1.133,0-2.178-0.715-2.178-2.013c0-1.606,1.188-2.905,2.597-2.905
		c1.154,0,1.914,0.66,1.914,1.771c0,0.297-0.056,0.627-0.177,0.99h-3.387V20.183z M447.089,19.49h2.464
		c0.044-0.132,0.066-0.274,0.066-0.406c0-0.495-0.33-0.858-1.012-0.858C447.925,18.225,447.342,18.741,447.089,19.49z"/>
</g>
</svg>
