<?xml version="1.0" encoding="utf-8"?>
<!-- Generator: Adobe Illustrator 16.0.0, SVG Export Plug-In . SVG Version: 6.00 Build 0)  -->
<!DOCTYPE svg PUBLIC "-//W3C//DTD SVG 1.1//EN" "http://www.w3.org/Graphics/SVG/1.1/DTD/svg11.dtd">
<svg version="1.1" id="Layer_1" xmlns="http://www.w3.org/2000/svg" xmlns:xlink="http://www.w3.org/1999/xlink" x="0px" y="0px"
	 width="147.404px" height="79.936px" viewBox="0 0 147.404 79.936" enable-background="new 0 0 147.404 79.936"
	 xml:space="preserve">
<g>
	<g>
		<defs>
			<rect id="SVGID_1_" x="2.946" y="3.293" width="141.496" height="73.704"/>
		</defs>
		<clipPath id="SVGID_2_">
			<use xlink:href="#SVGID_1_"  overflow="visible"/>
		</clipPath>
		<rect x="3.331" y="3.295" clip-path="url(#SVGID_2_)" width="141.494" height="93.699"/>
	</g>
	<g>
		<defs>
			<rect id="SVGID_3_" x="2.946" y="3.293" width="141.496" height="73.704"/>
		</defs>
		<clipPath id="SVGID_4_">
			<use xlink:href="#SVGID_3_"  overflow="visible"/>
		</clipPath>
		<polyline clip-path="url(#SVGID_4_)" fill="none" stroke="#F2EDEB" stroke-width="0.8436" points="3.112,3.056 39.215,39.665 
			3.112,76.275 		"/>
	</g>
	<g>
		<defs>
			<rect id="SVGID_5_" x="2.946" y="3.293" width="141.496" height="73.704"/>
		</defs>
		<clipPath id="SVGID_6_">
			<use xlink:href="#SVGID_5_"  overflow="visible"/>
		</clipPath>
		<polyline clip-path="url(#SVGID_6_)" fill="none" stroke="#F2EDEB" stroke-width="0.8436" points="-3.459,3.056 32.644,39.665 
			-3.459,76.275 		"/>
	</g>
	<g>
		<defs>
			<rect id="SVGID_7_" x="2.946" y="3.293" width="141.496" height="73.704"/>
		</defs>
		<clipPath id="SVGID_8_">
			<use xlink:href="#SVGID_7_"  overflow="visible"/>
		</clipPath>
		<polyline clip-path="url(#SVGID_8_)" fill="none" stroke="#F2EDEB" stroke-width="0.8436" points="-10.034,3.056 26.072,39.665 
			-10.034,76.275 		"/>
	</g>
	<g>
		<defs>
			<rect id="SVGID_9_" x="2.946" y="3.293" width="141.496" height="73.704"/>
		</defs>
		<clipPath id="SVGID_10_">
			<use xlink:href="#SVGID_9_"  overflow="visible"/>
		</clipPath>
		<polyline clip-path="url(#SVGID_10_)" fill="none" stroke="#F2EDEB" stroke-width="0.8436" points="-16.606,3.056 19.5,39.665 
			-16.606,76.275 		"/>
	</g>
	<g>
		<defs>
			<rect id="SVGID_11_" x="2.946" y="3.293" width="141.496" height="73.704"/>
		</defs>
		<clipPath id="SVGID_12_">
			<use xlink:href="#SVGID_11_"  overflow="visible"/>
		</clipPath>
		<polyline clip-path="url(#SVGID_12_)" fill="none" stroke="#F2EDEB" stroke-width="0.8436" points="-23.18,3.056 12.925,39.665 
			-23.18,76.275 		"/>
	</g>
	<g>
		<defs>
			<rect id="SVGID_13_" x="2.946" y="3.293" width="141.496" height="73.704"/>
		</defs>
		<clipPath id="SVGID_14_">
			<use xlink:href="#SVGID_13_"  overflow="visible"/>
		</clipPath>
		<polyline clip-path="url(#SVGID_14_)" fill="none" stroke="#F2EDEB" stroke-width="0.8436" points="-29.752,3.056 6.354,39.665 
			-29.752,76.275 		"/>
	</g>
	<g>
		<defs>
			<rect id="SVGID_15_" x="2.946" y="3.293" width="141.496" height="73.704"/>
		</defs>
		<clipPath id="SVGID_16_">
			<use xlink:href="#SVGID_15_"  overflow="visible"/>
		</clipPath>
		<polyline clip-path="url(#SVGID_16_)" fill="none" stroke="#F2EDEB" stroke-width="0.8436" points="145.916,76.275 109.81,39.665 
			145.916,3.056 		"/>
	</g>
	<g>
		<defs>
			<rect id="SVGID_17_" x="2.946" y="3.293" width="141.496" height="73.704"/>
		</defs>
		<clipPath id="SVGID_18_">
			<use xlink:href="#SVGID_17_"  overflow="visible"/>
		</clipPath>
		<polyline clip-path="url(#SVGID_18_)" fill="none" stroke="#F2EDEB" stroke-width="0.8436" points="152.488,76.275 
			116.381,39.665 152.488,3.056 		"/>
	</g>
	<g>
		<defs>
			<rect id="SVGID_19_" x="2.946" y="3.293" width="141.496" height="73.704"/>
		</defs>
		<clipPath id="SVGID_20_">
			<use xlink:href="#SVGID_19_"  overflow="visible"/>
		</clipPath>
		<polyline clip-path="url(#SVGID_20_)" fill="none" stroke="#F2EDEB" stroke-width="0.8436" points="159.06,76.275 122.956,39.665 
			159.06,3.056 		"/>
	</g>
	<g>
		<defs>
			<rect id="SVGID_21_" x="2.946" y="3.293" width="141.496" height="73.704"/>
		</defs>
		<clipPath id="SVGID_22_">
			<use xlink:href="#SVGID_21_"  overflow="visible"/>
		</clipPath>
		<polyline clip-path="url(#SVGID_22_)" fill="none" stroke="#F2EDEB" stroke-width="0.8436" points="165.633,76.275 
			129.527,39.665 165.633,3.056 		"/>
	</g>
	<g>
		<defs>
			<rect id="SVGID_23_" x="2.946" y="3.293" width="141.496" height="73.704"/>
		</defs>
		<clipPath id="SVGID_24_">
			<use xlink:href="#SVGID_23_"  overflow="visible"/>
		</clipPath>
		<polyline clip-path="url(#SVGID_24_)" fill="none" stroke="#F2EDEB" stroke-width="0.8436" points="172.205,76.275 
			136.098,39.665 172.205,3.056 		"/>
	</g>
	<g>
		<defs>
			<rect id="SVGID_25_" x="2.946" y="3.293" width="141.496" height="73.704"/>
		</defs>
		<clipPath id="SVGID_26_">
			<use xlink:href="#SVGID_25_"  overflow="visible"/>
		</clipPath>
		<polyline clip-path="url(#SVGID_26_)" fill="none" stroke="#F2EDEB" stroke-width="0.8436" points="178.778,76.275 
			142.671,39.665 178.778,3.056 		"/>
	</g>
</g>
<g enable-background="new    ">
	<path fill="#F2F2F3" d="M42.975,28.829h1.385l1.972-8.589h-2.656l-0.391,1.695h-1.157l0.636-2.754h8.849l-0.635,2.754h-1.157
		l0.391-1.695h-2.656l-1.988,8.589h1.548l-0.261,1.075H42.73L42.975,28.829z"/>
	<path fill="#F2F2F3" d="M53.617,18.953h-1.32l0.245-0.978h2.428l-1.499,6.421c0.521-0.799,1.336-1.549,2.314-1.549
		c1.108,0,1.956,0.767,1.972,1.891c0,0.342-0.065,0.717-0.18,1.092l-0.603,2.249c-0.065,0.229-0.098,0.473-0.098,0.603
		c0,0.326,0.196,0.521,0.473,0.521c0.326,0,0.603-0.276,0.913-1.092l0.57,0.196c-0.342,1.124-0.896,1.711-1.711,1.711
		c-0.848,0-1.385-0.538-1.385-1.288c0-0.211,0.049-0.505,0.114-0.766l0.619-2.281c0.082-0.31,0.114-0.554,0.114-0.814
		c-0.017-0.62-0.489-1.043-1.157-1.043c-0.945,0-2.004,0.88-2.396,2.542l-0.815,3.536h-1.141L53.617,18.953z"/>
	<path fill="#F2F2F3" d="M60.984,26.776c-0.016,0.114-0.016,0.229-0.016,0.342c0,1.223,1.01,1.939,2.216,1.939
		c0.782,0,1.401-0.163,2.298-0.636l-0.245,1.108c-0.733,0.358-1.336,0.506-2.281,0.506c-1.63,0-3.113-1.043-3.113-2.934
		c0-2.347,1.776-4.27,3.846-4.27c1.613,0,2.656,0.978,2.656,2.542c0,0.424-0.082,0.896-0.261,1.401H60.984z M61.163,25.896h3.993
		c0.082-0.212,0.114-0.456,0.114-0.685c0-0.75-0.505-1.385-1.63-1.385C62.548,23.826,61.571,24.69,61.163,25.896z"/>
	<path fill="#F2F2F3" d="M70.664,28.829h1.288l1.988-8.572H72.49l0.245-1.075h3.521c0.504,0,0.961,0.049,1.352,0.162
		c1.532,0.392,2.281,1.483,2.281,2.819c0,2.086-1.629,3.879-4.465,3.879c-0.603,0-1.271-0.017-1.597-0.032l-0.668,2.819h1.483
		l-0.245,1.075h-3.993L70.664,28.829z M78.666,22.245c0-0.913-0.489-1.597-1.499-1.874c-0.31-0.082-0.668-0.114-1.043-0.114h-0.979
		l-1.075,4.677c0.375,0.033,0.929,0.049,1.516,0.049C77.655,24.983,78.666,23.647,78.666,22.245z"/>
	<path fill="#F2F2F3" d="M79.921,27.004c0-2.151,1.68-4.172,3.928-4.172c1.907,0,3.016,1.401,3.016,3.031
		c0,2.167-1.679,4.172-3.928,4.172C81.03,30.035,79.921,28.65,79.921,27.004z M85.707,25.864c0-1.271-0.831-2.037-1.907-2.037
		c-1.516,0-2.721,1.45-2.721,3.193c0,1.255,0.83,2.021,1.906,2.021C84.516,29.041,85.707,27.59,85.707,25.864z"/>
	<path fill="#F2F2F3" d="M89.749,23.956h-1.304l0.245-0.994h2.313l-0.456,1.923c0.896-1.319,1.678-2.037,2.379-2.037
		c0.555,0,0.945,0.358,0.945,0.864c0,0.488-0.407,0.896-0.88,0.896c-0.44,0-0.75-0.294-0.831-0.652
		c-0.521,0.261-1.613,1.304-1.988,2.868l-0.782,3.08H88.25L89.749,23.956z"/>
	<path fill="#F2F2F3" d="M97.098,23.956l-0.978,3.977c-0.065,0.228-0.098,0.424-0.098,0.603c0,0.31,0.212,0.555,0.554,0.555
		c0.375,0,0.767-0.196,1.451-0.652l0.424,0.604c-0.848,0.684-1.532,0.994-2.184,0.994c-0.815,0-1.435-0.506-1.435-1.32
		c0-0.229,0.049-0.489,0.13-0.782l0.979-3.977h-1.238l0.244-0.994h1.238l0.407-1.63l1.255-0.407l-0.505,2.037h2.118l-0.244,0.994
		H97.098z"/>
	<path fill="#F2F2F3" d="M99.951,27.216c0-2.363,1.679-4.384,3.683-4.384c1.141,0,1.956,0.733,2.168,1.727l0.439-1.646h1.092
		l-1.254,5.101c-0.066,0.277-0.115,0.538-0.115,0.685c0,0.326,0.18,0.505,0.457,0.505c0.31,0,0.603-0.276,0.929-1.092l0.57,0.196
		c-0.375,1.173-0.994,1.711-1.743,1.711c-0.783,0-1.288-0.521-1.288-1.271v-0.163c-0.603,0.815-1.45,1.451-2.478,1.451
		C100.962,30.035,99.951,28.943,99.951,27.216z M105.491,25.733c0-1.124-0.603-1.891-1.743-1.891c-1.516,0-2.591,1.613-2.591,3.292
		c0,1.141,0.554,1.907,1.629,1.907C104.384,29.041,105.491,27.281,105.491,25.733z"/>
</g>
<g enable-background="new    ">
	<path fill="#F2F2F3" d="M45.358,45.492h1.349l2.043-8.788h-1.542l0.443-1.946h9.501l-0.886,3.643h-2.062l0.404-1.716h-3.681
		l-0.79,3.392h3.777l-0.424,1.851h-3.777l-0.829,3.585h3.681l0.443-1.716h2.062l-0.848,3.643h-9.308L45.358,45.492z"/>
	<path fill="#F2F2F3" d="M56.385,44.49c0-1.021,0.636-1.696,1.465-1.696c0.732,0,1.311,0.598,1.311,1.33
		c0,0.327-0.116,0.693-0.424,0.963c0.424,0.425,1.311,0.694,2.39,0.694c1.33,0,2.255-0.521,2.255-1.6
		c0-0.867-0.694-1.388-2.158-2.178c-1.484-0.79-3.045-1.908-3.045-3.932c0-1.831,1.657-3.546,4.567-3.546
		c2.621,0,4.24,1.542,4.24,2.853c0,0.944-0.54,1.715-1.445,1.715c-0.732,0-1.311-0.578-1.311-1.311c0-0.309,0.096-0.636,0.347-0.905
		c-0.173-0.231-0.867-0.463-1.792-0.463c-1.484,0-2.274,0.713-2.274,1.465c0,1.002,0.944,1.657,2.236,2.351
		c1.542,0.829,2.968,1.947,2.968,3.759c0,2.023-1.657,3.681-4.703,3.681C58.467,47.67,56.385,46.205,56.385,44.49z"/>
	<path fill="#F2F2F3" d="M67.336,44.49c0-1.021,0.636-1.696,1.465-1.696c0.732,0,1.311,0.598,1.311,1.33
		c0,0.327-0.116,0.693-0.424,0.963c0.424,0.425,1.311,0.694,2.39,0.694c1.33,0,2.254-0.521,2.254-1.6
		c0-0.867-0.693-1.388-2.158-2.178c-1.484-0.79-3.045-1.908-3.045-3.932c0-1.831,1.657-3.546,4.567-3.546
		c2.621,0,4.24,1.542,4.24,2.853c0,0.944-0.54,1.715-1.445,1.715c-0.732,0-1.311-0.578-1.311-1.311c0-0.309,0.097-0.636,0.347-0.905
		c-0.174-0.231-0.867-0.463-1.792-0.463c-1.484,0-2.274,0.713-2.274,1.465c0,1.002,0.944,1.657,2.236,2.351
		c1.542,0.829,2.967,1.947,2.967,3.759c0,2.023-1.656,3.681-4.702,3.681C69.417,47.67,67.336,46.205,67.336,44.49z"/>
	<path fill="#F2F2F3" d="M77.593,45.492h1.137l5.164-8.808h-1.521l0.443-1.927h7.131l-0.443,1.927h-1.407l1.079,8.808h1.291
		l-0.463,1.946h-4.721l0.443-1.927h1.426l-0.25-2.082h-4.857l-1.214,2.082h1.716l-0.443,1.927H77.13L77.593,45.492z M86.688,41.618
		l-0.598-5.088l-2.986,5.088H86.688z"/>
	<path fill="#F2F2F3" d="M93.419,45.492h1.465l0.694-2.968l-2.197-5.82h-1.214l0.443-1.946h4.799l-0.443,1.946h-1.33l1.426,4.278
		l3.393-4.278h-1.35l0.443-1.946h5.088l-0.443,1.946h-1.137l-5.396,6.225l-0.598,2.563h1.658l-0.443,1.946h-5.3L93.419,45.492z"/>
</g>
<g enable-background="new    ">
	<path fill="#F2F2F3" d="M43.863,62.025c0-1.021,0.636-1.696,1.465-1.696c0.732,0,1.31,0.598,1.31,1.33
		c0,0.327-0.115,0.693-0.424,0.963c0.424,0.425,1.311,0.694,2.39,0.694c1.33,0,2.255-0.521,2.255-1.6
		c0-0.867-0.694-1.388-2.158-2.178c-1.484-0.79-3.045-1.908-3.045-3.932c0-1.831,1.657-3.546,4.567-3.546
		c2.621,0,4.24,1.542,4.24,2.853c0,0.944-0.54,1.715-1.445,1.715c-0.732,0-1.311-0.578-1.311-1.311c0-0.309,0.096-0.636,0.347-0.905
		c-0.173-0.231-0.867-0.463-1.792-0.463c-1.484,0-2.274,0.713-2.274,1.465c0,1.002,0.944,1.657,2.236,2.351
		c1.542,0.829,2.968,1.947,2.968,3.759c0,2.023-1.657,3.681-4.702,3.681C45.945,65.204,43.863,63.74,43.863,62.025z"/>
	<path fill="#F2F2F3" d="M54.505,63.027h1.349l2.043-8.788h-1.542l0.443-1.946h9.501l-0.886,3.643h-2.062l0.404-1.716h-3.681
		l-0.79,3.392h3.777l-0.424,1.851H58.86l-0.829,3.585h3.681l0.443-1.716h2.062l-0.848,3.643h-9.308L54.505,63.027z"/>
	<path fill="#F2F2F3" d="M65.513,63.027h1.349l2.043-8.788h-1.542l0.443-1.946h4.125c1.773,0,3.044,0.385,3.835,1.176
		c0.616,0.616,0.943,1.426,0.943,2.39c0,1.966-1.271,3.488-3.372,4.085l1.388,3.084h1.522l-0.443,1.946h-2.621l-1.908-4.76h-0.27
		c-0.385,0-0.829-0.02-1.272-0.059l-0.694,2.872h1.581l-0.443,1.946H65.07L65.513,63.027z M74.494,56.031
		c0-0.501-0.173-0.905-0.462-1.194c-0.405-0.405-1.099-0.598-2.139-0.598h-0.829l-0.925,4.066c0.424,0.058,0.848,0.077,1.407,0.077
		C73.376,58.382,74.494,57.399,74.494,56.031z"/>
	<path fill="#F2F2F3" d="M77.312,63.027h1.464l2.043-8.788h-1.656l0.443-1.946h5.299l-0.443,1.946h-1.465l-2.043,8.788h1.658
		l-0.443,1.946h-5.3L77.312,63.027z"/>
	<path fill="#F2F2F3" d="M84.157,63.027h1.348l2.043-8.788h-1.541l0.443-1.946h9.5l-0.886,3.643h-2.062l0.404-1.716h-3.682
		l-0.789,3.392h3.777l-0.425,1.851h-3.777l-0.829,3.585h3.682l0.443-1.716h2.062l-0.849,3.643h-9.308L84.157,63.027z"/>
	<path fill="#F2F2F3" d="M95.183,62.025c0-1.021,0.636-1.696,1.465-1.696c0.731,0,1.31,0.598,1.31,1.33
		c0,0.327-0.115,0.693-0.424,0.963c0.424,0.425,1.311,0.694,2.391,0.694c1.33,0,2.254-0.521,2.254-1.6
		c0-0.867-0.693-1.388-2.158-2.178c-1.483-0.79-3.045-1.908-3.045-3.932c0-1.831,1.658-3.546,4.568-3.546
		c2.62,0,4.239,1.542,4.239,2.853c0,0.944-0.54,1.715-1.445,1.715c-0.732,0-1.311-0.578-1.311-1.311
		c0-0.309,0.097-0.636,0.347-0.905c-0.174-0.231-0.867-0.463-1.792-0.463c-1.483,0-2.274,0.713-2.274,1.465
		c0,1.002,0.944,1.657,2.236,2.351c1.541,0.829,2.967,1.947,2.967,3.759c0,2.023-1.656,3.681-4.701,3.681
		C97.264,65.204,95.183,63.74,95.183,62.025z"/>
</g>
</svg>
