<?xml version="1.0" encoding="utf-8"?>
<!-- Generator: Adobe Illustrator 16.0.0, SVG Export Plug-In . SVG Version: 6.00 Build 0)  -->
<!DOCTYPE svg PUBLIC "-//W3C//DTD SVG 1.1//EN" "http://www.w3.org/Graphics/SVG/1.1/DTD/svg11.dtd">
<svg version="1.1" id="Layer_1" xmlns="http://www.w3.org/2000/svg" xmlns:xlink="http://www.w3.org/1999/xlink" x="0px" y="0px"
	 width="208px" height="16.458px" viewBox="0 0 208 16.458" enable-background="new 0 0 208 16.458" xml:space="preserve">
<g>
	<g enable-background="new    ">
		<path fill="#010101" d="M3.145,1.971h5.347c3.155,0,5.187,1.622,5.187,4.384v0.036c0,2.94-2.264,4.491-5.364,4.491H6.603v3.564
			H3.145V1.971z M8.242,8.173c1.229,0,1.978-0.642,1.978-1.622V6.516c0-1.069-0.749-1.64-1.996-1.64H6.603v3.297H8.242z"/>
		<path fill="#010101" d="M15.101,1.971H21c1.907,0,3.226,0.499,4.063,1.354c0.73,0.713,1.105,1.676,1.105,2.905v0.035
			c0,1.907-1.016,3.173-2.566,3.832l2.976,4.349h-3.992l-2.513-3.778h-0.036h-1.479v3.778h-3.458V1.971z M20.84,7.959
			c1.176,0,1.854-0.57,1.854-1.479V6.445c0-0.98-0.713-1.479-1.872-1.479h-2.263v2.994H20.84z"/>
		<path fill="#010101" d="M27.948,1.971h3.476v12.476h-3.476V1.971z"/>
		<path fill="#010101" d="M32.67,1.971h3.868l2.833,7.896l2.834-7.896h3.796l-5.062,12.564h-3.208L32.67,1.971z"/>
		<path fill="#010101" d="M49.704,1.882h3.333l5.311,12.564h-3.707l-0.909-2.228H48.92l-0.892,2.228h-3.636L49.704,1.882z
			 M52.733,9.528l-1.39-3.547l-1.408,3.547H52.733z"/>
		<path fill="#010101" d="M60.964,5.001h-3.743v-3.03h10.943v3.03h-3.743v9.445h-3.458V5.001z"/>
		<path fill="#010101" d="M69.641,1.971h10.034v2.94h-6.612v1.89h5.988v2.727h-5.988v1.979h6.701v2.94H69.641V1.971z"/>
		<path fill="#010101" d="M85.339,8.245V8.208c0-3.635,2.852-6.486,6.719-6.486c2.192,0,3.743,0.677,5.062,1.817l-2.032,2.441
			c-0.891-0.748-1.782-1.176-3.012-1.176c-1.8,0-3.19,1.515-3.19,3.422v0.035c0,2.015,1.408,3.458,3.386,3.458
			c0.838,0,1.479-0.179,1.996-0.518V9.688h-2.459v-2.53h5.739v5.613c-1.319,1.088-3.154,1.926-5.418,1.926
			C88.244,14.697,85.339,12.023,85.339,8.245z"/>
		<path fill="#010101" d="M103.746,1.882h3.333l5.312,12.564h-3.707l-0.909-2.228h-4.812l-0.891,2.228h-3.636L103.746,1.882z
			 M106.776,9.528l-1.391-3.547l-1.408,3.547H106.776z"/>
		<path fill="#010101" d="M115.006,5.001h-3.742v-3.03h10.942v3.03h-3.743v9.445h-3.457V5.001z"/>
		<path fill="#010101" d="M123.683,1.971h3.458V6.64h4.438V1.971h3.457v12.476h-3.457v-4.74h-4.438v4.74h-3.458V1.971z"/>
		<path fill="#010101" d="M137.207,1.971h10.034v2.94h-6.612v1.89h5.988v2.727h-5.988v1.979h6.701v2.94h-10.123V1.971z"/>
		<path fill="#010101" d="M149.057,1.971h5.898c1.907,0,3.227,0.499,4.064,1.354c0.73,0.713,1.104,1.676,1.104,2.905v0.035
			c0,1.907-1.016,3.173-2.566,3.832l2.977,4.349h-3.992l-2.513-3.778h-0.036h-1.479v3.778h-3.457V1.971z M154.795,7.959
			c1.177,0,1.854-0.57,1.854-1.479V6.445c0-0.98-0.713-1.479-1.871-1.479h-2.264v2.994H154.795z"/>
		<path fill="#010101" d="M161.904,1.971h3.475v12.476h-3.475V1.971z"/>
		<path fill="#010101" d="M167.624,1.971h3.226l5.133,6.595V1.971h3.422v12.476h-3.029l-5.329-6.844v6.844h-3.422V1.971z"/>
		<path fill="#010101" d="M181.147,8.245V8.208c0-3.635,2.852-6.486,6.72-6.486c2.191,0,3.742,0.677,5.061,1.817l-2.031,2.441
			c-0.891-0.748-1.782-1.176-3.012-1.176c-1.801,0-3.19,1.515-3.19,3.422v0.035c0,2.015,1.408,3.458,3.386,3.458
			c0.838,0,1.479-0.179,1.996-0.518V9.688h-2.459v-2.53h5.738v5.613c-1.318,1.088-3.154,1.926-5.418,1.926
			C184.053,14.697,181.147,12.023,181.147,8.245z"/>
		<path fill="#010101" d="M194.298,12.593l1.925-2.299c1.229,0.98,2.602,1.497,4.046,1.497c0.927,0,1.426-0.321,1.426-0.855V10.9
			c0-0.517-0.41-0.802-2.104-1.193c-2.655-0.606-4.705-1.355-4.705-3.922V5.75c0-2.316,1.836-3.992,4.83-3.992
			c2.121,0,3.778,0.57,5.133,1.657l-1.729,2.442c-1.141-0.803-2.389-1.23-3.493-1.23c-0.838,0-1.248,0.356-1.248,0.803v0.035
			c0,0.57,0.428,0.82,2.156,1.212c2.87,0.624,4.652,1.551,4.652,3.886v0.035c0,2.549-2.014,4.063-5.044,4.063
			C197.934,14.661,195.83,13.965,194.298,12.593z"/>
	</g>
</g>
</svg>
