<?xml version="1.0" encoding="utf-8"?>
<!-- Generator: Adobe Illustrator 16.0.0, SVG Export Plug-In . SVG Version: 6.00 Build 0)  -->
<!DOCTYPE svg PUBLIC "-//W3C//DTD SVG 1.1//EN" "http://www.w3.org/Graphics/SVG/1.1/DTD/svg11.dtd">
<svg version="1.1" id="Layer_1" xmlns="http://www.w3.org/2000/svg" xmlns:xlink="http://www.w3.org/1999/xlink" x="0px" y="0px"
	 width="140.5px" height="16.458px" viewBox="0 0 140.5 16.458" enable-background="new 0 0 140.5 16.458" xml:space="preserve">
<g>
	<g enable-background="new    ">
		<path fill="#010101" d="M2.141,1.632h4.812c4.455,0,7.04,2.566,7.04,6.167v0.035c0,3.6-2.62,6.273-7.111,6.273H2.141V1.632z
			 M7.007,11.042c2.067,0,3.44-1.141,3.44-3.154V7.852c0-1.996-1.373-3.154-3.44-3.154H5.599v6.345H7.007z"/>
		<path fill="#010101" d="M15.808,1.632h3.476v12.476h-3.476V1.632z"/>
		<path fill="#010101" d="M21.528,1.632h3.226l5.133,6.595V1.632h3.422v12.476h-3.03L24.95,7.264v6.844h-3.422V1.632z"/>
		<path fill="#010101" d="M35.48,1.632h3.226l5.133,6.595V1.632h3.422v12.476h-3.03l-5.329-6.844v6.844H35.48V1.632z"/>
		<path fill="#010101" d="M49.432,1.632h10.034v2.94h-6.612v1.89h5.988v2.727h-5.988v1.979h6.701v2.94H49.432V1.632z"/>
		<path fill="#010101" d="M61.281,1.632h5.899c1.907,0,3.226,0.499,4.064,1.354c0.73,0.713,1.104,1.676,1.104,2.905v0.035
			c0,1.907-1.017,3.173-2.566,3.832l2.976,4.349h-3.992l-2.513-3.778h-0.036h-1.479v3.778h-3.458V1.632z M67.02,7.621
			c1.176,0,1.854-0.57,1.854-1.479V6.106c0-0.98-0.713-1.479-1.872-1.479h-2.263v2.994H67.02z"/>
		<path fill="#010101" d="M78.334,1.632h5.346c3.154,0,5.187,1.622,5.187,4.384v0.036c0,2.94-2.263,4.491-5.364,4.491h-1.711v3.564
			h-3.457V1.632z M83.43,7.834c1.23,0,1.979-0.642,1.979-1.622V6.177c0-1.069-0.748-1.64-1.996-1.64h-1.621v3.297H83.43z"/>
		<path fill="#010101" d="M93.354,1.543h3.334l5.311,12.564h-3.707l-0.908-2.228H92.57l-0.891,2.228h-3.637L93.354,1.543z
			 M96.385,9.189l-1.391-3.547l-1.408,3.547H96.385z"/>
		<path fill="#010101" d="M103.172,1.632h5.898c1.908,0,3.227,0.499,4.064,1.354c0.73,0.713,1.104,1.676,1.104,2.905v0.035
			c0,1.907-1.017,3.173-2.566,3.832l2.976,4.349h-3.992l-2.512-3.778h-0.036h-1.479v3.778h-3.457V1.632z M108.91,7.621
			c1.176,0,1.854-0.57,1.854-1.479V6.106c0-0.98-0.713-1.479-1.871-1.479h-2.264v2.994H108.91z"/>
		<path fill="#010101" d="M118.995,4.663h-3.743v-3.03h10.943v3.03h-3.742v9.445h-3.458V4.663z"/>
		<path fill="#010101" d="M131.271,9.438l-4.74-7.806h3.939l2.566,4.545l2.584-4.545h3.867l-4.74,7.753v4.723h-3.477V9.438z"/>
	</g>
</g>
</svg>
