<?xml version="1.0" encoding="utf-8"?>
<!-- Generator: Adobe Illustrator 16.0.0, SVG Export Plug-In . SVG Version: 6.00 Build 0)  -->
<!DOCTYPE svg PUBLIC "-//W3C//DTD SVG 1.1//EN" "http://www.w3.org/Graphics/SVG/1.1/DTD/svg11.dtd">
<svg version="1.1" id="Layer_1" xmlns="http://www.w3.org/2000/svg" xmlns:xlink="http://www.w3.org/1999/xlink" x="0px" y="0px"
	 width="71px" height="16.458px" viewBox="0 0 71 16.458" enable-background="new 0 0 71 16.458" xml:space="preserve">
<g enable-background="new    ">
	<path fill="#010101" d="M7.399,2.037h3.333l5.311,12.564h-3.707l-0.909-2.228H6.615l-0.892,2.228H2.088L7.399,2.037z M10.429,9.682
		l-1.39-3.547L7.631,9.682H10.429z"/>
	<path fill="#010101" d="M17.217,2.125h6.398c1.568,0,2.673,0.392,3.404,1.123c0.499,0.499,0.802,1.158,0.802,2.014v0.036
		c0,1.443-0.82,2.299-1.925,2.779c1.515,0.5,2.477,1.355,2.477,3.048v0.036c0,2.139-1.746,3.439-4.723,3.439h-6.434V2.125z
		 M22.759,7.098c1.051,0,1.64-0.356,1.64-1.087V5.975c0-0.677-0.535-1.069-1.568-1.069h-2.246v2.192H22.759z M23.258,11.821
		c1.051,0,1.658-0.41,1.658-1.141v-0.036c0-0.677-0.535-1.122-1.693-1.122h-2.638v2.299H23.258z"/>
	<path fill="#010101" d="M29.493,8.399V8.363c0-3.582,2.888-6.486,6.737-6.486s6.701,2.869,6.701,6.451v0.035
		c0,3.583-2.888,6.488-6.737,6.488S29.493,11.981,29.493,8.399z M39.402,8.399V8.363c0-1.8-1.301-3.368-3.208-3.368
		c-1.889,0-3.154,1.533-3.154,3.333v0.035c0,1.801,1.301,3.369,3.19,3.369C38.137,11.732,39.402,10.199,39.402,8.399z"/>
	<path fill="#010101" d="M44.533,9.129V2.125h3.511v6.933c0,1.801,0.909,2.656,2.299,2.656s2.299-0.82,2.299-2.566V2.125h3.511
		v6.915c0,4.027-2.299,5.792-5.846,5.792C46.761,14.833,44.533,13.033,44.533,9.129z"/>
	<path fill="#010101" d="M61.211,5.156h-3.742v-3.03h10.943v3.03h-3.743v9.445h-3.458V5.156z"/>
</g>
</svg>
