<?xml version="1.0" encoding="utf-8"?>
<!-- Generator: Adobe Illustrator 16.0.0, SVG Export Plug-In . SVG Version: 6.00 Build 0)  -->
<!DOCTYPE svg PUBLIC "-//W3C//DTD SVG 1.1//EN" "http://www.w3.org/Graphics/SVG/1.1/DTD/svg11.dtd">
<svg version="1.1" id="Layer_1" xmlns="http://www.w3.org/2000/svg" xmlns:xlink="http://www.w3.org/1999/xlink" x="0px" y="0px"
	 width="206.335px" height="211.668px" viewBox="0 0 206.335 211.668" enable-background="new 0 0 206.335 211.668"
	 xml:space="preserve">
<g>
	<path d="M3.544,136.234H5.2l2.507-10.785H5.815l0.544-2.389h11.659l-1.088,4.47H14.4l0.497-2.105H10.38l-0.97,4.163h4.636
		l-0.521,2.271H8.89l-1.017,4.399h4.517l0.544-2.105h2.531l-1.041,4.47H3L3.544,136.234z"/>
	<path d="M16.883,136.234h1.466l6.103-5.724l-3.217-5.062h-1.75l0.544-2.389h6.433l-0.544,2.389H24.38l1.869,3.619l3.382-3.619
		h-1.632l0.544-2.389h6.575l-0.545,2.389h-1.466l-5.7,5.345l3.477,5.44h1.751l-0.544,2.389h-6.244l0.544-2.389h1.561l-2.294-4.021
		l-3.855,4.021h1.703l-0.544,2.389h-6.622L16.883,136.234z"/>
	<path d="M34.028,136.234h1.655l2.507-10.785h-1.893l0.545-2.389h11.659l-1.088,4.47h-2.53l0.496-2.105h-4.517l-0.97,4.163h4.636
		l-0.521,2.271h-4.636l-1.017,4.399h4.517l0.544-2.105h2.531l-1.041,4.47H33.483L34.028,136.234z"/>
	<path d="M48.761,132.071c0-5.062,3.974-9.295,8.94-9.295c3.193,0,5.582,1.892,5.582,3.997c0,1.088-0.78,2.034-1.821,2.034
		c-0.898,0-1.632-0.733-1.632-1.632c0-0.449,0.189-0.852,0.449-1.111c-0.308-0.426-1.324-0.828-2.649-0.828
		c-3.192,0-6.102,2.886-6.102,6.67c0,2.672,1.561,4.541,4.139,4.541c1.514,0,2.933-0.639,4.258-2.01l1.655,1.608
		c-1.75,2.011-3.784,2.862-6.126,2.862C51.765,138.906,48.761,136.423,48.761,132.071z"/>
	<path d="M64.891,134.2c0-0.662,0.142-1.514,0.331-2.294l1.489-6.457h-1.82l0.544-2.389h6.268l-0.545,2.389h-1.773l-1.514,6.575
		c-0.165,0.686-0.284,1.396-0.284,1.916c0,1.703,0.994,2.531,2.721,2.531c1.939,0,3.146-1.23,3.642-3.429l1.75-7.592h-2.058
		l0.544-2.389h6.268l-0.544,2.389h-1.607l-1.798,7.805c-0.875,3.666-2.696,5.652-6.599,5.652
		C66.806,138.906,64.891,137.085,64.891,134.2z"/>
	<path d="M82.509,136.234h1.82l2.531-10.856h-2.862l-0.544,2.459H80.9l1.111-4.777h13.41l-1.088,4.777h-2.53l0.544-2.459h-2.814
		l-2.531,10.856h2.058l-0.544,2.389h-6.551L82.509,136.234z"/>
	<path d="M94.167,136.234h1.798l2.507-10.785h-2.034l0.544-2.389h6.504l-0.544,2.389h-1.797l-2.508,10.785h2.034l-0.544,2.389
		h-6.504L94.167,136.234z"/>
	<path d="M105.921,125.449h-1.537l0.544-2.389h6.03l-0.544,2.389h-1.537l1.301,8.609l5.133-8.609h-1.727l0.544-2.389h6.243
		l-0.544,2.389h-1.324l-8.608,13.339h-1.514L105.921,125.449z"/>
	<path d="M118.903,136.234h1.656l2.507-10.785h-1.892l0.544-2.389h11.659l-1.088,4.47h-2.53l0.497-2.105h-4.518l-0.97,4.163h4.636
		l-0.521,2.271h-4.636l-1.017,4.399h4.517l0.544-2.105h2.531l-1.041,4.47h-11.424L118.903,136.234z"/>
	<path d="M4.727,153.231c0-5.062,3.974-9.295,8.94-9.295c3.193,0,5.582,1.892,5.582,3.997c0,1.088-0.78,2.034-1.821,2.034
		c-0.898,0-1.632-0.733-1.632-1.632c0-0.449,0.189-0.851,0.449-1.111c-0.308-0.426-1.324-0.828-2.649-0.828
		c-3.192,0-6.102,2.886-6.102,6.67c0,2.672,1.561,4.541,4.139,4.541c1.514,0,2.933-0.639,4.258-2.01l1.655,1.608
		c-1.75,2.01-3.784,2.862-6.126,2.862C7.73,160.066,4.727,157.583,4.727,153.231z"/>
	<path d="M19.153,157.394h1.655l2.507-10.785h-1.893l0.545-2.389h6.386l-0.544,2.389h-1.821l-0.97,4.115h7.071l0.97-4.115h-2.058
		l0.544-2.389h6.386l-0.544,2.389h-1.655l-2.507,10.785h1.892l-0.544,2.389h-6.386l0.544-2.389h1.821l1.017-4.328h-7.071
		l-1.017,4.328h2.058l-0.544,2.389h-6.387L19.153,157.394z"/>
	<path d="M36.96,157.394h1.656l2.507-10.785h-1.892l0.544-2.389h11.659l-1.088,4.47h-2.53l0.497-2.105h-4.518l-0.97,4.163h4.636
		l-0.521,2.271h-4.636l-1.017,4.399h4.517l0.544-2.105h2.531l-1.041,4.47H36.416L36.96,157.394z"/>
	<path d="M50.771,157.394h1.656l2.507-10.785h-1.892l0.544-2.389h11.423l-1.088,4.47h-2.53l0.496-2.105h-4.28l-1.041,4.446h4.47
		l-0.544,2.294h-4.446L55.1,157.37h2.199l-0.567,2.413h-6.505L50.771,157.394z"/>
</g>
<g>
	<path d="M2.77,190.045h1.126l1.58-6.812H4.253l0.261-1.112h3.599l-0.248,1.112h-1.14l-1.579,6.812h1.223l-0.262,1.112H2.509
		L2.77,190.045z"/>
	<path d="M11.217,184.236l-1.346,5.809h1.236l-0.261,1.112H7.372l0.261-1.112h1.03l1.579-6.812H9.075l0.247-1.112h2.211l3.255,6.399
		l1.222-5.287h-1.222l0.261-1.112h3.447l-0.248,1.112h-1.016l-1.854,7.951h-0.604L11.217,184.236z"/>
	<path d="M19.734,190.045h1.112l1.593-6.839h-2.005l-0.316,1.428h-1.194l0.577-2.513h7.607l-0.576,2.513h-1.182l0.316-1.428h-1.991
		l-1.58,6.839h1.25l-0.247,1.112h-3.625L19.734,190.045z"/>
	<path d="M26.383,190.045h1.03l1.579-6.812h-1.167l0.247-1.112h6.66l-0.577,2.375h-1.181l0.302-1.277h-3.034l-0.659,2.801h2.814
		l-0.247,1.071H29.35l-0.701,2.966h3.049l0.316-1.277h1.181l-0.549,2.376h-6.523L26.383,190.045z"/>
	<path d="M34.323,190.045h1.03l1.579-6.812h-1.167l0.247-1.112h2.856c1.222,0,2.114,0.274,2.664,0.837
		c0.426,0.412,0.646,0.975,0.646,1.634c0,1.374-0.934,2.458-2.5,2.856l1.209,2.596h1.071l-0.261,1.112h-1.689l-1.538-3.557h-0.344
		c-0.302,0-0.646-0.014-0.947-0.028l-0.591,2.472h1.195l-0.261,1.112h-3.461L34.323,190.045z M40.915,184.675
		c0-0.385-0.123-0.714-0.371-0.961c-0.329-0.33-0.906-0.48-1.716-0.48h-0.659l-0.756,3.269c0.316,0.027,0.632,0.041,1.085,0.041
		C40.009,186.543,40.915,185.76,40.915,184.675z"/>
	<path d="M44.213,183.233h-0.934l0.247-1.112h3.214l-0.247,1.112h-0.935l0.879,5.905l3.543-5.905h-1.029l0.247-1.112h3.282
		l-0.247,1.112h-0.811l-5.108,8.047H45.6L44.213,183.233z"/>
	<path d="M51.659,190.045h1.126l1.58-6.812h-1.223l0.261-1.112h3.599l-0.247,1.112h-1.141l-1.579,6.812h1.223l-0.261,1.112h-3.599
		L51.659,190.045z"/>
	<path d="M56.521,190.045h1.03l1.579-6.812h-1.167l0.247-1.112h6.66l-0.577,2.375h-1.181l0.302-1.277h-3.034l-0.659,2.801h2.814
		l-0.247,1.071h-2.801l-0.701,2.966h3.049l0.316-1.277h1.181l-0.549,2.376h-6.523L56.521,190.045z"/>
	<path d="M66.494,183.233H65.52l0.261-1.112h3.323l-0.247,1.112h-1.14l0.274,5.686l3.351-5.809h0.591l1.002,5.836l2.774-5.713H74.61
		l0.247-1.112h3.337l-0.261,1.112h-0.865l-4.106,8.02h-0.673l-1.085-5.754l-3.474,5.754l-0.659,0.014L66.494,183.233z"/>
	<path d="M80.383,190.045h1.03l1.579-6.812h-1.167l0.247-1.112h3.09c0.824,0,1.47,0.11,1.964,0.371
		c0.687,0.357,1.112,1.016,1.112,1.799c0,1.223-0.989,2.088-2.211,2.266c0.92,0.261,1.62,1.002,1.62,1.909
		c0,0.755-0.288,1.374-0.811,1.827c-0.425,0.371-1.029,0.632-1.743,0.755c-0.385,0.083-0.824,0.11-1.277,0.11h-3.694L80.383,190.045
		z M83.995,190.072c0.343,0,0.659-0.041,0.92-0.096c0.453-0.096,0.782-0.261,1.029-0.508c0.275-0.275,0.412-0.632,0.412-1.071
		c0-0.811-0.755-1.359-2.032-1.359h-0.961l-0.715,3.035H83.995z M84.462,186.035c1.538,0,2.485-0.577,2.485-1.606
		c0-0.426-0.22-0.824-0.673-1.017c-0.302-0.124-0.714-0.206-1.277-0.206h-0.755l-0.659,2.829H84.462z"/>
	<path d="M89.751,190.045h1.153l0.591-2.472l-1.565-4.339h-0.906l0.261-1.112h3.186l-0.247,1.112h-1.002l1.126,3.433l2.773-3.433
		h-0.988l0.261-1.112h3.31l-0.247,1.112H96.59l-3.914,4.573l-0.521,2.239h1.236l-0.248,1.112H89.49L89.751,190.045z"/>
	<path d="M2.77,207.458h1.462l2.652-9.536H5.23l0.347-1.558h3.076l2.191,7.998l5.71-7.998h3.211l-0.365,1.558h-1.461l-1.788,9.536
		h1.673l-0.347,1.557h-4.883l0.346-1.557h1.5l1.519-7.864l-5.499,7.575h-0.269l-2.153-7.575l-2.096,7.864h1.711l-0.365,1.557H2.424
		L2.77,207.458z"/>
	<path d="M19.713,205.862c0-2.826,1.961-5.287,4.364-5.287c1.25,0,2.191,0.904,2.48,1.961l0.538-1.846h1.576l-1.461,5.902
		c-0.097,0.346-0.154,0.654-0.154,0.846c0,0.365,0.174,0.577,0.5,0.577c0.308,0,0.692-0.288,1.077-1.346l0.75,0.27
		c-0.5,1.653-1.365,2.211-2.288,2.211c-0.98,0-1.596-0.673-1.596-1.673v-0.096c-0.712,0.98-1.711,1.788-2.961,1.788
		C20.886,209.169,19.713,207.881,19.713,205.862z M26.173,204.093c0-1.23-0.615-2.038-1.885-2.038c-1.614,0-2.826,1.75-2.826,3.615
		c0,1.211,0.597,2.057,1.75,2.057C24.903,207.727,26.173,205.9,26.173,204.093z"/>
	<path d="M32.405,202.151h-1.538l0.365-1.423h2.961l-0.538,2.327c1.019-1.634,1.98-2.461,2.884-2.461c0.673,0,1.23,0.48,1.23,1.153
		c0,0.654-0.538,1.173-1.153,1.173c-0.577,0-1.02-0.384-1.115-0.846c-0.597,0.269-1.77,1.442-2.211,3.23l-0.923,3.71h-1.692
		L32.405,202.151z"/>
	<path d="M37.926,209.015l2.922-12.651h-1.557l0.365-1.422h3.172l-2.269,9.728c2.307-0.827,3.441-1.577,3.787-2.115
		c-0.326-0.192-0.519-0.538-0.519-0.884c0-0.596,0.48-1.096,1.096-1.096s1.135,0.481,1.135,1.23c0,1.25-1.23,2.384-3.25,3.346
		l0.808,1.884c0.174,0.404,0.289,0.635,0.423,0.789c0.135,0.134,0.25,0.173,0.385,0.173c0.288,0,0.558-0.308,0.885-1.538l0.769,0.25
		c-0.441,2-1.191,2.442-2.038,2.442c-0.384,0-0.749-0.096-1.076-0.365c-0.27-0.231-0.52-0.577-0.712-1.058l-0.903-2.153
		c-0.327,0.135-0.692,0.25-1,0.365l-0.73,3.076H37.926z"/>
	<path d="M51.175,207.458h1.442l2.211-9.536h-1.634l0.346-1.558h4.922l-0.365,1.558h-1.519l-0.904,3.883h6.384l0.903-3.883h-1.73
		l0.365-1.558h4.902l-0.346,1.558h-1.461l-2.211,9.536h1.634l-0.346,1.557h-4.903l0.347-1.557h1.538l0.961-4.134h-6.383l-0.98,4.134
		h1.73l-0.365,1.557H50.81L51.175,207.458z"/>
	<path d="M66.677,207.477c0-0.25,0.058-0.615,0.135-0.904l1.153-4.422h-1.558l0.365-1.423h3.249l-1.538,5.864
		c-0.096,0.327-0.135,0.654-0.135,0.846c0,0.365,0.192,0.577,0.5,0.577c0.385,0,0.73-0.288,1.135-1.346l0.75,0.27
		c-0.5,1.653-1.308,2.211-2.326,2.211C67.292,209.15,66.677,208.477,66.677,207.477z M68.291,198.21c0-0.615,0.5-1.115,1.115-1.115
		c0.597,0,1.115,0.5,1.115,1.115s-0.519,1.115-1.115,1.115C68.791,199.325,68.291,198.825,68.291,198.21z"/>
	<path d="M77.598,207.496c0-0.269,0.058-0.634,0.135-0.942l0.711-2.5c0.097-0.327,0.135-0.577,0.135-0.846
		c0-0.731-0.5-1.211-1.249-1.211c-1.02,0-1.98,0.865-2.403,2.519l-1.115,4.499h-1.692l1.73-6.864h-1.538l0.365-1.423h2.961
		l-0.442,1.942c0.654-1.153,1.73-2.076,2.865-2.076c1.269,0,2.249,0.865,2.249,2.346c0,0.403-0.077,0.865-0.212,1.346l-0.711,2.441
		c-0.058,0.25-0.115,0.52-0.115,0.673c0,0.385,0.192,0.615,0.52,0.615c0.326,0,0.691-0.288,1.076-1.346l0.75,0.27
		c-0.442,1.5-1.23,2.211-2.25,2.211C78.232,209.15,77.598,208.458,77.598,207.496z"/>
	<path d="M82.754,205.497c0-2.634,2.192-4.922,4.826-4.922c1.826,0,3.037,1.115,3.037,2.327c0,0.711-0.442,1.307-1.134,1.307
		c-0.52,0-0.98-0.404-0.98-1.019c0-0.25,0.135-0.557,0.346-0.73c-0.27-0.308-0.711-0.461-1.308-0.461
		c-1.499,0-3.095,1.288-3.095,3.403c0,1.442,0.961,2.365,2.364,2.365c0.962,0,1.942-0.385,2.788-1.039l-0.039,1.538
		c-0.807,0.577-1.807,0.904-2.902,0.904C84.465,209.169,82.754,207.804,82.754,205.497z"/>
	<path d="M94.503,196.364h-1.557l0.365-1.422h3.172l-1.73,7.402c0.597-0.923,1.577-1.75,2.673-1.75c1.269,0,2.288,0.865,2.288,2.346
		c0,0.403-0.058,0.865-0.212,1.346l-0.673,2.461c-0.058,0.25-0.096,0.5-0.096,0.653c0,0.385,0.191,0.615,0.499,0.615
		c0.347,0,0.692-0.288,1.077-1.346l0.75,0.27c-0.442,1.5-1.212,2.211-2.25,2.211c-1.134,0-1.769-0.692-1.769-1.654
		c0-0.269,0.058-0.615,0.135-0.923l0.692-2.519c0.096-0.327,0.115-0.577,0.115-0.846c0-0.731-0.52-1.211-1.27-1.211
		c-1.019,0-2.019,0.846-2.403,2.557l-1.038,4.46h-1.691L94.503,196.364z"/>
	<path d="M102.37,207.458c0-0.25,0.058-0.558,0.115-0.865l2.384-10.229h-1.558l0.365-1.422h3.192l-2.692,11.631
		c-0.076,0.327-0.135,0.635-0.135,0.827c0,0.404,0.174,0.615,0.5,0.615c0.385,0,0.73-0.288,1.135-1.346l0.73,0.27
		c-0.5,1.653-1.308,2.211-2.307,2.211C102.966,209.15,102.37,208.477,102.37,207.458z"/>
	<path d="M108.274,207.477c0-0.25,0.058-0.615,0.135-0.904l1.153-4.422h-1.558l0.365-1.423h3.249l-1.538,5.864
		c-0.096,0.327-0.135,0.654-0.135,0.846c0,0.365,0.192,0.577,0.5,0.577c0.385,0,0.73-0.288,1.135-1.346l0.75,0.27
		c-0.5,1.653-1.308,2.211-2.326,2.211C108.89,209.15,108.274,208.477,108.274,207.477z M109.889,198.21
		c0-0.615,0.5-1.115,1.115-1.115c0.597,0,1.115,0.5,1.115,1.115s-0.519,1.115-1.115,1.115
		C110.389,199.325,109.889,198.825,109.889,198.21z"/>
	<path d="M119.022,196.768c-0.154,0.039-0.308,0.135-0.442,0.269c-0.346,0.327-0.635,1-0.865,1.98l-0.403,1.711h3.749l0.558-2.384
		c0.269-1.154,0.691-2.038,1.307-2.634c0.558-0.538,1.327-0.884,2.288-0.884c1.077,0,1.712,0.558,1.712,1.25
		c0,0.653-0.52,1.077-1.077,1.077s-1.019-0.365-1.058-0.885c-0.269,0.039-0.538,0.192-0.711,0.385
		c-0.365,0.346-0.654,0.961-0.865,1.865l-0.52,2.211h2.192l-0.365,1.423h-2.153l-1.558,6.864h-1.653l1.576-6.864h-3.749
		l-1.558,6.864h-1.653l1.577-6.864h-1.462l0.365-1.423h1.423l0.462-2c0.288-1.23,0.692-2.038,1.269-2.615
		c0.577-0.577,1.346-0.903,2.096-0.903c0.961,0,1.538,0.519,1.538,1.211c0,0.596-0.461,1.058-1.019,1.058
		C119.522,197.479,119.138,197.172,119.022,196.768z"/>
	<path d="M126.429,205.401v0.288c0,1.25,0.999,2.077,2.499,2.077c0.885,0,1.691-0.192,2.73-0.75l-0.327,1.577
		c-0.865,0.423-1.576,0.577-2.749,0.577c-1.98,0-3.808-1.25-3.808-3.519c0-2.807,2.077-5.076,4.538-5.076
		c2.019,0,3.345,1.154,3.345,3.096c0,0.519-0.096,1.096-0.308,1.73H126.429z M126.659,204.189h4.307
		c0.077-0.231,0.115-0.481,0.115-0.711c0-0.865-0.577-1.5-1.769-1.5C128.12,201.979,127.102,202.882,126.659,204.189z"/>
</g>
<line fill="none" stroke="#000000" x1="3.53" y1="112.022" x2="203.173" y2="112.022"/>
<line fill="none" stroke="#000000" x1="3.53" y1="170.635" x2="203.173" y2="170.635"/>
<g>
	<path opacity="0.5" fill="#B5121C" d="M5.623,37.018c0-16.507,13.491-31.109,29.363-31.109c12.936,0,18.729,8.174,18.729,12.539
		c0,3.413-2.063,5.238-4.127,5.238c-2.302,0-3.65-1.349-3.65-3.254c0-1.508,1.11-2.936,2.618-3.73
		c-0.793-2.857-5.396-6.746-13.809-6.746c-14.761,0-24.363,14.206-24.363,26.507c0,12.459,7.38,19.443,18.094,19.443
		c6.666,0,12.381-2.778,17.301-7.46l2.54,2.857c-5.794,5.714-12.698,8.729-20.316,8.729C15.86,60.033,5.623,51.7,5.623,37.018z"/>
	<path opacity="0.5" fill="#B5121C" d="M68.321,4.639h-6.349l0.872-3.651h10.477l-7.619,32.141c2.54-4.126,6.508-8.015,11.666-8.015
		c5.556,0,9.603,3.73,9.682,8.65c0,1.667-0.317,3.492-0.793,5.238l-3.175,11.745c-0.317,1.19-0.476,2.54-0.476,3.174
		c0,1.587,1.031,2.619,2.46,2.619c1.746,0,3.095-1.587,4.523-5.238l2.46,0.793c-1.508,4.683-3.81,7.46-7.46,7.46
		c-3.491,0-6.11-2.301-6.11-5.635c0-0.873,0.238-2.38,0.556-3.571l3.174-11.904c0.477-1.746,0.635-3.095,0.635-4.523
		c-0.079-3.016-2.618-5.238-6.031-5.238c-4.92,0-11.269,5.238-13.412,14.523l-3.65,15.872h-4.127L68.321,4.639z"/>
	<path opacity="0.5" fill="#B5121C" d="M104.749,29.399H98.4l0.952-3.65h10.238l-2.223,9.047c4.444-6.11,8.175-9.682,11.27-9.682
		c2.619,0,4.047,1.508,4.047,3.492c0,2.143-1.745,3.889-3.729,3.889c-1.825,0-3.095-1.111-3.492-2.698
		c-2.698,1.587-8.491,6.825-10.396,14.682l-3.651,14.603h-4.127L104.749,29.399z"/>
	<path opacity="0.5" fill="#B5121C" d="M128.083,53.922c0-0.873,0.317-2.46,0.635-3.571l5.872-20.952h-6.666l0.952-3.65h10.873
		l-6.984,24.999c-0.317,1.111-0.556,2.54-0.556,3.174c0,1.587,1.032,2.619,2.461,2.619c1.745,0,3.095-1.587,4.603-5.238l2.46,0.793
		c-1.587,4.683-3.968,7.46-7.618,7.46C130.622,59.557,128.083,57.255,128.083,53.922z M135.384,14.956
		c0-1.905,1.508-3.492,3.412-3.492c1.826,0,3.334,1.587,3.334,3.492c0,1.904-1.508,3.492-3.334,3.492
		C136.892,18.448,135.384,16.86,135.384,14.956z"/>
	<path opacity="0.5" fill="#B5121C" d="M148.956,55.351c-1.19-1.19-1.825-2.54-1.825-3.889c0-1.905,1.349-3.73,3.333-3.73
		s2.937,1.429,2.937,2.857c0,1.111-0.396,1.825-1.27,2.778c0.317,0.396,0.793,0.714,1.428,1.111
		c1.667,0.953,4.286,1.746,7.223,1.746c3.968,0,7.062-2.143,7.062-5.476c0-3.333-3.174-5.079-6.745-6.825
		c-5.079-2.54-9.365-4.762-9.365-9.603c0-5.317,4.604-9.206,11.508-9.206c4.206,0,7.856,1.428,9.92,3.492
		c1.19,1.111,1.825,2.46,1.825,3.889c0,2.222-1.508,3.65-3.174,3.65c-1.746,0-3.017-1.19-3.017-2.857
		c0-0.873,0.318-1.825,1.032-2.777c-0.159-0.159-0.477-0.476-1.35-0.873c-1.19-0.556-3.253-1.032-5.555-1.032
		c-4.444,0-7.063,2.301-7.063,5.079c0,2.857,3.016,4.523,6.984,6.508c4.841,2.381,9.126,4.841,9.126,9.92
		c0,6.27-5.555,9.603-11.507,9.603C155.939,59.715,151.416,57.89,148.956,55.351z"/>
	<path opacity="0.5" fill="#B5121C" d="M4.094,85.965c0-9.795,7.808-18.158,17.326-18.158c6.745,0,10.903,4.112,10.903,7.624
		c0,2.033-1.386,3.604-3.095,3.604c-1.571,0-2.772-1.201-2.772-2.68c0-0.878,0.508-1.709,1.155-2.172
		c-0.555-1.155-2.818-2.541-6.33-2.541c-7.162,0-12.845,6.7-12.845,14c0,6.006,3.558,9.795,9.102,9.795
		c3.327,0,6.284-1.386,9.01-4.066l2.542,2.541c-3.419,3.696-7.393,5.36-11.921,5.36C10.008,99.272,4.094,94.467,4.094,85.965z"/>
	<path opacity="0.5" fill="#B5121C" d="M33.062,91.186c0-6.792,4.713-12.706,10.488-12.706c3.003,0,5.268,2.171,5.96,4.712
		l1.294-4.436h3.789l-3.512,14.185c-0.231,0.832-0.369,1.571-0.369,2.033c0,0.878,0.415,1.386,1.201,1.386
		c0.739,0,1.663-0.693,2.587-3.234l1.802,0.647c-1.201,3.973-3.28,5.313-5.498,5.313c-2.356,0-3.835-1.617-3.835-4.02v-0.231
		c-1.709,2.356-4.112,4.297-7.115,4.297C35.881,99.133,33.062,96.038,33.062,91.186z M48.587,86.936
		c0-2.957-1.479-4.897-4.527-4.897c-3.882,0-6.792,4.205-6.792,8.686c0,2.911,1.432,4.944,4.204,4.944
		C45.538,95.668,48.587,91.279,48.587,86.936z"/>
	<path opacity="0.5" fill="#B5121C" d="M60.414,95.021c0-0.601,0.139-1.34,0.277-2.079l5.729-24.58h-3.742l0.878-3.419h7.669
		l-6.468,27.953c-0.186,0.785-0.323,1.524-0.323,1.986c0,0.971,0.415,1.479,1.201,1.479c0.924,0,1.756-0.693,2.726-3.234
		l1.756,0.647c-1.201,3.973-3.142,5.313-5.545,5.313C61.847,99.087,60.414,97.47,60.414,95.021z"/>
	<path opacity="0.5" fill="#B5121C" d="M73.443,91.186c0-6.792,4.713-12.706,10.488-12.706c3.003,0,5.268,2.171,5.96,4.712
		l1.294-4.436h3.789l-3.512,14.185c-0.231,0.832-0.369,1.571-0.369,2.033c0,0.878,0.415,1.386,1.201,1.386
		c0.739,0,1.663-0.693,2.587-3.234l1.802,0.647c-1.201,3.973-3.28,5.313-5.498,5.313c-2.356,0-3.835-1.617-3.835-4.02v-0.231
		c-1.709,2.356-4.112,4.297-7.115,4.297C76.262,99.133,73.443,96.038,73.443,91.186z M88.968,86.936
		c0-2.957-1.479-4.897-4.527-4.897c-3.882,0-6.792,4.205-6.792,8.686c0,2.911,1.432,4.944,4.204,4.944
		C85.919,95.668,88.968,91.279,88.968,86.936z"/>
	<path opacity="0.5" fill="#B5121C" d="M106.387,68.362h-3.743l0.878-3.419h7.624l-4.112,17.649c1.524-2.218,4.02-4.112,6.699-4.112
		c4.621,0,7.301,3.234,7.301,8.039c0,6.931-4.806,12.614-10.581,12.614c-2.957,0-5.452-1.895-6.099-4.574l-1.201,4.205h-3.789
		L106.387,68.362z M116.875,87.074c0-3.003-1.617-5.128-4.482-5.128c-3.927,0-7.254,4.343-7.254,8.778
		c0,2.911,1.71,4.852,4.806,4.852C113.871,95.576,116.875,91.463,116.875,87.074z"/>
	<path opacity="0.5" fill="#B5121C" d="M129.21,82.269h-3.696l0.878-3.419h7.115l-1.294,5.59c2.449-3.927,4.759-5.914,6.931-5.914
		c1.617,0,2.957,1.155,2.957,2.772c0,1.571-1.294,2.818-2.772,2.818c-1.386,0-2.448-0.924-2.68-2.033
		c-1.432,0.647-4.251,3.465-5.313,7.762l-2.218,8.917h-4.065L129.21,82.269z"/>
	<path opacity="0.5" fill="#B5121C" d="M146.628,90.078v0.693c0,3.003,2.403,4.99,6.007,4.99c2.125,0,4.066-0.462,6.561-1.802
		l-0.785,3.789c-2.079,1.017-3.788,1.386-6.607,1.386c-4.759,0-9.147-3.003-9.147-8.455c0-6.746,4.989-12.198,10.903-12.198
		c4.852,0,8.04,2.772,8.04,7.438c0,1.248-0.231,2.634-0.739,4.159H146.628z M147.183,87.167h10.35
		c0.185-0.554,0.277-1.155,0.277-1.709c0-2.079-1.386-3.604-4.251-3.604C150.694,81.853,148.245,84.025,147.183,87.167z"/>
	<path opacity="0.5" fill="#B5121C" d="M165.063,96.592c-0.785-0.786-1.247-1.664-1.247-2.634c0-1.479,1.016-2.587,2.356-2.587
		c1.293,0,2.217,1.017,2.217,2.218c0,0.462-0.185,0.97-0.462,1.293c0.186,0.185,0.416,0.324,0.739,0.508
		c0.925,0.462,2.265,0.786,3.696,0.786c2.079,0,3.835-0.832,3.835-2.449c0-1.664-1.986-2.495-4.204-3.465
		c-2.772-1.248-5.452-2.634-5.452-5.822s2.726-5.96,7.67-5.96c2.726,0,5.036,0.877,6.33,2.218c0.739,0.739,1.154,1.663,1.154,2.587
		c0,1.524-1.062,2.541-2.31,2.541c-1.248,0-2.264-1.017-2.264-2.218c0-0.416,0.092-0.739,0.415-1.294
		c-0.139-0.092-0.323-0.231-0.692-0.369c-0.693-0.277-1.664-0.462-2.68-0.462c-2.033,0-3.65,0.832-3.65,2.264
		c0,1.524,1.986,2.402,4.297,3.465c2.726,1.248,5.359,2.726,5.359,5.822c0,3.927-3.188,6.099-7.9,6.099
		C169.222,99.133,166.542,98.117,165.063,96.592z"/>
	<path opacity="0.5" fill="#B5121C" d="M187.887,90.078v0.693c0,3.003,2.403,4.99,6.007,4.99c2.125,0,4.066-0.462,6.561-1.802
		l-0.785,3.789c-2.079,1.017-3.789,1.386-6.607,1.386c-4.759,0-9.147-3.003-9.147-8.455c0-6.746,4.989-12.198,10.903-12.198
		c4.852,0,8.04,2.772,8.04,7.438c0,1.248-0.231,2.634-0.739,4.159H187.887z M188.441,87.167h10.35
		c0.185-0.554,0.277-1.155,0.277-1.709c0-2.079-1.386-3.604-4.251-3.604C191.953,81.853,189.504,84.025,188.441,87.167z"/>
</g>
</svg>
