<?xml version="1.0" encoding="utf-8"?>
<!-- Generator: Adobe Illustrator 16.0.0, SVG Export Plug-In . SVG Version: 6.00 Build 0)  -->
<!DOCTYPE svg PUBLIC "-//W3C//DTD SVG 1.1//EN" "http://www.w3.org/Graphics/SVG/1.1/DTD/svg11.dtd">
<svg version="1.1" id="Layer_1" xmlns="http://www.w3.org/2000/svg" xmlns:xlink="http://www.w3.org/1999/xlink" x="0px" y="0px"
	 width="150.667px" height="152.334px" viewBox="0 0 150.667 152.334" enable-background="new 0 0 150.667 152.334"
	 xml:space="preserve">
<g>
	<path d="M-180.791-74.218h1.656l2.507-10.785h-1.892l0.544-2.389h11.659l-1.088,4.469h-2.53l0.497-2.104h-4.517l-0.97,4.163h4.636
		l-0.521,2.271h-4.635l-1.017,4.398h4.517l0.544-2.105h2.531l-1.041,4.471h-11.424L-180.791-74.218z"/>
	<path d="M-167.452-74.218h1.466l6.103-5.725l-3.217-5.062h-1.75l0.544-2.39h6.433l-0.544,2.39h-1.538l1.869,3.618l3.382-3.618
		h-1.632l0.544-2.39h6.575l-0.545,2.39h-1.466l-5.7,5.345l3.477,5.439h1.751l-0.544,2.39h-6.244l0.544-2.39h1.561l-2.294-4.021
		l-3.855,4.021h1.703l-0.544,2.39h-6.622L-167.452-74.218z"/>
	<path d="M-150.307-74.218h1.655l2.507-10.785h-1.893l0.545-2.389h11.659l-1.088,4.469h-2.53l0.496-2.104h-4.517l-0.97,4.163h4.636
		l-0.521,2.271h-4.636l-1.017,4.398h4.517l0.544-2.105h2.531l-1.041,4.471h-11.422L-150.307-74.218z"/>
	<path d="M-135.573-78.382c0-5.062,3.974-9.295,8.94-9.295c3.193,0,5.582,1.893,5.582,3.998c0,1.088-0.78,2.033-1.821,2.033
		c-0.898,0-1.632-0.732-1.632-1.632c0-0.448,0.189-0.852,0.449-1.11c-0.308-0.426-1.324-0.828-2.649-0.828
		c-3.192,0-6.102,2.886-6.102,6.67c0,2.672,1.561,4.541,4.139,4.541c1.514,0,2.933-0.639,4.258-2.01l1.655,1.607
		c-1.75,2.012-3.784,2.862-6.126,2.862C-132.569-71.546-135.573-74.029-135.573-78.382z"/>
	<path d="M-119.443-76.252c0-0.662,0.142-1.515,0.331-2.294l1.489-6.457h-1.82l0.544-2.389h6.268l-0.545,2.389h-1.773l-1.514,6.574
		c-0.165,0.687-0.284,1.396-0.284,1.916c0,1.703,0.994,2.531,2.721,2.531c1.939,0,3.146-1.229,3.642-3.429l1.75-7.592h-2.058
		l0.544-2.39h6.268l-0.544,2.39h-1.607l-1.798,7.805c-0.875,3.666-2.696,5.652-6.599,5.652
		C-117.528-71.546-119.443-73.367-119.443-76.252z"/>
	<path d="M-101.826-74.218h1.82l2.531-10.856h-2.862l-0.544,2.459h-2.554l1.111-4.776h13.41l-1.088,4.776h-2.53l0.544-2.459h-2.814
		l-2.531,10.856h2.058l-0.544,2.389h-6.551L-101.826-74.218z"/>
	<path d="M-90.167-74.218h1.798l2.507-10.785h-2.034l0.544-2.389h6.504l-0.544,2.389h-1.797l-2.508,10.785h2.034l-0.544,2.389
		h-6.504L-90.167-74.218z"/>
	<path d="M-78.413-85.003h-1.537l0.544-2.389h6.03l-0.545,2.389h-1.537l1.302,8.609l5.133-8.609h-1.728l0.545-2.389h6.242
		l-0.543,2.389h-1.324l-8.608,13.339h-1.515L-78.413-85.003z"/>
	<path d="M-65.432-74.218h1.656l2.507-10.785h-1.893l0.545-2.389h11.658l-1.088,4.469h-2.529l0.496-2.104h-4.518l-0.97,4.163h4.636
		l-0.521,2.271h-4.635l-1.018,4.398h4.518l0.543-2.105h2.531l-1.041,4.471h-11.424L-65.432-74.218z"/>
	<path d="M-179.607-57.222c0-5.062,3.974-9.295,8.94-9.295c3.193,0,5.582,1.893,5.582,3.998c0,1.088-0.78,2.033-1.821,2.033
		c-0.898,0-1.632-0.732-1.632-1.632c0-0.449,0.189-0.851,0.449-1.11c-0.308-0.427-1.324-0.828-2.649-0.828
		c-3.192,0-6.102,2.886-6.102,6.67c0,2.672,1.561,4.541,4.139,4.541c1.514,0,2.933-0.64,4.258-2.01l1.655,1.607
		c-1.75,2.01-3.784,2.861-6.126,2.861C-176.604-50.386-179.607-52.869-179.607-57.222z"/>
	<path d="M-165.182-53.058h1.655l2.507-10.785h-1.893l0.545-2.39h6.386l-0.544,2.39h-1.821l-0.97,4.115h7.071l0.97-4.115h-2.058
		l0.544-2.39h6.386l-0.544,2.39h-1.655l-2.507,10.785h1.892l-0.544,2.389h-6.386l0.544-2.389h1.821l1.017-4.328h-7.071l-1.017,4.328
		h2.058l-0.544,2.389h-6.387L-165.182-53.058z"/>
	<path d="M-147.375-53.058h1.656l2.507-10.785h-1.892l0.544-2.39h11.659l-1.088,4.47h-2.53l0.497-2.104h-4.518l-0.97,4.163h4.636
		l-0.521,2.271h-4.636l-1.017,4.398h4.517l0.544-2.105h2.531l-1.041,4.471h-11.422L-147.375-53.058z"/>
	<path d="M-133.563-53.058h1.656l2.507-10.785h-1.892l0.544-2.39h11.423l-1.088,4.47h-2.53l0.496-2.104h-4.28l-1.041,4.446h4.47
		l-0.544,2.294h-4.446l-0.946,4.045h2.199l-0.567,2.413h-6.505L-133.563-53.058z"/>
</g>
<g>
	<path d="M-181.564-20.407h1.126l1.58-6.812h-1.223l0.261-1.111h3.599l-0.248,1.111h-1.14l-1.579,6.812h1.223l-0.262,1.112h-3.598
		L-181.564-20.407z"/>
	<path d="M-173.118-26.216l-1.346,5.809h1.236l-0.261,1.112h-3.474l0.261-1.112h1.03l1.579-6.812h-1.167l0.247-1.111h2.211
		l3.255,6.398l1.222-5.287h-1.222l0.261-1.111h3.447l-0.248,1.111h-1.016l-1.854,7.951h-0.604L-173.118-26.216z"/>
	<path d="M-164.601-20.407h1.112l1.593-6.839h-2.005l-0.316,1.428h-1.194l0.577-2.513h7.607l-0.576,2.513h-1.182l0.316-1.428h-1.991
		l-1.58,6.839h1.25l-0.247,1.112h-3.625L-164.601-20.407z"/>
	<path d="M-157.952-20.407h1.03l1.579-6.812h-1.167l0.247-1.111h6.66l-0.577,2.375h-1.181l0.302-1.277h-3.034l-0.659,2.801h2.814
		l-0.247,1.071h-2.8l-0.701,2.966h3.049l0.316-1.276h1.181l-0.549,2.376h-6.523L-157.952-20.407z"/>
	<path d="M-150.011-20.407h1.03l1.579-6.812h-1.167l0.247-1.111h2.856c1.222,0,2.114,0.273,2.664,0.837
		c0.426,0.412,0.646,0.976,0.646,1.634c0,1.374-0.934,2.458-2.5,2.856l1.209,2.596h1.071l-0.261,1.112h-1.689l-1.538-3.557h-0.344
		c-0.302,0-0.646-0.015-0.947-0.029l-0.591,2.473h1.195l-0.261,1.112h-3.461L-150.011-20.407z M-143.419-25.777
		c0-0.385-0.123-0.714-0.371-0.961c-0.329-0.33-0.906-0.479-1.716-0.479h-0.659l-0.756,3.269c0.316,0.027,0.632,0.041,1.085,0.041
		C-144.326-23.909-143.419-24.692-143.419-25.777z"/>
	<path d="M-140.122-27.22h-0.934l0.247-1.111h3.214l-0.247,1.111h-0.935l0.879,5.906l3.543-5.906h-1.029l0.247-1.111h3.282
		l-0.247,1.111h-0.811l-5.108,8.048h-0.714L-140.122-27.22z"/>
	<path d="M-132.675-20.407h1.126l1.58-6.812h-1.223l0.261-1.111h3.599l-0.247,1.111h-1.141l-1.579,6.812h1.223l-0.261,1.112h-3.599
		L-132.675-20.407z"/>
	<path d="M-127.813-20.407h1.03l1.579-6.812h-1.167l0.247-1.111h6.66l-0.577,2.375h-1.181l0.302-1.277h-3.034l-0.659,2.801h2.814
		l-0.247,1.071h-2.801l-0.701,2.966h3.049l0.316-1.276h1.181l-0.549,2.376h-6.523L-127.813-20.407z"/>
	<path d="M-117.84-27.22h-0.974l0.261-1.111h3.323l-0.247,1.111h-1.14l0.274,5.687l3.351-5.81h0.591l1.002,5.836l2.774-5.713h-1.099
		l0.247-1.111h3.337l-0.261,1.111h-0.865l-4.106,8.021h-0.673l-1.085-5.754l-3.474,5.754l-0.659,0.015L-117.84-27.22z"/>
	<path d="M-103.952-20.407h1.03l1.579-6.812h-1.167l0.247-1.111h3.09c0.824,0,1.47,0.109,1.964,0.371
		c0.687,0.357,1.112,1.016,1.112,1.799c0,1.223-0.989,2.088-2.211,2.266c0.92,0.262,1.62,1.002,1.62,1.909
		c0,0.755-0.288,1.374-0.811,1.827c-0.425,0.371-1.029,0.632-1.743,0.755c-0.385,0.083-0.824,0.11-1.277,0.11h-3.694
		L-103.952-20.407z M-100.339-20.38c0.343,0,0.659-0.041,0.92-0.096c0.453-0.097,0.782-0.262,1.029-0.509
		c0.275-0.274,0.412-0.632,0.412-1.071c0-0.811-0.755-1.358-2.032-1.358h-0.961l-0.715,3.035L-100.339-20.38L-100.339-20.38z
		 M-99.873-24.417c1.538,0,2.485-0.577,2.485-1.605c0-0.427-0.22-0.824-0.673-1.018c-0.302-0.124-0.714-0.206-1.277-0.206h-0.755
		l-0.659,2.829H-99.873z"/>
	<path d="M-94.583-20.407h1.153l0.591-2.472l-1.565-4.339h-0.906l0.261-1.112h3.186l-0.247,1.112h-1.002l1.126,3.433l2.773-3.433
		h-0.988l0.261-1.112h3.31l-0.247,1.112h-0.867l-3.914,4.572l-0.521,2.239h1.236l-0.248,1.112h-3.653L-94.583-20.407z"/>
	<path d="M-181.564-2.994h1.462l2.652-9.536h-1.654l0.347-1.558h3.076l2.191,7.997l5.71-7.997h3.211l-0.365,1.558h-1.461
		l-1.788,9.536h1.673l-0.347,1.558h-4.883l0.346-1.558h1.5l1.519-7.864l-5.499,7.575h-0.269l-2.153-7.575l-2.096,7.864h1.711
		l-0.365,1.558h-4.864L-181.564-2.994z"/>
	<path d="M-164.622-4.591c0-2.825,1.961-5.286,4.364-5.286c1.25,0,2.191,0.903,2.48,1.961l0.538-1.847h1.576l-1.461,5.902
		c-0.097,0.346-0.154,0.654-0.154,0.846c0,0.365,0.174,0.578,0.5,0.578c0.308,0,0.692-0.289,1.077-1.347l0.75,0.271
		c-0.5,1.652-1.365,2.211-2.288,2.211c-0.98,0-1.596-0.674-1.596-1.674v-0.096c-0.712,0.98-1.711,1.788-2.961,1.788
		C-163.448-1.283-164.622-2.571-164.622-4.591z M-158.162-6.359c0-1.229-0.615-2.038-1.885-2.038c-1.614,0-2.826,1.75-2.826,3.615
		c0,1.211,0.597,2.057,1.75,2.057C-159.432-2.726-158.162-4.552-158.162-6.359z"/>
	<path d="M-151.93-8.302h-1.538l0.365-1.422h2.961l-0.538,2.326c1.019-1.634,1.98-2.461,2.884-2.461c0.673,0,1.23,0.48,1.23,1.153
		c0,0.653-0.538,1.173-1.153,1.173c-0.577,0-1.02-0.384-1.115-0.846c-0.597,0.269-1.77,1.441-2.211,3.23l-0.923,3.709h-1.692
		L-151.93-8.302z"/>
	<path d="M-146.409-1.437l2.922-12.651h-1.557l0.365-1.423h3.172l-2.269,9.729c2.307-0.827,3.441-1.577,3.787-2.115
		c-0.326-0.191-0.519-0.537-0.519-0.884c0-0.596,0.48-1.096,1.096-1.096c0.616,0,1.135,0.481,1.135,1.229
		c0,1.25-1.23,2.385-3.25,3.346l0.808,1.885c0.174,0.404,0.289,0.635,0.423,0.789c0.135,0.134,0.25,0.173,0.385,0.173
		c0.288,0,0.558-0.308,0.885-1.538l0.769,0.25c-0.441,2-1.191,2.441-2.038,2.441c-0.384,0-0.749-0.096-1.076-0.364
		c-0.27-0.231-0.52-0.577-0.712-1.058l-0.903-2.153c-0.327,0.135-0.692,0.25-1,0.364l-0.73,3.076H-146.409L-146.409-1.437z"/>
	<path d="M-133.16-2.994h1.442l2.211-9.536h-1.634l0.346-1.558h4.922l-0.365,1.558h-1.519l-0.904,3.883h6.384l0.903-3.883h-1.73
		l0.365-1.558h4.902l-0.346,1.558h-1.461l-2.211,9.536h1.634l-0.346,1.558h-4.903l0.347-1.558h1.538l0.961-4.134h-6.383l-0.98,4.134
		h1.73l-0.365,1.558h-4.903L-133.16-2.994z"/>
	<path d="M-117.658-2.976c0-0.25,0.058-0.615,0.135-0.903l1.153-4.423h-1.558l0.365-1.422h3.249l-1.538,5.863
		c-0.096,0.327-0.135,0.654-0.135,0.846c0,0.365,0.192,0.578,0.5,0.578c0.385,0,0.73-0.289,1.135-1.347l0.75,0.271
		c-0.5,1.652-1.308,2.211-2.326,2.211C-117.042-1.302-117.658-1.976-117.658-2.976z M-116.043-12.242c0-0.615,0.5-1.115,1.115-1.115
		c0.597,0,1.115,0.5,1.115,1.115s-0.519,1.115-1.115,1.115C-115.543-11.127-116.043-11.627-116.043-12.242z"/>
	<path d="M-106.736-2.956c0-0.27,0.058-0.635,0.135-0.941l0.711-2.5c0.097-0.328,0.135-0.578,0.135-0.847
		c0-0.731-0.5-1.211-1.249-1.211c-1.02,0-1.98,0.864-2.403,2.519l-1.115,4.5h-1.692l1.73-6.865h-1.538l0.365-1.422h2.961
		l-0.442,1.941c0.654-1.152,1.73-2.076,2.865-2.076c1.269,0,2.249,0.865,2.249,2.346c0,0.403-0.077,0.865-0.212,1.347l-0.711,2.44
		c-0.058,0.25-0.115,0.521-0.115,0.674c0,0.385,0.192,0.615,0.52,0.615c0.326,0,0.691-0.289,1.076-1.347l0.75,0.271
		c-0.442,1.5-1.23,2.211-2.25,2.211C-106.103-1.302-106.736-1.994-106.736-2.956z"/>
	<path d="M-101.581-4.955c0-2.634,2.192-4.922,4.826-4.922c1.826,0,3.037,1.114,3.037,2.327c0,0.711-0.442,1.307-1.134,1.307
		c-0.52,0-0.98-0.404-0.98-1.02c0-0.25,0.135-0.557,0.346-0.729c-0.27-0.308-0.711-0.461-1.308-0.461
		c-1.499,0-3.095,1.288-3.095,3.403c0,1.441,0.961,2.365,2.364,2.365c0.962,0,1.942-0.386,2.788-1.039l-0.039,1.537
		c-0.807,0.577-1.807,0.904-2.902,0.904C-99.87-1.283-101.581-2.647-101.581-4.955z"/>
	<path d="M-89.832-14.088h-1.557l0.365-1.423h3.172l-1.73,7.402c0.597-0.923,1.577-1.75,2.673-1.75c1.269,0,2.288,0.865,2.288,2.346
		c0,0.403-0.058,0.865-0.212,1.347l-0.673,2.461c-0.058,0.25-0.096,0.5-0.096,0.653c0,0.385,0.191,0.615,0.499,0.615
		c0.347,0,0.692-0.289,1.077-1.347l0.75,0.271c-0.442,1.5-1.212,2.211-2.25,2.211c-1.134,0-1.769-0.692-1.769-1.654
		c0-0.27,0.058-0.615,0.135-0.923l0.692-2.52c0.096-0.327,0.115-0.577,0.115-0.846c0-0.731-0.52-1.211-1.27-1.211
		c-1.019,0-2.019,0.846-2.403,2.558l-1.038,4.459h-1.691L-89.832-14.088z"/>
	<path d="M-81.964-2.994c0-0.25,0.058-0.558,0.115-0.865l2.384-10.229h-1.558l0.364-1.423h3.193l-2.693,11.632
		c-0.075,0.327-0.135,0.635-0.135,0.827c0,0.403,0.174,0.615,0.5,0.615c0.385,0,0.73-0.289,1.135-1.347l0.73,0.271
		c-0.5,1.652-1.308,2.211-2.307,2.211C-81.369-1.302-81.964-1.976-81.964-2.994z"/>
	<path d="M-76.061-2.976c0-0.25,0.058-0.615,0.136-0.903l1.152-4.423h-1.559l0.365-1.422h3.25l-1.539,5.863
		c-0.096,0.327-0.135,0.654-0.135,0.846c0,0.365,0.192,0.578,0.5,0.578c0.385,0,0.73-0.289,1.135-1.347l0.75,0.271
		c-0.5,1.652-1.308,2.211-2.326,2.211C-75.444-1.302-76.061-1.976-76.061-2.976z M-74.445-12.242c0-0.615,0.5-1.115,1.114-1.115
		c0.598,0,1.115,0.5,1.115,1.115s-0.519,1.115-1.115,1.115C-73.945-11.127-74.445-11.627-74.445-12.242z"/>
	<path d="M-65.312-13.685c-0.153,0.039-0.308,0.135-0.442,0.27c-0.346,0.327-0.635,1-0.865,1.98l-0.402,1.711h3.749l0.558-2.385
		c0.27-1.154,0.691-2.037,1.307-2.634c0.559-0.538,1.328-0.884,2.289-0.884c1.076,0,1.711,0.558,1.711,1.25
		c0,0.652-0.52,1.076-1.076,1.076s-1.02-0.364-1.059-0.885c-0.269,0.039-0.537,0.192-0.711,0.385
		c-0.365,0.347-0.654,0.962-0.865,1.865l-0.52,2.211h2.192L-59.812-8.3h-2.153l-1.558,6.863h-1.653l1.576-6.863h-3.749l-1.558,6.863
		h-1.653l1.577-6.863h-1.462l0.364-1.424h1.424l0.462-2c0.288-1.229,0.692-2.037,1.269-2.614c0.577-0.577,1.346-0.903,2.096-0.903
		c0.961,0,1.539,0.52,1.539,1.211c0,0.596-0.461,1.059-1.02,1.059C-64.812-12.974-65.196-13.28-65.312-13.685z"/>
	<path d="M-57.905-5.052v0.289c0,1.25,0.999,2.076,2.499,2.076c0.885,0,1.69-0.191,2.729-0.75l-0.326,1.577
		c-0.865,0.423-1.576,0.577-2.75,0.577c-1.979,0-3.808-1.25-3.808-3.52c0-2.807,2.077-5.075,4.538-5.075
		c2.02,0,3.346,1.153,3.346,3.096c0,0.519-0.097,1.097-0.309,1.729H-57.905z M-57.675-6.263h4.307
		c0.076-0.231,0.115-0.481,0.115-0.711c0-0.865-0.578-1.5-1.77-1.5S-57.232-7.57-57.675-6.263z"/>
</g>
<line fill="none" stroke="#000000" x1="-180.805" y1="-98.431" x2="18.839" y2="-98.431"/>
<line fill="none" stroke="#000000" x1="-180.805" y1="-39.817" x2="18.839" y2="-39.817"/>
<g>
	<path opacity="0.5" fill="#B5121C" enable-background="new    " d="M-178.711-173.434c0-16.507,13.491-31.109,29.363-31.109
		c12.936,0,18.729,8.174,18.729,12.539c0,3.413-2.063,5.238-4.127,5.238c-2.302,0-3.65-1.349-3.65-3.254
		c0-1.508,1.11-2.936,2.618-3.73c-0.793-2.857-5.396-6.746-13.809-6.746c-14.761,0-24.363,14.206-24.363,26.507
		c0,12.459,7.38,19.443,18.094,19.443c6.666,0,12.381-2.778,17.301-7.46l2.54,2.857c-5.794,5.714-12.698,8.729-20.316,8.729
		C-168.475-150.419-178.711-158.752-178.711-173.434z"/>
	<path opacity="0.5" fill="#B5121C" enable-background="new    " d="M-116.014-205.813h-6.349l0.872-3.651h10.477l-7.619,32.141
		c2.54-4.126,6.508-8.015,11.666-8.015c5.556,0,9.603,3.729,9.682,8.65c0,1.667-0.317,3.492-0.793,5.238l-3.175,11.745
		c-0.317,1.19-0.476,2.54-0.476,3.174c0,1.587,1.031,2.619,2.46,2.619c1.746,0,3.095-1.587,4.523-5.238l2.46,0.793
		c-1.508,4.683-3.81,7.46-7.46,7.46c-3.491,0-6.11-2.301-6.11-5.635c0-0.873,0.238-2.38,0.556-3.571l3.174-11.904
		c0.477-1.746,0.635-3.095,0.635-4.523c-0.079-3.016-2.618-5.238-6.031-5.238c-4.92,0-11.269,5.238-13.412,14.523l-3.65,15.872
		h-4.127L-116.014-205.813z"/>
	<path opacity="0.5" fill="#B5121C" enable-background="new    " d="M-79.585-181.053h-6.35l0.952-3.65h10.237l-2.223,9.047
		c4.444-6.11,8.176-9.682,11.271-9.682c2.618,0,4.047,1.508,4.047,3.492c0,2.143-1.745,3.889-3.729,3.889
		c-1.824,0-3.095-1.111-3.492-2.698c-2.697,1.587-8.49,6.825-10.396,14.682l-3.651,14.603h-4.127L-79.585-181.053z"/>
	<path opacity="0.5" fill="#B5121C" enable-background="new    " d="M-56.251-156.53c0-0.873,0.316-2.46,0.635-3.571l5.871-20.952
		h-6.666l0.953-3.65h10.873l-6.984,24.999c-0.317,1.111-0.557,2.54-0.557,3.174c0,1.587,1.033,2.619,2.461,2.619
		c1.746,0,3.096-1.587,4.604-5.238l2.46,0.793c-1.587,4.683-3.968,7.46-7.618,7.46C-53.712-150.895-56.251-153.197-56.251-156.53z
		 M-48.95-195.496c0-1.905,1.508-3.492,3.412-3.492c1.826,0,3.334,1.587,3.334,3.492c0,1.904-1.508,3.492-3.334,3.492
		C-47.442-192.004-48.95-193.592-48.95-195.496z"/>
	<path opacity="0.5" fill="#B5121C" enable-background="new    " d="M-35.378-155.101c-1.19-1.19-1.826-2.54-1.826-3.889
		c0-1.905,1.35-3.73,3.334-3.73c1.983,0,2.937,1.429,2.937,2.857c0,1.111-0.396,1.825-1.271,2.778
		c0.317,0.396,0.793,0.714,1.429,1.111c1.667,0.953,4.286,1.746,7.224,1.746c3.967,0,7.061-2.143,7.061-5.476
		s-3.174-5.079-6.744-6.825c-5.079-2.54-9.365-4.762-9.365-9.603c0-5.317,4.604-9.206,11.508-9.206c4.206,0,7.856,1.428,9.92,3.492
		c1.19,1.111,1.825,2.46,1.825,3.889c0,2.222-1.508,3.65-3.174,3.65c-1.746,0-3.017-1.19-3.017-2.857
		c0-0.873,0.317-1.825,1.031-2.777c-0.158-0.159-0.477-0.476-1.35-0.873c-1.189-0.556-3.253-1.032-5.555-1.032
		c-4.444,0-7.063,2.301-7.063,5.079c0,2.857,3.017,4.523,6.983,6.508c4.842,2.381,9.127,4.841,9.127,9.92
		c0,6.27-5.555,9.603-11.508,9.603C-28.396-150.737-32.919-152.562-35.378-155.101z"/>
	<path opacity="0.5" fill="#B5121C" enable-background="new    " d="M-180.24-124.487c0-9.795,7.808-18.158,17.326-18.158
		c6.745,0,10.903,4.112,10.903,7.624c0,2.033-1.386,3.604-3.095,3.604c-1.571,0-2.772-1.201-2.772-2.68
		c0-0.878,0.508-1.709,1.155-2.172c-0.555-1.155-2.818-2.541-6.33-2.541c-7.162,0-12.845,6.7-12.845,14
		c0,6.006,3.558,9.795,9.102,9.795c3.327,0,6.284-1.386,9.01-4.066l2.542,2.541c-3.419,3.696-7.393,5.36-11.921,5.36
		C-174.327-111.18-180.24-115.985-180.24-124.487z"/>
	<path opacity="0.5" fill="#B5121C" enable-background="new    " d="M-151.272-119.266c0-6.792,4.713-12.706,10.488-12.706
		c3.003,0,5.268,2.171,5.96,4.712l1.294-4.436h3.789l-3.512,14.185c-0.231,0.832-0.369,1.571-0.369,2.033
		c0,0.878,0.415,1.386,1.201,1.386c0.739,0,1.663-0.693,2.587-3.234l1.802,0.647c-1.201,3.973-3.28,5.313-5.498,5.313
		c-2.356,0-3.835-1.617-3.835-4.02v-0.231c-1.709,2.356-4.112,4.297-7.115,4.297C-148.454-111.319-151.272-114.414-151.272-119.266z
		 M-135.748-123.516c0-2.957-1.479-4.897-4.527-4.897c-3.882,0-6.792,4.205-6.792,8.686c0,2.911,1.432,4.944,4.204,4.944
		C-138.796-114.784-135.748-119.173-135.748-123.516z"/>
	<path opacity="0.5" fill="#B5121C" enable-background="new    " d="M-123.92-115.431c0-0.601,0.139-1.34,0.277-2.079l5.729-24.58
		h-3.742l0.878-3.419h7.669l-6.468,27.953c-0.186,0.785-0.323,1.524-0.323,1.986c0,0.971,0.415,1.479,1.201,1.479
		c0.924,0,1.756-0.693,2.726-3.234l1.756,0.647c-1.201,3.973-3.142,5.313-5.545,5.313
		C-122.487-111.365-123.92-112.982-123.92-115.431z"/>
	<path opacity="0.5" fill="#B5121C" enable-background="new    " d="M-110.892-119.266c0-6.792,4.713-12.706,10.488-12.706
		c3.003,0,5.268,2.171,5.96,4.712l1.294-4.436h3.789l-3.512,14.185c-0.231,0.832-0.369,1.571-0.369,2.033
		c0,0.878,0.415,1.386,1.201,1.386c0.739,0,1.663-0.693,2.587-3.234l1.802,0.647c-1.201,3.973-3.28,5.313-5.498,5.313
		c-2.356,0-3.835-1.617-3.835-4.02v-0.231c-1.709,2.356-4.112,4.297-7.115,4.297C-108.072-111.319-110.892-114.414-110.892-119.266z
		 M-95.367-123.516c0-2.957-1.479-4.897-4.527-4.897c-3.882,0-6.792,4.205-6.792,8.686c0,2.911,1.432,4.944,4.204,4.944
		C-98.416-114.784-95.367-119.173-95.367-123.516z"/>
	<path opacity="0.5" fill="#B5121C" enable-background="new    " d="M-77.947-142.09h-3.743l0.878-3.419h7.624L-77.3-127.86
		c1.523-2.218,4.02-4.112,6.698-4.112c4.621,0,7.302,3.234,7.302,8.039c0,6.931-4.807,12.614-10.582,12.614
		c-2.957,0-5.451-1.895-6.099-4.574l-1.201,4.205h-3.789L-77.947-142.09z M-67.46-123.378c0-3.003-1.617-5.128-4.481-5.128
		c-3.927,0-7.254,4.343-7.254,8.778c0,2.911,1.71,4.852,4.806,4.852C-70.464-114.876-67.46-118.989-67.46-123.378z"/>
	<path opacity="0.5" fill="#B5121C" enable-background="new    " d="M-55.124-128.183h-3.696l0.878-3.419h7.115l-1.295,5.59
		c2.449-3.927,4.76-5.914,6.932-5.914c1.617,0,2.957,1.155,2.957,2.772c0,1.571-1.294,2.818-2.771,2.818
		c-1.387,0-2.449-0.924-2.681-2.033c-1.433,0.647-4.251,3.465-5.313,7.762l-2.217,8.917h-4.065L-55.124-128.183z"/>
	<path opacity="0.5" fill="#B5121C" enable-background="new    " d="M-37.706-120.374v0.693c0,3.003,2.402,4.99,6.006,4.99
		c2.125,0,4.066-0.462,6.562-1.802l-0.784,3.789c-2.08,1.017-3.789,1.386-6.607,1.386c-4.76,0-9.146-3.003-9.146-8.455
		c0-6.746,4.988-12.198,10.902-12.198c4.852,0,8.04,2.772,8.04,7.438c0,1.248-0.231,2.634-0.739,4.159H-37.706z M-37.151-123.285
		h10.35c0.186-0.554,0.277-1.155,0.277-1.709c0-2.079-1.387-3.604-4.251-3.604C-33.641-128.599-36.089-126.427-37.151-123.285z"/>
	<path opacity="0.5" fill="#B5121C" enable-background="new    " d="M-19.271-113.86c-0.785-0.786-1.247-1.664-1.247-2.634
		c0-1.479,1.016-2.587,2.355-2.587c1.293,0,2.218,1.017,2.218,2.218c0,0.462-0.185,0.97-0.462,1.293
		c0.186,0.185,0.416,0.324,0.738,0.508c0.926,0.462,2.266,0.786,3.696,0.786c2.079,0,3.835-0.832,3.835-2.449
		c0-1.664-1.986-2.495-4.203-3.465c-2.772-1.248-5.453-2.634-5.453-5.822s2.727-5.96,7.67-5.96c2.727,0,5.037,0.877,6.33,2.218
		c0.74,0.739,1.154,1.663,1.154,2.587c0,1.524-1.062,2.541-2.311,2.541c-1.247,0-2.264-1.017-2.264-2.218
		c0-0.416,0.092-0.739,0.416-1.294c-0.14-0.092-0.324-0.231-0.692-0.369c-0.693-0.277-1.664-0.462-2.681-0.462
		c-2.033,0-3.649,0.832-3.649,2.264c0,1.524,1.985,2.402,4.297,3.465c2.726,1.248,5.358,2.726,5.358,5.822
		c0,3.927-3.188,6.099-7.899,6.099C-15.112-111.319-17.792-112.335-19.271-113.86z"/>
	<path opacity="0.5" fill="#B5121C" enable-background="new    " d="M3.553-120.374v0.693c0,3.003,2.403,4.99,6.007,4.99
		c2.125,0,4.066-0.462,6.561-1.802l-0.785,3.789c-2.078,1.017-3.789,1.386-6.606,1.386c-4.759,0-9.147-3.003-9.147-8.455
		c0-6.746,4.989-12.198,10.903-12.198c4.853,0,8.04,2.772,8.04,7.438c0,1.248-0.23,2.634-0.738,4.159H3.553z M4.106-123.285h10.35
		c0.186-0.554,0.277-1.155,0.277-1.709c0-2.079-1.386-3.604-4.251-3.604C7.618-128.599,5.169-126.427,4.106-123.285z"/>
</g>
<g>
	<path fill="#231F20" d="M4.764,98.042h1.205l1.824-7.849H6.416l0.396-1.739h8.485l-0.791,3.253h-1.842l0.361-1.532H9.738
		l-0.706,3.029h3.374l-0.379,1.652H8.653l-0.74,3.201h3.288l0.396-1.532h1.842l-0.757,3.253H4.368L4.764,98.042z"/>
	<path fill="#231F20" d="M14.301,98.042h1.067l4.44-4.166l-2.34-3.683h-1.274l0.396-1.739h4.682l-0.396,1.739h-1.118l1.359,2.633
		l2.461-2.633h-1.188l0.396-1.739h4.784l-0.396,1.739h-1.067l-4.147,3.89l2.529,3.959h1.274l-0.396,1.738h-4.544l0.396-1.738h1.136
		l-1.67-2.926l-2.806,2.926h1.24l-0.396,1.738h-4.819L14.301,98.042z"/>
	<path fill="#231F20" d="M26.868,98.042h1.205l1.824-7.849h-1.377l0.396-1.739h8.486l-0.792,3.253h-1.842l0.361-1.532h-3.287
		l-0.706,3.029h3.373l-0.378,1.652h-3.374l-0.74,3.201h3.288l0.396-1.532h1.842l-0.758,3.253h-8.312L26.868,98.042z"/>
	<path fill="#231F20" d="M37.215,95.012c0-3.684,2.892-6.764,6.506-6.764c2.324,0,4.062,1.377,4.062,2.909
		c0,0.792-0.568,1.48-1.325,1.48c-0.654,0-1.188-0.533-1.188-1.188c0-0.327,0.138-0.62,0.327-0.809
		c-0.225-0.31-0.964-0.602-1.928-0.602c-2.324,0-4.441,2.1-4.441,4.854c0,1.945,1.137,3.305,3.013,3.305
		c1.102,0,2.134-0.465,3.098-1.463l1.205,1.17c-1.273,1.463-2.754,2.083-4.458,2.083C39.401,99.986,37.215,98.179,37.215,95.012z"/>
	<path fill="#231F20" d="M49.042,96.561c0-0.482,0.104-1.102,0.241-1.669l1.084-4.699h-1.325l0.396-1.739h4.561l-0.396,1.739h-1.291
		l-1.102,4.785c-0.12,0.499-0.206,1.016-0.206,1.395c0,1.239,0.723,1.841,1.979,1.841c1.411,0,2.289-0.895,2.65-2.496l1.273-5.525
		h-1.497l0.396-1.739h4.562l-0.396,1.739h-1.17l-1.309,5.68c-0.637,2.668-1.962,4.114-4.802,4.114
		C50.437,99.986,49.042,98.661,49.042,96.561z"/>
	<path fill="#231F20" d="M61.558,98.042h1.325l1.842-7.9h-2.082l-0.396,1.79h-1.858l0.809-3.477h9.759l-0.791,3.477h-1.842
		l0.396-1.79H66.67l-1.842,7.9h1.497L65.93,99.78h-4.768L61.558,98.042z"/>
	<path fill="#231F20" d="M69.941,98.042h1.309l1.824-7.849h-1.48l0.396-1.739h4.733l-0.396,1.739H75.02l-1.824,7.849h1.479
		l-0.396,1.738h-4.733L69.941,98.042z"/>
	<path fill="#231F20" d="M78.36,90.193h-1.119l0.396-1.739h4.39l-0.396,1.739h-1.119l0.946,6.265l3.735-6.265h-1.257l0.396-1.739
		h4.544l-0.396,1.739h-0.964L81.252,99.9H80.15L78.36,90.193z"/>
	<path fill="#231F20" d="M87.726,98.042h1.205l1.824-7.849h-1.377l0.396-1.739h8.486l-0.792,3.253h-1.842l0.361-1.532H92.7
		l-0.706,3.029h3.373l-0.378,1.652h-3.374l-0.74,3.201h3.288l0.396-1.532H96.4l-0.758,3.253H87.33L87.726,98.042z"/>
	<path fill="#231F20" d="M5.624,110.416c0-3.684,2.892-6.765,6.507-6.765c2.323,0,4.062,1.377,4.062,2.909
		c0,0.791-0.568,1.479-1.325,1.479c-0.654,0-1.188-0.533-1.188-1.188c0-0.327,0.138-0.62,0.327-0.809
		c-0.224-0.31-0.964-0.602-1.928-0.602c-2.324,0-4.441,2.1-4.441,4.854c0,1.945,1.137,3.305,3.013,3.305
		c1.102,0,2.134-0.465,3.098-1.463l1.205,1.17c-1.273,1.463-2.754,2.083-4.458,2.083C7.811,115.39,5.624,113.582,5.624,110.416z"/>
	<path fill="#231F20" d="M16.298,113.445h1.205l1.824-7.849H17.95l0.396-1.739h4.647l-0.396,1.739h-1.325l-0.706,2.995h5.146
		l0.705-2.995h-1.497l0.396-1.739h4.647l-0.396,1.739h-1.205l-1.824,7.849h1.377l-0.396,1.738h-4.646l0.396-1.738h1.325l0.74-3.15
		h-5.146l-0.74,3.15h1.498l-0.396,1.738h-4.646L16.298,113.445z"/>
	<path fill="#231F20" d="M29.175,113.445h1.205l1.824-7.849h-1.377l0.396-1.739h8.486l-0.792,3.254h-1.842l0.361-1.532h-3.287
		l-0.706,3.029h3.373l-0.378,1.652h-3.374l-0.74,3.201h3.288l0.396-1.532h1.842l-0.758,3.254h-8.312L29.175,113.445z"/>
	<path fill="#231F20" d="M39.005,113.445h1.205l1.824-7.849h-1.377l0.396-1.739h8.313l-0.792,3.254h-1.841l0.361-1.532h-3.115
		l-0.758,3.235h3.253l-0.396,1.67h-3.236l-0.688,2.943h1.602l-0.414,1.756h-4.732L39.005,113.445z"/>
</g>
<g>
	<path fill="#231F20" d="M4.199,137.213h0.819l1.149-4.957h-0.89l0.19-0.81h2.618l-0.18,0.81h-0.83l-1.149,4.957h0.89l-0.189,0.81
		H4.009L4.199,137.213z"/>
	<path fill="#231F20" d="M10.348,132.985l-0.979,4.228h0.9l-0.19,0.81H7.55l0.189-0.81h0.75l1.149-4.957h-0.85l0.18-0.81h1.609
		l2.368,4.657l0.89-3.848h-0.89l0.19-0.81h2.509l-0.181,0.81h-0.739l-1.35,5.787h-0.439L10.348,132.985z"/>
	<path fill="#231F20" d="M16.548,137.213h0.81l1.16-4.977h-1.46l-0.229,1.039h-0.869l0.419-1.829h5.537l-0.42,1.829h-0.859
		l0.23-1.039h-1.449l-1.149,4.977h0.909l-0.18,0.81h-2.639L16.548,137.213z"/>
	<path fill="#231F20" d="M21.389,137.213h0.75l1.149-4.957h-0.85l0.18-0.81h4.848l-0.42,1.729h-0.859l0.22-0.93h-2.209l-0.479,2.039
		h2.049l-0.18,0.779h-2.039l-0.51,2.158h2.219l0.229-0.93h0.859l-0.399,1.729h-4.747L21.389,137.213z"/>
	<path fill="#231F20" d="M27.169,137.213h0.75l1.149-4.957h-0.85l0.18-0.81h2.079c0.89,0,1.539,0.2,1.938,0.609
		c0.311,0.3,0.47,0.71,0.47,1.189c0,0.999-0.68,1.789-1.818,2.079l0.879,1.889h0.78l-0.19,0.81h-1.229l-1.119-2.589h-0.25
		c-0.22,0-0.47-0.01-0.689-0.02l-0.43,1.799h0.869l-0.189,0.81h-2.519L27.169,137.213z M31.967,133.305
		c0-0.279-0.09-0.52-0.271-0.699c-0.239-0.24-0.659-0.35-1.249-0.35h-0.479l-0.55,2.379c0.229,0.02,0.46,0.029,0.789,0.029
		C31.307,134.664,31.967,134.095,31.967,133.305z"/>
	<path fill="#231F20" d="M34.368,132.256h-0.68l0.18-0.81h2.339l-0.18,0.81h-0.68l0.64,4.297l2.578-4.297h-0.749l0.18-0.81h2.389
		l-0.18,0.81h-0.59l-3.718,5.856h-0.52L34.368,132.256z"/>
	<path fill="#231F20" d="M39.789,137.213h0.819l1.149-4.957h-0.89l0.19-0.81h2.618l-0.18,0.81h-0.83l-1.149,4.957h0.89l-0.189,0.81
		h-2.619L39.789,137.213z"/>
	<path fill="#231F20" d="M43.328,137.213h0.75l1.149-4.957h-0.85l0.18-0.81h4.848l-0.42,1.729h-0.859l0.22-0.93h-2.209l-0.479,2.039
		h2.049l-0.18,0.779h-2.039l-0.51,2.158h2.219l0.229-0.93h0.859l-0.399,1.729h-4.747L43.328,137.213z"/>
	<path fill="#231F20" d="M50.587,132.256h-0.709l0.189-0.81h2.419l-0.18,0.81h-0.83l0.2,4.138l2.438-4.228h0.43l0.729,4.248
		l2.02-4.158h-0.8l0.18-0.81h2.429l-0.19,0.81h-0.629l-2.988,5.836h-0.49l-0.789-4.188l-2.529,4.188l-0.479,0.011L50.587,132.256z"
		/>
	<path fill="#231F20" d="M60.698,137.213h0.75l1.149-4.957h-0.85l0.18-0.81h2.249c0.6,0,1.069,0.079,1.429,0.27
		c0.5,0.26,0.81,0.739,0.81,1.31c0,0.889-0.72,1.52-1.608,1.648c0.669,0.19,1.179,0.73,1.179,1.39c0,0.55-0.21,0.999-0.59,1.329
		c-0.31,0.27-0.749,0.46-1.269,0.55c-0.28,0.06-0.6,0.08-0.93,0.08h-2.688L60.698,137.213z M63.327,137.232
		c0.25,0,0.479-0.029,0.67-0.069c0.329-0.07,0.569-0.19,0.749-0.37c0.2-0.199,0.3-0.459,0.3-0.779c0-0.59-0.55-0.99-1.479-0.99
		h-0.699l-0.52,2.209H63.327z M63.667,134.295c1.119,0,1.809-0.42,1.809-1.17c0-0.31-0.159-0.6-0.489-0.739
		c-0.22-0.091-0.52-0.149-0.93-0.149h-0.55l-0.479,2.059H63.667z"/>
	<path fill="#231F20" d="M67.518,137.213h0.839l0.431-1.799l-1.14-3.158h-0.66l0.19-0.81h2.318l-0.18,0.81h-0.729l0.819,2.498
		l2.019-2.498h-0.719l0.189-0.81h2.408l-0.18,0.81h-0.63l-2.848,3.328l-0.38,1.629h0.899l-0.18,0.81h-2.659L67.518,137.213z"/>
	<path fill="#231F20" d="M4.199,149.888h1.064l1.934-6.948H5.992l0.252-1.134h2.241l1.598,5.827l4.16-5.827h2.339l-0.266,1.134
		h-1.065l-1.303,6.948h1.219l-0.252,1.135h-3.558l0.252-1.135h1.093l1.106-5.729l-4.006,5.52H9.606l-1.569-5.52l-1.526,5.729h1.246
		l-0.266,1.135H3.947L4.199,149.888z"/>
	<path fill="#231F20" d="M16.533,148.725c0-2.059,1.429-3.852,3.18-3.852c0.911,0,1.598,0.658,1.808,1.429l0.392-1.345h1.149
		l-1.065,4.301c-0.069,0.252-0.111,0.477-0.111,0.616c0,0.267,0.126,0.42,0.364,0.42c0.224,0,0.504-0.21,0.784-0.98l0.546,0.196
		c-0.364,1.205-0.994,1.611-1.667,1.611c-0.714,0-1.162-0.49-1.162-1.219v-0.07c-0.519,0.715-1.247,1.303-2.157,1.303
		C17.388,151.135,16.533,150.195,16.533,148.725z M21.24,147.437c0-0.896-0.448-1.485-1.373-1.485c-1.177,0-2.059,1.275-2.059,2.634
		c0,0.883,0.434,1.499,1.274,1.499C20.315,150.084,21.24,148.754,21.24,147.437z"/>
	<path fill="#231F20" d="M25.774,146.021h-1.12l0.266-1.036h2.157l-0.393,1.694c0.743-1.19,1.443-1.793,2.102-1.793
		c0.49,0,0.896,0.351,0.896,0.841c0,0.477-0.393,0.854-0.841,0.854c-0.42,0-0.742-0.28-0.812-0.616
		c-0.434,0.196-1.288,1.05-1.61,2.353l-0.673,2.704h-1.232L25.774,146.021z"/>
	<path fill="#231F20" d="M29.791,151.022l2.129-9.217h-1.135l0.267-1.036h2.312l-1.653,7.088c1.681-0.604,2.508-1.149,2.76-1.541
		c-0.238-0.141-0.379-0.393-0.379-0.645c0-0.435,0.351-0.799,0.799-0.799s0.826,0.35,0.826,0.896c0,0.91-0.896,1.736-2.367,2.438
		l0.589,1.373c0.126,0.294,0.21,0.462,0.308,0.574c0.099,0.098,0.183,0.126,0.28,0.126c0.21,0,0.406-0.224,0.645-1.12l0.561,0.182
		c-0.322,1.457-0.869,1.779-1.485,1.779c-0.28,0-0.546-0.07-0.784-0.267c-0.196-0.168-0.378-0.421-0.519-0.771l-0.658-1.568
		c-0.238,0.098-0.504,0.182-0.729,0.266l-0.532,2.241H29.791z"/>
	<path fill="#231F20" d="M39.437,149.888h1.051l1.61-6.948h-1.19l0.252-1.134h3.586l-0.266,1.134h-1.106l-0.658,2.83h4.65
		l0.658-2.83h-1.261l0.267-1.134h3.571l-0.252,1.134h-1.064l-1.611,6.948h1.191l-0.253,1.135H45.04l0.252-1.135h1.12l0.701-3.012
		h-4.651l-0.714,3.012h1.261l-0.267,1.135h-3.571L39.437,149.888z"/>
	<path fill="#231F20" d="M50.721,149.902c0-0.183,0.042-0.449,0.099-0.658l0.84-3.223h-1.134l0.266-1.036h2.367l-1.12,4.272
		c-0.07,0.238-0.099,0.477-0.099,0.616c0,0.267,0.141,0.42,0.364,0.42c0.28,0,0.532-0.21,0.826-0.98l0.547,0.196
		c-0.364,1.205-0.952,1.611-1.695,1.611C51.169,151.121,50.721,150.631,50.721,149.902z M51.897,143.15
		c0-0.448,0.364-0.812,0.812-0.812c0.435,0,0.812,0.364,0.812,0.812s-0.378,0.812-0.812,0.812
		C52.262,143.963,51.897,143.599,51.897,143.15z"/>
	<path fill="#231F20" d="M58.675,149.916c0-0.196,0.042-0.463,0.098-0.687l0.519-1.821c0.07-0.238,0.099-0.42,0.099-0.616
		c0-0.532-0.364-0.882-0.911-0.882c-0.742,0-1.442,0.63-1.751,1.834l-0.812,3.278h-1.232l1.261-5.001h-1.12l0.266-1.036h2.157
		l-0.322,1.415c0.477-0.841,1.261-1.514,2.087-1.514c0.925,0,1.64,0.631,1.64,1.709c0,0.295-0.057,0.631-0.154,0.98l-0.519,1.779
		c-0.042,0.182-0.084,0.379-0.084,0.49c0,0.28,0.14,0.448,0.378,0.448s0.505-0.21,0.785-0.98l0.546,0.196
		c-0.322,1.092-0.896,1.611-1.639,1.611C59.137,151.121,58.675,150.616,58.675,149.916z"/>
	<path fill="#231F20" d="M62.425,148.459c0-1.919,1.597-3.586,3.516-3.586c1.331,0,2.214,0.812,2.214,1.695
		c0,0.518-0.322,0.952-0.827,0.952c-0.378,0-0.714-0.294-0.714-0.742c0-0.183,0.098-0.406,0.252-0.532
		c-0.196-0.225-0.519-0.336-0.952-0.336c-1.093,0-2.256,0.938-2.256,2.479c0,1.051,0.7,1.723,1.724,1.723
		c0.7,0,1.414-0.279,2.03-0.756l-0.027,1.121c-0.589,0.42-1.317,0.658-2.115,0.658C63.672,151.135,62.425,150.141,62.425,148.459z"
		/>
	<path fill="#231F20" d="M70.979,141.806h-1.135l0.267-1.036h2.312l-1.261,5.393c0.434-0.673,1.148-1.275,1.946-1.275
		c0.925,0,1.667,0.631,1.667,1.709c0,0.295-0.042,0.631-0.153,0.98l-0.491,1.793c-0.042,0.183-0.069,0.365-0.069,0.477
		c0,0.28,0.14,0.448,0.364,0.448c0.252,0,0.504-0.21,0.784-0.98l0.546,0.196c-0.322,1.092-0.882,1.611-1.639,1.611
		c-0.826,0-1.288-0.505-1.288-1.205c0-0.196,0.042-0.448,0.098-0.672l0.504-1.836c0.07-0.238,0.084-0.42,0.084-0.616
		c0-0.532-0.378-0.882-0.924-0.882c-0.743,0-1.471,0.615-1.751,1.862l-0.757,3.25h-1.232L70.979,141.806z"/>
	<path fill="#231F20" d="M76.705,149.888c0-0.183,0.042-0.406,0.084-0.63l1.737-7.452h-1.135l0.266-1.036h2.325l-1.961,8.475
		c-0.056,0.237-0.098,0.461-0.098,0.602c0,0.295,0.126,0.448,0.364,0.448c0.28,0,0.532-0.21,0.826-0.98l0.532,0.196
		c-0.364,1.205-0.952,1.611-1.681,1.611C77.139,151.121,76.705,150.631,76.705,149.888z"/>
	<path fill="#231F20" d="M81.002,149.902c0-0.183,0.042-0.449,0.099-0.658l0.84-3.223h-1.134l0.266-1.036h2.367l-1.12,4.272
		c-0.07,0.238-0.099,0.477-0.099,0.616c0,0.267,0.141,0.42,0.364,0.42c0.28,0,0.532-0.21,0.826-0.98l0.547,0.196
		c-0.364,1.205-0.952,1.611-1.695,1.611C81.45,151.121,81.002,150.631,81.002,149.902z M82.179,143.15
		c0-0.448,0.364-0.812,0.812-0.812c0.435,0,0.812,0.364,0.812,0.812s-0.378,0.812-0.812,0.812
		C82.543,143.963,82.179,143.599,82.179,143.15z"/>
	<path fill="#231F20" d="M88.83,142.1c-0.112,0.027-0.225,0.098-0.322,0.196c-0.252,0.237-0.462,0.728-0.63,1.442l-0.295,1.247
		h2.731l0.406-1.737c0.196-0.84,0.505-1.484,0.953-1.919c0.406-0.392,0.966-0.644,1.667-0.644c0.784,0,1.246,0.406,1.246,0.91
		c0,0.477-0.378,0.784-0.784,0.784s-0.742-0.267-0.771-0.645c-0.196,0.028-0.393,0.14-0.519,0.28c-0.266,0.252-0.476,0.7-0.63,1.359
		l-0.378,1.61h1.597l-0.267,1.036h-1.568l-1.135,5.001h-1.205l1.149-5.001h-2.731l-1.135,5.001h-1.205l1.148-5.001H85.09
		l0.267-1.036h1.036l0.336-1.457c0.211-0.896,0.505-1.485,0.925-1.905s0.98-0.658,1.527-0.658c0.7,0,1.12,0.379,1.12,0.883
		c0,0.434-0.336,0.771-0.742,0.771C89.194,142.618,88.914,142.394,88.83,142.1z"/>
	<path fill="#231F20" d="M94.219,148.389v0.211c0,0.91,0.729,1.512,1.821,1.512c0.645,0,1.232-0.14,1.989-0.546l-0.238,1.149
		c-0.631,0.308-1.148,0.42-2.003,0.42c-1.443,0-2.773-0.91-2.773-2.563c0-2.046,1.513-3.698,3.306-3.698
		c1.471,0,2.438,0.84,2.438,2.256c0,0.377-0.07,0.798-0.225,1.26H94.219z M94.387,147.506h3.138c0.057-0.168,0.084-0.35,0.084-0.518
		c0-0.631-0.42-1.093-1.288-1.093S94.709,146.555,94.387,147.506z"/>
</g>
<line fill="none" stroke="#231F20" x1="4.001" y1="80.667" x2="149.333" y2="80.667"/>
<line fill="none" stroke="#231F20" x1="4.001" y1="123.164" x2="149.333" y2="123.164"/>
<g>
	<path opacity="0.5" fill="#B4121B" d="M2.965,26.817c0-12.016,9.82-22.646,21.374-22.646c9.417,0,13.634,5.95,13.634,9.127
		c0,2.484-1.502,3.813-3.004,3.813c-1.675,0-2.657-0.982-2.657-2.369c0-1.098,0.809-2.138,1.906-2.715
		c-0.577-2.08-3.929-4.91-10.052-4.91c-10.745,0-17.735,10.34-17.735,19.295c0,9.07,5.372,14.154,13.172,14.154
		c4.853,0,9.012-2.022,12.594-5.431l1.849,2.08c-4.218,4.16-9.243,6.355-14.789,6.355C10.417,43.57,2.965,37.504,2.965,26.817z"/>
	<path opacity="0.5" fill="#B4121B" d="M48.837,3.247h-4.621l0.636-2.658h7.625l-5.546,23.397c1.849-3.004,4.737-5.835,8.492-5.835
		c4.044,0,6.99,2.715,7.048,6.297c0,1.213-0.23,2.542-0.577,3.813l-2.311,8.55c-0.231,0.867-0.347,1.849-0.347,2.311
		c0,1.155,0.751,1.906,1.79,1.906c1.271,0,2.254-1.155,3.293-3.813l1.791,0.578c-1.098,3.409-2.772,5.431-5.43,5.431
		c-2.542,0-4.449-1.675-4.449-4.102c0-0.636,0.174-1.733,0.405-2.6l2.311-8.666c0.347-1.271,0.462-2.253,0.462-3.293
		c-0.058-2.195-1.906-3.813-4.391-3.813c-3.582,0-8.203,3.813-9.763,10.572l-2.657,11.554h-3.005L48.837,3.247z"/>
	<path opacity="0.5" fill="#B4121B" d="M75.703,21.271h-4.621l0.692-2.657h7.453l-1.618,6.585c3.235-4.448,5.95-7.048,8.203-7.048
		c1.907,0,2.946,1.098,2.946,2.542c0,1.56-1.271,2.831-2.715,2.831c-1.329,0-2.253-0.809-2.542-1.964
		c-1.964,1.155-6.182,4.968-7.567,10.687l-2.658,10.63h-3.004L75.703,21.271z"/>
	<path opacity="0.5" fill="#B4121B" d="M92.342,39.122c0-0.636,0.231-1.791,0.463-2.6l4.274-15.251h-4.853l0.693-2.657h7.914
		l-5.083,18.197c-0.231,0.809-0.405,1.849-0.405,2.311c0,1.155,0.751,1.906,1.791,1.906c1.271,0,2.253-1.155,3.351-3.813
		l1.791,0.578c-1.155,3.409-2.889,5.431-5.546,5.431C94.19,43.224,92.342,41.548,92.342,39.122z M97.657,10.757
		c0-1.386,1.098-2.542,2.483-2.542c1.329,0,2.427,1.156,2.427,2.542c0,1.387-1.098,2.542-2.427,2.542
		C98.755,13.299,97.657,12.144,97.657,10.757z"/>
	<path opacity="0.5" fill="#B4121B" d="M107.884,40.162c-0.867-0.866-1.328-1.849-1.328-2.831c0-1.387,0.98-2.715,2.426-2.715
		c1.443,0,2.137,1.04,2.137,2.08c0,0.809-0.289,1.329-0.924,2.022c0.23,0.289,0.578,0.52,1.039,0.809
		c1.215,0.693,3.121,1.271,5.258,1.271c2.889,0,5.141-1.56,5.141-3.986s-2.311-3.697-4.91-4.968
		c-3.697-1.849-6.816-3.466-6.816-6.99c0-3.87,3.352-6.701,8.377-6.701c3.062,0,5.719,1.04,7.221,2.542
		c0.867,0.809,1.33,1.791,1.33,2.831c0,1.618-1.098,2.658-2.312,2.658c-1.27,0-2.195-0.867-2.195-2.08
		c0-0.635,0.232-1.329,0.752-2.021c-0.115-0.116-0.348-0.347-0.982-0.636c-0.867-0.404-2.369-0.751-4.043-0.751
		c-3.236,0-5.143,1.675-5.143,3.697c0,2.08,2.195,3.293,5.084,4.737c3.523,1.733,6.645,3.524,6.645,7.221
		c0,4.563-4.045,6.99-8.377,6.99C112.968,43.339,109.675,42.01,107.884,40.162z"/>
	<path opacity="0.5" fill="#B4121B" d="M5.271,62.449c0-7.13,5.684-13.217,12.611-13.217c4.91,0,7.938,2.993,7.938,5.549
		c0,1.48-1.01,2.623-2.254,2.623c-1.144,0-2.018-0.874-2.018-1.95c0-0.639,0.37-1.245,0.841-1.581
		c-0.403-0.84-2.052-1.85-4.607-1.85c-5.213,0-9.35,4.876-9.35,10.19c0,4.372,2.59,7.129,6.626,7.129
		c2.421,0,4.573-1.009,6.558-2.959l1.85,1.85c-2.489,2.69-5.381,3.901-8.677,3.901C9.575,72.135,5.271,68.637,5.271,62.449z"/>
	<path opacity="0.5" fill="#B4121B" d="M26.359,66.249c0-4.943,3.431-9.248,7.634-9.248c2.187,0,3.834,1.581,4.339,3.43l0.941-3.229
		h2.758l-2.556,10.325c-0.168,0.605-0.27,1.144-0.27,1.479c0,0.639,0.303,1.009,0.875,1.009c0.538,0,1.21-0.504,1.883-2.354
		l1.312,0.471C42.401,71.025,40.888,72,39.273,72c-1.715,0-2.791-1.177-2.791-2.926v-0.168c-1.244,1.715-2.993,3.127-5.18,3.127
		C28.411,72.034,26.359,69.78,26.359,66.249z M37.659,63.155c0-2.152-1.076-3.565-3.296-3.565c-2.825,0-4.943,3.061-4.943,6.323
		c0,2.119,1.042,3.598,3.061,3.598C35.439,69.511,37.659,66.316,37.659,63.155z"/>
	<path opacity="0.5" fill="#B4121B" d="M45.8,69.041c0-0.437,0.102-0.975,0.202-1.513l4.17-17.892h-2.724l0.639-2.488h5.583
		l-4.708,20.346c-0.135,0.572-0.236,1.11-0.236,1.446c0,0.707,0.303,1.076,0.875,1.076c0.673,0,1.277-0.504,1.984-2.354l1.277,0.471
		C51.988,71.025,50.576,72,48.827,72C46.843,72,45.8,70.823,45.8,69.041z"/>
	<path opacity="0.5" fill="#B4121B" d="M55.049,66.249c0-4.943,3.431-9.248,7.634-9.248c2.187,0,3.834,1.581,4.339,3.43l0.941-3.229
		h2.758l-2.556,10.325c-0.168,0.605-0.27,1.144-0.27,1.479c0,0.639,0.303,1.009,0.875,1.009c0.538,0,1.21-0.504,1.883-2.354
		l1.312,0.471C71.091,71.025,69.577,72,67.963,72c-1.715,0-2.791-1.177-2.791-2.926v-0.168c-1.244,1.715-2.993,3.127-5.18,3.127
		C57.101,72.034,55.049,69.78,55.049,66.249z M66.349,63.155c0-2.152-1.076-3.565-3.296-3.565c-2.825,0-4.943,3.061-4.943,6.323
		c0,2.119,1.042,3.598,3.061,3.598C64.129,69.511,66.349,66.316,66.349,63.155z"/>
	<path opacity="0.5" fill="#B4121B" d="M78.727,49.636h-2.725l0.639-2.488h5.55l-2.993,12.847c1.109-1.614,2.926-2.993,4.876-2.993
		c3.363,0,5.313,2.354,5.313,5.852c0,5.044-3.497,9.181-7.701,9.181c-2.152,0-3.969-1.379-4.439-3.33l-0.874,3.061h-2.758
		L78.727,49.636z M86.36,63.256c0-2.186-1.177-3.733-3.263-3.733c-2.858,0-5.279,3.161-5.279,6.39c0,2.119,1.244,3.531,3.497,3.531
		C84.174,69.444,86.36,66.451,86.36,63.256z"/>
	<path opacity="0.5" fill="#B4121B" d="M95.14,59.759h-2.69l0.64-2.489h5.179l-0.941,4.069c1.782-2.859,3.464-4.305,5.044-4.305
		c1.178,0,2.153,0.841,2.153,2.018c0,1.144-0.942,2.052-2.018,2.052c-1.009,0-1.782-0.673-1.95-1.48
		c-1.043,0.471-3.095,2.522-3.868,5.65l-1.614,6.491h-2.959L95.14,59.759z"/>
	<path opacity="0.5" fill="#B4121B" d="M107.685,65.442v0.504c0,2.186,1.75,3.632,4.373,3.632c1.547,0,2.959-0.336,4.775-1.312
		l-0.572,2.758c-1.514,0.74-2.758,1.009-4.809,1.009c-3.465,0-6.66-2.186-6.66-6.154c0-4.91,3.633-8.878,7.938-8.878
		c3.531,0,5.852,2.018,5.852,5.415c0,0.908-0.168,1.917-0.537,3.027H107.685z M108.089,63.323h7.533
		c0.135-0.403,0.201-0.841,0.201-1.244c0-1.513-1.008-2.623-3.094-2.623S108.863,61.037,108.089,63.323z"/>
	<path opacity="0.5" fill="#B4121B" d="M121.375,70.184c-0.57-0.572-0.908-1.211-0.908-1.917c0-1.076,0.74-1.883,1.717-1.883
		c0.941,0,1.613,0.74,1.613,1.614c0,0.336-0.135,0.706-0.336,0.941c0.135,0.135,0.303,0.236,0.537,0.37
		c0.674,0.336,1.648,0.572,2.691,0.572c1.514,0,2.791-0.605,2.791-1.782c0-1.211-1.445-1.816-3.061-2.522
		c-2.018-0.908-3.969-1.917-3.969-4.237c0-2.321,1.984-4.338,5.584-4.338c1.982,0,3.664,0.639,4.607,1.614
		c0.537,0.538,0.84,1.21,0.84,1.883c0,1.11-0.773,1.85-1.682,1.85s-1.648-0.74-1.648-1.614c0-0.303,0.068-0.538,0.303-0.942
		c-0.1-0.067-0.234-0.168-0.504-0.269c-0.504-0.202-1.211-0.336-1.951-0.336c-1.479,0-2.656,0.605-2.656,1.648
		c0,1.109,1.445,1.749,3.127,2.522c1.984,0.908,3.902,1.984,3.902,4.238c0,2.858-2.32,4.439-5.752,4.439
		C124.402,72.034,122.451,71.294,121.375,70.184z"/>
	<path opacity="0.5" fill="#B4121B" d="M138.326,65.442v0.504c0,2.186,1.75,3.632,4.373,3.632c1.547,0,2.959-0.336,4.775-1.312
		l-0.572,2.758c-1.514,0.74-2.758,1.009-4.809,1.009c-3.465,0-6.66-2.186-6.66-6.154c0-4.91,3.633-8.878,7.938-8.878
		c3.531,0,5.852,2.018,5.852,5.415c0,0.908-0.168,1.917-0.537,3.027H138.326z M138.73,63.323h7.533
		c0.135-0.403,0.201-0.841,0.201-1.244c0-1.513-1.008-2.623-3.094-2.623S139.503,61.037,138.73,63.323z"/>
</g>
</svg>
