<?xml version="1.0" encoding="utf-8"?>
<!-- Generator: Adobe Illustrator 17.0.0, SVG Export Plug-In . SVG Version: 6.00 Build 0)  -->
<!DOCTYPE svg PUBLIC "-//W3C//DTD SVG 1.1//EN" "http://www.w3.org/Graphics/SVG/1.1/DTD/svg11.dtd">
<svg version="1.1" id="Layer_1" xmlns="http://www.w3.org/2000/svg" xmlns:xlink="http://www.w3.org/1999/xlink" x="0px" y="0px"
	 width="253.5px" height="58.5px" viewBox="0 0 253.5 58.5" enable-background="new 0 0 253.5 58.5" xml:space="preserve">
<g>
	<path fill="#231F20" d="M2.487,11.067h1.166L5.42,3.469H4.087L4.47,1.786h3.767c0.533,0,1.016,0.066,1.449,0.183
		c1.583,0.433,2.482,1.6,2.482,3.083c0,2.233-1.766,4.083-4.748,4.083c-0.567,0-1.184-0.017-1.434-0.033l-0.45,1.966h1.45
		L6.603,12.75H2.104L2.487,11.067z M10.252,5.119c0-0.783-0.483-1.3-1.267-1.533C8.702,3.502,8.369,3.469,8.069,3.469H7.303
		L6.387,7.418c0.366,0.033,0.833,0.05,1.232,0.05C9.285,7.468,10.252,6.485,10.252,5.119z"/>
	<path fill="#231F20" d="M12.787,11.25c0-0.25,0.033-0.533,0.1-0.816l0.851-3.449h-1.316l0.399-1.533h3.166l-1.25,4.965
		C14.653,10.734,14.62,11,14.62,11.184c0,0.317,0.149,0.467,0.399,0.467c0.301,0,0.617-0.184,0.983-1.2l0.733,0.283
		c-0.5,1.716-1.333,2.149-2.283,2.149C13.32,12.883,12.787,12.233,12.787,11.25z M14.104,3.319c0-0.633,0.517-1.116,1.133-1.116
		c0.617,0,1.133,0.483,1.133,1.116s-0.516,1.117-1.133,1.117C14.62,4.436,14.104,3.952,14.104,3.319z"/>
	<path fill="#231F20" d="M17.087,11.833l5.516-4.949h-2.6L19.67,8.218h-1.55l0.683-2.766h5.633l0.533,1.167l-5.249,4.715
		c0.399-0.117,0.616-0.183,1.1-0.183c0.533,0,1.267,0.25,1.6,0.25c0.833,0,1.066-0.433,1.399-1.417l0.684,0.15
		c-0.217,1.25-0.7,2.75-2.199,2.75c-0.567,0-2.017-0.4-2.717-0.4c-0.716,0-1.283,0.15-1.816,0.4L17.087,11.833z"/>
	<path fill="#231F20" d="M25.004,11.833l5.516-4.949h-2.6l-0.333,1.333h-1.55l0.683-2.766h5.632l0.533,1.167l-5.248,4.715
		c0.399-0.117,0.616-0.183,1.1-0.183c0.533,0,1.267,0.25,1.6,0.25c0.833,0,1.066-0.433,1.399-1.417l0.684,0.15
		c-0.217,1.25-0.7,2.75-2.2,2.75c-0.566,0-2.016-0.4-2.716-0.4c-0.716,0-1.282,0.15-1.815,0.4L25.004,11.833z"/>
	<path fill="#231F20" d="M33.354,10.051c0-2.516,1.684-4.732,3.799-4.732c0.967,0,1.75,0.8,2.05,1.633l0.5-1.5h1.699l-1.249,4.965
		c-0.084,0.317-0.134,0.6-0.134,0.783c0,0.3,0.117,0.45,0.367,0.45c0.216,0,0.566-0.184,0.933-1.2l0.733,0.283
		c-0.5,1.716-1.434,2.149-2.233,2.149c-0.949,0-1.499-0.65-1.499-1.649c-0.6,0.899-1.483,1.649-2.616,1.649
		C34.337,12.883,33.354,11.75,33.354,10.051z M38.886,8.484c0-0.95-0.467-1.55-1.433-1.55c-1.217,0-2.2,1.367-2.2,2.85
		c0,0.866,0.434,1.549,1.316,1.549C37.786,11.333,38.886,10.051,38.886,8.484z"/>
	<path fill="#231F20" d="M47.52,6.985h-1.333l0.4-1.533h2.532l0.25,5.299l2.316-4.549h1.216l0.867,4.616
		c0.883-1.35,1.616-2.6,1.732-3.383c-0.383-0.117-0.75-0.483-0.75-1.033c0-0.6,0.483-1.083,1.083-1.083
		c0.783,0,1.316,0.566,1.316,1.5c0,1.083-0.933,2.982-3.183,6.065h-1.232l-0.866-4.016l-2.283,4.016h-1.399L47.52,6.985z"/>
	<path fill="#231F20" d="M58.736,11.25c0-0.25,0.033-0.533,0.1-0.816l0.851-3.449H58.37l0.399-1.533h3.166l-1.25,4.965
		c-0.083,0.317-0.116,0.583-0.116,0.767c0,0.317,0.149,0.467,0.399,0.467c0.301,0,0.617-0.184,0.983-1.2l0.733,0.283
		c-0.5,1.716-1.333,2.149-2.283,2.149C59.27,12.883,58.736,12.233,58.736,11.25z M60.053,3.319c0-0.633,0.517-1.116,1.133-1.116
		c0.617,0,1.133,0.483,1.133,1.116s-0.516,1.117-1.133,1.117C60.569,4.436,60.053,3.952,60.053,3.319z"/>
	<path fill="#231F20" d="M66.937,6.985l-0.783,3.166c-0.067,0.267-0.117,0.533-0.117,0.667c0,0.5,0.25,0.666,0.533,0.666
		c0.384,0,0.667-0.1,1.399-0.583l0.601,0.833c-1,0.95-1.917,1.15-2.633,1.15c-0.967,0-1.783-0.517-1.783-1.75
		c0-0.283,0.066-0.617,0.15-0.983l0.783-3.166h-1.35l0.35-1.533h1.366l0.4-1.583l2.049-0.733l-0.583,2.316h2.216l-0.383,1.533
		H66.937z"/>
	<path fill="#231F20" d="M71.919,2.086h-1.366l0.4-1.533h3.115l-1.433,6.232c0.5-0.766,1.35-1.466,2.232-1.466
		c1.05,0,1.95,0.75,1.95,2.183c0,0.366-0.051,0.766-0.184,1.216l-0.533,1.916c-0.05,0.2-0.084,0.367-0.084,0.517
		c0,0.333,0.134,0.5,0.384,0.5s0.566-0.184,0.933-1.2l0.733,0.283c-0.433,1.516-1.216,2.149-2.199,2.149
		c-1.149,0-1.699-0.683-1.699-1.616c0-0.267,0.033-0.55,0.116-0.833l0.55-1.966c0.066-0.217,0.083-0.417,0.083-0.6
		c0-0.633-0.383-1.016-0.999-1.016c-0.783,0-1.333,0.517-1.6,1.666l-0.983,4.232H69.47L71.919,2.086z"/>
	<path fill="#231F20" d="M84.469,2.086h-1.366l0.399-1.533h3.116l-1.433,6.232c0.5-0.766,1.35-1.466,2.232-1.466
		c1.05,0,1.949,0.75,1.949,2.183c0,0.366-0.05,0.766-0.183,1.216l-0.533,1.916c-0.05,0.2-0.083,0.367-0.083,0.517
		c0,0.333,0.133,0.5,0.383,0.5s0.566-0.184,0.933-1.2l0.733,0.283c-0.433,1.516-1.216,2.149-2.199,2.149
		c-1.149,0-1.699-0.683-1.699-1.616c0-0.267,0.033-0.55,0.116-0.833l0.55-1.966c0.066-0.217,0.083-0.417,0.083-0.6
		c0-0.633-0.383-1.016-0.999-1.016c-0.783,0-1.333,0.517-1.6,1.666l-0.983,4.232H82.02L84.469,2.086z"/>
	<path fill="#231F20" d="M91.436,9.567c0-2.183,1.717-4.249,4.133-4.249c2.199,0,3.432,1.55,3.432,3.316
		c0,2.183-1.716,4.249-4.132,4.249C92.669,12.883,91.436,11.333,91.436,9.567z M97.151,8.634c0-1.183-0.75-1.799-1.65-1.799
		c-1.216,0-2.216,1.166-2.216,2.732c0,1.183,0.75,1.8,1.649,1.8C96.151,11.367,97.151,10.201,97.151,8.634z"/>
	<path fill="#231F20" d="M101.469,6.985h-1.333l0.399-1.533h2.85l-0.366,1.683c0.499-0.933,1.399-1.816,2.332-1.816
		c1.033,0,1.717,0.75,1.833,1.816c0.634-1.116,1.533-1.816,2.366-1.816c1.017,0,1.866,0.75,1.866,2.183
		c0,0.366-0.05,0.766-0.184,1.216l-0.533,1.916c-0.05,0.2-0.083,0.367-0.083,0.517c0,0.333,0.134,0.5,0.384,0.5
		c0.249,0,0.566-0.184,0.933-1.2l0.733,0.283c-0.434,1.516-1.217,2.149-2.199,2.149c-1.15,0-1.7-0.683-1.7-1.616
		c0-0.267,0.033-0.55,0.117-0.833l0.517-1.85c0.083-0.267,0.116-0.517,0.116-0.717c0-0.667-0.434-1.016-0.917-1.016
		c-0.716,0-1.232,0.583-1.516,1.766l-1.033,4.132h-1.866l1.05-4.132c0.066-0.283,0.116-0.6,0.116-0.8
		c0-0.55-0.399-0.966-0.916-0.966c-0.717,0-1.233,0.583-1.517,1.766l-1.033,4.132h-1.866L101.469,6.985z"/>
	<path fill="#231F20" d="M115.302,9.717v0.117c0,0.816,0.666,1.533,2.05,1.533c0.732,0,1.499-0.167,2.416-0.65l-0.351,1.666
		c-0.767,0.367-1.399,0.5-2.482,0.5c-1.783,0-3.433-1.116-3.433-3.132c0-2.483,1.767-4.433,3.949-4.433c1.85,0,3.133,1,3.133,2.816
		c0,0.467-0.084,1-0.267,1.583H115.302z M115.502,8.451h3.266c0.05-0.184,0.066-0.35,0.066-0.5c0-0.716-0.467-1.133-1.35-1.133
		C116.568,6.818,115.852,7.451,115.502,8.451z"/>
	<path fill="#231F20" d="M123.186,6.985h-1.333l0.399-1.533h2.85l-0.366,1.683c0.499-0.933,1.399-1.816,2.332-1.816
		c1.033,0,1.717,0.75,1.833,1.816c0.634-1.116,1.533-1.816,2.366-1.816c1.017,0,1.866,0.75,1.866,2.183
		c0,0.366-0.05,0.766-0.184,1.216l-0.533,1.916c-0.05,0.2-0.083,0.367-0.083,0.517c0,0.333,0.134,0.5,0.384,0.5
		c0.249,0,0.566-0.184,0.933-1.2l0.733,0.283c-0.434,1.516-1.217,2.149-2.199,2.149c-1.15,0-1.7-0.683-1.7-1.616
		c0-0.267,0.033-0.55,0.117-0.833l0.517-1.85c0.083-0.267,0.116-0.517,0.116-0.717c0-0.667-0.434-1.016-0.917-1.016
		c-0.716,0-1.232,0.583-1.516,1.766l-1.033,4.132h-1.866l1.05-4.132c0.066-0.283,0.116-0.6,0.116-0.8
		c0-0.55-0.399-0.966-0.916-0.966c-0.717,0-1.233,0.583-1.517,1.766l-1.033,4.132h-1.866L123.186,6.985z"/>
	<path fill="#231F20" d="M135.252,10.051c0-2.516,1.684-4.732,3.799-4.732c0.967,0,1.75,0.8,2.05,1.633l0.5-1.5h1.699l-1.249,4.965
		c-0.084,0.317-0.134,0.6-0.134,0.783c0,0.3,0.117,0.45,0.367,0.45c0.216,0,0.566-0.184,0.933-1.2l0.733,0.283
		c-0.5,1.716-1.434,2.149-2.233,2.149c-0.949,0-1.499-0.65-1.499-1.649c-0.6,0.899-1.483,1.649-2.616,1.649
		C136.235,12.883,135.252,11.75,135.252,10.051z M140.784,8.484c0-0.95-0.467-1.55-1.433-1.55c-1.217,0-2.2,1.367-2.2,2.85
		c0,0.866,0.434,1.549,1.316,1.549C139.685,11.333,140.784,10.051,140.784,8.484z"/>
	<path fill="#231F20" d="M148.7,5.318c0.983,0,1.717,0.8,2.017,1.566l1.116-4.799h-1.35l0.4-1.533h3.132l-2.299,9.864
		c-0.084,0.35-0.134,0.6-0.134,0.783c0,0.3,0.117,0.45,0.367,0.45c0.216,0,0.566-0.184,0.933-1.2l0.733,0.283
		c-0.5,1.716-1.45,2.149-2.25,2.149c-0.949,0-1.499-0.65-1.499-1.649c-0.6,0.899-1.483,1.649-2.616,1.649
		c-1.366,0-2.35-1.133-2.35-2.833C144.901,7.535,146.584,5.318,148.7,5.318z M150.434,8.484c0-0.95-0.467-1.55-1.433-1.55
		c-1.217,0-2.2,1.367-2.2,2.85c0,0.866,0.434,1.549,1.316,1.549C149.334,11.333,150.434,10.051,150.434,8.484z"/>
	<path fill="#231F20" d="M156.135,9.717v0.117c0,0.816,0.666,1.533,2.049,1.533c0.733,0,1.5-0.167,2.417-0.65l-0.351,1.666
		c-0.767,0.367-1.399,0.5-2.482,0.5c-1.783,0-3.433-1.116-3.433-3.132c0-2.483,1.767-4.433,3.949-4.433c1.85,0,3.133,1,3.133,2.816
		c0,0.467-0.084,1-0.267,1.583H156.135z M156.335,8.451h3.266c0.05-0.184,0.066-0.35,0.066-0.5c0-0.716-0.467-1.133-1.35-1.133
		C157.401,6.818,156.685,7.451,156.335,8.451z"/>
	<path fill="#231F20" d="M167.468,6.985h-1.333l0.399-1.533h2.85l-0.366,1.683c0.499-0.933,1.399-1.816,2.332-1.816
		c1.033,0,1.717,0.75,1.833,1.816c0.634-1.116,1.533-1.816,2.366-1.816c1.017,0,1.866,0.75,1.866,2.183
		c0,0.366-0.05,0.766-0.184,1.216l-0.533,1.916c-0.05,0.2-0.083,0.367-0.083,0.517c0,0.333,0.134,0.5,0.383,0.5
		c0.25,0,0.567-0.184,0.934-1.2l0.733,0.283c-0.434,1.516-1.217,2.149-2.2,2.149c-1.149,0-1.699-0.683-1.699-1.616
		c0-0.267,0.033-0.55,0.117-0.833l0.516-1.85c0.084-0.267,0.117-0.517,0.117-0.717c0-0.667-0.434-1.016-0.916-1.016
		c-0.717,0-1.233,0.583-1.517,1.766l-1.033,4.132h-1.866l1.05-4.132c0.066-0.283,0.116-0.6,0.116-0.8
		c0-0.55-0.399-0.966-0.916-0.966c-0.717,0-1.233,0.583-1.517,1.766l-1.033,4.132h-1.866L167.468,6.985z"/>
	<path fill="#231F20" d="M179.518,9.567c0-2.183,1.717-4.249,4.133-4.249c2.199,0,3.432,1.55,3.432,3.316
		c0,2.183-1.716,4.249-4.132,4.249C180.751,12.883,179.518,11.333,179.518,9.567z M185.233,8.634c0-1.183-0.75-1.799-1.65-1.799
		c-1.216,0-2.216,1.166-2.216,2.732c0,1.183,0.75,1.8,1.649,1.8C184.233,11.367,185.233,10.201,185.233,8.634z"/>
	<path fill="#231F20" d="M187.468,11.833l5.516-4.949h-2.6l-0.333,1.333h-1.55l0.683-2.766h5.633l0.533,1.167l-5.249,4.715
		c0.399-0.117,0.616-0.183,1.1-0.183c0.533,0,1.267,0.25,1.6,0.25c0.833,0,1.066-0.433,1.399-1.417l0.684,0.15
		c-0.217,1.25-0.7,2.75-2.199,2.75c-0.567,0-2.017-0.4-2.717-0.4c-0.716,0-1.283,0.15-1.816,0.4L187.468,11.833z"/>
	<path fill="#231F20" d="M195.385,11.833l5.516-4.949h-2.6l-0.333,1.333h-1.55l0.683-2.766h5.632l0.533,1.167l-5.248,4.715
		c0.399-0.117,0.616-0.183,1.1-0.183c0.533,0,1.267,0.25,1.6,0.25c0.833,0,1.066-0.433,1.399-1.417l0.684,0.15
		c-0.217,1.25-0.7,2.75-2.2,2.75c-0.566,0-2.016-0.4-2.716-0.4c-0.716,0-1.282,0.15-1.815,0.4L195.385,11.833z"/>
	<path fill="#231F20" d="M203.734,10.051c0-2.516,1.684-4.732,3.799-4.732c0.967,0,1.75,0.8,2.05,1.633l0.5-1.5h1.699l-1.249,4.965
		c-0.084,0.317-0.134,0.6-0.134,0.783c0,0.3,0.117,0.45,0.367,0.45c0.216,0,0.566-0.184,0.933-1.2l0.733,0.283
		c-0.5,1.716-1.434,2.149-2.233,2.149c-0.949,0-1.499-0.65-1.499-1.649c-0.6,0.899-1.483,1.649-2.616,1.649
		C204.718,12.883,203.734,11.75,203.734,10.051z M209.267,8.484c0-0.95-0.467-1.55-1.433-1.55c-1.217,0-2.2,1.367-2.2,2.85
		c0,0.866,0.434,1.549,1.316,1.549C208.167,11.333,209.267,10.051,209.267,8.484z"/>
	<path fill="#231F20" d="M214.867,6.985h-1.333l0.399-1.533h2.85l-0.467,2.133c0.85-1.549,1.717-2.266,2.583-2.266
		c0.616,0,1.216,0.483,1.216,1.2c0,0.633-0.516,1.15-1.149,1.15c-0.583,0-1.017-0.417-1.1-0.833
		c-0.533,0.167-1.383,1.116-1.75,2.599l-0.833,3.316h-1.866L214.867,6.985z"/>
	<path fill="#231F20" d="M221.917,9.717v0.117c0,0.816,0.666,1.533,2.05,1.533c0.732,0,1.499-0.167,2.416-0.65l-0.351,1.666
		c-0.767,0.367-1.399,0.5-2.482,0.5c-1.783,0-3.433-1.116-3.433-3.132c0-2.483,1.767-4.433,3.949-4.433c1.85,0,3.133,1,3.133,2.816
		c0,0.467-0.084,1-0.267,1.583H221.917z M222.117,8.451h3.266c0.05-0.184,0.066-0.35,0.066-0.5c0-0.716-0.467-1.133-1.35-1.133
		C223.184,6.818,222.467,7.451,222.117,8.451z"/>
	<path fill="#231F20" d="M228.484,11.234c0-0.25,0.033-0.517,0.1-0.8l1.933-8.348h-1.366l0.4-1.533h3.166l-2.283,9.864
		c-0.066,0.3-0.116,0.533-0.116,0.717c0,0.367,0.116,0.517,0.383,0.517c0.3,0,0.616-0.184,0.983-1.2l0.733,0.283
		c-0.5,1.716-1.333,2.149-2.283,2.149C229.001,12.883,228.484,12.233,228.484,11.234z"/>
	<path fill="#231F20" d="M233.617,11.234c0-0.25,0.033-0.517,0.1-0.8l1.933-8.348h-1.366l0.4-1.533h3.166l-2.283,9.864
		c-0.066,0.3-0.116,0.533-0.116,0.717c0,0.367,0.116,0.517,0.383,0.517c0.3,0,0.616-0.184,0.983-1.2l0.733,0.283
		c-0.5,1.716-1.333,2.149-2.283,2.149C234.134,12.883,233.617,12.233,233.617,11.234z"/>
	<path fill="#231F20" d="M238.417,10.051c0-2.516,1.683-4.732,3.799-4.732c0.967,0,1.75,0.8,2.05,1.633l0.5-1.5h1.699l-1.249,4.965
		c-0.084,0.317-0.134,0.6-0.134,0.783c0,0.3,0.117,0.45,0.367,0.45c0.216,0,0.566-0.184,0.933-1.2l0.733,0.283
		c-0.5,1.716-1.434,2.149-2.233,2.149c-0.949,0-1.499-0.65-1.499-1.649c-0.6,0.899-1.483,1.649-2.616,1.649
		C239.4,12.883,238.417,11.75,238.417,10.051z M243.949,8.484c0-0.95-0.467-1.55-1.433-1.55c-1.217,0-2.2,1.367-2.2,2.85
		c0,0.866,0.434,1.549,1.316,1.549C242.85,11.333,243.949,10.051,243.949,8.484z"/>
	<path fill="#231F20" d="M246.501,14.683c1.717-0.983,2.233-1.732,2.283-2.033c-0.566-0.267-0.8-0.833-0.8-1.133
		c0-0.767,0.616-1.383,1.366-1.383s1.399,0.583,1.399,1.517c0,1.316-1.616,2.949-3.849,3.799L246.501,14.683z"/>
	<path fill="#231F20" d="M2.754,36.033c-0.35-0.35-0.467-0.65-0.467-1.084c0-0.683,0.483-1.1,1.05-1.1S4.37,34.3,4.37,34.867
		c0,0.133-0.033,0.316-0.083,0.399c0.149,0.1,0.533,0.216,1.017,0.216c0.633,0,1.1-0.166,1.482-0.549
		c0.35-0.351,0.533-0.9,0.7-1.633l0.283-1.217c-0.617,0.783-1.416,1.35-2.399,1.35c-1.683,0-2.55-1.166-2.55-2.85
		c0-2.316,1.517-4.432,3.816-4.432c1.149,0,1.832,0.833,2.133,1.533l0.466-1.4h1.667l-1.717,7.481
		c-0.217,0.95-0.5,1.683-1.033,2.216c-0.633,0.634-1.499,0.934-2.749,0.934C4.354,36.916,3.237,36.516,2.754,36.033z M8.486,29.234
		c0-0.899-0.684-1.466-1.55-1.466c-1.217,0-2.217,1.15-2.217,2.649c0,0.9,0.667,1.466,1.533,1.466
		C7.47,31.884,8.486,30.734,8.486,29.234z"/>
	<path fill="#231F20" d="M11.721,30.401c0-2.183,1.717-4.249,4.133-4.249c2.199,0,3.432,1.55,3.432,3.316
		c0,2.183-1.716,4.249-4.132,4.249C12.954,33.717,11.721,32.167,11.721,30.401z M17.437,29.468c0-1.183-0.75-1.799-1.65-1.799
		c-1.216,0-2.216,1.166-2.216,2.732c0,1.183,0.75,1.8,1.649,1.8C16.437,32.201,17.437,31.034,17.437,29.468z"/>
	<path fill="#231F20" d="M20.437,30.885c0-2.517,1.683-4.733,3.799-4.733c0.967,0,1.75,0.8,2.05,1.633l0.5-1.5h1.699l-1.249,4.966
		c-0.084,0.316-0.134,0.6-0.134,0.782c0,0.301,0.117,0.451,0.367,0.451c0.216,0,0.566-0.184,0.933-1.2l0.733,0.283
		c-0.5,1.716-1.434,2.149-2.233,2.149c-0.949,0-1.499-0.65-1.499-1.649c-0.6,0.899-1.483,1.649-2.616,1.649
		C21.42,33.717,20.437,32.584,20.437,30.885z M25.969,29.318c0-0.95-0.467-1.55-1.433-1.55c-1.217,0-2.2,1.367-2.2,2.85
		c0,0.867,0.434,1.549,1.316,1.549C24.869,32.167,25.969,30.885,25.969,29.318z"/>
	<path fill="#231F20" d="M33.387,27.818l-0.783,3.166c-0.067,0.267-0.117,0.533-0.117,0.666c0,0.5,0.25,0.667,0.533,0.667
		c0.384,0,0.667-0.101,1.399-0.583l0.601,0.832c-1,0.95-1.916,1.15-2.633,1.15c-0.967,0-1.783-0.517-1.783-1.75
		c0-0.283,0.066-0.616,0.15-0.982l0.783-3.166h-1.35l0.35-1.533h1.366l0.399-1.583l2.05-0.733l-0.583,2.316h2.216l-0.383,1.533
		H33.387z"/>
	<path fill="#231F20" d="M39.687,30.401c0-2.366,2-4.249,4.349-4.249c1.467,0,2.733,0.883,2.733,2.167
		c0,0.716-0.417,1.316-1.116,1.316c-0.584,0-1.05-0.466-1.05-1.049c0-0.267,0.1-0.5,0.249-0.7c-0.216-0.15-0.533-0.216-0.866-0.216
		c-1.066,0-2.449,0.75-2.449,2.599c0,1.232,0.85,1.934,1.916,1.934c0.85,0,1.717-0.301,2.466-0.817L45.901,33
		c-0.683,0.467-1.583,0.717-2.565,0.717C41.286,33.717,39.687,32.484,39.687,30.401z"/>
	<path fill="#231F20" d="M49.952,22.919h-1.366l0.4-1.533h3.115l-1.433,6.231c0.5-0.767,1.35-1.466,2.232-1.466
		c1.05,0,1.95,0.75,1.95,2.183c0,0.366-0.051,0.766-0.184,1.216l-0.533,1.916c-0.05,0.201-0.084,0.367-0.084,0.518
		c0,0.333,0.134,0.5,0.384,0.5s0.566-0.184,0.933-1.2l0.733,0.283c-0.433,1.517-1.216,2.149-2.199,2.149
		c-1.149,0-1.699-0.684-1.699-1.616c0-0.267,0.033-0.55,0.116-0.833l0.55-1.966c0.066-0.217,0.083-0.417,0.083-0.6
		c0-0.633-0.383-1.016-0.999-1.016c-0.783,0-1.333,0.517-1.6,1.666l-0.983,4.233h-1.866L49.952,22.919z"/>
	<path fill="#231F20" d="M58.702,30.551v0.117c0,0.817,0.666,1.534,2.05,1.534c0.732,0,1.499-0.168,2.416-0.65l-0.351,1.666
		c-0.767,0.367-1.399,0.5-2.482,0.5c-1.783,0-3.433-1.116-3.433-3.133c0-2.482,1.767-4.432,3.949-4.432c1.85,0,3.133,1,3.133,2.816
		c0,0.467-0.084,1-0.267,1.583H58.702z M58.902,29.285h3.266c0.05-0.184,0.066-0.35,0.066-0.5c0-0.716-0.467-1.133-1.35-1.133
		C59.969,27.651,59.252,28.285,58.902,29.285z"/>
	<path fill="#231F20" d="M66.869,30.551v0.117c0,0.817,0.666,1.534,2.049,1.534c0.733,0,1.5-0.168,2.417-0.65l-0.351,1.666
		c-0.767,0.367-1.399,0.5-2.482,0.5c-1.783,0-3.433-1.116-3.433-3.133c0-2.482,1.767-4.432,3.949-4.432c1.85,0,3.133,1,3.133,2.816
		c0,0.467-0.084,1-0.267,1.583H66.869z M67.069,29.285h3.266c0.05-0.184,0.066-0.35,0.066-0.5c0-0.716-0.467-1.133-1.35-1.133
		C68.136,27.651,67.419,28.285,67.069,29.285z"/>
	<path fill="#231F20" d="M73.419,32.801c-0.3-0.301-0.483-0.65-0.483-1.033c0-0.633,0.416-1.033,0.949-1.033
		c0.5,0,0.917,0.416,0.917,0.916c0,0.134-0.05,0.334-0.1,0.4c0.066,0.05,0.149,0.1,0.249,0.15c0.334,0.149,0.767,0.216,1.217,0.216
		c0.684,0,1.316-0.2,1.316-0.683c0-0.551-0.767-0.801-1.583-1.15c-0.95-0.383-1.982-0.899-1.982-2.133
		c0-1.183,0.999-2.299,3.016-2.299c1.033,0,1.916,0.333,2.416,0.85c0.283,0.283,0.434,0.633,0.434,1c0,0.617-0.434,1.017-0.95,1.017
		c-0.5,0-0.933-0.433-0.933-0.933c0-0.133,0.017-0.2,0.1-0.4c-0.066-0.034-0.134-0.067-0.233-0.1
		c-0.233-0.083-0.533-0.133-0.816-0.133c-0.6,0-1.217,0.183-1.217,0.667c0,0.517,0.783,0.8,1.617,1.167
		c0.949,0.417,1.949,0.966,1.949,2.116c0,1.467-1.15,2.316-3.149,2.316C74.951,33.717,73.969,33.35,73.419,32.801z"/>
	<path fill="#231F20" d="M82.519,30.551v0.117c0,0.817,0.666,1.534,2.05,1.534c0.732,0,1.499-0.168,2.416-0.65l-0.351,1.666
		c-0.767,0.367-1.399,0.5-2.482,0.5c-1.783,0-3.433-1.116-3.433-3.133c0-2.482,1.767-4.432,3.949-4.432c1.85,0,3.133,1,3.133,2.816
		c0,0.467-0.084,1-0.267,1.583H82.519z M82.719,29.285h3.266c0.05-0.184,0.066-0.35,0.066-0.5c0-0.716-0.467-1.133-1.35-1.133
		C83.785,27.651,83.068,28.285,82.719,29.285z"/>
	<path fill="#231F20" d="M87.353,35.517c1.717-0.983,2.233-1.733,2.283-2.033c-0.566-0.267-0.8-0.833-0.8-1.133
		c0-0.767,0.616-1.384,1.366-1.384s1.399,0.584,1.399,1.518c0,1.316-1.616,2.949-3.849,3.799L87.353,35.517z"/>
	<path fill="#231F20" d="M98.118,27.818h-1.333l0.399-1.533h2.85l-0.467,2.133c0.85-1.549,1.717-2.266,2.583-2.266
		c0.616,0,1.216,0.483,1.216,1.2c0,0.633-0.517,1.15-1.149,1.15c-0.583,0-1.017-0.417-1.1-0.833
		c-0.533,0.167-1.383,1.116-1.75,2.599l-0.833,3.316h-1.866L98.118,27.818z"/>
	<path fill="#231F20" d="M103.385,30.401c0-2.183,1.717-4.249,4.133-4.249c2.199,0,3.432,1.55,3.432,3.316
		c0,2.183-1.716,4.249-4.132,4.249C104.618,33.717,103.385,32.167,103.385,30.401z M109.101,29.468c0-1.183-0.75-1.799-1.65-1.799
		c-1.216,0-2.216,1.166-2.216,2.732c0,1.183,0.75,1.8,1.649,1.8C108.101,32.201,109.101,31.034,109.101,29.468z"/>
	<path fill="#231F20" d="M112.102,30.885c0-2.517,1.684-4.733,3.799-4.733c0.967,0,1.75,0.8,2.05,1.633l0.5-1.5h1.699l-1.249,4.966
		c-0.084,0.316-0.134,0.6-0.134,0.782c0,0.301,0.117,0.451,0.367,0.451c0.216,0,0.566-0.184,0.933-1.2l0.733,0.283
		c-0.5,1.716-1.434,2.149-2.233,2.149c-0.949,0-1.499-0.65-1.499-1.649c-0.6,0.899-1.483,1.649-2.616,1.649
		C113.085,33.717,112.102,32.584,112.102,30.885z M117.634,29.318c0-0.95-0.467-1.55-1.433-1.55c-1.217,0-2.2,1.367-2.2,2.85
		c0,0.867,0.434,1.549,1.316,1.549C116.534,32.167,117.634,30.885,117.634,29.318z"/>
	<path fill="#231F20" d="M121.902,32.801c-0.3-0.301-0.483-0.65-0.483-1.033c0-0.633,0.417-1.033,0.95-1.033
		c0.499,0,0.916,0.416,0.916,0.916c0,0.134-0.05,0.334-0.1,0.4c0.066,0.05,0.149,0.1,0.25,0.15c0.333,0.149,0.766,0.216,1.216,0.216
		c0.684,0,1.316-0.2,1.316-0.683c0-0.551-0.767-0.801-1.583-1.15c-0.949-0.383-1.982-0.899-1.982-2.133
		c0-1.183,0.999-2.299,3.016-2.299c1.033,0,1.916,0.333,2.416,0.85c0.283,0.283,0.434,0.633,0.434,1c0,0.617-0.434,1.017-0.95,1.017
		c-0.5,0-0.933-0.433-0.933-0.933c0-0.133,0.017-0.2,0.1-0.4c-0.066-0.034-0.134-0.067-0.233-0.1
		c-0.233-0.083-0.533-0.133-0.816-0.133c-0.6,0-1.217,0.183-1.217,0.667c0,0.517,0.783,0.8,1.616,1.167
		c0.95,0.417,1.95,0.966,1.95,2.116c0,1.467-1.149,2.316-3.149,2.316C123.436,33.717,122.452,33.35,121.902,32.801z"/>
	<path fill="#231F20" d="M132.534,27.818l-0.783,3.166c-0.067,0.267-0.117,0.533-0.117,0.666c0,0.5,0.25,0.667,0.533,0.667
		c0.384,0,0.667-0.101,1.399-0.583l0.601,0.832c-1,0.95-1.917,1.15-2.633,1.15c-0.967,0-1.783-0.517-1.783-1.75
		c0-0.283,0.066-0.616,0.15-0.982l0.783-3.166h-1.35l0.35-1.533h1.366l0.4-1.583l2.049-0.733l-0.583,2.316h2.216l-0.383,1.533
		H132.534z"/>
	<path fill="#231F20" d="M137.168,30.551v0.117c0,0.817,0.666,1.534,2.049,1.534c0.733,0,1.5-0.168,2.417-0.65l-0.351,1.666
		c-0.767,0.367-1.399,0.5-2.482,0.5c-1.783,0-3.433-1.116-3.433-3.133c0-2.482,1.767-4.432,3.949-4.432c1.85,0,3.133,1,3.133,2.816
		c0,0.467-0.084,1-0.267,1.583H137.168z M137.368,29.285h3.266c0.05-0.184,0.066-0.35,0.066-0.5c0-0.716-0.467-1.133-1.35-1.133
		C138.435,27.651,137.718,28.285,137.368,29.285z"/>
	<path fill="#231F20" d="M147.366,26.152c0.983,0,1.717,0.8,2.017,1.566l1.116-4.799h-1.35l0.4-1.533h3.132l-2.299,9.864
		c-0.084,0.35-0.134,0.6-0.134,0.782c0,0.301,0.117,0.451,0.367,0.451c0.216,0,0.566-0.184,0.933-1.2l0.733,0.283
		c-0.5,1.716-1.45,2.149-2.25,2.149c-0.949,0-1.499-0.65-1.499-1.649c-0.6,0.899-1.483,1.649-2.616,1.649
		c-1.366,0-2.35-1.133-2.35-2.832C143.567,28.368,145.25,26.152,147.366,26.152z M149.1,29.318c0-0.95-0.467-1.55-1.433-1.55
		c-1.217,0-2.2,1.367-2.2,2.85c0,0.867,0.434,1.549,1.316,1.549C148,32.167,149.1,30.885,149.1,29.318z"/>
	<path fill="#231F20" d="M156.801,32.801c-0.3-0.301-0.483-0.65-0.483-1.033c0-0.633,0.417-1.033,0.95-1.033
		c0.499,0,0.916,0.416,0.916,0.916c0,0.134-0.05,0.334-0.1,0.4c0.066,0.05,0.149,0.1,0.25,0.15c0.333,0.149,0.766,0.216,1.216,0.216
		c0.684,0,1.316-0.2,1.316-0.683c0-0.551-0.767-0.801-1.583-1.15c-0.949-0.383-1.982-0.899-1.982-2.133
		c0-1.183,0.999-2.299,3.016-2.299c1.033,0,1.916,0.333,2.416,0.85c0.283,0.283,0.434,0.633,0.434,1c0,0.617-0.434,1.017-0.95,1.017
		c-0.5,0-0.933-0.433-0.933-0.933c0-0.133,0.017-0.2,0.1-0.4c-0.066-0.034-0.134-0.067-0.233-0.1
		c-0.233-0.083-0.533-0.133-0.816-0.133c-0.6,0-1.217,0.183-1.217,0.667c0,0.517,0.783,0.8,1.616,1.167
		c0.95,0.417,1.95,0.966,1.95,2.116c0,1.467-1.149,2.316-3.149,2.316C158.334,33.717,157.351,33.35,156.801,32.801z"/>
	<path fill="#231F20" d="M162.751,35.35h1.05l1.75-7.531h-1.367l0.4-1.533h2.899l-0.367,1.667c0.601-0.95,1.566-1.8,2.683-1.8
		c1.684,0,2.517,1.167,2.517,2.866c0,2.516-1.683,4.699-3.883,4.699c-1.033,0-1.732-0.733-2.083-1.55l-0.732,3.183h1.3l-0.4,1.5
		h-4.165L162.751,35.35z M170.416,29.268c0-0.867-0.483-1.566-1.4-1.566c-1.266,0-2.365,1.3-2.365,2.866
		c0,0.95,0.482,1.533,1.482,1.533C169.399,32.101,170.416,30.751,170.416,29.268z"/>
	<path fill="#231F20" d="M175.267,30.551v0.117c0,0.817,0.666,1.534,2.05,1.534c0.732,0,1.499-0.168,2.416-0.65l-0.351,1.666
		c-0.767,0.367-1.399,0.5-2.482,0.5c-1.783,0-3.433-1.116-3.433-3.133c0-2.482,1.767-4.432,3.949-4.432c1.85,0,3.133,1,3.133,2.816
		c0,0.467-0.084,1-0.267,1.583H175.267z M175.467,29.285h3.266c0.05-0.184,0.066-0.35,0.066-0.5c0-0.716-0.467-1.133-1.35-1.133
		C176.533,27.651,175.816,28.285,175.467,29.285z"/>
	<path fill="#231F20" d="M181.65,30.401c0-2.366,2-4.249,4.349-4.249c1.467,0,2.733,0.883,2.733,2.167
		c0,0.716-0.417,1.316-1.117,1.316c-0.583,0-1.049-0.466-1.049-1.049c0-0.267,0.1-0.5,0.25-0.7c-0.217-0.15-0.533-0.216-0.867-0.216
		c-1.066,0-2.449,0.75-2.449,2.599c0,1.232,0.85,1.934,1.916,1.934c0.85,0,1.717-0.301,2.467-0.817L187.865,33
		c-0.683,0.467-1.582,0.717-2.565,0.717C183.25,33.717,181.65,32.484,181.65,30.401z"/>
	<path fill="#231F20" d="M189.467,33.584l2.449-10.665h-1.366l0.399-1.533h3.116l-1.899,8.248c1.85-0.55,2.699-1.049,3.016-1.549
		c-0.333-0.233-0.5-0.517-0.5-0.867c0-0.583,0.5-1.066,1.084-1.066c0.633,0,1.149,0.5,1.149,1.25c0,1.149-0.8,2.099-2.666,2.949
		l0.666,1.45c0.117,0.25,0.217,0.434,0.317,0.55c0.083,0.1,0.166,0.134,0.267,0.134c0.216,0,0.433-0.268,0.749-1.367l0.733,0.233
		c-0.433,1.983-1.183,2.366-1.982,2.366c-0.317,0-0.667-0.084-0.95-0.316c-0.25-0.2-0.467-0.483-0.633-0.883l-0.767-1.767
		l-0.7,0.216l-0.616,2.617H189.467z"/>
	<path fill="#231F20" d="M196.667,35.517c1.717-0.983,2.233-1.733,2.283-2.033c-0.566-0.267-0.8-0.833-0.8-1.133
		c0-0.767,0.616-1.384,1.366-1.384s1.399,0.584,1.399,1.518c0,1.316-1.616,2.949-3.849,3.799L196.667,35.517z"/>
	<path fill="#231F20" d="M205.933,30.401c0-2.366,2-4.249,4.349-4.249c1.467,0,2.733,0.883,2.733,2.167
		c0,0.716-0.417,1.316-1.116,1.316c-0.584,0-1.05-0.466-1.05-1.049c0-0.267,0.1-0.5,0.249-0.7c-0.216-0.15-0.533-0.216-0.866-0.216
		c-1.066,0-2.449,0.75-2.449,2.599c0,1.232,0.85,1.934,1.916,1.934c0.85,0,1.717-0.301,2.466-0.817L212.147,33
		c-0.683,0.467-1.583,0.717-2.565,0.717C207.532,33.717,205.933,32.484,205.933,30.401z"/>
	<path fill="#231F20" d="M216.199,22.919h-1.366l0.399-1.533h3.116l-1.433,6.231c0.5-0.767,1.35-1.466,2.232-1.466
		c1.05,0,1.949,0.75,1.949,2.183c0,0.366-0.05,0.766-0.183,1.216l-0.533,1.916c-0.05,0.201-0.083,0.367-0.083,0.518
		c0,0.333,0.133,0.5,0.383,0.5s0.566-0.184,0.933-1.2l0.733,0.283c-0.433,1.517-1.216,2.149-2.199,2.149
		c-1.149,0-1.699-0.684-1.699-1.616c0-0.267,0.033-0.55,0.116-0.833l0.55-1.966c0.066-0.217,0.083-0.417,0.083-0.6
		c0-0.633-0.383-1.016-0.999-1.016c-0.783,0-1.333,0.517-1.6,1.666l-0.983,4.233h-1.866L216.199,22.919z"/>
	<path fill="#231F20" d="M224.949,30.551v0.117c0,0.817,0.666,1.534,2.049,1.534c0.733,0,1.5-0.168,2.417-0.65l-0.351,1.666
		c-0.767,0.367-1.399,0.5-2.482,0.5c-1.783,0-3.433-1.116-3.433-3.133c0-2.482,1.767-4.432,3.949-4.432c1.85,0,3.133,1,3.133,2.816
		c0,0.467-0.084,1-0.267,1.583H224.949z M225.149,29.285h3.266c0.05-0.184,0.066-0.35,0.066-0.5c0-0.716-0.467-1.133-1.35-1.133
		C226.216,27.651,225.499,28.285,225.149,29.285z"/>
	<path fill="#231F20" d="M232.833,27.818H231.5l0.399-1.533h2.85l-0.467,2.133c0.85-1.549,1.717-2.266,2.583-2.266
		c0.616,0,1.216,0.483,1.216,1.2c0,0.633-0.517,1.15-1.149,1.15c-0.583,0-1.017-0.417-1.1-0.833
		c-0.533,0.167-1.383,1.116-1.75,2.599l-0.833,3.316h-1.866L232.833,27.818z"/>
	<path fill="#231F20" d="M239.933,27.818H238.6l0.399-1.533h2.85l-0.467,2.133c0.85-1.549,1.717-2.266,2.583-2.266
		c0.616,0,1.216,0.483,1.216,1.2c0,0.633-0.517,1.15-1.149,1.15c-0.583,0-1.017-0.417-1.1-0.833
		c-0.533,0.167-1.383,1.116-1.75,2.599l-0.833,3.316h-1.866L239.933,27.818z"/>
	<path fill="#231F20" d="M243.433,35.717c0-0.634,0.5-1.051,1.05-1.051c0.417,0,0.816,0.268,0.95,0.684
		c0.383-0.05,0.982-0.616,2.333-2.216l-1.101-5.315h-1.232l0.399-1.533h2.383l0.866,5.449c1.017-1.333,1.833-2.45,2.1-3.383
		c-0.399-0.167-0.716-0.533-0.716-1.066c0-0.633,0.5-1.133,1.149-1.133c0.833,0,1.316,0.6,1.316,1.517c0,0.8-0.4,2.166-3.133,5.482
		c-2.815,3.416-3.782,3.766-4.948,3.766C243.966,36.916,243.433,36.333,243.433,35.717z"/>
	<path fill="#231F20" d="M1.421,56.183h1.05l1.75-7.531H2.854l0.4-1.533h2.899l-0.367,1.667c0.601-0.95,1.566-1.801,2.683-1.801
		c1.684,0,2.517,1.167,2.517,2.867c0,2.516-1.683,4.698-3.883,4.698c-1.033,0-1.732-0.733-2.083-1.55l-0.732,3.183h1.3l-0.4,1.5
		H1.021L1.421,56.183z M9.086,50.102c0-0.867-0.483-1.566-1.4-1.566c-1.266,0-2.365,1.299-2.365,2.865
		c0,0.95,0.482,1.533,1.482,1.533C8.069,52.934,9.086,51.584,9.086,50.102z"/>
	<path fill="#231F20" d="M13.937,51.384V51.5c0,0.816,0.666,1.533,2.05,1.533c0.732,0,1.499-0.166,2.416-0.649l-0.351,1.666
		c-0.767,0.366-1.399,0.5-2.482,0.5c-1.783,0-3.433-1.116-3.433-3.133c0-2.482,1.767-4.433,3.949-4.433c1.85,0,3.133,1,3.133,2.816
		c0,0.467-0.084,1-0.267,1.583H13.937z M14.137,50.117h3.266c0.05-0.184,0.066-0.35,0.066-0.5c0-0.716-0.467-1.133-1.35-1.133
		C15.203,48.484,14.486,49.117,14.137,50.117z"/>
	<path fill="#231F20" d="M18.954,56.183h1.05l1.75-7.531h-1.367l0.4-1.533h2.899l-0.367,1.667c0.601-0.95,1.566-1.801,2.683-1.801
		c1.684,0,2.517,1.167,2.517,2.867c0,2.516-1.683,4.698-3.883,4.698c-1.033,0-1.732-0.733-2.083-1.55l-0.732,3.183h1.3l-0.4,1.5
		h-4.165L18.954,56.183z M26.619,50.102c0-0.867-0.483-1.566-1.4-1.566c-1.266,0-2.365,1.299-2.365,2.865
		c0,0.95,0.482,1.533,1.482,1.533C25.603,52.934,26.619,51.584,26.619,50.102z"/>
	<path fill="#231F20" d="M28.32,56.183h1.05l1.749-7.531h-1.366l0.4-1.533h2.899l-0.367,1.667c0.601-0.95,1.566-1.801,2.683-1.801
		c1.684,0,2.517,1.167,2.517,2.867c0,2.516-1.683,4.698-3.883,4.698c-1.033,0-1.732-0.733-2.082-1.55l-0.733,3.183h1.3l-0.4,1.5
		H27.92L28.32,56.183z M35.985,50.102c0-0.867-0.483-1.566-1.399-1.566c-1.267,0-2.366,1.299-2.366,2.865
		c0,0.95,0.482,1.533,1.482,1.533C34.969,52.934,35.985,51.584,35.985,50.102z"/>
	<path fill="#231F20" d="M40.837,51.384V51.5c0,0.816,0.666,1.533,2.05,1.533c0.732,0,1.499-0.166,2.416-0.649l-0.351,1.666
		c-0.767,0.366-1.399,0.5-2.482,0.5c-1.783,0-3.433-1.116-3.433-3.133c0-2.482,1.767-4.433,3.949-4.433c1.85,0,3.133,1,3.133,2.816
		c0,0.467-0.084,1-0.267,1.583H40.837z M41.037,50.117h3.266c0.05-0.184,0.066-0.35,0.066-0.5c0-0.716-0.467-1.133-1.35-1.133
		C42.104,48.484,41.387,49.117,41.037,50.117z"/>
	<path fill="#231F20" d="M48.72,48.651h-1.333l0.399-1.533h2.85l-0.467,2.133c0.85-1.55,1.717-2.267,2.583-2.267
		c0.616,0,1.216,0.484,1.216,1.2c0,0.634-0.517,1.149-1.149,1.149c-0.583,0-1.017-0.416-1.1-0.832
		c-0.533,0.166-1.383,1.115-1.75,2.599l-0.833,3.315H47.27L48.72,48.651z"/>
	<path fill="#231F20" d="M54.32,53.633c-0.3-0.299-0.483-0.649-0.483-1.033c0-0.633,0.417-1.032,0.95-1.032
		c0.499,0,0.916,0.417,0.916,0.916c0,0.134-0.05,0.333-0.1,0.4c0.066,0.05,0.149,0.1,0.25,0.149c0.333,0.15,0.766,0.217,1.216,0.217
		c0.684,0,1.316-0.199,1.316-0.684c0-0.549-0.767-0.799-1.583-1.149c-0.949-0.383-1.982-0.899-1.982-2.133
		c0-1.183,0.999-2.3,3.016-2.3c1.033,0,1.916,0.334,2.416,0.851c0.283,0.283,0.434,0.633,0.434,0.999
		c0,0.617-0.434,1.018-0.95,1.018c-0.5,0-0.933-0.434-0.933-0.934c0-0.133,0.017-0.2,0.1-0.4c-0.066-0.033-0.134-0.066-0.233-0.1
		c-0.233-0.084-0.533-0.133-0.816-0.133c-0.6,0-1.217,0.183-1.217,0.666c0,0.517,0.783,0.8,1.616,1.166
		c0.95,0.417,1.95,0.967,1.95,2.117c0,1.466-1.149,2.315-3.149,2.315C55.854,54.55,54.87,54.184,54.32,53.633z"/>
	<path fill="#231F20" d="M60.087,56.35c1.717-0.983,2.233-1.733,2.283-2.033c-0.566-0.267-0.8-0.833-0.8-1.133
		c0-0.767,0.616-1.383,1.366-1.383s1.399,0.583,1.399,1.516c0,1.316-1.616,2.949-3.849,3.799L60.087,56.35z"/>
	<path fill="#231F20" d="M69.319,56.865c-0.35-0.35-0.467-0.649-0.467-1.082c0-0.684,0.483-1.1,1.05-1.1s1.033,0.449,1.033,1.016
		c0,0.134-0.033,0.316-0.083,0.4c0.149,0.1,0.533,0.217,1.017,0.217c0.633,0,1.1-0.167,1.482-0.551c0.35-0.35,0.533-0.899,0.7-1.633
		l0.283-1.216c-0.616,0.783-1.417,1.35-2.399,1.35c-1.684,0-2.55-1.167-2.55-2.85c0-2.315,1.517-4.433,3.816-4.433
		c1.149,0,1.832,0.834,2.133,1.533l0.466-1.399h1.667L75.751,54.6c-0.217,0.95-0.5,1.684-1.033,2.217
		c-0.633,0.633-1.499,0.933-2.749,0.933C70.919,57.749,69.803,57.35,69.319,56.865z M75.051,50.067c0-0.899-0.683-1.466-1.549-1.466
		c-1.217,0-2.217,1.149-2.217,2.648c0,0.9,0.667,1.467,1.533,1.467C74.035,52.717,75.051,51.567,75.051,50.067z"/>
	<path fill="#231F20" d="M78.303,51.717c0-2.516,1.684-4.732,3.799-4.732c0.967,0,1.75,0.801,2.05,1.634l0.5-1.5h1.699l-1.249,4.966
		c-0.084,0.316-0.134,0.6-0.134,0.783c0,0.3,0.117,0.449,0.367,0.449c0.216,0,0.566-0.184,0.933-1.199l0.733,0.283
		c-0.5,1.717-1.434,2.149-2.233,2.149c-0.949,0-1.499-0.649-1.499-1.649c-0.6,0.899-1.483,1.649-2.616,1.649
		C79.286,54.55,78.303,53.417,78.303,51.717z M83.835,50.15c0-0.949-0.467-1.549-1.433-1.549c-1.217,0-2.2,1.366-2.2,2.85
		c0,0.865,0.434,1.549,1.316,1.549C82.735,53,83.835,51.717,83.835,50.15z"/>
	<path fill="#231F20" d="M89.436,48.651h-1.333l0.399-1.533h2.85l-0.467,2.133c0.85-1.55,1.717-2.267,2.583-2.267
		c0.616,0,1.216,0.484,1.216,1.2c0,0.634-0.516,1.149-1.149,1.149c-0.583,0-1.017-0.416-1.1-0.832
		c-0.533,0.166-1.383,1.115-1.75,2.599l-0.833,3.315h-1.866L89.436,48.651z"/>
	<path fill="#231F20" d="M95.053,52.9c0-0.25,0.033-0.517,0.1-0.8l1.933-8.349h-1.366l0.4-1.532h3.166l-2.283,9.864
		c-0.066,0.3-0.116,0.533-0.116,0.717c0,0.366,0.116,0.516,0.383,0.516c0.3,0,0.616-0.184,0.983-1.199l0.733,0.283
		c-0.5,1.717-1.333,2.149-2.283,2.149C95.569,54.55,95.053,53.9,95.053,52.9z"/>
	<path fill="#231F20" d="M100.503,52.917c0-0.25,0.033-0.533,0.1-0.816l0.851-3.449h-1.316l0.399-1.533h3.166l-1.25,4.966
		c-0.083,0.316-0.116,0.583-0.116,0.766c0,0.317,0.149,0.467,0.399,0.467c0.3,0,0.617-0.184,0.983-1.199l0.733,0.283
		c-0.5,1.717-1.333,2.149-2.283,2.149C101.036,54.55,100.503,53.9,100.503,52.917z M101.819,44.985c0-0.633,0.517-1.116,1.133-1.116
		s1.133,0.483,1.133,1.116c0,0.634-0.517,1.116-1.133,1.116S101.819,45.619,101.819,44.985z"/>
	<path fill="#231F20" d="M105.386,51.234c0-2.367,2-4.25,4.349-4.25c1.467,0,2.733,0.884,2.733,2.167
		c0,0.716-0.417,1.315-1.116,1.315c-0.584,0-1.05-0.466-1.05-1.049c0-0.267,0.1-0.5,0.249-0.7c-0.216-0.149-0.533-0.216-0.866-0.216
		c-1.066,0-2.449,0.749-2.449,2.599c0,1.233,0.85,1.933,1.916,1.933c0.85,0,1.717-0.3,2.466-0.816l-0.017,1.617
		c-0.683,0.466-1.583,0.716-2.565,0.716C106.985,54.55,105.386,53.316,105.386,51.234z"/>
	<path fill="#231F20" d="M116.985,51.717c0-2.516,1.683-4.732,3.799-4.732c0.967,0,1.75,0.801,2.05,1.634l0.5-1.5h1.699
		l-1.249,4.966c-0.084,0.316-0.134,0.6-0.134,0.783c0,0.3,0.117,0.449,0.367,0.449c0.216,0,0.566-0.184,0.933-1.199l0.733,0.283
		c-0.5,1.717-1.434,2.149-2.233,2.149c-0.949,0-1.499-0.649-1.499-1.649c-0.6,0.899-1.483,1.649-2.616,1.649
		C117.969,54.55,116.985,53.417,116.985,51.717z M122.518,50.15c0-0.949-0.467-1.549-1.433-1.549c-1.217,0-2.2,1.366-2.2,2.85
		c0,0.865,0.434,1.549,1.316,1.549C121.418,53,122.518,51.717,122.518,50.15z"/>
	<path fill="#231F20" d="M131.418,52.934c0-0.267,0.033-0.55,0.117-0.833l0.55-1.966c0.066-0.217,0.083-0.417,0.083-0.601
		c0-0.633-0.383-1.017-1-1.017c-0.783,0-1.3,0.551-1.566,1.633l-1.066,4.266h-1.866l1.45-5.765h-1.333l0.399-1.533h2.85
		l-0.366,1.683c0.499-0.933,1.499-1.816,2.482-1.816c1.05,0,1.916,0.75,1.916,2.184c0,0.366-0.05,0.766-0.184,1.217l-0.533,1.916
		c-0.05,0.199-0.083,0.366-0.083,0.516c0,0.334,0.134,0.5,0.383,0.5c0.25,0,0.567-0.184,0.934-1.199l0.733,0.283
		c-0.434,1.516-1.217,2.149-2.2,2.149C131.968,54.55,131.418,53.867,131.418,52.934z"/>
	<path fill="#231F20" d="M139.984,46.984c0.983,0,1.717,0.801,2.017,1.566l1.116-4.799h-1.35l0.4-1.532h3.132l-2.299,9.864
		c-0.084,0.35-0.134,0.6-0.134,0.783c0,0.3,0.117,0.449,0.367,0.449c0.216,0,0.566-0.184,0.933-1.199L144.9,52.4
		c-0.5,1.717-1.45,2.149-2.25,2.149c-0.949,0-1.499-0.649-1.499-1.649c-0.6,0.899-1.483,1.649-2.616,1.649
		c-1.366,0-2.35-1.133-2.35-2.833C136.186,49.201,137.869,46.984,139.984,46.984z M141.718,50.15c0-0.949-0.467-1.549-1.433-1.549
		c-1.217,0-2.2,1.366-2.2,2.85c0,0.865,0.434,1.549,1.316,1.549C140.618,53,141.718,51.717,141.718,50.15z"/>
	<path fill="#231F20" d="M147.886,56.183h1.05l1.75-7.531h-1.367l0.4-1.533h2.899l-0.367,1.667c0.601-0.95,1.566-1.801,2.683-1.801
		c1.684,0,2.517,1.167,2.517,2.867c0,2.516-1.683,4.698-3.883,4.698c-1.033,0-1.732-0.733-2.083-1.55l-0.732,3.183h1.3l-0.4,1.5
		h-4.165L147.886,56.183z M155.551,50.102c0-0.867-0.483-1.566-1.4-1.566c-1.266,0-2.365,1.299-2.365,2.865
		c0,0.95,0.482,1.533,1.482,1.533C154.534,52.934,155.551,51.584,155.551,50.102z"/>
	<path fill="#231F20" d="M158.635,51.717c0-2.516,1.684-4.732,3.799-4.732c0.967,0,1.75,0.801,2.05,1.634l0.5-1.5h1.699
		l-1.249,4.966c-0.084,0.316-0.134,0.6-0.134,0.783c0,0.3,0.117,0.449,0.367,0.449c0.216,0,0.566-0.184,0.933-1.199l0.733,0.283
		c-0.5,1.717-1.434,2.149-2.233,2.149c-0.949,0-1.499-0.649-1.499-1.649c-0.6,0.899-1.483,1.649-2.616,1.649
		C159.618,54.55,158.635,53.417,158.635,51.717z M164.167,50.15c0-0.949-0.467-1.549-1.433-1.549c-1.217,0-2.2,1.366-2.2,2.85
		c0,0.865,0.434,1.549,1.316,1.549C163.067,53,164.167,51.717,164.167,50.15z"/>
	<path fill="#231F20" d="M169.769,48.651h-1.333l0.399-1.533h2.85l-0.467,2.133c0.85-1.55,1.717-2.267,2.583-2.267
		c0.616,0,1.216,0.484,1.216,1.2c0,0.634-0.517,1.149-1.149,1.149c-0.583,0-1.017-0.416-1.1-0.832
		c-0.533,0.166-1.383,1.115-1.75,2.599l-0.833,3.315h-1.866L169.769,48.651z"/>
	<path fill="#231F20" d="M175.368,53.633c-0.3-0.299-0.483-0.649-0.483-1.033c0-0.633,0.416-1.032,0.949-1.032
		c0.5,0,0.917,0.417,0.917,0.916c0,0.134-0.05,0.333-0.1,0.4c0.066,0.05,0.149,0.1,0.249,0.149c0.334,0.15,0.767,0.217,1.217,0.217
		c0.684,0,1.316-0.199,1.316-0.684c0-0.549-0.767-0.799-1.583-1.149c-0.95-0.383-1.982-0.899-1.982-2.133
		c0-1.183,0.999-2.3,3.016-2.3c1.033,0,1.916,0.334,2.416,0.851c0.283,0.283,0.434,0.633,0.434,0.999
		c0,0.617-0.434,1.018-0.95,1.018c-0.5,0-0.933-0.434-0.933-0.934c0-0.133,0.017-0.2,0.1-0.4c-0.066-0.033-0.134-0.066-0.233-0.1
		c-0.233-0.084-0.533-0.133-0.816-0.133c-0.6,0-1.217,0.183-1.217,0.666c0,0.517,0.783,0.8,1.617,1.166
		c0.949,0.417,1.949,0.967,1.949,2.117c0,1.466-1.15,2.315-3.149,2.315C176.9,54.55,175.918,54.184,175.368,53.633z"/>
	<path fill="#231F20" d="M182.868,52.9c0-0.25,0.033-0.517,0.1-0.8l1.933-8.349h-1.366l0.4-1.532h3.166l-2.283,9.864
		c-0.066,0.3-0.116,0.533-0.116,0.717c0,0.366,0.116,0.516,0.383,0.516c0.3,0,0.616-0.184,0.983-1.199l0.733,0.283
		c-0.5,1.717-1.333,2.149-2.283,2.149C183.385,54.55,182.868,53.9,182.868,52.9z"/>
	<path fill="#231F20" d="M189.435,51.384V51.5c0,0.816,0.666,1.533,2.05,1.533c0.732,0,1.499-0.166,2.416-0.649l-0.351,1.666
		c-0.767,0.366-1.399,0.5-2.482,0.5c-1.783,0-3.433-1.116-3.433-3.133c0-2.482,1.767-4.433,3.949-4.433c1.85,0,3.133,1,3.133,2.816
		c0,0.467-0.084,1-0.267,1.583H189.435z M189.635,50.117h3.266c0.05-0.184,0.066-0.35,0.066-0.5c0-0.716-0.467-1.133-1.35-1.133
		C190.701,48.484,189.984,49.117,189.635,50.117z"/>
	<path fill="#231F20" d="M193.718,56.549c0-0.633,0.5-1.049,1.05-1.049c0.417,0,0.816,0.266,0.95,0.683
		c0.383-0.05,0.982-0.616,2.333-2.216l-1.101-5.315h-1.232l0.399-1.533h2.383l0.866,5.448c1.017-1.332,1.833-2.449,2.1-3.382
		c-0.399-0.167-0.716-0.533-0.716-1.066c0-0.634,0.5-1.134,1.149-1.134c0.833,0,1.316,0.601,1.316,1.518
		c0,0.799-0.4,2.166-3.133,5.481c-2.815,3.415-3.782,3.766-4.948,3.766C194.251,57.749,193.718,57.166,193.718,56.549z"/>
</g>
</svg>
