<?xml version="1.0" encoding="utf-8"?>
<!-- Generator: Adobe Illustrator 17.0.0, SVG Export Plug-In . SVG Version: 6.00 Build 0)  -->
<!DOCTYPE svg PUBLIC "-//W3C//DTD SVG 1.1//EN" "http://www.w3.org/Graphics/SVG/1.1/DTD/svg11.dtd">
<svg version="1.1" id="Layer_1" xmlns="http://www.w3.org/2000/svg" xmlns:xlink="http://www.w3.org/1999/xlink" x="0px" y="0px"
	 width="369.333px" height="53.562px" viewBox="0 0 369.333 53.562" enable-background="new 0 0 369.333 53.562"
	 xml:space="preserve">
<g>
	<path d="M191.476,24.467c-1.461,0-2.77,1.156-3.314,2.77h5.342c0.109-0.284,0.152-0.611,0.152-0.916
		C193.656,25.317,192.98,24.467,191.476,24.467z"/>
	<path d="M151.785,24.794c-1.047,0-2.094,0.61-2.355,2.181h4.645C154.03,25.666,153.18,24.794,151.785,24.794z"/>
	<path d="M201.901,24.489c-2.027,0-3.467,2.159-3.467,4.404c0,1.526,0.741,2.551,2.181,2.551c2.137,0,3.619-2.355,3.619-4.426
		C204.234,25.514,203.427,24.489,201.901,24.489z"/>
	<path d="M214.092,24.489c-2.006,0-3.424,2.137-3.424,4.383c0,1.526,0.808,2.573,2.246,2.573c2.094,0,3.576-2.268,3.576-4.404
		C216.491,25.514,215.64,24.489,214.092,24.489z"/>
	<path d="M140.509,24.925c-0.895,0-1.613,0.393-2.268,0.959v4.099c0.632,0.436,1.373,0.742,2.268,0.742
		c1.33,0,2.529-1.025,2.529-2.922C143.038,25.971,141.905,24.925,140.509,24.925z"/>
	<path d="M234.046,19.844c-0.414-0.109-0.894-0.152-1.396-0.152h-1.309l-1.438,6.258c0.501,0.043,1.243,0.065,2.027,0.065
		c2.77,0,4.121-1.788,4.121-3.663C236.052,21.131,235.398,20.215,234.046,19.844z"/>
	<path d="M60.908,27.847c0,1.832,1.134,2.878,2.529,2.878c0.894,0,1.613-0.393,2.268-0.959v-4.1
		c-0.632-0.436-1.374-0.741-2.268-0.741C62.107,24.925,60.908,25.95,60.908,27.847z"/>
	<polygon points="35.237,26.015 39.249,26.015 37.243,20.368 	"/>
	<path d="M118.897,24.794c-1.047,0-2.094,0.61-2.355,2.181h4.645C121.142,25.666,120.292,24.794,118.897,24.794z"/>
	<path d="M85.224,24.794c-1.047,0-2.094,0.61-2.355,2.181h4.645C87.469,25.666,86.619,24.794,85.224,24.794z"/>
	<path d="M305.603,24.467c-2.028,0-3.642,1.941-3.642,4.274c0,1.679,1.111,2.704,2.551,2.704c2.05,0,3.642-1.94,3.642-4.252
		C308.154,25.492,307.041,24.467,305.603,24.467z"/>
	<path d="M269.791,24.489c-2.027,0-3.467,2.159-3.467,4.404c0,1.526,0.741,2.551,2.181,2.551c2.137,0,3.619-2.355,3.619-4.426
		C272.124,25.514,271.318,24.489,269.791,24.489z"/>
	<path d="M0.035-0.006v53.555h322.558l46.746-53.555H0.035z M280.456,19.299c0.589,0,1.09,0.501,1.09,1.112
		c0,0.611-0.501,1.112-1.09,1.112c-0.61,0-1.112-0.501-1.112-1.112C279.344,19.801,279.846,19.299,280.456,19.299z M241.659,19.299
		c0.589,0,1.09,0.501,1.09,1.112c0,0.611-0.501,1.112-1.09,1.112c-0.61,0-1.112-0.501-1.112-1.112
		C240.546,19.801,241.048,19.299,241.659,19.299z M160.486,18.449c0.851,0,1.57,0.698,1.57,1.57c0,0.873-0.764,1.57-1.613,1.57
		c-0.851,0-1.57-0.698-1.57-1.57C158.872,19.146,159.635,18.449,160.486,18.449z M93.925,18.449c0.851,0,1.57,0.698,1.57,1.57
		c0,0.873-0.764,1.57-1.613,1.57c-0.851,0-1.57-0.698-1.57-1.57C92.312,19.146,93.075,18.449,93.925,18.449z M44.591,32.6h-5.517
		v-2.181h1.657l-0.807-2.354h-5.364l-0.807,2.354h1.744V32.6h-5.517v-2.202h1.243l3.576-9.965h-1.57v-2.181h8.111v2.181h-1.569
		l3.575,9.965h1.243V32.6z M57.525,32.6h-5.103v-1.962h1.309v-3.99c0-0.393-0.065-0.741-0.196-0.981
		c-0.218-0.414-0.61-0.632-1.178-0.632c-0.828,0-1.7,0.48-2.464,1.112v4.492h1.309V32.6h-5.103v-1.962h1.418v-5.582h-1.418V23.05
		h3.707v1.526c0.916-0.894,1.94-1.701,3.336-1.701c1.134,0,1.963,0.458,2.464,1.221c0.327,0.523,0.502,1.178,0.502,1.962v4.579
		h1.417V32.6z M69.498,32.6h-3.794v-1.047c-0.697,0.676-1.592,1.221-2.813,1.221c-2.529,0-4.427-2.028-4.427-4.906
		c0-2.77,2.006-4.994,4.579-4.994c1.221,0,2.115,0.458,2.66,0.916v-5.146h-1.439v-2.006h3.816v13.999h1.417V32.6z M78.266,25.928
		c-0.72,0-1.199-0.414-1.396-0.85c-0.676,0.24-1.461,0.981-1.897,1.81v3.75h1.657V32.6h-5.451v-1.962h1.418v-5.582h-1.418V23.05
		h3.707v2.159c0.807-1.287,1.81-2.333,3.031-2.333c1.177,0,1.766,0.72,1.766,1.57C79.683,25.252,79.051,25.928,78.266,25.928z
		 M89.781,28.632h-6.89c0.326,1.482,1.548,2.137,3.14,2.137c1.155,0,2.354-0.371,3.467-1.003l-0.196,2.137
		c-1.003,0.589-2.224,0.872-3.619,0.872c-3.118,0-5.277-1.962-5.277-4.928c0-2.704,1.897-4.972,4.841-4.972
		c3.053,0,4.645,2.05,4.645,4.579C89.89,27.825,89.846,28.305,89.781,28.632z M96.739,32.6h-5.255v-1.962h1.46v-5.582h-1.46V23.05
		h3.837v7.588h1.418V32.6z M113.617,22.352h-2.354v-1.919h-4.121v4.099h4.229v2.115h-4.229v3.75h1.896V32.6h-5.996v-2.202h1.636
		v-9.943h-1.636v-2.202h10.575V22.352z M123.453,28.632h-6.89c0.326,1.482,1.548,2.137,3.14,2.137c1.155,0,2.354-0.371,3.467-1.003
		l-0.196,2.137c-1.003,0.589-2.224,0.872-3.619,0.872c-3.118,0-5.277-1.962-5.277-4.928c0-2.704,1.897-4.972,4.841-4.972
		c3.053,0,4.645,2.05,4.645,4.579C123.563,27.825,123.519,28.305,123.453,28.632z M132.548,25.928c-0.72,0-1.199-0.414-1.396-0.85
		c-0.676,0.24-1.461,0.981-1.897,1.81v3.75h1.657V32.6h-5.451v-1.962h1.417v-5.582h-1.417V23.05h3.707v2.159
		c0.807-1.287,1.81-2.333,3.031-2.333c1.177,0,1.766,0.72,1.766,1.57C133.965,25.252,133.333,25.928,132.548,25.928z
		 M140.902,32.774c-1.222,0-2.094-0.436-2.9-1.09l-0.523,0.959h-1.613V18.645h-1.439v-2.006h3.816v7.457
		c0.697-0.676,1.592-1.221,2.813-1.221c2.529,0,4.427,2.028,4.427,4.906C145.481,30.55,143.474,32.774,140.902,32.774z
		 M156.341,28.632h-6.89c0.326,1.482,1.548,2.137,3.14,2.137c1.155,0,2.354-0.371,3.467-1.003l-0.196,2.137
		c-1.003,0.589-2.224,0.872-3.619,0.872c-3.118,0-5.277-1.962-5.277-4.928c0-2.704,1.897-4.972,4.841-4.972
		c3.053,0,4.645,2.05,4.645,4.579C156.451,27.825,156.407,28.305,156.341,28.632z M163.299,32.6h-5.255v-1.962h1.46v-5.582h-1.46
		V23.05h3.837v7.588h1.418V32.6z M184.604,19.692l-2.66,11.469h1.94l-0.349,1.439h-5.32l0.327-1.439h1.766l1.243-5.19h-7.807
		l-1.199,5.19h1.984l-0.327,1.439h-5.342l0.349-1.439h1.723l2.66-11.469h-1.94l0.327-1.439h5.32l-0.327,1.439h-1.767l-1.111,4.84
		h7.784l1.09-4.84h-1.984l0.35-1.439h5.32l-0.327,1.439H184.604z M194.746,28.414h-6.825c-0.021,0.153-0.021,0.305-0.021,0.458
		c0,1.635,1.352,2.595,2.965,2.595c1.047,0,1.876-0.218,3.075-0.851l-0.327,1.483c-0.981,0.479-1.788,0.676-3.053,0.676
		c-2.181,0-4.165-1.396-4.165-3.925c0-3.14,2.377-5.713,5.146-5.713c2.158,0,3.554,1.309,3.554,3.402
		C195.095,27.105,194.986,27.738,194.746,28.414z M205.15,32.753c-1.047,0-1.723-0.698-1.723-1.701v-0.218
		c-0.807,1.09-1.94,1.94-3.314,1.94c-1.94,0-3.292-1.461-3.292-3.772c0-3.162,2.246-5.866,4.928-5.866
		c1.526,0,2.616,0.981,2.9,2.312l0.588-2.203h1.461l-1.679,6.825c-0.087,0.371-0.152,0.72-0.152,0.916
		c0,0.437,0.239,0.676,0.61,0.676c0.414,0,0.807-0.371,1.243-1.461l0.763,0.262C206.982,32.033,206.153,32.753,205.15,32.753z
		 M217.734,31.663c0.436,0,0.828-0.371,1.265-1.461l0.763,0.262c-0.501,1.57-1.352,2.29-2.354,2.29
		c-1.047,0-1.701-0.698-1.701-1.745c0-0.065-0.021-0.131,0-0.196c-0.785,1.09-1.919,1.962-3.314,1.962
		c-1.919,0-3.336-1.461-3.336-3.772c0-3.249,2.268-5.866,4.862-5.866c1.483,0,2.639,0.959,2.944,2.246l1.744-7.436h-1.767
		l0.327-1.308h3.271l-3.14,13.432c-0.108,0.393-0.174,0.72-0.174,0.916C217.123,31.423,217.341,31.663,217.734,31.663z
		 M231.713,27.432c-0.807,0-1.701-0.021-2.137-0.043l-0.895,3.772h1.984l-0.327,1.439h-5.342l0.349-1.439h1.723l2.66-11.469h-1.94
		l0.327-1.439h4.71c0.676,0,1.286,0.065,1.81,0.218c2.05,0.523,3.053,1.984,3.053,3.772
		C237.688,25.034,235.507,27.432,231.713,27.432z M240.459,32.753c-1.134,0-1.832-0.698-1.832-1.745
		c0-0.262,0.088-0.676,0.175-1.003l1.461-5.364h-1.81l0.349-1.33h3.336l-1.831,6.76c-0.088,0.349-0.153,0.72-0.153,0.916
		c0,0.437,0.262,0.676,0.633,0.676c0.458,0,0.851-0.371,1.265-1.461l0.763,0.262C242.313,32.033,241.528,32.753,240.459,32.753z
		 M247.613,31.052c0.98,0,1.875,0.415,2.703,0.415c0.938,0,1.222-0.458,1.701-1.832l0.741,0.174
		c-0.414,1.766-0.872,2.965-2.529,2.965c-1.068,0-2.442-0.588-3.576-0.588c-1.003,0-1.635,0.218-2.312,0.567l-0.566-0.763
		l7.675-7.436h-4.426l-0.437,1.788h-1.352l0.741-3.031h7.239l0.437,0.807l-7.414,7.174
		C246.697,31.117,247.089,31.052,247.613,31.052z M257.797,31.052c0.98,0,1.875,0.415,2.703,0.415c0.938,0,1.222-0.458,1.701-1.832
		l0.741,0.174c-0.414,1.766-0.872,2.965-2.529,2.965c-1.068,0-2.442-0.588-3.576-0.588c-1.003,0-1.635,0.218-2.311,0.567
		l-0.567-0.763l7.675-7.436h-4.426l-0.437,1.788h-1.352l0.741-3.031h7.239l0.437,0.807l-7.414,7.174
		C256.881,31.117,257.274,31.052,257.797,31.052z M273.04,32.753c-1.047,0-1.723-0.698-1.723-1.701v-0.218
		c-0.807,1.09-1.94,1.94-3.314,1.94c-1.94,0-3.292-1.461-3.292-3.772c0-3.162,2.246-5.866,4.928-5.866
		c1.526,0,2.616,0.981,2.9,2.312l0.588-2.203h1.461l-1.679,6.825c-0.087,0.371-0.152,0.72-0.152,0.916
		c0,0.437,0.239,0.676,0.61,0.676c0.414,0,0.807-0.371,1.243-1.461l0.763,0.262C274.872,32.033,274.043,32.753,273.04,32.753z
		 M279.257,32.753c-1.134,0-1.832-0.698-1.832-1.745c0-0.262,0.088-0.676,0.175-1.003l1.461-5.364h-1.81l0.349-1.33h3.336
		l-1.831,6.76c-0.088,0.349-0.153,0.72-0.153,0.916c0,0.437,0.262,0.676,0.633,0.676c0.458,0,0.851-0.371,1.265-1.461l0.763,0.262
		C281.111,32.033,280.326,32.753,279.257,32.753z M287.369,32.774c-2.551,0-4.034-1.854-4.034-4.056
		c0-2.878,2.246-5.582,5.256-5.582c2.551,0,4.033,1.875,4.033,4.056C292.624,30.093,290.378,32.774,287.369,32.774z M296.791,31.663
		c0.458,0,0.851-0.371,1.287-1.461l0.763,0.262c-0.501,1.57-1.309,2.29-2.377,2.29c-1.111,0-1.81-0.698-1.81-1.745
		c0-0.262,0.065-0.61,0.152-0.959l2.813-12.102h-1.745l0.327-1.308h3.249l-3.118,13.41c-0.065,0.349-0.152,0.72-0.152,0.916
		C296.181,31.423,296.421,31.663,296.791,31.663z M304.447,32.774c-2.551,0-4.034-1.854-4.034-4.056
		c0-2.878,2.246-5.582,5.256-5.582c2.551,0,4.033,1.875,4.033,4.056C309.702,30.093,307.455,32.774,304.447,32.774z"/>
	<path d="M288.526,24.467c-2.028,0-3.642,1.941-3.642,4.274c0,1.679,1.111,2.704,2.551,2.704c2.05,0,3.642-1.94,3.642-4.252
		C291.077,25.492,289.964,24.467,288.526,24.467z"/>
</g>
</svg>
