<?xml version="1.0" encoding="utf-8"?>
<!-- Generator: Adobe Illustrator 17.0.0, SVG Export Plug-In . SVG Version: 6.00 Build 0)  -->
<!DOCTYPE svg PUBLIC "-//W3C//DTD SVG 1.1//EN" "http://www.w3.org/Graphics/SVG/1.1/DTD/svg11.dtd">
<svg version="1.1" id="Layer_1" xmlns="http://www.w3.org/2000/svg" xmlns:xlink="http://www.w3.org/1999/xlink" x="0px" y="0px"
	 width="369.625px" height="53.562px" viewBox="0 0 369.625 53.562" enable-background="new 0 0 369.625 53.562"
	 xml:space="preserve">
<g>
	<path d="M92.997,25.539c-1.549,0-2.639,1.221-2.639,2.965c0,1.745,1.09,2.966,2.639,2.966c1.548,0,2.638-1.221,2.638-2.966
		C95.635,26.761,94.545,25.539,92.997,25.539z"/>
	<path d="M38.845,22.988c0-1.221-1.003-1.897-2.747-1.897h-1.613v3.925h1.679C37.886,25.016,38.845,24.231,38.845,22.988z"/>
	<path d="M165.905,25.474c-1.047,0-2.094,0.61-2.355,2.181h4.645C168.15,26.346,167.3,25.474,165.905,25.474z"/>
	<path d="M134.151,30.555c0,0.763,0.567,1.177,1.418,1.177c0.85,0,1.679-0.327,2.398-0.85v-1.504
		c-0.546-0.131-1.222-0.218-1.963-0.218C134.849,29.159,134.151,29.682,134.151,30.555z"/>
	<path d="M36.36,26.978h-1.875v4.143h1.94c1.7,0,2.834-0.698,2.834-2.071C39.259,27.72,38.213,26.978,36.36,26.978z"/>
	<path d="M204.114,25.147c-2.028,0-3.642,1.941-3.642,4.274c0,1.679,1.111,2.704,2.551,2.704c2.05,0,3.642-1.94,3.642-4.252
		C206.664,26.172,205.552,25.147,204.114,25.147z"/>
	<path d="M78.669,28.527c0,1.832,1.134,2.878,2.529,2.878c0.894,0,1.613-0.393,2.268-0.959v-4.1
		c-0.632-0.436-1.374-0.741-2.268-0.741C79.868,25.605,78.669,26.63,78.669,28.527z"/>
	<path d="M54.963,30.555c0,0.763,0.567,1.177,1.418,1.177c0.85,0,1.679-0.327,2.398-0.85v-1.504
		c-0.546-0.131-1.222-0.218-1.963-0.218C55.661,29.159,54.963,29.682,54.963,30.555z"/>
	<path d="M0,0.008v53.555h322.881l46.746-53.555H0z M36.381,33.28h-5.975v-2.202h1.636v-9.943h-1.636v-2.202h5.734
		c3.511,0,5.233,1.614,5.233,3.772c0,1.657-1.024,2.726-2.442,3.205c1.788,0.523,2.856,1.57,2.856,3.358
		C41.788,31.645,39.87,33.28,36.381,33.28z M50.361,26.608c-0.72,0-1.199-0.414-1.396-0.85c-0.676,0.24-1.461,0.981-1.897,1.81v3.75
		h1.657v1.962h-5.451v-1.962h1.418v-5.582h-1.418V23.73h3.707v2.159c0.807-1.287,1.81-2.333,3.031-2.333
		c1.177,0,1.766,0.72,1.766,1.57C51.778,25.932,51.146,26.608,50.361,26.608z M62.508,33.28h-3.686v-1.047
		c-0.763,0.654-1.919,1.221-3.205,1.221c-1.636,0-3.097-0.894-3.097-2.682c0-1.788,1.57-2.878,3.838-2.878
		c0.981,0,1.897,0.131,2.421,0.262v-0.763c0-0.567-0.131-1.003-0.371-1.309c-0.393-0.501-1.024-0.698-1.875-0.698
		c-0.414,0-0.72,0.065-0.938,0.153c0.043,0.131,0.087,0.349,0.087,0.479c0,0.72-0.566,1.243-1.286,1.243s-1.265-0.501-1.265-1.287
		c0-1.177,1.199-2.42,3.794-2.42c1.635,0,2.747,0.458,3.423,1.287c0.502,0.61,0.741,1.439,0.741,2.398v4.078h1.418V33.28z
		 M75.287,33.28h-5.103v-1.962h1.309v-3.99c0-0.393-0.065-0.741-0.196-0.981c-0.218-0.414-0.61-0.632-1.178-0.632
		c-0.828,0-1.7,0.48-2.464,1.112v4.492h1.309v1.962h-5.103v-1.962h1.418v-5.582h-1.418V23.73h3.707v1.526
		c0.916-0.894,1.94-1.701,3.336-1.701c1.134,0,1.963,0.458,2.464,1.221c0.327,0.523,0.502,1.178,0.502,1.962v4.579h1.417V33.28z
		 M87.26,33.28h-3.794v-1.047c-0.697,0.676-1.592,1.221-2.812,1.221c-2.529,0-4.427-2.028-4.427-4.906
		c0-2.77,2.006-4.994,4.579-4.994c1.221,0,2.115,0.458,2.66,0.916v-5.146h-1.439v-2.006h3.816v13.999h1.417V33.28z M92.997,33.454
		c-3.162,0-5.081-2.29-5.081-4.95c0-2.616,1.963-4.95,5.081-4.95c3.161,0,5.08,2.29,5.08,4.95
		C98.077,31.121,96.116,33.454,92.997,33.454z M110.923,33.28h-5.103v-1.962h1.309v-3.99c0-0.393-0.065-0.741-0.196-0.981
		c-0.218-0.414-0.61-0.632-1.178-0.632c-0.828,0-1.7,0.48-2.464,1.112v4.492h1.309v1.962h-5.103v-1.962h1.417v-5.582h-1.417V23.73
		h3.707v1.526c0.916-0.894,1.94-1.701,3.336-1.701c1.134,0,1.963,0.458,2.464,1.221c0.327,0.523,0.502,1.178,0.502,1.962v4.579
		h1.417V33.28z M124.663,33.542c-4.426,0-7.588-2.965-7.588-7.436c0-4.317,3.358-7.436,7.545-7.436c3.336,0,5.56,1.745,5.56,3.467
		c0,1.046-0.676,1.766-1.569,1.766c-0.981,0-1.657-0.611-1.657-1.548c0-0.283,0.065-0.567,0.152-0.741
		c-0.414-0.327-1.243-0.654-2.551-0.654c-2.791,0-4.929,2.137-4.929,5.124c0,2.878,2.007,5.168,5.037,5.168
		c1.68,0,3.053-0.741,4.121-1.897l1.636,1.701C129.025,32.604,126.953,33.542,124.663,33.542z M141.696,33.28h-3.686v-1.047
		c-0.763,0.654-1.919,1.221-3.205,1.221c-1.636,0-3.097-0.894-3.097-2.682c0-1.788,1.57-2.878,3.838-2.878
		c0.981,0,1.897,0.131,2.421,0.262v-0.763c0-0.567-0.131-1.003-0.371-1.309c-0.393-0.501-1.024-0.698-1.875-0.698
		c-0.414,0-0.72,0.065-0.938,0.153c0.043,0.131,0.087,0.349,0.087,0.479c0,0.72-0.566,1.243-1.286,1.243s-1.265-0.501-1.265-1.287
		c0-1.177,1.199-2.42,3.794-2.42c1.635,0,2.747,0.458,3.423,1.287c0.502,0.61,0.741,1.439,0.741,2.398v4.078h1.418V33.28z
		 M150.354,26.608c-0.72,0-1.199-0.414-1.396-0.85c-0.676,0.24-1.461,0.981-1.897,1.81v3.75h1.657v1.962h-5.451v-1.962h1.417v-5.582
		h-1.417V23.73h3.707v2.159c0.807-1.287,1.81-2.333,3.031-2.333c1.177,0,1.766,0.72,1.766,1.57
		C151.771,25.932,151.139,26.608,150.354,26.608z M159.754,32.888c-0.654,0.327-1.417,0.567-2.29,0.567
		c-1.155,0-2.093-0.393-2.572-1.308c-0.219-0.393-0.327-0.894-0.327-1.504v-4.906h-1.854V23.73h1.854v-2.006l2.354-1.025v3.031h2.9
		v2.006h-2.9v4.448c0,0.305,0.044,0.501,0.153,0.698c0.174,0.305,0.522,0.458,1.003,0.458c0.61,0,1.308-0.24,1.875-0.502
		L159.754,32.888z M170.461,29.312h-6.89c0.326,1.482,1.548,2.137,3.14,2.137c1.155,0,2.354-0.371,3.467-1.003l-0.196,2.137
		c-1.003,0.589-2.224,0.872-3.619,0.872c-3.118,0-5.277-1.962-5.277-4.928c0-2.704,1.897-4.972,4.841-4.972
		c3.053,0,4.645,2.05,4.645,4.579C170.571,28.505,170.527,28.985,170.461,29.312z M179.448,26.608c-0.72,0-1.199-0.414-1.396-0.85
		c-0.676,0.24-1.461,0.981-1.897,1.81v3.75h1.657v1.962h-5.451v-1.962h1.417v-5.582h-1.417V23.73h3.707v2.159
		c0.807-1.287,1.81-2.333,3.031-2.333c1.177,0,1.766,0.72,1.766,1.57C180.865,25.932,180.233,26.608,179.448,26.608z
		 M197.112,23.076c-0.653,0-1.111-0.501-1.111-1.112c0-0.327,0.174-0.698,0.545-0.959c-0.349-0.415-1.265-0.894-2.595-0.894
		c-1.767,0-2.922,1.046-2.922,2.354c0,1.287,1.024,1.984,2.66,2.944c1.635,0.981,3.184,2.071,3.184,4.078
		c0,2.311-2.028,4.034-4.841,4.034c-2.878,0-4.972-1.744-4.972-3.271c0-0.894,0.567-1.504,1.309-1.504
		c0.654,0,1.112,0.545,1.112,1.068c0,0.458-0.219,0.829-0.611,1.09c0.458,0.611,1.57,1.2,3.271,1.2c1.657,0,3.053-1.003,3.053-2.508
		c0-1.243-1.047-1.984-2.465-2.813c-1.787-1.046-3.379-2.137-3.379-4.208c0-2.05,1.875-3.881,4.644-3.881
		c2.465,0,4.383,1.439,4.383,2.9C198.376,22.509,197.788,23.076,197.112,23.076z M202.957,33.454c-2.551,0-4.034-1.854-4.034-4.056
		c0-2.878,2.246-5.582,5.256-5.582c2.551,0,4.033,1.875,4.033,4.056C208.212,30.773,205.966,33.454,202.957,33.454z M217.787,33.433
		c-1.025,0-1.701-0.676-1.701-1.767c0-0.13,0.022-0.261,0.044-0.436c-0.785,1.265-1.919,2.203-3.228,2.203
		c-1.396,0-2.464-0.916-2.464-2.355c0-0.48,0.088-0.959,0.196-1.396l1.134-4.361h-1.744l0.349-1.33h3.271l-1.505,5.822
		c-0.087,0.305-0.131,0.654-0.131,1.003c0,0.785,0.545,1.33,1.417,1.33c1.287,0,2.683-1.221,3.228-3.401l1.178-4.754h1.526
		l-1.68,6.76c-0.108,0.371-0.174,0.72-0.174,0.916c0,0.437,0.262,0.676,0.632,0.676c0.414,0,0.807-0.371,1.243-1.461l0.763,0.262
		C219.641,32.713,218.812,33.433,217.787,33.433z M228.343,27.131c-0.523,0-0.959-0.393-0.959-0.916
		c0-0.218,0.087-0.436,0.239-0.698c-0.065-0.043-0.108-0.087-0.327-0.196c-0.326-0.152-0.85-0.261-1.396-0.261
		c-1.09,0-1.81,0.501-1.81,1.221c0,0.742,0.895,1.156,1.984,1.679c1.309,0.61,2.529,1.308,2.529,2.726
		c0,1.788-1.526,2.748-3.467,2.748c-1.352,0-2.595-0.501-3.293-1.2c-0.349-0.349-0.545-0.741-0.545-1.155
		c0-0.632,0.437-1.134,1.025-1.134c0.588,0,0.938,0.436,0.938,0.916c0,0.262-0.109,0.48-0.284,0.698
		c0.088,0.087,0.175,0.153,0.371,0.262c0.437,0.24,1.112,0.414,1.854,0.414c1.024,0,1.875-0.458,1.875-1.286
		c0-0.851-0.916-1.287-1.919-1.766c-1.352-0.632-2.572-1.243-2.572-2.639c0-1.482,1.242-2.66,3.357-2.66
		c1.221,0,2.268,0.393,2.856,1.003c0.349,0.349,0.523,0.72,0.523,1.134C229.325,26.695,228.867,27.131,228.343,27.131z
		 M248.034,23.773c-0.697,0-1.155-0.48-1.155-1.09c0-0.414,0.262-0.807,0.633-1.025c-0.24-0.676-1.396-1.526-3.38-1.526
		c-3.707,0-6.367,3.533-6.367,6.934c0,3.14,1.854,4.993,4.622,4.993c1.701,0,3.184-0.719,4.492-2.006l0.959,1.003
		c-1.613,1.657-3.488,2.486-5.604,2.486c-3.357,0-6.148-2.29-6.148-6.323c0-4.579,3.685-8.548,8.111-8.548
		c3.357,0,5.146,2.093,5.146,3.511C249.343,23.141,248.733,23.773,248.034,23.773z M257.828,33.433c-1.134,0-1.854-0.72-1.854-1.723
		c0-0.284,0.065-0.676,0.153-1.025l0.828-3.053c0.109-0.414,0.152-0.741,0.152-1.09c-0.021-0.829-0.653-1.396-1.548-1.396
		c-1.265,0-2.682,1.178-3.205,3.402l-1.091,4.731h-1.525l3.401-14.653h-1.767l0.327-1.308h3.249l-2.006,8.591
		c0.697-1.068,1.788-2.071,3.096-2.071c1.483,0,2.617,1.025,2.639,2.529c0,0.458-0.087,0.959-0.24,1.461l-0.807,3.009
		c-0.087,0.306-0.131,0.633-0.131,0.807c0,0.436,0.262,0.698,0.633,0.698c0.436,0,0.807-0.371,1.221-1.461l0.764,0.262
		C259.66,32.648,258.919,33.433,257.828,33.433z M269.824,29.094h-6.825c-0.021,0.153-0.021,0.305-0.021,0.458
		c0,1.635,1.352,2.595,2.965,2.595c1.047,0,1.876-0.218,3.075-0.851l-0.327,1.483c-0.981,0.479-1.788,0.676-3.053,0.676
		c-2.181,0-4.165-1.396-4.165-3.925c0-3.14,2.377-5.713,5.146-5.713c2.158,0,3.554,1.309,3.554,3.402
		C270.172,27.786,270.063,28.418,269.824,29.094z M279.375,19.565c-0.589,0-1.024-0.414-1.068-1.025
		c-0.327,0.065-0.676,0.24-0.916,0.48c-0.436,0.436-0.763,1.156-1.003,2.137l-0.653,2.834h2.42l-0.327,1.33h-2.398l-1.832,7.959
		h-1.504l1.831-7.959h-1.657l0.327-1.33h1.636l0.697-3.031c0.306-1.352,0.764-2.137,1.396-2.791
		c0.589-0.588,1.461-0.959,2.398-0.959c1.091,0,1.701,0.567,1.701,1.287C280.422,19.129,279.921,19.565,279.375,19.565z"/>
	<path d="M266.553,25.147c-1.461,0-2.77,1.156-3.314,2.77h5.342c0.109-0.284,0.152-0.611,0.152-0.916
		C268.733,25.997,268.057,25.147,266.553,25.147z"/>
</g>
</svg>
