<?xml version="1.0" encoding="utf-8"?>
<!-- Generator: Adobe Illustrator 17.0.0, SVG Export Plug-In . SVG Version: 6.00 Build 0)  -->
<!DOCTYPE svg PUBLIC "-//W3C//DTD SVG 1.1//EN" "http://www.w3.org/Graphics/SVG/1.1/DTD/svg11.dtd">
<svg version="1.1" id="Layer_1" xmlns="http://www.w3.org/2000/svg" xmlns:xlink="http://www.w3.org/1999/xlink" x="0px" y="0px"
	 width="293.5px" height="59.625px" viewBox="0 0 293.5 59.625" enable-background="new 0 0 293.5 59.625" xml:space="preserve">
<g>
	<path fill="#231F20" d="M2.965,10.905c0-0.883,0.55-1.466,1.267-1.466c0.633,0,1.133,0.517,1.133,1.149
		c0,0.284-0.1,0.6-0.366,0.833c0.366,0.367,1.133,0.6,2.065,0.6c1.15,0,1.95-0.45,1.95-1.383c0-0.75-0.601-1.2-1.866-1.883
		c-1.283-0.683-2.633-1.65-2.633-3.399c0-1.583,1.433-3.066,3.949-3.066c2.266,0,3.665,1.333,3.665,2.466
		c0,0.816-0.466,1.483-1.249,1.483c-0.634,0-1.134-0.5-1.134-1.133c0-0.267,0.084-0.55,0.301-0.783c-0.15-0.2-0.75-0.4-1.55-0.4
		C7.214,3.923,6.53,4.54,6.53,5.19c0,0.866,0.816,1.433,1.934,2.033c1.333,0.717,2.565,1.683,2.565,3.25
		c0,1.75-1.433,3.183-4.065,3.183C4.765,13.655,2.965,12.388,2.965,10.905z"/>
	<path fill="#231F20" d="M12.398,10.755c0-2.516,1.684-4.732,3.799-4.732c0.967,0,1.75,0.8,2.05,1.633l0.5-1.5h1.699l-1.249,4.965
		c-0.084,0.317-0.134,0.6-0.134,0.783c0,0.3,0.117,0.45,0.367,0.45c0.216,0,0.566-0.184,0.933-1.2l0.733,0.283
		c-0.5,1.716-1.434,2.149-2.233,2.149c-0.949,0-1.499-0.649-1.499-1.649c-0.6,0.899-1.483,1.649-2.616,1.649
		C13.382,13.587,12.398,12.455,12.398,10.755z M17.931,9.189c0-0.95-0.467-1.55-1.433-1.55c-1.217,0-2.2,1.367-2.2,2.85
		c0,0.866,0.434,1.549,1.316,1.549C16.831,12.038,17.931,10.755,17.931,9.189z"/>
	<path fill="#231F20" d="M22.215,11.938c0-0.25,0.033-0.517,0.1-0.8l1.933-8.348h-1.366l0.4-1.533h3.166l-2.283,9.864
		c-0.066,0.3-0.116,0.533-0.116,0.717c0,0.367,0.116,0.517,0.383,0.517c0.3,0,0.616-0.184,0.983-1.2l0.733,0.283
		c-0.5,1.716-1.333,2.149-2.283,2.149C22.731,13.587,22.215,12.938,22.215,11.938z"/>
	<path fill="#231F20" d="M28.665,7.689h-1.333l0.399-1.533h2.85l-0.366,1.683c0.499-0.933,1.399-1.816,2.332-1.816
		c1.033,0,1.717,0.75,1.833,1.816c0.634-1.116,1.533-1.816,2.366-1.816c1.017,0,1.866,0.75,1.866,2.183
		c0,0.366-0.05,0.766-0.184,1.216l-0.533,1.916c-0.05,0.2-0.083,0.367-0.083,0.517c0,0.333,0.134,0.5,0.383,0.5
		c0.25,0,0.567-0.184,0.934-1.2l0.733,0.283c-0.434,1.516-1.217,2.149-2.2,2.149c-1.149,0-1.699-0.683-1.699-1.616
		c0-0.267,0.033-0.55,0.117-0.833l0.516-1.85c0.084-0.267,0.117-0.517,0.117-0.717c0-0.667-0.434-1.016-0.916-1.016
		c-0.717,0-1.233,0.583-1.517,1.766l-1.033,4.132h-1.866l1.05-4.132c0.066-0.283,0.116-0.6,0.116-0.8
		c0-0.55-0.399-0.966-0.916-0.966c-0.717,0-1.233,0.583-1.517,1.766l-1.033,4.132h-1.866L28.665,7.689z"/>
	<path fill="#231F20" d="M40.715,10.272c0-2.183,1.717-4.249,4.133-4.249c2.199,0,3.432,1.55,3.432,3.316
		c0,2.183-1.716,4.249-4.132,4.249C41.948,13.587,40.715,12.038,40.715,10.272z M46.431,9.339c0-1.183-0.75-1.799-1.65-1.799
		c-1.216,0-2.216,1.166-2.216,2.732c0,1.183,0.75,1.8,1.649,1.8C45.431,12.072,46.431,10.905,46.431,9.339z"/>
	<path fill="#231F20" d="M54.213,11.972c0-0.267,0.033-0.55,0.117-0.833l0.55-1.966c0.066-0.217,0.083-0.417,0.083-0.6
		c0-0.633-0.383-1.016-1-1.016c-0.783,0-1.3,0.55-1.566,1.633l-1.066,4.266h-1.866l1.45-5.765h-1.333l0.399-1.533h2.85l-0.366,1.683
		c0.499-0.933,1.499-1.816,2.482-1.816c1.05,0,1.916,0.75,1.916,2.183c0,0.366-0.05,0.766-0.184,1.216l-0.533,1.916
		c-0.05,0.2-0.083,0.367-0.083,0.517c0,0.333,0.134,0.5,0.383,0.5c0.25,0,0.567-0.184,0.934-1.2l0.733,0.283
		c-0.434,1.516-1.217,2.149-2.2,2.149C54.763,13.587,54.213,12.905,54.213,11.972z"/>
	<path fill="#231F20" d="M62.581,12.671c-0.3-0.3-0.483-0.65-0.483-1.033c0-0.633,0.416-1.033,0.949-1.033
		c0.5,0,0.917,0.417,0.917,0.917c0,0.133-0.05,0.333-0.1,0.399c0.066,0.05,0.149,0.1,0.249,0.15c0.334,0.15,0.767,0.216,1.217,0.216
		c0.684,0,1.316-0.2,1.316-0.683c0-0.55-0.767-0.8-1.583-1.149c-0.95-0.383-1.982-0.9-1.982-2.133c0-1.183,0.999-2.3,3.016-2.3
		c1.033,0,1.916,0.333,2.416,0.85c0.283,0.283,0.434,0.633,0.434,1c0,0.617-0.434,1.017-0.95,1.017c-0.5,0-0.933-0.434-0.933-0.933
		c0-0.133,0.017-0.2,0.1-0.4c-0.066-0.033-0.134-0.067-0.233-0.1c-0.233-0.083-0.533-0.133-0.816-0.133
		c-0.6,0-1.217,0.183-1.217,0.667c0,0.517,0.783,0.8,1.617,1.167c0.949,0.417,1.949,0.966,1.949,2.116
		c0,1.466-1.15,2.315-3.149,2.315C64.113,13.587,63.131,13.221,62.581,12.671z"/>
	<path fill="#231F20" d="M69.897,10.272c0-2.183,1.717-4.249,4.133-4.249c2.199,0,3.433,1.55,3.433,3.316
		c0,2.183-1.717,4.249-4.133,4.249C71.131,13.587,69.897,12.038,69.897,10.272z M75.613,9.339c0-1.183-0.75-1.799-1.65-1.799
		c-1.216,0-2.216,1.166-2.216,2.732c0,1.183,0.75,1.8,1.649,1.8C74.613,12.072,75.613,10.905,75.613,9.339z"/>
	<path fill="#231F20" d="M82.146,6.156l-1.05,4.216c-0.05,0.233-0.1,0.45-0.1,0.65c0,0.667,0.333,1.033,0.899,1.033
		c0.883,0,1.35-0.567,1.616-1.633l1.066-4.266h1.866l-1.25,4.965c-0.083,0.317-0.133,0.6-0.133,0.783c0,0.3,0.116,0.45,0.366,0.45
		c0.217,0,0.567-0.184,0.934-1.2l0.733,0.283c-0.5,1.716-1.434,2.149-2.233,2.149c-0.933,0-1.499-0.633-1.516-1.616
		c-0.601,0.983-1.5,1.616-2.434,1.616c-0.949,0-1.815-0.75-1.815-2.016c0-0.383,0.066-0.867,0.183-1.366l0.617-2.516h-1.316
		l0.399-1.533H82.146z"/>
	<path fill="#231F20" d="M88.164,12.671c-0.3-0.3-0.483-0.65-0.483-1.033c0-0.633,0.417-1.033,0.95-1.033
		c0.499,0,0.916,0.417,0.916,0.917c0,0.133-0.05,0.333-0.1,0.399c0.066,0.05,0.149,0.1,0.25,0.15
		c0.333,0.15,0.766,0.216,1.216,0.216c0.684,0,1.316-0.2,1.316-0.683c0-0.55-0.767-0.8-1.583-1.149
		c-0.949-0.383-1.982-0.9-1.982-2.133c0-1.183,0.999-2.3,3.016-2.3c1.033,0,1.916,0.333,2.416,0.85c0.283,0.283,0.434,0.633,0.434,1
		c0,0.617-0.434,1.017-0.95,1.017c-0.5,0-0.933-0.434-0.933-0.933c0-0.133,0.017-0.2,0.1-0.4c-0.066-0.033-0.134-0.067-0.233-0.1
		c-0.233-0.083-0.533-0.133-0.816-0.133c-0.6,0-1.217,0.183-1.217,0.667c0,0.517,0.783,0.8,1.616,1.167
		c0.95,0.417,1.95,0.966,1.95,2.116c0,1.466-1.149,2.315-3.149,2.315C89.697,13.587,88.714,13.221,88.164,12.671z"/>
	<path fill="#231F20" d="M99.946,7.689h-1.217l0.4-1.533h2.366l0.8,5.465c1.216-1.283,1.999-2.383,2.249-3.399
		c-0.383-0.167-0.717-0.533-0.717-1.066c0-0.633,0.5-1.133,1.15-1.133c0.75,0,1.3,0.583,1.3,1.483c0,1.716-1.35,3.683-3.833,6.082
		h-1.366L99.946,7.689z"/>
	<path fill="#231F20" d="M107.779,11.955c0-0.25,0.033-0.533,0.1-0.816l0.851-3.449h-1.316l0.399-1.533h3.166l-1.25,4.965
		c-0.083,0.317-0.116,0.583-0.116,0.767c0,0.317,0.149,0.467,0.399,0.467c0.301,0,0.617-0.184,0.983-1.2l0.733,0.283
		c-0.5,1.716-1.333,2.149-2.283,2.149C108.312,13.587,107.779,12.938,107.779,11.955z M109.096,4.023
		c0-0.633,0.517-1.116,1.133-1.116c0.617,0,1.133,0.483,1.133,1.116s-0.516,1.117-1.133,1.117
		C109.612,5.14,109.096,4.657,109.096,4.023z"/>
	<path fill="#231F20" d="M116.479,6.023c0.983,0,1.717,0.8,2.017,1.566l1.116-4.799h-1.35l0.4-1.533h3.132l-2.299,9.864
		c-0.084,0.35-0.134,0.6-0.134,0.783c0,0.3,0.117,0.45,0.367,0.45c0.216,0,0.566-0.184,0.933-1.2l0.733,0.283
		c-0.5,1.716-1.45,2.149-2.25,2.149c-0.949,0-1.499-0.649-1.499-1.649c-0.6,0.899-1.483,1.649-2.616,1.649
		c-1.366,0-2.35-1.133-2.35-2.832C112.68,8.239,114.363,6.023,116.479,6.023z M118.212,9.189c0-0.95-0.467-1.55-1.433-1.55
		c-1.217,0-2.2,1.367-2.2,2.85c0,0.866,0.434,1.549,1.316,1.549C117.112,12.038,118.212,10.755,118.212,9.189z"/>
	<path fill="#231F20" d="M123.913,10.422v0.117c0,0.816,0.666,1.533,2.05,1.533c0.732,0,1.499-0.167,2.416-0.65l-0.351,1.666
		c-0.767,0.367-1.399,0.5-2.482,0.5c-1.783,0-3.433-1.116-3.433-3.132c0-2.483,1.767-4.433,3.949-4.433c1.85,0,3.133,1,3.133,2.816
		c0,0.467-0.084,1-0.267,1.583H123.913z M124.113,9.156h3.266c0.05-0.184,0.066-0.35,0.066-0.5c0-0.716-0.467-1.133-1.35-1.133
		C125.18,7.523,124.463,8.156,124.113,9.156z"/>
	<path fill="#231F20" d="M134.829,7.689h-1.333l0.4-1.533h2.532l0.25,5.299l2.316-4.549h1.216l0.867,4.616
		c0.883-1.35,1.616-2.6,1.732-3.383c-0.383-0.117-0.75-0.483-0.75-1.033c0-0.6,0.483-1.083,1.083-1.083
		c0.783,0,1.316,0.566,1.316,1.5c0,1.083-0.933,2.982-3.183,6.064h-1.232l-0.867-4.015l-2.282,4.015h-1.399L134.829,7.689z"/>
	<path fill="#231F20" d="M146.046,11.955c0-0.25,0.033-0.533,0.1-0.816l0.851-3.449h-1.316l0.399-1.533h3.166l-1.25,4.965
		c-0.083,0.317-0.116,0.583-0.116,0.767c0,0.317,0.149,0.467,0.399,0.467c0.3,0,0.617-0.184,0.983-1.2l0.733,0.283
		c-0.5,1.716-1.333,2.149-2.283,2.149C146.579,13.587,146.046,12.938,146.046,11.955z M147.362,4.023
		c0-0.633,0.517-1.116,1.133-1.116s1.133,0.483,1.133,1.116s-0.517,1.117-1.133,1.117S147.362,4.657,147.362,4.023z"/>
	<path fill="#231F20" d="M154.245,7.689l-0.783,3.166c-0.067,0.267-0.117,0.533-0.117,0.667c0,0.5,0.25,0.666,0.533,0.666
		c0.384,0,0.667-0.1,1.399-0.583l0.601,0.833c-1,0.95-1.917,1.149-2.633,1.149c-0.967,0-1.783-0.516-1.783-1.749
		c0-0.283,0.066-0.617,0.15-0.983l0.783-3.166h-1.35l0.35-1.533h1.366l0.4-1.583l2.049-0.733l-0.583,2.316h2.216l-0.383,1.533
		H154.245z"/>
	<path fill="#231F20" d="M159.229,2.791h-1.366l0.399-1.533h3.116l-1.433,6.232c0.5-0.766,1.35-1.466,2.232-1.466
		c1.05,0,1.949,0.75,1.949,2.183c0,0.366-0.05,0.766-0.183,1.216l-0.533,1.916c-0.05,0.2-0.083,0.367-0.083,0.517
		c0,0.333,0.133,0.5,0.383,0.5s0.566-0.184,0.933-1.2l0.733,0.283c-0.433,1.516-1.216,2.149-2.199,2.149
		c-1.149,0-1.699-0.683-1.699-1.616c0-0.267,0.033-0.55,0.116-0.833l0.55-1.966c0.066-0.217,0.083-0.417,0.083-0.6
		c0-0.633-0.383-1.016-0.999-1.016c-0.783,0-1.333,0.517-1.6,1.666l-0.983,4.232h-1.866L159.229,2.791z"/>
	<path fill="#231F20" d="M168.279,15.221h1.05l1.749-7.532h-1.366l0.4-1.533h2.899l-0.367,1.667c0.601-0.95,1.566-1.8,2.683-1.8
		c1.684,0,2.517,1.167,2.517,2.866c0,2.516-1.683,4.698-3.883,4.698c-1.033,0-1.732-0.732-2.082-1.549l-0.733,3.183h1.3l-0.4,1.499
		h-4.166L168.279,15.221z M175.944,9.139c0-0.867-0.483-1.566-1.399-1.566c-1.267,0-2.366,1.3-2.366,2.866
		c0,0.95,0.482,1.533,1.482,1.533C174.928,11.972,175.944,10.622,175.944,9.139z"/>
	<path fill="#231F20" d="M179.028,10.755c0-2.516,1.683-4.732,3.799-4.732c0.967,0,1.75,0.8,2.05,1.633l0.5-1.5h1.699l-1.249,4.965
		c-0.084,0.317-0.134,0.6-0.134,0.783c0,0.3,0.117,0.45,0.367,0.45c0.216,0,0.566-0.184,0.933-1.2l0.733,0.283
		c-0.5,1.716-1.434,2.149-2.233,2.149c-0.949,0-1.499-0.649-1.499-1.649c-0.6,0.899-1.483,1.649-2.616,1.649
		C180.012,13.587,179.028,12.455,179.028,10.755z M184.561,9.189c0-0.95-0.467-1.55-1.433-1.55c-1.217,0-2.2,1.367-2.2,2.85
		c0,0.866,0.434,1.549,1.316,1.549C183.461,12.038,184.561,10.755,184.561,9.189z"/>
	<path fill="#231F20" d="M190.161,7.689h-1.333l0.399-1.533h2.85l-0.467,2.133c0.85-1.549,1.717-2.266,2.583-2.266
		c0.616,0,1.216,0.483,1.216,1.2c0,0.633-0.517,1.15-1.149,1.15c-0.583,0-1.017-0.417-1.1-0.833
		c-0.533,0.167-1.383,1.116-1.75,2.599l-0.833,3.316h-1.866L190.161,7.689z"/>
	<path fill="#231F20" d="M195.762,12.671c-0.3-0.3-0.483-0.65-0.483-1.033c0-0.633,0.417-1.033,0.95-1.033
		c0.499,0,0.916,0.417,0.916,0.917c0,0.133-0.05,0.333-0.1,0.399c0.066,0.05,0.149,0.1,0.25,0.15
		c0.333,0.15,0.766,0.216,1.216,0.216c0.684,0,1.316-0.2,1.316-0.683c0-0.55-0.767-0.8-1.583-1.149
		c-0.949-0.383-1.982-0.9-1.982-2.133c0-1.183,0.999-2.3,3.016-2.3c1.033,0,1.916,0.333,2.416,0.85c0.283,0.283,0.434,0.633,0.434,1
		c0,0.617-0.434,1.017-0.95,1.017c-0.5,0-0.933-0.434-0.933-0.933c0-0.133,0.017-0.2,0.1-0.4c-0.066-0.033-0.134-0.067-0.233-0.1
		c-0.233-0.083-0.533-0.133-0.816-0.133c-0.6,0-1.217,0.183-1.217,0.667c0,0.517,0.783,0.8,1.616,1.167
		c0.95,0.417,1.95,0.966,1.95,2.116c0,1.466-1.149,2.315-3.149,2.315C197.295,13.587,196.312,13.221,195.762,12.671z"/>
	<path fill="#231F20" d="M203.262,11.938c0-0.25,0.033-0.517,0.1-0.8l1.933-8.348h-1.366l0.4-1.533h3.166l-2.283,9.864
		c-0.066,0.3-0.116,0.533-0.116,0.717c0,0.367,0.116,0.517,0.383,0.517c0.3,0,0.616-0.184,0.983-1.2l0.733,0.283
		c-0.5,1.716-1.333,2.149-2.283,2.149C203.778,13.587,203.262,12.938,203.262,11.938z"/>
	<path fill="#231F20" d="M209.828,10.422v0.117c0,0.816,0.666,1.533,2.049,1.533c0.733,0,1.5-0.167,2.417-0.65l-0.351,1.666
		c-0.767,0.367-1.399,0.5-2.482,0.5c-1.783,0-3.433-1.116-3.433-3.132c0-2.483,1.767-4.433,3.949-4.433c1.85,0,3.133,1,3.133,2.816
		c0,0.467-0.084,1-0.267,1.583H209.828z M210.028,9.156h3.266c0.05-0.184,0.066-0.35,0.066-0.5c0-0.716-0.467-1.133-1.35-1.133
		C211.095,7.523,210.378,8.156,210.028,9.156z"/>
	<path fill="#231F20" d="M214.111,15.587c0-0.633,0.5-1.05,1.05-1.05c0.417,0,0.816,0.267,0.95,0.684
		c0.383-0.051,0.982-0.617,2.332-2.216l-1.1-5.315h-1.232l0.399-1.533h2.383l0.866,5.449c1.017-1.333,1.833-2.449,2.1-3.382
		c-0.399-0.167-0.716-0.533-0.716-1.066c0-0.633,0.499-1.133,1.149-1.133c0.833,0,1.316,0.6,1.316,1.517
		c0,0.8-0.4,2.166-3.133,5.482c-2.815,3.416-3.782,3.765-4.948,3.765C214.645,16.787,214.111,16.204,214.111,15.587z"/>
	<path fill="#231F20" d="M226.645,15.221h1.05l1.749-7.532h-1.366l0.4-1.533h2.899l-0.367,1.667c0.601-0.95,1.566-1.8,2.683-1.8
		c1.684,0,2.517,1.167,2.517,2.866c0,2.516-1.683,4.698-3.883,4.698c-1.033,0-1.732-0.732-2.082-1.549l-0.733,3.183h1.3l-0.4,1.499
		h-4.166L226.645,15.221z M234.31,9.139c0-0.867-0.483-1.566-1.399-1.566c-1.267,0-2.366,1.3-2.366,2.866
		c0,0.95,0.482,1.533,1.482,1.533C233.293,11.972,234.31,10.622,234.31,9.139z"/>
	<path fill="#231F20" d="M241.094,6.156l-1.05,4.216c-0.05,0.233-0.1,0.45-0.1,0.65c0,0.667,0.333,1.033,0.899,1.033
		c0.883,0,1.35-0.567,1.616-1.633l1.066-4.266h1.866l-1.25,4.965c-0.083,0.317-0.133,0.6-0.133,0.783c0,0.3,0.116,0.45,0.366,0.45
		c0.217,0,0.567-0.184,0.934-1.2l0.733,0.283c-0.5,1.716-1.434,2.149-2.233,2.149c-0.933,0-1.499-0.633-1.516-1.616
		c-0.601,0.983-1.5,1.616-2.434,1.616c-0.949,0-1.815-0.75-1.815-2.016c0-0.383,0.066-0.867,0.183-1.366l0.617-2.516h-1.316
		l0.399-1.533H241.094z"/>
	<path fill="#231F20" d="M248.444,7.689h-1.333l0.399-1.533h2.85l-0.467,2.133c0.85-1.549,1.717-2.266,2.583-2.266
		c0.616,0,1.216,0.483,1.216,1.2c0,0.633-0.517,1.15-1.149,1.15c-0.583,0-1.017-0.417-1.1-0.833
		c-0.533,0.167-1.383,1.116-1.75,2.599l-0.833,3.316h-1.866L248.444,7.689z"/>
	<path fill="#231F20" d="M255.494,10.422v0.117c0,0.816,0.666,1.533,2.049,1.533c0.733,0,1.5-0.167,2.417-0.65l-0.351,1.666
		c-0.767,0.367-1.399,0.5-2.482,0.5c-1.783,0-3.433-1.116-3.433-3.132c0-2.483,1.767-4.433,3.949-4.433c1.85,0,3.133,1,3.133,2.816
		c0,0.467-0.084,1-0.267,1.583H255.494z M255.694,9.156h3.266c0.05-0.184,0.066-0.35,0.066-0.5c0-0.716-0.467-1.133-1.35-1.133
		C256.761,7.523,256.044,8.156,255.694,9.156z M257.727,4.557l2.05-2.316c0.25-0.283,0.566-0.45,0.899-0.45
		c0.45,0,0.8,0.383,0.8,0.833c0,0.367-0.233,0.733-0.6,0.966l-2.633,1.566L257.727,4.557z"/>
	<path fill="#231F20" d="M263.66,10.422v0.117c0,0.816,0.666,1.533,2.049,1.533c0.733,0,1.5-0.167,2.417-0.65l-0.351,1.666
		c-0.767,0.367-1.399,0.5-2.482,0.5c-1.783,0-3.433-1.116-3.433-3.132c0-2.483,1.767-4.433,3.949-4.433c1.85,0,3.133,1,3.133,2.816
		c0,0.467-0.084,1-0.267,1.583H263.66z M263.86,9.156h3.266c0.05-0.184,0.066-0.35,0.066-0.5c0-0.716-0.467-1.133-1.35-1.133
		C264.927,7.523,264.21,8.156,263.86,9.156z"/>
	<path fill="#231F20" d="M268.494,15.387c1.717-0.982,2.233-1.732,2.283-2.033c-0.566-0.267-0.8-0.833-0.8-1.133
		c0-0.767,0.616-1.383,1.366-1.383s1.399,0.583,1.399,1.517c0,1.316-1.616,2.949-3.849,3.799L268.494,15.387z"/>
	<path fill="#231F20" d="M5.131,23.624H3.765l0.399-1.533H7.28l-1.433,6.232c0.5-0.767,1.35-1.467,2.232-1.467
		c1.05,0,1.949,0.75,1.949,2.183c0,0.367-0.05,0.767-0.183,1.217l-0.533,1.916c-0.05,0.2-0.083,0.366-0.083,0.517
		c0,0.333,0.133,0.5,0.383,0.5s0.566-0.184,0.933-1.2l0.733,0.283c-0.433,1.517-1.216,2.15-2.199,2.15
		c-1.149,0-1.699-0.684-1.699-1.617c0-0.267,0.033-0.55,0.116-0.833l0.55-1.965c0.066-0.217,0.083-0.417,0.083-0.6
		c0-0.634-0.383-1.017-0.999-1.017c-0.783,0-1.333,0.517-1.6,1.666l-0.983,4.232H2.682L5.131,23.624z"/>
	<path fill="#231F20" d="M12.098,31.104c0-2.182,1.717-4.249,4.133-4.249c2.199,0,3.432,1.55,3.432,3.316
		c0,2.182-1.716,4.249-4.132,4.249C13.331,34.421,12.098,32.871,12.098,31.104z M17.813,30.172c0-1.184-0.75-1.8-1.65-1.8
		c-1.216,0-2.216,1.166-2.216,2.732c0,1.184,0.75,1.8,1.649,1.8C16.813,32.904,17.813,31.737,17.813,30.172z"/>
	<path fill="#231F20" d="M22.298,28.522h-1.333l0.399-1.532h2.85l-0.467,2.133c0.85-1.55,1.717-2.267,2.583-2.267
		c0.616,0,1.216,0.483,1.216,1.2c0,0.633-0.517,1.149-1.149,1.149c-0.583,0-1.017-0.417-1.1-0.833
		c-0.533,0.166-1.383,1.116-1.75,2.599l-0.833,3.315h-1.866L22.298,28.522z"/>
	<path fill="#231F20" d="M27.898,33.504c-0.3-0.3-0.483-0.649-0.483-1.033c0-0.633,0.417-1.033,0.95-1.033
		c0.499,0,0.916,0.417,0.916,0.917c0,0.133-0.05,0.333-0.1,0.399c0.066,0.05,0.149,0.101,0.25,0.15
		c0.333,0.149,0.766,0.217,1.216,0.217c0.684,0,1.316-0.2,1.316-0.684c0-0.55-0.767-0.8-1.583-1.149
		c-0.949-0.384-1.982-0.9-1.982-2.132c0-1.184,0.999-2.3,3.016-2.3c1.033,0,1.916,0.333,2.416,0.85c0.283,0.283,0.434,0.634,0.434,1
		c0,0.616-0.434,1.017-0.95,1.017c-0.5,0-0.933-0.434-0.933-0.934c0-0.133,0.017-0.199,0.1-0.399
		c-0.066-0.033-0.134-0.066-0.233-0.101c-0.233-0.083-0.533-0.133-0.816-0.133c-0.6,0-1.217,0.184-1.217,0.666
		c0,0.517,0.783,0.801,1.616,1.167c0.95,0.416,1.95,0.965,1.95,2.116c0,1.466-1.149,2.316-3.149,2.316
		C29.432,34.421,28.448,34.054,27.898,33.504z"/>
	<path fill="#231F20" d="M36.997,31.255v0.116c0,0.816,0.666,1.533,2.05,1.533c0.732,0,1.499-0.167,2.416-0.65l-0.351,1.667
		c-0.767,0.366-1.399,0.5-2.482,0.5c-1.783,0-3.433-1.117-3.433-3.133c0-2.483,1.767-4.432,3.949-4.432c1.85,0,3.133,1,3.133,2.816
		c0,0.466-0.084,0.999-0.267,1.583H36.997z M37.197,29.989h3.266c0.05-0.184,0.066-0.35,0.066-0.5c0-0.717-0.467-1.133-1.35-1.133
		C38.264,28.356,37.547,28.989,37.197,29.989z"/>
	<path fill="#231F20" d="M44.881,28.522h-1.333l0.399-1.532h2.85l-0.467,2.133c0.85-1.55,1.717-2.267,2.583-2.267
		c0.616,0,1.216,0.483,1.216,1.2c0,0.633-0.516,1.149-1.149,1.149c-0.583,0-1.017-0.417-1.1-0.833
		c-0.533,0.166-1.383,1.116-1.75,2.599l-0.833,3.315h-1.866L44.881,28.522z"/>
	<path fill="#231F20" d="M50.164,31.588c0-2.516,1.684-4.732,3.799-4.732c0.967,0,1.75,0.8,2.05,1.633l0.5-1.499h1.699l-1.249,4.964
		c-0.084,0.316-0.134,0.6-0.134,0.783c0,0.3,0.117,0.45,0.367,0.45c0.216,0,0.566-0.184,0.933-1.2l0.733,0.283
		c-0.5,1.717-1.434,2.15-2.233,2.15c-0.949,0-1.499-0.65-1.499-1.65c-0.6,0.9-1.483,1.65-2.616,1.65
		C51.147,34.421,50.164,33.287,50.164,31.588z M55.696,30.022c0-0.95-0.467-1.55-1.433-1.55c-1.217,0-2.2,1.366-2.2,2.849
		c0,0.866,0.434,1.55,1.316,1.55C54.597,32.871,55.696,31.588,55.696,30.022z"/>
	<path fill="#231F20" d="M63.612,26.856c0.983,0,1.717,0.8,2.017,1.566l1.116-4.799h-1.35l0.4-1.533h3.132l-2.299,9.864
		c-0.084,0.351-0.134,0.6-0.134,0.783c0,0.3,0.117,0.45,0.367,0.45c0.216,0,0.566-0.184,0.933-1.2l0.733,0.283
		c-0.5,1.717-1.45,2.15-2.25,2.15c-0.949,0-1.499-0.65-1.499-1.65c-0.6,0.9-1.483,1.65-2.616,1.65c-1.366,0-2.35-1.134-2.35-2.833
		C59.813,29.072,61.496,26.856,63.612,26.856z M65.346,30.022c0-0.95-0.467-1.55-1.433-1.55c-1.217,0-2.2,1.366-2.2,2.849
		c0,0.866,0.434,1.55,1.316,1.55C64.246,32.871,65.346,31.588,65.346,30.022z"/>
	<path fill="#231F20" d="M69.931,32.787c0-0.25,0.033-0.533,0.1-0.816l0.851-3.449h-1.316l0.399-1.532h3.166l-1.25,4.964
		c-0.083,0.316-0.116,0.583-0.116,0.767c0,0.316,0.149,0.467,0.399,0.467c0.3,0,0.617-0.184,0.983-1.2l0.733,0.283
		c-0.5,1.717-1.333,2.15-2.283,2.15C70.464,34.421,69.931,33.771,69.931,32.787z M71.247,24.857c0-0.634,0.517-1.117,1.133-1.117
		s1.133,0.483,1.133,1.117c0,0.633-0.517,1.116-1.133,1.116S71.247,25.49,71.247,24.857z"/>
	<path fill="#231F20" d="M74.98,33.504c-0.3-0.3-0.483-0.649-0.483-1.033c0-0.633,0.417-1.033,0.95-1.033
		c0.499,0,0.916,0.417,0.916,0.917c0,0.133-0.05,0.333-0.1,0.399c0.066,0.05,0.149,0.101,0.25,0.15
		c0.333,0.149,0.766,0.217,1.216,0.217c0.684,0,1.316-0.2,1.316-0.684c0-0.55-0.767-0.8-1.583-1.149
		c-0.949-0.384-1.982-0.9-1.982-2.132c0-1.184,0.999-2.3,3.016-2.3c1.033,0,1.916,0.333,2.416,0.85c0.283,0.283,0.434,0.634,0.434,1
		c0,0.616-0.434,1.017-0.95,1.017c-0.5,0-0.933-0.434-0.933-0.934c0-0.133,0.017-0.199,0.1-0.399
		c-0.066-0.033-0.134-0.066-0.233-0.101c-0.233-0.083-0.533-0.133-0.816-0.133c-0.6,0-1.217,0.184-1.217,0.666
		c0,0.517,0.783,0.801,1.616,1.167c0.95,0.416,1.95,0.965,1.95,2.116c0,1.466-1.149,2.316-3.149,2.316
		C76.514,34.421,75.53,34.054,74.98,33.504z"/>
	<path fill="#231F20" d="M84.43,23.624h-1.366l0.399-1.533h3.116l-1.433,6.232c0.5-0.767,1.35-1.467,2.232-1.467
		c1.05,0,1.949,0.75,1.949,2.183c0,0.367-0.05,0.767-0.183,1.217l-0.533,1.916c-0.05,0.2-0.083,0.366-0.083,0.517
		c0,0.333,0.133,0.5,0.383,0.5s0.566-0.184,0.933-1.2l0.733,0.283c-0.433,1.517-1.216,2.15-2.199,2.15
		c-1.149,0-1.699-0.684-1.699-1.617c0-0.267,0.033-0.55,0.116-0.833l0.55-1.965c0.066-0.217,0.083-0.417,0.083-0.6
		c0-0.634-0.383-1.017-0.999-1.017c-0.783,0-1.333,0.517-1.6,1.666l-0.983,4.232H81.98L84.43,23.624z"/>
	<path fill="#231F20" d="M94.847,31.104c0-2.366,2-4.249,4.349-4.249c1.467,0,2.733,0.883,2.733,2.166
		c0,0.717-0.417,1.316-1.116,1.316c-0.584,0-1.05-0.467-1.05-1.05c0-0.267,0.1-0.5,0.249-0.699c-0.216-0.15-0.533-0.217-0.866-0.217
		c-1.066,0-2.449,0.75-2.449,2.599c0,1.232,0.85,1.933,1.916,1.933c0.85,0,1.717-0.3,2.466-0.816l-0.017,1.616
		c-0.683,0.467-1.583,0.717-2.565,0.717C96.446,34.421,94.847,33.188,94.847,31.104z"/>
	<path fill="#231F20" d="M104.479,28.522h-1.333l0.399-1.532h2.85l-0.467,2.133c0.85-1.55,1.717-2.267,2.583-2.267
		c0.616,0,1.216,0.483,1.216,1.2c0,0.633-0.517,1.149-1.149,1.149c-0.583,0-1.017-0.417-1.1-0.833
		c-0.533,0.166-1.383,1.116-1.75,2.599l-0.833,3.315h-1.866L104.479,28.522z"/>
	<path fill="#231F20" d="M111.529,31.255v0.116c0,0.816,0.666,1.533,2.049,1.533c0.733,0,1.5-0.167,2.417-0.65l-0.351,1.667
		c-0.767,0.366-1.399,0.5-2.482,0.5c-1.783,0-3.433-1.117-3.433-3.133c0-2.483,1.767-4.432,3.949-4.432c1.85,0,3.133,1,3.133,2.816
		c0,0.466-0.084,0.999-0.267,1.583H111.529z M111.729,29.989h3.266c0.05-0.184,0.066-0.35,0.066-0.5c0-0.717-0.467-1.133-1.35-1.133
		C112.796,28.356,112.079,28.989,111.729,29.989z M112.495,24.34c-0.267-0.267-0.366-0.55-0.366-0.833c0-0.517,0.417-0.9,0.85-0.9
		c0.483,0,0.75,0.283,0.95,0.717l1.116,2.482l-0.649,0.434L112.495,24.34z"/>
	<path fill="#231F20" d="M119.413,28.522h-1.333l0.399-1.532h2.85l-0.366,1.683c0.499-0.934,1.399-1.816,2.332-1.816
		c1.033,0,1.717,0.75,1.833,1.816c0.634-1.116,1.533-1.816,2.366-1.816c1.017,0,1.866,0.75,1.866,2.183
		c0,0.367-0.05,0.767-0.184,1.217l-0.533,1.916c-0.05,0.2-0.083,0.366-0.083,0.517c0,0.333,0.134,0.5,0.383,0.5
		c0.25,0,0.567-0.184,0.934-1.2l0.733,0.283c-0.434,1.517-1.217,2.15-2.2,2.15c-1.149,0-1.699-0.684-1.699-1.617
		c0-0.267,0.033-0.55,0.117-0.833l0.516-1.849c0.084-0.267,0.117-0.517,0.117-0.716c0-0.667-0.434-1.017-0.916-1.017
		c-0.717,0-1.233,0.583-1.517,1.767l-1.033,4.131h-1.866l1.05-4.131c0.066-0.284,0.116-0.601,0.116-0.801
		c0-0.55-0.399-0.966-0.916-0.966c-0.717,0-1.233,0.583-1.517,1.767l-1.033,4.131h-1.866L119.413,28.522z"/>
	<path fill="#231F20" d="M133.246,31.255v0.116c0,0.816,0.666,1.533,2.049,1.533c0.733,0,1.5-0.167,2.417-0.65l-0.351,1.667
		c-0.767,0.366-1.399,0.5-2.482,0.5c-1.783,0-3.433-1.117-3.433-3.133c0-2.483,1.767-4.432,3.949-4.432c1.85,0,3.133,1,3.133,2.816
		c0,0.466-0.084,0.999-0.267,1.583H133.246z M133.446,29.989h3.266c0.05-0.184,0.066-0.35,0.066-0.5c0-0.717-0.467-1.133-1.35-1.133
		C134.513,28.356,133.796,28.989,133.446,29.989z"/>
	<path fill="#231F20" d="M138.079,36.22c1.717-0.982,2.233-1.732,2.283-2.032c-0.566-0.267-0.8-0.833-0.8-1.134
		c0-0.766,0.616-1.383,1.366-1.383s1.399,0.583,1.399,1.517c0,1.316-1.616,2.949-3.849,3.799L138.079,36.22z"/>
	<path fill="#231F20" d="M147.346,31.104c0-2.366,2-4.249,4.349-4.249c1.467,0,2.733,0.883,2.733,2.166
		c0,0.717-0.417,1.316-1.117,1.316c-0.583,0-1.049-0.467-1.049-1.05c0-0.267,0.1-0.5,0.25-0.699
		c-0.217-0.15-0.533-0.217-0.867-0.217c-1.066,0-2.449,0.75-2.449,2.599c0,1.232,0.85,1.933,1.916,1.933
		c0.85,0,1.717-0.3,2.467-0.816l-0.018,1.616c-0.683,0.467-1.582,0.717-2.565,0.717C148.945,34.421,147.346,33.188,147.346,31.104z"
		/>
	<path fill="#231F20" d="M155.495,31.588c0-2.516,1.683-4.732,3.799-4.732c0.967,0,1.75,0.8,2.05,1.633l0.5-1.499h1.699
		l-1.249,4.964c-0.084,0.316-0.134,0.6-0.134,0.783c0,0.3,0.117,0.45,0.367,0.45c0.216,0,0.566-0.184,0.933-1.2l0.733,0.283
		c-0.5,1.717-1.434,2.15-2.233,2.15c-0.949,0-1.499-0.65-1.499-1.65c-0.6,0.9-1.483,1.65-2.616,1.65
		C156.479,34.421,155.495,33.287,155.495,31.588z M161.027,30.022c0-0.95-0.467-1.55-1.433-1.55c-1.217,0-2.2,1.366-2.2,2.849
		c0,0.866,0.434,1.55,1.316,1.55C159.928,32.871,161.027,31.588,161.027,30.022z"/>
	<path fill="#231F20" d="M169.928,32.804c0-0.267,0.033-0.55,0.117-0.833l0.55-1.965c0.066-0.217,0.083-0.417,0.083-0.6
		c0-0.634-0.383-1.017-1-1.017c-0.783,0-1.3,0.55-1.566,1.633l-1.066,4.265h-1.866l1.45-5.765h-1.333l0.399-1.532h2.85l-0.366,1.683
		c0.499-0.934,1.499-1.816,2.482-1.816c1.05,0,1.916,0.75,1.916,2.183c0,0.367-0.05,0.767-0.184,1.217l-0.533,1.916
		c-0.05,0.2-0.083,0.366-0.083,0.517c0,0.333,0.134,0.5,0.383,0.5c0.25,0,0.567-0.184,0.934-1.2l0.733,0.283
		c-0.434,1.517-1.217,2.15-2.2,2.15C170.478,34.421,169.928,33.737,169.928,32.804z"/>
	<path fill="#231F20" d="M178.494,26.856c0.983,0,1.717,0.8,2.017,1.566l1.116-4.799h-1.35l0.4-1.533h3.132l-2.299,9.864
		c-0.084,0.351-0.134,0.6-0.134,0.783c0,0.3,0.117,0.45,0.367,0.45c0.216,0,0.566-0.184,0.933-1.2l0.733,0.283
		c-0.5,1.717-1.45,2.15-2.25,2.15c-0.949,0-1.499-0.65-1.499-1.65c-0.6,0.9-1.483,1.65-2.616,1.65c-1.366,0-2.35-1.134-2.35-2.833
		C174.695,29.072,176.379,26.856,178.494,26.856z M180.228,30.022c0-0.95-0.467-1.55-1.433-1.55c-1.217,0-2.2,1.366-2.2,2.849
		c0,0.866,0.434,1.55,1.316,1.55C179.128,32.871,180.228,31.588,180.228,30.022z"/>
	<path fill="#231F20" d="M184.812,32.787c0-0.25,0.033-0.533,0.1-0.816l0.851-3.449h-1.316l0.399-1.532h3.166l-1.25,4.964
		c-0.083,0.316-0.116,0.583-0.116,0.767c0,0.316,0.149,0.467,0.399,0.467c0.3,0,0.617-0.184,0.983-1.2l0.733,0.283
		c-0.5,1.717-1.333,2.15-2.283,2.15C185.345,34.421,184.812,33.771,184.812,32.787z M186.128,24.857
		c0-0.634,0.517-1.117,1.133-1.117s1.133,0.483,1.133,1.117c0,0.633-0.517,1.116-1.133,1.116S186.128,25.49,186.128,24.857z"/>
	<path fill="#231F20" d="M191.479,31.255v0.116c0,0.816,0.666,1.533,2.049,1.533c0.733,0,1.5-0.167,2.417-0.65l-0.351,1.667
		c-0.767,0.366-1.399,0.5-2.482,0.5c-1.783,0-3.433-1.117-3.433-3.133c0-2.483,1.767-4.432,3.949-4.432c1.85,0,3.133,1,3.133,2.816
		c0,0.466-0.084,0.999-0.267,1.583H191.479z M191.679,29.989h3.266c0.05-0.184,0.066-0.35,0.066-0.5c0-0.717-0.467-1.133-1.35-1.133
		C192.745,28.356,192.028,28.989,191.679,29.989z"/>
	<path fill="#231F20" d="M201.677,26.856c0.983,0,1.717,0.8,2.017,1.566l1.116-4.799h-1.35l0.4-1.533h3.132l-2.299,9.864
		c-0.084,0.351-0.134,0.6-0.134,0.783c0,0.3,0.117,0.45,0.367,0.45c0.216,0,0.566-0.184,0.933-1.2l0.733,0.283
		c-0.5,1.717-1.45,2.15-2.25,2.15c-0.949,0-1.499-0.65-1.499-1.65c-0.6,0.9-1.483,1.65-2.616,1.65c-1.366,0-2.35-1.134-2.35-2.833
		C197.878,29.072,199.561,26.856,201.677,26.856z M203.41,30.022c0-0.95-0.467-1.55-1.433-1.55c-1.217,0-2.2,1.366-2.2,2.849
		c0,0.866,0.434,1.55,1.316,1.55C202.311,32.871,203.41,31.588,203.41,30.022z"/>
	<path fill="#231F20" d="M211.128,32.771c0-0.25,0.033-0.517,0.1-0.8l1.933-8.347h-1.366l0.4-1.533h3.166l-2.283,9.864
		c-0.066,0.3-0.116,0.533-0.116,0.717c0,0.366,0.116,0.517,0.383,0.517c0.3,0,0.616-0.184,0.983-1.2l0.733,0.283
		c-0.5,1.717-1.333,2.15-2.283,2.15C211.645,34.421,211.128,33.771,211.128,32.771z"/>
	<path fill="#231F20" d="M217.694,31.255v0.116c0,0.816,0.666,1.533,2.05,1.533c0.732,0,1.499-0.167,2.416-0.65l-0.351,1.667
		c-0.767,0.366-1.399,0.5-2.482,0.5c-1.783,0-3.433-1.117-3.433-3.133c0-2.483,1.767-4.432,3.949-4.432c1.85,0,3.133,1,3.133,2.816
		c0,0.466-0.084,0.999-0.267,1.583H217.694z M217.895,29.989h3.266c0.05-0.184,0.066-0.35,0.066-0.5c0-0.717-0.467-1.133-1.35-1.133
		C218.961,28.356,218.244,28.989,217.895,29.989z"/>
	<path fill="#231F20" d="M225.578,28.522h-1.333l0.399-1.532h2.85l-0.366,1.683c0.499-0.934,1.399-1.816,2.332-1.816
		c1.033,0,1.717,0.75,1.833,1.816c0.634-1.116,1.533-1.816,2.366-1.816c1.017,0,1.866,0.75,1.866,2.183
		c0,0.367-0.05,0.767-0.184,1.217l-0.533,1.916c-0.05,0.2-0.083,0.366-0.083,0.517c0,0.333,0.134,0.5,0.384,0.5
		c0.249,0,0.566-0.184,0.933-1.2l0.733,0.283c-0.434,1.517-1.217,2.15-2.199,2.15c-1.15,0-1.7-0.684-1.7-1.617
		c0-0.267,0.033-0.55,0.117-0.833l0.517-1.849c0.083-0.267,0.116-0.517,0.116-0.716c0-0.667-0.434-1.017-0.917-1.017
		c-0.716,0-1.232,0.583-1.516,1.767l-1.033,4.131h-1.866l1.05-4.131c0.066-0.284,0.116-0.601,0.116-0.801
		c0-0.55-0.399-0.966-0.916-0.966c-0.717,0-1.233,0.583-1.517,1.767l-1.033,4.131h-1.866L225.578,28.522z"/>
	<path fill="#231F20" d="M237.628,31.104c0-2.182,1.717-4.249,4.133-4.249c2.199,0,3.433,1.55,3.433,3.316
		c0,2.182-1.717,4.249-4.133,4.249C238.861,34.421,237.628,32.871,237.628,31.104z M243.344,30.172c0-1.184-0.75-1.8-1.65-1.8
		c-1.216,0-2.216,1.166-2.216,2.732c0,1.184,0.75,1.8,1.649,1.8C242.344,32.904,243.344,31.737,243.344,30.172z"/>
	<path fill="#231F20" d="M251.126,32.804c0-0.267,0.033-0.55,0.117-0.833l0.55-1.965c0.066-0.217,0.083-0.417,0.083-0.6
		c0-0.634-0.384-1.017-1-1.017c-0.783,0-1.3,0.55-1.566,1.633l-1.066,4.265h-1.866l1.45-5.765h-1.333l0.399-1.532h2.85l-0.366,1.683
		c0.499-0.934,1.499-1.816,2.482-1.816c1.05,0,1.916,0.75,1.916,2.183c0,0.367-0.05,0.767-0.184,1.217l-0.533,1.916
		c-0.05,0.2-0.083,0.366-0.083,0.517c0,0.333,0.134,0.5,0.384,0.5c0.249,0,0.566-0.184,0.933-1.2l0.733,0.283
		c-0.434,1.517-1.217,2.15-2.199,2.15C251.676,34.421,251.126,33.737,251.126,32.804z"/>
	<path fill="#231F20" d="M257.961,36.054h1.05l1.749-7.532h-1.366l0.4-1.532h2.899l-0.367,1.666c0.601-0.95,1.566-1.8,2.683-1.8
		c1.684,0,2.517,1.167,2.517,2.866c0,2.515-1.683,4.699-3.883,4.699c-1.033,0-1.732-0.733-2.082-1.55l-0.733,3.183h1.3l-0.4,1.499
		h-4.166L257.961,36.054z M265.626,29.972c0-0.866-0.483-1.566-1.399-1.566c-1.267,0-2.366,1.3-2.366,2.866
		c0,0.949,0.482,1.532,1.482,1.532C264.609,32.804,265.626,31.454,265.626,29.972z"/>
	<path fill="#231F20" d="M270.477,31.255v0.116c0,0.816,0.666,1.533,2.049,1.533c0.733,0,1.5-0.167,2.417-0.65l-0.351,1.667
		c-0.767,0.366-1.399,0.5-2.482,0.5c-1.783,0-3.433-1.117-3.433-3.133c0-2.483,1.767-4.432,3.949-4.432c1.85,0,3.133,1,3.133,2.816
		c0,0.466-0.084,0.999-0.267,1.583H270.477z M270.677,29.989h3.266c0.05-0.184,0.066-0.35,0.066-0.5c0-0.717-0.467-1.133-1.35-1.133
		C271.743,28.356,271.026,28.989,270.677,29.989z"/>
	<path fill="#231F20" d="M278.644,31.255v0.116c0,0.816,0.666,1.533,2.05,1.533c0.732,0,1.499-0.167,2.416-0.65l-0.351,1.667
		c-0.767,0.366-1.399,0.5-2.482,0.5c-1.783,0-3.433-1.117-3.433-3.133c0-2.483,1.767-4.432,3.949-4.432c1.85,0,3.133,1,3.133,2.816
		c0,0.466-0.084,0.999-0.267,1.583H278.644z M278.844,29.989h3.266c0.05-0.184,0.066-0.35,0.066-0.5c0-0.717-0.467-1.133-1.35-1.133
		C279.91,28.356,279.193,28.989,278.844,29.989z"/>
	<path fill="#231F20" d="M285.21,32.771c0-0.25,0.033-0.517,0.1-0.8l1.933-8.347h-1.366l0.4-1.533h3.166l-2.283,9.864
		c-0.066,0.3-0.116,0.533-0.116,0.717c0,0.366,0.116,0.517,0.383,0.517c0.3,0,0.616-0.184,0.983-1.2l0.733,0.283
		c-0.5,1.717-1.333,2.15-2.283,2.15C285.727,34.421,285.21,33.771,285.21,32.771z"/>
	<path fill="#231F20" d="M288.61,36.22c1.717-0.982,2.233-1.732,2.283-2.032c-0.566-0.267-0.8-0.833-0.8-1.134
		c0-0.766,0.616-1.383,1.366-1.383s1.399,0.583,1.399,1.517c0,1.316-1.616,2.949-3.849,3.799L288.61,36.22z"/>
	<path fill="#231F20" d="M1.632,56.888h1.05l1.75-7.532H3.064l0.4-1.532h2.899l-0.367,1.666c0.601-0.95,1.566-1.8,2.683-1.8
		c1.684,0,2.517,1.167,2.517,2.866c0,2.516-1.683,4.699-3.883,4.699c-1.033,0-1.732-0.733-2.083-1.55l-0.732,3.183h1.3l-0.4,1.499
		H1.232L1.632,56.888z M9.297,50.806c0-0.866-0.483-1.566-1.4-1.566c-1.266,0-2.365,1.3-2.365,2.866
		c0,0.949,0.482,1.532,1.482,1.532C8.28,53.638,9.297,52.288,9.297,50.806z"/>
	<path fill="#231F20" d="M12.781,53.621c0-0.25,0.033-0.533,0.1-0.816l0.851-3.449h-1.316l0.399-1.532h3.166l-1.25,4.965
		c-0.083,0.316-0.116,0.583-0.116,0.767c0,0.316,0.149,0.467,0.399,0.467c0.301,0,0.617-0.184,0.983-1.2l0.733,0.283
		c-0.5,1.717-1.333,2.15-2.283,2.15C13.314,55.255,12.781,54.604,12.781,53.621z M14.098,45.69c0-0.634,0.517-1.117,1.133-1.117
		c0.617,0,1.133,0.483,1.133,1.117c0,0.633-0.516,1.116-1.133,1.116C14.614,46.807,14.098,46.323,14.098,45.69z"/>
	<path fill="#231F20" d="M17.665,51.938c0-2.366,2-4.249,4.349-4.249c1.467,0,2.733,0.883,2.733,2.166
		c0,0.717-0.417,1.316-1.116,1.316c-0.584,0-1.05-0.467-1.05-1.05c0-0.267,0.1-0.5,0.249-0.699c-0.216-0.15-0.533-0.217-0.866-0.217
		c-1.066,0-2.449,0.75-2.449,2.6c0,1.232,0.85,1.933,1.916,1.933c0.85,0,1.717-0.3,2.466-0.816l-0.017,1.616
		c-0.683,0.467-1.583,0.717-2.565,0.717C19.265,55.255,17.665,54.021,17.665,51.938z"/>
	<path fill="#231F20" d="M25.481,55.121l2.449-10.664h-1.366l0.4-1.533h3.115l-1.899,8.248c1.85-0.55,2.699-1.05,3.016-1.55
		c-0.333-0.232-0.499-0.517-0.499-0.866c0-0.583,0.499-1.066,1.083-1.066c0.633,0,1.149,0.5,1.149,1.25c0,1.149-0.8,2.1-2.666,2.949
		l0.666,1.449c0.117,0.25,0.217,0.434,0.317,0.55c0.083,0.101,0.166,0.134,0.267,0.134c0.216,0,0.433-0.267,0.749-1.366l0.733,0.233
		c-0.434,1.982-1.183,2.366-1.982,2.366c-0.316,0-0.667-0.084-0.95-0.317c-0.25-0.199-0.467-0.483-0.633-0.883l-0.767-1.767
		l-0.7,0.217l-0.616,2.616H25.481z"/>
	<path fill="#231F20" d="M34.415,53.604c0-0.25,0.033-0.517,0.1-0.8l1.933-8.348h-1.366l0.4-1.533h3.166l-2.283,9.864
		c-0.066,0.3-0.116,0.533-0.116,0.717c0,0.366,0.116,0.517,0.383,0.517c0.3,0,0.616-0.184,0.983-1.2l0.733,0.283
		c-0.5,1.717-1.333,2.15-2.283,2.15C34.932,55.255,34.415,54.604,34.415,53.604z"/>
	<path fill="#231F20" d="M40.981,52.089v0.116c0,0.816,0.666,1.533,2.05,1.533c0.732,0,1.499-0.167,2.416-0.65l-0.351,1.667
		c-0.767,0.366-1.399,0.5-2.482,0.5c-1.783,0-3.433-1.117-3.433-3.133c0-2.483,1.767-4.433,3.949-4.433c1.85,0,3.133,1,3.133,2.816
		c0,0.466-0.084,0.999-0.267,1.583H40.981z M41.182,50.822h3.266c0.05-0.184,0.066-0.35,0.066-0.5c0-0.717-0.467-1.133-1.35-1.133
		C42.248,49.189,41.531,49.822,41.182,50.822z"/>
	<path fill="#231F20" d="M51.18,47.689c0.983,0,1.717,0.8,2.017,1.566l1.116-4.799h-1.35l0.4-1.533h3.132l-2.299,9.864
		c-0.084,0.351-0.134,0.6-0.134,0.783c0,0.3,0.117,0.45,0.367,0.45c0.216,0,0.566-0.184,0.933-1.2l0.733,0.283
		c-0.5,1.717-1.45,2.15-2.25,2.15c-0.949,0-1.499-0.65-1.499-1.65c-0.6,0.9-1.483,1.65-2.616,1.65c-1.366,0-2.35-1.134-2.35-2.833
		C47.381,49.905,49.064,47.689,51.18,47.689z M52.913,50.855c0-0.95-0.467-1.55-1.433-1.55c-1.217,0-2.2,1.366-2.2,2.85
		c0,0.866,0.434,1.55,1.316,1.55C51.813,53.705,52.913,52.422,52.913,50.855z"/>
	<path fill="#231F20" d="M60.631,53.604c0-0.25,0.033-0.517,0.1-0.8l1.933-8.348h-1.366l0.4-1.533h3.166l-2.283,9.864
		c-0.066,0.3-0.116,0.533-0.116,0.717c0,0.366,0.116,0.517,0.383,0.517c0.3,0,0.616-0.184,0.983-1.2l0.733,0.283
		c-0.5,1.717-1.333,2.15-2.283,2.15C61.147,55.255,60.631,54.604,60.631,53.604z"/>
	<path fill="#231F20" d="M67.197,52.089v0.116c0,0.816,0.666,1.533,2.049,1.533c0.733,0,1.5-0.167,2.417-0.65l-0.351,1.667
		c-0.767,0.366-1.399,0.5-2.482,0.5c-1.783,0-3.433-1.117-3.433-3.133c0-2.483,1.767-4.433,3.949-4.433c1.85,0,3.133,1,3.133,2.816
		c0,0.466-0.084,0.999-0.267,1.583H67.197z M67.397,50.822h3.266c0.05-0.184,0.066-0.35,0.066-0.5c0-0.717-0.467-1.133-1.35-1.133
		C68.464,49.189,67.747,49.822,67.397,50.822z"/>
	<path fill="#231F20" d="M75.364,52.089v0.116c0,0.816,0.666,1.533,2.05,1.533c0.732,0,1.499-0.167,2.416-0.65l-0.351,1.667
		c-0.767,0.366-1.399,0.5-2.482,0.5c-1.783,0-3.433-1.117-3.433-3.133c0-2.483,1.767-4.433,3.949-4.433c1.85,0,3.133,1,3.133,2.816
		c0,0.466-0.084,0.999-0.267,1.583H75.364z M75.564,50.822h3.266c0.05-0.184,0.066-0.35,0.066-0.5c0-0.717-0.467-1.133-1.35-1.133
		C76.631,49.189,75.914,49.822,75.564,50.822z"/>
	<path fill="#231F20" d="M81.431,55.121l2.449-10.664h-1.366l0.4-1.533h3.115l-1.899,8.248c1.85-0.55,2.699-1.05,3.016-1.55
		c-0.333-0.232-0.499-0.517-0.499-0.866c0-0.583,0.499-1.066,1.083-1.066c0.633,0,1.149,0.5,1.149,1.25c0,1.149-0.8,2.1-2.666,2.949
		l0.666,1.449c0.117,0.25,0.217,0.434,0.317,0.55c0.083,0.101,0.166,0.134,0.267,0.134c0.216,0,0.433-0.267,0.749-1.366l0.733,0.233
		c-0.434,1.982-1.183,2.366-1.982,2.366c-0.316,0-0.667-0.084-0.95-0.317c-0.25-0.199-0.467-0.483-0.633-0.883l-0.767-1.767
		l-0.7,0.217l-0.616,2.616H81.431z"/>
	<path fill="#231F20" d="M90.348,54.338c-0.3-0.3-0.483-0.649-0.483-1.033c0-0.633,0.417-1.033,0.95-1.033
		c0.499,0,0.916,0.417,0.916,0.917c0,0.133-0.05,0.333-0.1,0.399c0.066,0.05,0.149,0.101,0.25,0.15
		c0.333,0.149,0.766,0.217,1.216,0.217c0.684,0,1.316-0.2,1.316-0.684c0-0.55-0.767-0.8-1.583-1.149
		c-0.949-0.384-1.982-0.9-1.982-2.133c0-1.184,0.999-2.3,3.016-2.3c1.033,0,1.916,0.333,2.416,0.85c0.283,0.283,0.434,0.634,0.434,1
		c0,0.616-0.434,1.017-0.95,1.017c-0.5,0-0.933-0.434-0.933-0.934c0-0.133,0.017-0.199,0.1-0.399
		c-0.066-0.033-0.134-0.066-0.233-0.101c-0.233-0.083-0.533-0.133-0.816-0.133c-0.6,0-1.217,0.184-1.217,0.666
		c0,0.517,0.783,0.801,1.616,1.167c0.95,0.416,1.95,0.966,1.95,2.116c0,1.466-1.149,2.316-3.149,2.316
		C91.881,55.255,90.897,54.888,90.348,54.338z"/>
	<path fill="#231F20" d="M101.13,52.422c0-2.517,1.683-4.732,3.799-4.732c0.967,0,1.75,0.8,2.05,1.633l0.5-1.499h1.699l-1.249,4.965
		c-0.084,0.316-0.134,0.6-0.134,0.783c0,0.3,0.117,0.45,0.367,0.45c0.216,0,0.566-0.184,0.933-1.2l0.733,0.283
		c-0.5,1.717-1.434,2.15-2.233,2.15c-0.949,0-1.499-0.65-1.499-1.65c-0.6,0.9-1.483,1.65-2.616,1.65
		C102.113,55.255,101.13,54.121,101.13,52.422z M106.662,50.855c0-0.95-0.467-1.55-1.433-1.55c-1.217,0-2.2,1.366-2.2,2.85
		c0,0.866,0.434,1.55,1.316,1.55C105.562,53.705,106.662,52.422,106.662,50.855z"/>
	<path fill="#231F20" d="M115.562,53.638c0-0.267,0.033-0.55,0.117-0.833l0.55-1.966c0.066-0.217,0.083-0.417,0.083-0.6
		c0-0.634-0.383-1.017-1-1.017c-0.783,0-1.3,0.55-1.566,1.633l-1.066,4.266h-1.866l1.45-5.766h-1.333l0.399-1.532h2.85l-0.366,1.683
		c0.499-0.934,1.499-1.816,2.482-1.816c1.05,0,1.916,0.75,1.916,2.183c0,0.367-0.05,0.767-0.184,1.217l-0.533,1.916
		c-0.05,0.2-0.083,0.366-0.083,0.517c0,0.333,0.134,0.5,0.383,0.5c0.25,0,0.567-0.184,0.934-1.2l0.733,0.283
		c-0.434,1.517-1.217,2.15-2.2,2.15C116.112,55.255,115.562,54.571,115.562,53.638z"/>
	<path fill="#231F20" d="M124.129,47.689c0.983,0,1.717,0.8,2.017,1.566l1.116-4.799h-1.35l0.4-1.533h3.132l-2.299,9.864
		c-0.084,0.351-0.134,0.6-0.134,0.783c0,0.3,0.117,0.45,0.367,0.45c0.216,0,0.566-0.184,0.933-1.2l0.733,0.283
		c-0.5,1.717-1.45,2.15-2.25,2.15c-0.949,0-1.499-0.65-1.499-1.65c-0.6,0.9-1.483,1.65-2.616,1.65c-1.366,0-2.35-1.134-2.35-2.833
		C120.33,49.905,122.014,47.689,124.129,47.689z M125.862,50.855c0-0.95-0.467-1.55-1.433-1.55c-1.217,0-2.2,1.366-2.2,2.85
		c0,0.866,0.434,1.55,1.316,1.55C124.763,53.705,125.862,52.422,125.862,50.855z"/>
	<path fill="#231F20" d="M132.03,56.888h1.05l1.75-7.532h-1.367l0.4-1.532h2.899l-0.367,1.666c0.601-0.95,1.566-1.8,2.683-1.8
		c1.684,0,2.517,1.167,2.517,2.866c0,2.516-1.683,4.699-3.883,4.699c-1.033,0-1.732-0.733-2.083-1.55l-0.732,3.183h1.3l-0.4,1.499
		h-4.165L132.03,56.888z M139.695,50.806c0-0.866-0.483-1.566-1.4-1.566c-1.266,0-2.365,1.3-2.365,2.866
		c0,0.949,0.482,1.532,1.482,1.532C138.679,53.638,139.695,52.288,139.695,50.806z"/>
	<path fill="#231F20" d="M146.479,47.823l-1.05,4.215c-0.05,0.233-0.1,0.45-0.1,0.65c0,0.666,0.333,1.033,0.899,1.033
		c0.883,0,1.35-0.566,1.616-1.633l1.066-4.266h1.866l-1.25,4.965c-0.083,0.316-0.133,0.6-0.133,0.783c0,0.3,0.116,0.45,0.366,0.45
		c0.217,0,0.567-0.184,0.934-1.2l0.733,0.283c-0.5,1.717-1.434,2.15-2.233,2.15c-0.933,0-1.499-0.634-1.516-1.617
		c-0.601,0.983-1.5,1.617-2.434,1.617c-0.949,0-1.815-0.75-1.815-2.017c0-0.384,0.066-0.866,0.183-1.366l0.617-2.517h-1.316
		l0.399-1.532H146.479z"/>
	<path fill="#231F20" d="M153.829,49.355h-1.333l0.399-1.532h2.85l-0.467,2.133c0.85-1.55,1.717-2.267,2.583-2.267
		c0.616,0,1.216,0.483,1.216,1.2c0,0.633-0.517,1.149-1.149,1.149c-0.583,0-1.017-0.417-1.1-0.833
		c-0.533,0.166-1.383,1.116-1.75,2.6l-0.833,3.315h-1.866L153.829,49.355z"/>
	<path fill="#231F20" d="M158.062,56.888h1.05l1.749-7.532h-1.366l0.4-1.532h2.899l-0.367,1.666c0.601-0.95,1.566-1.8,2.683-1.8
		c1.684,0,2.517,1.167,2.517,2.866c0,2.516-1.683,4.699-3.883,4.699c-1.033,0-1.732-0.733-2.082-1.55l-0.733,3.183h1.3l-0.4,1.499
		h-4.166L158.062,56.888z M165.728,50.806c0-0.866-0.483-1.566-1.399-1.566c-1.267,0-2.366,1.3-2.366,2.866
		c0,0.949,0.482,1.532,1.482,1.532C164.711,53.638,165.728,52.288,165.728,50.806z"/>
	<path fill="#231F20" d="M168.979,53.604c0-0.25,0.033-0.517,0.1-0.8l1.933-8.348h-1.366l0.4-1.533h3.166l-2.283,9.864
		c-0.066,0.3-0.116,0.533-0.116,0.717c0,0.366,0.116,0.517,0.383,0.517c0.3,0,0.616-0.184,0.983-1.2l0.733,0.283
		c-0.5,1.717-1.333,2.15-2.283,2.15C169.496,55.255,168.979,54.604,168.979,53.604z"/>
	<path fill="#231F20" d="M175.546,52.089v0.116c0,0.816,0.666,1.533,2.05,1.533c0.732,0,1.499-0.167,2.416-0.65l-0.351,1.667
		c-0.767,0.366-1.399,0.5-2.482,0.5c-1.783,0-3.433-1.117-3.433-3.133c0-2.483,1.767-4.433,3.949-4.433c1.85,0,3.133,1,3.133,2.816
		c0,0.466-0.084,0.999-0.267,1.583H175.546z M175.746,50.822h3.266c0.05-0.184,0.066-0.35,0.066-0.5c0-0.717-0.467-1.133-1.35-1.133
		C176.812,49.189,176.096,49.822,175.746,50.822z"/>
	<path fill="#231F20" d="M187.512,44.457h-1.366l0.399-1.533h3.116l-1.433,6.198c0.55-0.782,1.482-1.433,2.35-1.433
		c1.766,0,2.599,1.167,2.599,2.866c0,2.516-1.683,4.699-3.882,4.699c-0.95,0-1.85-0.684-2.066-1.55l-0.467,1.416h-1.699
		L187.512,44.457z M191.277,50.806c0-0.866-0.483-1.566-1.399-1.566c-1.267,0-2.366,1.3-2.366,2.866
		c0,0.949,0.483,1.532,1.483,1.532C190.261,53.638,191.277,52.288,191.277,50.806z"/>
	<path fill="#231F20" d="M194.361,52.422c0-2.517,1.684-4.732,3.799-4.732c0.967,0,1.75,0.8,2.05,1.633l0.5-1.499h1.699
		l-1.249,4.965c-0.084,0.316-0.134,0.6-0.134,0.783c0,0.3,0.117,0.45,0.367,0.45c0.216,0,0.566-0.184,0.933-1.2l0.733,0.283
		c-0.5,1.717-1.434,2.15-2.233,2.15c-0.949,0-1.499-0.65-1.499-1.65c-0.6,0.9-1.483,1.65-2.616,1.65
		C195.345,55.255,194.361,54.121,194.361,52.422z M199.894,50.855c0-0.95-0.467-1.55-1.433-1.55c-1.217,0-2.2,1.366-2.2,2.85
		c0,0.866,0.434,1.55,1.316,1.55C198.794,53.705,199.894,52.422,199.894,50.855z"/>
	<path fill="#231F20" d="M204.162,54.338c-0.3-0.3-0.483-0.649-0.483-1.033c0-0.633,0.417-1.033,0.95-1.033
		c0.499,0,0.916,0.417,0.916,0.917c0,0.133-0.05,0.333-0.1,0.399c0.066,0.05,0.149,0.101,0.25,0.15
		c0.333,0.149,0.766,0.217,1.216,0.217c0.684,0,1.316-0.2,1.316-0.684c0-0.55-0.767-0.8-1.583-1.149
		c-0.949-0.384-1.982-0.9-1.982-2.133c0-1.184,0.999-2.3,3.016-2.3c1.033,0,1.916,0.333,2.416,0.85c0.283,0.283,0.434,0.634,0.434,1
		c0,0.616-0.434,1.017-0.95,1.017c-0.5,0-0.933-0.434-0.933-0.934c0-0.133,0.017-0.199,0.1-0.399
		c-0.066-0.033-0.134-0.066-0.233-0.101c-0.233-0.083-0.533-0.133-0.816-0.133c-0.6,0-1.217,0.184-1.217,0.666
		c0,0.517,0.783,0.801,1.616,1.167c0.95,0.416,1.95,0.966,1.95,2.116c0,1.466-1.149,2.316-3.149,2.316
		C205.695,55.255,204.712,54.888,204.162,54.338z"/>
	<path fill="#231F20" d="M211.979,53.621c0-0.25,0.033-0.533,0.1-0.816l0.851-3.449h-1.316l0.399-1.532h3.166l-1.25,4.965
		c-0.083,0.316-0.116,0.583-0.116,0.767c0,0.316,0.149,0.467,0.399,0.467c0.301,0,0.617-0.184,0.983-1.2l0.733,0.283
		c-0.5,1.717-1.333,2.15-2.283,2.15C212.512,55.255,211.979,54.604,211.979,53.621z M213.295,45.69c0-0.634,0.517-1.117,1.133-1.117
		c0.617,0,1.133,0.483,1.133,1.117c0,0.633-0.516,1.116-1.133,1.116C213.812,46.807,213.295,46.323,213.295,45.69z"/>
	<path fill="#231F20" d="M217.045,53.604c0-0.25,0.033-0.517,0.1-0.8l1.933-8.348h-1.366l0.4-1.533h3.166l-2.283,9.864
		c-0.066,0.3-0.116,0.533-0.116,0.717c0,0.366,0.116,0.517,0.383,0.517c0.3,0,0.616-0.184,0.983-1.2l0.733,0.283
		c-0.5,1.717-1.333,2.15-2.283,2.15C217.562,55.255,217.045,54.604,217.045,53.604z"/>
	<path fill="#231F20" d="M226.794,49.355h-1.267l0.4-1.532h1.217l0.35-1.5c0.283-1.233,0.699-2.033,1.25-2.583
		c0.683-0.683,1.565-0.949,2.365-0.949c1.1,0,1.6,0.649,1.6,1.232c0,0.684-0.517,1.117-1.116,1.117
		c-0.517,0-0.933-0.351-1.017-0.767c-0.199,0.066-0.383,0.199-0.482,0.3c-0.317,0.316-0.584,0.866-0.8,1.8l-0.317,1.35h1.917
		l-0.4,1.532h-1.866l-1.316,5.766h-1.833L226.794,49.355z"/>
	<path fill="#231F20" d="M233.012,53.604c0-0.25,0.033-0.517,0.1-0.8l1.933-8.348h-1.366l0.4-1.533h3.166l-2.283,9.864
		c-0.066,0.3-0.116,0.533-0.116,0.717c0,0.366,0.116,0.517,0.383,0.517c0.3,0,0.616-0.184,0.983-1.2l0.733,0.283
		c-0.5,1.717-1.333,2.15-2.283,2.15C233.528,55.255,233.012,54.604,233.012,53.604z"/>
	<path fill="#231F20" d="M237.794,51.938c0-2.183,1.717-4.249,4.133-4.249c2.199,0,3.433,1.55,3.433,3.316
		c0,2.183-1.717,4.249-4.133,4.249C239.027,55.255,237.794,53.705,237.794,51.938z M243.51,51.006c0-1.184-0.75-1.8-1.65-1.8
		c-1.216,0-2.216,1.166-2.216,2.732c0,1.184,0.75,1.8,1.649,1.8C242.51,53.738,243.51,52.571,243.51,51.006z"/>
	<path fill="#231F20" d="M247.411,49.355h-1.333l0.4-1.532h2.532l0.25,5.299l2.316-4.55h1.216l0.867,4.616
		c0.883-1.35,1.616-2.6,1.732-3.383c-0.383-0.116-0.75-0.483-0.75-1.033c0-0.6,0.483-1.083,1.083-1.083
		c0.783,0,1.316,0.566,1.316,1.5c0,1.083-0.933,2.982-3.183,6.065h-1.232l-0.867-4.017l-2.282,4.017h-1.399L247.411,49.355z"/>
	<path fill="#231F20" d="M259.744,52.089v0.116c0,0.816,0.666,1.533,2.049,1.533c0.733,0,1.5-0.167,2.417-0.65l-0.351,1.667
		c-0.767,0.366-1.399,0.5-2.482,0.5c-1.783,0-3.433-1.117-3.433-3.133c0-2.483,1.767-4.433,3.949-4.433c1.85,0,3.133,1,3.133,2.816
		c0,0.466-0.084,0.999-0.267,1.583H259.744z M259.944,50.822h3.266c0.05-0.184,0.066-0.35,0.066-0.5c0-0.717-0.467-1.133-1.35-1.133
		C261.011,49.189,260.294,49.822,259.944,50.822z"/>
	<path fill="#231F20" d="M267.627,49.355h-1.333l0.399-1.532h2.85l-0.467,2.133c0.85-1.55,1.717-2.267,2.583-2.267
		c0.616,0,1.216,0.483,1.216,1.2c0,0.633-0.516,1.149-1.149,1.149c-0.583,0-1.017-0.417-1.1-0.833
		c-0.533,0.166-1.383,1.116-1.75,2.6l-0.833,3.315h-1.866L267.627,49.355z"/>
	<path fill="#231F20" d="M273.228,54.338c-0.3-0.3-0.483-0.649-0.483-1.033c0-0.633,0.416-1.033,0.949-1.033
		c0.5,0,0.917,0.417,0.917,0.917c0,0.133-0.05,0.333-0.1,0.399c0.066,0.05,0.149,0.101,0.249,0.15
		c0.334,0.149,0.767,0.217,1.217,0.217c0.684,0,1.316-0.2,1.316-0.684c0-0.55-0.767-0.8-1.583-1.149
		c-0.95-0.384-1.982-0.9-1.982-2.133c0-1.184,0.999-2.3,3.016-2.3c1.033,0,1.916,0.333,2.416,0.85c0.283,0.283,0.434,0.634,0.434,1
		c0,0.616-0.434,1.017-0.95,1.017c-0.5,0-0.933-0.434-0.933-0.934c0-0.133,0.017-0.199,0.1-0.399
		c-0.066-0.033-0.134-0.066-0.233-0.101c-0.233-0.083-0.533-0.133-0.816-0.133c-0.6,0-1.217,0.184-1.217,0.666
		c0,0.517,0.783,0.801,1.617,1.167c0.949,0.416,1.949,0.966,1.949,2.116c0,1.466-1.15,2.316-3.149,2.316
		C274.76,55.255,273.777,54.888,273.228,54.338z"/>
</g>
</svg>
