<?xml version="1.0" encoding="utf-8"?>
<!-- Generator: Adobe Illustrator 16.0.0, SVG Export Plug-In . SVG Version: 6.00 Build 0)  -->
<!DOCTYPE svg PUBLIC "-//W3C//DTD SVG 1.1//EN" "http://www.w3.org/Graphics/SVG/1.1/DTD/svg11.dtd">
<svg version="1.1" id="Layer_1" xmlns="http://www.w3.org/2000/svg" xmlns:xlink="http://www.w3.org/1999/xlink" x="0px" y="0px"
	 width="662.879px" height="315.152px" viewBox="0 0 662.879 315.152" enable-background="new 0 0 662.879 315.152"
	 xml:space="preserve">
<g enable-background="new    ">
	<path d="M63.517,68.198c6.184,0,12.512,0.145,17.545,2.014c9.779,3.739,12.656,13.375,12.656,19.703
		c0,9.348-5.465,22.435-27.9,26.174l-3.02,0.432l2.876,0.575c3.164,0.719,6.041,1.726,8.917,3.164
		c8.485,4.458,12.943,11.361,12.943,21.141c0,4.314-0.719,11.073-5.752,17.258c-8.629,10.785-21.86,11.073-37.392,11.073H1.965
		l0.575-2.732h12.081l20.853-96.067H22.387l0.575-2.733H63.517z M44.678,166.999c9.348-0.144,16.682-0.288,21.572-8.772
		c4.026-6.615,6.184-21.429,6.184-26.462c0-13.231-11.792-13.519-22.435-13.807H39.932L29.29,166.999H44.678z M50.287,70.931
		l-9.636,44.15h11.937c8.772,0,15.963-0.575,20.565-6.903c4.027-5.752,6.472-18.552,6.472-25.167c0-11.793-8.341-12.08-16.97-12.08
		H50.287z"/>
	<path d="M121.757,130.039c4.314-9.636,10.786-21.141,20.853-21.141c4.314,0,7.191,2.444,7.191,6.04
		c0,2.301-1.438,7.047-6.328,7.047c-3.308,0-4.602-2.014-4.89-2.732c-0.432-0.575-0.576-1.438-1.007-2.014
		c-0.144-0.432-0.719-1.294-2.014-1.294c-1.869,0-3.451,1.294-6.184,5.32c-6.616,9.78-9.061,18.408-12.225,30.776l-4.17,17.833
		H101.48l12.943-56.519h-13.087l0.719-2.732h24.017L121.757,130.039z"/>
	<path d="M202.29,110.624h11.792l-9.348,38.83c-0.575,2.876-2.445,11.073-2.445,13.23c0,2.014,0.575,4.026,3.02,4.026
		c4.458,0,11.505-9.923,15.101-17.688l2.301,0.862c-2.013,4.603-9.779,21.429-20.565,21.429c-7.478,0-10.067-5.896-9.923-13.087
		c-2.445,4.458-7.191,13.23-18.552,13.23c-11.217,0-20.421-9.061-20.421-23.441c0-21.572,18.121-39.117,32.79-39.117
		c4.89,0,8.054,1.726,10.211,3.739c2.588,2.588,3.164,4.89,3.883,7.478L202.29,110.624z M198.119,124.861
		c0-9.491-6.04-12.8-10.354-12.8c-17.258,0-23.01,38.111-23.01,44.151c0,9.492,5.321,12.368,9.779,12.368
		c12.512,0,17.833-15.819,20.565-26.174C196.394,137.948,198.119,130.039,198.119,124.861z"/>
	<path d="M242.123,122.417c1.294-5.609,1.726-8.485-1.438-8.485c-3.883,0-8.197,5.177-14.381,16.683l-2.014-1.15
		c3.452-7.191,10.067-20.565,21.572-20.565c4.314,0,8.629,2.444,8.629,8.197c0,2.301-1.294,8.054-1.87,10.642l-4.314,19.128
		c-1.15,4.89-2.301,10.354-2.301,13.23c0,2.732,0.863,7.19,6.759,7.19c14.812,0,27.9-28.188,27.9-42.281
		c0-2.588-1.726-2.876-4.314-3.163c-3.883-0.576-6.041-3.164-6.041-6.185c0-4.89,3.883-6.759,6.616-6.759
		c6.759,0,7.478,7.622,7.478,11.648c0,16.539-13.519,50.91-35.234,50.91c-8.917,0-14.381-4.89-14.381-13.519
		c0-3.164,0.719-6.759,2.014-12.224L242.123,122.417z"/>
	<path d="M342.502,155.925c-8.629,11.793-18.121,15.532-25.456,15.532c-12.656,0-22.579-10.498-22.579-25.599
		c0-7.766,3.02-16.683,8.629-23.441c8.341-9.924,20.853-13.519,28.332-13.519c9.924,0,17.401,5.32,17.401,13.374
		c0,17.114-28.188,20.565-41.131,20.135c-0.288,1.294-1.15,5.608-1.15,11.217c0,2.589,0,14.813,11.937,14.813
		c9.923,0,17.689-8.773,22.291-13.95L342.502,155.925z M318.772,138.955c17.545-4.746,21.14-16.107,21.14-19.559
		c0-0.432,0-7.91-8.916-7.91c-9.06,0-18.696,8.629-22.866,28.907C310.575,140.393,313.163,140.537,318.772,138.955z"/>
	<path d="M400.885,136.941h2.877c0,2.877-0.145,11.218,4.457,18.696c4.604,7.91,13.375,12.225,22.58,12.225
		c13.805,0,23.873-10.643,23.873-20.422c0-9.924-9.061-15.676-18.553-21.572l-6.039-3.883c-8.486-5.033-18.266-11.074-18.266-25.887
		c0-18.12,12.656-30.058,29.051-30.058c9.924,0,17.113,5.034,21.285,9.492l7.189-7.479h2.158l-6.473,28.188h-2.732
		c0.145-4.314,0.432-10.354-2.156-15.676c-4.314-8.484-13.807-11.217-19.559-11.217c-12.369,0-21.141,9.06-21.141,17.257
		c0,7.767,6.184,11.361,17.545,17.978l4.459,2.444c10.93,6.328,22.146,12.943,22.146,29.482c0,16.97-12.656,35.234-33.939,35.234
		c-12.369,0-20.566-7.191-23.873-10.643l-9.349,8.629h-1.87L400.885,136.941z"/>
	<path d="M501.119,171.457c-13.375,0-24.018-11.505-24.018-26.174c0-20.278,19.416-36.385,34.373-36.385
		c13.949,0,23.01,12.799,23.01,25.311c0,7.622-2.877,14.957-7.047,21.141C519.672,166.711,509.461,171.457,501.119,171.457z
		 M522.404,123.999c0-7.335-3.021-12.8-10.787-12.8c-6.184,0-10.643,4.026-13.375,8.485c-4.746,7.622-9.635,26.03-9.635,35.81
		c0,10.642,6.471,13.662,11.361,13.662c9.779,0,13.807-9.061,14.812-11.218c2.301-5.033,4.746-14.237,5.609-17.977
		C521.396,135.36,522.404,129.176,522.404,123.999z"/>
	<path d="M594.881,110.48H606.1l-10.498,45.589c-0.432,1.726-1.295,5.321-1.295,6.903c0,3.451,2.445,3.451,2.732,3.451
		c3.309,0,9.492-6.472,14.812-17.258l2.014,1.15c-3.596,7.766-11.217,20.854-21.428,20.854c-8.918,0-8.918-8.773-8.918-10.931
		c0-3.308,0.432-5.32,1.152-8.484c-2.445,4.17-5.178,9.061-10.068,13.375c-5.178,4.602-10.498,6.327-15.1,6.327
		c-9.061,0-12.369-6.327-12.369-12.08c0-2.876,0.721-5.753,1.295-8.629l8.773-37.535h-13.232l0.721-2.732h24.879l-9.492,40.986
		c-0.719,3.164-1.869,8.054-1.869,9.636c0,4.171,2.732,5.896,5.752,5.896c2.877,0,8.197-1.438,14.814-10.786
		c6.471-8.772,8.629-16.683,10.641-23.441L594.881,110.48z"/>
	<path d="M647.371,134.784c4.17,3.164,10.498,8.054,10.498,16.539c0,10.93-9.924,20.134-23.154,20.134
		c-10.643,0-16.971-6.759-16.971-12.512c0-3.164,2.014-6.472,5.609-6.472c3.309,0,5.178,3.021,5.178,5.608
		c0,2.157-0.719,3.021-2.732,5.178c-0.287,0.432-0.863,1.007-0.863,1.582c0,1.438,4.602,4.026,9.635,4.026
		c7.336,0,14.814-4.458,14.814-10.786c0-4.17-2.445-6.184-7.479-10.21l-3.74-3.164c-8.484-6.903-12.943-10.499-12.943-17.977
		c0-9.492,9.061-17.833,20.422-17.833c7.191,0,14.525,3.595,14.525,9.923c0,2.589-1.582,5.608-5.178,5.608
		c-2.588,0-4.746-1.726-4.746-4.458c0-1.869,1.15-3.164,1.582-3.739c1.008-1.007,1.15-1.15,1.15-1.582
		c0-1.15-2.443-3.164-7.621-3.164c-5.609,0-11.793,3.021-11.793,8.629c0,4.314,3.164,6.903,7.91,10.499L647.371,134.784z"/>
</g>
<g enable-background="new    ">
	<path d="M292.39,213.703h-8.198l-74.639,98.8h-3.308l4.89-52.061l-39.405,52.061h-3.452l9.204-98.8h-11.217l0.575-2.733h93.048
		l-0.432,2.733h-9.636l-23.729,31.782l-4.746,46.452l58.676-78.234h-13.087l0.431-2.733h25.599L292.39,213.703z M183.666,291.937
		l27.9-37.823l3.739-40.411h-24.017L183.666,291.937z M228.967,213.703l-2.588,25.742l19.271-25.742H228.967z"/>
</g>
<g enable-background="new    ">
	<path d="M285.769,314.228c-13.375,0-24.017-11.505-24.017-26.174c0-20.278,19.415-36.385,34.372-36.385
		c13.95,0,23.01,12.799,23.01,25.311c0,7.622-2.876,14.957-7.047,21.141C304.321,309.482,294.11,314.228,285.769,314.228z
		 M307.053,266.77c0-7.335-3.021-12.8-10.786-12.8c-6.184,0-10.643,4.026-13.375,8.485c-4.746,7.622-9.635,26.03-9.635,35.81
		c0,10.642,6.472,13.662,11.361,13.662c9.779,0,13.806-9.061,14.813-11.218c2.301-5.033,4.746-14.237,5.608-17.977
		C306.046,278.132,307.053,271.947,307.053,266.77z"/>
	<path d="M349.617,272.81c4.314-9.636,10.786-21.141,20.854-21.141c4.314,0,7.19,2.444,7.19,6.04c0,2.301-1.438,7.047-6.327,7.047
		c-3.309,0-4.603-2.014-4.891-2.732c-0.432-0.575-0.575-1.438-1.006-2.014c-0.145-0.432-0.72-1.294-2.014-1.294
		c-1.869,0-3.451,1.294-6.184,5.32c-6.616,9.78-9.061,18.408-12.225,30.776l-4.171,17.833H329.34l12.943-56.519h-13.087l0.719-2.732
		h24.017L349.617,272.81z"/>
	<path d="M389.738,210.826h25.311l-20.853,89.165c-0.72,3.164-1.15,4.89-1.15,5.753c0,1.869,1.15,3.308,3.308,3.308
		c5.609,0,11.074-9.636,14.669-16.396l2.157,0.863c-4.314,8.629-10.211,20.422-21.859,20.422c-8.197,0-9.061-7.191-9.061-9.636
		c0-3.021,0.719-6.185,2.589-14.957l17.833-75.79h-13.807L389.738,210.826z"/>
	<path d="M471.566,291.937c-1.438,6.615-2.301,11.218-2.301,13.662c0,2.732,1.726,3.164,2.876,3.164
		c3.164,0,8.485-4.746,14.382-16.683l2.301,1.15c-1.582,3.452-2.877,6.041-5.033,9.349c-4.027,6.04-9.779,11.361-15.532,11.361
		c-5.321,0-8.485-3.884-9.204-9.636c-0.145-1.15-0.287-2.157-0.287-3.308c-0.576,1.007-1.151,2.157-1.87,3.164
		c-4.746,7.047-11.218,10.066-17.114,10.066c-11.793,0-19.702-10.642-19.702-23.873c0-19.99,17.114-38.542,33.221-38.542
		c9.78,0,12.368,6.903,13.663,10.211l11.217-48.466h-13.519l0.72-2.732h25.311L471.566,291.937z M464.951,267.345
		c0-7.479-4.314-12.513-10.067-12.513c-4.171,0-9.204,2.302-13.806,9.78c-4.171,7.047-9.348,23.585-9.348,34.228
		c0,10.211,5.465,12.368,9.203,12.368c4.314,0,7.623-2.157,9.779-4.027c4.891-4.171,8.197-9.779,11.506-23.154
		C464.088,276.405,464.951,270.365,464.951,267.345z"/>
</g>
<g enable-background="new    ">
	<path d="M300.047,11.487c0.195-0.919,0.215-1.036,0.215-1.174c0-0.195-0.04-0.332-0.274-0.332c-0.137,0-0.411,0.098-0.783,0.489
		c-0.469,0.469-0.626,0.782-1.174,1.761l-0.313-0.177c0.47-0.978,1.311-2.797,3.013-2.797c0.606,0,1.271,0.332,1.271,1.135
		c0,0.293-0.195,1.114-0.254,1.467l-0.567,2.582c-0.118,0.509-0.313,1.35-0.313,1.78c0,0.626,0.274,0.978,0.9,0.978
		c1.78,0,3.678-3.677,3.678-5.751c0-0.332-0.235-0.371-0.43-0.41c-0.802-0.118-0.88-0.705-0.88-0.92c0-0.509,0.391-0.86,0.822-0.86
		c0.782,0,1.017,0.86,1.017,1.584c0,2.387-1.937,6.944-4.812,6.944c-0.958,0-2.015-0.469-2.015-1.858
		c0-0.43,0.098-0.938,0.274-1.682L300.047,11.487z"/>
	<path d="M310.611,17.786c-1.839,0-3.345-1.545-3.345-3.579c0-2.739,2.661-4.949,4.773-4.949c1.937,0,3.208,1.741,3.208,3.462
		c0,1.018-0.391,2.016-0.998,2.915C313.154,17.199,311.746,17.786,310.611,17.786z M313.408,11.311c0-0.959-0.391-1.702-1.389-1.702
		c-0.743,0-1.35,0.528-1.741,1.174c-0.548,0.9-1.252,3.521-1.252,4.832c0,1.389,0.782,1.839,1.448,1.839
		c0.547,0,1.056-0.274,1.389-0.665c0.606-0.685,1.037-2.211,1.271-3.306C313.311,12.739,313.408,11.957,313.408,11.311z"/>
	<path d="M317.771,3.721h3.619l-2.837,12.147c-0.059,0.255-0.156,0.626-0.156,0.764c0,0.332,0.215,0.449,0.43,0.449
		c0.744,0,1.545-1.525,1.937-2.269l0.312,0.156c-0.43,0.899-1.35,2.777-3.032,2.777c-0.998,0-1.311-0.743-1.311-1.311
		c0-0.391,0.078-0.782,0.372-2.073l2.406-10.25h-1.878L317.771,3.721z"/>
	<path d="M328.569,9.492h1.722l-1.448,6.201c-0.078,0.372-0.156,0.685-0.156,0.959c0,0.332,0.176,0.41,0.313,0.41
		c0.235,0,0.509-0.215,0.626-0.293c0.626-0.509,0.998-1.252,1.408-2.034l0.293,0.176c-0.391,0.841-1.428,2.836-2.993,2.836
		c-1.311,0-1.311-1.232-1.311-1.525c0-0.353,0.039-0.528,0.098-0.782c-0.743,1.389-2.035,2.347-3.287,2.347
		c-1.095,0-1.76-0.704-1.76-1.662c0-0.392,0.098-0.822,0.195-1.193l1.174-5.047h-1.8l0.098-0.392h3.58l-1.311,5.595
		c-0.059,0.294-0.235,0.939-0.235,1.291c0,0.587,0.411,0.782,0.704,0.782c0.313,0,0.724-0.215,1.037-0.469
		c1.545-1.135,2.054-3.11,2.347-4.187L328.569,9.492z"/>
	<path d="M342.713,11.585c0.098-0.43,0.176-0.782,0.176-1.056c0-0.509-0.431-0.646-0.686-0.646c-0.195,0-0.488,0.078-0.898,0.391
		c-1.331,1.057-1.84,2.954-2.152,4.128l-0.744,3.13h-1.76l1.311-5.556c0.137-0.606,0.254-1.135,0.254-1.447
		c0-0.489-0.371-0.665-0.684-0.665c-0.196,0-0.549,0.078-1.037,0.469c-1.369,1.096-1.84,3.091-2.074,4.108l-0.724,3.11h-1.741
		l1.741-7.668h-1.741l0.098-0.392h3.521l-0.527,2.073c0.723-1.232,1.779-2.308,3.168-2.308c0.803,0,1.683,0.391,1.683,1.486
		c0,0.333-0.078,0.567-0.156,0.841c0.743-1.33,1.897-2.327,3.169-2.327c0.841,0,1.682,0.449,1.682,1.525
		c0,0.372-0.078,0.763-0.156,1.096l-0.664,2.876c-0.079,0.371-0.373,1.682-0.373,1.937c0,0.371,0.274,0.371,0.353,0.371
		c0.235,0,1.057-0.234,1.976-2.308l0.372,0.117c-0.978,2.387-2.406,2.875-3.149,2.875c-0.43,0-1.291-0.195-1.291-1.311
		c0-0.332,0.078-0.646,0.156-0.997L342.713,11.585z"/>
	<path d="M353.512,15.654c-1.193,1.585-2.484,2.132-3.561,2.132c-1.741,0-3.15-1.408-3.15-3.462c0-1.135,0.451-2.367,1.213-3.247
		c1.135-1.33,2.856-1.819,3.913-1.819c1.389,0,2.444,0.743,2.444,1.839c0,2.327-3.951,2.816-5.574,2.758
		c-0.078,0.274-0.176,0.704-0.176,1.526c0,0.391,0,1.995,1.564,1.995c1.232,0,2.074-0.9,3.032-1.917L353.512,15.654z
		 M352.963,10.705c0-0.665-0.449-1.076-1.115-1.076c-1.975,0-2.797,2.778-2.973,3.913C351.457,13.483,352.963,11.781,352.963,10.705
		z"/>
	<path d="M366.736,10.646c0.88,0.195,2.543,1.115,2.543,3.032c0,1.976-1.801,4.107-4.852,4.107c-2.758,0-3.795-1.721-3.795-3.325
		c0-0.763,0.254-1.584,0.86-2.309c1.017-1.213,2.484-1.506,3.169-1.643c-0.763-0.196-1.35-0.509-1.8-1.096
		c-0.353-0.45-0.567-1.096-0.567-1.741c0-1.956,1.819-3.697,4.402-3.697c2.249,0,3.462,1.468,3.462,2.935
		c0,1.624-1.448,3.071-3.462,3.6l-0.294,0.078L366.736,10.646z M367.283,12.798c0-1.173-0.488-2.054-1.779-2.054
		c-0.822,0-1.604,0.411-2.016,1.115c-0.488,0.802-0.92,2.876-0.92,3.658c0,0.234,0,0.919,0.471,1.389
		c0.312,0.312,0.841,0.509,1.408,0.509c2.171,0,2.523-2.23,2.719-3.443C367.225,13.581,367.283,13.189,367.283,12.798z
		 M368.379,6.05c0-1.115-0.606-1.683-1.643-1.683c-0.255,0-1.213,0-1.879,1.037c-0.488,0.743-0.821,2.347-0.821,3.149
		c0,1.369,0.88,1.779,1.683,1.779c1.506,0,2.27-1.271,2.582-3.325C368.379,6.518,368.379,6.147,368.379,6.05z"/>
</g>
<line fill="none" stroke="#000000" stroke-width="0.25" stroke-miterlimit="10" x1="380.028" y1="15.614" x2="554.199" y2="15.614"/>
<line fill="none" stroke="#000000" stroke-width="0.25" stroke-miterlimit="10" x1="120.168" y1="15.614" x2="289.108" y2="15.614"/>
<line fill="none" stroke="#000000" stroke-width="0.25" stroke-miterlimit="10" x1="380.028" y1="13.614" x2="554.199" y2="13.614"/>
<line fill="none" stroke="#000000" stroke-width="0.25" stroke-miterlimit="10" x1="120.168" y1="13.614" x2="289.108" y2="13.614"/>
<line fill="none" stroke="#000000" stroke-width="0.25" stroke-miterlimit="10" x1="380.028" y1="11.614" x2="554.199" y2="11.614"/>
<line fill="none" stroke="#000000" stroke-width="0.25" stroke-miterlimit="10" x1="120.168" y1="11.614" x2="289.108" y2="11.614"/>
<line fill="none" stroke="#000000" stroke-width="0.25" stroke-miterlimit="10" x1="380.028" y1="9.614" x2="554.199" y2="9.614"/>
<line fill="none" stroke="#000000" stroke-width="0.25" stroke-miterlimit="10" x1="120.168" y1="9.614" x2="289.108" y2="9.614"/>
</svg>
