<?xml version="1.0" encoding="utf-8"?>
<!-- Generator: Adobe Illustrator 17.0.0, SVG Export Plug-In . SVG Version: 6.00 Build 0)  -->
<!DOCTYPE svg PUBLIC "-//W3C//DTD SVG 1.1//EN" "http://www.w3.org/Graphics/SVG/1.1/DTD/svg11.dtd">
<svg version="1.1" id="Layer_1" xmlns="http://www.w3.org/2000/svg" xmlns:xlink="http://www.w3.org/1999/xlink" x="0px" y="0px"
	 width="369.625px" height="53.562px" viewBox="0 0 369.625 53.562" enable-background="new 0 0 369.625 53.562"
	 xml:space="preserve">
<g>
	<path d="M171.702,25.275c-2.028,0-3.642,1.941-3.642,4.274c0,1.679,1.111,2.704,2.551,2.704c2.05,0,3.642-1.94,3.642-4.252
		C174.253,26.3,173.141,25.275,171.702,25.275z"/>
	<path d="M98.968,23.116c0-1.221-1.003-1.897-2.747-1.897h-1.613v3.925h1.679C98.009,25.144,98.968,24.36,98.968,23.116z"/>
	<path d="M115.304,30.683c0,0.763,0.567,1.177,1.418,1.177c0.85,0,1.679-0.327,2.398-0.85v-1.504
		c-0.546-0.131-1.222-0.218-1.963-0.218C116.002,29.287,115.304,29.811,115.304,30.683z"/>
	<path d="M44.251,30.683c0,0.763,0.567,1.177,1.418,1.177c0.85,0,1.679-0.327,2.398-0.85v-1.504
		c-0.546-0.131-1.222-0.218-1.963-0.218C44.95,29.287,44.251,29.811,44.251,30.683z"/>
	<path d="M77.031,30.683c0,0.763,0.567,1.177,1.418,1.177c0.85,0,1.679-0.327,2.398-0.85v-1.504
		c-0.546-0.131-1.222-0.218-1.963-0.218C77.729,29.287,77.031,29.811,77.031,30.683z"/>
	<path d="M96.483,27.107h-1.875v4.143h1.94c1.7,0,2.834-0.698,2.834-2.071C99.382,27.848,98.336,27.107,96.483,27.107z"/>
	<path d="M0,0v53.555h322.159L368.905,0H0z M40.325,33.408H29.902v-2.202h1.636v-9.943h-1.636v-2.202h5.996v2.202h-1.896v9.965
		h3.946V29.2h2.377V33.408z M51.796,33.408h-3.686v-1.046c-0.763,0.654-1.919,1.221-3.205,1.221c-1.636,0-3.097-0.894-3.097-2.682
		c0-1.788,1.57-2.878,3.838-2.878c0.981,0,1.897,0.131,2.421,0.262v-0.763c0-0.567-0.131-1.003-0.371-1.309
		c-0.393-0.501-1.024-0.698-1.875-0.698c-0.414,0-0.72,0.065-0.938,0.153c0.043,0.131,0.087,0.349,0.087,0.479
		c0,0.72-0.566,1.243-1.286,1.243s-1.265-0.501-1.265-1.287c0-1.177,1.199-2.42,3.794-2.42c1.635,0,2.747,0.458,3.423,1.287
		c0.502,0.61,0.741,1.439,0.741,2.398v4.078h1.418V33.408z M63.769,33.408h-3.707v-1.526c-0.915,0.894-1.94,1.701-3.336,1.701
		c-1.155,0-2.006-0.479-2.485-1.265c-0.306-0.501-0.479-1.156-0.479-1.919v-4.535h-1.418v-2.006h3.794v5.953
		c0,0.414,0.065,0.719,0.196,0.981c0.219,0.415,0.61,0.632,1.178,0.632c0.828,0,1.701-0.479,2.464-1.112v-4.448h-1.482v-2.006h3.859
		v7.588h1.417V33.408z M72.537,26.736c-0.72,0-1.199-0.414-1.396-0.85c-0.676,0.24-1.461,0.981-1.897,1.81v3.75h1.657v1.962h-5.451
		v-1.962h1.417v-5.582h-1.417v-2.006h3.707v2.159c0.807-1.287,1.81-2.333,3.031-2.333c1.177,0,1.766,0.72,1.766,1.57
		C73.954,26.06,73.323,26.736,72.537,26.736z M84.576,33.408H80.89v-1.046c-0.763,0.654-1.919,1.221-3.205,1.221
		c-1.636,0-3.097-0.894-3.097-2.682c0-1.788,1.57-2.878,3.838-2.878c0.981,0,1.897,0.131,2.421,0.262v-0.763
		c0-0.567-0.131-1.003-0.371-1.309c-0.393-0.501-1.024-0.698-1.875-0.698c-0.414,0-0.72,0.065-0.938,0.153
		c0.043,0.131,0.087,0.349,0.087,0.479c0,0.72-0.566,1.243-1.286,1.243S75.2,26.889,75.2,26.104c0-1.177,1.199-2.42,3.794-2.42
		c1.635,0,2.747,0.458,3.423,1.287c0.502,0.61,0.741,1.439,0.741,2.398v4.078h1.418V33.408z M96.504,33.408H90.53v-2.202h1.636
		v-9.943H90.53v-2.202h5.734c3.511,0,5.233,1.614,5.233,3.772c0,1.657-1.024,2.726-2.442,3.205c1.788,0.523,2.856,1.57,2.856,3.358
		C101.911,31.773,99.993,33.408,96.504,33.408z M110.702,26.736c-0.72,0-1.199-0.414-1.396-0.85c-0.676,0.24-1.461,0.981-1.897,1.81
		v3.75h1.657v1.962h-5.451v-1.962h1.418v-5.582h-1.418v-2.006h3.707v2.159c0.807-1.287,1.81-2.333,3.031-2.333
		c1.177,0,1.766,0.72,1.766,1.57C112.119,26.06,111.488,26.736,110.702,26.736z M122.849,33.408h-3.686v-1.046
		c-0.763,0.654-1.919,1.221-3.205,1.221c-1.636,0-3.097-0.894-3.097-2.682c0-1.788,1.57-2.878,3.838-2.878
		c0.981,0,1.897,0.131,2.421,0.262v-0.763c0-0.567-0.131-1.003-0.371-1.309c-0.393-0.501-1.024-0.698-1.875-0.698
		c-0.414,0-0.72,0.065-0.938,0.153c0.043,0.131,0.087,0.349,0.087,0.479c0,0.72-0.566,1.243-1.286,1.243s-1.265-0.501-1.265-1.287
		c0-1.177,1.199-2.42,3.794-2.42c1.635,0,2.747,0.458,3.423,1.287c0.502,0.61,0.741,1.439,0.741,2.398v4.078h1.418V33.408z
		 M135.738,33.408h-5.102v-1.962h1.308v-3.99c0-0.523-0.108-0.894-0.305-1.156c-0.24-0.305-0.61-0.458-1.068-0.458
		c-0.829,0-1.701,0.48-2.464,1.112v4.492h1.308v1.962h-5.102v-1.962h1.417V19.453h-1.417v-2.006h3.794v7.85
		c0.894-0.851,1.896-1.614,3.249-1.614c1.024,0,1.831,0.371,2.333,1.025c0.414,0.545,0.632,1.287,0.632,2.159v4.579h1.417V33.408z
		 M148.409,33.408h-5.103v-1.962h1.309v-3.99c0-0.393-0.065-0.741-0.196-0.981c-0.218-0.414-0.61-0.632-1.178-0.632
		c-0.828,0-1.7,0.48-2.464,1.112v4.492h1.309v1.962h-5.103v-1.962h1.418v-5.582h-1.418v-2.006h3.707v1.526
		c0.916-0.894,1.94-1.701,3.336-1.701c1.134,0,1.963,0.458,2.464,1.221c0.327,0.523,0.502,1.177,0.502,1.962v4.579h1.417V33.408z
		 M164.7,23.204c-0.653,0-1.111-0.501-1.111-1.112c0-0.327,0.174-0.698,0.545-0.959c-0.349-0.415-1.265-0.894-2.595-0.894
		c-1.767,0-2.922,1.046-2.922,2.355c0,1.286,1.024,1.984,2.66,2.943c1.635,0.981,3.184,2.071,3.184,4.078
		c0,2.311-2.028,4.034-4.841,4.034c-2.878,0-4.972-1.744-4.972-3.271c0-0.894,0.567-1.505,1.309-1.505
		c0.654,0,1.112,0.545,1.112,1.069c0,0.458-0.219,0.829-0.611,1.09c0.458,0.611,1.57,1.2,3.271,1.2c1.657,0,3.053-1.003,3.053-2.508
		c0-1.243-1.047-1.984-2.465-2.813c-1.787-1.046-3.379-2.137-3.379-4.208c0-2.05,1.875-3.881,4.644-3.881
		c2.465,0,4.383,1.439,4.383,2.9C165.964,22.637,165.376,23.204,164.7,23.204z M170.546,33.583c-2.551,0-4.034-1.854-4.034-4.056
		c0-2.878,2.246-5.582,5.256-5.582c2.551,0,4.033,1.875,4.033,4.056C175.801,30.901,173.555,33.583,170.546,33.583z M185.375,33.561
		c-1.025,0-1.701-0.676-1.701-1.767c0-0.131,0.022-0.261,0.044-0.436c-0.785,1.265-1.919,2.203-3.228,2.203
		c-1.396,0-2.464-0.916-2.464-2.355c0-0.48,0.088-0.959,0.196-1.396l1.134-4.361h-1.744l0.349-1.33h3.271l-1.505,5.822
		c-0.087,0.305-0.131,0.654-0.131,1.003c0,0.785,0.545,1.33,1.417,1.33c1.287,0,2.683-1.221,3.228-3.402l1.178-4.753h1.526
		l-1.68,6.76c-0.108,0.371-0.174,0.72-0.174,0.916c0,0.437,0.262,0.676,0.632,0.676c0.414,0,0.807-0.371,1.243-1.461l0.763,0.262
		C187.229,32.841,186.4,33.561,185.375,33.561z M195.931,27.259c-0.523,0-0.959-0.393-0.959-0.916c0-0.218,0.087-0.436,0.239-0.698
		c-0.065-0.043-0.108-0.087-0.327-0.196c-0.326-0.152-0.85-0.261-1.396-0.261c-1.09,0-1.81,0.501-1.81,1.221
		c0,0.742,0.895,1.156,1.984,1.679c1.309,0.61,2.529,1.308,2.529,2.726c0,1.788-1.526,2.748-3.467,2.748
		c-1.352,0-2.595-0.502-3.293-1.199c-0.349-0.349-0.545-0.742-0.545-1.156c0-0.632,0.437-1.134,1.025-1.134
		c0.588,0,0.938,0.436,0.938,0.916c0,0.262-0.109,0.48-0.284,0.698c0.088,0.087,0.175,0.153,0.371,0.262
		c0.437,0.24,1.112,0.415,1.854,0.415c1.024,0,1.875-0.458,1.875-1.287c0-0.851-0.916-1.287-1.919-1.766
		c-1.352-0.632-2.572-1.243-2.572-2.639c0-1.482,1.242-2.66,3.357-2.66c1.221,0,2.268,0.393,2.856,1.003
		c0.349,0.349,0.523,0.72,0.523,1.134C196.912,26.823,196.454,27.259,195.931,27.259z M215.623,23.902
		c-0.697,0-1.155-0.48-1.155-1.09c0-0.414,0.262-0.807,0.633-1.025c-0.24-0.676-1.396-1.526-3.38-1.526
		c-3.707,0-6.367,3.533-6.367,6.934c0,3.14,1.854,4.993,4.622,4.993c1.701,0,3.184-0.719,4.492-2.006l0.959,1.003
		c-1.613,1.657-3.488,2.486-5.604,2.486c-3.357,0-6.148-2.29-6.148-6.323c0-4.579,3.685-8.548,8.111-8.548
		c3.357,0,5.146,2.093,5.146,3.511C216.932,23.269,216.322,23.902,215.623,23.902z M225.416,33.561c-1.134,0-1.854-0.72-1.854-1.723
		c0-0.284,0.065-0.676,0.153-1.025l0.828-3.053c0.109-0.414,0.152-0.741,0.152-1.09c-0.021-0.829-0.653-1.396-1.548-1.396
		c-1.265,0-2.682,1.178-3.205,3.402l-1.091,4.731h-1.525l3.401-14.653h-1.767l0.327-1.308h3.249l-2.006,8.591
		c0.697-1.068,1.788-2.071,3.096-2.071c1.483,0,2.617,1.025,2.639,2.529c0,0.458-0.087,0.959-0.24,1.461l-0.807,3.009
		c-0.087,0.305-0.131,0.632-0.131,0.807c0,0.436,0.262,0.698,0.633,0.698c0.436,0,0.807-0.371,1.221-1.461l0.764,0.262
		C227.248,32.776,226.507,33.561,225.416,33.561z M237.411,29.222h-6.825c-0.021,0.153-0.021,0.305-0.021,0.458
		c0,1.635,1.352,2.595,2.965,2.595c1.047,0,1.876-0.218,3.075-0.851l-0.327,1.483c-0.981,0.479-1.788,0.676-3.053,0.676
		c-2.181,0-4.165-1.396-4.165-3.925c0-3.14,2.377-5.713,5.146-5.713c2.158,0,3.554,1.309,3.554,3.402
		C237.76,27.914,237.651,28.546,237.411,29.222z M246.963,19.693c-0.589,0-1.024-0.414-1.068-1.025
		c-0.327,0.065-0.676,0.24-0.916,0.48c-0.436,0.436-0.763,1.156-1.003,2.137l-0.653,2.834h2.42l-0.327,1.33h-2.398l-1.832,7.959
		h-1.504l1.831-7.959h-1.657l0.327-1.33h1.636l0.697-3.031c0.306-1.352,0.764-2.137,1.396-2.791
		c0.589-0.589,1.461-0.959,2.398-0.959c1.091,0,1.701,0.567,1.701,1.287C248.01,19.257,247.509,19.693,246.963,19.693z"/>
	<path d="M234.141,25.275c-1.461,0-2.77,1.156-3.314,2.77h5.342c0.109-0.284,0.152-0.611,0.152-0.916
		C236.321,26.126,235.645,25.275,234.141,25.275z"/>
</g>
</svg>
