<?xml version="1.0" encoding="utf-8"?>
<!-- Generator: Adobe Illustrator 16.0.0, SVG Export Plug-In . SVG Version: 6.00 Build 0)  -->
<!DOCTYPE svg PUBLIC "-//W3C//DTD SVG 1.1//EN" "http://www.w3.org/Graphics/SVG/1.1/DTD/svg11.dtd">
<svg version="1.1" id="Layer_1" xmlns="http://www.w3.org/2000/svg" xmlns:xlink="http://www.w3.org/1999/xlink" x="0px" y="0px"
	 width="299px" height="80.083px" viewBox="0 0 299 80.083" enable-background="new 0 0 299 80.083" xml:space="preserve">
<g enable-background="new    ">
	<path fill="#231F20" d="M3.799,4.022H2.616L3,2.339h4.499L7.115,4.022H5.732l0.383,5.766l3.749-6.382h0.934l1.416,6.448
		l2.583-5.832h-1.333l0.383-1.683h4.499l-0.383,1.683H16.93l-4.649,9.364h-0.983L9.731,6.938l-4.033,6.448l-0.966,0.017L3.799,4.022
		z"/>
	<path fill="#231F20" d="M18.267,11.803c0-0.25,0.033-0.533,0.1-0.816l0.85-3.449H17.9l0.4-1.532h3.166l-1.25,4.965
		c-0.083,0.316-0.117,0.583-0.117,0.767c0,0.316,0.15,0.467,0.4,0.467c0.3,0,0.616-0.184,0.983-1.2l0.733,0.283
		c-0.5,1.717-1.333,2.149-2.283,2.149C18.8,13.436,18.267,12.787,18.267,11.803z M19.583,3.873c0-0.634,0.517-1.117,1.133-1.117
		c0.617,0,1.133,0.483,1.133,1.117c0,0.633-0.517,1.116-1.133,1.116C20.1,4.989,19.583,4.505,19.583,3.873z"/>
	<path fill="#231F20" d="M23.333,11.787c0-0.25,0.033-0.517,0.1-0.8l1.933-8.348H24l0.4-1.533h3.166l-2.283,9.864
		c-0.066,0.3-0.117,0.533-0.117,0.717c0,0.366,0.117,0.517,0.383,0.517c0.3,0,0.617-0.184,0.983-1.2l0.733,0.283
		c-0.5,1.717-1.333,2.149-2.283,2.149C23.85,13.436,23.333,12.787,23.333,11.787z"/>
	<path fill="#231F20" d="M31.933,5.872c0.983,0,1.716,0.8,2.016,1.566l1.116-4.799h-1.35l0.4-1.533h3.133l-2.3,9.864
		c-0.083,0.351-0.133,0.601-0.133,0.783c0,0.3,0.116,0.45,0.366,0.45c0.217,0,0.566-0.184,0.933-1.2l0.733,0.283
		c-0.5,1.717-1.45,2.149-2.25,2.149c-0.95,0-1.5-0.649-1.5-1.649c-0.6,0.9-1.483,1.649-2.616,1.649c-1.366,0-2.35-1.133-2.35-2.832
		C28.133,8.087,29.816,5.872,31.933,5.872z M33.666,9.038c0-0.95-0.467-1.55-1.433-1.55c-1.216,0-2.199,1.366-2.199,2.85
		c0,0.866,0.433,1.55,1.316,1.55C32.566,11.887,33.666,10.604,33.666,9.038z"/>
	<path fill="#231F20" d="M42.699,7.538h-1.333l0.399-1.532h2.85l-0.367,1.683c0.5-0.934,1.4-1.816,2.333-1.816
		c1.033,0,1.716,0.75,1.833,1.816c0.633-1.116,1.533-1.816,2.366-1.816c1.017,0,1.866,0.75,1.866,2.183
		c0,0.367-0.05,0.767-0.183,1.217l-0.533,1.916c-0.05,0.2-0.083,0.366-0.083,0.517c0,0.333,0.133,0.5,0.383,0.5
		s0.566-0.184,0.933-1.2l0.733,0.283c-0.434,1.517-1.217,2.149-2.2,2.149c-1.15,0-1.7-0.683-1.7-1.616
		c0-0.267,0.033-0.55,0.117-0.833l0.517-1.85c0.083-0.267,0.117-0.517,0.117-0.716c0-0.667-0.433-1.017-0.917-1.017
		c-0.716,0-1.233,0.583-1.516,1.766l-1.033,4.133h-1.866l1.05-4.133c0.066-0.283,0.117-0.6,0.117-0.799
		c0-0.551-0.4-0.967-0.917-0.967c-0.717,0-1.233,0.583-1.517,1.766l-1.033,4.133H41.25L42.699,7.538z"/>
	<path fill="#231F20" d="M58.465,6.005l-1.05,4.215c-0.05,0.233-0.1,0.45-0.1,0.65c0,0.666,0.333,1.033,0.899,1.033
		c0.883,0,1.35-0.566,1.616-1.633l1.066-4.266h1.866l-1.25,4.965c-0.083,0.316-0.133,0.601-0.133,0.783c0,0.3,0.117,0.45,0.367,0.45
		c0.216,0,0.566-0.184,0.933-1.2l0.733,0.283c-0.5,1.717-1.433,2.149-2.233,2.149c-0.933,0-1.5-0.633-1.516-1.616
		c-0.6,0.983-1.5,1.616-2.433,1.616c-0.95,0-1.816-0.749-1.816-2.016c0-0.383,0.067-0.866,0.184-1.366l0.616-2.517h-1.316l0.4-1.532
		H58.465z"/>
	<path fill="#231F20" d="M64.482,12.52c-0.3-0.3-0.483-0.649-0.483-1.033c0-0.633,0.417-1.033,0.95-1.033
		c0.5,0,0.917,0.417,0.917,0.917c0,0.133-0.05,0.333-0.1,0.399c0.067,0.05,0.15,0.101,0.25,0.15
		c0.333,0.149,0.767,0.217,1.216,0.217c0.683,0,1.316-0.2,1.316-0.684c0-0.55-0.767-0.8-1.583-1.149
		c-0.95-0.384-1.983-0.9-1.983-2.133c0-1.184,1-2.3,3.016-2.3c1.033,0,1.916,0.333,2.416,0.85c0.283,0.283,0.433,0.634,0.433,1
		c0,0.616-0.433,1.017-0.95,1.017c-0.5,0-0.933-0.434-0.933-0.934c0-0.133,0.017-0.199,0.1-0.399
		c-0.067-0.033-0.133-0.066-0.233-0.1c-0.233-0.084-0.533-0.134-0.816-0.134c-0.6,0-1.216,0.184-1.216,0.667
		c0,0.516,0.783,0.799,1.616,1.166c0.95,0.416,1.95,0.967,1.95,2.116c0,1.466-1.15,2.315-3.149,2.315
		C66.016,13.436,65.033,13.07,64.482,12.52z"/>
	<path fill="#231F20" d="M73.932,2.639h-1.366l0.4-1.533h3.116l-1.433,6.232c0.5-0.767,1.35-1.467,2.232-1.467
		c1.05,0,1.95,0.75,1.95,2.183c0,0.367-0.05,0.767-0.183,1.217l-0.533,1.916c-0.05,0.2-0.083,0.366-0.083,0.517
		c0,0.333,0.133,0.5,0.383,0.5s0.566-0.184,0.933-1.2l0.733,0.283c-0.433,1.517-1.216,2.149-2.199,2.149
		c-1.15,0-1.7-0.683-1.7-1.616c0-0.267,0.033-0.55,0.117-0.833l0.55-1.966c0.067-0.217,0.083-0.417,0.083-0.6
		c0-0.634-0.383-1.017-1-1.017c-0.783,0-1.333,0.517-1.6,1.666l-0.983,4.232h-1.866L73.932,2.639z"/>
	<path fill="#231F20" d="M82.398,7.538h-1.333l0.4-1.532h2.849l-0.467,2.133c0.85-1.55,1.716-2.267,2.583-2.267
		c0.616,0,1.216,0.483,1.216,1.2c0,0.633-0.517,1.149-1.15,1.149c-0.583,0-1.016-0.417-1.1-0.833c-0.533,0.166-1.383,1.116-1.75,2.6
		l-0.833,3.315h-1.866L82.398,7.538z"/>
	<path fill="#231F20" d="M87.666,10.121c0-2.183,1.716-4.249,4.132-4.249c2.2,0,3.433,1.55,3.433,3.316
		c0,2.183-1.716,4.248-4.132,4.248C88.898,13.436,87.666,11.887,87.666,10.121z M93.381,9.188c0-1.184-0.75-1.8-1.649-1.8
		c-1.216,0-2.216,1.166-2.216,2.732c0,1.183,0.75,1.8,1.65,1.8C92.381,11.92,93.381,10.753,93.381,9.188z"/>
	<path fill="#231F20" d="M96.365,10.121c0-2.183,1.716-4.249,4.132-4.249c2.2,0,3.433,1.55,3.433,3.316
		c0,2.183-1.716,4.248-4.132,4.248C97.599,13.436,96.365,11.887,96.365,10.121z M102.081,9.188c0-1.184-0.75-1.8-1.649-1.8
		c-1.216,0-2.216,1.166-2.216,2.732c0,1.183,0.75,1.8,1.649,1.8C101.081,11.92,102.081,10.753,102.081,9.188z"/>
	<path fill="#231F20" d="M106.398,7.538h-1.333l0.399-1.532h2.85l-0.367,1.683c0.5-0.934,1.4-1.816,2.333-1.816
		c1.033,0,1.716,0.75,1.833,1.816c0.633-1.116,1.533-1.816,2.366-1.816c1.017,0,1.866,0.75,1.866,2.183
		c0,0.367-0.05,0.767-0.183,1.217l-0.533,1.916c-0.05,0.2-0.083,0.366-0.083,0.517c0,0.333,0.133,0.5,0.383,0.5
		s0.566-0.184,0.933-1.2l0.733,0.283c-0.434,1.517-1.217,2.149-2.2,2.149c-1.15,0-1.7-0.683-1.7-1.616
		c0-0.267,0.033-0.55,0.117-0.833l0.517-1.85c0.083-0.267,0.117-0.517,0.117-0.716c0-0.667-0.433-1.017-0.917-1.017
		c-0.716,0-1.233,0.583-1.516,1.766l-1.033,4.133h-1.866l1.05-4.133c0.066-0.283,0.117-0.6,0.117-0.799
		c0-0.551-0.4-0.967-0.917-0.967c-0.717,0-1.233,0.583-1.517,1.766l-1.033,4.133h-1.866L106.398,7.538z"/>
	<path fill="#231F20" d="M122.064,12.52c-0.3-0.3-0.483-0.649-0.483-1.033c0-0.633,0.417-1.033,0.95-1.033
		c0.5,0,0.917,0.417,0.917,0.917c0,0.133-0.05,0.333-0.1,0.399c0.067,0.05,0.15,0.101,0.25,0.15
		c0.333,0.149,0.767,0.217,1.216,0.217c0.683,0,1.316-0.2,1.316-0.684c0-0.55-0.767-0.8-1.583-1.149
		c-0.95-0.384-1.983-0.9-1.983-2.133c0-1.184,1-2.3,3.016-2.3c1.033,0,1.916,0.333,2.416,0.85c0.283,0.283,0.433,0.634,0.433,1
		c0,0.616-0.433,1.017-0.95,1.017c-0.5,0-0.933-0.434-0.933-0.934c0-0.133,0.017-0.199,0.1-0.399
		c-0.067-0.033-0.133-0.066-0.233-0.1c-0.233-0.084-0.533-0.134-0.816-0.134c-0.6,0-1.216,0.184-1.216,0.667
		c0,0.516,0.783,0.799,1.616,1.166c0.95,0.416,1.95,0.967,1.95,2.116c0,1.466-1.15,2.315-3.149,2.315
		C123.598,13.436,122.615,13.07,122.064,12.52z"/>
	<path fill="#231F20" d="M129.231,10.604c0-2.517,1.683-4.732,3.799-4.732c0.966,0,1.75,0.8,2.049,1.633l0.5-1.499h1.7l-1.25,4.965
		c-0.083,0.316-0.133,0.601-0.133,0.783c0,0.3,0.117,0.45,0.367,0.45c0.217,0,0.566-0.184,0.933-1.2l0.733,0.283
		c-0.5,1.717-1.433,2.149-2.233,2.149c-0.95,0-1.5-0.649-1.5-1.649c-0.6,0.9-1.483,1.649-2.616,1.649
		C130.215,13.436,129.231,12.303,129.231,10.604z M134.764,9.038c0-0.95-0.467-1.55-1.433-1.55c-1.216,0-2.199,1.366-2.199,2.85
		c0,0.866,0.433,1.55,1.316,1.55C133.664,11.887,134.764,10.604,134.764,9.038z"/>
	<path fill="#231F20" d="M139.048,11.787c0-0.25,0.033-0.517,0.1-0.8l1.933-8.348h-1.366l0.4-1.533h3.166l-2.283,9.864
		c-0.066,0.3-0.117,0.533-0.117,0.717c0,0.366,0.117,0.517,0.383,0.517c0.3,0,0.617-0.184,0.983-1.2l0.733,0.283
		c-0.5,1.717-1.333,2.149-2.283,2.149C139.564,13.436,139.048,12.787,139.048,11.787z"/>
	<path fill="#231F20" d="M143.848,10.604c0-2.517,1.683-4.732,3.799-4.732c0.966,0,1.75,0.8,2.049,1.633l0.5-1.499h1.699
		l-1.25,4.965c-0.083,0.316-0.133,0.601-0.133,0.783c0,0.3,0.116,0.45,0.366,0.45c0.217,0,0.566-0.184,0.933-1.2l0.734,0.283
		c-0.5,1.717-1.434,2.149-2.233,2.149c-0.95,0-1.5-0.649-1.5-1.649c-0.6,0.9-1.483,1.649-2.616,1.649
		C144.832,13.436,143.848,12.303,143.848,10.604z M149.38,9.038c0-0.95-0.467-1.55-1.433-1.55c-1.216,0-2.199,1.366-2.199,2.85
		c0,0.866,0.433,1.55,1.316,1.55C148.281,11.887,149.38,10.604,149.38,9.038z"/>
	<path fill="#231F20" d="M157.297,5.872c0.983,0,1.717,0.8,2.017,1.566l1.116-4.799h-1.35l0.4-1.533h3.133l-2.3,9.864
		c-0.083,0.351-0.134,0.601-0.134,0.783c0,0.3,0.117,0.45,0.367,0.45c0.217,0,0.566-0.184,0.933-1.2l0.733,0.283
		c-0.5,1.717-1.449,2.149-2.25,2.149c-0.949,0-1.499-0.649-1.499-1.649c-0.601,0.9-1.483,1.649-2.616,1.649
		c-1.366,0-2.35-1.133-2.35-2.832C153.498,8.087,155.182,5.872,157.297,5.872z M159.03,9.038c0-0.95-0.467-1.55-1.433-1.55
		c-1.217,0-2.199,1.366-2.199,2.85c0,0.866,0.433,1.55,1.315,1.55C157.931,11.887,159.03,10.604,159.03,9.038z"/>
	<path fill="#231F20" d="M167.647,7.538h-1.333l0.4-1.532h2.532l0.25,5.298l2.316-4.549h1.216l0.867,4.616
		c0.883-1.35,1.615-2.6,1.732-3.383c-0.383-0.116-0.75-0.483-0.75-1.033c0-0.6,0.483-1.083,1.084-1.083
		c0.783,0,1.316,0.566,1.316,1.5c0,1.083-0.934,2.982-3.184,6.064h-1.232l-0.867-4.016l-2.282,4.016h-1.399L167.647,7.538z"/>
	<path fill="#231F20" d="M178.864,11.803c0-0.25,0.033-0.533,0.101-0.816l0.85-3.449h-1.316l0.399-1.532h3.166l-1.249,4.965
		c-0.084,0.316-0.117,0.583-0.117,0.767c0,0.316,0.15,0.467,0.4,0.467c0.299,0,0.615-0.184,0.982-1.2l0.733,0.283
		c-0.5,1.717-1.333,2.149-2.283,2.149C179.397,13.436,178.864,12.787,178.864,11.803z M180.181,3.873
		c0-0.634,0.517-1.117,1.133-1.117s1.134,0.483,1.134,1.117c0,0.633-0.518,1.116-1.134,1.116S180.181,4.505,180.181,3.873z"/>
	<path fill="#231F20" d="M187.063,7.538l-0.783,3.166c-0.066,0.267-0.116,0.533-0.116,0.667c0,0.5,0.25,0.666,0.533,0.666
		c0.383,0,0.666-0.1,1.399-0.583l0.6,0.833c-0.999,0.95-1.916,1.149-2.632,1.149c-0.967,0-1.783-0.516-1.783-1.749
		c0-0.283,0.066-0.616,0.149-0.983l0.783-3.166h-1.35l0.351-1.532h1.365l0.4-1.583l2.049-0.733l-0.582,2.316h2.216l-0.384,1.532
		H187.063z"/>
	<path fill="#231F20" d="M192.047,2.639h-1.366l0.399-1.533h3.116l-1.433,6.232c0.5-0.767,1.35-1.467,2.232-1.467
		c1.05,0,1.949,0.75,1.949,2.183c0,0.367-0.049,0.767-0.183,1.217l-0.533,1.916c-0.05,0.2-0.083,0.366-0.083,0.517
		c0,0.333,0.133,0.5,0.383,0.5s0.566-0.184,0.934-1.2l0.732,0.283c-0.434,1.517-1.217,2.149-2.199,2.149
		c-1.15,0-1.699-0.683-1.699-1.616c0-0.267,0.033-0.55,0.116-0.833l0.55-1.966c0.066-0.217,0.084-0.417,0.084-0.6
		c0-0.634-0.384-1.017-1-1.017c-0.783,0-1.334,0.517-1.6,1.666l-0.983,4.232h-1.866L192.047,2.639z"/>
	<path fill="#231F20" d="M202.164,11.621h1.166l1.767-7.599h-1.333l0.383-1.683h3.583c1.133,0,1.966,0.116,2.599,0.433
		c0.884,0.434,1.467,1.267,1.467,2.267c0,1.466-1.232,2.499-2.582,2.683c1.115,0.316,1.898,1.25,1.898,2.25
		c0,0.982-0.35,1.766-1.016,2.315c-0.551,0.45-1.316,0.75-2.3,0.9c-0.5,0.083-1.05,0.116-1.666,0.116h-4.349L202.164,11.621z
		 M206.413,11.654c0.417,0,0.783-0.033,1.083-0.083c0.55-0.101,0.934-0.268,1.199-0.533c0.301-0.301,0.434-0.684,0.434-1.184
		c0-0.933-0.866-1.366-2.082-1.366h-1.101l-0.749,3.166H206.413z M207.047,6.988c1.799,0,2.766-0.6,2.766-1.699
		c0-0.467-0.268-0.917-0.783-1.1c-0.35-0.134-0.834-0.2-1.517-0.2h-0.533l-0.7,2.999H207.047z"/>
	<path fill="#231F20" d="M213.813,7.538h-1.333l0.399-1.532h2.85l-0.467,2.133c0.851-1.55,1.716-2.267,2.583-2.267
		c0.616,0,1.217,0.483,1.217,1.2c0,0.633-0.518,1.149-1.15,1.149c-0.583,0-1.016-0.417-1.1-0.833c-0.533,0.166-1.383,1.116-1.75,2.6
		l-0.832,3.315h-1.867L213.813,7.538z"/>
	<path fill="#231F20" d="M223.129,6.005l-1.049,4.215c-0.051,0.233-0.101,0.45-0.101,0.65c0,0.666,0.333,1.033,0.899,1.033
		c0.884,0,1.35-0.566,1.617-1.633l1.066-4.266h1.865l-1.249,4.965c-0.083,0.316-0.134,0.601-0.134,0.783
		c0,0.3,0.117,0.45,0.367,0.45c0.217,0,0.566-0.184,0.934-1.2l0.732,0.283c-0.5,1.717-1.433,2.149-2.232,2.149
		c-0.934,0-1.5-0.633-1.517-1.616c-0.6,0.983-1.499,1.616-2.433,1.616c-0.949,0-1.816-0.749-1.816-2.016
		c0-0.383,0.066-0.866,0.184-1.366l0.616-2.517h-1.316l0.399-1.532H223.129z"/>
	<path fill="#231F20" d="M229.146,12.52c-0.3-0.3-0.482-0.649-0.482-1.033c0-0.633,0.416-1.033,0.949-1.033
		c0.5,0,0.916,0.417,0.916,0.917c0,0.133-0.05,0.333-0.1,0.399c0.066,0.05,0.15,0.101,0.25,0.15
		c0.333,0.149,0.767,0.217,1.217,0.217c0.683,0,1.316-0.2,1.316-0.684c0-0.55-0.768-0.8-1.584-1.149
		c-0.949-0.384-1.982-0.9-1.982-2.133c0-1.184,1-2.3,3.016-2.3c1.033,0,1.916,0.333,2.416,0.85c0.283,0.283,0.434,0.634,0.434,1
		c0,0.616-0.434,1.017-0.949,1.017c-0.5,0-0.934-0.434-0.934-0.934c0-0.133,0.017-0.199,0.1-0.399
		c-0.066-0.033-0.133-0.066-0.232-0.1c-0.234-0.084-0.533-0.134-0.816-0.134c-0.601,0-1.217,0.184-1.217,0.667
		c0,0.516,0.783,0.799,1.616,1.166c0.95,0.416,1.95,0.967,1.95,2.116c0,1.466-1.15,2.315-3.15,2.315
		C230.68,13.436,229.697,13.07,229.146,12.52z"/>
	<path fill="#231F20" d="M236.63,12.52c-0.3-0.3-0.483-0.649-0.483-1.033c0-0.633,0.416-1.033,0.949-1.033
		c0.5,0,0.917,0.417,0.917,0.917c0,0.133-0.05,0.333-0.101,0.399c0.067,0.05,0.15,0.101,0.25,0.15
		c0.334,0.149,0.768,0.217,1.217,0.217c0.684,0,1.316-0.2,1.316-0.684c0-0.55-0.767-0.8-1.583-1.149
		c-0.95-0.384-1.983-0.9-1.983-2.133c0-1.184,1-2.3,3.017-2.3c1.033,0,1.916,0.333,2.416,0.85c0.283,0.283,0.433,0.634,0.433,1
		c0,0.616-0.433,1.017-0.949,1.017c-0.5,0-0.934-0.434-0.934-0.934c0-0.133,0.018-0.199,0.101-0.399
		c-0.067-0.033-0.134-0.066-0.233-0.1c-0.233-0.084-0.533-0.134-0.816-0.134c-0.6,0-1.217,0.184-1.217,0.667
		c0,0.516,0.783,0.799,1.617,1.166c0.949,0.416,1.949,0.967,1.949,2.116c0,1.466-1.15,2.315-3.149,2.315
		C238.162,13.436,237.18,13.07,236.63,12.52z"/>
	<path fill="#231F20" d="M245.729,10.271v0.116c0,0.816,0.667,1.533,2.05,1.533c0.732,0,1.499-0.167,2.416-0.65l-0.351,1.667
		c-0.767,0.366-1.399,0.499-2.482,0.499c-1.783,0-3.433-1.116-3.433-3.132c0-2.483,1.766-4.433,3.949-4.433
		c1.85,0,3.133,1,3.133,2.816c0,0.466-0.084,0.999-0.268,1.583H245.729z M245.93,9.004h3.266c0.05-0.184,0.066-0.35,0.066-0.5
		c0-0.717-0.467-1.133-1.35-1.133C246.996,7.372,246.279,8.004,245.93,9.004z"/>
	<path fill="#231F20" d="M252.297,11.787c0-0.25,0.033-0.517,0.1-0.8l1.933-8.348h-1.366l0.4-1.533h3.165l-2.282,9.864
		c-0.066,0.3-0.117,0.533-0.117,0.717c0,0.366,0.117,0.517,0.383,0.517c0.301,0,0.617-0.184,0.984-1.2l0.732,0.283
		c-0.5,1.717-1.333,2.149-2.283,2.149C252.812,13.436,252.297,12.787,252.297,11.787z"/>
	<path fill="#231F20" d="M257.246,12.52c-0.3-0.3-0.482-0.649-0.482-1.033c0-0.633,0.416-1.033,0.949-1.033
		c0.5,0,0.916,0.417,0.916,0.917c0,0.133-0.05,0.333-0.1,0.399c0.066,0.05,0.15,0.101,0.25,0.15
		c0.333,0.149,0.767,0.217,1.217,0.217c0.683,0,1.316-0.2,1.316-0.684c0-0.55-0.768-0.8-1.584-1.149
		c-0.949-0.384-1.982-0.9-1.982-2.133c0-1.184,1-2.3,3.016-2.3c1.033,0,1.916,0.333,2.416,0.85c0.283,0.283,0.434,0.634,0.434,1
		c0,0.616-0.434,1.017-0.949,1.017c-0.5,0-0.934-0.434-0.934-0.934c0-0.133,0.017-0.199,0.1-0.399
		c-0.066-0.033-0.133-0.066-0.232-0.1c-0.234-0.084-0.533-0.134-0.816-0.134c-0.601,0-1.217,0.184-1.217,0.667
		c0,0.516,0.783,0.799,1.616,1.166c0.95,0.416,1.95,0.967,1.95,2.116c0,1.466-1.15,2.315-3.15,2.315
		C258.779,13.436,257.797,13.07,257.246,12.52z"/>
</g>
<g enable-background="new    ">
	<path fill="#231F20" d="M1.733,33.353c-0.3-0.3-0.483-0.649-0.483-1.033c0-0.633,0.417-1.033,0.95-1.033
		c0.5,0,0.917,0.417,0.917,0.917c0,0.133-0.05,0.333-0.1,0.399c0.067,0.05,0.15,0.101,0.25,0.15C3.6,32.903,4.033,32.97,4.482,32.97
		c0.683,0,1.316-0.2,1.316-0.684c0-0.55-0.767-0.8-1.583-1.149c-0.95-0.384-1.983-0.9-1.983-2.133c0-1.184,1-2.3,3.016-2.3
		c1.033,0,1.916,0.333,2.416,0.85c0.283,0.283,0.433,0.634,0.433,1c0,0.616-0.433,1.017-0.95,1.017c-0.5,0-0.933-0.434-0.933-0.934
		c0-0.133,0.017-0.199,0.1-0.399c-0.067-0.033-0.133-0.066-0.233-0.1c-0.233-0.084-0.533-0.134-0.816-0.134
		c-0.6,0-1.216,0.184-1.216,0.667c0,0.516,0.783,0.799,1.616,1.166c0.95,0.416,1.95,0.967,1.95,2.116
		c0,1.466-1.15,2.315-3.149,2.315C3.266,34.269,2.283,33.903,1.733,33.353z"/>
	<path fill="#231F20" d="M7.684,35.903h1.05l1.75-7.532H9.117l0.4-1.532h2.899l-0.367,1.666c0.6-0.95,1.566-1.8,2.683-1.8
		c1.683,0,2.516,1.166,2.516,2.866c0,2.516-1.683,4.698-3.882,4.698c-1.033,0-1.733-0.732-2.083-1.549l-0.733,3.183h1.299
		l-0.4,1.499H7.284L7.684,35.903z M15.349,29.821c0-0.866-0.483-1.566-1.4-1.566c-1.266,0-2.366,1.3-2.366,2.866
		c0,0.949,0.483,1.532,1.483,1.532C14.332,32.653,15.349,31.303,15.349,29.821z"/>
	<path fill="#231F20" d="M19.916,28.371h-1.333l0.399-1.532h2.85l-0.467,2.133c0.85-1.55,1.716-2.267,2.583-2.267
		c0.616,0,1.216,0.483,1.216,1.2c0,0.633-0.517,1.149-1.15,1.149c-0.583,0-1.016-0.417-1.1-0.833c-0.533,0.166-1.383,1.116-1.75,2.6
		l-0.833,3.315h-1.866L19.916,28.371z"/>
	<path fill="#231F20" d="M25.183,30.954c0-2.183,1.716-4.249,4.132-4.249c2.2,0,3.433,1.55,3.433,3.316
		c0,2.183-1.716,4.248-4.132,4.248C26.416,34.269,25.183,32.72,25.183,30.954z M30.898,30.021c0-1.184-0.75-1.8-1.649-1.8
		c-1.216,0-2.216,1.166-2.216,2.732c0,1.183,0.75,1.8,1.65,1.8C29.899,32.753,30.898,31.586,30.898,30.021z"/>
	<path fill="#231F20" d="M37.432,26.838l-1.05,4.215c-0.05,0.233-0.1,0.45-0.1,0.65c0,0.666,0.333,1.033,0.9,1.033
		c0.883,0,1.35-0.566,1.616-1.633l1.066-4.266h1.866l-1.25,4.965c-0.083,0.316-0.133,0.601-0.133,0.783c0,0.3,0.117,0.45,0.367,0.45
		c0.216,0,0.566-0.184,0.933-1.2l0.733,0.283c-0.5,1.717-1.433,2.149-2.232,2.149c-0.934,0-1.5-0.633-1.517-1.616
		c-0.6,0.983-1.5,1.616-2.433,1.616c-0.95,0-1.816-0.749-1.816-2.016c0-0.383,0.067-0.866,0.184-1.366l0.616-2.517h-1.316l0.4-1.532
		H37.432z"/>
	<path fill="#231F20" d="M46.599,28.371l-0.783,3.166c-0.066,0.267-0.117,0.533-0.117,0.667c0,0.5,0.25,0.666,0.533,0.666
		c0.383,0,0.667-0.1,1.4-0.583l0.6,0.833c-1,0.95-1.916,1.149-2.632,1.149c-0.967,0-1.783-0.516-1.783-1.749
		c0-0.283,0.067-0.616,0.15-0.983l0.783-3.166h-1.35l0.35-1.532h1.366l0.4-1.583l2.049-0.733l-0.583,2.316h2.216l-0.383,1.532
		H46.599z"/>
	<path fill="#231F20" d="M49.616,33.353c-0.3-0.3-0.483-0.649-0.483-1.033c0-0.633,0.417-1.033,0.95-1.033
		c0.5,0,0.917,0.417,0.917,0.917c0,0.133-0.05,0.333-0.1,0.399c0.067,0.05,0.15,0.101,0.25,0.15
		c0.333,0.149,0.767,0.217,1.216,0.217c0.683,0,1.316-0.2,1.316-0.684c0-0.55-0.767-0.8-1.583-1.149
		c-0.95-0.384-1.983-0.9-1.983-2.133c0-1.184,1-2.3,3.016-2.3c1.033,0,1.916,0.333,2.416,0.85c0.283,0.283,0.433,0.634,0.433,1
		c0,0.616-0.433,1.017-0.95,1.017c-0.5,0-0.933-0.434-0.933-0.934c0-0.133,0.017-0.199,0.1-0.399
		c-0.067-0.033-0.133-0.066-0.233-0.1c-0.233-0.084-0.533-0.134-0.816-0.134c-0.6,0-1.216,0.184-1.216,0.667
		c0,0.516,0.783,0.799,1.616,1.166c0.95,0.416,1.95,0.967,1.95,2.116c0,1.466-1.15,2.315-3.149,2.315
		C51.149,34.269,50.166,33.903,49.616,33.353z"/>
	<path fill="#231F20" d="M55.383,36.069c1.716-0.982,2.232-1.732,2.283-2.032c-0.566-0.267-0.8-0.834-0.8-1.134
		c0-0.767,0.616-1.383,1.366-1.383s1.399,0.583,1.399,1.517c0,1.316-1.616,2.949-3.849,3.799L55.383,36.069z"/>
	<path fill="#231F20" d="M65.999,28.371h-1.266l0.4-1.532h1.216l0.35-1.5c0.283-1.233,0.7-2.033,1.25-2.583
		c0.683-0.683,1.566-0.949,2.366-0.949c1.1,0,1.6,0.649,1.6,1.232c0,0.684-0.517,1.117-1.117,1.117
		c-0.516,0-0.933-0.351-1.016-0.767c-0.2,0.066-0.383,0.199-0.483,0.3c-0.316,0.316-0.583,0.866-0.8,1.8l-0.316,1.35h1.916
		l-0.4,1.532h-1.866l-1.316,5.766h-1.833L65.999,28.371z"/>
	<path fill="#231F20" d="M71.749,28.371h-1.333l0.399-1.532h2.85l-0.467,2.133c0.85-1.55,1.716-2.267,2.583-2.267
		c0.616,0,1.216,0.483,1.216,1.2c0,0.633-0.517,1.149-1.15,1.149c-0.583,0-1.016-0.417-1.1-0.833c-0.533,0.166-1.383,1.116-1.75,2.6
		l-0.833,3.315h-1.866L71.749,28.371z"/>
	<path fill="#231F20" d="M77.849,32.636c0-0.25,0.033-0.533,0.1-0.816l0.85-3.449h-1.316l0.4-1.532h3.166l-1.25,4.965
		c-0.083,0.316-0.117,0.583-0.117,0.767c0,0.316,0.15,0.467,0.4,0.467c0.3,0,0.616-0.184,0.983-1.2l0.733,0.283
		c-0.5,1.717-1.333,2.149-2.283,2.149C78.382,34.269,77.849,33.62,77.849,32.636z M79.165,24.706c0-0.634,0.517-1.117,1.133-1.117
		c0.617,0,1.133,0.483,1.133,1.117c0,0.633-0.517,1.116-1.133,1.116C79.682,25.822,79.165,25.338,79.165,24.706z"/>
	<path fill="#231F20" d="M82.898,33.353c-0.3-0.3-0.483-0.649-0.483-1.033c0-0.633,0.417-1.033,0.95-1.033
		c0.5,0,0.917,0.417,0.917,0.917c0,0.133-0.05,0.333-0.1,0.399c0.067,0.05,0.15,0.101,0.25,0.15
		c0.333,0.149,0.767,0.217,1.216,0.217c0.683,0,1.316-0.2,1.316-0.684c0-0.55-0.767-0.8-1.583-1.149
		c-0.95-0.384-1.983-0.9-1.983-2.133c0-1.184,1-2.3,3.016-2.3c1.033,0,1.916,0.333,2.416,0.85c0.283,0.283,0.433,0.634,0.433,1
		c0,0.616-0.433,1.017-0.95,1.017c-0.5,0-0.933-0.434-0.933-0.934c0-0.133,0.017-0.199,0.1-0.399
		c-0.067-0.033-0.133-0.066-0.233-0.1c-0.233-0.084-0.533-0.134-0.816-0.134c-0.6,0-1.216,0.184-1.216,0.667
		c0,0.516,0.783,0.799,1.616,1.166c0.95,0.416,1.95,0.967,1.95,2.116c0,1.466-1.15,2.315-3.149,2.315
		C84.432,34.269,83.449,33.903,82.898,33.353z"/>
	<path fill="#231F20" d="M91.999,31.104v0.116c0,0.816,0.667,1.533,2.049,1.533c0.733,0,1.5-0.167,2.416-0.65l-0.35,1.667
		c-0.767,0.366-1.4,0.499-2.483,0.499c-1.783,0-3.433-1.116-3.433-3.132c0-2.483,1.766-4.433,3.949-4.433
		c1.85,0,3.132,1,3.132,2.816c0,0.466-0.083,0.999-0.267,1.583H91.999z M92.198,29.837h3.266c0.05-0.184,0.066-0.35,0.066-0.5
		c0-0.717-0.466-1.133-1.35-1.133C93.265,28.205,92.548,28.837,92.198,29.837z M94.231,25.239l2.05-2.316
		c0.25-0.283,0.566-0.45,0.9-0.45c0.45,0,0.8,0.384,0.8,0.833c0,0.367-0.233,0.733-0.6,0.967l-2.633,1.566L94.231,25.239z"/>
	<path fill="#231F20" d="M100.165,31.104v0.116c0,0.816,0.667,1.533,2.049,1.533c0.733,0,1.5-0.167,2.416-0.65l-0.35,1.667
		c-0.766,0.366-1.399,0.499-2.482,0.499c-1.783,0-3.433-1.116-3.433-3.132c0-2.483,1.766-4.433,3.949-4.433
		c1.85,0,3.132,1,3.132,2.816c0,0.466-0.083,0.999-0.267,1.583H100.165z M100.365,29.837h3.266c0.05-0.184,0.066-0.35,0.066-0.5
		c0-0.717-0.466-1.133-1.35-1.133C101.431,28.205,100.715,28.837,100.365,29.837z"/>
	<path fill="#231F20" d="M104.999,36.069c1.716-0.982,2.232-1.732,2.283-2.032c-0.567-0.267-0.8-0.834-0.8-1.134
		c0-0.767,0.616-1.383,1.366-1.383s1.4,0.583,1.4,1.517c0,1.316-1.617,2.949-3.849,3.799L104.999,36.069z"/>
	<path fill="#231F20" d="M112.898,35.903h1.05l1.75-7.532h-1.366l0.4-1.532h2.899l-0.367,1.666c0.6-0.95,1.566-1.8,2.683-1.8
		c1.683,0,2.516,1.166,2.516,2.866c0,2.516-1.683,4.698-3.882,4.698c-1.033,0-1.733-0.732-2.083-1.549l-0.733,3.183h1.299
		l-0.4,1.499h-4.166L112.898,35.903z M120.563,29.821c0-0.866-0.483-1.566-1.4-1.566c-1.266,0-2.366,1.3-2.366,2.866
		c0,0.949,0.483,1.532,1.483,1.532C119.547,32.653,120.563,31.303,120.563,29.821z"/>
	<path fill="#231F20" d="M124.048,32.636c0-0.25,0.033-0.533,0.1-0.816l0.85-3.449h-1.316l0.4-1.532h3.166l-1.25,4.965
		c-0.083,0.316-0.117,0.583-0.117,0.767c0,0.316,0.15,0.467,0.4,0.467c0.3,0,0.616-0.184,0.983-1.2l0.733,0.283
		c-0.5,1.717-1.333,2.149-2.283,2.149C124.582,34.269,124.048,33.62,124.048,32.636z M125.365,24.706
		c0-0.634,0.517-1.117,1.133-1.117c0.617,0,1.133,0.483,1.133,1.117c0,0.633-0.517,1.116-1.133,1.116
		C125.881,25.822,125.365,25.338,125.365,24.706z"/>
	<path fill="#231F20" d="M133.73,32.653c0-0.267,0.033-0.55,0.117-0.833l0.55-1.966c0.067-0.217,0.083-0.417,0.083-0.6
		c0-0.634-0.383-1.017-1-1.017c-0.783,0-1.299,0.55-1.566,1.633l-1.066,4.266h-1.866l1.45-5.766h-1.333l0.399-1.532h2.85
		l-0.367,1.683c0.5-0.934,1.5-1.816,2.483-1.816c1.05,0,1.916,0.75,1.916,2.183c0,0.367-0.05,0.767-0.183,1.217l-0.533,1.916
		c-0.05,0.2-0.083,0.366-0.083,0.517c0,0.333,0.133,0.5,0.383,0.5s0.566-0.184,0.933-1.2l0.733,0.283
		c-0.434,1.517-1.217,2.149-2.2,2.149C134.28,34.269,133.73,33.586,133.73,32.653z"/>
	<path fill="#231F20" d="M140.265,31.104v0.116c0,0.816,0.667,1.533,2.049,1.533c0.733,0,1.5-0.167,2.416-0.65l-0.35,1.667
		c-0.766,0.366-1.399,0.499-2.482,0.499c-1.783,0-3.433-1.116-3.433-3.132c0-2.483,1.766-4.433,3.949-4.433
		c1.85,0,3.132,1,3.132,2.816c0,0.466-0.083,0.999-0.267,1.583H140.265z M140.464,29.837h3.266c0.05-0.184,0.066-0.35,0.066-0.5
		c0-0.717-0.466-1.133-1.35-1.133C141.531,28.205,140.814,28.837,140.464,29.837z"/>
	<path fill="#231F20" d="M154.896,32.653c0-0.267,0.033-0.55,0.117-0.833l0.549-1.966c0.067-0.217,0.084-0.417,0.084-0.6
		c0-0.634-0.383-1.017-1-1.017c-0.783,0-1.299,0.55-1.566,1.633l-1.066,4.266h-1.865l1.449-5.766h-1.333l0.399-1.532h2.85
		l-0.367,1.683c0.5-0.934,1.5-1.816,2.483-1.816c1.05,0,1.916,0.75,1.916,2.183c0,0.367-0.05,0.767-0.183,1.217l-0.533,1.916
		c-0.051,0.2-0.084,0.366-0.084,0.517c0,0.333,0.133,0.5,0.383,0.5s0.566-0.184,0.934-1.2l0.733,0.283
		c-0.434,1.517-1.217,2.149-2.2,2.149C155.446,34.269,154.896,33.586,154.896,32.653z"/>
	<path fill="#231F20" d="M163.363,26.838l-1.05,4.215c-0.05,0.233-0.1,0.45-0.1,0.65c0,0.666,0.333,1.033,0.899,1.033
		c0.883,0,1.35-0.566,1.616-1.633l1.066-4.266h1.866l-1.25,4.965c-0.083,0.316-0.133,0.601-0.133,0.783c0,0.3,0.117,0.45,0.367,0.45
		c0.216,0,0.566-0.184,0.933-1.2l0.733,0.283c-0.5,1.717-1.434,2.149-2.233,2.149c-0.933,0-1.499-0.633-1.517-1.616
		c-0.6,0.983-1.499,1.616-2.432,1.616c-0.95,0-1.816-0.749-1.816-2.016c0-0.383,0.066-0.866,0.184-1.366l0.615-2.517h-1.316
		l0.4-1.532H163.363z"/>
	<path fill="#231F20" d="M172.53,28.371l-0.783,3.166c-0.066,0.267-0.116,0.533-0.116,0.667c0,0.5,0.25,0.666,0.533,0.666
		c0.383,0,0.666-0.1,1.399-0.583l0.6,0.833c-0.999,0.95-1.916,1.149-2.632,1.149c-0.967,0-1.783-0.516-1.783-1.749
		c0-0.283,0.066-0.616,0.149-0.983l0.783-3.166h-1.35l0.351-1.532h1.365l0.4-1.583l2.049-0.733l-0.582,2.316h2.216l-0.384,1.532
		H172.53z"/>
	<path fill="#231F20" d="M175.548,33.353c-0.3-0.3-0.483-0.649-0.483-1.033c0-0.633,0.416-1.033,0.949-1.033
		c0.5,0,0.917,0.417,0.917,0.917c0,0.133-0.05,0.333-0.101,0.399c0.067,0.05,0.15,0.101,0.25,0.15
		c0.334,0.149,0.768,0.217,1.217,0.217c0.684,0,1.316-0.2,1.316-0.684c0-0.55-0.767-0.8-1.583-1.149
		c-0.95-0.384-1.983-0.9-1.983-2.133c0-1.184,1-2.3,3.017-2.3c1.033,0,1.916,0.333,2.416,0.85c0.283,0.283,0.433,0.634,0.433,1
		c0,0.616-0.433,1.017-0.949,1.017c-0.5,0-0.934-0.434-0.934-0.934c0-0.133,0.018-0.199,0.101-0.399
		c-0.067-0.033-0.134-0.066-0.233-0.1c-0.233-0.084-0.533-0.134-0.816-0.134c-0.6,0-1.217,0.184-1.217,0.667
		c0,0.516,0.783,0.799,1.617,1.166c0.949,0.416,1.949,0.967,1.949,2.116c0,1.466-1.15,2.315-3.149,2.315
		C177.08,34.269,176.098,33.903,175.548,33.353z"/>
	<path fill="#231F20" d="M181.314,36.069c1.716-0.982,2.232-1.732,2.283-2.032c-0.567-0.267-0.801-0.834-0.801-1.134
		c0-0.767,0.617-1.383,1.367-1.383s1.399,0.583,1.399,1.517c0,1.316-1.616,2.949-3.849,3.799L181.314,36.069z"/>
	<path fill="#231F20" d="M190.747,33.353c-0.3-0.3-0.483-0.649-0.483-1.033c0-0.633,0.416-1.033,0.949-1.033
		c0.5,0,0.917,0.417,0.917,0.917c0,0.133-0.05,0.333-0.101,0.399c0.067,0.05,0.15,0.101,0.25,0.15
		c0.334,0.149,0.768,0.217,1.217,0.217c0.684,0,1.316-0.2,1.316-0.684c0-0.55-0.767-0.8-1.583-1.149
		c-0.95-0.384-1.983-0.9-1.983-2.133c0-1.184,1-2.3,3.017-2.3c1.033,0,1.916,0.333,2.416,0.85c0.283,0.283,0.433,0.634,0.433,1
		c0,0.616-0.433,1.017-0.949,1.017c-0.5,0-0.934-0.434-0.934-0.934c0-0.133,0.018-0.199,0.101-0.399
		c-0.067-0.033-0.134-0.066-0.233-0.1c-0.233-0.084-0.533-0.134-0.816-0.134c-0.6,0-1.217,0.184-1.217,0.667
		c0,0.516,0.783,0.799,1.617,1.166c0.949,0.416,1.949,0.967,1.949,2.116c0,1.466-1.15,2.315-3.149,2.315
		C192.279,34.269,191.297,33.903,190.747,33.353z"/>
	<path fill="#231F20" d="M199.146,28.371h-1.333l0.399-1.532h2.533l0.25,5.298l2.316-4.549h1.217l0.865,4.616
		c0.884-1.35,1.617-2.6,1.733-3.383c-0.384-0.116-0.749-0.483-0.749-1.033c0-0.6,0.482-1.083,1.082-1.083
		c0.783,0,1.316,0.566,1.316,1.5c0,1.083-0.933,2.982-3.182,6.064h-1.233l-0.866-4.016l-2.283,4.016h-1.4L199.146,28.371z"/>
	<path fill="#231F20" d="M211.48,31.104v0.116c0,0.816,0.666,1.533,2.049,1.533c0.733,0,1.5-0.167,2.416-0.65l-0.35,1.667
		c-0.767,0.366-1.4,0.499-2.482,0.499c-1.783,0-3.434-1.116-3.434-3.132c0-2.483,1.767-4.433,3.949-4.433
		c1.85,0,3.133,1,3.133,2.816c0,0.466-0.083,0.999-0.267,1.583H211.48z M211.68,29.837h3.266c0.051-0.184,0.066-0.35,0.066-0.5
		c0-0.717-0.466-1.133-1.35-1.133C212.746,28.205,212.029,28.837,211.68,29.837z"/>
	<path fill="#231F20" d="M219.646,31.104v0.116c0,0.816,0.666,1.533,2.049,1.533c0.733,0,1.5-0.167,2.416-0.65l-0.35,1.667
		c-0.766,0.366-1.399,0.499-2.482,0.499c-1.783,0-3.433-1.116-3.433-3.132c0-2.483,1.767-4.433,3.949-4.433
		c1.85,0,3.132,1,3.132,2.816c0,0.466-0.082,0.999-0.266,1.583H219.646z M219.846,29.837h3.267c0.05-0.184,0.066-0.35,0.066-0.5
		c0-0.717-0.466-1.133-1.35-1.133C220.912,28.205,220.196,28.837,219.846,29.837z"/>
	<path fill="#231F20" d="M229.346,28.371l-0.783,3.166c-0.066,0.267-0.117,0.533-0.117,0.667c0,0.5,0.25,0.666,0.533,0.666
		c0.384,0,0.667-0.1,1.4-0.583l0.6,0.833c-1,0.95-1.916,1.149-2.633,1.149c-0.967,0-1.783-0.516-1.783-1.749
		c0-0.283,0.067-0.616,0.15-0.983l0.783-3.166h-1.35l0.35-1.532h1.367l0.399-1.583l2.05-0.733l-0.584,2.316h2.217l-0.383,1.532
		H229.346z"/>
	<path fill="#231F20" d="M237.146,28.371h-1.333l0.4-1.532h2.85l-0.467,2.133c0.85-1.55,1.716-2.267,2.582-2.267
		c0.617,0,1.217,0.483,1.217,1.2c0,0.633-0.517,1.149-1.15,1.149c-0.582,0-1.016-0.417-1.1-0.833
		c-0.533,0.166-1.383,1.116-1.749,2.6l-0.833,3.315h-1.866L237.146,28.371z"/>
	<path fill="#231F20" d="M244.196,31.104v0.116c0,0.816,0.667,1.533,2.05,1.533c0.732,0,1.499-0.167,2.416-0.65l-0.351,1.667
		c-0.767,0.366-1.399,0.499-2.482,0.499c-1.783,0-3.433-1.116-3.433-3.132c0-2.483,1.766-4.433,3.949-4.433
		c1.85,0,3.133,1,3.133,2.816c0,0.466-0.084,0.999-0.268,1.583H244.196z M244.396,29.837h3.266c0.05-0.184,0.066-0.35,0.066-0.5
		c0-0.717-0.467-1.133-1.35-1.133C245.463,28.205,244.746,28.837,244.396,29.837z"/>
	<path fill="#231F20" d="M254.396,26.705c0.983,0,1.716,0.8,2.017,1.566l1.115-4.799h-1.35l0.4-1.533h3.133l-2.3,9.864
		c-0.083,0.351-0.133,0.601-0.133,0.783c0,0.3,0.116,0.45,0.366,0.45c0.217,0,0.566-0.184,0.934-1.2l0.732,0.283
		c-0.5,1.717-1.449,2.149-2.249,2.149c-0.95,0-1.499-0.649-1.499-1.649c-0.601,0.9-1.483,1.649-2.617,1.649
		c-1.365,0-2.35-1.133-2.35-2.832C250.596,28.92,252.279,26.705,254.396,26.705z M256.129,29.871c0-0.95-0.467-1.55-1.434-1.55
		c-1.217,0-2.199,1.366-2.199,2.85c0,0.866,0.434,1.55,1.316,1.55C255.029,32.72,256.129,31.437,256.129,29.871z"/>
	<path fill="#231F20" d="M264.746,28.371h-1.334l0.4-1.532h2.533l0.25,5.298l2.316-4.549h1.216l0.866,4.616
		c0.883-1.35,1.616-2.6,1.732-3.383c-0.383-0.116-0.749-0.483-0.749-1.033c0-0.6,0.483-1.083,1.083-1.083
		c0.783,0,1.316,0.566,1.316,1.5c0,1.083-0.934,2.982-3.183,6.064h-1.233l-0.866-4.016l-2.282,4.016h-1.4L264.746,28.371z"/>
	<path fill="#231F20" d="M275.963,32.636c0-0.25,0.033-0.533,0.1-0.816l0.85-3.449h-1.316l0.4-1.532h3.166l-1.25,4.965
		c-0.084,0.316-0.117,0.583-0.117,0.767c0,0.316,0.15,0.467,0.4,0.467c0.3,0,0.616-0.184,0.982-1.2l0.734,0.283
		c-0.5,1.717-1.334,2.149-2.283,2.149C276.496,34.269,275.963,33.62,275.963,32.636z M277.279,24.706
		c0-0.634,0.516-1.117,1.133-1.117c0.616,0,1.133,0.483,1.133,1.117c0,0.633-0.517,1.116-1.133,1.116
		C277.795,25.822,277.279,25.338,277.279,24.706z"/>
	<path fill="#231F20" d="M285.645,32.653c0-0.267,0.033-0.55,0.117-0.833l0.549-1.966c0.067-0.217,0.084-0.417,0.084-0.6
		c0-0.634-0.383-1.017-1-1.017c-0.783,0-1.299,0.55-1.566,1.633l-1.066,4.266h-1.865l1.449-5.766h-1.333l0.399-1.532h2.85
		l-0.367,1.683c0.5-0.934,1.5-1.816,2.483-1.816c1.05,0,1.916,0.75,1.916,2.183c0,0.367-0.05,0.767-0.183,1.217l-0.533,1.916
		c-0.051,0.2-0.084,0.366-0.084,0.517c0,0.333,0.133,0.5,0.383,0.5s0.566-0.184,0.934-1.2l0.733,0.283
		c-0.434,1.517-1.217,2.149-2.2,2.149C286.194,34.269,285.645,33.586,285.645,32.653z"/>
	<path fill="#231F20" d="M292.179,31.104v0.116c0,0.816,0.667,1.533,2.05,1.533c0.732,0,1.499-0.167,2.416-0.65l-0.351,1.667
		c-0.767,0.366-1.399,0.499-2.482,0.499c-1.783,0-3.433-1.116-3.433-3.132c0-2.483,1.766-4.433,3.949-4.433
		c1.85,0,3.133,1,3.133,2.816c0,0.466-0.084,0.999-0.268,1.583H292.179z M292.379,29.837h3.266c0.05-0.184,0.066-0.35,0.066-0.5
		c0-0.717-0.467-1.133-1.35-1.133C293.445,28.205,292.729,28.837,292.379,29.837z"/>
</g>
<g enable-background="new    ">
	<path fill="#231F20" d="M3.066,49.205H1.733l0.399-1.532h2.85l-0.467,2.133c0.85-1.55,1.716-2.267,2.583-2.267
		c0.616,0,1.216,0.483,1.216,1.2c0,0.633-0.517,1.149-1.15,1.149c-0.583,0-1.016-0.417-1.1-0.833c-0.533,0.166-1.383,1.116-1.75,2.6
		L3.483,54.97H1.617L3.066,49.205z"/>
	<path fill="#231F20" d="M10.116,51.938v0.116c0,0.816,0.667,1.533,2.049,1.533c0.733,0,1.5-0.167,2.416-0.65l-0.35,1.667
		c-0.766,0.366-1.399,0.499-2.482,0.499c-1.783,0-3.433-1.116-3.433-3.132c0-2.483,1.766-4.433,3.949-4.433
		c1.85,0,3.132,1,3.132,2.816c0,0.466-0.083,0.999-0.267,1.583H10.116z M10.316,50.671h3.266c0.05-0.184,0.066-0.35,0.066-0.5
		c0-0.717-0.466-1.133-1.35-1.133C11.382,49.039,10.666,49.671,10.316,50.671z"/>
	<path fill="#231F20" d="M20.315,47.539c0.983,0,1.716,0.8,2.016,1.566l1.116-4.799h-1.35l0.4-1.533h3.133l-2.3,9.864
		c-0.083,0.351-0.133,0.601-0.133,0.783c0,0.3,0.116,0.45,0.366,0.45c0.217,0,0.566-0.184,0.933-1.2l0.733,0.283
		c-0.5,1.717-1.45,2.149-2.25,2.149c-0.95,0-1.5-0.649-1.5-1.649c-0.6,0.9-1.483,1.649-2.616,1.649c-1.366,0-2.35-1.133-2.35-2.832
		C16.516,49.754,18.199,47.539,20.315,47.539z M22.048,50.705c0-0.95-0.467-1.55-1.433-1.55c-1.216,0-2.199,1.366-2.199,2.85
		c0,0.866,0.433,1.55,1.316,1.55C20.949,53.554,22.048,52.271,22.048,50.705z"/>
	<path fill="#231F20" d="M29.849,47.672l-1.05,4.215c-0.05,0.233-0.1,0.45-0.1,0.65c0,0.666,0.333,1.033,0.899,1.033
		c0.883,0,1.35-0.566,1.616-1.633l1.066-4.266h1.866l-1.25,4.965c-0.083,0.316-0.133,0.601-0.133,0.783c0,0.3,0.117,0.45,0.367,0.45
		c0.216,0,0.566-0.184,0.933-1.2l0.733,0.283c-0.5,1.717-1.433,2.149-2.233,2.149c-0.933,0-1.5-0.633-1.516-1.616
		c-0.6,0.983-1.5,1.616-2.433,1.616c-0.95,0-1.816-0.749-1.816-2.016c0-0.383,0.067-0.866,0.184-1.366l0.616-2.517h-1.316l0.4-1.532
		H29.849z"/>
	<path fill="#231F20" d="M35.699,51.788c0-2.366,2-4.249,4.349-4.249c1.466,0,2.732,0.883,2.732,2.166
		c0,0.717-0.417,1.316-1.116,1.316c-0.583,0-1.05-0.467-1.05-1.05c0-0.267,0.1-0.5,0.25-0.699c-0.217-0.15-0.533-0.217-0.867-0.217
		c-1.066,0-2.449,0.75-2.449,2.6c0,1.232,0.85,1.933,1.916,1.933c0.85,0,1.716-0.3,2.466-0.816l-0.017,1.616
		c-0.683,0.467-1.583,0.716-2.566,0.716C37.299,55.103,35.699,53.871,35.699,51.788z"/>
	<path fill="#231F20" d="M47.148,49.205l-0.783,3.166c-0.066,0.267-0.117,0.533-0.117,0.667c0,0.5,0.25,0.666,0.533,0.666
		c0.383,0,0.667-0.1,1.4-0.583l0.6,0.833c-1,0.95-1.916,1.149-2.632,1.149c-0.967,0-1.783-0.516-1.783-1.749
		c0-0.283,0.067-0.616,0.15-0.983l0.783-3.166h-1.35l0.35-1.532h1.366l0.4-1.583l2.049-0.733l-0.583,2.316h2.216l-0.383,1.532
		H47.148z"/>
	<path fill="#231F20" d="M50.499,53.47c0-0.25,0.033-0.533,0.1-0.816l0.85-3.449h-1.316l0.4-1.532h3.166l-1.25,4.965
		c-0.083,0.316-0.117,0.583-0.117,0.767c0,0.316,0.15,0.467,0.4,0.467c0.3,0,0.616-0.184,0.983-1.2l0.733,0.283
		c-0.5,1.717-1.333,2.149-2.283,2.149C51.032,55.103,50.499,54.454,50.499,53.47z M51.815,45.54c0-0.634,0.517-1.117,1.133-1.117
		c0.617,0,1.133,0.483,1.133,1.117c0,0.633-0.517,1.116-1.133,1.116C52.332,46.656,51.815,46.172,51.815,45.54z"/>
	<path fill="#231F20" d="M55.382,51.788c0-2.183,1.716-4.249,4.132-4.249c2.2,0,3.433,1.55,3.433,3.316
		c0,2.183-1.716,4.248-4.132,4.248C56.615,55.103,55.382,53.554,55.382,51.788z M61.098,50.855c0-1.184-0.75-1.8-1.649-1.8
		c-1.216,0-2.216,1.166-2.216,2.732c0,1.183,0.75,1.8,1.65,1.8C60.098,53.587,61.098,52.42,61.098,50.855z"/>
	<path fill="#231F20" d="M68.881,53.487c0-0.267,0.033-0.55,0.117-0.833l0.55-1.966c0.067-0.217,0.083-0.417,0.083-0.6
		c0-0.634-0.383-1.017-1-1.017c-0.783,0-1.299,0.55-1.566,1.633l-1.066,4.266h-1.866l1.45-5.766h-1.333l0.399-1.532h2.85
		l-0.367,1.683c0.5-0.934,1.5-1.816,2.483-1.816c1.05,0,1.916,0.75,1.916,2.183c0,0.367-0.05,0.767-0.183,1.217l-0.533,1.916
		c-0.05,0.2-0.083,0.366-0.083,0.517c0,0.333,0.133,0.5,0.383,0.5s0.566-0.184,0.933-1.2l0.733,0.283
		c-0.434,1.517-1.217,2.149-2.2,2.149C69.431,55.103,68.881,54.42,68.881,53.487z"/>
	<path fill="#231F20" d="M72.083,56.903c1.716-0.982,2.232-1.732,2.283-2.032c-0.567-0.267-0.8-0.834-0.8-1.134
		c0-0.767,0.616-1.383,1.366-1.383s1.4,0.583,1.4,1.517c0,1.316-1.617,2.949-3.849,3.799L72.083,56.903z"/>
	<path fill="#231F20" d="M81.365,52.271c0-2.517,1.683-4.732,3.799-4.732c0.966,0,1.75,0.8,2.049,1.633l0.5-1.499h1.7l-1.25,4.965
		c-0.083,0.316-0.133,0.601-0.133,0.783c0,0.3,0.117,0.45,0.367,0.45c0.217,0,0.566-0.184,0.933-1.2l0.733,0.283
		c-0.5,1.717-1.433,2.149-2.233,2.149c-0.95,0-1.5-0.649-1.5-1.649c-0.6,0.9-1.483,1.649-2.616,1.649
		C82.349,55.103,81.365,53.97,81.365,52.271z M86.897,50.705c0-0.95-0.467-1.55-1.433-1.55c-1.216,0-2.199,1.366-2.199,2.85
		c0,0.866,0.433,1.55,1.316,1.55C85.798,53.554,86.897,52.271,86.897,50.705z"/>
	<path fill="#231F20" d="M95.797,53.487c0-0.267,0.034-0.55,0.117-0.833l0.55-1.966c0.067-0.217,0.083-0.417,0.083-0.6
		c0-0.634-0.383-1.017-1-1.017c-0.783,0-1.299,0.55-1.566,1.633l-1.066,4.266h-1.866l1.449-5.766h-1.333l0.4-1.532h2.849
		l-0.367,1.683c0.5-0.934,1.5-1.816,2.483-1.816c1.05,0,1.916,0.75,1.916,2.183c0,0.367-0.05,0.767-0.183,1.217l-0.533,1.916
		c-0.05,0.2-0.083,0.366-0.083,0.517c0,0.333,0.133,0.5,0.383,0.5s0.566-0.184,0.933-1.2l0.733,0.283
		c-0.433,1.517-1.216,2.149-2.199,2.149C96.347,55.103,95.797,54.42,95.797,53.487z"/>
	<path fill="#231F20" d="M104.364,47.539c0.983,0,1.716,0.8,2.016,1.566l1.116-4.799h-1.35l0.4-1.533h3.133l-2.3,9.864
		c-0.083,0.351-0.133,0.601-0.133,0.783c0,0.3,0.116,0.45,0.366,0.45c0.217,0,0.566-0.184,0.933-1.2l0.733,0.283
		c-0.5,1.717-1.45,2.149-2.25,2.149c-0.95,0-1.5-0.649-1.5-1.649c-0.6,0.9-1.483,1.649-2.616,1.649c-1.366,0-2.35-1.133-2.35-2.832
		C100.565,49.754,102.248,47.539,104.364,47.539z M106.097,50.705c0-0.95-0.467-1.55-1.433-1.55c-1.216,0-2.199,1.366-2.199,2.85
		c0,0.866,0.433,1.55,1.316,1.55C104.998,53.554,106.097,52.271,106.097,50.705z"/>
	<path fill="#231F20" d="M113.648,52.271c0-2.517,1.683-4.732,3.799-4.732c0.966,0,1.75,0.8,2.049,1.633l0.5-1.499h1.7l-1.25,4.965
		c-0.083,0.316-0.133,0.601-0.133,0.783c0,0.3,0.117,0.45,0.367,0.45c0.217,0,0.566-0.184,0.933-1.2l0.733,0.283
		c-0.5,1.717-1.433,2.149-2.233,2.149c-0.95,0-1.5-0.649-1.5-1.649c-0.6,0.9-1.483,1.649-2.616,1.649
		C114.631,55.103,113.648,53.97,113.648,52.271z M119.18,50.705c0-0.95-0.467-1.55-1.433-1.55c-1.216,0-2.199,1.366-2.199,2.85
		c0,0.866,0.433,1.55,1.316,1.55C118.081,53.554,119.18,52.271,119.18,50.705z"/>
	<path fill="#231F20" d="M128.23,49.205h-1.333l0.4-1.532h2.849l-0.367,1.683c0.5-0.934,1.4-1.816,2.333-1.816
		c1.033,0,1.716,0.75,1.833,1.816c0.633-1.116,1.533-1.816,2.366-1.816c1.017,0,1.866,0.75,1.866,2.183
		c0,0.367-0.05,0.767-0.183,1.217l-0.533,1.916c-0.05,0.2-0.083,0.366-0.083,0.517c0,0.333,0.133,0.5,0.383,0.5
		s0.566-0.184,0.933-1.2l0.733,0.283c-0.433,1.517-1.216,2.149-2.199,2.149c-1.15,0-1.7-0.683-1.7-1.616
		c0-0.267,0.034-0.55,0.117-0.833l0.517-1.85c0.083-0.267,0.117-0.517,0.117-0.716c0-0.667-0.433-1.017-0.917-1.017
		c-0.716,0-1.233,0.583-1.516,1.766l-1.033,4.133h-1.866l1.05-4.133c0.066-0.283,0.117-0.6,0.117-0.799
		c0-0.551-0.4-0.967-0.917-0.967c-0.717,0-1.233,0.583-1.517,1.766l-1.033,4.133h-1.866L128.23,49.205z"/>
	<path fill="#231F20" d="M143.997,47.672l-1.05,4.215c-0.05,0.233-0.1,0.45-0.1,0.65c0,0.666,0.333,1.033,0.9,1.033
		c0.883,0,1.35-0.566,1.616-1.633l1.066-4.266h1.866l-1.25,4.965c-0.083,0.316-0.133,0.601-0.133,0.783c0,0.3,0.117,0.45,0.367,0.45
		c0.216,0,0.566-0.184,0.933-1.2l0.733,0.283c-0.5,1.717-1.433,2.149-2.232,2.149c-0.934,0-1.5-0.633-1.517-1.616
		c-0.6,0.983-1.5,1.616-2.433,1.616c-0.95,0-1.816-0.749-1.816-2.016c0-0.383,0.067-0.866,0.184-1.366l0.616-2.517h-1.316l0.4-1.532
		H143.997z"/>
	<path fill="#231F20" d="M150.015,54.187c-0.3-0.3-0.483-0.649-0.483-1.033c0-0.633,0.417-1.033,0.949-1.033
		c0.5,0,0.917,0.417,0.917,0.917c0,0.133-0.05,0.333-0.101,0.399c0.067,0.05,0.15,0.101,0.25,0.15
		c0.334,0.149,0.768,0.217,1.217,0.217c0.684,0,1.316-0.2,1.316-0.684c0-0.55-0.767-0.8-1.583-1.149
		c-0.95-0.384-1.983-0.9-1.983-2.133c0-1.184,1-2.3,3.017-2.3c1.033,0,1.916,0.333,2.416,0.85c0.283,0.283,0.433,0.634,0.433,1
		c0,0.616-0.433,1.017-0.949,1.017c-0.5,0-0.934-0.434-0.934-0.934c0-0.133,0.018-0.199,0.101-0.399
		c-0.067-0.033-0.134-0.066-0.233-0.1c-0.233-0.084-0.533-0.134-0.816-0.134c-0.6,0-1.217,0.184-1.217,0.667
		c0,0.516,0.783,0.799,1.617,1.166c0.949,0.416,1.949,0.967,1.949,2.116c0,1.466-1.15,2.315-3.149,2.315
		C151.547,55.103,150.564,54.737,150.015,54.187z"/>
	<path fill="#231F20" d="M159.463,44.306h-1.365l0.399-1.533h3.116l-1.434,6.232c0.5-0.767,1.35-1.467,2.232-1.467
		c1.051,0,1.95,0.75,1.95,2.183c0,0.367-0.05,0.767-0.183,1.217l-0.533,1.916c-0.051,0.2-0.084,0.366-0.084,0.517
		c0,0.333,0.133,0.5,0.383,0.5s0.566-0.184,0.934-1.2l0.732,0.283c-0.433,1.517-1.216,2.149-2.199,2.149
		c-1.149,0-1.699-0.683-1.699-1.616c0-0.267,0.033-0.55,0.117-0.833l0.549-1.966c0.067-0.217,0.084-0.417,0.084-0.6
		c0-0.634-0.383-1.017-1-1.017c-0.783,0-1.333,0.517-1.6,1.666l-0.982,4.232h-1.867L159.463,44.306z"/>
	<path fill="#231F20" d="M167.931,49.205h-1.333l0.399-1.532h2.85l-0.467,2.133c0.851-1.55,1.716-2.267,2.583-2.267
		c0.616,0,1.217,0.483,1.217,1.2c0,0.633-0.518,1.149-1.15,1.149c-0.583,0-1.016-0.417-1.1-0.833c-0.533,0.166-1.383,1.116-1.75,2.6
		l-0.832,3.315h-1.867L167.931,49.205z"/>
	<path fill="#231F20" d="M173.197,51.788c0-2.183,1.717-4.249,4.133-4.249c2.199,0,3.432,1.55,3.432,3.316
		c0,2.183-1.716,4.248-4.132,4.248C174.431,55.103,173.197,53.554,173.197,51.788z M178.912,50.855c0-1.184-0.749-1.8-1.648-1.8
		c-1.217,0-2.217,1.166-2.217,2.732c0,1.183,0.75,1.8,1.649,1.8C177.913,53.587,178.912,52.42,178.912,50.855z"/>
	<path fill="#231F20" d="M181.896,51.788c0-2.183,1.717-4.249,4.133-4.249c2.199,0,3.433,1.55,3.433,3.316
		c0,2.183-1.716,4.248-4.132,4.248C183.13,55.103,181.896,53.554,181.896,51.788z M187.612,50.855c0-1.184-0.75-1.8-1.649-1.8
		c-1.217,0-2.217,1.166-2.217,2.732c0,1.183,0.75,1.8,1.65,1.8C186.613,53.587,187.612,52.42,187.612,50.855z"/>
	<path fill="#231F20" d="M191.93,49.205h-1.333l0.4-1.532h2.849l-0.366,1.683c0.5-0.934,1.399-1.816,2.333-1.816
		c1.033,0,1.716,0.75,1.832,1.816c0.634-1.116,1.533-1.816,2.367-1.816c1.016,0,1.865,0.75,1.865,2.183
		c0,0.367-0.049,0.767-0.183,1.217l-0.533,1.916c-0.05,0.2-0.083,0.366-0.083,0.517c0,0.333,0.133,0.5,0.383,0.5
		s0.566-0.184,0.934-1.2l0.732,0.283c-0.434,1.517-1.217,2.149-2.199,2.149c-1.15,0-1.699-0.683-1.699-1.616
		c0-0.267,0.033-0.55,0.116-0.833l0.517-1.85c0.084-0.267,0.117-0.517,0.117-0.716c0-0.667-0.434-1.017-0.917-1.017
		c-0.716,0-1.233,0.583-1.517,1.766l-1.033,4.133h-1.865l1.049-4.133c0.066-0.283,0.117-0.6,0.117-0.799
		c0-0.551-0.4-0.967-0.916-0.967c-0.717,0-1.233,0.583-1.518,1.766l-1.032,4.133h-1.866L191.93,49.205z"/>
	<path fill="#231F20" d="M209.562,44.306h-1.366l0.399-1.533h3.116l-1.433,6.199c0.55-0.783,1.482-1.434,2.35-1.434
		c1.766,0,2.6,1.166,2.6,2.866c0,2.516-1.684,4.698-3.883,4.698c-0.95,0-1.85-0.683-2.066-1.549l-0.467,1.416h-1.699L209.562,44.306
		z M213.328,50.655c0-0.866-0.482-1.566-1.399-1.566c-1.267,0-2.366,1.3-2.366,2.866c0,0.949,0.483,1.532,1.482,1.532
		C212.312,53.487,213.328,52.137,213.328,50.655z"/>
	<path fill="#231F20" d="M217.896,49.205h-1.333l0.399-1.532h2.85l-0.467,2.133c0.85-1.55,1.717-2.267,2.583-2.267
		c0.616,0,1.216,0.483,1.216,1.2c0,0.633-0.516,1.149-1.149,1.149c-0.583,0-1.017-0.417-1.1-0.833
		c-0.533,0.166-1.383,1.116-1.749,2.6l-0.834,3.315h-1.865L217.896,49.205z"/>
	<path fill="#231F20" d="M223.163,51.788c0-2.183,1.716-4.249,4.132-4.249c2.2,0,3.434,1.55,3.434,3.316
		c0,2.183-1.717,4.248-4.133,4.248C224.396,55.103,223.163,53.554,223.163,51.788z M228.879,50.855c0-1.184-0.75-1.8-1.65-1.8
		c-1.216,0-2.216,1.166-2.216,2.732c0,1.183,0.75,1.8,1.649,1.8C227.879,53.587,228.879,52.42,228.879,50.855z"/>
	<path fill="#231F20" d="M235.096,49.205l-0.783,3.166c-0.066,0.267-0.117,0.533-0.117,0.667c0,0.5,0.25,0.666,0.533,0.666
		c0.384,0,0.667-0.1,1.4-0.583l0.6,0.833c-1,0.95-1.916,1.149-2.633,1.149c-0.967,0-1.783-0.516-1.783-1.749
		c0-0.283,0.067-0.616,0.15-0.983l0.783-3.166h-1.35l0.35-1.532h1.367l0.399-1.583l2.05-0.733l-0.584,2.316h2.217l-0.383,1.532
		H235.096z"/>
	<path fill="#231F20" d="M240.079,44.306h-1.366l0.4-1.533h3.115l-1.433,6.232c0.499-0.767,1.35-1.467,2.232-1.467
		c1.05,0,1.95,0.75,1.95,2.183c0,0.367-0.051,0.767-0.184,1.217l-0.533,1.916c-0.051,0.2-0.084,0.366-0.084,0.517
		c0,0.333,0.134,0.5,0.384,0.5s0.566-0.184,0.933-1.2l0.733,0.283c-0.433,1.517-1.216,2.149-2.199,2.149
		c-1.149,0-1.7-0.683-1.7-1.616c0-0.267,0.033-0.55,0.117-0.833l0.55-1.966c0.067-0.217,0.083-0.417,0.083-0.6
		c0-0.634-0.383-1.017-1-1.017c-0.783,0-1.332,0.517-1.6,1.666l-0.982,4.232h-1.866L240.079,44.306z"/>
	<path fill="#231F20" d="M251.579,49.205h-1.333l0.4-1.532h2.532l0.25,5.298l2.316-4.549h1.216l0.867,4.616
		c0.883-1.35,1.615-2.6,1.732-3.383c-0.383-0.116-0.75-0.483-0.75-1.033c0-0.6,0.483-1.083,1.084-1.083
		c0.783,0,1.316,0.566,1.316,1.5c0,1.083-0.934,2.982-3.184,6.064h-1.232l-0.867-4.016l-2.282,4.016h-1.399L251.579,49.205z"/>
	<path fill="#231F20" d="M262.796,53.47c0-0.25,0.033-0.533,0.101-0.816l0.85-3.449h-1.316l0.399-1.532h3.166l-1.249,4.965
		c-0.084,0.316-0.117,0.583-0.117,0.767c0,0.316,0.15,0.467,0.4,0.467c0.299,0,0.615-0.184,0.982-1.2l0.733,0.283
		c-0.5,1.717-1.333,2.149-2.283,2.149C263.329,55.103,262.796,54.454,262.796,53.47z M264.112,45.54
		c0-0.634,0.517-1.117,1.133-1.117s1.134,0.483,1.134,1.117c0,0.633-0.518,1.116-1.134,1.116S264.112,46.172,264.112,45.54z"/>
	<path fill="#231F20" d="M270.995,49.205l-0.783,3.166c-0.066,0.267-0.116,0.533-0.116,0.667c0,0.5,0.25,0.666,0.533,0.666
		c0.383,0,0.666-0.1,1.399-0.583l0.6,0.833c-0.999,0.95-1.916,1.149-2.632,1.149c-0.967,0-1.783-0.516-1.783-1.749
		c0-0.283,0.066-0.616,0.149-0.983l0.783-3.166h-1.35l0.351-1.532h1.365l0.4-1.583l2.049-0.733l-0.582,2.316h2.216l-0.384,1.532
		H270.995z"/>
	<path fill="#231F20" d="M275.979,44.306h-1.366l0.399-1.533h3.116l-1.433,6.232c0.5-0.767,1.35-1.467,2.232-1.467
		c1.05,0,1.949,0.75,1.949,2.183c0,0.367-0.049,0.767-0.183,1.217l-0.533,1.916c-0.05,0.2-0.083,0.366-0.083,0.517
		c0,0.333,0.133,0.5,0.383,0.5s0.566-0.184,0.934-1.2l0.732,0.283c-0.434,1.517-1.217,2.149-2.199,2.149
		c-1.15,0-1.699-0.683-1.699-1.616c0-0.267,0.033-0.55,0.116-0.833l0.55-1.966c0.066-0.217,0.084-0.417,0.084-0.6
		c0-0.634-0.384-1.017-1-1.017c-0.783,0-1.334,0.517-1.6,1.666l-0.983,4.232h-1.866L275.979,44.306z"/>
</g>
<g enable-background="new    ">
	<path fill="#231F20" d="M1.733,75.02c-0.3-0.3-0.483-0.649-0.483-1.033c0-0.633,0.417-1.033,0.95-1.033
		c0.5,0,0.917,0.417,0.917,0.917c0,0.133-0.05,0.333-0.1,0.399c0.067,0.05,0.15,0.101,0.25,0.15
		c0.333,0.149,0.767,0.217,1.216,0.217c0.683,0,1.316-0.2,1.316-0.684c0-0.55-0.767-0.8-1.583-1.149
		c-0.95-0.384-1.983-0.9-1.983-2.133c0-1.184,1-2.3,3.016-2.3c1.033,0,1.916,0.333,2.416,0.85c0.283,0.283,0.433,0.634,0.433,1
		c0,0.616-0.433,1.017-0.95,1.017c-0.5,0-0.933-0.434-0.933-0.934c0-0.133,0.017-0.199,0.1-0.399
		c-0.067-0.033-0.133-0.066-0.233-0.1c-0.233-0.084-0.533-0.134-0.816-0.134c-0.6,0-1.216,0.184-1.216,0.667
		c0,0.516,0.783,0.799,1.616,1.166c0.95,0.416,1.95,0.967,1.95,2.116c0,1.466-1.15,2.315-3.149,2.315
		C3.266,75.936,2.283,75.57,1.733,75.02z"/>
	<path fill="#231F20" d="M7.684,77.57h1.05l1.75-7.532H9.117l0.4-1.532h2.899l-0.367,1.666c0.6-0.95,1.566-1.8,2.683-1.8
		c1.683,0,2.516,1.166,2.516,2.866c0,2.516-1.683,4.698-3.882,4.698c-1.033,0-1.733-0.732-2.083-1.549L10.55,77.57h1.299l-0.4,1.499
		H7.284L7.684,77.57z M15.349,71.488c0-0.866-0.483-1.566-1.4-1.566c-1.266,0-2.366,1.3-2.366,2.866
		c0,0.949,0.483,1.532,1.483,1.532C14.332,74.32,15.349,72.97,15.349,71.488z"/>
	<path fill="#231F20" d="M18.833,74.303c0-0.25,0.033-0.533,0.1-0.816l0.85-3.449h-1.316l0.4-1.532h3.166l-1.25,4.965
		c-0.083,0.316-0.117,0.583-0.117,0.767c0,0.316,0.15,0.467,0.4,0.467c0.3,0,0.616-0.184,0.983-1.2l0.733,0.283
		c-0.5,1.717-1.333,2.149-2.283,2.149C19.366,75.936,18.833,75.287,18.833,74.303z M20.149,66.373c0-0.634,0.517-1.117,1.133-1.117
		c0.617,0,1.133,0.483,1.133,1.117c0,0.633-0.517,1.116-1.133,1.116C20.666,67.489,20.149,67.005,20.149,66.373z"/>
	<path fill="#231F20" d="M23.716,72.621c0-2.366,2-4.249,4.349-4.249c1.466,0,2.732,0.883,2.732,2.166
		c0,0.717-0.417,1.316-1.116,1.316c-0.583,0-1.05-0.467-1.05-1.05c0-0.267,0.1-0.5,0.25-0.699c-0.217-0.15-0.533-0.217-0.866-0.217
		c-1.066,0-2.45,0.75-2.45,2.6c0,1.232,0.85,1.933,1.917,1.933c0.85,0,1.716-0.3,2.466-0.816l-0.017,1.616
		c-0.683,0.467-1.583,0.716-2.566,0.716C25.316,75.936,23.716,74.704,23.716,72.621z"/>
	<path fill="#231F20" d="M29.75,77.936c0-0.633,0.5-1.05,1.05-1.05c0.417,0,0.816,0.267,0.95,0.684
		c0.383-0.051,0.983-0.617,2.333-2.217l-1.1-5.315H31.75l0.399-1.532h2.383l0.867,5.448c1.016-1.333,1.833-2.449,2.1-3.383
		c-0.4-0.166-0.717-0.533-0.717-1.066c0-0.633,0.5-1.133,1.15-1.133c0.833,0,1.316,0.6,1.316,1.517c0,0.8-0.4,2.166-3.133,5.481
		c-2.816,3.416-3.782,3.766-4.949,3.766C30.283,79.135,29.75,78.552,29.75,77.936z"/>
	<path fill="#231F20" d="M42.283,77.57h1.05l1.75-7.532h-1.366l0.4-1.532h2.899l-0.366,1.666c0.6-0.95,1.566-1.8,2.683-1.8
		c1.683,0,2.516,1.166,2.516,2.866c0,2.516-1.683,4.698-3.882,4.698c-1.033,0-1.733-0.732-2.083-1.549l-0.733,3.183h1.3l-0.4,1.499
		h-4.166L42.283,77.57z M49.947,71.488c0-0.866-0.483-1.566-1.399-1.566c-1.267,0-2.366,1.3-2.366,2.866
		c0,0.949,0.483,1.532,1.483,1.532C48.931,74.32,49.947,72.97,49.947,71.488z"/>
	<path fill="#231F20" d="M54.799,72.771v0.116c0,0.816,0.667,1.533,2.049,1.533c0.733,0,1.5-0.167,2.416-0.65l-0.35,1.667
		c-0.766,0.366-1.399,0.499-2.482,0.499c-1.783,0-3.433-1.116-3.433-3.132c0-2.483,1.766-4.433,3.949-4.433
		c1.85,0,3.132,1,3.132,2.816c0,0.466-0.083,0.999-0.267,1.583H54.799z M54.999,71.504h3.266c0.05-0.184,0.066-0.35,0.066-0.5
		c0-0.717-0.466-1.133-1.35-1.133C56.065,69.872,55.349,70.504,54.999,71.504z"/>
	<path fill="#231F20" d="M61.182,72.621c0-2.366,2-4.249,4.349-4.249c1.466,0,2.732,0.883,2.732,2.166
		c0,0.717-0.417,1.316-1.116,1.316c-0.583,0-1.05-0.467-1.05-1.05c0-0.267,0.1-0.5,0.25-0.699c-0.217-0.15-0.533-0.217-0.866-0.217
		c-1.066,0-2.45,0.75-2.45,2.6c0,1.232,0.85,1.933,1.917,1.933c0.85,0,1.716-0.3,2.466-0.816l-0.017,1.616
		c-0.683,0.467-1.583,0.716-2.566,0.716C62.782,75.936,61.182,74.704,61.182,72.621z"/>
	<path fill="#231F20" d="M69.315,72.621c0-2.183,1.716-4.249,4.132-4.249c2.2,0,3.433,1.55,3.433,3.316
		c0,2.183-1.716,4.248-4.132,4.248C70.549,75.936,69.315,74.387,69.315,72.621z M75.031,71.688c0-1.184-0.75-1.8-1.649-1.8
		c-1.216,0-2.216,1.166-2.216,2.732c0,1.183,0.75,1.8,1.649,1.8C74.031,74.42,75.031,73.253,75.031,71.688z"/>
	<path fill="#231F20" d="M79.515,70.038h-1.333l0.4-1.532h2.849l-0.467,2.133c0.85-1.55,1.716-2.267,2.583-2.267
		c0.616,0,1.216,0.483,1.216,1.2c0,0.633-0.517,1.149-1.15,1.149c-0.583,0-1.016-0.417-1.1-0.833c-0.533,0.166-1.383,1.116-1.75,2.6
		l-0.833,3.315h-1.866L79.515,70.038z"/>
	<path fill="#231F20" d="M85.615,74.303c0-0.25,0.033-0.533,0.1-0.816l0.85-3.449h-1.316l0.4-1.532h3.166l-1.25,4.965
		c-0.083,0.316-0.117,0.583-0.117,0.767c0,0.316,0.15,0.467,0.4,0.467c0.3,0,0.616-0.184,0.983-1.2l0.733,0.283
		c-0.5,1.717-1.333,2.149-2.283,2.149C86.148,75.936,85.615,75.287,85.615,74.303z M86.932,66.373c0-0.634,0.517-1.117,1.133-1.117
		c0.617,0,1.133,0.483,1.133,1.117c0,0.633-0.517,1.116-1.133,1.116C87.448,67.489,86.932,67.005,86.932,66.373z"/>
	<path fill="#231F20" d="M95.297,74.32c0-0.267,0.034-0.55,0.117-0.833l0.55-1.966c0.067-0.217,0.083-0.417,0.083-0.6
		c0-0.634-0.383-1.017-1-1.017c-0.783,0-1.299,0.55-1.566,1.633l-1.066,4.266h-1.866l1.449-5.766h-1.333l0.4-1.532h2.849
		l-0.367,1.683c0.5-0.934,1.5-1.816,2.483-1.816c1.05,0,1.916,0.75,1.916,2.183c0,0.367-0.05,0.767-0.183,1.217l-0.533,1.916
		c-0.05,0.2-0.083,0.366-0.083,0.517c0,0.333,0.133,0.5,0.383,0.5s0.566-0.184,0.933-1.2l0.733,0.283
		c-0.433,1.517-1.216,2.149-2.199,2.149C95.847,75.936,95.297,75.253,95.297,74.32z"/>
	<path fill="#231F20" d="M100.048,72.621c0-2.183,1.716-4.249,4.132-4.249c2.2,0,3.433,1.55,3.433,3.316
		c0,2.183-1.716,4.248-4.132,4.248C101.281,75.936,100.048,74.387,100.048,72.621z M105.764,71.688c0-1.184-0.75-1.8-1.649-1.8
		c-1.216,0-2.216,1.166-2.216,2.732c0,1.183,0.75,1.8,1.65,1.8C104.764,74.42,105.764,73.253,105.764,71.688z"/>
	<path fill="#231F20" d="M112.198,72.621c0-2.366,2-4.249,4.349-4.249c1.466,0,2.732,0.883,2.732,2.166
		c0,0.717-0.417,1.316-1.116,1.316c-0.583,0-1.05-0.467-1.05-1.05c0-0.267,0.1-0.5,0.25-0.699c-0.217-0.15-0.533-0.217-0.867-0.217
		c-1.066,0-2.449,0.75-2.449,2.6c0,1.232,0.85,1.933,1.916,1.933c0.85,0,1.716-0.3,2.466-0.816l-0.017,1.616
		c-0.683,0.467-1.583,0.716-2.566,0.716C113.798,75.936,112.198,74.704,112.198,72.621z"/>
	<path fill="#231F20" d="M121.831,70.038h-1.333l0.399-1.532h2.85l-0.467,2.133c0.85-1.55,1.716-2.267,2.583-2.267
		c0.616,0,1.216,0.483,1.216,1.2c0,0.633-0.517,1.149-1.15,1.149c-0.583,0-1.016-0.417-1.1-0.833c-0.533,0.166-1.383,1.116-1.75,2.6
		l-0.833,3.315h-1.866L121.831,70.038z"/>
	<path fill="#231F20" d="M127.098,72.621c0-2.183,1.716-4.249,4.132-4.249c2.2,0,3.433,1.55,3.433,3.316
		c0,2.183-1.716,4.248-4.132,4.248C128.331,75.936,127.098,74.387,127.098,72.621z M132.813,71.688c0-1.184-0.75-1.8-1.649-1.8
		c-1.216,0-2.216,1.166-2.216,2.732c0,1.183,0.75,1.8,1.65,1.8C131.814,74.42,132.813,73.253,132.813,71.688z"/>
	<path fill="#231F20" d="M139.347,68.505l-1.05,4.215c-0.05,0.233-0.1,0.45-0.1,0.65c0,0.666,0.333,1.033,0.9,1.033
		c0.883,0,1.35-0.566,1.616-1.633l1.066-4.266h1.866l-1.25,4.965c-0.083,0.316-0.133,0.601-0.133,0.783c0,0.3,0.117,0.45,0.367,0.45
		c0.216,0,0.566-0.184,0.933-1.2l0.733,0.283c-0.5,1.717-1.433,2.149-2.232,2.149c-0.934,0-1.5-0.633-1.517-1.616
		c-0.6,0.983-1.5,1.616-2.433,1.616c-0.95,0-1.816-0.749-1.816-2.016c0-0.383,0.067-0.866,0.184-1.366l0.616-2.517h-1.316l0.4-1.532
		H139.347z"/>
	<path fill="#231F20" d="M148.514,70.038l-0.783,3.166c-0.066,0.267-0.117,0.533-0.117,0.667c0,0.5,0.25,0.666,0.533,0.666
		c0.383,0,0.667-0.1,1.4-0.583l0.6,0.833c-1,0.95-1.916,1.149-2.632,1.149c-0.967,0-1.783-0.516-1.783-1.749
		c0-0.283,0.067-0.616,0.15-0.983l0.783-3.166h-1.35l0.35-1.532h1.366l0.4-1.583l2.049-0.733l-0.583,2.316h2.216l-0.383,1.532
		H148.514z"/>
	<path fill="#231F20" d="M151.364,72.621c0-2.183,1.716-4.249,4.132-4.249c2.2,0,3.434,1.55,3.434,3.316
		c0,2.183-1.717,4.248-4.133,4.248C152.598,75.936,151.364,74.387,151.364,72.621z M157.08,71.688c0-1.184-0.75-1.8-1.65-1.8
		c-1.216,0-2.216,1.166-2.216,2.732c0,1.183,0.75,1.8,1.649,1.8C156.08,74.42,157.08,73.253,157.08,71.688z"/>
	<path fill="#231F20" d="M164.863,74.32c0-0.267,0.033-0.55,0.117-0.833l0.549-1.966c0.067-0.217,0.084-0.417,0.084-0.6
		c0-0.634-0.383-1.017-1-1.017c-0.783,0-1.299,0.55-1.566,1.633l-1.066,4.266h-1.865l1.449-5.766h-1.333l0.399-1.532h2.85
		l-0.367,1.683c0.5-0.934,1.5-1.816,2.483-1.816c1.05,0,1.916,0.75,1.916,2.183c0,0.367-0.05,0.767-0.183,1.217l-0.533,1.916
		c-0.051,0.2-0.084,0.366-0.084,0.517c0,0.333,0.133,0.5,0.383,0.5s0.566-0.184,0.934-1.2l0.733,0.283
		c-0.434,1.517-1.217,2.149-2.2,2.149C165.413,75.936,164.863,75.253,164.863,74.32z"/>
</g>
</svg>
