<?xml version="1.0" encoding="utf-8"?>
<!-- Generator: Adobe Illustrator 17.0.0, SVG Export Plug-In . SVG Version: 6.00 Build 0)  -->
<!DOCTYPE svg PUBLIC "-//W3C//DTD SVG 1.1//EN" "http://www.w3.org/Graphics/SVG/1.1/DTD/svg11.dtd">
<svg version="1.1" id="Layer_1" xmlns="http://www.w3.org/2000/svg" xmlns:xlink="http://www.w3.org/1999/xlink" x="0px" y="0px"
	 width="391.333px" height="68.25px" viewBox="0 0 391.333 68.25" enable-background="new 0 0 391.333 68.25" xml:space="preserve">
<g>
	<path d="M35.181,19.862h0.733l3.593-6.074h-0.954l0.22-0.978h4.045l-0.232,0.978h-0.905l0.782,6.074h0.844l-0.232,0.99H40.29
		l0.22-0.978h0.905l-0.208-1.699h-3.202l-0.99,1.699h1.063l-0.232,0.978h-2.897L35.181,19.862z M41.084,17.235l-0.44-3.532
		l-2.09,3.532H41.084z"/>
	<path d="M47.648,19.887c0-0.171,0.037-0.403,0.085-0.599l0.453-1.589c0.061-0.208,0.085-0.367,0.085-0.538
		c0-0.465-0.318-0.77-0.794-0.77c-0.648,0-1.259,0.55-1.528,1.601l-0.709,2.86h-1.076l1.1-4.363h-0.978l0.232-0.904h1.882
		l-0.281,1.234c0.416-0.733,1.1-1.32,1.821-1.32c0.807,0,1.43,0.55,1.43,1.491c0,0.257-0.049,0.55-0.135,0.855l-0.452,1.552
		c-0.037,0.159-0.073,0.33-0.073,0.428c0,0.245,0.122,0.391,0.33,0.391c0.208,0,0.44-0.183,0.685-0.855l0.477,0.171
		c-0.281,0.953-0.782,1.405-1.43,1.405C48.052,20.938,47.648,20.498,47.648,19.887z"/>
	<path d="M50.924,18.616c0-1.613,1.259-3.129,2.982-3.129c1.516,0,2.371,1.088,2.371,2.347c0,1.601-1.259,3.117-2.982,3.117
		C51.78,20.95,50.924,19.862,50.924,18.616z M55.202,17.821c0-0.904-0.586-1.43-1.344-1.43c-1.027,0-1.858,0.99-1.858,2.224
		c0,0.917,0.586,1.442,1.344,1.442C54.371,20.058,55.202,19.056,55.202,17.821z"/>
	<path d="M59.334,16.489l-0.672,2.701c-0.049,0.183-0.073,0.354-0.073,0.464c0,0.293,0.171,0.452,0.416,0.452
		c0.281,0,0.538-0.122,1.051-0.464l0.379,0.513c-0.685,0.599-1.259,0.782-1.772,0.782c-0.648,0-1.161-0.367-1.161-1.112
		c0-0.183,0.037-0.391,0.085-0.635l0.672-2.701h-0.953l0.208-0.904h0.966l0.305-1.198l1.173-0.403l-0.403,1.602h1.613l-0.232,0.904
		H59.334z"/>
	<path d="M63.124,12.81h-0.99l0.232-0.904h2.017l-1.1,4.706c0.379-0.586,1.002-1.112,1.699-1.112c0.807,0,1.455,0.55,1.455,1.491
		c0,0.257-0.037,0.55-0.134,0.855l-0.428,1.564c-0.037,0.159-0.062,0.318-0.062,0.416c0,0.245,0.123,0.391,0.318,0.391
		c0.22,0,0.44-0.183,0.685-0.855l0.477,0.171c-0.281,0.953-0.77,1.405-1.43,1.405c-0.721,0-1.124-0.44-1.124-1.051
		c0-0.171,0.037-0.391,0.085-0.587l0.44-1.601c0.061-0.208,0.073-0.367,0.073-0.538c0-0.465-0.33-0.77-0.807-0.77
		c-0.648,0-1.283,0.538-1.528,1.625l-0.66,2.835h-1.075L63.124,12.81z"/>
	<path d="M69.028,18.555v0.184c0,0.794,0.635,1.32,1.589,1.32c0.562,0,1.076-0.122,1.735-0.477l-0.208,1.002
		c-0.55,0.269-1.002,0.367-1.748,0.367c-1.259,0-2.42-0.794-2.42-2.236c0-1.785,1.32-3.227,2.885-3.227
		c1.283,0,2.126,0.733,2.126,1.968c0,0.33-0.061,0.697-0.196,1.1H69.028z M69.174,17.785h2.738c0.049-0.146,0.073-0.306,0.073-0.452
		c0-0.55-0.367-0.953-1.124-0.953C70.104,16.379,69.456,16.954,69.174,17.785z"/>
	<path d="M75.017,16.489H74.04l0.232-0.904h1.882l-0.342,1.479c0.648-1.039,1.259-1.564,1.833-1.564
		c0.428,0,0.782,0.306,0.782,0.733c0,0.416-0.342,0.746-0.733,0.746c-0.367,0-0.648-0.245-0.709-0.538
		c-0.379,0.171-1.125,0.917-1.405,2.053l-0.587,2.359h-1.076L75.017,16.489z"/>
	<path d="M82.461,16.489h-0.978l0.232-0.904h1.882l-0.342,1.479c0.648-1.039,1.259-1.564,1.833-1.564
		c0.428,0,0.782,0.306,0.782,0.733c0,0.416-0.342,0.746-0.733,0.746c-0.367,0-0.648-0.245-0.709-0.538
		c-0.379,0.171-1.125,0.917-1.405,2.053l-0.587,2.359h-1.076L82.461,16.489z"/>
	<path d="M87.021,18.555v0.184c0,0.794,0.635,1.32,1.589,1.32c0.562,0,1.076-0.122,1.735-0.477l-0.208,1.002
		c-0.55,0.269-1.002,0.367-1.748,0.367c-1.259,0-2.42-0.794-2.42-2.236c0-1.785,1.32-3.227,2.885-3.227
		c1.283,0,2.126,0.733,2.126,1.968c0,0.33-0.061,0.697-0.196,1.1H87.021z M87.167,17.785h2.738c0.049-0.146,0.073-0.306,0.073-0.452
		c0-0.55-0.367-0.953-1.124-0.953C88.096,16.379,87.448,16.954,87.167,17.785z"/>
	<path d="M91.873,18.616c0-1.674,1.394-3.129,3.068-3.129c1.161,0,1.931,0.709,1.931,1.479c0,0.452-0.281,0.831-0.721,0.831
		c-0.33,0-0.623-0.256-0.623-0.647c0-0.159,0.085-0.354,0.22-0.465c-0.171-0.195-0.452-0.293-0.831-0.293
		c-0.953,0-1.968,0.819-1.968,2.163c0,0.917,0.611,1.503,1.503,1.503c0.611,0,1.234-0.245,1.772-0.66L96.2,20.376
		c-0.513,0.367-1.149,0.574-1.845,0.574C92.961,20.95,91.873,20.083,91.873,18.616z"/>
	<path d="M97.667,18.616c0-1.613,1.259-3.129,2.982-3.129c1.516,0,2.371,1.088,2.371,2.347c0,1.601-1.259,3.117-2.982,3.117
		C98.522,20.95,97.667,19.862,97.667,18.616z M101.945,17.821c0-0.904-0.586-1.43-1.344-1.43c-1.027,0-1.858,0.99-1.858,2.224
		c0,0.917,0.586,1.442,1.344,1.442C101.114,20.058,101.945,19.056,101.945,17.821z"/>
	<path d="M105.087,16.489h-0.978l0.232-0.904h1.882l-0.342,1.479c0.648-1.039,1.259-1.564,1.833-1.564
		c0.428,0,0.782,0.306,0.782,0.733c0,0.416-0.342,0.746-0.733,0.746c-0.367,0-0.648-0.245-0.709-0.538
		c-0.379,0.171-1.125,0.917-1.405,2.053l-0.587,2.359h-1.076L105.087,16.489z"/>
	<path d="M111.381,15.487c0.782,0,1.394,0.575,1.589,1.21l0.893-3.887h-0.978l0.22-0.904h2.029l-1.736,7.407
		c-0.049,0.232-0.085,0.416-0.085,0.538c0,0.232,0.098,0.367,0.306,0.367s0.44-0.183,0.697-0.855l0.477,0.171
		c-0.318,1.051-0.88,1.405-1.455,1.405c-0.635,0-1.026-0.428-1.026-1.076v-0.049c-0.44,0.636-1.076,1.137-1.87,1.137
		c-1.051,0-1.821-0.831-1.821-2.102C108.619,17.027,109.878,15.487,111.381,15.487z M112.75,17.736c0-0.794-0.428-1.308-1.222-1.308
		c-1.027,0-1.797,1.112-1.797,2.298c0,0.758,0.403,1.308,1.137,1.308C111.919,20.034,112.75,18.909,112.75,17.736z"/>
	<path d="M118.227,20.278c-0.208-0.208-0.33-0.44-0.33-0.697c0-0.391,0.269-0.685,0.623-0.685c0.342,0,0.587,0.269,0.587,0.587
		c0,0.122-0.049,0.256-0.123,0.342c0.049,0.049,0.11,0.086,0.196,0.135c0.245,0.122,0.599,0.208,0.978,0.208
		c0.55,0,1.015-0.22,1.015-0.647c0-0.44-0.525-0.66-1.112-0.917c-0.733-0.33-1.442-0.697-1.442-1.54s0.721-1.577,2.029-1.577
		c0.721,0,1.332,0.232,1.674,0.587c0.195,0.195,0.306,0.44,0.306,0.685c0,0.403-0.281,0.672-0.611,0.672s-0.599-0.269-0.599-0.586
		c0-0.11,0.024-0.196,0.11-0.342c-0.037-0.024-0.085-0.061-0.184-0.098c-0.183-0.074-0.44-0.123-0.708-0.123
		c-0.538,0-0.966,0.22-0.966,0.599c0,0.403,0.526,0.635,1.137,0.917c0.721,0.33,1.418,0.721,1.418,1.54
		c0,1.039-0.843,1.613-2.09,1.613C119.327,20.95,118.618,20.682,118.227,20.278z"/>
	<path d="M125.793,15.585l-0.807,3.19c-0.037,0.171-0.073,0.354-0.073,0.525c0,0.464,0.281,0.746,0.733,0.746
		c0.697,0,1.283-0.562,1.552-1.601l0.709-2.86h1.075l-0.941,3.728c-0.049,0.22-0.085,0.416-0.085,0.538
		c0,0.232,0.11,0.367,0.306,0.367c0.208,0,0.44-0.183,0.696-0.855l0.477,0.171c-0.318,1.051-0.88,1.405-1.455,1.405
		c-0.624,0-1.015-0.428-1.015-1.088v-0.11c-0.428,0.721-1.075,1.21-1.784,1.21c-0.746,0-1.369-0.538-1.369-1.393
		c0-0.269,0.049-0.575,0.123-0.88l0.562-2.188h-0.978l0.232-0.904H125.793z"/>
	<path d="M131.343,16.489h-0.978l0.232-0.904h1.882l-0.293,1.234c0.428-0.733,1.063-1.32,1.76-1.32c0.77,0,1.271,0.514,1.332,1.308
		c0.477-0.807,1.149-1.308,1.785-1.308c0.77,0,1.369,0.55,1.369,1.491c0,0.257-0.049,0.55-0.134,0.855l-0.452,1.552
		c-0.037,0.159-0.073,0.33-0.073,0.428c0,0.245,0.122,0.391,0.33,0.391c0.208,0,0.44-0.183,0.685-0.855l0.477,0.171
		c-0.281,0.953-0.782,1.405-1.43,1.405c-0.721,0-1.125-0.44-1.125-1.051c0-0.171,0.037-0.403,0.085-0.599l0.44-1.54
		c0.073-0.22,0.098-0.416,0.098-0.586c0-0.477-0.317-0.77-0.721-0.77c-0.611,0-1.198,0.562-1.479,1.674l-0.709,2.787h-1.076
		l0.794-3.092c0.049-0.232,0.085-0.452,0.085-0.623c0-0.428-0.293-0.746-0.721-0.746c-0.611,0-1.222,0.574-1.491,1.662l-0.697,2.799
		h-1.076L131.343,16.489z"/>
	<path d="M141.122,16.489h-0.978l0.232-0.904h1.882l-0.293,1.234c0.428-0.733,1.063-1.32,1.76-1.32c0.77,0,1.271,0.514,1.332,1.308
		c0.477-0.807,1.149-1.308,1.785-1.308c0.77,0,1.369,0.55,1.369,1.491c0,0.257-0.049,0.55-0.134,0.855l-0.452,1.552
		c-0.037,0.159-0.073,0.33-0.073,0.428c0,0.245,0.122,0.391,0.33,0.391c0.208,0,0.44-0.183,0.685-0.855l0.477,0.171
		c-0.281,0.953-0.782,1.405-1.43,1.405c-0.721,0-1.125-0.44-1.125-1.051c0-0.171,0.037-0.403,0.085-0.599l0.44-1.54
		c0.073-0.22,0.098-0.416,0.098-0.586c0-0.477-0.317-0.77-0.721-0.77c-0.611,0-1.198,0.562-1.479,1.674l-0.709,2.787h-1.076
		l0.794-3.092c0.049-0.232,0.085-0.452,0.085-0.623c0-0.428-0.293-0.746-0.721-0.746c-0.611,0-1.223,0.574-1.491,1.662l-0.697,2.799
		h-1.076L141.122,16.489z"/>
	<path d="M150.803,18.555v0.184c0,0.794,0.635,1.32,1.589,1.32c0.562,0,1.076-0.122,1.735-0.477l-0.208,1.002
		c-0.55,0.269-1.002,0.367-1.748,0.367c-1.259,0-2.42-0.794-2.42-2.236c0-1.785,1.32-3.227,2.885-3.227
		c1.283,0,2.126,0.733,2.126,1.968c0,0.33-0.061,0.697-0.196,1.1H150.803z M150.949,17.785h2.738
		c0.049-0.146,0.073-0.306,0.073-0.452c0-0.55-0.367-0.953-1.124-0.953C151.878,16.379,151.23,16.954,150.949,17.785z"/>
	<path d="M156.792,16.489h-0.978l0.232-0.904h1.882l-0.342,1.479c0.648-1.039,1.259-1.564,1.833-1.564
		c0.428,0,0.782,0.306,0.782,0.733c0,0.416-0.342,0.746-0.733,0.746c-0.367,0-0.648-0.245-0.709-0.538
		c-0.379,0.171-1.125,0.917-1.405,2.053l-0.587,2.359h-1.076L156.792,16.489z"/>
	<path d="M163.099,18.616c0-1.674,1.394-3.129,3.068-3.129c1.161,0,1.931,0.709,1.931,1.479c0,0.452-0.281,0.831-0.721,0.831
		c-0.33,0-0.623-0.256-0.623-0.647c0-0.159,0.085-0.354,0.22-0.465c-0.171-0.195-0.452-0.293-0.831-0.293
		c-0.953,0-1.968,0.819-1.968,2.163c0,0.917,0.611,1.503,1.503,1.503c0.611,0,1.234-0.245,1.772-0.66l-0.024,0.978
		c-0.513,0.367-1.149,0.574-1.845,0.574C164.187,20.95,163.099,20.083,163.099,18.616z"/>
	<path d="M168.893,18.616c0-1.613,1.259-3.129,2.982-3.129c1.516,0,2.371,1.088,2.371,2.347c0,1.601-1.259,3.117-2.982,3.117
		C169.749,20.95,168.893,19.862,168.893,18.616z M173.171,17.821c0-0.904-0.586-1.43-1.344-1.43c-1.027,0-1.858,0.99-1.858,2.224
		c0,0.917,0.586,1.442,1.344,1.442C172.34,20.058,173.171,19.056,173.171,17.821z"/>
	<path d="M176.191,16.489h-0.978l0.232-0.904h1.882l-0.293,1.234c0.428-0.733,1.063-1.32,1.76-1.32c0.77,0,1.271,0.514,1.332,1.308
		c0.477-0.807,1.149-1.308,1.785-1.308c0.77,0,1.369,0.55,1.369,1.491c0,0.257-0.049,0.55-0.134,0.855l-0.452,1.552
		c-0.037,0.159-0.073,0.33-0.073,0.428c0,0.245,0.122,0.391,0.33,0.391c0.208,0,0.44-0.183,0.685-0.855l0.477,0.171
		c-0.281,0.953-0.782,1.405-1.43,1.405c-0.721,0-1.125-0.44-1.125-1.051c0-0.171,0.037-0.403,0.085-0.599l0.44-1.54
		c0.073-0.22,0.098-0.416,0.098-0.586c0-0.477-0.317-0.77-0.721-0.77c-0.611,0-1.198,0.562-1.479,1.674l-0.709,2.787h-1.076
		l0.794-3.092c0.049-0.232,0.085-0.452,0.085-0.623c0-0.428-0.293-0.746-0.721-0.746c-0.611,0-1.223,0.574-1.491,1.662l-0.697,2.799
		h-1.076L176.191,16.489z"/>
	<path d="M185.872,18.555v0.184c0,0.794,0.635,1.32,1.589,1.32c0.562,0,1.076-0.122,1.735-0.477l-0.208,1.002
		c-0.55,0.269-1.002,0.367-1.748,0.367c-1.259,0-2.42-0.794-2.42-2.236c0-1.785,1.32-3.227,2.885-3.227
		c1.283,0,2.126,0.733,2.126,1.968c0,0.33-0.061,0.697-0.196,1.1H185.872z M186.018,17.785h2.738
		c0.049-0.146,0.073-0.306,0.073-0.452c0-0.55-0.367-0.953-1.124-0.953C186.947,16.379,186.299,16.954,186.018,17.785z"/>
	<path d="M193.279,18.848c0-1.797,1.247-3.361,2.774-3.361c0.794,0,1.394,0.575,1.576,1.247l0.343-1.173h1.002l-0.929,3.752
		c-0.062,0.22-0.098,0.416-0.098,0.538c0,0.232,0.109,0.367,0.317,0.367c0.195,0,0.44-0.183,0.685-0.855l0.477,0.171
		c-0.317,1.051-0.867,1.405-1.454,1.405c-0.623,0-1.015-0.428-1.015-1.063v-0.061c-0.452,0.624-1.087,1.137-1.882,1.137
		C194.025,20.95,193.279,20.131,193.279,18.848z M197.386,17.724c0-0.782-0.391-1.295-1.197-1.295c-1.027,0-1.797,1.112-1.797,2.298
		c0,0.77,0.379,1.308,1.112,1.308C196.579,20.034,197.386,18.873,197.386,17.724z"/>
	<path d="M203.729,19.887c0-0.171,0.037-0.403,0.086-0.599l0.452-1.589c0.062-0.208,0.086-0.367,0.086-0.538
		c0-0.465-0.318-0.77-0.795-0.77c-0.647,0-1.259,0.55-1.527,1.601l-0.709,2.86h-1.076l1.101-4.363h-0.978l0.231-0.904h1.883
		l-0.281,1.234c0.415-0.733,1.1-1.32,1.821-1.32c0.807,0,1.43,0.55,1.43,1.491c0,0.257-0.049,0.55-0.135,0.855l-0.452,1.552
		c-0.036,0.159-0.073,0.33-0.073,0.428c0,0.245,0.122,0.391,0.33,0.391s0.44-0.183,0.685-0.855l0.477,0.171
		c-0.281,0.953-0.782,1.405-1.43,1.405C204.133,20.938,203.729,20.498,203.729,19.887z"/>
	<path d="M209.78,15.487c0.782,0,1.394,0.575,1.589,1.21l0.893-3.887h-0.978l0.22-0.904h2.029l-1.736,7.407
		c-0.049,0.232-0.085,0.416-0.085,0.538c0,0.232,0.098,0.367,0.306,0.367s0.439-0.183,0.696-0.855l0.477,0.171
		c-0.317,1.051-0.88,1.405-1.454,1.405c-0.636,0-1.026-0.428-1.026-1.076v-0.049c-0.44,0.636-1.076,1.137-1.87,1.137
		c-1.052,0-1.821-0.831-1.821-2.102C207.019,17.027,208.277,15.487,209.78,15.487z M211.149,17.736c0-0.794-0.428-1.308-1.222-1.308
		c-1.027,0-1.797,1.112-1.797,2.298c0,0.758,0.403,1.308,1.137,1.308C210.318,20.034,211.149,18.909,211.149,17.736z"/>
	<path d="M216.455,22.686c-0.232-0.232-0.306-0.428-0.306-0.685c0-0.428,0.293-0.721,0.672-0.721s0.648,0.306,0.648,0.66
		c0,0.11-0.024,0.232-0.074,0.318c0.159,0.098,0.478,0.195,0.881,0.195c0.501,0,0.855-0.134,1.161-0.44
		c0.28-0.269,0.452-0.697,0.586-1.271l0.232-0.99c-0.452,0.636-1.088,1.039-1.809,1.039c-1.186,0-1.919-0.843-1.919-2.115
		c0-1.711,1.186-3.19,2.786-3.19c0.905,0,1.442,0.611,1.626,1.198l0.33-1.125h0.99l-1.259,5.427
		c-0.159,0.709-0.379,1.234-0.771,1.638c-0.464,0.452-1.075,0.672-1.931,0.672C217.567,23.297,216.772,23.003,216.455,22.686z
		 M220.721,17.687c0-0.782-0.514-1.259-1.271-1.259c-1.026,0-1.809,0.978-1.809,2.175c0,0.782,0.513,1.271,1.246,1.271
		C219.938,19.875,220.721,18.824,220.721,17.687z"/>
	<path d="M222.945,18.616c0-1.613,1.259-3.129,2.982-3.129c1.516,0,2.371,1.088,2.371,2.347c0,1.601-1.259,3.117-2.982,3.117
		C223.801,20.95,222.945,19.862,222.945,18.616z M227.223,17.821c0-0.904-0.586-1.43-1.344-1.43c-1.027,0-1.858,0.99-1.858,2.224
		c0,0.917,0.587,1.442,1.345,1.442C226.392,20.058,227.223,19.056,227.223,17.821z"/>
	<path d="M232.748,19.887c0-0.171,0.037-0.403,0.086-0.599l0.452-1.589c0.062-0.208,0.086-0.367,0.086-0.538
		c0-0.465-0.318-0.77-0.795-0.77c-0.647,0-1.259,0.55-1.527,1.601l-0.709,2.86h-1.076l1.101-4.363h-0.978l0.231-0.904h1.883
		l-0.281,1.234c0.415-0.733,1.1-1.32,1.821-1.32c0.807,0,1.43,0.55,1.43,1.491c0,0.257-0.049,0.55-0.135,0.855l-0.452,1.552
		c-0.036,0.159-0.073,0.33-0.073,0.428c0,0.245,0.122,0.391,0.33,0.391s0.44-0.183,0.685-0.855l0.477,0.171
		c-0.281,0.953-0.782,1.405-1.43,1.405C233.151,20.938,232.748,20.498,232.748,19.887z"/>
	<path d="M237.063,18.555v0.184c0,0.794,0.636,1.32,1.589,1.32c0.562,0,1.076-0.122,1.735-0.477l-0.207,1.002
		c-0.551,0.269-1.003,0.367-1.748,0.367c-1.259,0-2.42-0.794-2.42-2.236c0-1.785,1.32-3.227,2.885-3.227
		c1.283,0,2.126,0.733,2.126,1.968c0,0.33-0.061,0.697-0.195,1.1H237.063z M237.21,17.785h2.738
		c0.049-0.146,0.073-0.306,0.073-0.452c0-0.55-0.367-0.953-1.124-0.953C238.14,16.379,237.491,16.954,237.21,17.785z"/>
	<path d="M240.73,22.258c1.125-0.599,1.54-1.186,1.577-1.455c-0.379-0.134-0.562-0.513-0.562-0.733c0-0.477,0.379-0.855,0.855-0.855
		s0.88,0.379,0.88,0.953c0,0.88-0.953,1.968-2.518,2.53L240.73,22.258z"/>
	<path d="M247.233,18.616c0-1.613,1.259-3.129,2.982-3.129c1.516,0,2.371,1.088,2.371,2.347c0,1.601-1.259,3.117-2.982,3.117
		C248.089,20.95,247.233,19.862,247.233,18.616z M251.511,17.821c0-0.904-0.586-1.43-1.344-1.43c-1.027,0-1.858,0.99-1.858,2.224
		c0,0.917,0.587,1.442,1.345,1.442C250.68,20.058,251.511,19.056,251.511,17.821z"/>
	<path d="M255.789,15.585l-0.807,3.19c-0.036,0.171-0.073,0.354-0.073,0.525c0,0.464,0.281,0.746,0.733,0.746
		c0.697,0,1.283-0.562,1.553-1.601l0.709-2.86h1.075l-0.941,3.728c-0.049,0.22-0.085,0.416-0.085,0.538
		c0,0.232,0.109,0.367,0.306,0.367c0.207,0,0.439-0.183,0.696-0.855l0.477,0.171c-0.317,1.051-0.88,1.405-1.454,1.405
		c-0.624,0-1.015-0.428-1.015-1.088v-0.11c-0.428,0.721-1.075,1.21-1.784,1.21c-0.746,0-1.369-0.538-1.369-1.393
		c0-0.269,0.049-0.575,0.122-0.88l0.562-2.188h-0.978l0.231-0.904H255.789z"/>
	<path d="M261.339,16.489h-0.978l0.232-0.904h1.882l-0.342,1.479c0.647-1.039,1.259-1.564,1.833-1.564
		c0.428,0,0.782,0.306,0.782,0.733c0,0.416-0.342,0.746-0.733,0.746c-0.366,0-0.647-0.245-0.709-0.538
		c-0.379,0.171-1.124,0.917-1.405,2.053l-0.587,2.359h-1.075L261.339,16.489z"/>
	<path d="M267.769,20.278c-0.208-0.208-0.33-0.44-0.33-0.697c0-0.391,0.269-0.685,0.623-0.685c0.343,0,0.587,0.269,0.587,0.587
		c0,0.122-0.049,0.256-0.122,0.342c0.049,0.049,0.11,0.086,0.195,0.135c0.245,0.122,0.599,0.208,0.978,0.208
		c0.551,0,1.015-0.22,1.015-0.647c0-0.44-0.525-0.66-1.112-0.917c-0.733-0.33-1.441-0.697-1.441-1.54s0.721-1.577,2.028-1.577
		c0.722,0,1.332,0.232,1.675,0.587c0.195,0.195,0.306,0.44,0.306,0.685c0,0.403-0.281,0.672-0.611,0.672s-0.599-0.269-0.599-0.586
		c0-0.11,0.024-0.196,0.109-0.342c-0.036-0.024-0.085-0.061-0.184-0.098c-0.183-0.074-0.439-0.123-0.708-0.123
		c-0.538,0-0.966,0.22-0.966,0.599c0,0.403,0.525,0.635,1.137,0.917c0.721,0.33,1.418,0.721,1.418,1.54
		c0,1.039-0.844,1.613-2.091,1.613C268.868,20.95,268.16,20.682,267.769,20.278z"/>
	<path d="M272.891,18.616c0-1.613,1.259-3.129,2.982-3.129c1.516,0,2.371,1.088,2.371,2.347c0,1.601-1.259,3.117-2.982,3.117
		C273.746,20.95,272.891,19.862,272.891,18.616z M277.168,17.821c0-0.904-0.586-1.43-1.344-1.43c-1.027,0-1.858,0.99-1.858,2.224
		c0,0.917,0.587,1.442,1.345,1.442C276.337,20.058,277.168,19.056,277.168,17.821z"/>
	<path d="M281.446,15.585l-0.807,3.19c-0.036,0.171-0.073,0.354-0.073,0.525c0,0.464,0.281,0.746,0.733,0.746
		c0.697,0,1.283-0.562,1.553-1.601l0.709-2.86h1.075l-0.941,3.728c-0.049,0.22-0.085,0.416-0.085,0.538
		c0,0.232,0.109,0.367,0.306,0.367c0.207,0,0.439-0.183,0.696-0.855l0.477,0.171c-0.317,1.051-0.88,1.405-1.454,1.405
		c-0.624,0-1.015-0.428-1.015-1.088v-0.11c-0.428,0.721-1.075,1.21-1.784,1.21c-0.746,0-1.369-0.538-1.369-1.393
		c0-0.269,0.049-0.575,0.122-0.88l0.562-2.188h-0.978l0.231-0.904H281.446z"/>
	<path d="M285.982,20.278c-0.208-0.208-0.33-0.44-0.33-0.697c0-0.391,0.269-0.685,0.623-0.685c0.342,0,0.587,0.269,0.587,0.587
		c0,0.122-0.049,0.256-0.123,0.342c0.05,0.049,0.11,0.086,0.196,0.135c0.244,0.122,0.599,0.208,0.978,0.208
		c0.55,0,1.015-0.22,1.015-0.647c0-0.44-0.525-0.66-1.112-0.917c-0.733-0.33-1.442-0.697-1.442-1.54s0.721-1.577,2.029-1.577
		c0.721,0,1.332,0.232,1.674,0.587c0.195,0.195,0.306,0.44,0.306,0.685c0,0.403-0.281,0.672-0.611,0.672s-0.599-0.269-0.599-0.586
		c0-0.11,0.024-0.196,0.11-0.342c-0.037-0.024-0.086-0.061-0.184-0.098c-0.184-0.074-0.44-0.123-0.709-0.123
		c-0.538,0-0.966,0.22-0.966,0.599c0,0.403,0.526,0.635,1.137,0.917c0.722,0.33,1.418,0.721,1.418,1.54
		c0,1.039-0.843,1.613-2.09,1.613C287.082,20.95,286.373,20.682,285.982,20.278z"/>
	<path d="M293.694,18.616c0-1.674,1.394-3.129,3.068-3.129c1.161,0,1.931,0.709,1.931,1.479c0,0.452-0.281,0.831-0.721,0.831
		c-0.33,0-0.623-0.256-0.623-0.647c0-0.159,0.085-0.354,0.22-0.465c-0.171-0.195-0.452-0.293-0.831-0.293
		c-0.953,0-1.968,0.819-1.968,2.163c0,0.917,0.611,1.503,1.503,1.503c0.611,0,1.234-0.245,1.772-0.66l-0.024,0.978
		c-0.514,0.367-1.149,0.574-1.846,0.574C294.782,20.95,293.694,20.083,293.694,18.616z"/>
	<path d="M301.163,12.81h-0.989l0.232-0.904h2.017l-1.101,4.706c0.379-0.586,1.002-1.112,1.699-1.112
		c0.807,0,1.454,0.55,1.454,1.491c0,0.257-0.036,0.55-0.134,0.855l-0.428,1.564c-0.037,0.159-0.062,0.318-0.062,0.416
		c0,0.245,0.122,0.391,0.317,0.391c0.221,0,0.44-0.183,0.685-0.855l0.477,0.171c-0.281,0.953-0.77,1.405-1.43,1.405
		c-0.721,0-1.124-0.44-1.124-1.051c0-0.171,0.036-0.391,0.085-0.587l0.44-1.601c0.061-0.208,0.073-0.367,0.073-0.538
		c0-0.465-0.33-0.77-0.807-0.77c-0.648,0-1.283,0.538-1.528,1.625l-0.66,2.835h-1.075L301.163,12.81z"/>
	<path d="M307.067,18.555v0.184c0,0.794,0.636,1.32,1.589,1.32c0.562,0,1.076-0.122,1.735-0.477l-0.207,1.002
		c-0.551,0.269-1.003,0.367-1.748,0.367c-1.259,0-2.42-0.794-2.42-2.236c0-1.785,1.32-3.227,2.885-3.227
		c1.283,0,2.126,0.733,2.126,1.968c0,0.33-0.061,0.697-0.195,1.1H307.067z M307.214,17.785h2.738
		c0.049-0.146,0.073-0.306,0.073-0.452c0-0.55-0.367-0.953-1.124-0.953C308.144,16.379,307.495,16.954,307.214,17.785z"/>
	<path d="M312.996,16.489h-0.917l0.22-0.904h0.904l0.343-1.455c0.184-0.807,0.465-1.32,0.844-1.699
		c0.403-0.403,0.953-0.599,1.503-0.599c0.696,0,1.051,0.379,1.051,0.794s-0.33,0.685-0.685,0.685s-0.635-0.232-0.672-0.562
		c-0.171,0.037-0.33,0.135-0.44,0.245c-0.244,0.245-0.428,0.648-0.574,1.247l-0.306,1.345h1.382l-0.232,0.904h-1.356l-1.003,4.363
		h-1.063L312.996,16.489z"/>
	<path d="M315.796,20.278c-0.208-0.208-0.33-0.44-0.33-0.697c0-0.391,0.269-0.685,0.623-0.685c0.342,0,0.587,0.269,0.587,0.587
		c0,0.122-0.049,0.256-0.123,0.342c0.05,0.049,0.11,0.086,0.196,0.135c0.244,0.122,0.599,0.208,0.978,0.208
		c0.55,0,1.015-0.22,1.015-0.647c0-0.44-0.525-0.66-1.112-0.917c-0.733-0.33-1.442-0.697-1.442-1.54s0.721-1.577,2.029-1.577
		c0.721,0,1.332,0.232,1.674,0.587c0.195,0.195,0.306,0.44,0.306,0.685c0,0.403-0.281,0.672-0.611,0.672s-0.599-0.269-0.599-0.586
		c0-0.11,0.024-0.196,0.11-0.342c-0.037-0.024-0.086-0.061-0.184-0.098c-0.184-0.074-0.44-0.123-0.709-0.123
		c-0.538,0-0.966,0.22-0.966,0.599c0,0.403,0.526,0.635,1.137,0.917c0.722,0.33,1.418,0.721,1.418,1.54
		c0,1.039-0.843,1.613-2.09,1.613C316.896,20.95,316.187,20.682,315.796,20.278z"/>
	<path d="M325.635,16.489l-1.002,4.363h-1.052l1.003-4.363h-0.929l0.231-0.904h0.904l0.33-1.406
		c0.147-0.624,0.403-1.125,0.746-1.516c0.439-0.525,1.026-0.831,1.76-0.831c0.831,0,1.32,0.44,1.32,0.941
		c0,0.416-0.294,0.697-0.673,0.697c-0.403,0-0.659-0.306-0.659-0.648v-0.049c-0.049-0.012-0.086-0.012-0.123-0.012
		c-0.342,0-0.61,0.147-0.831,0.428c-0.231,0.245-0.415,0.636-0.537,1.186l-0.281,1.21h3.41l-0.979,3.728
		c-0.049,0.208-0.085,0.416-0.085,0.538c0,0.232,0.135,0.367,0.33,0.367c0.244,0,0.464-0.183,0.721-0.855l0.465,0.171
		c-0.318,1.051-0.831,1.405-1.467,1.405c-0.722,0-1.112-0.428-1.112-1.063c0-0.159,0.037-0.391,0.086-0.574l0.733-2.811H325.635z"/>
	<path d="M334.044,19.887c0-0.171,0.037-0.403,0.086-0.599l0.452-1.589c0.062-0.208,0.086-0.367,0.086-0.538
		c0-0.465-0.318-0.77-0.795-0.77c-0.647,0-1.259,0.55-1.527,1.601l-0.709,2.86h-1.076l1.101-4.363h-0.978l0.231-0.904h1.883
		l-0.281,1.234c0.415-0.733,1.1-1.32,1.821-1.32c0.807,0,1.43,0.55,1.43,1.491c0,0.257-0.049,0.55-0.135,0.855l-0.452,1.552
		c-0.036,0.159-0.073,0.33-0.073,0.428c0,0.245,0.122,0.391,0.33,0.391s0.44-0.183,0.685-0.855l0.477,0.171
		c-0.281,0.953-0.782,1.405-1.43,1.405C334.447,20.938,334.044,20.498,334.044,19.887z"/>
	<path d="M337.333,18.848c0-1.797,1.246-3.361,2.774-3.361c0.794,0,1.394,0.575,1.576,1.247l0.343-1.173h1.002l-0.929,3.752
		c-0.062,0.22-0.098,0.416-0.098,0.538c0,0.232,0.109,0.367,0.317,0.367c0.195,0,0.44-0.183,0.685-0.855l0.477,0.171
		c-0.317,1.051-0.867,1.405-1.454,1.405c-0.623,0-1.015-0.428-1.015-1.063v-0.061c-0.452,0.624-1.088,1.137-1.882,1.137
		C338.078,20.95,337.333,20.131,337.333,18.848z M341.439,17.724c0-0.782-0.391-1.295-1.197-1.295c-1.027,0-1.797,1.112-1.797,2.298
		c0,0.77,0.379,1.308,1.112,1.308C340.633,20.034,341.439,18.873,341.439,17.724z"/>
	<path d="M344.398,19.862c0-0.159,0.037-0.354,0.073-0.55l1.516-6.502h-0.99l0.232-0.904h2.029l-1.712,7.395
		c-0.049,0.208-0.085,0.403-0.085,0.525c0,0.257,0.11,0.391,0.317,0.391c0.245,0,0.465-0.183,0.722-0.855l0.464,0.171
		c-0.317,1.051-0.831,1.405-1.467,1.405C344.777,20.938,344.398,20.51,344.398,19.862z"/>
	<path d="M347.955,19.862c0-0.159,0.037-0.354,0.073-0.55l1.516-6.502h-0.99l0.232-0.904h2.029l-1.712,7.395
		c-0.049,0.208-0.085,0.403-0.085,0.525c0,0.257,0.11,0.391,0.317,0.391c0.245,0,0.465-0.183,0.722-0.855l0.464,0.171
		c-0.317,1.051-0.831,1.405-1.467,1.405C348.334,20.938,347.955,20.51,347.955,19.862z"/>
	<path d="M349.862,22.527c0-0.391,0.293-0.684,0.66-0.684c0.306,0,0.562,0.208,0.636,0.525c0.293-0.012,0.818-0.44,1.882-1.724
		l-0.855-4.155h-0.929l0.231-0.904h1.614l0.708,4.204c0.832-1.1,1.577-2.126,1.772-2.884c-0.269-0.098-0.513-0.342-0.513-0.709
		c0-0.379,0.305-0.709,0.721-0.709c0.501,0,0.819,0.367,0.819,0.954c0,0.709-0.478,1.796-2.433,4.216
		c-1.857,2.286-2.604,2.64-3.397,2.64C350.241,23.297,349.862,22.942,349.862,22.527z"/>
	<path d="M39.692,38.686c-0.232-0.232-0.306-0.428-0.306-0.684c0-0.428,0.293-0.721,0.672-0.721s0.648,0.306,0.648,0.66
		c0,0.11-0.024,0.232-0.074,0.317c0.159,0.098,0.477,0.195,0.88,0.195c0.501,0,0.855-0.134,1.161-0.439
		c0.281-0.269,0.452-0.697,0.586-1.271l0.232-0.99c-0.452,0.636-1.088,1.039-1.809,1.039c-1.186,0-1.919-0.843-1.919-2.115
		c0-1.711,1.186-3.19,2.787-3.19c0.905,0,1.442,0.611,1.626,1.198l0.33-1.125h0.99l-1.259,5.427
		c-0.159,0.709-0.379,1.234-0.77,1.638c-0.464,0.452-1.076,0.672-1.931,0.672C40.804,39.297,40.01,39.003,39.692,38.686z
		 M43.958,33.687c0-0.782-0.513-1.259-1.271-1.259c-1.027,0-1.809,0.978-1.809,2.175c0,0.782,0.513,1.271,1.247,1.271
		C43.175,35.875,43.958,34.824,43.958,33.687z"/>
	<path d="M47.222,34.555v0.184c0,0.794,0.635,1.32,1.589,1.32c0.562,0,1.076-0.122,1.735-0.477l-0.208,1.002
		c-0.55,0.269-1.002,0.367-1.748,0.367c-1.259,0-2.42-0.794-2.42-2.236c0-1.785,1.32-3.227,2.885-3.227
		c1.283,0,2.126,0.733,2.126,1.968c0,0.33-0.061,0.697-0.196,1.1H47.222z M47.368,33.785h2.738c0.049-0.146,0.073-0.306,0.073-0.452
		c0-0.55-0.367-0.953-1.124-0.953C48.297,32.379,47.649,32.954,47.368,33.785z"/>
	<path d="M54.262,32.489L53.59,35.19c-0.049,0.183-0.073,0.354-0.073,0.464c0,0.293,0.171,0.452,0.416,0.452
		c0.281,0,0.538-0.122,1.051-0.464l0.379,0.513c-0.685,0.599-1.259,0.782-1.772,0.782c-0.648,0-1.161-0.367-1.161-1.112
		c0-0.183,0.037-0.391,0.085-0.635l0.672-2.701h-0.953l0.208-0.904h0.966l0.305-1.198l1.173-0.403l-0.403,1.602h1.613l-0.232,0.904
		H54.262z"/>
	<path d="M58.932,34.848c0-1.797,1.247-3.361,2.774-3.361c0.794,0,1.394,0.575,1.577,1.247l0.342-1.173h1.002l-0.929,3.752
		c-0.061,0.22-0.098,0.416-0.098,0.538c0,0.232,0.11,0.367,0.318,0.367c0.195,0,0.44-0.183,0.685-0.855l0.477,0.171
		c-0.318,1.051-0.868,1.405-1.455,1.405c-0.623,0-1.014-0.428-1.014-1.063v-0.061c-0.453,0.624-1.088,1.137-1.882,1.137
		C59.677,36.95,58.932,36.131,58.932,34.848z M63.039,33.724c0-0.782-0.391-1.295-1.198-1.295c-1.027,0-1.797,1.112-1.797,2.298
		c0,0.77,0.379,1.308,1.112,1.308C62.232,36.034,63.039,34.873,63.039,33.724z"/>
	<path d="M69.542,32.489h-0.978l0.232-0.904h1.882l-0.293,1.234c0.428-0.733,1.063-1.32,1.76-1.32c0.77,0,1.271,0.514,1.332,1.308
		c0.477-0.807,1.149-1.308,1.785-1.308c0.77,0,1.369,0.55,1.369,1.491c0,0.257-0.049,0.55-0.134,0.855l-0.452,1.552
		c-0.037,0.159-0.073,0.33-0.073,0.428c0,0.245,0.122,0.391,0.33,0.391c0.208,0,0.44-0.183,0.685-0.855l0.477,0.171
		c-0.281,0.953-0.782,1.405-1.43,1.405c-0.721,0-1.125-0.44-1.125-1.051c0-0.171,0.037-0.403,0.085-0.599l0.44-1.54
		c0.073-0.22,0.098-0.416,0.098-0.586c0-0.477-0.317-0.77-0.721-0.77c-0.611,0-1.198,0.562-1.479,1.674l-0.709,2.787h-1.076
		l0.794-3.092c0.049-0.232,0.085-0.452,0.085-0.623c0-0.428-0.293-0.746-0.721-0.746c-0.611,0-1.223,0.574-1.491,1.662l-0.697,2.799
		h-1.076L69.542,32.489z"/>
	<path d="M78.514,35.875c0-0.159,0.037-0.391,0.085-0.574l0.733-2.811h-0.99l0.232-0.904h2.065l-0.978,3.728
		c-0.061,0.208-0.085,0.416-0.085,0.538c0,0.232,0.122,0.367,0.318,0.367c0.244,0,0.464-0.183,0.721-0.855l0.477,0.171
		c-0.318,1.051-0.831,1.405-1.479,1.405C78.905,36.938,78.514,36.51,78.514,35.875z M79.541,29.983c0-0.391,0.317-0.708,0.708-0.708
		c0.379,0,0.709,0.317,0.709,0.708s-0.33,0.709-0.709,0.709C79.858,30.692,79.541,30.375,79.541,29.983z"/>
	<path d="M85.456,35.887c0-0.171,0.037-0.403,0.085-0.599l0.453-1.589c0.061-0.208,0.085-0.367,0.085-0.538
		c0-0.465-0.318-0.77-0.794-0.77c-0.648,0-1.259,0.55-1.528,1.601l-0.709,2.86h-1.076l1.1-4.363h-0.978l0.232-0.904h1.882
		l-0.281,1.234c0.416-0.733,1.1-1.32,1.821-1.32c0.807,0,1.43,0.55,1.43,1.491c0,0.257-0.049,0.55-0.135,0.855l-0.452,1.552
		c-0.037,0.159-0.073,0.33-0.073,0.428c0,0.245,0.122,0.391,0.33,0.391c0.208,0,0.44-0.183,0.685-0.855l0.477,0.171
		c-0.281,0.953-0.782,1.405-1.43,1.405C85.859,36.938,85.456,36.498,85.456,35.887z"/>
	<path d="M91.128,31.585l-0.807,3.19c-0.037,0.171-0.073,0.354-0.073,0.525c0,0.464,0.281,0.746,0.733,0.746
		c0.697,0,1.283-0.562,1.552-1.601l0.709-2.86h1.075l-0.941,3.728c-0.049,0.22-0.085,0.416-0.085,0.538
		c0,0.232,0.11,0.367,0.306,0.367c0.208,0,0.44-0.183,0.696-0.855l0.477,0.171c-0.318,1.051-0.88,1.405-1.455,1.405
		c-0.624,0-1.015-0.428-1.015-1.088v-0.11c-0.428,0.721-1.075,1.21-1.784,1.21c-0.746,0-1.369-0.538-1.369-1.393
		c0-0.269,0.049-0.575,0.123-0.88l0.562-2.188h-0.978l0.232-0.904H91.128z"/>
	<path d="M97.729,32.489l-0.672,2.701c-0.049,0.183-0.073,0.354-0.073,0.464c0,0.293,0.171,0.452,0.416,0.452
		c0.281,0,0.538-0.122,1.051-0.464l0.379,0.513c-0.685,0.599-1.259,0.782-1.772,0.782c-0.648,0-1.161-0.367-1.161-1.112
		c0-0.183,0.037-0.391,0.085-0.635l0.672-2.701H95.7l0.208-0.904h0.966l0.305-1.198l1.173-0.403l-0.403,1.602h1.613l-0.232,0.904
		H97.729z"/>
	<path d="M100.882,34.555v0.184c0,0.794,0.635,1.32,1.589,1.32c0.562,0,1.076-0.122,1.735-0.477l-0.208,1.002
		c-0.55,0.269-1.002,0.367-1.748,0.367c-1.259,0-2.42-0.794-2.42-2.236c0-1.785,1.32-3.227,2.885-3.227
		c1.283,0,2.126,0.733,2.126,1.968c0,0.33-0.061,0.697-0.196,1.1H100.882z M101.029,33.785h2.738
		c0.049-0.146,0.073-0.306,0.073-0.452c0-0.55-0.367-0.953-1.124-0.953C101.958,32.379,101.31,32.954,101.029,33.785z"/>
	<path d="M110.466,32.489l-0.672,2.701c-0.049,0.183-0.073,0.354-0.073,0.464c0,0.293,0.171,0.452,0.416,0.452
		c0.281,0,0.538-0.122,1.051-0.464l0.379,0.513c-0.685,0.599-1.259,0.782-1.772,0.782c-0.648,0-1.161-0.367-1.161-1.112
		c0-0.183,0.037-0.391,0.085-0.635l0.672-2.701h-0.953l0.208-0.904h0.966l0.305-1.198l1.173-0.403l-0.403,1.602h1.613l-0.232,0.904
		H110.466z"/>
	<path d="M112.58,34.616c0-1.613,1.259-3.129,2.982-3.129c1.516,0,2.371,1.088,2.371,2.347c0,1.601-1.259,3.117-2.982,3.117
		C113.436,36.95,112.58,35.862,112.58,34.616z M116.858,33.821c0-0.904-0.586-1.43-1.344-1.43c-1.027,0-1.858,0.99-1.858,2.224
		c0,0.917,0.586,1.442,1.344,1.442C116.027,36.058,116.858,35.056,116.858,33.821z"/>
	<path d="M121.527,36.278c-0.208-0.208-0.33-0.44-0.33-0.697c0-0.391,0.269-0.685,0.623-0.685c0.342,0,0.587,0.269,0.587,0.587
		c0,0.122-0.049,0.256-0.123,0.342c0.049,0.049,0.11,0.086,0.196,0.135c0.245,0.122,0.599,0.208,0.978,0.208
		c0.55,0,1.015-0.22,1.015-0.647c0-0.44-0.525-0.66-1.112-0.917c-0.733-0.33-1.442-0.697-1.442-1.54s0.721-1.577,2.029-1.577
		c0.721,0,1.332,0.232,1.674,0.587c0.195,0.195,0.306,0.44,0.306,0.685c0,0.403-0.281,0.672-0.611,0.672s-0.599-0.269-0.599-0.586
		c0-0.11,0.024-0.196,0.11-0.342c-0.037-0.024-0.085-0.061-0.184-0.098c-0.183-0.074-0.44-0.123-0.708-0.123
		c-0.538,0-0.966,0.22-0.966,0.599c0,0.403,0.526,0.635,1.137,0.917c0.721,0.33,1.418,0.721,1.418,1.54
		c0,1.039-0.843,1.613-2.09,1.613C122.627,36.95,121.919,36.682,121.527,36.278z"/>
	<path d="M127.028,35.875c0-0.159,0.037-0.391,0.085-0.574l0.733-2.811h-0.99l0.232-0.904h2.065l-0.978,3.728
		c-0.061,0.208-0.085,0.416-0.085,0.538c0,0.232,0.122,0.367,0.318,0.367c0.244,0,0.464-0.183,0.721-0.855l0.477,0.171
		c-0.318,1.051-0.831,1.405-1.479,1.405C127.419,36.938,127.028,36.51,127.028,35.875z M128.055,29.983
		c0-0.391,0.317-0.708,0.708-0.708c0.379,0,0.709,0.317,0.709,0.708s-0.33,0.709-0.709,0.709
		C128.373,30.692,128.055,30.375,128.055,29.983z"/>
	<path d="M132.639,32.489l-0.672,2.701c-0.049,0.183-0.073,0.354-0.073,0.464c0,0.293,0.171,0.452,0.416,0.452
		c0.281,0,0.538-0.122,1.051-0.464l0.379,0.513c-0.685,0.599-1.259,0.782-1.772,0.782c-0.648,0-1.161-0.367-1.161-1.112
		c0-0.183,0.037-0.391,0.085-0.635l0.672-2.701h-0.953l0.208-0.904h0.966l0.305-1.198l1.173-0.403l-0.403,1.602h1.613l-0.232,0.904
		H132.639z"/>
	<path d="M140.07,31.487c0.782,0,1.394,0.575,1.589,1.21l0.893-3.887h-0.978l0.22-0.904h2.029l-1.736,7.407
		c-0.049,0.232-0.085,0.416-0.085,0.538c0,0.232,0.098,0.367,0.306,0.367s0.44-0.183,0.697-0.855l0.477,0.171
		c-0.318,1.051-0.88,1.405-1.455,1.405c-0.635,0-1.026-0.428-1.026-1.076v-0.049c-0.44,0.636-1.076,1.137-1.87,1.137
		c-1.051,0-1.821-0.831-1.821-2.102C137.308,33.027,138.567,31.487,140.07,31.487z M141.439,33.736c0-0.794-0.428-1.308-1.222-1.308
		c-1.027,0-1.797,1.112-1.797,2.298c0,0.758,0.403,1.308,1.137,1.308C140.608,36.034,141.439,34.909,141.439,33.736z"/>
	<path d="M144.129,34.616c0-1.613,1.259-3.129,2.982-3.129c1.516,0,2.371,1.088,2.371,2.347c0,1.601-1.259,3.117-2.982,3.117
		C144.984,36.95,144.129,35.862,144.129,34.616z M148.407,33.821c0-0.904-0.586-1.43-1.344-1.43c-1.027,0-1.858,0.99-1.858,2.224
		c0,0.917,0.586,1.442,1.344,1.442C147.576,36.058,148.407,35.056,148.407,33.821z"/>
	<path d="M151.072,32.489h-0.965l0.232-0.904h1.65l0.232,3.997l1.87-3.398h0.611l0.709,3.496c0.709-1.088,1.32-2.114,1.406-2.811
		c-0.269-0.061-0.538-0.293-0.538-0.672c0-0.391,0.306-0.709,0.709-0.709c0.477,0,0.819,0.354,0.819,0.929
		c0,0.892-0.782,2.408-2.347,4.583h-0.635l-0.697-3.214l-1.895,3.214h-0.709L151.072,32.489z"/>
	<path d="M162.183,35.887c0-0.171,0.037-0.403,0.085-0.599l0.453-1.589c0.061-0.208,0.085-0.367,0.085-0.538
		c0-0.465-0.318-0.77-0.794-0.77c-0.648,0-1.259,0.55-1.528,1.601l-0.709,2.86h-1.076l1.1-4.363h-0.978l0.232-0.904h1.882
		l-0.281,1.234c0.416-0.733,1.1-1.32,1.821-1.32c0.807,0,1.43,0.55,1.43,1.491c0,0.257-0.049,0.55-0.135,0.855l-0.452,1.552
		c-0.037,0.159-0.073,0.33-0.073,0.428c0,0.245,0.122,0.391,0.33,0.391c0.208,0,0.44-0.183,0.685-0.855l0.477,0.171
		c-0.281,0.953-0.782,1.405-1.43,1.405C162.586,36.938,162.183,36.498,162.183,35.887z"/>
	<path d="M168.784,32.489h-0.965l0.232-0.904h1.65l0.232,3.997l1.87-3.398h0.611l0.709,3.496c0.709-1.088,1.32-2.114,1.406-2.811
		c-0.269-0.061-0.538-0.293-0.538-0.672c0-0.391,0.306-0.709,0.709-0.709c0.477,0,0.819,0.354,0.819,0.929
		c0,0.892-0.782,2.408-2.347,4.583h-0.635l-0.697-3.214l-1.895,3.214h-0.709L168.784,32.489z"/>
	<path d="M176.705,35.875c0-0.159,0.037-0.391,0.085-0.574l0.733-2.811h-0.99l0.232-0.904h2.065l-0.978,3.728
		c-0.061,0.208-0.085,0.416-0.085,0.538c0,0.232,0.122,0.367,0.318,0.367c0.244,0,0.464-0.183,0.721-0.855l0.477,0.171
		c-0.318,1.051-0.832,1.405-1.479,1.405C177.096,36.938,176.705,36.51,176.705,35.875z M177.731,29.983
		c0-0.391,0.317-0.708,0.708-0.708c0.379,0,0.709,0.317,0.709,0.708s-0.33,0.709-0.709,0.709
		C178.049,30.692,177.731,30.375,177.731,29.983z"/>
	<path d="M182.315,32.489l-0.672,2.701c-0.049,0.183-0.073,0.354-0.073,0.464c0,0.293,0.171,0.452,0.416,0.452
		c0.281,0,0.538-0.122,1.051-0.464l0.379,0.513c-0.685,0.599-1.259,0.782-1.772,0.782c-0.648,0-1.161-0.367-1.161-1.112
		c0-0.183,0.037-0.391,0.085-0.635l0.672-2.701h-0.953l0.208-0.904h0.966l0.305-1.198l1.173-0.403l-0.403,1.602h1.613l-0.232,0.904
		H182.315z"/>
	<path d="M186.104,28.81h-0.99l0.232-0.904h2.017l-1.1,4.706c0.379-0.586,1.002-1.112,1.699-1.112c0.807,0,1.455,0.55,1.455,1.491
		c0,0.257-0.037,0.55-0.134,0.855l-0.428,1.564c-0.037,0.159-0.062,0.318-0.062,0.416c0,0.245,0.123,0.391,0.318,0.391
		c0.22,0,0.44-0.183,0.685-0.855l0.477,0.171c-0.281,0.953-0.77,1.405-1.43,1.405c-0.721,0-1.124-0.44-1.124-1.051
		c0-0.171,0.037-0.391,0.085-0.587l0.44-1.601c0.061-0.208,0.073-0.367,0.073-0.538c0-0.465-0.33-0.77-0.807-0.77
		c-0.648,0-1.283,0.538-1.528,1.625l-0.66,2.835h-1.075L186.104,28.81z"/>
	<path d="M195.907,31.585l-0.807,3.19c-0.037,0.171-0.073,0.354-0.073,0.525c0,0.464,0.281,0.746,0.733,0.746
		c0.696,0,1.283-0.562,1.552-1.601l0.709-2.86h1.075l-0.94,3.728c-0.049,0.22-0.086,0.416-0.086,0.538
		c0,0.232,0.11,0.367,0.306,0.367c0.208,0,0.44-0.183,0.696-0.855l0.478,0.171c-0.318,1.051-0.881,1.405-1.455,1.405
		c-0.623,0-1.015-0.428-1.015-1.088v-0.11c-0.428,0.721-1.075,1.21-1.784,1.21c-0.746,0-1.369-0.538-1.369-1.393
		c0-0.269,0.049-0.575,0.123-0.88l0.562-2.188h-0.978l0.232-0.904H195.907z"/>
	<path d="M200.442,36.278c-0.208-0.208-0.33-0.44-0.33-0.697c0-0.391,0.269-0.685,0.623-0.685c0.343,0,0.587,0.269,0.587,0.587
		c0,0.122-0.049,0.256-0.122,0.342c0.049,0.049,0.11,0.086,0.195,0.135c0.245,0.122,0.599,0.208,0.978,0.208
		c0.551,0,1.015-0.22,1.015-0.647c0-0.44-0.525-0.66-1.112-0.917c-0.733-0.33-1.441-0.697-1.441-1.54s0.721-1.577,2.028-1.577
		c0.722,0,1.332,0.232,1.675,0.587c0.195,0.195,0.306,0.44,0.306,0.685c0,0.403-0.281,0.672-0.611,0.672s-0.599-0.269-0.599-0.586
		c0-0.11,0.024-0.196,0.109-0.342c-0.036-0.024-0.085-0.061-0.184-0.098c-0.183-0.074-0.439-0.123-0.708-0.123
		c-0.538,0-0.966,0.22-0.966,0.599c0,0.403,0.525,0.635,1.137,0.917c0.721,0.33,1.418,0.721,1.418,1.54
		c0,1.039-0.844,1.613-2.091,1.613C201.542,36.95,200.834,36.682,200.442,36.278z"/>
	<path d="M208.167,34.848c0-1.797,1.247-3.361,2.774-3.361c0.795,0,1.394,0.575,1.577,1.247l0.342-1.173h1.003l-0.93,3.752
		c-0.061,0.22-0.098,0.416-0.098,0.538c0,0.232,0.11,0.367,0.318,0.367c0.195,0,0.439-0.183,0.685-0.855l0.477,0.171
		c-0.318,1.051-0.868,1.405-1.455,1.405c-0.623,0-1.014-0.428-1.014-1.063v-0.061c-0.453,0.624-1.088,1.137-1.883,1.137
		C208.913,36.95,208.167,36.131,208.167,34.848z M212.274,33.724c0-0.782-0.392-1.295-1.198-1.295c-1.026,0-1.797,1.112-1.797,2.298
		c0,0.77,0.379,1.308,1.112,1.308C211.468,36.034,212.274,34.873,212.274,33.724z"/>
	<path d="M218.618,35.887c0-0.171,0.037-0.403,0.086-0.599l0.452-1.589c0.062-0.208,0.086-0.367,0.086-0.538
		c0-0.465-0.318-0.77-0.795-0.77c-0.647,0-1.259,0.55-1.527,1.601l-0.709,2.86h-1.076l1.101-4.363h-0.978l0.231-0.904h1.883
		l-0.281,1.234c0.415-0.733,1.1-1.32,1.821-1.32c0.807,0,1.43,0.55,1.43,1.491c0,0.257-0.049,0.55-0.135,0.855l-0.452,1.552
		c-0.036,0.159-0.073,0.33-0.073,0.428c0,0.245,0.122,0.391,0.33,0.391s0.44-0.183,0.685-0.855l0.477,0.171
		c-0.281,0.953-0.782,1.405-1.43,1.405C219.021,36.938,218.618,36.498,218.618,35.887z"/>
	<path d="M224.669,31.487c0.782,0,1.394,0.575,1.589,1.21l0.893-3.887h-0.978l0.22-0.904h2.029l-1.736,7.407
		c-0.049,0.232-0.085,0.416-0.085,0.538c0,0.232,0.098,0.367,0.306,0.367s0.439-0.183,0.696-0.855l0.477,0.171
		c-0.317,1.051-0.88,1.405-1.454,1.405c-0.636,0-1.026-0.428-1.026-1.076v-0.049c-0.44,0.636-1.076,1.137-1.87,1.137
		c-1.052,0-1.821-0.831-1.821-2.102C221.907,33.027,223.166,31.487,224.669,31.487z M226.038,33.736
		c0-0.794-0.428-1.308-1.222-1.308c-1.027,0-1.797,1.112-1.797,2.298c0,0.758,0.403,1.308,1.137,1.308
		C225.207,36.034,226.038,34.909,226.038,33.736z"/>
	<path d="M233.58,32.489l-0.673,2.701c-0.049,0.183-0.073,0.354-0.073,0.464c0,0.293,0.171,0.452,0.416,0.452
		c0.281,0,0.537-0.122,1.051-0.464l0.379,0.513c-0.685,0.599-1.259,0.782-1.772,0.782c-0.647,0-1.161-0.367-1.161-1.112
		c0-0.183,0.037-0.391,0.086-0.635l0.672-2.701h-0.953l0.208-0.904h0.966l0.305-1.198l1.174-0.403l-0.403,1.602h1.613l-0.232,0.904
		H233.58z"/>
	<path d="M235.707,34.848c0-1.797,1.246-3.361,2.774-3.361c0.794,0,1.394,0.575,1.576,1.247l0.343-1.173h1.002l-0.929,3.752
		c-0.062,0.22-0.098,0.416-0.098,0.538c0,0.232,0.109,0.367,0.317,0.367c0.195,0,0.44-0.183,0.685-0.855l0.477,0.171
		c-0.317,1.051-0.867,1.405-1.454,1.405c-0.623,0-1.015-0.428-1.015-1.063v-0.061c-0.452,0.624-1.088,1.137-1.882,1.137
		C236.452,36.95,235.707,36.131,235.707,34.848z M239.813,33.724c0-0.782-0.391-1.295-1.197-1.295c-1.027,0-1.797,1.112-1.797,2.298
		c0,0.77,0.379,1.308,1.112,1.308C239.007,36.034,239.813,34.873,239.813,33.724z"/>
	<path d="M242.772,35.862c0-0.159,0.036-0.354,0.073-0.55l1.516-6.502h-0.99l0.232-0.904h2.028l-1.711,7.395
		c-0.049,0.208-0.086,0.403-0.086,0.525c0,0.257,0.11,0.391,0.318,0.391c0.244,0,0.464-0.183,0.721-0.855l0.465,0.171
		c-0.318,1.051-0.831,1.405-1.467,1.405C243.151,36.938,242.772,36.51,242.772,35.862z"/>
	<path d="M246.012,36.853l1.857-8.042h-0.99l0.232-0.904h2.017l-1.442,6.185c1.467-0.525,2.188-1.002,2.408-1.345
		c-0.208-0.122-0.33-0.342-0.33-0.562c0-0.379,0.306-0.697,0.696-0.697c0.392,0,0.722,0.306,0.722,0.782
		c0,0.794-0.782,1.516-2.065,2.127l0.513,1.198c0.11,0.256,0.184,0.403,0.27,0.501c0.085,0.085,0.158,0.11,0.244,0.11
		c0.184,0,0.354-0.195,0.562-0.978l0.488,0.159c-0.281,1.271-0.758,1.552-1.295,1.552c-0.245,0-0.478-0.061-0.685-0.232
		c-0.172-0.147-0.33-0.367-0.452-0.672l-0.575-1.369c-0.207,0.086-0.439,0.159-0.635,0.232l-0.465,1.956H246.012z"/>
	<path d="M254.8,36.278c-0.208-0.208-0.33-0.44-0.33-0.697c0-0.391,0.269-0.685,0.623-0.685c0.343,0,0.587,0.269,0.587,0.587
		c0,0.122-0.049,0.256-0.122,0.342c0.049,0.049,0.11,0.086,0.195,0.135c0.245,0.122,0.599,0.208,0.978,0.208
		c0.551,0,1.015-0.22,1.015-0.647c0-0.44-0.525-0.66-1.112-0.917c-0.733-0.33-1.441-0.697-1.441-1.54s0.721-1.577,2.028-1.577
		c0.722,0,1.332,0.232,1.675,0.587c0.195,0.195,0.306,0.44,0.306,0.685c0,0.403-0.281,0.672-0.611,0.672s-0.599-0.269-0.599-0.586
		c0-0.11,0.024-0.196,0.109-0.342c-0.036-0.024-0.085-0.061-0.184-0.098c-0.183-0.074-0.439-0.123-0.708-0.123
		c-0.538,0-0.966,0.22-0.966,0.599c0,0.403,0.525,0.635,1.137,0.917c0.721,0.33,1.418,0.721,1.418,1.54
		c0,1.039-0.844,1.613-2.091,1.613C255.899,36.95,255.191,36.682,254.8,36.278z"/>
	<path d="M261.645,28.81h-0.989l0.232-0.904h2.017l-1.101,4.706c0.379-0.586,1.002-1.112,1.699-1.112
		c0.807,0,1.454,0.55,1.454,1.491c0,0.257-0.036,0.55-0.134,0.855l-0.428,1.564c-0.037,0.159-0.062,0.318-0.062,0.416
		c0,0.245,0.122,0.391,0.317,0.391c0.221,0,0.44-0.183,0.685-0.855l0.477,0.171c-0.281,0.953-0.77,1.405-1.43,1.405
		c-0.721,0-1.124-0.44-1.124-1.051c0-0.171,0.036-0.391,0.085-0.587l0.44-1.601c0.061-0.208,0.073-0.367,0.073-0.538
		c0-0.465-0.33-0.77-0.807-0.77c-0.648,0-1.283,0.538-1.528,1.625l-0.66,2.835h-1.075L261.645,28.81z"/>
	<path d="M266.51,34.616c0-1.613,1.259-3.129,2.982-3.129c1.516,0,2.371,1.088,2.371,2.347c0,1.601-1.259,3.117-2.982,3.117
		C267.365,36.95,266.51,35.862,266.51,34.616z M270.788,33.821c0-0.904-0.587-1.43-1.345-1.43c-1.026,0-1.857,0.99-1.857,2.224
		c0,0.917,0.586,1.442,1.344,1.442C269.957,36.058,270.788,35.056,270.788,33.821z"/>
	<path d="M271.729,38.368h0.782l1.381-5.879h-0.99l0.232-0.904h1.907l-0.27,1.148c0.44-0.66,1.088-1.247,1.919-1.247
		c1.186,0,1.907,0.855,1.907,2.127c0,1.833-1.271,3.336-2.812,3.336c-0.794,0-1.356-0.538-1.625-1.161l-0.6,2.579h1.027l-0.232,0.88
		h-2.86L271.729,38.368z M277.486,33.76c0-0.794-0.428-1.356-1.174-1.356c-1.051,0-1.919,1.149-1.919,2.322
		c0,0.77,0.44,1.283,1.26,1.283C276.691,36.009,277.486,34.921,277.486,33.76z"/>
	<path d="M278.221,38.258c1.124-0.599,1.54-1.185,1.576-1.454c-0.379-0.134-0.562-0.513-0.562-0.733
		c0-0.477,0.379-0.855,0.855-0.855s0.88,0.379,0.88,0.953c0,0.88-0.953,1.968-2.518,2.53L278.221,38.258z"/>
	<path d="M284.846,36.278c-0.208-0.208-0.33-0.44-0.33-0.697c0-0.391,0.269-0.685,0.623-0.685c0.342,0,0.587,0.269,0.587,0.587
		c0,0.122-0.049,0.256-0.123,0.342c0.05,0.049,0.11,0.086,0.196,0.135c0.244,0.122,0.599,0.208,0.978,0.208
		c0.55,0,1.015-0.22,1.015-0.647c0-0.44-0.525-0.66-1.112-0.917c-0.733-0.33-1.442-0.697-1.442-1.54s0.721-1.577,2.029-1.577
		c0.721,0,1.332,0.232,1.674,0.587c0.195,0.195,0.306,0.44,0.306,0.685c0,0.403-0.281,0.672-0.611,0.672s-0.599-0.269-0.599-0.586
		c0-0.11,0.024-0.196,0.11-0.342c-0.037-0.024-0.086-0.061-0.184-0.098c-0.184-0.074-0.44-0.123-0.709-0.123
		c-0.538,0-0.966,0.22-0.966,0.599c0,0.403,0.526,0.635,1.137,0.917c0.722,0.33,1.418,0.721,1.418,1.54
		c0,1.039-0.843,1.613-2.09,1.613C285.945,36.95,285.236,36.682,284.846,36.278z"/>
	<path d="M291.69,28.81h-0.99l0.232-0.904h2.017l-1.1,4.706c0.379-0.586,1.002-1.112,1.698-1.112c0.807,0,1.455,0.55,1.455,1.491
		c0,0.257-0.037,0.55-0.135,0.855l-0.428,1.564c-0.037,0.159-0.062,0.318-0.062,0.416c0,0.245,0.123,0.391,0.318,0.391
		c0.22,0,0.439-0.183,0.685-0.855l0.477,0.171c-0.281,0.953-0.771,1.405-1.431,1.405c-0.721,0-1.124-0.44-1.124-1.051
		c0-0.171,0.037-0.391,0.086-0.587l0.439-1.601c0.062-0.208,0.073-0.367,0.073-0.538c0-0.465-0.33-0.77-0.807-0.77
		c-0.647,0-1.283,0.538-1.527,1.625l-0.66,2.835h-1.075L291.69,28.81z"/>
	<path d="M296.567,34.848c0-1.797,1.246-3.361,2.774-3.361c0.794,0,1.394,0.575,1.576,1.247l0.343-1.173h1.002l-0.929,3.752
		c-0.062,0.22-0.098,0.416-0.098,0.538c0,0.232,0.109,0.367,0.317,0.367c0.195,0,0.44-0.183,0.685-0.855l0.477,0.171
		c-0.317,1.051-0.867,1.405-1.454,1.405c-0.623,0-1.015-0.428-1.015-1.063v-0.061c-0.452,0.624-1.088,1.137-1.882,1.137
		C297.312,36.95,296.567,36.131,296.567,34.848z M300.674,33.724c0-0.782-0.391-1.295-1.197-1.295c-1.027,0-1.797,1.112-1.797,2.298
		c0,0.77,0.379,1.308,1.112,1.308C299.867,36.034,300.674,34.873,300.674,33.724z"/>
	<path d="M304.635,32.489h-0.978l0.232-0.904h1.882l-0.342,1.479c0.647-1.039,1.259-1.564,1.833-1.564
		c0.428,0,0.782,0.306,0.782,0.733c0,0.416-0.342,0.746-0.733,0.746c-0.366,0-0.647-0.245-0.709-0.538
		c-0.379,0.171-1.124,0.917-1.405,2.053l-0.587,2.359h-1.075L304.635,32.489z"/>
	<path d="M308.729,35.875c0-0.159,0.037-0.391,0.086-0.574l0.733-2.811h-0.99l0.232-0.904h2.065l-0.978,3.728
		c-0.062,0.208-0.086,0.416-0.086,0.538c0,0.232,0.122,0.367,0.318,0.367c0.244,0,0.464-0.183,0.721-0.855l0.477,0.171
		c-0.317,1.051-0.831,1.405-1.479,1.405C309.121,36.938,308.729,36.51,308.729,35.875z M309.757,29.983
		c0-0.391,0.317-0.708,0.708-0.708c0.379,0,0.709,0.317,0.709,0.708s-0.33,0.709-0.709,0.709
		C310.074,30.692,309.757,30.375,309.757,29.983z"/>
	<path d="M315.672,35.887c0-0.171,0.037-0.403,0.086-0.599l0.452-1.589c0.062-0.208,0.086-0.367,0.086-0.538
		c0-0.465-0.318-0.77-0.795-0.77c-0.647,0-1.259,0.55-1.527,1.601l-0.709,2.86h-1.076l1.101-4.363h-0.978l0.231-0.904h1.883
		l-0.281,1.234c0.415-0.733,1.1-1.32,1.821-1.32c0.807,0,1.43,0.55,1.43,1.491c0,0.257-0.049,0.55-0.135,0.855l-0.452,1.552
		c-0.036,0.159-0.073,0.33-0.073,0.428c0,0.245,0.122,0.391,0.33,0.391s0.44-0.183,0.685-0.855l0.477,0.171
		c-0.281,0.953-0.782,1.405-1.43,1.405C316.075,36.938,315.672,36.498,315.672,35.887z"/>
	<path d="M318.899,38.686c-0.232-0.232-0.306-0.428-0.306-0.684c0-0.428,0.294-0.721,0.673-0.721s0.647,0.306,0.647,0.66
		c0,0.11-0.024,0.232-0.073,0.317c0.159,0.098,0.477,0.195,0.88,0.195c0.501,0,0.855-0.134,1.161-0.439
		c0.281-0.269,0.452-0.697,0.587-1.271l0.232-0.99c-0.452,0.636-1.088,1.039-1.81,1.039c-1.186,0-1.919-0.843-1.919-2.115
		c0-1.711,1.186-3.19,2.787-3.19c0.904,0,1.442,0.611,1.626,1.198l0.329-1.125h0.99l-1.259,5.427
		c-0.159,0.709-0.379,1.234-0.77,1.638c-0.465,0.452-1.076,0.672-1.932,0.672C320.012,39.297,319.218,39.003,318.899,38.686z
		 M323.165,33.687c0-0.782-0.513-1.259-1.271-1.259c-1.027,0-1.81,0.978-1.81,2.175c0,0.782,0.514,1.271,1.247,1.271
		C322.383,35.875,323.165,34.824,323.165,33.687z"/>
	<path d="M330.17,32.489l-0.673,2.701c-0.049,0.183-0.073,0.354-0.073,0.464c0,0.293,0.171,0.452,0.416,0.452
		c0.281,0,0.537-0.122,1.051-0.464l0.379,0.513c-0.685,0.599-1.259,0.782-1.772,0.782c-0.647,0-1.161-0.367-1.161-1.112
		c0-0.183,0.037-0.391,0.086-0.635l0.672-2.701h-0.953l0.208-0.904h0.966l0.305-1.198l1.174-0.403l-0.403,1.602h1.613l-0.232,0.904
		H330.17z"/>
	<path d="M333.959,28.81h-0.99l0.232-0.904h2.017l-1.1,4.706c0.379-0.586,1.002-1.112,1.698-1.112c0.807,0,1.455,0.55,1.455,1.491
		c0,0.257-0.037,0.55-0.135,0.855l-0.428,1.564c-0.037,0.159-0.062,0.318-0.062,0.416c0,0.245,0.123,0.391,0.318,0.391
		c0.22,0,0.439-0.183,0.685-0.855l0.477,0.171c-0.281,0.953-0.771,1.405-1.431,1.405c-0.721,0-1.124-0.44-1.124-1.051
		c0-0.171,0.037-0.391,0.086-0.587l0.439-1.601c0.062-0.208,0.073-0.367,0.073-0.538c0-0.465-0.33-0.77-0.807-0.77
		c-0.647,0-1.283,0.538-1.527,1.625l-0.66,2.835h-1.075L333.959,28.81z"/>
	<path d="M339.863,34.555v0.184c0,0.794,0.635,1.32,1.589,1.32c0.562,0,1.075-0.122,1.735-0.477l-0.208,1.002
		c-0.55,0.269-1.002,0.367-1.748,0.367c-1.259,0-2.42-0.794-2.42-2.236c0-1.785,1.32-3.227,2.885-3.227
		c1.283,0,2.127,0.733,2.127,1.968c0,0.33-0.062,0.697-0.196,1.1H339.863z M340.01,33.785h2.737
		c0.049-0.146,0.073-0.306,0.073-0.452c0-0.55-0.366-0.953-1.124-0.953S340.291,32.954,340.01,33.785z"/>
	<path d="M345.046,35.875c0-0.159,0.036-0.391,0.085-0.574l0.733-2.811h-0.989l0.231-0.904h2.065l-0.978,3.728
		c-0.061,0.208-0.085,0.416-0.085,0.538c0,0.232,0.122,0.367,0.317,0.367c0.244,0,0.465-0.183,0.721-0.855l0.478,0.171
		c-0.318,1.051-0.831,1.405-1.479,1.405C345.437,36.938,345.046,36.51,345.046,35.875z M346.072,29.983
		c0-0.391,0.317-0.708,0.709-0.708c0.379,0,0.709,0.317,0.709,0.708s-0.33,0.709-0.709,0.709
		C346.39,30.692,346.072,30.375,346.072,29.983z"/>
	<path d="M349.604,32.489h-0.978l0.232-0.904h1.882l-0.342,1.479c0.647-1.039,1.259-1.564,1.833-1.564
		c0.428,0,0.782,0.306,0.782,0.733c0,0.416-0.342,0.746-0.733,0.746c-0.366,0-0.647-0.245-0.709-0.538
		c-0.379,0.171-1.124,0.917-1.405,2.053l-0.587,2.359h-1.075L349.604,32.489z"/>
	<path d="M65.464,50.615c0-1.613,1.259-3.129,2.982-3.129c1.516,0,2.371,1.088,2.371,2.347c0,1.602-1.259,3.117-2.982,3.117
		C66.32,52.95,65.464,51.862,65.464,50.615z M69.742,49.821c0-0.904-0.586-1.43-1.344-1.43c-1.027,0-1.858,0.989-1.858,2.224
		c0,0.917,0.586,1.442,1.344,1.442C68.911,52.058,69.742,51.056,69.742,49.821z"/>
	<path d="M72.407,48.489h-0.965l0.232-0.904h1.65l0.232,3.996l1.87-3.397h0.611l0.709,3.495c0.709-1.088,1.32-2.114,1.406-2.811
		c-0.269-0.062-0.538-0.294-0.538-0.673c0-0.391,0.305-0.709,0.708-0.709c0.477,0,0.819,0.354,0.819,0.93
		c0,0.892-0.782,2.407-2.347,4.583H76.16l-0.697-3.215l-1.895,3.215h-0.709L72.407,48.489z"/>
	<path d="M83.518,51.887c0-0.171,0.037-0.403,0.085-0.599l0.453-1.589c0.061-0.208,0.085-0.367,0.085-0.538
		c0-0.465-0.318-0.77-0.794-0.77c-0.648,0-1.259,0.55-1.528,1.601l-0.709,2.86h-1.076l1.1-4.363h-0.978l0.232-0.904h1.882
		l-0.281,1.234c0.416-0.733,1.1-1.32,1.821-1.32c0.807,0,1.43,0.55,1.43,1.491c0,0.257-0.049,0.55-0.135,0.855l-0.452,1.552
		c-0.037,0.159-0.073,0.33-0.073,0.428c0,0.245,0.122,0.392,0.33,0.392c0.208,0,0.44-0.184,0.684-0.855l0.477,0.171
		c-0.281,0.953-0.782,1.405-1.43,1.405C83.921,52.938,83.518,52.498,83.518,51.887z"/>
	<path d="M89.337,50.615c0-1.674,1.394-3.129,3.068-3.129c1.161,0,1.931,0.709,1.931,1.479c0,0.452-0.281,0.831-0.721,0.831
		c-0.33,0-0.623-0.257-0.623-0.647c0-0.159,0.085-0.354,0.22-0.465c-0.171-0.195-0.452-0.293-0.831-0.293
		c-0.953,0-1.968,0.818-1.968,2.163c0,0.916,0.611,1.503,1.503,1.503c0.611,0,1.234-0.244,1.772-0.66l-0.024,0.979
		c-0.513,0.366-1.149,0.574-1.845,0.574C90.425,52.95,89.337,52.082,89.337,50.615z"/>
	<path d="M96.268,48.489H95.29l0.232-0.904h1.882l-0.342,1.479c0.648-1.039,1.259-1.564,1.833-1.564
		c0.428,0,0.782,0.306,0.782,0.733c0,0.415-0.342,0.745-0.733,0.745c-0.367,0-0.648-0.244-0.709-0.537
		c-0.379,0.171-1.125,0.916-1.405,2.053l-0.587,2.359h-1.076L96.268,48.489z"/>
	<path d="M100.827,50.555v0.184c0,0.794,0.635,1.319,1.589,1.319c0.562,0,1.076-0.122,1.735-0.477l-0.208,1.002
		c-0.55,0.27-1.002,0.367-1.748,0.367c-1.259,0-2.42-0.795-2.42-2.236c0-1.785,1.32-3.228,2.885-3.228
		c1.283,0,2.126,0.733,2.126,1.968c0,0.33-0.061,0.697-0.196,1.101H100.827z M100.974,49.784h2.738
		c0.049-0.146,0.073-0.306,0.073-0.452c0-0.55-0.367-0.953-1.124-0.953C101.903,48.379,101.255,48.953,100.974,49.784z"/>
	<path d="M105.692,50.848c0-1.797,1.247-3.361,2.774-3.361c0.794,0,1.394,0.575,1.577,1.247l0.342-1.174h1.002l-0.929,3.753
		c-0.061,0.22-0.098,0.415-0.098,0.537c0,0.232,0.11,0.367,0.318,0.367c0.195,0,0.44-0.184,0.685-0.855l0.477,0.171
		c-0.318,1.051-0.868,1.405-1.455,1.405c-0.623,0-1.014-0.428-1.014-1.063v-0.061c-0.453,0.623-1.088,1.137-1.882,1.137
		C106.438,52.95,105.692,52.131,105.692,50.848z M109.799,49.724c0-0.782-0.391-1.296-1.198-1.296c-1.027,0-1.797,1.112-1.797,2.298
		c0,0.771,0.379,1.308,1.112,1.308C108.993,52.033,109.799,50.872,109.799,49.724z"/>
	<path d="M114.811,48.489l-0.672,2.701c-0.049,0.183-0.073,0.354-0.073,0.464c0,0.294,0.171,0.452,0.416,0.452
		c0.281,0,0.538-0.122,1.051-0.464l0.379,0.513c-0.685,0.6-1.259,0.782-1.772,0.782c-0.648,0-1.161-0.366-1.161-1.112
		c0-0.183,0.037-0.391,0.085-0.635l0.672-2.701h-0.953l0.208-0.904h0.966l0.305-1.198l1.173-0.403l-0.403,1.602h1.613l-0.232,0.904
		H114.811z"/>
	<path d="M117.255,51.874c0-0.158,0.037-0.391,0.085-0.574l0.733-2.811h-0.99l0.232-0.904h2.065l-0.978,3.728
		c-0.061,0.208-0.085,0.415-0.085,0.537c0,0.232,0.122,0.367,0.318,0.367c0.244,0,0.464-0.184,0.721-0.855l0.477,0.171
		c-0.318,1.051-0.832,1.405-1.479,1.405C117.646,52.938,117.255,52.51,117.255,51.874z M118.282,45.983
		c0-0.392,0.317-0.709,0.708-0.709c0.379,0,0.709,0.317,0.709,0.709c0,0.391-0.33,0.709-0.709,0.709
		C118.6,46.692,118.282,46.374,118.282,45.983z"/>
	<path d="M120.678,50.615c0-1.613,1.259-3.129,2.982-3.129c1.516,0,2.371,1.088,2.371,2.347c0,1.602-1.259,3.117-2.982,3.117
		C121.534,52.95,120.678,51.862,120.678,50.615z M124.956,49.821c0-0.904-0.586-1.43-1.344-1.43c-1.027,0-1.858,0.989-1.858,2.224
		c0,0.917,0.586,1.442,1.344,1.442C124.125,52.058,124.956,51.056,124.956,49.821z"/>
	<path d="M130.481,51.887c0-0.171,0.037-0.403,0.085-0.599l0.453-1.589c0.061-0.208,0.085-0.367,0.085-0.538
		c0-0.465-0.318-0.77-0.794-0.77c-0.648,0-1.259,0.55-1.528,1.601l-0.709,2.86h-1.076l1.1-4.363h-0.978l0.232-0.904h1.882
		l-0.281,1.234c0.416-0.733,1.1-1.32,1.821-1.32c0.807,0,1.43,0.55,1.43,1.491c0,0.257-0.049,0.55-0.135,0.855l-0.452,1.552
		c-0.037,0.159-0.073,0.33-0.073,0.428c0,0.245,0.122,0.392,0.33,0.392c0.208,0,0.44-0.184,0.684-0.855l0.477,0.171
		c-0.281,0.953-0.782,1.405-1.43,1.405C130.884,52.938,130.481,52.498,130.481,51.887z"/>
	<path d="M133.88,52.278c-0.208-0.208-0.33-0.44-0.33-0.697c0-0.391,0.269-0.685,0.623-0.685c0.342,0,0.587,0.27,0.587,0.587
		c0,0.122-0.049,0.257-0.123,0.342c0.049,0.049,0.11,0.086,0.196,0.135c0.245,0.122,0.599,0.208,0.978,0.208
		c0.55,0,1.015-0.22,1.015-0.647c0-0.44-0.525-0.66-1.112-0.917c-0.733-0.33-1.442-0.697-1.442-1.54
		c0-0.844,0.721-1.577,2.029-1.577c0.721,0,1.332,0.232,1.674,0.587c0.195,0.195,0.306,0.44,0.306,0.685
		c0,0.403-0.281,0.672-0.611,0.672s-0.599-0.269-0.599-0.586c0-0.11,0.024-0.196,0.11-0.343c-0.037-0.024-0.085-0.061-0.184-0.098
		c-0.183-0.073-0.44-0.122-0.708-0.122c-0.538,0-0.966,0.22-0.966,0.599c0,0.403,0.526,0.636,1.137,0.917
		c0.721,0.33,1.418,0.721,1.418,1.54c0,1.039-0.843,1.613-2.09,1.613C134.979,52.95,134.271,52.682,133.88,52.278z"/>
	<path d="M142.375,48.489h-0.965l0.232-0.904h1.65l0.232,3.996l1.87-3.397h0.611l0.709,3.495c0.709-1.088,1.32-2.114,1.406-2.811
		c-0.269-0.062-0.538-0.294-0.538-0.673c0-0.391,0.305-0.709,0.708-0.709c0.477,0,0.819,0.354,0.819,0.93
		c0,0.892-0.782,2.407-2.347,4.583h-0.635l-0.697-3.215l-1.895,3.215h-0.709L142.375,48.489z"/>
	<path d="M150.296,51.874c0-0.158,0.037-0.391,0.085-0.574l0.733-2.811h-0.99l0.232-0.904h2.065l-0.978,3.728
		c-0.061,0.208-0.085,0.415-0.085,0.537c0,0.232,0.122,0.367,0.318,0.367c0.244,0,0.464-0.184,0.721-0.855l0.477,0.171
		c-0.318,1.051-0.831,1.405-1.479,1.405C150.687,52.938,150.296,52.51,150.296,51.874z M151.323,45.983
		c0-0.392,0.317-0.709,0.708-0.709c0.379,0,0.709,0.317,0.709,0.709c0,0.391-0.33,0.709-0.709,0.709
		C151.64,46.692,151.323,46.374,151.323,45.983z"/>
	<path d="M155.906,48.489l-0.672,2.701c-0.049,0.183-0.073,0.354-0.073,0.464c0,0.294,0.171,0.452,0.416,0.452
		c0.281,0,0.538-0.122,1.051-0.464l0.379,0.513c-0.685,0.6-1.259,0.782-1.772,0.782c-0.648,0-1.161-0.366-1.161-1.112
		c0-0.183,0.037-0.391,0.085-0.635l0.672-2.701h-0.953l0.208-0.904h0.966l0.305-1.198l1.173-0.403l-0.403,1.602h1.613l-0.232,0.904
		H155.906z"/>
	<path d="M159.695,44.81h-0.99l0.232-0.904h2.017l-1.1,4.706c0.379-0.587,1.002-1.112,1.699-1.112c0.807,0,1.455,0.55,1.455,1.491
		c0,0.257-0.037,0.55-0.134,0.855l-0.428,1.564c-0.037,0.159-0.061,0.317-0.061,0.415c0,0.245,0.123,0.392,0.318,0.392
		c0.22,0,0.44-0.184,0.685-0.855l0.477,0.171c-0.281,0.953-0.77,1.405-1.43,1.405c-0.721,0-1.124-0.439-1.124-1.051
		c0-0.171,0.037-0.391,0.085-0.587l0.44-1.601c0.061-0.208,0.073-0.367,0.073-0.538c0-0.465-0.33-0.77-0.807-0.77
		c-0.648,0-1.283,0.537-1.528,1.625l-0.66,2.836h-1.075L159.695,44.81z"/>
	<path d="M169.291,48.489l-0.672,2.701c-0.049,0.183-0.073,0.354-0.073,0.464c0,0.294,0.171,0.452,0.416,0.452
		c0.281,0,0.538-0.122,1.051-0.464l0.379,0.513c-0.685,0.6-1.259,0.782-1.772,0.782c-0.648,0-1.161-0.366-1.161-1.112
		c0-0.183,0.037-0.391,0.085-0.635l0.672-2.701h-0.953l0.208-0.904h0.966l0.305-1.198l1.173-0.403l-0.403,1.602h1.613l-0.232,0.904
		H169.291z"/>
	<path d="M173.08,44.81h-0.99l0.232-0.904h2.017l-1.1,4.706c0.379-0.587,1.002-1.112,1.699-1.112c0.807,0,1.455,0.55,1.455,1.491
		c0,0.257-0.037,0.55-0.134,0.855l-0.428,1.564c-0.037,0.159-0.062,0.317-0.062,0.415c0,0.245,0.123,0.392,0.318,0.392
		c0.22,0,0.44-0.184,0.685-0.855l0.477,0.171c-0.281,0.953-0.77,1.405-1.43,1.405c-0.721,0-1.124-0.439-1.124-1.051
		c0-0.171,0.037-0.391,0.085-0.587l0.44-1.601c0.061-0.208,0.073-0.367,0.073-0.538c0-0.465-0.33-0.77-0.807-0.77
		c-0.648,0-1.283,0.537-1.528,1.625l-0.66,2.836h-1.075L173.08,44.81z"/>
	<path d="M178.984,50.555v0.184c0,0.794,0.635,1.319,1.589,1.319c0.562,0,1.076-0.122,1.735-0.477l-0.208,1.002
		c-0.55,0.27-1.002,0.367-1.748,0.367c-1.259,0-2.42-0.795-2.42-2.236c0-1.785,1.32-3.228,2.885-3.228
		c1.283,0,2.126,0.733,2.126,1.968c0,0.33-0.061,0.697-0.196,1.101H178.984z M179.13,49.784h2.738
		c0.049-0.146,0.073-0.306,0.073-0.452c0-0.55-0.367-0.953-1.124-0.953C180.06,48.379,179.412,48.953,179.13,49.784z"/>
	<path d="M186.379,50.615c0-1.674,1.394-3.129,3.068-3.129c1.161,0,1.931,0.709,1.931,1.479c0,0.452-0.281,0.831-0.721,0.831
		c-0.33,0-0.623-0.257-0.623-0.647c0-0.159,0.085-0.354,0.22-0.465c-0.171-0.195-0.452-0.293-0.831-0.293
		c-0.953,0-1.968,0.818-1.968,2.163c0,0.916,0.611,1.503,1.503,1.503c0.611,0,1.234-0.244,1.772-0.66l-0.024,0.979
		c-0.513,0.366-1.149,0.574-1.845,0.574C187.467,52.95,186.379,52.082,186.379,50.615z"/>
	<path d="M192.186,50.848c0-1.797,1.247-3.361,2.774-3.361c0.794,0,1.394,0.575,1.576,1.247l0.343-1.174h1.002l-0.929,3.753
		c-0.062,0.22-0.098,0.415-0.098,0.537c0,0.232,0.109,0.367,0.317,0.367c0.195,0,0.44-0.184,0.685-0.855l0.477,0.171
		c-0.317,1.051-0.867,1.405-1.454,1.405c-0.623,0-1.014-0.428-1.014-1.063v-0.061c-0.453,0.623-1.088,1.137-1.882,1.137
		C192.931,52.95,192.186,52.131,192.186,50.848z M196.292,49.724c0-0.782-0.391-1.296-1.197-1.296c-1.027,0-1.797,1.112-1.797,2.298
		c0,0.771,0.379,1.308,1.112,1.308C195.486,52.033,196.292,50.872,196.292,49.724z"/>
	<path d="M200.253,48.489h-0.978l0.231-0.904h1.883l-0.294,1.234c0.428-0.733,1.063-1.32,1.761-1.32c0.77,0,1.271,0.514,1.332,1.308
		c0.477-0.807,1.148-1.308,1.784-1.308c0.771,0,1.369,0.55,1.369,1.491c0,0.257-0.049,0.55-0.135,0.855l-0.452,1.552
		c-0.036,0.159-0.073,0.33-0.073,0.428c0,0.245,0.122,0.392,0.33,0.392s0.44-0.184,0.685-0.855l0.477,0.171
		c-0.281,0.953-0.782,1.405-1.43,1.405c-0.722,0-1.125-0.439-1.125-1.051c0-0.171,0.037-0.403,0.086-0.599l0.439-1.54
		c0.073-0.221,0.098-0.416,0.098-0.587c0-0.477-0.317-0.77-0.721-0.77c-0.611,0-1.197,0.562-1.479,1.674l-0.709,2.787h-1.076
		l0.795-3.093c0.049-0.232,0.085-0.452,0.085-0.623c0-0.428-0.293-0.745-0.721-0.745c-0.611,0-1.222,0.574-1.491,1.662l-0.696,2.799
		h-1.076L200.253,48.489z"/>
	<path d="M209.934,50.555v0.184c0,0.794,0.636,1.319,1.589,1.319c0.562,0,1.076-0.122,1.735-0.477l-0.207,1.002
		c-0.551,0.27-1.003,0.367-1.748,0.367c-1.259,0-2.42-0.795-2.42-2.236c0-1.785,1.32-3.228,2.885-3.228
		c1.283,0,2.126,0.733,2.126,1.968c0,0.33-0.061,0.697-0.195,1.101H209.934z M210.08,49.784h2.738
		c0.049-0.146,0.073-0.306,0.073-0.452c0-0.55-0.367-0.953-1.124-0.953C211.01,48.379,210.361,48.953,210.08,49.784z"/>
	<path d="M215.923,48.489h-0.978l0.232-0.904h1.882l-0.342,1.479c0.647-1.039,1.259-1.564,1.833-1.564
		c0.428,0,0.782,0.306,0.782,0.733c0,0.415-0.342,0.745-0.733,0.745c-0.366,0-0.647-0.244-0.709-0.537
		c-0.379,0.171-1.124,0.916-1.405,2.053l-0.587,2.359h-1.075L215.923,48.489z"/>
	<path d="M219.456,50.848c0-1.797,1.246-3.361,2.774-3.361c0.794,0,1.394,0.575,1.576,1.247l0.343-1.174h1.002l-0.929,3.753
		c-0.062,0.22-0.098,0.415-0.098,0.537c0,0.232,0.109,0.367,0.317,0.367c0.195,0,0.44-0.184,0.685-0.855l0.477,0.171
		c-0.317,1.051-0.867,1.405-1.454,1.405c-0.623,0-1.015-0.428-1.015-1.063v-0.061c-0.452,0.623-1.088,1.137-1.882,1.137
		C220.201,52.95,219.456,52.131,219.456,50.848z M223.562,49.724c0-0.782-0.391-1.296-1.197-1.296c-1.027,0-1.797,1.112-1.797,2.298
		c0,0.771,0.379,1.308,1.112,1.308C222.756,52.033,223.562,50.872,223.562,49.724z"/>
	<path d="M228.941,50.848c0-1.797,1.246-3.361,2.774-3.361c0.794,0,1.394,0.575,1.576,1.247l0.343-1.174h1.002l-0.929,3.753
		c-0.062,0.22-0.098,0.415-0.098,0.537c0,0.232,0.109,0.367,0.317,0.367c0.195,0,0.44-0.184,0.685-0.855l0.477,0.171
		c-0.317,1.051-0.867,1.405-1.454,1.405c-0.623,0-1.015-0.428-1.015-1.063v-0.061c-0.452,0.623-1.088,1.137-1.882,1.137
		C229.687,52.95,228.941,52.131,228.941,50.848z M233.048,49.724c0-0.782-0.391-1.296-1.197-1.296c-1.027,0-1.797,1.112-1.797,2.298
		c0,0.771,0.379,1.308,1.112,1.308C232.241,52.033,233.048,50.872,233.048,49.724z"/>
	<path d="M239.392,51.887c0-0.171,0.037-0.403,0.086-0.599l0.452-1.589c0.062-0.208,0.086-0.367,0.086-0.538
		c0-0.465-0.318-0.77-0.795-0.77c-0.647,0-1.259,0.55-1.527,1.601l-0.709,2.86h-1.076l1.101-4.363h-0.978l0.231-0.904h1.883
		l-0.281,1.234c0.415-0.733,1.1-1.32,1.821-1.32c0.807,0,1.43,0.55,1.43,1.491c0,0.257-0.049,0.55-0.135,0.855l-0.452,1.552
		c-0.036,0.159-0.073,0.33-0.073,0.428c0,0.245,0.122,0.392,0.33,0.392s0.44-0.184,0.685-0.855l0.477,0.171
		c-0.281,0.953-0.782,1.405-1.43,1.405C239.795,52.938,239.392,52.498,239.392,51.887z"/>
	<path d="M245.442,47.486c0.782,0,1.394,0.575,1.589,1.21l0.893-3.887h-0.978l0.22-0.904h2.029l-1.736,7.407
		c-0.049,0.232-0.085,0.415-0.085,0.537c0,0.232,0.098,0.367,0.306,0.367s0.439-0.184,0.696-0.855l0.477,0.171
		c-0.317,1.051-0.88,1.405-1.454,1.405c-0.636,0-1.026-0.428-1.026-1.075v-0.049c-0.44,0.636-1.076,1.137-1.87,1.137
		c-1.052,0-1.821-0.831-1.821-2.103C242.681,49.026,243.939,47.486,245.442,47.486z M246.812,49.735
		c0-0.794-0.428-1.308-1.222-1.308c-1.027,0-1.797,1.112-1.797,2.298c0,0.758,0.403,1.308,1.137,1.308
		C245.98,52.033,246.812,50.909,246.812,49.735z"/>
	<path d="M252.166,50.615c0-1.613,1.259-3.129,2.982-3.129c1.516,0,2.371,1.088,2.371,2.347c0,1.602-1.259,3.117-2.982,3.117
		C253.021,52.95,252.166,51.862,252.166,50.615z M256.443,49.821c0-0.904-0.586-1.43-1.344-1.43c-1.027,0-1.858,0.989-1.858,2.224
		c0,0.917,0.587,1.442,1.345,1.442C255.612,52.058,256.443,51.056,256.443,49.821z"/>
	<path d="M260.722,47.585l-0.807,3.189c-0.036,0.171-0.073,0.354-0.073,0.525c0,0.465,0.281,0.746,0.733,0.746
		c0.697,0,1.283-0.562,1.553-1.602l0.709-2.859h1.075l-0.941,3.728c-0.049,0.22-0.085,0.415-0.085,0.537
		c0,0.232,0.109,0.367,0.306,0.367c0.207,0,0.439-0.184,0.696-0.855l0.477,0.171c-0.317,1.051-0.88,1.405-1.454,1.405
		c-0.624,0-1.015-0.428-1.015-1.088V51.74c-0.428,0.721-1.075,1.21-1.784,1.21c-0.746,0-1.369-0.538-1.369-1.394
		c0-0.269,0.049-0.574,0.122-0.88l0.562-2.188h-0.978l0.231-0.904H260.722z"/>
	<path d="M266.271,48.489h-0.978l0.232-0.904h1.882l-0.342,1.479c0.647-1.039,1.259-1.564,1.833-1.564
		c0.428,0,0.782,0.306,0.782,0.733c0,0.415-0.342,0.745-0.733,0.745c-0.366,0-0.647-0.244-0.709-0.537
		c-0.379,0.171-1.124,0.916-1.405,2.053l-0.587,2.359h-1.075L266.271,48.489z"/>
	<path d="M274.767,48.489l-0.672,2.701c-0.049,0.183-0.073,0.354-0.073,0.464c0,0.294,0.171,0.452,0.415,0.452
		c0.281,0,0.538-0.122,1.052-0.464l0.379,0.513c-0.685,0.6-1.26,0.782-1.772,0.782c-0.648,0-1.161-0.366-1.161-1.112
		c0-0.183,0.036-0.391,0.085-0.635l0.673-2.701h-0.953l0.207-0.904h0.966l0.306-1.198l1.173-0.403l-0.403,1.602h1.613l-0.231,0.904
		H274.767z"/>
	<path d="M276.894,50.848c0-1.797,1.247-3.361,2.774-3.361c0.795,0,1.394,0.575,1.577,1.247l0.342-1.174h1.003l-0.93,3.753
		c-0.061,0.22-0.098,0.415-0.098,0.537c0,0.232,0.11,0.367,0.318,0.367c0.195,0,0.439-0.184,0.685-0.855l0.477,0.171
		c-0.318,1.051-0.868,1.405-1.455,1.405c-0.623,0-1.014-0.428-1.014-1.063v-0.061c-0.453,0.623-1.088,1.137-1.883,1.137
		C277.64,52.95,276.894,52.131,276.894,50.848z M281.001,49.724c0-0.782-0.392-1.296-1.198-1.296c-1.026,0-1.797,1.112-1.797,2.298
		c0,0.771,0.379,1.308,1.112,1.308C280.194,52.033,281.001,50.872,281.001,49.724z"/>
	<path d="M283.947,52.278c-0.208-0.208-0.33-0.44-0.33-0.697c0-0.391,0.269-0.685,0.623-0.685c0.342,0,0.587,0.27,0.587,0.587
		c0,0.122-0.049,0.257-0.123,0.342c0.05,0.049,0.11,0.086,0.196,0.135c0.244,0.122,0.599,0.208,0.978,0.208
		c0.55,0,1.015-0.22,1.015-0.647c0-0.44-0.525-0.66-1.112-0.917c-0.733-0.33-1.442-0.697-1.442-1.54
		c0-0.844,0.721-1.577,2.029-1.577c0.721,0,1.332,0.232,1.674,0.587c0.195,0.195,0.306,0.44,0.306,0.685
		c0,0.403-0.281,0.672-0.611,0.672s-0.599-0.269-0.599-0.586c0-0.11,0.024-0.196,0.11-0.343c-0.037-0.024-0.086-0.061-0.184-0.098
		c-0.184-0.073-0.44-0.122-0.709-0.122c-0.538,0-0.966,0.22-0.966,0.599c0,0.403,0.526,0.636,1.137,0.917
		c0.722,0.33,1.418,0.721,1.418,1.54c0,1.039-0.843,1.613-2.09,1.613C285.047,52.95,284.338,52.682,283.947,52.278z"/>
	<path d="M291.306,48.489l-0.673,2.701c-0.049,0.183-0.073,0.354-0.073,0.464c0,0.294,0.171,0.452,0.416,0.452
		c0.281,0,0.537-0.122,1.051-0.464l0.379,0.513c-0.685,0.6-1.259,0.782-1.772,0.782c-0.647,0-1.161-0.366-1.161-1.112
		c0-0.183,0.037-0.391,0.086-0.635l0.672-2.701h-0.953l0.208-0.904h0.966l0.305-1.198l1.174-0.403l-0.403,1.602h1.613l-0.232,0.904
		H291.306z"/>
	<path d="M294.459,50.555v0.184c0,0.794,0.635,1.319,1.589,1.319c0.562,0,1.075-0.122,1.735-0.477l-0.208,1.002
		c-0.55,0.27-1.002,0.367-1.748,0.367c-1.259,0-2.42-0.795-2.42-2.236c0-1.785,1.32-3.228,2.885-3.228
		c1.283,0,2.127,0.733,2.127,1.968c0,0.33-0.062,0.697-0.196,1.101H294.459z M294.605,49.784h2.737
		c0.049-0.146,0.073-0.306,0.073-0.452c0-0.55-0.366-0.953-1.124-0.953S294.887,48.953,294.605,49.784z"/>
	<path d="M300.986,44.81h-0.99l0.232-0.904h2.017l-1.088,4.669c0.403-0.586,1.063-1.088,1.772-1.088
		c1.223,0,1.931,0.855,1.931,2.127c0,1.833-1.271,3.337-2.799,3.337c-0.782,0-1.441-0.501-1.613-1.21l-0.317,1.112h-1.002
		L300.986,44.81z M303.761,49.76c0-0.794-0.428-1.356-1.186-1.356c-1.039,0-1.919,1.149-1.919,2.322
		c0,0.771,0.452,1.283,1.271,1.283C302.967,52.009,303.761,50.921,303.761,49.76z"/>
	<path d="M308.21,47.585l-0.807,3.189c-0.036,0.171-0.073,0.354-0.073,0.525c0,0.465,0.281,0.746,0.733,0.746
		c0.697,0,1.283-0.562,1.553-1.602l0.709-2.859h1.075l-0.941,3.728c-0.049,0.22-0.085,0.415-0.085,0.537
		c0,0.232,0.109,0.367,0.306,0.367c0.207,0,0.439-0.184,0.696-0.855l0.477,0.171c-0.317,1.051-0.88,1.405-1.454,1.405
		c-0.624,0-1.015-0.428-1.015-1.088V51.74c-0.428,0.721-1.075,1.21-1.784,1.21c-0.746,0-1.369-0.538-1.369-1.394
		c0-0.269,0.049-0.574,0.122-0.88l0.562-2.188h-0.978l0.231-0.904H308.21z"/>
	<path d="M315.397,47.486c0.782,0,1.394,0.575,1.589,1.21l0.893-3.887H316.9l0.221-0.904h2.028l-1.735,7.407
		c-0.049,0.232-0.086,0.415-0.086,0.537c0,0.232,0.098,0.367,0.306,0.367s0.44-0.184,0.697-0.855l0.477,0.171
		c-0.318,1.051-0.88,1.405-1.455,1.405c-0.635,0-1.026-0.428-1.026-1.075v-0.049c-0.439,0.636-1.075,1.137-1.87,1.137
		c-1.051,0-1.821-0.831-1.821-2.103C312.635,49.026,313.894,47.486,315.397,47.486z M316.767,49.735
		c0-0.794-0.428-1.308-1.223-1.308c-1.026,0-1.797,1.112-1.797,2.298c0,0.758,0.403,1.308,1.137,1.308
		C315.936,52.033,316.767,50.909,316.767,49.735z"/>
	<path d="M319.7,52.278c-0.208-0.208-0.33-0.44-0.33-0.697c0-0.391,0.269-0.685,0.623-0.685c0.343,0,0.587,0.27,0.587,0.587
		c0,0.122-0.049,0.257-0.122,0.342c0.049,0.049,0.11,0.086,0.195,0.135c0.245,0.122,0.599,0.208,0.978,0.208
		c0.551,0,1.015-0.22,1.015-0.647c0-0.44-0.525-0.66-1.112-0.917c-0.733-0.33-1.441-0.697-1.441-1.54
		c0-0.844,0.721-1.577,2.028-1.577c0.722,0,1.332,0.232,1.675,0.587c0.195,0.195,0.306,0.44,0.306,0.685
		c0,0.403-0.281,0.672-0.611,0.672s-0.599-0.269-0.599-0.586c0-0.11,0.024-0.196,0.109-0.343c-0.036-0.024-0.085-0.061-0.184-0.098
		c-0.183-0.073-0.439-0.122-0.708-0.122c-0.538,0-0.966,0.22-0.966,0.599c0,0.403,0.525,0.636,1.137,0.917
		c0.721,0.33,1.418,0.721,1.418,1.54c0,1.039-0.844,1.613-2.091,1.613C320.8,52.95,320.092,52.682,319.7,52.278z"/>
	<path d="M324.7,52.082c0-0.477,0.379-0.867,0.855-0.867s0.855,0.391,0.855,0.867s-0.379,0.868-0.855,0.868
		S324.7,52.559,324.7,52.082z"/>
</g>
<g>
	<path d="M12.478,58.04c0,4.867,1.034,7.447,5.016,8.845v0.153c-3.169,0-5.898,0.366-8.775-1.841
		c-2.433-2.145-2.652-5.31-2.652-8.632V42.263c0-2.507,0.073-3.982-1.33-5.899c-0.96-1.547-2.284-2.356-3.759-2.729v-0.143
		c4.348-1.185,5.089-3.475,5.089-8.483V12.177c0-2.956,0.073-6.789,1.988-8.996c2.439-2.954,6.344-2.729,9.439-2.729v0.215
		C13.662,2,12.478,4.654,12.478,9.449V22.87c0,5.606-0.656,9.437-5.529,10.622v0.143c4.648,1.252,5.529,4.646,5.529,9.954V58.04z"/>
</g>
<g>
	<path d="M379.495,9.469c0-4.867-1.034-7.447-5.016-8.845V0.471c3.169,0,5.898-0.366,8.775,1.841
		c2.433,2.145,2.652,5.31,2.652,8.632v14.302c0,2.507-0.073,3.982,1.33,5.899c0.96,1.547,2.284,2.356,3.759,2.729v0.143
		c-4.348,1.185-5.089,3.475-5.089,8.483v12.831c0,2.956-0.073,6.789-1.988,8.996c-2.439,2.954-6.344,2.729-9.439,2.729v-0.215
		c3.833-1.332,5.016-3.986,5.016-8.781V44.64c0-5.606,0.656-9.437,5.529-10.622v-0.143c-4.648-1.252-5.529-4.646-5.529-9.954V9.469z
		"/>
</g>
</svg>
